<?xml version="1.0" encoding="UTF-8"?>
<svg xmlns="http://www.w3.org/2000/svg" xmlns:xlink="http://www.w3.org/1999/xlink" width="77px" height="78px" viewBox="0 0 77 78" version="1.1">
<g id="surface1">
<path style=" stroke:none;fill-rule:nonzero;fill:rgb(89.019608%,89.019608%,89.019608%);fill-opacity:1;" d="M 29.253906 64.429688 C 29.253906 64.429688 22.945312 59.042969 17.234375 59.988281 L 11.636719 66.546875 C 11.636719 66.546875 -2.59375 54.558594 0.421875 33.117188 C 0.421875 33.117188 1.011719 29.871094 6.679688 29.554688 C 12.34375 29.242188 20.480469 32.84375 24.792969 44.070312 C 29.113281 55.300781 28.28125 54.546875 29.253906 64.429688 M 21.628906 17.429688 C 21.628906 17.429688 29.90625 14.953125 32.011719 9.746094 L 29.226562 1.796875 C 29.226562 1.796875 46.933594 -3.933594 63.832031 9.480469 C 63.832031 9.480469 66.269531 11.691406 63.617188 16.542969 C 60.960938 21.390625 53.699219 26.191406 41.777344 24.074219 C 29.859375 21.957031 30.59375 21.644531 21.628906 17.429688 M 66.28125 34.429688 C 66.28125 34.429688 64.691406 42.835938 68.296875 47.171875 L 76.699219 48.597656 C 76.699219 48.597656 73.289062 66.675781 53.277344 74.917969 C 53.277344 74.917969 50.136719 75.964844 47.101562 71.335938 C 44.0625 66.707031 43.257812 58.0625 50.863281 48.769531 C 58.46875 39.480469 58.199219 40.207031 66.28125 34.429688 M 66.28125 34.429688 "/>
<path style=" stroke:none;fill-rule:nonzero;fill:rgb(10.980392%,10.980392%,10.980392%);fill-opacity:1;" d="M 34.992188 0.789062 L 36.988281 8.386719 L 39.3125 7.867188 L 37.714844 0.574219 C 36.792969 0.632812 35.890625 0.703125 34.992188 0.789062 M 39.910156 0.574219 L 41.46875 7.503906 L 43.640625 7.242188 L 42.390625 0.753906 L 41.214844 0.667969 L 41.140625 0.667969 Z M 45.6875 7.117188 L 47.765625 7.050781 L 47.195312 1.480469 C 46.375 1.300781 45.542969 1.148438 44.714844 1.015625 Z M 49.761719 7.050781 L 52.117188 7.148438 L 51.65625 2.714844 C 50.855469 2.441406 50.042969 2.1875 49.210938 1.96875 Z M 54.046875 7.351562 L 56.714844 7.691406 L 56.238281 4.621094 C 55.398438 4.199219 54.535156 3.816406 53.640625 3.46875 Z M 58.339844 8.011719 L 63.722656 9.359375 C 63.640625 9.265625 63.453125 9.207031 63.367188 9.113281 C 61.667969 7.769531 59.859375 6.570312 57.964844 5.523438 Z M 58.339844 8.011719 "/>
<path style=" stroke:none;fill-rule:nonzero;fill:rgb(26.274511%,26.274511%,26.274511%);fill-opacity:1;" d="M 32.117188 9.71875 L 34.859375 8.867188 L 32.519531 1.035156 C 31.453125 1.195312 30.386719 1.425781 29.347656 1.714844 Z M 34.988281 0.742188 L 36.996094 8.378906 L 39.320312 7.859375 L 37.707031 0.574219 C 36.792969 0.574219 35.878906 0.660156 34.988281 0.742188 M 39.910156 0.574219 L 41.476562 7.523438 L 43.648438 7.257812 L 42.390625 0.742188 L 41.207031 0.648438 L 41.140625 0.648438 Z M 45.6875 7.117188 L 47.765625 7.050781 L 47.195312 1.480469 C 46.375 1.300781 45.542969 1.148438 44.714844 1.015625 Z M 49.761719 7.050781 L 52.117188 7.148438 L 51.65625 2.714844 C 50.855469 2.441406 50.042969 2.1875 49.210938 1.96875 Z M 54.046875 7.351562 L 56.714844 7.691406 L 56.238281 4.621094 C 55.398438 4.199219 54.535156 3.816406 53.640625 3.46875 Z M 58.339844 8.011719 L 63.867188 9.4375 C 63.789062 9.34375 63.546875 9.191406 63.339844 9.027344 C 61.652344 7.710938 59.855469 6.539062 57.964844 5.523438 Z M 68.285156 47.257812 L 67.679688 50.023438 L 75.761719 51.808594 C 76.117188 50.796875 76.402344 49.773438 76.628906 48.726562 Z M 74.808594 54.191406 L 67.082031 52.234375 L 66.429688 54.5 L 73.652344 56.609375 C 74.058594 55.8125 74.453125 55.007812 74.808594 54.191406 M 72.578125 58.523438 L 65.65625 56.523438 L 64.886719 58.53125 L 71.246094 60.628906 C 71.464844 60.304688 71.6875 59.972656 71.90625 59.648438 L 71.964844 59.554688 Z M 64.023438 60.347656 L 63.070312 62.164062 L 68.265625 64.371094 C 68.816406 63.746094 69.351562 63.105469 69.863281 62.4375 Z M 62.101562 63.925781 L 60.882812 65.914062 L 65.027344 67.621094 C 65.648438 67.0625 66.261719 66.492188 66.867188 65.914062 Z M 59.773438 67.488281 L 58.179688 69.628906 L 61.117188 70.707031 C 61.894531 70.175781 62.652344 69.609375 63.394531 69 Z M 57.097656 70.867188 L 53.269531 74.917969 C 53.390625 74.917969 53.699219 74.710938 53.820312 74.683594 C 55.785156 73.875 57.667969 72.902344 59.464844 71.773438 Z M 17.148438 59.964844 L 14.957031 58.257812 L 9.386719 64.234375 C 10.058594 65.023438 10.789062 65.769531 11.558594 66.460938 Z M 7.785156 62.246094 L 13.351562 56.628906 L 11.691406 54.914062 L 6.238281 60.042969 C 6.707031 60.785156 7.207031 61.535156 7.785156 62.246094 M 5.070312 58.167969 L 10.261719 53.261719 L 8.902344 51.550781 L 3.882812 55.960938 C 4.058594 56.308594 4.214844 56.628906 4.394531 56.976562 L 4.457031 57.09375 C 4.683594 57.460938 4.871094 57.789062 5.070312 58.167969 M 7.785156 49.90625 L 6.660156 48.199219 L 2.109375 51.613281 C 2.386719 52.398438 2.675781 53.179688 2.976562 53.960938 Z M 5.605469 46.476562 L 4.472656 44.441406 L 0.867188 47.128906 C 1.046875 47.984375 1.238281 48.777344 1.480469 49.589844 Z M 3.660156 42.6875 L 2.59375 40.261719 L 0.140625 42.242188 C 0.214844 43.167969 0.328125 44.121094 0.476562 45.042969 Z M 1.996094 38.792969 L 0.410156 33.238281 C 0.410156 33.355469 0.363281 33.484375 0.277344 33.984375 C 0.00390625 36.105469 -0.0898438 38.246094 0 40.382812 Z M 1.996094 38.792969 "/>
<path style=" stroke:none;fill-rule:nonzero;fill:rgb(60.784316%,60.784316%,60.784316%);fill-opacity:1;" d="M 63.859375 9.4375 C 63.859375 9.4375 65.121094 10.582031 64.722656 13.648438 C 64.511719 14.929688 63.953125 16.136719 63.113281 17.128906 C 59.273438 21.980469 50.136719 30.511719 21.488281 17.589844 C 21.488281 17.589844 10.667969 21.476562 5.535156 19.371094 C 2.878906 23.578125 1.136719 28.292969 0.421875 33.210938 C 0.421875 33.210938 0.671875 31.503906 3.566406 30.296875 C 4.785156 29.800781 6.117188 29.636719 7.425781 29.820312 C 13.605469 30.582031 25.695312 33.96875 29.179688 64.890625 C 29.179688 64.890625 38.109375 72.0625 38.917969 77.492188 C 43.738281 77.507812 48.523438 76.636719 53.027344 74.933594 C 53.027344 74.933594 51.367188 75.539062 48.867188 73.667969 C 47.832031 72.871094 47.039062 71.808594 46.5625 70.59375 C 44.144531 64.925781 41.035156 52.917969 66.464844 34.5 C 66.464844 34.5 68.296875 23.277344 72.664062 19.878906 C 70.425781 15.871094 67.4375 12.328125 63.859375 9.4375 M 63.859375 9.4375 "/>
<path style=" stroke:none;fill-rule:nonzero;fill:rgb(10.980392%,10.980392%,10.980392%);fill-opacity:1;" d="M 66.4375 34.515625 C 67.035156 31.101562 68.011719 27.761719 69.359375 24.566406 C 67.882812 21.550781 65.953125 18.773438 63.640625 16.335938 C 63.46875 16.609375 63.28125 16.875 63.078125 17.128906 C 59.234375 21.980469 50.101562 30.511719 21.453125 17.589844 C 18.144531 18.738281 14.726562 19.519531 11.246094 19.917969 C 9.105469 22.910156 7.480469 26.238281 6.445312 29.769531 C 6.769531 29.765625 7.097656 29.777344 7.425781 29.808594 C 13.605469 30.570312 25.695312 33.976562 29.179688 64.898438 C 31.875 67.105469 34.308594 69.613281 36.4375 72.363281 C 37.261719 72.421875 38.082031 72.449219 38.917969 72.449219 C 41.636719 72.449219 44.347656 72.125 47 71.484375 C 46.835938 71.207031 46.691406 70.921875 46.5625 70.628906 C 44.125 64.941406 41.035156 52.933594 66.4375 34.515625 M 66.4375 34.515625 "/>
<path style=" stroke:none;fill-rule:nonzero;fill:rgb(26.274511%,26.274511%,26.274511%);fill-opacity:1;" d="M 63.859375 9.4375 C 64.367188 10.199219 67.457031 15.574219 58.070312 21.632812 C 58.070312 21.632812 48.882812 28.566406 26.808594 19.835938 C 26.808594 19.835938 19.984375 17.4375 13.269531 10.078125 C 6.351562 16.019531 1.785156 24.230469 0.410156 33.238281 C 0.792969 32.429688 3.867188 26.90625 13.996094 31.769531 C 13.996094 31.769531 24.734375 35.992188 28.480469 59.164062 C 28.480469 59.164062 29.890625 66.171875 26.941406 75.644531 C 35.554688 78.359375 44.839844 78.097656 53.289062 74.910156 C 52.488281 74.976562 46.039062 75.128906 45.179688 63.960938 C 45.179688 63.960938 43.445312 52.679688 61.84375 37.792969 C 61.84375 37.792969 67.265625 33.058594 77.035156 30.796875 C 75.164062 22.402344 70.527344 14.886719 63.859375 9.4375 M 63.859375 9.4375 "/>
<path style=" stroke:none;fill-rule:nonzero;fill:rgb(41.176471%,41.176471%,41.176471%);fill-opacity:1;" d="M 63.625 16.355469 C 62.171875 18.488281 60.277344 20.289062 58.070312 21.632812 C 58.070312 21.632812 48.894531 28.554688 26.820312 19.835938 C 23.242188 18.367188 19.9375 16.300781 17.046875 13.734375 C 12.035156 17.941406 8.371094 23.523438 6.515625 29.789062 C 9.117188 29.953125 11.652344 30.65625 13.960938 31.84375 C 13.960938 31.84375 24.570312 35.925781 28.308594 59.089844 C 28.992188 62.898438 28.953125 66.800781 28.1875 70.59375 C 34.316406 72.625 40.898438 72.878906 47.167969 71.328125 C 46.191406 69.714844 45.488281 67.375 45.230469 63.976562 C 45.230469 63.976562 43.445312 52.945312 61.828125 38.066406 C 64.828125 35.550781 68.265625 33.601562 71.964844 32.304688 C 70.714844 26.320312 67.828125 20.800781 63.625 16.355469 M 63.625 16.355469 "/>
<path style=" stroke:none;fill-rule:nonzero;fill:rgb(26.274511%,26.274511%,26.274511%);fill-opacity:1;" d="M 45.339844 39.085938 C 45.339844 35.582031 42.464844 32.742188 38.917969 32.742188 C 35.367188 32.742188 32.488281 35.582031 32.488281 39.085938 C 32.488281 42.589844 35.367188 45.429688 38.917969 45.429688 C 42.464844 45.429688 45.339844 42.589844 45.339844 39.085938 M 45.339844 39.085938 "/>
</g>
</svg>
