ISO-10303-21;
HEADER;
FILE_DESCRIPTION(('no description'),'unknown implementation level');
FILE_NAME('solid6oSVm7swyy5TiHdTPTR7_LD7wAU_1.STP','  ',('CIMSOURCE GmbH'),('CADClick - KiM GmbH - www.kimweb.de'),'unknown preprocess','ACIS','unknown authorization');
FILE_SCHEMA(('automotive_design'));
ENDSEC;
DATA;
#1=MECHANICAL_DESIGN_GEOMETRIC_PRESENTATION_REPRESENTATION(' ',(#14,#15,#16,#17,#18,#19,#20,#21,#22,#23,#24,#25,#26,#27,#28,#29,#30,#31,#32,#33,#34,#35,#36,#37,#38,#39,#40,#41,#42,#43,#44,#45,#46,#47,#48,#49,#50,#51,#52,#53,#54,#55,#56,#57,#58,#59,#60,#61,#62,#63,#64,#65,#66,#67,#68,#69,#70,#71,#72,#73,#74,#75,#76,#77,#78,#79,#80,#81,#82,#83,#84,#85,#86,#87,#88,#89,#90,#91,#92,#93,#94,#95,#96,#97,#98,#99,#100,#101,#102,#103,#104,#105,#106,#107,#108,#109,#110,#111,#112,#113,#114,#115,#116,#117,#118,#119,#120,#121,#122,#123,#124,#125,#126,#127,#128,#129,#130,#131,#132,#133,#134,#135,#136,#137,#138,#139,#140,#141,#142,#143,#144,#145,#146,#147,#148,#149,#150),#10);
#2=PRODUCT_DEFINITION_CONTEXT('',#151,'design');
#3=APPLICATION_PROTOCOL_DEFINITION('INTERNATIONAL STANDARD','automotive_design',1994,#151);
#4=PRODUCT_CATEGORY_RELATIONSHIP('NONE','NONE',#152,#153);
#5=SHAPE_DEFINITION_REPRESENTATION(#154,#155);
#6=PRODUCT_DEFINITION_CONTEXT('',#156,'design');
#7=APPLICATION_PROTOCOL_DEFINITION('INTERNATIONAL STANDARD','automotive_design',1994,#156);
#8=PRODUCT_CATEGORY_RELATIONSHIP('NONE','NONE',#157,#158);
#9=SHAPE_DEFINITION_REPRESENTATION(#159,#160);
#10= (GEOMETRIC_REPRESENTATION_CONTEXT(3)GLOBAL_UNCERTAINTY_ASSIGNED_CONTEXT((#163))GLOBAL_UNIT_ASSIGNED_CONTEXT((#165,#166,#167))REPRESENTATION_CONTEXT('NONE','WORKSPACE'));
#14=STYLED_ITEM('',(#169),#170);
#15=STYLED_ITEM('',(#171),#172);
#16=STYLED_ITEM('',(#173),#174);
#17=STYLED_ITEM('',(#175),#176);
#18=STYLED_ITEM('',(#177),#178);
#19=STYLED_ITEM('',(#179),#180);
#20=STYLED_ITEM('',(#181),#182);
#21=STYLED_ITEM('',(#183),#184);
#22=STYLED_ITEM('',(#185),#186);
#23=STYLED_ITEM('',(#187),#188);
#24=STYLED_ITEM('',(#189),#190);
#25=STYLED_ITEM('',(#191),#192);
#26=STYLED_ITEM('',(#193),#194);
#27=STYLED_ITEM('',(#195),#196);
#28=STYLED_ITEM('',(#197),#198);
#29=STYLED_ITEM('',(#199),#200);
#30=STYLED_ITEM('',(#201),#202);
#31=STYLED_ITEM('',(#203),#204);
#32=STYLED_ITEM('',(#205),#206);
#33=STYLED_ITEM('',(#207),#208);
#34=STYLED_ITEM('',(#209),#210);
#35=STYLED_ITEM('',(#211),#212);
#36=STYLED_ITEM('',(#213),#214);
#37=STYLED_ITEM('',(#215),#216);
#38=STYLED_ITEM('',(#217),#218);
#39=STYLED_ITEM('',(#219),#220);
#40=STYLED_ITEM('',(#221),#222);
#41=STYLED_ITEM('',(#223),#224);
#42=STYLED_ITEM('',(#225),#226);
#43=STYLED_ITEM('',(#227),#228);
#44=STYLED_ITEM('',(#229),#230);
#45=STYLED_ITEM('',(#231),#232);
#46=STYLED_ITEM('',(#233),#234);
#47=STYLED_ITEM('',(#235),#236);
#48=STYLED_ITEM('',(#237),#238);
#49=STYLED_ITEM('',(#239),#240);
#50=STYLED_ITEM('',(#241),#242);
#51=STYLED_ITEM('',(#243),#244);
#52=STYLED_ITEM('',(#245),#246);
#53=STYLED_ITEM('',(#247),#248);
#54=STYLED_ITEM('',(#249),#250);
#55=STYLED_ITEM('',(#251),#252);
#56=STYLED_ITEM('',(#253),#254);
#57=STYLED_ITEM('',(#255),#256);
#58=STYLED_ITEM('',(#257),#258);
#59=STYLED_ITEM('',(#259),#260);
#60=STYLED_ITEM('',(#261),#262);
#61=STYLED_ITEM('',(#263),#264);
#62=STYLED_ITEM('',(#265),#266);
#63=STYLED_ITEM('',(#267),#268);
#64=STYLED_ITEM('',(#269),#270);
#65=STYLED_ITEM('',(#271),#272);
#66=STYLED_ITEM('',(#273),#274);
#67=STYLED_ITEM('',(#275),#276);
#68=STYLED_ITEM('',(#277),#278);
#69=STYLED_ITEM('',(#279),#280);
#70=STYLED_ITEM('',(#281),#282);
#71=STYLED_ITEM('',(#283),#284);
#72=STYLED_ITEM('',(#285),#286);
#73=STYLED_ITEM('',(#287),#288);
#74=STYLED_ITEM('',(#289),#290);
#75=STYLED_ITEM('',(#291),#292);
#76=STYLED_ITEM('',(#293),#294);
#77=STYLED_ITEM('',(#295),#296);
#78=STYLED_ITEM('',(#297),#298);
#79=STYLED_ITEM('',(#299),#300);
#80=STYLED_ITEM('',(#301),#302);
#81=STYLED_ITEM('',(#303),#304);
#82=STYLED_ITEM('',(#305),#306);
#83=STYLED_ITEM('',(#307),#308);
#84=STYLED_ITEM('',(#309),#310);
#85=STYLED_ITEM('',(#311),#312);
#86=STYLED_ITEM('',(#313),#314);
#87=STYLED_ITEM('',(#315),#316);
#88=STYLED_ITEM('',(#317),#318);
#89=STYLED_ITEM('',(#319),#320);
#90=STYLED_ITEM('',(#321),#322);
#91=STYLED_ITEM('',(#323),#324);
#92=STYLED_ITEM('',(#325),#326);
#93=STYLED_ITEM('',(#327),#328);
#94=STYLED_ITEM('',(#329),#330);
#95=STYLED_ITEM('',(#331),#332);
#96=STYLED_ITEM('',(#333),#334);
#97=STYLED_ITEM('',(#335),#336);
#98=STYLED_ITEM('',(#337),#338);
#99=STYLED_ITEM('',(#339),#340);
#100=STYLED_ITEM('',(#341),#342);
#101=STYLED_ITEM('',(#343),#344);
#102=STYLED_ITEM('',(#345),#346);
#103=STYLED_ITEM('',(#347),#348);
#104=STYLED_ITEM('',(#349),#350);
#105=STYLED_ITEM('',(#351),#352);
#106=STYLED_ITEM('',(#353),#354);
#107=STYLED_ITEM('',(#355),#356);
#108=STYLED_ITEM('',(#357),#358);
#109=STYLED_ITEM('',(#359),#360);
#110=STYLED_ITEM('',(#361),#362);
#111=STYLED_ITEM('',(#363),#364);
#112=STYLED_ITEM('',(#365),#366);
#113=STYLED_ITEM('',(#367),#368);
#114=STYLED_ITEM('',(#369),#370);
#115=STYLED_ITEM('',(#371),#372);
#116=STYLED_ITEM('',(#373),#374);
#117=STYLED_ITEM('',(#375),#376);
#118=STYLED_ITEM('',(#377),#378);
#119=STYLED_ITEM('',(#379),#380);
#120=STYLED_ITEM('',(#381),#382);
#121=STYLED_ITEM('',(#383),#384);
#122=STYLED_ITEM('',(#385),#386);
#123=STYLED_ITEM('',(#387),#388);
#124=STYLED_ITEM('',(#389),#390);
#125=STYLED_ITEM('',(#391),#392);
#126=STYLED_ITEM('',(#393),#394);
#127=STYLED_ITEM('',(#395),#396);
#128=STYLED_ITEM('',(#397),#398);
#129=STYLED_ITEM('',(#399),#400);
#130=STYLED_ITEM('',(#401),#402);
#131=STYLED_ITEM('',(#403),#404);
#132=STYLED_ITEM('',(#405),#406);
#133=STYLED_ITEM('',(#407),#408);
#134=STYLED_ITEM('',(#409),#410);
#135=STYLED_ITEM('',(#411),#412);
#136=STYLED_ITEM('',(#413),#414);
#137=STYLED_ITEM('',(#415),#416);
#138=STYLED_ITEM('',(#417),#418);
#139=STYLED_ITEM('',(#419),#420);
#140=STYLED_ITEM('',(#421),#422);
#141=STYLED_ITEM('',(#423),#424);
#142=STYLED_ITEM('',(#425),#426);
#143=STYLED_ITEM('',(#427),#428);
#144=STYLED_ITEM('',(#429),#430);
#145=STYLED_ITEM('',(#431),#432);
#146=STYLED_ITEM('',(#433),#434);
#147=STYLED_ITEM('',(#435),#436);
#148=STYLED_ITEM('',(#437),#438);
#149=STYLED_ITEM('',(#439),#440);
#150=STYLED_ITEM('',(#441),#442);
#151=APPLICATION_CONTEXT(' ');
#152=PRODUCT_CATEGORY('part','NONE');
#153=PRODUCT_RELATED_PRODUCT_CATEGORY('detail',' ',(#443));
#154=PRODUCT_DEFINITION_SHAPE('NONE','NONE',#444);
#155=ADVANCED_BREP_SHAPE_REPRESENTATION('NOCUT',(#174,#445),#10);
#156=APPLICATION_CONTEXT(' ');
#157=PRODUCT_CATEGORY('part','NONE');
#158=PRODUCT_RELATED_PRODUCT_CATEGORY('detail',' ',(#446));
#159=PRODUCT_DEFINITION_SHAPE('NONE','NONE',#447);
#160=ADVANCED_BREP_SHAPE_REPRESENTATION('CUT',(#402,#448),#10);
#163=UNCERTAINTY_MEASURE_WITH_UNIT(LENGTH_MEASURE(1.0E-006),#165,'','');
#165= (CONVERSION_BASED_UNIT('MILLIMETRE',#451)LENGTH_UNIT()NAMED_UNIT(#454));
#166= (NAMED_UNIT(#456)PLANE_ANGLE_UNIT()SI_UNIT($,.RADIAN.));
#167= (NAMED_UNIT(#456)SOLID_ANGLE_UNIT()SI_UNIT($,.STERADIAN.));
#169=PRESENTATION_STYLE_ASSIGNMENT((#462));
#170=ADVANCED_FACE('',(#463,#464),#465,.T.);
#171=PRESENTATION_STYLE_ASSIGNMENT((#466));
#172=EDGE_CURVE('',#280,#378,#467,.T.);
#173=PRESENTATION_STYLE_ASSIGNMENT((#468));
#174=MANIFOLD_SOLID_BREP('NOCUT',#469);
#175=PRESENTATION_STYLE_ASSIGNMENT((#470));
#176=ADVANCED_FACE('',(#471),#472,.T.);
#177=PRESENTATION_STYLE_ASSIGNMENT((#473));
#178=EDGE_CURVE('',#220,#394,#474,.T.);
#179=PRESENTATION_STYLE_ASSIGNMENT((#475));
#180=EDGE_CURVE('',#362,#322,#476,.T.);
#181=PRESENTATION_STYLE_ASSIGNMENT((#477));
#182=ADVANCED_FACE('',(#478),#479,.T.);
#183=PRESENTATION_STYLE_ASSIGNMENT((#480));
#184=VERTEX_POINT('',#481);
#185=PRESENTATION_STYLE_ASSIGNMENT((#482));
#186=VERTEX_POINT('',#483);
#187=PRESENTATION_STYLE_ASSIGNMENT((#484));
#188=EDGE_CURVE('',#220,#406,#485,.T.);
#189=PRESENTATION_STYLE_ASSIGNMENT((#486));
#190=EDGE_CURVE('',#350,#260,#487,.T.);
#191=PRESENTATION_STYLE_ASSIGNMENT((#488));
#192=EDGE_CURVE('',#406,#338,#489,.T.);
#193=PRESENTATION_STYLE_ASSIGNMENT((#490));
#194=EDGE_CURVE('',#184,#222,#491,.T.);
#195=PRESENTATION_STYLE_ASSIGNMENT((#492));
#196=VERTEX_POINT('',#493);
#197=PRESENTATION_STYLE_ASSIGNMENT((#494));
#198=VERTEX_POINT('',#495);
#199=PRESENTATION_STYLE_ASSIGNMENT((#496));
#200=EDGE_CURVE('',#210,#184,#497,.T.);
#201=PRESENTATION_STYLE_ASSIGNMENT((#498));
#202=EDGE_CURVE('',#392,#252,#499,.T.);
#203=PRESENTATION_STYLE_ASSIGNMENT((#500));
#204=EDGE_CURVE('',#394,#280,#501,.T.);
#205=PRESENTATION_STYLE_ASSIGNMENT((#502));
#206=VERTEX_POINT('',#503);
#207=PRESENTATION_STYLE_ASSIGNMENT((#504));
#208=EDGE_CURVE('',#396,#438,#505,.T.);
#209=PRESENTATION_STYLE_ASSIGNMENT((#506));
#210=VERTEX_POINT('',#507);
#211=PRESENTATION_STYLE_ASSIGNMENT((#508));
#212=EDGE_CURVE('',#244,#206,#509,.T.);
#213=PRESENTATION_STYLE_ASSIGNMENT((#510));
#214=ADVANCED_FACE('',(#511),#512,.T.);
#215=PRESENTATION_STYLE_ASSIGNMENT((#513));
#216=ADVANCED_FACE('',(#514),#515,.T.);
#217=PRESENTATION_STYLE_ASSIGNMENT((#516));
#218=ADVANCED_FACE('',(#517),#518,.F.);
#219=PRESENTATION_STYLE_ASSIGNMENT((#519));
#220=VERTEX_POINT('',#520);
#221=PRESENTATION_STYLE_ASSIGNMENT((#521));
#222=VERTEX_POINT('',#522);
#223=PRESENTATION_STYLE_ASSIGNMENT((#523));
#224=VERTEX_POINT('',#524);
#225=PRESENTATION_STYLE_ASSIGNMENT((#525));
#226=VERTEX_POINT('',#526);
#227=PRESENTATION_STYLE_ASSIGNMENT((#527));
#228=VERTEX_POINT('',#528);
#229=PRESENTATION_STYLE_ASSIGNMENT((#529));
#230=VERTEX_POINT('',#530);
#231=PRESENTATION_STYLE_ASSIGNMENT((#531));
#232=EDGE_CURVE('',#252,#430,#532,.T.);
#233=PRESENTATION_STYLE_ASSIGNMENT((#533));
#234=EDGE_CURVE('',#222,#252,#534,.T.);
#235=PRESENTATION_STYLE_ASSIGNMENT((#535));
#236=VERTEX_POINT('',#536);
#237=PRESENTATION_STYLE_ASSIGNMENT((#537));
#238=EDGE_CURVE('',#306,#392,#538,.T.);
#239=PRESENTATION_STYLE_ASSIGNMENT((#539));
#240=EDGE_CURVE('',#270,#280,#540,.T.);
#241=PRESENTATION_STYLE_ASSIGNMENT((#541));
#242=EDGE_CURVE('',#288,#210,#542,.T.);
#243=PRESENTATION_STYLE_ASSIGNMENT((#543));
#244=VERTEX_POINT('',#544);
#245=PRESENTATION_STYLE_ASSIGNMENT((#545));
#246=EDGE_CURVE('',#310,#396,#546,.T.);
#247=PRESENTATION_STYLE_ASSIGNMENT((#547));
#248=ADVANCED_FACE('',(#548),#549,.F.);
#249=PRESENTATION_STYLE_ASSIGNMENT((#550));
#250=ADVANCED_FACE('',(#551),#552,.F.);
#251=PRESENTATION_STYLE_ASSIGNMENT((#553));
#252=VERTEX_POINT('',#554);
#253=PRESENTATION_STYLE_ASSIGNMENT((#555));
#254=EDGE_CURVE('',#362,#286,#556,.T.);
#255=PRESENTATION_STYLE_ASSIGNMENT((#557));
#256=EDGE_CURVE('',#260,#338,#558,.T.);
#257=PRESENTATION_STYLE_ASSIGNMENT((#559));
#258=ADVANCED_FACE('',(#560),#561,.F.);
#259=PRESENTATION_STYLE_ASSIGNMENT((#562));
#260=VERTEX_POINT('',#563);
#261=PRESENTATION_STYLE_ASSIGNMENT((#564));
#262=ADVANCED_FACE('',(#565),#566,.T.);
#263=PRESENTATION_STYLE_ASSIGNMENT((#567));
#264=EDGE_CURVE('',#228,#284,#568,.T.);
#265=PRESENTATION_STYLE_ASSIGNMENT((#569));
#266=VERTEX_POINT('',#570);
#267=PRESENTATION_STYLE_ASSIGNMENT((#571));
#268=EDGE_CURVE('',#314,#332,#572,.T.);
#269=PRESENTATION_STYLE_ASSIGNMENT((#573));
#270=VERTEX_POINT('',#574);
#271=PRESENTATION_STYLE_ASSIGNMENT((#575));
#272=EDGE_CURVE('',#198,#196,#576,.T.);
#273=PRESENTATION_STYLE_ASSIGNMENT((#577));
#274=EDGE_CURVE('',#322,#332,#578,.T.);
#275=PRESENTATION_STYLE_ASSIGNMENT((#579));
#276=EDGE_CURVE('',#388,#236,#580,.T.);
#277=PRESENTATION_STYLE_ASSIGNMENT((#581));
#278=EDGE_CURVE('',#430,#260,#582,.T.);
#279=PRESENTATION_STYLE_ASSIGNMENT((#583));
#280=VERTEX_POINT('',#584);
#281=PRESENTATION_STYLE_ASSIGNMENT((#585));
#282=EDGE_CURVE('',#244,#388,#586,.T.);
#283=PRESENTATION_STYLE_ASSIGNMENT((#587));
#284=VERTEX_POINT('',#588);
#285=PRESENTATION_STYLE_ASSIGNMENT((#589));
#286=VERTEX_POINT('',#590);
#287=PRESENTATION_STYLE_ASSIGNMENT((#591));
#288=VERTEX_POINT('',#592);
#289=PRESENTATION_STYLE_ASSIGNMENT((#593));
#290=ADVANCED_FACE('',(#594),#595,.T.);
#291=PRESENTATION_STYLE_ASSIGNMENT((#596));
#292=EDGE_CURVE('',#338,#394,#597,.T.);
#293=PRESENTATION_STYLE_ASSIGNMENT((#598));
#294=ADVANCED_FACE('',(#599),#600,.T.);
#295=PRESENTATION_STYLE_ASSIGNMENT((#601));
#296=EDGE_CURVE('',#244,#344,#602,.T.);
#297=PRESENTATION_STYLE_ASSIGNMENT((#603));
#298=ADVANCED_FACE('',(#604),#605,.T.);
#299=PRESENTATION_STYLE_ASSIGNMENT((#606));
#300=EDGE_CURVE('',#404,#314,#607,.T.);
#301=PRESENTATION_STYLE_ASSIGNMENT((#608));
#302=EDGE_CURVE('',#206,#244,#609,.T.);
#303=PRESENTATION_STYLE_ASSIGNMENT((#610));
#304=EDGE_CURVE('',#378,#404,#611,.T.);
#305=PRESENTATION_STYLE_ASSIGNMENT((#612));
#306=VERTEX_POINT('',#613);
#307=PRESENTATION_STYLE_ASSIGNMENT((#614));
#308=EDGE_CURVE('',#236,#388,#615,.T.);
#309=PRESENTATION_STYLE_ASSIGNMENT((#616));
#310=VERTEX_POINT('',#617);
#311=PRESENTATION_STYLE_ASSIGNMENT((#618));
#312=EDGE_CURVE('',#210,#198,#619,.T.);
#313=PRESENTATION_STYLE_ASSIGNMENT((#620));
#314=VERTEX_POINT('',#621);
#315=PRESENTATION_STYLE_ASSIGNMENT((#622));
#316=EDGE_CURVE('',#196,#184,#623,.T.);
#317=PRESENTATION_STYLE_ASSIGNMENT((#624));
#318=ADVANCED_FACE('',(#625),#626,.T.);
#319=PRESENTATION_STYLE_ASSIGNMENT((#627));
#320=EDGE_CURVE('',#228,#224,#628,.T.);
#321=PRESENTATION_STYLE_ASSIGNMENT((#629));
#322=VERTEX_POINT('',#630);
#323=PRESENTATION_STYLE_ASSIGNMENT((#631));
#324=EDGE_CURVE('',#236,#206,#632,.T.);
#325=PRESENTATION_STYLE_ASSIGNMENT((#633));
#326=EDGE_CURVE('',#336,#310,#634,.T.);
#327=PRESENTATION_STYLE_ASSIGNMENT((#635));
#328=ADVANCED_FACE('',(#636),#637,.T.);
#329=PRESENTATION_STYLE_ASSIGNMENT((#638));
#330=EDGE_CURVE('',#406,#306,#639,.T.);
#331=PRESENTATION_STYLE_ASSIGNMENT((#640));
#332=VERTEX_POINT('',#641);
#333=PRESENTATION_STYLE_ASSIGNMENT((#642));
#334=EDGE_CURVE('',#438,#336,#643,.T.);
#335=PRESENTATION_STYLE_ASSIGNMENT((#644));
#336=VERTEX_POINT('',#645);
#337=PRESENTATION_STYLE_ASSIGNMENT((#646));
#338=VERTEX_POINT('',#647);
#339=PRESENTATION_STYLE_ASSIGNMENT((#648));
#340=EDGE_CURVE('',#224,#350,#649,.T.);
#341=PRESENTATION_STYLE_ASSIGNMENT((#650));
#342=EDGE_CURVE('',#286,#196,#651,.T.);
#343=PRESENTATION_STYLE_ASSIGNMENT((#652));
#344=VERTEX_POINT('',#653);
#345=PRESENTATION_STYLE_ASSIGNMENT((#654));
#346=ADVANCED_FACE('',(#655),#656,.F.);
#347=PRESENTATION_STYLE_ASSIGNMENT((#657));
#348=ADVANCED_FACE('',(#658),#659,.T.);
#349=PRESENTATION_STYLE_ASSIGNMENT((#660));
#350=VERTEX_POINT('',#661);
#351=PRESENTATION_STYLE_ASSIGNMENT((#662));
#352=ADVANCED_FACE('',(#663),#664,.F.);
#353=PRESENTATION_STYLE_ASSIGNMENT((#665));
#354=EDGE_CURVE('',#230,#350,#666,.T.);
#355=PRESENTATION_STYLE_ASSIGNMENT((#667));
#356=VERTEX_POINT('',#668);
#357=PRESENTATION_STYLE_ASSIGNMENT((#669));
#358=EDGE_CURVE('',#186,#284,#670,.T.);
#359=PRESENTATION_STYLE_ASSIGNMENT((#671));
#360=ADVANCED_FACE('',(#672),#673,.F.);
#361=PRESENTATION_STYLE_ASSIGNMENT((#674));
#362=VERTEX_POINT('',#675);
#363=PRESENTATION_STYLE_ASSIGNMENT((#676));
#364=EDGE_CURVE('',#310,#336,#677,.T.);
#365=PRESENTATION_STYLE_ASSIGNMENT((#678));
#366=EDGE_CURVE('',#322,#266,#679,.T.);
#367=PRESENTATION_STYLE_ASSIGNMENT((#680));
#368=EDGE_CURVE('',#270,#220,#681,.T.);
#369=PRESENTATION_STYLE_ASSIGNMENT((#682));
#370=ADVANCED_FACE('',(#683),#684,.T.);
#371=PRESENTATION_STYLE_ASSIGNMENT((#685));
#372=ADVANCED_FACE('',(#686),#687,.F.);
#373=PRESENTATION_STYLE_ASSIGNMENT((#688));
#374=EDGE_CURVE('',#306,#430,#689,.T.);
#375=PRESENTATION_STYLE_ASSIGNMENT((#690));
#376=ADVANCED_FACE('',(#691),#692,.T.);
#377=PRESENTATION_STYLE_ASSIGNMENT((#693));
#378=VERTEX_POINT('',#694);
#379=PRESENTATION_STYLE_ASSIGNMENT((#695));
#380=EDGE_CURVE('',#266,#270,#696,.T.);
#381=PRESENTATION_STYLE_ASSIGNMENT((#697));
#382=EDGE_CURVE('',#284,#228,#698,.T.);
#383=PRESENTATION_STYLE_ASSIGNMENT((#699));
#384=EDGE_CURVE('',#186,#286,#700,.T.);
#385=PRESENTATION_STYLE_ASSIGNMENT((#701));
#386=EDGE_CURVE('',#392,#288,#702,.T.);
#387=PRESENTATION_STYLE_ASSIGNMENT((#703));
#388=VERTEX_POINT('',#704);
#389=PRESENTATION_STYLE_ASSIGNMENT((#705));
#390=ADVANCED_FACE('',(#706),#707,.T.);
#391=PRESENTATION_STYLE_ASSIGNMENT((#708));
#392=VERTEX_POINT('',#709);
#393=PRESENTATION_STYLE_ASSIGNMENT((#710));
#394=VERTEX_POINT('',#711);
#395=PRESENTATION_STYLE_ASSIGNMENT((#712));
#396=VERTEX_POINT('',#713);
#397=PRESENTATION_STYLE_ASSIGNMENT((#714));
#398=EDGE_CURVE('',#350,#224,#715,.T.);
#399=PRESENTATION_STYLE_ASSIGNMENT((#716));
#400=EDGE_CURVE('',#344,#356,#717,.T.);
#401=PRESENTATION_STYLE_ASSIGNMENT((#718));
#402=MANIFOLD_SOLID_BREP('CUT',#719);
#403=PRESENTATION_STYLE_ASSIGNMENT((#720));
#404=VERTEX_POINT('',#721);
#405=PRESENTATION_STYLE_ASSIGNMENT((#722));
#406=VERTEX_POINT('',#723);
#407=PRESENTATION_STYLE_ASSIGNMENT((#724));
#408=EDGE_CURVE('',#230,#226,#725,.T.);
#409=PRESENTATION_STYLE_ASSIGNMENT((#726));
#410=ADVANCED_FACE('',(#727),#728,.T.);
#411=PRESENTATION_STYLE_ASSIGNMENT((#729));
#412=ADVANCED_FACE('',(#730),#731,.F.);
#413=PRESENTATION_STYLE_ASSIGNMENT((#732));
#414=EDGE_CURVE('',#378,#314,#733,.T.);
#415=PRESENTATION_STYLE_ASSIGNMENT((#734));
#416=ADVANCED_FACE('',(#735),#736,.T.);
#417=PRESENTATION_STYLE_ASSIGNMENT((#737));
#418=EDGE_CURVE('',#266,#404,#738,.T.);
#419=PRESENTATION_STYLE_ASSIGNMENT((#739));
#420=EDGE_CURVE('',#226,#230,#740,.T.);
#421=PRESENTATION_STYLE_ASSIGNMENT((#741));
#422=EDGE_CURVE('',#198,#362,#742,.T.);
#423=PRESENTATION_STYLE_ASSIGNMENT((#743));
#424=EDGE_CURVE('',#356,#344,#744,.T.);
#425=PRESENTATION_STYLE_ASSIGNMENT((#745));
#426=EDGE_CURVE('',#224,#226,#746,.T.);
#427=PRESENTATION_STYLE_ASSIGNMENT((#747));
#428=EDGE_CURVE('',#332,#186,#748,.T.);
#429=PRESENTATION_STYLE_ASSIGNMENT((#749));
#430=VERTEX_POINT('',#750);
#431=PRESENTATION_STYLE_ASSIGNMENT((#751));
#432=EDGE_CURVE('',#356,#206,#752,.T.);
#433=PRESENTATION_STYLE_ASSIGNMENT((#753));
#434=ADVANCED_FACE('',(#754),#755,.T.);
#435=PRESENTATION_STYLE_ASSIGNMENT((#756));
#436=EDGE_CURVE('',#438,#396,#757,.T.);
#437=PRESENTATION_STYLE_ASSIGNMENT((#758));
#438=VERTEX_POINT('',#759);
#439=PRESENTATION_STYLE_ASSIGNMENT((#760));
#440=ADVANCED_FACE('',(#761),#762,.T.);
#441=PRESENTATION_STYLE_ASSIGNMENT((#763));
#442=EDGE_CURVE('',#288,#222,#764,.T.);
#443=PRODUCT('NOCUT','NOCUT','PART-NOCUT-DESC',(#765));
#444=PRODUCT_DEFINITION('NONE','NONE',#766,#2);
#445=AXIS2_PLACEMENT_3D('',#767,#768,#769);
#446=PRODUCT('CUT','CUT','PART-CUT-DESC',(#770));
#447=PRODUCT_DEFINITION('NONE','NONE',#771,#6);
#448=AXIS2_PLACEMENT_3D('',#772,#773,#774);
#451=LENGTH_MEASURE_WITH_UNIT(LENGTH_MEASURE(1.0),#775);
#454=DIMENSIONAL_EXPONENTS(1.0,0.0,0.0,0.0,0.0,0.0,0.0);
#456=DIMENSIONAL_EXPONENTS(0.0,0.0,0.0,0.0,0.0,0.0,0.0);
#462=SURFACE_STYLE_USAGE(.BOTH.,#776);
#463=FACE_OUTER_BOUND('',#777,.T.);
#464=FACE_BOUND('',#778,.T.);
#465=PLANE('',#779);
#466=CURVE_STYLE('',#780,POSITIVE_LENGTH_MEASURE(1.0E-006),#781);
#467=B_SPLINE_CURVE_WITH_KNOTS('',3,(#782,#783,#784,#785,#786,#787,#788,#789,#790,#791,#792,#793,#794,#795),.UNSPECIFIED.,.F.,.F.,(4,2,2,2,2,2,4),(2.091097645352,2.38959558480883,2.68809352426566,2.9865914637225,3.28432857408577,3.58206568444903,3.88185771191667),.UNSPECIFIED.);
#468=SURFACE_STYLE_USAGE(.BOTH.,#796);
#469=CLOSED_SHELL('',(#376,#216,#328,#410,#262,#218,#412,#346,#248,#372,#390,#250,#360,#318,#258,#352,#170,#416,#290,#440,#370,#348));
#470=SURFACE_STYLE_USAGE(.BOTH.,#797);
#471=FACE_OUTER_BOUND('',#798,.T.);
#472=CONICAL_SURFACE('',#799,2.99995,4.7846889951889E-006);
#473=CURVE_STYLE('',#800,POSITIVE_LENGTH_MEASURE(1.0E-006),#801);
#474=LINE('',#802,#803);
#475=CURVE_STYLE('',#804,POSITIVE_LENGTH_MEASURE(1.0E-006),#805);
#476=B_SPLINE_CURVE_WITH_KNOTS('',3,(#806,#807,#808,#809,#810,#811,#812,#813,#814,#815),.UNSPECIFIED.,.F.,.F.,(4,2,2,2,4),(1.23979293597158,1.65262727734411,2.06628370976954,2.47994014219496,2.89356074639203),.UNSPECIFIED.);
#477=SURFACE_STYLE_USAGE(.BOTH.,#816);
#478=FACE_OUTER_BOUND('',#817,.T.);
#479=PLANE('',#818);
#480=POINT_STYLE(' ',#819,POSITIVE_LENGTH_MEASURE(1.0E-006),#820);
#481=CARTESIAN_POINT('',(0.582364149245686,2.94293255064967,-31.8392261365542));
#482=POINT_STYLE(' ',#821,POSITIVE_LENGTH_MEASURE(1.0E-006),#822);
#483=CARTESIAN_POINT('',(1.34629866751294E-015,3.0,-32.0207498987105));
#484=CURVE_STYLE('',#823,POSITIVE_LENGTH_MEASURE(1.0E-006),#824);
#485=B_SPLINE_CURVE_WITH_KNOTS('',3,(#825,#826,#827,#828,#829,#830,#831,#832,#833,#834,#835,#836,#837,#838,#839,#840,#841,#842,#843,#844,#845,#846,#847,#848,#849,#850,#851),.UNSPECIFIED.,.F.,.F.,(4,2,2,2,2,2,2,2,2,2,3,2,4),(-1.80919785735893,-1.62836628013032,-1.44753470290171,-1.2667031256731,-1.08587154844449,-0.905289057401329,-0.724706566358171,-0.543279535222683,-0.361852504087195,-0.180926252043597,0.0,0.181099918892022,0.362199837784045),.UNSPECIFIED.);
#486=CURVE_STYLE('',#852,POSITIVE_LENGTH_MEASURE(1.0E-006),#853);
#487=LINE('',#854,#855);
#488=CURVE_STYLE('',#856,POSITIVE_LENGTH_MEASURE(1.0E-006),#857);
#489=LINE('',#858,#859);
#490=CURVE_STYLE('',#860,POSITIVE_LENGTH_MEASURE(1.0E-006),#861);
#491=B_SPLINE_CURVE_WITH_KNOTS('',3,(#862,#863,#864,#865,#866,#867),.UNSPECIFIED.,.F.,.F.,(4,2,4),(5.37052262242643,5.78309682294638,6.19625240627159),.UNSPECIFIED.);
#492=POINT_STYLE(' ',#868,POSITIVE_LENGTH_MEASURE(1.0E-006),#869);
#493=CARTESIAN_POINT('',(0.582364149245687,2.94293255064967,-30.8800141090597));
#494=POINT_STYLE(' ',#870,POSITIVE_LENGTH_MEASURE(1.0E-006),#871);
#495=CARTESIAN_POINT('',(0.582364149245687,2.84087345726158,-30.8800141090597));
#496=CURVE_STYLE('',#872,POSITIVE_LENGTH_MEASURE(1.0E-006),#873);
#497=LINE('',#874,#875);
#498=CURVE_STYLE('',#876,POSITIVE_LENGTH_MEASURE(1.0E-006),#877);
#499=LINE('',#878,#879);
#500=CURVE_STYLE('',#880,POSITIVE_LENGTH_MEASURE(1.0E-006),#881);
#501=CIRCLE('',#882,3.0);
#502=POINT_STYLE(' ',#883,POSITIVE_LENGTH_MEASURE(1.0E-006),#884);
#503=CARTESIAN_POINT('',(0.0,3.0,-62.9));
#504=CURVE_STYLE('',#885,POSITIVE_LENGTH_MEASURE(1.0E-006),#886);
#505=CIRCLE('',#887,2.99995);
#506=POINT_STYLE(' ',#888,POSITIVE_LENGTH_MEASURE(1.0E-006),#889);
#507=CARTESIAN_POINT('',(0.582364149245686,2.84087345726158,-31.8392261365542));
#508=CURVE_STYLE('',#890,POSITIVE_LENGTH_MEASURE(1.0E-006),#891);
#509=CIRCLE('',#892,3.0);
#510=SURFACE_STYLE_USAGE(.BOTH.,#893);
#511=FACE_OUTER_BOUND('',#894,.T.);
#512=PLANE('',#895);
#513=SURFACE_STYLE_USAGE(.BOTH.,#896);
#514=FACE_OUTER_BOUND('',#897,.T.);
#515=CYLINDRICAL_SURFACE('',#898,3.0);
#516=SURFACE_STYLE_USAGE(.BOTH.,#899);
#517=FACE_OUTER_BOUND('',#900,.T.);
#518=PLANE('',#901);
#519=POINT_STYLE(' ',#902,POSITIVE_LENGTH_MEASURE(1.0E-006),#903);
#520=CARTESIAN_POINT('',(-0.374883079288044,2.87561692152545,-30.2115112759038));
#521=POINT_STYLE(' ',#904,POSITIVE_LENGTH_MEASURE(1.0E-006),#905);
#522=CARTESIAN_POINT('',(0.891458520360564,2.86448978117859,-31.5268516898096));
#523=POINT_STYLE(' ',#906,POSITIVE_LENGTH_MEASURE(1.0E-006),#907);
#524=CARTESIAN_POINT('',(3.67381906146713E-016,-3.0,-0.799999999999997));
#525=POINT_STYLE(' ',#908,POSITIVE_LENGTH_MEASURE(1.0E-006),#909);
#526=CARTESIAN_POINT('',(3.10819761504259E-016,-2.5381197846483,0.0));
#527=POINT_STYLE(' ',#910,POSITIVE_LENGTH_MEASURE(1.0E-006),#911);
#528=CARTESIAN_POINT('',(3.67381906146713E-016,-3.0,-36.0));
#529=POINT_STYLE(' ',#912,POSITIVE_LENGTH_MEASURE(1.0E-006),#913);
#530=CARTESIAN_POINT('',(0.0,2.5381197846483,0.0));
#531=CURVE_STYLE('',#914,POSITIVE_LENGTH_MEASURE(1.0E-006),#915);
#532=B_SPLINE_CURVE_WITH_KNOTS('',3,(#916,#917,#918,#919,#920,#921),.UNSPECIFIED.,.F.,.F.,(4,2,4),(0.413155597726241,0.826311195452482,1.23888540984236),.UNSPECIFIED.);
#533=CURVE_STYLE('',#922,POSITIVE_LENGTH_MEASURE(1.0E-006),#923);
#534=LINE('',#924,#925);
#535=POINT_STYLE(' ',#926,POSITIVE_LENGTH_MEASURE(1.0E-006),#927);
#536=CARTESIAN_POINT('',(0.0,2.9999,-42.0));
#537=CURVE_STYLE('',#928,POSITIVE_LENGTH_MEASURE(1.0E-006),#929);
#538=B_SPLINE_CURVE_WITH_KNOTS('',3,(#930,#931,#932,#933,#934,#935),.UNSPECIFIED.,.F.,.F.,(4,2,4),(5.37456935377947,5.78740367085832,6.20088294671767),.UNSPECIFIED.);
#539=CURVE_STYLE('',#936,POSITIVE_LENGTH_MEASURE(1.0E-006),#937);
#540=LINE('',#938,#939);
#541=CURVE_STYLE('',#940,POSITIVE_LENGTH_MEASURE(1.0E-006),#941);
#542=B_SPLINE_CURVE_WITH_KNOTS('',3,(#942,#943,#944,#945,#946,#947),.UNSPECIFIED.,.F.,.F.,(4,2,4),(0.41347926143053,0.826958522861059,1.23979282608248),.UNSPECIFIED.);
#543=POINT_STYLE(' ',#948,POSITIVE_LENGTH_MEASURE(1.0E-006),#949);
#544=CARTESIAN_POINT('',(3.67381906146713E-016,-3.0,-62.9));
#545=CURVE_STYLE('',#950,POSITIVE_LENGTH_MEASURE(1.0E-006),#951);
#546=LINE('',#952,#953);
#547=SURFACE_STYLE_USAGE(.BOTH.,#954);
#548=FACE_OUTER_BOUND('',#955,.T.);
#549=PLANE('',#956);
#550=SURFACE_STYLE_USAGE(.BOTH.,#957);
#551=FACE_OUTER_BOUND('',#958,.T.);
#552=PLANE('',#959);
#553=POINT_STYLE(' ',#960,POSITIVE_LENGTH_MEASURE(1.0E-006),#961);
#554=CARTESIAN_POINT('',(0.891458520360563,2.86448978117859,-30.3434599021333));
#555=CURVE_STYLE('',#962,POSITIVE_LENGTH_MEASURE(1.0E-006),#963);
#556=LINE('',#964,#965);
#557=CURVE_STYLE('',#966,POSITIVE_LENGTH_MEASURE(1.0E-006),#967);
#558=B_SPLINE_CURVE_WITH_KNOTS('',3,(#968,#969,#970,#971,#972,#973,#974,#975,#976,#977,#978,#979,#980,#981,#982,#983,#984,#985,#986,#987,#988,#989,#990,#991,#992,#993,#994),.UNSPECIFIED.,.F.,.F.,(4,2,3,2,2,2,2,2,2,2,2,2,4),(-0.361797878080094,-0.180898939040047,0.0,0.180898939040047,0.361797878080094,0.543164996745294,0.724532115410493,0.905110773244766,1.08568943107904,1.26650066090355,1.44731189072807,1.62812312055258,1.80893435037709),.UNSPECIFIED.);
#559=SURFACE_STYLE_USAGE(.BOTH.,#995);
#560=FACE_OUTER_BOUND('',#996,.T.);
#561=PLANE('',#997);
#562=POINT_STYLE(' ',#998,POSITIVE_LENGTH_MEASURE(1.0E-006),#999);
#563=CARTESIAN_POINT('',(4.11590901864447E-011,3.0,-30.6822678393514));
#564=SURFACE_STYLE_USAGE(.BOTH.,#1000);
#565=FACE_OUTER_BOUND('',#1001,.T.);
#566=CYLINDRICAL_SURFACE('',#1002,0.479241740095242);
#567=CURVE_STYLE('',#1003,POSITIVE_LENGTH_MEASURE(1.0E-006),#1004);
#568=CIRCLE('',#1005,3.0);
#569=POINT_STYLE(' ',#1006,POSITIVE_LENGTH_MEASURE(1.0E-006),#1007);
#570=CARTESIAN_POINT('',(0.382078323112378,2.87466974755495,-30.9536374206519));
#571=CURVE_STYLE('',#1008,POSITIVE_LENGTH_MEASURE(1.0E-006),#1009);
#572=ELLIPSE('',#1010,3.34478529612858,3.0);
#573=POINT_STYLE(' ',#1011,POSITIVE_LENGTH_MEASURE(1.0E-006),#1012);
#574=CARTESIAN_POINT('',(-0.690037436273681,2.81665729882796,-30.2115112759038));
#575=CURVE_STYLE('',#1013,POSITIVE_LENGTH_MEASURE(1.0E-006),#1014);
#576=LINE('',#1015,#1016);
#577=CURVE_STYLE('',#1017,POSITIVE_LENGTH_MEASURE(1.0E-006),#1018);
#578=LINE('',#1019,#1020);
#579=CURVE_STYLE('',#1021,POSITIVE_LENGTH_MEASURE(1.0E-006),#1022);
#580=CIRCLE('',#1023,2.9999);
#581=CURVE_STYLE('',#1024,POSITIVE_LENGTH_MEASURE(1.0E-006),#1025);
#582=B_SPLINE_CURVE_WITH_KNOTS('',3,(#1026,#1027,#1028,#1029,#1030,#1031,#1032,#1033,#1034,#1035,#1036,#1037,#1038,#1039,#1040,#1041,#1042,#1043,#1044,#1045,#1046,#1047,#1048,#1049,#1050,#1051,#1052),.UNSPECIFIED.,.F.,.F.,(4,2,3,2,2,2,2,2,2,2,2,2,4),(-0.361797878080094,-0.180898939040047,0.0,0.180898939040047,0.361797878080094,0.543164996745294,0.724532115410493,0.905110773244766,1.08568943107904,1.26650066090355,1.44731189072807,1.62812312055258,1.80893435037709),.UNSPECIFIED.);
#583=POINT_STYLE(' ',#1053,POSITIVE_LENGTH_MEASURE(1.0E-006),#1054);
#584=CARTESIAN_POINT('',(-0.690037436273681,2.9195630386311,-30.2115112759038));
#585=CURVE_STYLE('',#1055,POSITIVE_LENGTH_MEASURE(1.0E-006),#1056);
#586=LINE('',#1057,#1058);
#587=POINT_STYLE(' ',#1059,POSITIVE_LENGTH_MEASURE(1.0E-006),#1060);
#588=CARTESIAN_POINT('',(0.0,3.0,-36.0));
#589=POINT_STYLE(' ',#1061,POSITIVE_LENGTH_MEASURE(1.0E-006),#1062);
#590=CARTESIAN_POINT('',(0.193398861644812,2.99375965640438,-31.999955271205));
#591=POINT_STYLE(' ',#1063,POSITIVE_LENGTH_MEASURE(1.0E-006),#1064);
#592=CARTESIAN_POINT('',(0.891458520360564,2.759531066862,-31.5268516898096));
#593=SURFACE_STYLE_USAGE(.BOTH.,#1065);
#594=FACE_OUTER_BOUND('',#1066,.T.);
#595=CONICAL_SURFACE('',#1067,2.76905989232415,0.523598775598301);
#596=CURVE_STYLE('',#1068,POSITIVE_LENGTH_MEASURE(1.0E-006),#1069);
#597=B_SPLINE_CURVE_WITH_KNOTS('',3,(#1070,#1071,#1072,#1073,#1074,#1075,#1076,#1077,#1078,#1079,#1080,#1081,#1082,#1083,#1084,#1085,#1086,#1087,#1088,#1089,#1090,#1091,#1092,#1093,#1094,#1095,#1096),.UNSPECIFIED.,.F.,.F.,(4,2,3,2,2,2,2,2,2,2,2,2,4),(-0.361797878080094,-0.180898939040047,0.0,0.180898939040047,0.361797878080094,0.543164996745294,0.724532115410493,0.905110773244766,1.08568943107904,1.26650066090355,1.44731189072807,1.62812312055258,1.80893435037709),.UNSPECIFIED.);
#598=SURFACE_STYLE_USAGE(.BOTH.,#1097);
#599=FACE_OUTER_BOUND('',#1098,.T.);
#600=TOROIDAL_SURFACE('',#1099,2.9,0.0999999999999979);
#601=CURVE_STYLE('',#1100,POSITIVE_LENGTH_MEASURE(1.0E-006),#1101);
#602=CIRCLE('',#1102,0.0999999999999979);
#603=SURFACE_STYLE_USAGE(.BOTH.,#1103);
#604=FACE_OUTER_BOUND('',#1104,.T.);
#605=TOROIDAL_SURFACE('',#1105,2.9,0.0999999999999979);
#606=CURVE_STYLE('',#1106,POSITIVE_LENGTH_MEASURE(1.0E-006),#1107);
#607=ELLIPSE('',#1108,3.34478529612858,3.0);
#608=CURVE_STYLE('',#1109,POSITIVE_LENGTH_MEASURE(1.0E-006),#1110);
#609=CIRCLE('',#1111,3.0);
#610=CURVE_STYLE('',#1112,POSITIVE_LENGTH_MEASURE(1.0E-006),#1113);
#611=B_SPLINE_CURVE_WITH_KNOTS('',3,(#1114,#1115,#1116,#1117,#1118,#1119,#1120,#1121,#1122,#1123,#1124,#1125,#1126,#1127),.UNSPECIFIED.,.F.,.F.,(4,2,2,2,2,2,4),(2.091097645352,2.38959558480883,2.68809352426566,2.9865914637225,3.28432857408577,3.58206568444903,3.88185771191667),.UNSPECIFIED.);
#612=POINT_STYLE(' ',#1128,POSITIVE_LENGTH_MEASURE(1.0E-006),#1129);
#613=CARTESIAN_POINT('',(0.532945602569764,2.8505576624937,-30.0001001845789));
#614=CURVE_STYLE('',#1130,POSITIVE_LENGTH_MEASURE(1.0E-006),#1131);
#615=CIRCLE('',#1132,2.9999);
#616=POINT_STYLE(' ',#1133,POSITIVE_LENGTH_MEASURE(1.0E-006),#1134);
#617=CARTESIAN_POINT('',(0.0,2.99995,-36.0));
#618=CURVE_STYLE('',#1135,POSITIVE_LENGTH_MEASURE(1.0E-006),#1136);
#619=LINE('',#1137,#1138);
#620=POINT_STYLE(' ',#1139,POSITIVE_LENGTH_MEASURE(1.0E-006),#1140);
#621=CARTESIAN_POINT('',(-1.77637576396951E-015,3.0,-31.1420083922181));
#622=CURVE_STYLE('',#1141,POSITIVE_LENGTH_MEASURE(1.0E-006),#1142);
#623=LINE('',#1143,#1144);
#624=SURFACE_STYLE_USAGE(.BOTH.,#1145);
#625=FACE_OUTER_BOUND('',#1146,.T.);
#626=CYLINDRICAL_SURFACE('',#1147,0.479241740095242);
#627=CURVE_STYLE('',#1148,POSITIVE_LENGTH_MEASURE(1.0E-006),#1149);
#628=LINE('',#1150,#1151);
#629=POINT_STYLE(' ',#1152,POSITIVE_LENGTH_MEASURE(1.0E-006),#1153);
#630=CARTESIAN_POINT('',(-0.891353646972586,2.75956494370556,-31.5814605734398));
#631=CURVE_STYLE('',#1154,POSITIVE_LENGTH_MEASURE(1.0E-006),#1155);
#632=LINE('',#1156,#1157);
#633=CURVE_STYLE('',#1158,POSITIVE_LENGTH_MEASURE(1.0E-006),#1159);
#634=CIRCLE('',#1160,2.99995);
#635=SURFACE_STYLE_USAGE(.BOTH.,#1161);
#636=FACE_OUTER_BOUND('',#1162,.T.);
#637=CYLINDRICAL_SURFACE('',#1163,3.0);
#638=CURVE_STYLE('',#1164,POSITIVE_LENGTH_MEASURE(1.0E-006),#1165);
#639=B_SPLINE_CURVE_WITH_KNOTS('',3,(#1166,#1167,#1168,#1169,#1170,#1171,#1172,#1173,#1174,#1175,#1176,#1177,#1178,#1179,#1180,#1181,#1182,#1183,#1184,#1185,#1186,#1187,#1188,#1189,#1190,#1191,#1192),.UNSPECIFIED.,.F.,.F.,(4,2,2,2,2,2,2,2,2,2,3,2,4),(-1.80919785735893,-1.62836628013032,-1.44753470290171,-1.2667031256731,-1.08587154844449,-0.905289057401329,-0.724706566358171,-0.543279535222683,-0.361852504087195,-0.180926252043597,0.0,0.181099918892022,0.362199837784045),.UNSPECIFIED.);
#640=POINT_STYLE(' ',#1193,POSITIVE_LENGTH_MEASURE(1.0E-006),#1194);
#641=CARTESIAN_POINT('',(-0.891353646972586,2.86452241674396,-31.5814605734398));
#642=CURVE_STYLE('',#1195,POSITIVE_LENGTH_MEASURE(1.0E-006),#1196);
#643=LINE('',#1197,#1198);
#644=POINT_STYLE(' ',#1199,POSITIVE_LENGTH_MEASURE(1.0E-006),#1200);
#645=CARTESIAN_POINT('',(3.67375783114944E-016,-2.99995,-36.0));
#646=POINT_STYLE(' ',#1201,POSITIVE_LENGTH_MEASURE(1.0E-006),#1202);
#647=CARTESIAN_POINT('',(-0.324247225918623,2.98242581407888,-30.428948685318));
#648=CURVE_STYLE('',#1203,POSITIVE_LENGTH_MEASURE(1.0E-006),#1204);
#649=CIRCLE('',#1205,3.0);
#650=CURVE_STYLE('',#1206,POSITIVE_LENGTH_MEASURE(1.0E-006),#1207);
#651=ELLIPSE('',#1208,9.14398372010932,3.0);
#652=POINT_STYLE(' ',#1209,POSITIVE_LENGTH_MEASURE(1.0E-006),#1210);
#653=CARTESIAN_POINT('',(3.55135842608489E-016,-2.9,-63.0));
#654=SURFACE_STYLE_USAGE(.BOTH.,#1211);
#655=FACE_OUTER_BOUND('',#1212,.T.);
#656=PLANE('',#1213);
#657=SURFACE_STYLE_USAGE(.BOTH.,#1214);
#658=FACE_OUTER_BOUND('',#1215,.T.);
#659=PLANE('',#1216);
#660=POINT_STYLE(' ',#1217,POSITIVE_LENGTH_MEASURE(1.0E-006),#1218);
#661=CARTESIAN_POINT('',(0.0,3.0,-0.799999999999997));
#662=SURFACE_STYLE_USAGE(.BOTH.,#1219);
#663=FACE_OUTER_BOUND('',#1220,.T.);
#664=CYLINDRICAL_SURFACE('',#1221,0.788698035697396);
#665=CURVE_STYLE('',#1222,POSITIVE_LENGTH_MEASURE(1.0E-006),#1223);
#666=LINE('',#1224,#1225);
#667=POINT_STYLE(' ',#1226,POSITIVE_LENGTH_MEASURE(1.0E-006),#1227);
#668=CARTESIAN_POINT('',(0.0,2.9,-63.0));
#669=CURVE_STYLE('',#1228,POSITIVE_LENGTH_MEASURE(1.0E-006),#1229);
#670=LINE('',#1230,#1231);
#671=SURFACE_STYLE_USAGE(.BOTH.,#1232);
#672=FACE_OUTER_BOUND('',#1233,.T.);
#673=CYLINDRICAL_SURFACE('',#1234,1.08575819983028);
#674=POINT_STYLE(' ',#1235,POSITIVE_LENGTH_MEASURE(1.0E-006),#1236);
#675=CARTESIAN_POINT('',(0.193398861644812,2.89349388850478,-31.999955271205));
#676=CURVE_STYLE('',#1237,POSITIVE_LENGTH_MEASURE(1.0E-006),#1238);
#677=CIRCLE('',#1239,2.99995);
#678=CURVE_STYLE('',#1240,POSITIVE_LENGTH_MEASURE(1.0E-006),#1241);
#679=ELLIPSE('',#1242,3.23323670650269,2.89995);
#680=CURVE_STYLE('',#1243,POSITIVE_LENGTH_MEASURE(1.0E-006),#1244);
#681=CIRCLE('',#1245,2.89995);
#682=SURFACE_STYLE_USAGE(.BOTH.,#1246);
#683=FACE_OUTER_BOUND('',#1247,.T.);
#684=CYLINDRICAL_SURFACE('',#1248,2.99995);
#685=SURFACE_STYLE_USAGE(.BOTH.,#1249);
#686=FACE_OUTER_BOUND('',#1250,.T.);
#687=CYLINDRICAL_SURFACE('',#1251,1.08575816256224);
#688=CURVE_STYLE('',#1252,POSITIVE_LENGTH_MEASURE(1.0E-006),#1253);
#689=LINE('',#1254,#1255);
#690=SURFACE_STYLE_USAGE(.BOTH.,#1256);
#691=FACE_OUTER_BOUND('',#1257,.T.);
#692=CYLINDRICAL_SURFACE('',#1258,2.99995);
#693=POINT_STYLE(' ',#1259,POSITIVE_LENGTH_MEASURE(1.0E-006),#1260);
#694=CARTESIAN_POINT('',(-1.11618797729381E-011,3.0,-31.0001367708988));
#695=CURVE_STYLE('',#1261,POSITIVE_LENGTH_MEASURE(1.0E-006),#1262);
#696=B_SPLINE_CURVE_WITH_KNOTS('',3,(#1263,#1264,#1265,#1266,#1267,#1268,#1269,#1270,#1271,#1272,#1273,#1274,#1275,#1276),.UNSPECIFIED.,.F.,.F.,(4,2,2,2,2,2,4),(0.897783455778169,1.1977701989541,1.49555301456965,1.7933358301852,2.0919360562861,2.390536282387,2.68881633112242),.UNSPECIFIED.);
#697=CURVE_STYLE('',#1277,POSITIVE_LENGTH_MEASURE(1.0E-006),#1278);
#698=CIRCLE('',#1279,3.0);
#699=CURVE_STYLE('',#1280,POSITIVE_LENGTH_MEASURE(1.0E-006),#1281);
#700=B_SPLINE_CURVE_WITH_KNOTS('',3,(#1282,#1283,#1284,#1285,#1286,#1287,#1288,#1289,#1290,#1291),.UNSPECIFIED.,.F.,.F.,(4,2,2,2,4),(3.71798730591324,4.13127027719932,4.54460961578537,4.95794895437142,5.37052319276391),.UNSPECIFIED.);
#701=CURVE_STYLE('',#1292,POSITIVE_LENGTH_MEASURE(1.0E-006),#1293);
#702=LINE('',#1294,#1295);
#703=POINT_STYLE(' ',#1296,POSITIVE_LENGTH_MEASURE(1.0E-006),#1297);
#704=CARTESIAN_POINT('',(3.67369660083175E-016,-2.9999,-42.0));
#705=SURFACE_STYLE_USAGE(.BOTH.,#1298);
#706=FACE_OUTER_BOUND('',#1299,.T.);
#707=CYLINDRICAL_SURFACE('',#1300,2.89995);
#708=POINT_STYLE(' ',#1301,POSITIVE_LENGTH_MEASURE(1.0E-006),#1302);
#709=CARTESIAN_POINT('',(0.891458520360563,2.75953106686201,-30.3434599021333));
#710=POINT_STYLE(' ',#1303,POSITIVE_LENGTH_MEASURE(1.0E-006),#1304);
#711=CARTESIAN_POINT('',(-0.374883079288044,2.9764849532399,-30.2115112759038));
#712=POINT_STYLE(' ',#1305,POSITIVE_LENGTH_MEASURE(1.0E-006),#1306);
#713=CARTESIAN_POINT('',(0.0,2.99995,-42.0));
#714=CURVE_STYLE('',#1307,POSITIVE_LENGTH_MEASURE(1.0E-006),#1308);
#715=CIRCLE('',#1309,3.0);
#716=CURVE_STYLE('',#1310,POSITIVE_LENGTH_MEASURE(1.0E-006),#1311);
#717=CIRCLE('',#1312,2.9);
#718=SURFACE_STYLE_USAGE(.BOTH.,#1313);
#719=CLOSED_SHELL('',(#298,#434,#182,#176,#294,#214));
#720=POINT_STYLE(' ',#1314,POSITIVE_LENGTH_MEASURE(1.0E-006),#1315);
#721=CARTESIAN_POINT('',(0.382078323112378,2.97556988743461,-30.9536374206519));
#722=POINT_STYLE(' ',#1316,POSITIVE_LENGTH_MEASURE(1.0E-006),#1317);
#723=CARTESIAN_POINT('',(-0.324247225918624,2.88176573284229,-30.428948685318));
#724=CURVE_STYLE('',#1318,POSITIVE_LENGTH_MEASURE(1.0E-006),#1319);
#725=CIRCLE('',#1320,2.5381197846483);
#726=SURFACE_STYLE_USAGE(.BOTH.,#1321);
#727=FACE_OUTER_BOUND('',#1322,.T.);
#728=CONICAL_SURFACE('',#1323,2.76905989232415,0.523598775598301);
#729=SURFACE_STYLE_USAGE(.BOTH.,#1324);
#730=FACE_OUTER_BOUND('',#1325,.T.);
#731=CYLINDRICAL_SURFACE('',#1326,1.08575825314138);
#732=CURVE_STYLE('',#1327,POSITIVE_LENGTH_MEASURE(1.0E-006),#1328);
#733=LINE('',#1329,#1330);
#734=SURFACE_STYLE_USAGE(.BOTH.,#1331);
#735=FACE_OUTER_BOUND('',#1332,.T.);
#736=PLANE('',#1333);
#737=CURVE_STYLE('',#1334,POSITIVE_LENGTH_MEASURE(1.0E-006),#1335);
#738=LINE('',#1336,#1337);
#739=CURVE_STYLE('',#1338,POSITIVE_LENGTH_MEASURE(1.0E-006),#1339);
#740=CIRCLE('',#1340,2.5381197846483);
#741=CURVE_STYLE('',#1341,POSITIVE_LENGTH_MEASURE(1.0E-006),#1342);
#742=ELLIPSE('',#1343,8.83903186304367,2.89995);
#743=CURVE_STYLE('',#1344,POSITIVE_LENGTH_MEASURE(1.0E-006),#1345);
#744=CIRCLE('',#1346,2.9);
#745=CURVE_STYLE('',#1347,POSITIVE_LENGTH_MEASURE(1.0E-006),#1348);
#746=LINE('',#1349,#1350);
#747=CURVE_STYLE('',#1351,POSITIVE_LENGTH_MEASURE(1.0E-006),#1352);
#748=B_SPLINE_CURVE_WITH_KNOTS('',3,(#1353,#1354,#1355,#1356,#1357,#1358,#1359,#1360,#1361,#1362),.UNSPECIFIED.,.F.,.F.,(4,2,2,2,4),(3.71798730591324,4.13127027719932,4.54460961578537,4.95794895437142,5.37052319276391),.UNSPECIFIED.);
#749=POINT_STYLE(' ',#1363,POSITIVE_LENGTH_MEASURE(1.0E-006),#1364);
#750=CARTESIAN_POINT('',(0.532945602569764,2.95228199613478,-30.0001001845789));
#751=CURVE_STYLE('',#1365,POSITIVE_LENGTH_MEASURE(1.0E-006),#1366);
#752=CIRCLE('',#1367,0.0999999999999979);
#753=SURFACE_STYLE_USAGE(.BOTH.,#1368);
#754=FACE_OUTER_BOUND('',#1369,.T.);
#755=CONICAL_SURFACE('',#1370,2.99995,4.7846889951889E-006);
#756=CURVE_STYLE('',#1371,POSITIVE_LENGTH_MEASURE(1.0E-006),#1372);
#757=CIRCLE('',#1373,2.99995);
#758=POINT_STYLE(' ',#1374,POSITIVE_LENGTH_MEASURE(1.0E-006),#1375);
#759=CARTESIAN_POINT('',(3.67375783114944E-016,-2.99995,-42.0));
#760=SURFACE_STYLE_USAGE(.BOTH.,#1376);
#761=FACE_OUTER_BOUND('',#1377,.T.);
#762=CYLINDRICAL_SURFACE('',#1378,3.0);
#763=CURVE_STYLE('',#1379,POSITIVE_LENGTH_MEASURE(1.0E-006),#1380);
#764=LINE('',#1381,#1382);
#765=PRODUCT_CONTEXT('',#151,'mechanical');
#766=PRODUCT_DEFINITION_FORMATION_WITH_SPECIFIED_SOURCE(' ','NONE',#443,.NOT_KNOWN.);
#767=CARTESIAN_POINT('',(0.0,0.0,0.0));
#768=DIRECTION('',(0.0,0.0,1.0));
#769=DIRECTION('',(1.0,0.0,0.0));
#770=PRODUCT_CONTEXT('',#156,'mechanical');
#771=PRODUCT_DEFINITION_FORMATION_WITH_SPECIFIED_SOURCE(' ','NONE',#446,.NOT_KNOWN.);
#772=CARTESIAN_POINT('',(0.0,0.0,0.0));
#773=DIRECTION('',(0.0,0.0,1.0));
#774=DIRECTION('',(1.0,0.0,0.0));
#775= (NAMED_UNIT(#454)LENGTH_UNIT()SI_UNIT(.MILLI.,.METRE.));
#776=SURFACE_SIDE_STYLE('',(#1384));
#777=EDGE_LOOP('',(#1385,#1386));
#778=EDGE_LOOP('',(#1387,#1388));
#779=AXIS2_PLACEMENT_3D('',#1389,#1390,#1391);
#780=DRAUGHTING_PRE_DEFINED_CURVE_FONT('continuous');
#781=COLOUR_RGB('',0.498039215803146,0.498039215803146,0.498039215803146);
#782=CARTESIAN_POINT('',(-0.629727328037687,2.93316271153213,-29.9150913557644));
#783=CARTESIAN_POINT('',(-0.670089755997728,2.92449721450026,-30.0122639601135));
#784=CARTESIAN_POINT('',(-0.690061178540055,2.91955742705498,-30.1181316354559));
#785=CARTESIAN_POINT('',(-0.690061178540055,2.91955742705498,-30.3171302617605));
#786=CARTESIAN_POINT('',(-0.670089755997729,2.92449721450026,-30.4229979371029));
#787=CARTESIAN_POINT('',(-0.589364900077663,2.94182820856402,-30.6173431458012));
#788=CARTESIAN_POINT('',(-0.528629969212499,2.95390696563364,-30.7058560999866));
#789=CARTESIAN_POINT('',(-0.388825924618277,2.97553438372319,-30.8454507471901));
#790=CARTESIAN_POINT('',(-0.3003749985683,2.98650953771095,-30.9060152917628));
#791=CARTESIAN_POINT('',(-0.106252469502453,2.99969577970094,-30.9864637231011));
#792=CARTESIAN_POINT('',(-0.00055518822312943,3.0016411180253,-31.0063289843056));
#793=CARTESIAN_POINT('',(0.198513504569518,2.99509240733468,-31.0063289843056));
#794=CARTESIAN_POINT('',(0.304528894401637,2.98611319488251,-30.986217470731));
#795=CARTESIAN_POINT('',(0.40167612134887,2.97298777218106,-30.9457873850085));
#796=SURFACE_SIDE_STYLE('',(#1392));
#797=SURFACE_SIDE_STYLE('',(#1393));
#798=EDGE_LOOP('',(#1394,#1395,#1396,#1397));
#799=AXIS2_PLACEMENT_3D('',#1398,#1399,#1400);
#800=DRAUGHTING_PRE_DEFINED_CURVE_FONT('continuous');
#801=COLOUR_RGB('',0.200000002980232,0.600000023841858,1.0);
#802=CARTESIAN_POINT('',(-0.374883079288044,0.0,-30.2115112759038));
#803=VECTOR('',#1401,1.99996667);
#804=DRAUGHTING_PRE_DEFINED_CURVE_FONT('continuous');
#805=COLOUR_RGB('',0.200000002980232,0.600000023841858,1.0);
#806=CARTESIAN_POINT('',(0.398228997065475,2.87247692216948,-31.937587276239));
#807=CARTESIAN_POINT('',(0.264673519876521,2.89099253267467,-31.9931630841333));
#808=CARTESIAN_POINT('',(0.118700724302348,2.90078559203015,-32.0209145449035));
#809=CARTESIAN_POINT('',(-0.156790344415826,2.8989893403213,-32.0209145449035));
#810=CARTESIAN_POINT('',(-0.302891326536913,2.88725245562025,-31.9930638679312));
#811=CARTESIAN_POINT('',(-0.570070896556283,2.84657497176647,-31.8817471684793));
#812=CARTESIAN_POINT('',(-0.691252069678729,2.8181102383882,-31.7983540211788));
#813=CARTESIAN_POINT('',(-0.882434667087404,2.76421455192993,-31.6070754226819));
#814=CARTESIAN_POINT('',(-0.965685273663965,2.73508454121759,-31.485962816471));
#815=CARTESIAN_POINT('',(-1.02125829318434,2.71417418400187,-31.352486459201));
#816=SURFACE_SIDE_STYLE('',(#1402));
#817=EDGE_LOOP('',(#1403,#1404));
#818=AXIS2_PLACEMENT_3D('',#1405,#1406,#1407);
#819=PRE_DEFINED_MARKER('');
#820=COLOUR_RGB('',0.498039215803146,0.498039215803146,0.498039215803146);
#821=PRE_DEFINED_MARKER('');
#822=COLOUR_RGB('',0.498039215803146,0.498039215803146,0.498039215803146);
#823=DRAUGHTING_PRE_DEFINED_CURVE_FONT('continuous');
#824=COLOUR_RGB('',0.200000002980232,0.600000023841858,1.0);
#825=CARTESIAN_POINT('',(-0.234370666233998,2.89046369866654,-29.8754941920841));
#826=CARTESIAN_POINT('',(-0.276942612696586,2.88701179042776,-29.9180271631615));
#827=CARTESIAN_POINT('',(-0.313850425486656,2.88302200279866,-29.9718956951468));
#828=CARTESIAN_POINT('',(-0.362827273435763,2.87726855426364,-30.0900022703524));
#829=CARTESIAN_POINT('',(-0.374892551769672,2.87561568661872,-30.1542472425389));
#830=CARTESIAN_POINT('',(-0.374892551769672,2.87561568661872,-30.274801627358));
#831=CARTESIAN_POINT('',(-0.362827273435763,2.87726855426364,-30.3390465995445));
#832=CARTESIAN_POINT('',(-0.313850425486656,2.88302200279866,-30.4571531747501));
#833=CARTESIAN_POINT('',(-0.276942612696586,2.88701179042776,-30.5110217067353));
#834=CARTESIAN_POINT('',(-0.19185736043536,2.89391085207948,-30.5960290619129));
#835=CARTESIAN_POINT('',(-0.138006668901004,2.8972658041643,-30.6328732716206));
#836=CARTESIAN_POINT('',(-0.0199830751489666,2.90048196982303,-30.6817434409257));
#837=CARTESIAN_POINT('',(0.0441940064695096,2.90023796086346,-30.6937661750437));
#838=CARTESIAN_POINT('',(0.164785701237289,2.89589588602246,-30.6937661750437));
#839=CARTESIAN_POINT('',(0.229092984941878,2.89149576220043,-30.6816426370752));
#840=CARTESIAN_POINT('',(0.347187384991456,2.87970350183729,-30.6326034199008));
#841=CARTESIAN_POINT('',(0.400988332591148,2.87241466805872,-30.5956962635573));
#842=CARTESIAN_POINT('',(0.485828894981889,2.85928623385135,-30.5107339120734));
#843=CARTESIAN_POINT('',(0.522626613936795,2.85257618820066,-30.4569946042985));
#844=CARTESIAN_POINT('',(0.571511899718063,2.8431854749079,-30.3390506492058));
#845=CARTESIAN_POINT('',(0.583590928420811,2.8406216979325,-30.2748331856296));
#846=CARTESIAN_POINT('',(0.583590928420811,2.8406216979325,-30.2145244349484));
#847=CARTESIAN_POINT('',(0.583590928420811,2.8406216979325,-30.1541577953178));
#848=CARTESIAN_POINT('',(0.571488917314959,2.84319047708439,-30.0898828874317));
#849=CARTESIAN_POINT('',(0.522517658642205,2.85259652927062,-29.9718514387297));
#850=CARTESIAN_POINT('',(0.485656956868017,2.85931651295019,-29.9180820349929));
#851=CARTESIAN_POINT('',(0.443224272574558,2.86587896581498,-29.8756493506994));
#852=DRAUGHTING_PRE_DEFINED_CURVE_FONT('continuous');
#853=COLOUR_RGB('',0.498039215803146,0.498039215803146,0.498039215803146);
#854=CARTESIAN_POINT('',(-3.67381906146713E-016,3.0,-18.4));
#855=VECTOR('',#1408,1.0);
#856=DRAUGHTING_PRE_DEFINED_CURVE_FONT('continuous');
#857=COLOUR_RGB('',0.200000002980232,0.600000023841858,1.0);
#858=CARTESIAN_POINT('',(-0.324247225918624,2.92056760013023,-30.428948685318));
#859=VECTOR('',#1409,1.0);
#860=DRAUGHTING_PRE_DEFINED_CURVE_FONT('continuous');
#861=COLOUR_RGB('',0.498039215803146,0.498039215803146,0.498039215803146);
#862=CARTESIAN_POINT('',(0.398117010340554,2.97346646964069,-31.9376335040356));
#863=CARTESIAN_POINT('',(0.531685226880305,2.95558303976684,-31.8820698713996));
#864=CARTESIAN_POINT('',(0.652975783373711,2.92974185605895,-31.7987230899086));
#865=CARTESIAN_POINT('',(0.844490785097963,2.88038670497133,-31.6072944450911));
#866=CARTESIAN_POINT('',(0.927866849687467,2.85351135080825,-31.4859939218539));
#867=CARTESIAN_POINT('',(0.983470326877139,2.8342170199461,-31.3524192995311));
#868=PRE_DEFINED_MARKER('');
#869=COLOUR_RGB('',0.498039215803146,0.498039215803146,0.498039215803146);
#870=PRE_DEFINED_MARKER('');
#871=COLOUR_RGB('',0.200000002980232,0.600000023841858,1.0);
#872=DRAUGHTING_PRE_DEFINED_CURVE_FONT('continuous');
#873=COLOUR_RGB('',0.200000002980232,0.600000023841858,1.0);
#874=CARTESIAN_POINT('',(0.582364149245686,0.0,-31.8392261365542));
#875=VECTOR('',#1410,1.99996667);
#876=DRAUGHTING_PRE_DEFINED_CURVE_FONT('continuous');
#877=COLOUR_RGB('',0.200000002980232,0.600000023841858,1.0);
#878=CARTESIAN_POINT('',(0.891458520360563,0.0,-30.3434599021333));
#879=VECTOR('',#1411,1.99996667);
#880=DRAUGHTING_PRE_DEFINED_CURVE_FONT('continuous');
#881=COLOUR_RGB('',0.498039215803146,0.498039215803146,0.498039215803146);
#882=AXIS2_PLACEMENT_3D('',#1412,#1413,#1414);
#883=PRE_DEFINED_MARKER('');
#884=COLOUR_RGB('',0.800000011920929,0.800000011920929,0.800000011920929);
#885=DRAUGHTING_PRE_DEFINED_CURVE_FONT('continuous');
#886=COLOUR_RGB('',0.498039215803146,0.498039215803146,0.498039215803146);
#887=AXIS2_PLACEMENT_3D('',#1415,#1416,#1417);
#888=PRE_DEFINED_MARKER('');
#889=COLOUR_RGB('',0.200000002980232,0.600000023841858,1.0);
#890=DRAUGHTING_PRE_DEFINED_CURVE_FONT('continuous');
#891=COLOUR_RGB('',0.800000011920929,0.800000011920929,0.800000011920929);
#892=AXIS2_PLACEMENT_3D('',#1418,#1419,#1420);
#893=SURFACE_SIDE_STYLE('',(#1421));
#894=EDGE_LOOP('',(#1422,#1423));
#895=AXIS2_PLACEMENT_3D('',#1424,#1425,#1426);
#896=SURFACE_SIDE_STYLE('',(#1427));
#897=EDGE_LOOP('',(#1428,#1429,#1430));
#898=AXIS2_PLACEMENT_3D('',#1431,#1432,#1433);
#899=SURFACE_SIDE_STYLE('',(#1434));
#900=EDGE_LOOP('',(#1435,#1436,#1437,#1438,#1439));
#901=AXIS2_PLACEMENT_3D('',#1440,#1441,#1442);
#902=PRE_DEFINED_MARKER('');
#903=COLOUR_RGB('',0.200000002980232,0.600000023841858,1.0);
#904=PRE_DEFINED_MARKER('');
#905=COLOUR_RGB('',0.498039215803146,0.498039215803146,0.498039215803146);
#906=PRE_DEFINED_MARKER('');
#907=COLOUR_RGB('',0.498039215803146,0.498039215803146,0.498039215803146);
#908=PRE_DEFINED_MARKER('');
#909=COLOUR_RGB('',0.498039215803146,0.498039215803146,0.498039215803146);
#910=PRE_DEFINED_MARKER('');
#911=COLOUR_RGB('',0.498039215803146,0.498039215803146,0.498039215803146);
#912=PRE_DEFINED_MARKER('');
#913=COLOUR_RGB('',0.498039215803146,0.498039215803146,0.498039215803146);
#914=DRAUGHTING_PRE_DEFINED_CURVE_FONT('continuous');
#915=COLOUR_RGB('',0.498039215803146,0.498039215803146,0.498039215803146);
#916=CARTESIAN_POINT('',(0.983470332191284,2.8342170181021,-30.5178923016557));
#917=CARTESIAN_POINT('',(0.927866853050187,2.8535113497582,-30.384317674708));
#918=CARTESIAN_POINT('',(0.844490785540528,2.88038670496079,-30.2630171472775));
#919=CARTESIAN_POINT('',(0.65297577716901,2.92974185755459,-30.0715884959489));
#920=CARTESIAN_POINT('',(0.531685216531227,2.95558304183374,-29.9882417116512));
#921=CARTESIAN_POINT('',(0.398116995441562,2.97346647163552,-29.9326780771524));
#922=DRAUGHTING_PRE_DEFINED_CURVE_FONT('continuous');
#923=COLOUR_RGB('',0.498039215803146,0.498039215803146,0.498039215803146);
#924=CARTESIAN_POINT('',(0.891458520360564,2.86448978117859,-30.9351557959714));
#925=VECTOR('',#1443,1.0);
#926=PRE_DEFINED_MARKER('');
#927=COLOUR_RGB('',0.800000011920929,0.800000011920929,0.800000011920929);
#928=DRAUGHTING_PRE_DEFINED_CURVE_FONT('continuous');
#929=COLOUR_RGB('',0.200000002980232,0.600000023841858,1.0);
#930=CARTESIAN_POINT('',(0.398228799361127,2.87247694957843,-29.9327245942664));
#931=CARTESIAN_POINT('',(0.531784269863302,2.85396134936918,-29.9883003990394));
#932=CARTESIAN_POINT('',(0.653016955464002,2.82720326190681,-30.071632765745));
#933=CARTESIAN_POINT('',(0.844439191688823,2.7760516065845,-30.2629624621689));
#934=CARTESIAN_POINT('',(0.927799345959612,2.74816183579555,-30.3842041333643));
#935=CARTESIAN_POINT('',(0.983416438009138,2.72811328796174,-30.5177628569192));
#936=DRAUGHTING_PRE_DEFINED_CURVE_FONT('continuous');
#937=COLOUR_RGB('',0.200000002980232,0.600000023841858,1.0);
#938=CARTESIAN_POINT('',(-0.690037436273681,0.0,-30.2115112759038));
#939=VECTOR('',#1444,1.99996667);
#940=DRAUGHTING_PRE_DEFINED_CURVE_FONT('continuous');
#941=COLOUR_RGB('',0.200000002980232,0.600000023841858,1.0);
#942=CARTESIAN_POINT('',(0.983416432701867,2.72811328987488,-31.3525487442511));
#943=CARTESIAN_POINT('',(0.927799342607264,2.74816183688173,-31.486107463179));
#944=CARTESIAN_POINT('',(0.844439191260183,2.77605160659052,-31.6073491301809));
#945=CARTESIAN_POINT('',(0.653016961684988,2.82720326035279,-31.798678820101));
#946=CARTESIAN_POINT('',(0.531784280225426,2.8539613472261,-31.8820111840044));
#947=CARTESIAN_POINT('',(0.398228814270248,2.87247694751149,-31.9375869869173));
#948=PRE_DEFINED_MARKER('');
#949=COLOUR_RGB('',0.800000011920929,0.800000011920929,0.800000011920929);
#950=DRAUGHTING_PRE_DEFINED_CURVE_FONT('continuous');
#951=COLOUR_RGB('',0.498039215803146,0.498039215803146,0.498039215803146);
#952=CARTESIAN_POINT('',(-3.67375783114944E-016,2.99995,-39.0));
#953=VECTOR('',#1445,1.0);
#954=SURFACE_SIDE_STYLE('',(#1446));
#955=EDGE_LOOP('',(#1447,#1448,#1449,#1450));
#956=AXIS2_PLACEMENT_3D('',#1451,#1452,#1453);
#957=SURFACE_SIDE_STYLE('',(#1454));
#958=EDGE_LOOP('',(#1455,#1456,#1457,#1458));
#959=AXIS2_PLACEMENT_3D('',#1459,#1460,#1461);
#960=PRE_DEFINED_MARKER('');
#961=COLOUR_RGB('',0.498039215803146,0.498039215803146,0.498039215803146);
#962=DRAUGHTING_PRE_DEFINED_CURVE_FONT('continuous');
#963=COLOUR_RGB('',0.200000002980232,0.600000023841858,1.0);
#964=CARTESIAN_POINT('',(0.193398861644812,0.0,-31.999955271205));
#965=VECTOR('',#1462,1.99996667);
#966=DRAUGHTING_PRE_DEFINED_CURVE_FONT('continuous');
#967=COLOUR_RGB('',0.498039215803146,0.498039215803146,0.498039215803146);
#968=CARTESIAN_POINT('',(0.443451175650266,2.96704416125113,-29.8758764058061));
#969=CARTESIAN_POINT('',(0.485825230520439,2.96071098134951,-29.9183072631593));
#970=CARTESIAN_POINT('',(0.522628634598451,2.95423041401874,-29.9720565977036));
#971=CARTESIAN_POINT('',(0.571515479073374,2.94516350896329,-30.0900093998545));
#972=CARTESIAN_POINT('',(0.583590928420811,2.94268952291351,-30.1542247886017));
#973=CARTESIAN_POINT('',(0.583590928420811,2.94268952291351,-30.2145244349484));
#974=CARTESIAN_POINT('',(0.583590928420811,2.94268952291351,-30.2748240812951));
#975=CARTESIAN_POINT('',(0.571515479073373,2.94516350896329,-30.3390394700423));
#976=CARTESIAN_POINT('',(0.522628634598449,2.95423041401874,-30.4569922721932));
#977=CARTESIAN_POINT('',(0.485825230520439,2.96071098134951,-30.5107416067375));
#978=CARTESIAN_POINT('',(0.400967453640913,2.97339373188344,-30.5957131355921));
#979=CARTESIAN_POINT('',(0.347160591378598,2.98043595390805,-30.6326186343397));
#980=CARTESIAN_POINT('',(0.229067490754341,2.99183004798448,-30.6816491335629));
#981=CARTESIAN_POINT('',(0.164768311964613,2.99608182394725,-30.6937661750437));
#982=CARTESIAN_POINT('',(0.0441927259273232,3.00027835150232,-30.6937661750437));
#983=CARTESIAN_POINT('',(-0.0199849147074382,3.00051422459916,-30.6817432311485));
#984=CARTESIAN_POINT('',(-0.138011899975601,2.99740516520178,-30.6328705536194));
#985=CARTESIAN_POINT('',(-0.191865153226538,2.99416206152009,-30.5960238345305));
#986=CARTESIAN_POINT('',(-0.276951356845971,2.9874941541864,-30.5110104084073));
#987=CARTESIAN_POINT('',(-0.313857517624862,2.98363884435361,-30.4571404765947));
#988=CARTESIAN_POINT('',(-0.362829872721121,2.97808021777493,-30.33903592618));
#989=CARTESIAN_POINT('',(-0.374892551769672,2.97648376018208,-30.2747948448899));
#990=CARTESIAN_POINT('',(-0.374892551769672,2.97648376018208,-30.1542540250069));
#991=CARTESIAN_POINT('',(-0.362829872721121,2.97808021777493,-30.0900129437168));
#992=CARTESIAN_POINT('',(-0.313857517624862,2.98363884435361,-29.9719083933022));
#993=CARTESIAN_POINT('',(-0.276951356845971,2.9874941541864,-29.9180384614896));
#994=CARTESIAN_POINT('',(-0.234380876478648,2.99083025341478,-29.8755043932883));
#995=SURFACE_SIDE_STYLE('',(#1463));
#996=EDGE_LOOP('',(#1464,#1465,#1466,#1467));
#997=AXIS2_PLACEMENT_3D('',#1468,#1469,#1470);
#998=PRE_DEFINED_MARKER('');
#999=COLOUR_RGB('',0.498039215803146,0.498039215803146,0.498039215803146);
#1000=SURFACE_SIDE_STYLE('',(#1471));
#1001=EDGE_LOOP('',(#1472,#1473,#1474,#1475));
#1002=AXIS2_PLACEMENT_3D('',#1476,#1477,#1478);
#1003=DRAUGHTING_PRE_DEFINED_CURVE_FONT('continuous');
#1004=COLOUR_RGB('',0.498039215803146,0.498039215803146,0.498039215803146);
#1005=AXIS2_PLACEMENT_3D('',#1479,#1480,#1481);
#1006=PRE_DEFINED_MARKER('');
#1007=COLOUR_RGB('',0.200000002980232,0.600000023841858,1.0);
#1008=DRAUGHTING_PRE_DEFINED_CURVE_FONT('continuous');
#1009=COLOUR_RGB('',0.498039215803146,0.498039215803146,0.498039215803146);
#1010=AXIS2_PLACEMENT_3D('',#1482,#1483,#1484);
#1011=PRE_DEFINED_MARKER('');
#1012=COLOUR_RGB('',0.200000002980232,0.600000023841858,1.0);
#1013=DRAUGHTING_PRE_DEFINED_CURVE_FONT('continuous');
#1014=COLOUR_RGB('',0.200000002980232,0.600000023841858,1.0);
#1015=CARTESIAN_POINT('',(0.582364149245687,0.0,-30.8800141090597));
#1016=VECTOR('',#1485,1.99996667);
#1017=DRAUGHTING_PRE_DEFINED_CURVE_FONT('continuous');
#1018=COLOUR_RGB('',0.200000002980232,0.600000023841858,1.0);
#1019=CARTESIAN_POINT('',(-0.891353646972586,0.0,-31.5814605734398));
#1020=VECTOR('',#1486,1.99996667);
#1021=DRAUGHTING_PRE_DEFINED_CURVE_FONT('continuous');
#1022=COLOUR_RGB('',0.800000011920929,0.800000011920929,0.800000011920929);
#1023=AXIS2_PLACEMENT_3D('',#1487,#1488,#1489);
#1024=DRAUGHTING_PRE_DEFINED_CURVE_FONT('continuous');
#1025=COLOUR_RGB('',0.498039215803146,0.498039215803146,0.498039215803146);
#1026=CARTESIAN_POINT('',(0.443451175650266,2.96704416125113,-29.8758764058061));
#1027=CARTESIAN_POINT('',(0.485825230520439,2.96071098134951,-29.9183072631593));
#1028=CARTESIAN_POINT('',(0.522628634598451,2.95423041401874,-29.9720565977036));
#1029=CARTESIAN_POINT('',(0.571515479073374,2.94516350896329,-30.0900093998545));
#1030=CARTESIAN_POINT('',(0.583590928420811,2.94268952291351,-30.1542247886017));
#1031=CARTESIAN_POINT('',(0.583590928420811,2.94268952291351,-30.2145244349484));
#1032=CARTESIAN_POINT('',(0.583590928420811,2.94268952291351,-30.2748240812951));
#1033=CARTESIAN_POINT('',(0.571515479073373,2.94516350896329,-30.3390394700423));
#1034=CARTESIAN_POINT('',(0.522628634598449,2.95423041401874,-30.4569922721932));
#1035=CARTESIAN_POINT('',(0.485825230520439,2.96071098134951,-30.5107416067375));
#1036=CARTESIAN_POINT('',(0.400967453640913,2.97339373188344,-30.5957131355921));
#1037=CARTESIAN_POINT('',(0.347160591378598,2.98043595390805,-30.6326186343397));
#1038=CARTESIAN_POINT('',(0.229067490754341,2.99183004798448,-30.6816491335629));
#1039=CARTESIAN_POINT('',(0.164768311964613,2.99608182394725,-30.6937661750437));
#1040=CARTESIAN_POINT('',(0.0441927259273232,3.00027835150232,-30.6937661750437));
#1041=CARTESIAN_POINT('',(-0.0199849147074382,3.00051422459916,-30.6817432311485));
#1042=CARTESIAN_POINT('',(-0.138011899975601,2.99740516520178,-30.6328705536194));
#1043=CARTESIAN_POINT('',(-0.191865153226538,2.99416206152009,-30.5960238345305));
#1044=CARTESIAN_POINT('',(-0.276951356845971,2.9874941541864,-30.5110104084073));
#1045=CARTESIAN_POINT('',(-0.313857517624862,2.98363884435361,-30.4571404765947));
#1046=CARTESIAN_POINT('',(-0.362829872721121,2.97808021777493,-30.33903592618));
#1047=CARTESIAN_POINT('',(-0.374892551769672,2.97648376018208,-30.2747948448899));
#1048=CARTESIAN_POINT('',(-0.374892551769672,2.97648376018208,-30.1542540250069));
#1049=CARTESIAN_POINT('',(-0.362829872721121,2.97808021777493,-30.0900129437168));
#1050=CARTESIAN_POINT('',(-0.313857517624862,2.98363884435361,-29.9719083933022));
#1051=CARTESIAN_POINT('',(-0.276951356845971,2.9874941541864,-29.9180384614896));
#1052=CARTESIAN_POINT('',(-0.234380876478648,2.99083025341478,-29.8755043932883));
#1053=PRE_DEFINED_MARKER('');
#1054=COLOUR_RGB('',0.498039215803146,0.498039215803146,0.498039215803146);
#1055=DRAUGHTING_PRE_DEFINED_CURVE_FONT('continuous');
#1056=COLOUR_RGB('',0.800000011920929,0.800000011920929,0.800000011920929);
#1057=CARTESIAN_POINT('',(3.67375783114944E-016,-2.99995,-52.45));
#1058=VECTOR('',#1490,1.0);
#1059=PRE_DEFINED_MARKER('');
#1060=COLOUR_RGB('',0.498039215803146,0.498039215803146,0.498039215803146);
#1061=PRE_DEFINED_MARKER('');
#1062=COLOUR_RGB('',0.498039215803146,0.498039215803146,0.498039215803146);
#1063=PRE_DEFINED_MARKER('');
#1064=COLOUR_RGB('',0.200000002980232,0.600000023841858,1.0);
#1065=SURFACE_SIDE_STYLE('',(#1491));
#1066=EDGE_LOOP('',(#1492,#1493,#1494,#1495));
#1067=AXIS2_PLACEMENT_3D('',#1496,#1497,#1498);
#1068=DRAUGHTING_PRE_DEFINED_CURVE_FONT('continuous');
#1069=COLOUR_RGB('',0.498039215803146,0.498039215803146,0.498039215803146);
#1070=CARTESIAN_POINT('',(0.443451175650266,2.96704416125113,-29.8758764058061));
#1071=CARTESIAN_POINT('',(0.485825230520439,2.96071098134951,-29.9183072631593));
#1072=CARTESIAN_POINT('',(0.522628634598451,2.95423041401874,-29.9720565977036));
#1073=CARTESIAN_POINT('',(0.571515479073374,2.94516350896329,-30.0900093998545));
#1074=CARTESIAN_POINT('',(0.583590928420811,2.94268952291351,-30.1542247886017));
#1075=CARTESIAN_POINT('',(0.583590928420811,2.94268952291351,-30.2145244349484));
#1076=CARTESIAN_POINT('',(0.583590928420811,2.94268952291351,-30.2748240812951));
#1077=CARTESIAN_POINT('',(0.571515479073373,2.94516350896329,-30.3390394700423));
#1078=CARTESIAN_POINT('',(0.522628634598449,2.95423041401874,-30.4569922721932));
#1079=CARTESIAN_POINT('',(0.485825230520439,2.96071098134951,-30.5107416067375));
#1080=CARTESIAN_POINT('',(0.400967453640913,2.97339373188344,-30.5957131355921));
#1081=CARTESIAN_POINT('',(0.347160591378598,2.98043595390805,-30.6326186343397));
#1082=CARTESIAN_POINT('',(0.229067490754341,2.99183004798448,-30.6816491335629));
#1083=CARTESIAN_POINT('',(0.164768311964613,2.99608182394725,-30.6937661750437));
#1084=CARTESIAN_POINT('',(0.0441927259273232,3.00027835150232,-30.6937661750437));
#1085=CARTESIAN_POINT('',(-0.0199849147074382,3.00051422459916,-30.6817432311485));
#1086=CARTESIAN_POINT('',(-0.138011899975601,2.99740516520178,-30.6328705536194));
#1087=CARTESIAN_POINT('',(-0.191865153226538,2.99416206152009,-30.5960238345305));
#1088=CARTESIAN_POINT('',(-0.276951356845971,2.9874941541864,-30.5110104084073));
#1089=CARTESIAN_POINT('',(-0.313857517624862,2.98363884435361,-30.4571404765947));
#1090=CARTESIAN_POINT('',(-0.362829872721121,2.97808021777493,-30.33903592618));
#1091=CARTESIAN_POINT('',(-0.374892551769672,2.97648376018208,-30.2747948448899));
#1092=CARTESIAN_POINT('',(-0.374892551769672,2.97648376018208,-30.1542540250069));
#1093=CARTESIAN_POINT('',(-0.362829872721121,2.97808021777493,-30.0900129437168));
#1094=CARTESIAN_POINT('',(-0.313857517624862,2.98363884435361,-29.9719083933022));
#1095=CARTESIAN_POINT('',(-0.276951356845971,2.9874941541864,-29.9180384614896));
#1096=CARTESIAN_POINT('',(-0.234380876478648,2.99083025341478,-29.8755043932883));
#1097=SURFACE_SIDE_STYLE('',(#1499));
#1098=EDGE_LOOP('',(#1500,#1501,#1502,#1503));
#1099=AXIS2_PLACEMENT_3D('',#1504,#1505,#1506);
#1100=DRAUGHTING_PRE_DEFINED_CURVE_FONT('continuous');
#1101=COLOUR_RGB('',0.800000011920929,0.800000011920929,0.800000011920929);
#1102=AXIS2_PLACEMENT_3D('',#1507,#1508,#1509);
#1103=SURFACE_SIDE_STYLE('',(#1510));
#1104=EDGE_LOOP('',(#1511,#1512,#1513,#1514));
#1105=AXIS2_PLACEMENT_3D('',#1515,#1516,#1517);
#1106=DRAUGHTING_PRE_DEFINED_CURVE_FONT('continuous');
#1107=COLOUR_RGB('',0.498039215803146,0.498039215803146,0.498039215803146);
#1108=AXIS2_PLACEMENT_3D('',#1518,#1519,#1520);
#1109=DRAUGHTING_PRE_DEFINED_CURVE_FONT('continuous');
#1110=COLOUR_RGB('',0.800000011920929,0.800000011920929,0.800000011920929);
#1111=AXIS2_PLACEMENT_3D('',#1521,#1522,#1523);
#1112=DRAUGHTING_PRE_DEFINED_CURVE_FONT('continuous');
#1113=COLOUR_RGB('',0.498039215803146,0.498039215803146,0.498039215803146);
#1114=CARTESIAN_POINT('',(-0.629727328037687,2.93316271153213,-29.9150913557644));
#1115=CARTESIAN_POINT('',(-0.670089755997728,2.92449721450026,-30.0122639601135));
#1116=CARTESIAN_POINT('',(-0.690061178540055,2.91955742705498,-30.1181316354559));
#1117=CARTESIAN_POINT('',(-0.690061178540055,2.91955742705498,-30.3171302617605));
#1118=CARTESIAN_POINT('',(-0.670089755997729,2.92449721450026,-30.4229979371029));
#1119=CARTESIAN_POINT('',(-0.589364900077663,2.94182820856402,-30.6173431458012));
#1120=CARTESIAN_POINT('',(-0.528629969212499,2.95390696563364,-30.7058560999866));
#1121=CARTESIAN_POINT('',(-0.388825924618277,2.97553438372319,-30.8454507471901));
#1122=CARTESIAN_POINT('',(-0.3003749985683,2.98650953771095,-30.9060152917628));
#1123=CARTESIAN_POINT('',(-0.106252469502453,2.99969577970094,-30.9864637231011));
#1124=CARTESIAN_POINT('',(-0.00055518822312943,3.0016411180253,-31.0063289843056));
#1125=CARTESIAN_POINT('',(0.198513504569518,2.99509240733468,-31.0063289843056));
#1126=CARTESIAN_POINT('',(0.304528894401637,2.98611319488251,-30.986217470731));
#1127=CARTESIAN_POINT('',(0.40167612134887,2.97298777218106,-30.9457873850085));
#1128=PRE_DEFINED_MARKER('');
#1129=COLOUR_RGB('',0.200000002980232,0.600000023841858,1.0);
#1130=DRAUGHTING_PRE_DEFINED_CURVE_FONT('continuous');
#1131=COLOUR_RGB('',0.800000011920929,0.800000011920929,0.800000011920929);
#1132=AXIS2_PLACEMENT_3D('',#1524,#1525,#1526);
#1133=PRE_DEFINED_MARKER('');
#1134=COLOUR_RGB('',0.498039215803146,0.498039215803146,0.498039215803146);
#1135=DRAUGHTING_PRE_DEFINED_CURVE_FONT('continuous');
#1136=COLOUR_RGB('',0.200000002980232,0.600000023841858,1.0);
#1137=CARTESIAN_POINT('',(0.582364149245687,2.84087345726158,-31.359620122807));
#1138=VECTOR('',#1527,1.0);
#1139=PRE_DEFINED_MARKER('');
#1140=COLOUR_RGB('',0.498039215803146,0.498039215803146,0.498039215803146);
#1141=DRAUGHTING_PRE_DEFINED_CURVE_FONT('continuous');
#1142=COLOUR_RGB('',0.498039215803146,0.498039215803146,0.498039215803146);
#1143=CARTESIAN_POINT('',(0.582364149245687,2.94293255064967,-31.359620122807));
#1144=VECTOR('',#1528,1.0);
#1145=SURFACE_SIDE_STYLE('',(#1529));
#1146=EDGE_LOOP('',(#1530,#1531,#1532,#1533,#1534));
#1147=AXIS2_PLACEMENT_3D('',#1535,#1536,#1537);
#1148=DRAUGHTING_PRE_DEFINED_CURVE_FONT('continuous');
#1149=COLOUR_RGB('',0.498039215803146,0.498039215803146,0.498039215803146);
#1150=CARTESIAN_POINT('',(3.67381906146713E-016,-3.0,-18.4));
#1151=VECTOR('',#1538,1.0);
#1152=PRE_DEFINED_MARKER('');
#1153=COLOUR_RGB('',0.200000002980232,0.600000023841858,1.0);
#1154=DRAUGHTING_PRE_DEFINED_CURVE_FONT('continuous');
#1155=COLOUR_RGB('',0.800000011920929,0.800000011920929,0.800000011920929);
#1156=CARTESIAN_POINT('',(-3.67375783114944E-016,2.99995,-52.45));
#1157=VECTOR('',#1539,1.0);
#1158=DRAUGHTING_PRE_DEFINED_CURVE_FONT('continuous');
#1159=COLOUR_RGB('',0.498039215803146,0.498039215803146,0.498039215803146);
#1160=AXIS2_PLACEMENT_3D('',#1540,#1541,#1542);
#1161=SURFACE_SIDE_STYLE('',(#1543));
#1162=EDGE_LOOP('',(#1544,#1545,#1546,#1547,#1548,#1549,#1550,#1551,#1552,#1553,#1554,#1555));
#1163=AXIS2_PLACEMENT_3D('',#1556,#1557,#1558);
#1164=DRAUGHTING_PRE_DEFINED_CURVE_FONT('continuous');
#1165=COLOUR_RGB('',0.200000002980232,0.600000023841858,1.0);
#1166=CARTESIAN_POINT('',(-0.234370666233998,2.89046369866654,-29.8754941920841));
#1167=CARTESIAN_POINT('',(-0.276942612696586,2.88701179042776,-29.9180271631615));
#1168=CARTESIAN_POINT('',(-0.313850425486656,2.88302200279866,-29.9718956951468));
#1169=CARTESIAN_POINT('',(-0.362827273435763,2.87726855426364,-30.0900022703524));
#1170=CARTESIAN_POINT('',(-0.374892551769672,2.87561568661872,-30.1542472425389));
#1171=CARTESIAN_POINT('',(-0.374892551769672,2.87561568661872,-30.274801627358));
#1172=CARTESIAN_POINT('',(-0.362827273435763,2.87726855426364,-30.3390465995445));
#1173=CARTESIAN_POINT('',(-0.313850425486656,2.88302200279866,-30.4571531747501));
#1174=CARTESIAN_POINT('',(-0.276942612696586,2.88701179042776,-30.5110217067353));
#1175=CARTESIAN_POINT('',(-0.19185736043536,2.89391085207948,-30.5960290619129));
#1176=CARTESIAN_POINT('',(-0.138006668901004,2.8972658041643,-30.6328732716206));
#1177=CARTESIAN_POINT('',(-0.0199830751489666,2.90048196982303,-30.6817434409257));
#1178=CARTESIAN_POINT('',(0.0441940064695096,2.90023796086346,-30.6937661750437));
#1179=CARTESIAN_POINT('',(0.164785701237289,2.89589588602246,-30.6937661750437));
#1180=CARTESIAN_POINT('',(0.229092984941878,2.89149576220043,-30.6816426370752));
#1181=CARTESIAN_POINT('',(0.347187384991456,2.87970350183729,-30.6326034199008));
#1182=CARTESIAN_POINT('',(0.400988332591148,2.87241466805872,-30.5956962635573));
#1183=CARTESIAN_POINT('',(0.485828894981889,2.85928623385135,-30.5107339120734));
#1184=CARTESIAN_POINT('',(0.522626613936795,2.85257618820066,-30.4569946042985));
#1185=CARTESIAN_POINT('',(0.571511899718063,2.8431854749079,-30.3390506492058));
#1186=CARTESIAN_POINT('',(0.583590928420811,2.8406216979325,-30.2748331856296));
#1187=CARTESIAN_POINT('',(0.583590928420811,2.8406216979325,-30.2145244349484));
#1188=CARTESIAN_POINT('',(0.583590928420811,2.8406216979325,-30.1541577953178));
#1189=CARTESIAN_POINT('',(0.571488917314959,2.84319047708439,-30.0898828874317));
#1190=CARTESIAN_POINT('',(0.522517658642205,2.85259652927062,-29.9718514387297));
#1191=CARTESIAN_POINT('',(0.485656956868017,2.85931651295019,-29.9180820349929));
#1192=CARTESIAN_POINT('',(0.443224272574558,2.86587896581498,-29.8756493506994));
#1193=PRE_DEFINED_MARKER('');
#1194=COLOUR_RGB('',0.498039215803146,0.498039215803146,0.498039215803146);
#1195=DRAUGHTING_PRE_DEFINED_CURVE_FONT('continuous');
#1196=COLOUR_RGB('',0.498039215803146,0.498039215803146,0.498039215803146);
#1197=CARTESIAN_POINT('',(3.67375783114944E-016,-2.99995,-39.0));
#1198=VECTOR('',#1559,1.0);
#1199=PRE_DEFINED_MARKER('');
#1200=COLOUR_RGB('',0.498039215803146,0.498039215803146,0.498039215803146);
#1201=PRE_DEFINED_MARKER('');
#1202=COLOUR_RGB('',0.498039215803146,0.498039215803146,0.498039215803146);
#1203=DRAUGHTING_PRE_DEFINED_CURVE_FONT('continuous');
#1204=COLOUR_RGB('',0.498039215803146,0.498039215803146,0.498039215803146);
#1205=AXIS2_PLACEMENT_3D('',#1560,#1561,#1562);
#1206=DRAUGHTING_PRE_DEFINED_CURVE_FONT('continuous');
#1207=COLOUR_RGB('',0.498039215803146,0.498039215803146,0.498039215803146);
#1208=AXIS2_PLACEMENT_3D('',#1563,#1564,#1565);
#1209=PRE_DEFINED_MARKER('');
#1210=COLOUR_RGB('',0.800000011920929,0.800000011920929,0.800000011920929);
#1211=SURFACE_SIDE_STYLE('',(#1566));
#1212=EDGE_LOOP('',(#1567,#1568,#1569,#1570));
#1213=AXIS2_PLACEMENT_3D('',#1571,#1572,#1573);
#1214=SURFACE_SIDE_STYLE('',(#1574));
#1215=EDGE_LOOP('',(#1575,#1576));
#1216=AXIS2_PLACEMENT_3D('',#1577,#1578,#1579);
#1217=PRE_DEFINED_MARKER('');
#1218=COLOUR_RGB('',0.498039215803146,0.498039215803146,0.498039215803146);
#1219=SURFACE_SIDE_STYLE('',(#1580));
#1220=EDGE_LOOP('',(#1581,#1582,#1583,#1584,#1585));
#1221=AXIS2_PLACEMENT_3D('',#1586,#1587,#1588);
#1222=DRAUGHTING_PRE_DEFINED_CURVE_FONT('continuous');
#1223=COLOUR_RGB('',0.498039215803146,0.498039215803146,0.498039215803146);
#1224=CARTESIAN_POINT('',(-3.39100833825486E-016,2.76905989232415,-0.399999999999999));
#1225=VECTOR('',#1589,1.0);
#1226=PRE_DEFINED_MARKER('');
#1227=COLOUR_RGB('',0.800000011920929,0.800000011920929,0.800000011920929);
#1228=DRAUGHTING_PRE_DEFINED_CURVE_FONT('continuous');
#1229=COLOUR_RGB('',0.498039215803146,0.498039215803146,0.498039215803146);
#1230=CARTESIAN_POINT('',(-3.67381906146713E-016,3.0,-18.4));
#1231=VECTOR('',#1590,1.0);
#1232=SURFACE_SIDE_STYLE('',(#1591));
#1233=EDGE_LOOP('',(#1592,#1593,#1594,#1595));
#1234=AXIS2_PLACEMENT_3D('',#1596,#1597,#1598);
#1235=PRE_DEFINED_MARKER('');
#1236=COLOUR_RGB('',0.200000002980232,0.600000023841858,1.0);
#1237=DRAUGHTING_PRE_DEFINED_CURVE_FONT('continuous');
#1238=COLOUR_RGB('',0.498039215803146,0.498039215803146,0.498039215803146);
#1239=AXIS2_PLACEMENT_3D('',#1599,#1600,#1601);
#1240=DRAUGHTING_PRE_DEFINED_CURVE_FONT('continuous');
#1241=COLOUR_RGB('',0.200000002980232,0.600000023841858,1.0);
#1242=AXIS2_PLACEMENT_3D('',#1602,#1603,#1604);
#1243=DRAUGHTING_PRE_DEFINED_CURVE_FONT('continuous');
#1244=COLOUR_RGB('',0.200000002980232,0.600000023841858,1.0);
#1245=AXIS2_PLACEMENT_3D('',#1605,#1606,#1607);
#1246=SURFACE_SIDE_STYLE('',(#1608));
#1247=EDGE_LOOP('',(#1609,#1610,#1611,#1612));
#1248=AXIS2_PLACEMENT_3D('',#1613,#1614,#1615);
#1249=SURFACE_SIDE_STYLE('',(#1616));
#1250=EDGE_LOOP('',(#1617,#1618,#1619,#1620));
#1251=AXIS2_PLACEMENT_3D('',#1621,#1622,#1623);
#1252=DRAUGHTING_PRE_DEFINED_CURVE_FONT('continuous');
#1253=COLOUR_RGB('',0.200000002980232,0.600000023841858,1.0);
#1254=CARTESIAN_POINT('',(0.532945602569764,0.0,-30.0001001845789));
#1255=VECTOR('',#1624,1.99996667);
#1256=SURFACE_SIDE_STYLE('',(#1625));
#1257=EDGE_LOOP('',(#1626,#1627,#1628,#1629));
#1258=AXIS2_PLACEMENT_3D('',#1630,#1631,#1632);
#1259=PRE_DEFINED_MARKER('');
#1260=COLOUR_RGB('',0.498039215803146,0.498039215803146,0.498039215803146);
#1261=DRAUGHTING_PRE_DEFINED_CURVE_FONT('continuous');
#1262=COLOUR_RGB('',0.200000002980232,0.600000023841858,1.0);
#1263=CARTESIAN_POINT('',(0.401764442741553,2.87198456385973,-30.9457506217189));
#1264=CARTESIAN_POINT('',(0.304617893990375,2.8855744798392,-30.9861942507251));
#1265=CARTESIAN_POINT('',(0.198574578818279,2.89487085297054,-31.0063289843056));
#1266=CARTESIAN_POINT('',(-0.000566647061992914,2.90164822391183,-31.0063289843056));
#1267=CARTESIAN_POINT('',(-0.106268631505242,2.89963498840476,-30.9864584733608));
#1268=CARTESIAN_POINT('',(-0.300377391354007,2.88599194582569,-30.9060128518732));
#1269=CARTESIAN_POINT('',(-0.388811575699379,2.87463601476889,-30.845457665998));
#1270=CARTESIAN_POINT('',(-0.52859819241619,2.85224789928208,-30.7058952549916));
#1271=CARTESIAN_POINT('',(-0.589335407009636,2.83973664225532,-30.6173948833099));
#1272=CARTESIAN_POINT('',(-0.670076750467194,2.82177561398858,-30.4230485048452));
#1273=CARTESIAN_POINT('',(-0.690061178540055,2.81665148223416,-30.3171643573085));
#1274=CARTESIAN_POINT('',(-0.690061178540055,2.81665148223416,-30.1182042656964));
#1275=CARTESIAN_POINT('',(-0.670119144101314,2.82176436530562,-30.0124256980097));
#1276=CARTESIAN_POINT('',(-0.629827607260432,2.83072909117644,-29.9153328910665));
#1277=DRAUGHTING_PRE_DEFINED_CURVE_FONT('continuous');
#1278=COLOUR_RGB('',0.498039215803146,0.498039215803146,0.498039215803146);
#1279=AXIS2_PLACEMENT_3D('',#1633,#1634,#1635);
#1280=DRAUGHTING_PRE_DEFINED_CURVE_FONT('continuous');
#1281=COLOUR_RGB('',0.498039215803146,0.498039215803146,0.498039215803146);
#1282=CARTESIAN_POINT('',(-1.0213107725762,2.82080206782039,-31.3523603909889));
#1283=CARTESIAN_POINT('',(-0.965748326062902,2.84091920915678,-31.4858586563829));
#1284=CARTESIAN_POINT('',(-0.882474008253195,2.86898278727422,-31.6070393018291));
#1285=CARTESIAN_POINT('',(-0.691181971660376,2.92097462682348,-31.7984209134462));
#1286=CARTESIAN_POINT('',(-0.569939118101217,2.94845792845378,-31.8818242986056));
#1287=CARTESIAN_POINT('',(-0.302738780934603,2.98773894197888,-31.9931051738375));
#1288=CARTESIAN_POINT('',(-0.156684840798735,2.99907204453492,-32.0209145449035));
#1289=CARTESIAN_POINT('',(0.118614216879023,3.00080717863586,-32.0209145449035));
#1290=CARTESIAN_POINT('',(0.264548965222022,2.99134988491468,-31.9931974310104));
#1291=CARTESIAN_POINT('',(0.398117192990064,2.97346644518577,-31.9376337934181));
#1292=DRAUGHTING_PRE_DEFINED_CURVE_FONT('continuous');
#1293=COLOUR_RGB('',0.200000002980232,0.600000023841858,1.0);
#1294=CARTESIAN_POINT('',(0.891458520360564,2.759531066862,-30.9351557959714));
#1295=VECTOR('',#1636,1.0);
#1296=PRE_DEFINED_MARKER('');
#1297=COLOUR_RGB('',0.800000011920929,0.800000011920929,0.800000011920929);
#1298=SURFACE_SIDE_STYLE('',(#1637));
#1299=EDGE_LOOP('',(#1638,#1639,#1640,#1641,#1642,#1643,#1644,#1645,#1646,#1647,#1648));
#1300=AXIS2_PLACEMENT_3D('',#1649,#1650,#1651);
#1301=PRE_DEFINED_MARKER('');
#1302=COLOUR_RGB('',0.200000002980232,0.600000023841858,1.0);
#1303=PRE_DEFINED_MARKER('');
#1304=COLOUR_RGB('',0.498039215803146,0.498039215803146,0.498039215803146);
#1305=PRE_DEFINED_MARKER('');
#1306=COLOUR_RGB('',0.498039215803146,0.498039215803146,0.498039215803146);
#1307=DRAUGHTING_PRE_DEFINED_CURVE_FONT('continuous');
#1308=COLOUR_RGB('',0.498039215803146,0.498039215803146,0.498039215803146);
#1309=AXIS2_PLACEMENT_3D('',#1652,#1653,#1654);
#1310=DRAUGHTING_PRE_DEFINED_CURVE_FONT('continuous');
#1311=COLOUR_RGB('',0.800000011920929,0.800000011920929,0.800000011920929);
#1312=AXIS2_PLACEMENT_3D('',#1655,#1656,#1657);
#1313=SURFACE_SIDE_STYLE('',(#1658));
#1314=PRE_DEFINED_MARKER('');
#1315=COLOUR_RGB('',0.498039215803146,0.498039215803146,0.498039215803146);
#1316=PRE_DEFINED_MARKER('');
#1317=COLOUR_RGB('',0.200000002980232,0.600000023841858,1.0);
#1318=DRAUGHTING_PRE_DEFINED_CURVE_FONT('continuous');
#1319=COLOUR_RGB('',0.498039215803146,0.498039215803146,0.498039215803146);
#1320=AXIS2_PLACEMENT_3D('',#1659,#1660,#1661);
#1321=SURFACE_SIDE_STYLE('',(#1662));
#1322=EDGE_LOOP('',(#1663,#1664,#1665,#1666));
#1323=AXIS2_PLACEMENT_3D('',#1667,#1668,#1669);
#1324=SURFACE_SIDE_STYLE('',(#1670));
#1325=EDGE_LOOP('',(#1671,#1672,#1673,#1674,#1675));
#1326=AXIS2_PLACEMENT_3D('',#1676,#1677,#1678);
#1327=DRAUGHTING_PRE_DEFINED_CURVE_FONT('continuous');
#1328=COLOUR_RGB('',0.498039215803146,0.498039215803146,0.498039215803146);
#1329=CARTESIAN_POINT('',(-3.67381906146713E-016,3.0,-18.4));
#1330=VECTOR('',#1679,1.0);
#1331=SURFACE_SIDE_STYLE('',(#1680));
#1332=EDGE_LOOP('',(#1681,#1682));
#1333=AXIS2_PLACEMENT_3D('',#1683,#1684,#1685);
#1334=DRAUGHTING_PRE_DEFINED_CURVE_FONT('continuous');
#1335=COLOUR_RGB('',0.200000002980232,0.600000023841858,1.0);
#1336=CARTESIAN_POINT('',(0.382078323112378,0.0,-30.9536374206519));
#1337=VECTOR('',#1686,1.99996667);
#1338=DRAUGHTING_PRE_DEFINED_CURVE_FONT('continuous');
#1339=COLOUR_RGB('',0.498039215803146,0.498039215803146,0.498039215803146);
#1340=AXIS2_PLACEMENT_3D('',#1687,#1688,#1689);
#1341=DRAUGHTING_PRE_DEFINED_CURVE_FONT('continuous');
#1342=COLOUR_RGB('',0.200000002980232,0.600000023841858,1.0);
#1343=AXIS2_PLACEMENT_3D('',#1690,#1691,#1692);
#1344=DRAUGHTING_PRE_DEFINED_CURVE_FONT('continuous');
#1345=COLOUR_RGB('',0.800000011920929,0.800000011920929,0.800000011920929);
#1346=AXIS2_PLACEMENT_3D('',#1693,#1694,#1695);
#1347=DRAUGHTING_PRE_DEFINED_CURVE_FONT('continuous');
#1348=COLOUR_RGB('',0.498039215803146,0.498039215803146,0.498039215803146);
#1349=CARTESIAN_POINT('',(3.39100833825486E-016,-2.76905989232415,-0.399999999999999));
#1350=VECTOR('',#1696,1.0);
#1351=DRAUGHTING_PRE_DEFINED_CURVE_FONT('continuous');
#1352=COLOUR_RGB('',0.498039215803146,0.498039215803146,0.498039215803146);
#1353=CARTESIAN_POINT('',(-1.0213107725762,2.82080206782039,-31.3523603909889));
#1354=CARTESIAN_POINT('',(-0.965748326062902,2.84091920915678,-31.4858586563829));
#1355=CARTESIAN_POINT('',(-0.882474008253195,2.86898278727422,-31.6070393018291));
#1356=CARTESIAN_POINT('',(-0.691181971660376,2.92097462682348,-31.7984209134462));
#1357=CARTESIAN_POINT('',(-0.569939118101217,2.94845792845378,-31.8818242986056));
#1358=CARTESIAN_POINT('',(-0.302738780934603,2.98773894197888,-31.9931051738375));
#1359=CARTESIAN_POINT('',(-0.156684840798735,2.99907204453492,-32.0209145449035));
#1360=CARTESIAN_POINT('',(0.118614216879023,3.00080717863586,-32.0209145449035));
#1361=CARTESIAN_POINT('',(0.264548965222022,2.99134988491468,-31.9931974310104));
#1362=CARTESIAN_POINT('',(0.398117192990064,2.97346644518577,-31.9376337934181));
#1363=PRE_DEFINED_MARKER('');
#1364=COLOUR_RGB('',0.498039215803146,0.498039215803146,0.498039215803146);
#1365=DRAUGHTING_PRE_DEFINED_CURVE_FONT('continuous');
#1366=COLOUR_RGB('',0.800000011920929,0.800000011920929,0.800000011920929);
#1367=AXIS2_PLACEMENT_3D('',#1697,#1698,#1699);
#1368=SURFACE_SIDE_STYLE('',(#1700));
#1369=EDGE_LOOP('',(#1701,#1702,#1703,#1704));
#1370=AXIS2_PLACEMENT_3D('',#1705,#1706,#1707);
#1371=DRAUGHTING_PRE_DEFINED_CURVE_FONT('continuous');
#1372=COLOUR_RGB('',0.498039215803146,0.498039215803146,0.498039215803146);
#1373=AXIS2_PLACEMENT_3D('',#1708,#1709,#1710);
#1374=PRE_DEFINED_MARKER('');
#1375=COLOUR_RGB('',0.498039215803146,0.498039215803146,0.498039215803146);
#1376=SURFACE_SIDE_STYLE('',(#1711));
#1377=EDGE_LOOP('',(#1712,#1713,#1714,#1715,#1716,#1717,#1718,#1719,#1720,#1721,#1722,#1723));
#1378=AXIS2_PLACEMENT_3D('',#1724,#1725,#1726);
#1379=DRAUGHTING_PRE_DEFINED_CURVE_FONT('continuous');
#1380=COLOUR_RGB('',0.200000002980232,0.600000023841858,1.0);
#1381=CARTESIAN_POINT('',(0.891458520360564,0.0,-31.5268516898096));
#1382=VECTOR('',#1727,1.99996667);
#1384=SURFACE_STYLE_FILL_AREA(#1728);
#1385=ORIENTED_EDGE('',*,*,#382,.T.);
#1386=ORIENTED_EDGE('',*,*,#264,.T.);
#1387=ORIENTED_EDGE('',*,*,#364,.F.);
#1388=ORIENTED_EDGE('',*,*,#326,.F.);
#1389=CARTESIAN_POINT('',(0.0,1.5,-36.0));
#1390=DIRECTION('',(0.0,0.0,-1.0));
#1391=DIRECTION('',(0.0,1.0,0.0));
#1392=SURFACE_STYLE_FILL_AREA(#1729);
#1393=SURFACE_STYLE_FILL_AREA(#1730);
#1394=ORIENTED_EDGE('',*,*,#324,.T.);
#1395=ORIENTED_EDGE('',*,*,#212,.F.);
#1396=ORIENTED_EDGE('',*,*,#282,.T.);
#1397=ORIENTED_EDGE('',*,*,#276,.T.);
#1398=CARTESIAN_POINT('',(0.0,0.0,-52.45));
#1399=DIRECTION('',(0.0,-0.0,-1.0));
#1400=DIRECTION('',(0.0,1.0,0.0));
#1401=DIRECTION('',(0.0,1.0,0.0));
#1402=SURFACE_STYLE_FILL_AREA(#1731);
#1403=ORIENTED_EDGE('',*,*,#308,.F.);
#1404=ORIENTED_EDGE('',*,*,#276,.F.);
#1405=CARTESIAN_POINT('',(0.0,2.9974,-42.0));
#1406=DIRECTION('',(-0.0,0.0,1.0));
#1407=DIRECTION('',(0.0,-1.0,0.0));
#1408=DIRECTION('',(0.0,0.0,-1.0));
#1409=DIRECTION('',(0.0,1.0,0.0));
#1410=DIRECTION('',(0.0,1.0,0.0));
#1411=DIRECTION('',(0.0,1.0,0.0));
#1412=CARTESIAN_POINT('',(0.0,0.0,-30.2115112759038));
#1413=DIRECTION('',(0.0,-0.0,1.0));
#1414=DIRECTION('',(0.0,1.0,0.0));
#1415=CARTESIAN_POINT('',(0.0,0.0,-42.0));
#1416=DIRECTION('',(0.0,0.0,-1.0));
#1417=DIRECTION('',(0.0,1.0,0.0));
#1418=CARTESIAN_POINT('',(0.0,0.0,-62.9));
#1419=DIRECTION('',(0.0,0.0,-1.0));
#1420=DIRECTION('',(0.0,1.0,0.0));
#1421=SURFACE_STYLE_FILL_AREA(#1732);
#1422=ORIENTED_EDGE('',*,*,#424,.T.);
#1423=ORIENTED_EDGE('',*,*,#400,.T.);
#1424=CARTESIAN_POINT('',(0.0,1.45,-63.0));
#1425=DIRECTION('',(0.0,0.0,-1.0));
#1426=DIRECTION('',(0.0,1.0,0.0));
#1427=SURFACE_STYLE_FILL_AREA(#1733);
#1428=ORIENTED_EDGE('',*,*,#414,.F.);
#1429=ORIENTED_EDGE('',*,*,#304,.T.);
#1430=ORIENTED_EDGE('',*,*,#300,.T.);
#1431=CARTESIAN_POINT('',(0.0,0.0,-18.4));
#1432=DIRECTION('',(-0.0,-0.0,1.0));
#1433=DIRECTION('',(0.0,1.0,0.0));
#1434=SURFACE_STYLE_FILL_AREA(#1734);
#1435=ORIENTED_EDGE('',*,*,#300,.F.);
#1436=ORIENTED_EDGE('',*,*,#418,.F.);
#1437=ORIENTED_EDGE('',*,*,#366,.F.);
#1438=ORIENTED_EDGE('',*,*,#274,.T.);
#1439=ORIENTED_EDGE('',*,*,#268,.F.);
#1440=CARTESIAN_POINT('',(0.382078323112378,0.0,-30.9536374206519));
#1441=DIRECTION('',(-0.442195774284071,0.0,0.896918556617774));
#1442=DIRECTION('',(0.896918556617774,0.0,0.442195774284071));
#1443=DIRECTION('',(-0.0,-0.0,1.0));
#1444=DIRECTION('',(0.0,1.0,0.0));
#1445=DIRECTION('',(0.0,0.0,-1.0));
#1446=SURFACE_STYLE_FILL_AREA(#1735);
#1447=ORIENTED_EDGE('',*,*,#316,.F.);
#1448=ORIENTED_EDGE('',*,*,#272,.F.);
#1449=ORIENTED_EDGE('',*,*,#312,.F.);
#1450=ORIENTED_EDGE('',*,*,#200,.T.);
#1451=CARTESIAN_POINT('',(0.582364149245687,0.0,-30.8800141090597));
#1452=DIRECTION('',(-1.0,0.0,0.0));
#1453=DIRECTION('',(0.0,0.0,1.0));
#1454=SURFACE_STYLE_FILL_AREA(#1736);
#1455=ORIENTED_EDGE('',*,*,#234,.F.);
#1456=ORIENTED_EDGE('',*,*,#442,.F.);
#1457=ORIENTED_EDGE('',*,*,#386,.F.);
#1458=ORIENTED_EDGE('',*,*,#202,.T.);
#1459=CARTESIAN_POINT('',(0.891458520360564,0.0,-31.5268516898096));
#1460=DIRECTION('',(1.0,0.0,0.0));
#1461=DIRECTION('',(0.0,0.0,-1.0));
#1462=DIRECTION('',(0.0,1.0,0.0));
#1463=SURFACE_STYLE_FILL_AREA(#1737);
#1464=ORIENTED_EDGE('',*,*,#204,.F.);
#1465=ORIENTED_EDGE('',*,*,#178,.F.);
#1466=ORIENTED_EDGE('',*,*,#368,.F.);
#1467=ORIENTED_EDGE('',*,*,#240,.T.);
#1468=CARTESIAN_POINT('',(-0.374883079288044,0.0,-30.2115112759038));
#1469=DIRECTION('',(0.0,0.0,1.0));
#1470=DIRECTION('',(1.0,0.0,0.0));
#1471=SURFACE_STYLE_FILL_AREA(#1738);
#1472=ORIENTED_EDGE('',*,*,#192,.F.);
#1473=ORIENTED_EDGE('',*,*,#188,.F.);
#1474=ORIENTED_EDGE('',*,*,#178,.T.);
#1475=ORIENTED_EDGE('',*,*,#292,.F.);
#1476=CARTESIAN_POINT('',(0.10434918832557,0.0,-30.2145244349484));
#1477=DIRECTION('',(0.0,-1.0,-0.0));
#1478=DIRECTION('',(0.894321964023871,0.0,0.447423987582791));
#1479=CARTESIAN_POINT('',(0.0,0.0,-36.0));
#1480=DIRECTION('',(0.0,0.0,-1.0));
#1481=DIRECTION('',(0.0,1.0,0.0));
#1482=CARTESIAN_POINT('',(0.0,0.0,-31.1420083922181));
#1483=DIRECTION('',(-0.442195774284071,0.0,0.896918556617774));
#1484=DIRECTION('',(0.896918556617774,-0.0,0.442195774284071));
#1485=DIRECTION('',(0.0,1.0,0.0));
#1486=DIRECTION('',(0.0,1.0,0.0));
#1487=CARTESIAN_POINT('',(0.0,0.0,-42.0));
#1488=DIRECTION('',(0.0,0.0,-1.0));
#1489=DIRECTION('',(0.0,1.0,0.0));
#1490=DIRECTION('',(-5.85936054454997E-022,4.78468899517064E-006,0.999999999988553));
#1491=SURFACE_STYLE_FILL_AREA(#1739);
#1492=ORIENTED_EDGE('',*,*,#354,.T.);
#1493=ORIENTED_EDGE('',*,*,#340,.F.);
#1494=ORIENTED_EDGE('',*,*,#426,.T.);
#1495=ORIENTED_EDGE('',*,*,#420,.T.);
#1496=CARTESIAN_POINT('',(0.0,0.0,-0.399999999999999));
#1497=DIRECTION('',(0.0,-0.0,-1.0));
#1498=DIRECTION('',(0.0,1.0,0.0));
#1499=SURFACE_STYLE_FILL_AREA(#1740);
#1500=ORIENTED_EDGE('',*,*,#296,.T.);
#1501=ORIENTED_EDGE('',*,*,#424,.F.);
#1502=ORIENTED_EDGE('',*,*,#432,.T.);
#1503=ORIENTED_EDGE('',*,*,#302,.T.);
#1504=CARTESIAN_POINT('',(0.0,0.0,-62.9));
#1505=DIRECTION('',(0.0,0.0,-1.0));
#1506=DIRECTION('',(0.0,-1.0,0.0));
#1507=CARTESIAN_POINT('',(3.5513584260849E-016,-2.9,-62.9));
#1508=DIRECTION('',(1.0,1.22460635382238E-016,0.0));
#1509=DIRECTION('',(1.22460635382238E-016,-1.0,-0.0));
#1510=SURFACE_STYLE_FILL_AREA(#1741);
#1511=ORIENTED_EDGE('',*,*,#296,.F.);
#1512=ORIENTED_EDGE('',*,*,#212,.T.);
#1513=ORIENTED_EDGE('',*,*,#432,.F.);
#1514=ORIENTED_EDGE('',*,*,#400,.F.);
#1515=CARTESIAN_POINT('',(0.0,0.0,-62.9));
#1516=DIRECTION('',(0.0,0.0,-1.0));
#1517=DIRECTION('',(0.0,-1.0,0.0));
#1518=CARTESIAN_POINT('',(0.0,0.0,-31.1420083922181));
#1519=DIRECTION('',(-0.442195774284071,0.0,0.896918556617774));
#1520=DIRECTION('',(0.896918556617774,-0.0,0.442195774284071));
#1521=CARTESIAN_POINT('',(0.0,0.0,-62.9));
#1522=DIRECTION('',(0.0,0.0,-1.0));
#1523=DIRECTION('',(0.0,1.0,0.0));
#1524=CARTESIAN_POINT('',(0.0,0.0,-42.0));
#1525=DIRECTION('',(0.0,0.0,-1.0));
#1526=DIRECTION('',(0.0,1.0,0.0));
#1527=DIRECTION('',(-0.0,-0.0,1.0));
#1528=DIRECTION('',(0.0,0.0,-1.0));
#1529=SURFACE_STYLE_FILL_AREA(#1742);
#1530=ORIENTED_EDGE('',*,*,#192,.T.);
#1531=ORIENTED_EDGE('',*,*,#256,.F.);
#1532=ORIENTED_EDGE('',*,*,#278,.F.);
#1533=ORIENTED_EDGE('',*,*,#374,.F.);
#1534=ORIENTED_EDGE('',*,*,#330,.F.);
#1535=CARTESIAN_POINT('',(0.10434918832557,0.0,-30.2145244349484));
#1536=DIRECTION('',(0.0,-1.0,-0.0));
#1537=DIRECTION('',(0.894321964023871,0.0,0.447423987582791));
#1538=DIRECTION('',(-0.0,-0.0,1.0));
#1539=DIRECTION('',(-5.85936054454997E-022,4.78468899517064E-006,-0.999999999988553));
#1540=CARTESIAN_POINT('',(0.0,0.0,-36.0));
#1541=DIRECTION('',(0.0,0.0,-1.0));
#1542=DIRECTION('',(0.0,1.0,0.0));
#1543=SURFACE_STYLE_FILL_AREA(#1743);
#1544=ORIENTED_EDGE('',*,*,#190,.F.);
#1545=ORIENTED_EDGE('',*,*,#398,.T.);
#1546=ORIENTED_EDGE('',*,*,#320,.F.);
#1547=ORIENTED_EDGE('',*,*,#382,.F.);
#1548=ORIENTED_EDGE('',*,*,#358,.F.);
#1549=ORIENTED_EDGE('',*,*,#384,.T.);
#1550=ORIENTED_EDGE('',*,*,#342,.T.);
#1551=ORIENTED_EDGE('',*,*,#316,.T.);
#1552=ORIENTED_EDGE('',*,*,#194,.T.);
#1553=ORIENTED_EDGE('',*,*,#234,.T.);
#1554=ORIENTED_EDGE('',*,*,#232,.T.);
#1555=ORIENTED_EDGE('',*,*,#278,.T.);
#1556=CARTESIAN_POINT('',(0.0,0.0,-18.4));
#1557=DIRECTION('',(-0.0,-0.0,1.0));
#1558=DIRECTION('',(0.0,1.0,0.0));
#1559=DIRECTION('',(-0.0,-0.0,1.0));
#1560=CARTESIAN_POINT('',(0.0,0.0,-0.799999999999997));
#1561=DIRECTION('',(0.0,0.0,-1.0));
#1562=DIRECTION('',(0.0,1.0,0.0));
#1563=CARTESIAN_POINT('',(0.0,0.0,-32.5568053366801));
#1564=DIRECTION('',(0.944648353914092,0.0,-0.328084573619969));
#1565=DIRECTION('',(0.328084573619969,-0.0,0.944648353914092));
#1566=SURFACE_STYLE_FILL_AREA(#1744);
#1567=ORIENTED_EDGE('',*,*,#342,.F.);
#1568=ORIENTED_EDGE('',*,*,#254,.F.);
#1569=ORIENTED_EDGE('',*,*,#422,.F.);
#1570=ORIENTED_EDGE('',*,*,#272,.T.);
#1571=CARTESIAN_POINT('',(0.193398861644812,0.0,-31.999955271205));
#1572=DIRECTION('',(0.944648353914092,0.0,-0.328084573619969));
#1573=DIRECTION('',(-0.328084573619969,0.0,-0.944648353914092));
#1574=SURFACE_STYLE_FILL_AREA(#1745);
#1575=ORIENTED_EDGE('',*,*,#208,.T.);
#1576=ORIENTED_EDGE('',*,*,#436,.T.);
#1577=CARTESIAN_POINT('',(0.0,1.497475,-42.0));
#1578=DIRECTION('',(0.0,0.0,-1.0));
#1579=DIRECTION('',(0.0,1.0,0.0));
#1580=SURFACE_STYLE_FILL_AREA(#1746);
#1581=ORIENTED_EDGE('',*,*,#172,.F.);
#1582=ORIENTED_EDGE('',*,*,#240,.F.);
#1583=ORIENTED_EDGE('',*,*,#380,.F.);
#1584=ORIENTED_EDGE('',*,*,#418,.T.);
#1585=ORIENTED_EDGE('',*,*,#304,.F.);
#1586=CARTESIAN_POINT('',(0.0986368571573407,0.0,-30.2176309486082));
#1587=DIRECTION('',(-0.0,-1.0,-0.0));
#1588=DIRECTION('',(0.359378942416673,0.0,-0.933191714358563));
#1589=DIRECTION('',(-6.1230317691119E-017,0.500000000000001,-0.866025403784438));
#1590=DIRECTION('',(0.0,0.0,-1.0));
#1591=SURFACE_STYLE_FILL_AREA(#1747);
#1592=ORIENTED_EDGE('',*,*,#232,.F.);
#1593=ORIENTED_EDGE('',*,*,#202,.F.);
#1594=ORIENTED_EDGE('',*,*,#238,.F.);
#1595=ORIENTED_EDGE('',*,*,#374,.T.);
#1596=CARTESIAN_POINT('',(-0.01890797284893,0.0,-30.9351555304255));
#1597=DIRECTION('',(0.0,-1.0,-0.0));
#1598=DIRECTION('',(0.508265629957899,0.0,0.861200353810599));
#1599=CARTESIAN_POINT('',(0.0,0.0,-36.0));
#1600=DIRECTION('',(0.0,0.0,-1.0));
#1601=DIRECTION('',(0.0,1.0,0.0));
#1602=CARTESIAN_POINT('',(0.0,0.0,-31.1420083922181));
#1603=DIRECTION('',(0.442195774284071,0.0,-0.896918556617774));
#1604=DIRECTION('',(0.896918556617774,0.0,0.442195774284071));
#1605=CARTESIAN_POINT('',(0.0,0.0,-30.2115112759038));
#1606=DIRECTION('',(0.0,0.0,-1.0));
#1607=DIRECTION('',(1.0,0.0,0.0));
#1608=SURFACE_STYLE_FILL_AREA(#1748);
#1609=ORIENTED_EDGE('',*,*,#246,.T.);
#1610=ORIENTED_EDGE('',*,*,#436,.F.);
#1611=ORIENTED_EDGE('',*,*,#334,.T.);
#1612=ORIENTED_EDGE('',*,*,#326,.T.);
#1613=CARTESIAN_POINT('',(0.0,0.0,-39.0));
#1614=DIRECTION('',(-0.0,-0.0,1.0));
#1615=DIRECTION('',(0.0,1.0,0.0));
#1616=SURFACE_STYLE_FILL_AREA(#1749);
#1617=ORIENTED_EDGE('',*,*,#194,.F.);
#1618=ORIENTED_EDGE('',*,*,#200,.F.);
#1619=ORIENTED_EDGE('',*,*,#242,.F.);
#1620=ORIENTED_EDGE('',*,*,#442,.T.);
#1621=CARTESIAN_POINT('',(-0.0189079438268341,0.0,-30.9351560852514));
#1622=DIRECTION('',(-0.0,-1.0,-0.0));
#1623=DIRECTION('',(0.838461542890049,0.0,-0.544960770234371));
#1624=DIRECTION('',(0.0,1.0,0.0));
#1625=SURFACE_STYLE_FILL_AREA(#1750);
#1626=ORIENTED_EDGE('',*,*,#246,.F.);
#1627=ORIENTED_EDGE('',*,*,#364,.T.);
#1628=ORIENTED_EDGE('',*,*,#334,.F.);
#1629=ORIENTED_EDGE('',*,*,#208,.F.);
#1630=CARTESIAN_POINT('',(0.0,0.0,-39.0));
#1631=DIRECTION('',(-0.0,-0.0,1.0));
#1632=DIRECTION('',(0.0,1.0,0.0));
#1633=CARTESIAN_POINT('',(0.0,0.0,-36.0));
#1634=DIRECTION('',(0.0,0.0,-1.0));
#1635=DIRECTION('',(0.0,1.0,0.0));
#1636=DIRECTION('',(0.0,0.0,-1.0));
#1637=SURFACE_STYLE_FILL_AREA(#1751);
#1638=ORIENTED_EDGE('',*,*,#366,.T.);
#1639=ORIENTED_EDGE('',*,*,#380,.T.);
#1640=ORIENTED_EDGE('',*,*,#368,.T.);
#1641=ORIENTED_EDGE('',*,*,#188,.T.);
#1642=ORIENTED_EDGE('',*,*,#330,.T.);
#1643=ORIENTED_EDGE('',*,*,#238,.T.);
#1644=ORIENTED_EDGE('',*,*,#386,.T.);
#1645=ORIENTED_EDGE('',*,*,#242,.T.);
#1646=ORIENTED_EDGE('',*,*,#312,.T.);
#1647=ORIENTED_EDGE('',*,*,#422,.T.);
#1648=ORIENTED_EDGE('',*,*,#180,.T.);
#1649=CARTESIAN_POINT('',(0.0,0.0,-32.000050005));
#1650=DIRECTION('',(-0.0,-0.0,1.0));
#1651=DIRECTION('',(1.0,0.0,0.0));
#1652=CARTESIAN_POINT('',(0.0,0.0,-0.799999999999997));
#1653=DIRECTION('',(0.0,0.0,-1.0));
#1654=DIRECTION('',(0.0,1.0,0.0));
#1655=CARTESIAN_POINT('',(0.0,0.0,-63.0));
#1656=DIRECTION('',(0.0,0.0,-1.0));
#1657=DIRECTION('',(0.0,1.0,0.0));
#1658=SURFACE_STYLE_FILL_AREA(#1752);
#1659=CARTESIAN_POINT('',(0.0,0.0,0.0));
#1660=DIRECTION('',(0.0,0.0,-1.0));
#1661=DIRECTION('',(0.0,1.0,0.0));
#1662=SURFACE_STYLE_FILL_AREA(#1753);
#1663=ORIENTED_EDGE('',*,*,#354,.F.);
#1664=ORIENTED_EDGE('',*,*,#408,.T.);
#1665=ORIENTED_EDGE('',*,*,#426,.F.);
#1666=ORIENTED_EDGE('',*,*,#398,.F.);
#1667=CARTESIAN_POINT('',(0.0,0.0,-0.399999999999999));
#1668=DIRECTION('',(0.0,-0.0,-1.0));
#1669=DIRECTION('',(0.0,1.0,0.0));
#1670=SURFACE_STYLE_FILL_AREA(#1754);
#1671=ORIENTED_EDGE('',*,*,#428,.F.);
#1672=ORIENTED_EDGE('',*,*,#274,.F.);
#1673=ORIENTED_EDGE('',*,*,#180,.F.);
#1674=ORIENTED_EDGE('',*,*,#254,.T.);
#1675=ORIENTED_EDGE('',*,*,#384,.F.);
#1676=CARTESIAN_POINT('',(-0.0189077977936119,0.0,-30.9351562917621));
#1677=DIRECTION('',(-0.0,-1.0,-0.0));
#1678=DIRECTION('',(0.195537688821767,0.0,-0.980696187537324));
#1679=DIRECTION('',(0.0,0.0,-1.0));
#1680=SURFACE_STYLE_FILL_AREA(#1755);
#1681=ORIENTED_EDGE('',*,*,#408,.F.);
#1682=ORIENTED_EDGE('',*,*,#420,.F.);
#1683=CARTESIAN_POINT('',(0.0,1.26905989232415,0.0));
#1684=DIRECTION('',(-0.0,0.0,1.0));
#1685=DIRECTION('',(0.0,-1.0,0.0));
#1686=DIRECTION('',(0.0,1.0,0.0));
#1687=CARTESIAN_POINT('',(0.0,0.0,0.0));
#1688=DIRECTION('',(0.0,0.0,-1.0));
#1689=DIRECTION('',(0.0,1.0,0.0));
#1690=CARTESIAN_POINT('',(0.0,0.0,-32.5568053366801));
#1691=DIRECTION('',(-0.944648353914092,-0.0,0.328084573619969));
#1692=DIRECTION('',(0.328084573619969,0.0,0.944648353914092));
#1693=CARTESIAN_POINT('',(0.0,0.0,-63.0));
#1694=DIRECTION('',(0.0,0.0,-1.0));
#1695=DIRECTION('',(0.0,1.0,0.0));
#1696=DIRECTION('',(-6.1230317691119E-017,0.500000000000001,0.866025403784438));
#1697=CARTESIAN_POINT('',(-3.5513584260849E-016,2.9,-62.9));
#1698=DIRECTION('',(1.0,1.22460635382238E-016,0.0));
#1699=DIRECTION('',(-1.22460635382238E-016,1.0,0.0));
#1700=SURFACE_STYLE_FILL_AREA(#1756);
#1701=ORIENTED_EDGE('',*,*,#324,.F.);
#1702=ORIENTED_EDGE('',*,*,#308,.T.);
#1703=ORIENTED_EDGE('',*,*,#282,.F.);
#1704=ORIENTED_EDGE('',*,*,#302,.F.);
#1705=CARTESIAN_POINT('',(0.0,0.0,-52.45));
#1706=DIRECTION('',(0.0,-0.0,-1.0));
#1707=DIRECTION('',(0.0,1.0,0.0));
#1708=CARTESIAN_POINT('',(0.0,0.0,-42.0));
#1709=DIRECTION('',(0.0,0.0,-1.0));
#1710=DIRECTION('',(0.0,1.0,0.0));
#1711=SURFACE_STYLE_FILL_AREA(#1757);
#1712=ORIENTED_EDGE('',*,*,#190,.T.);
#1713=ORIENTED_EDGE('',*,*,#256,.T.);
#1714=ORIENTED_EDGE('',*,*,#292,.T.);
#1715=ORIENTED_EDGE('',*,*,#204,.T.);
#1716=ORIENTED_EDGE('',*,*,#172,.T.);
#1717=ORIENTED_EDGE('',*,*,#414,.T.);
#1718=ORIENTED_EDGE('',*,*,#268,.T.);
#1719=ORIENTED_EDGE('',*,*,#428,.T.);
#1720=ORIENTED_EDGE('',*,*,#358,.T.);
#1721=ORIENTED_EDGE('',*,*,#264,.F.);
#1722=ORIENTED_EDGE('',*,*,#320,.T.);
#1723=ORIENTED_EDGE('',*,*,#340,.T.);
#1724=CARTESIAN_POINT('',(0.0,0.0,-18.4));
#1725=DIRECTION('',(-0.0,-0.0,1.0));
#1726=DIRECTION('',(0.0,1.0,0.0));
#1727=DIRECTION('',(0.0,1.0,0.0));
#1728=FILL_AREA_STYLE('',(#1758));
#1729=FILL_AREA_STYLE('',(#1759));
#1730=FILL_AREA_STYLE('',(#1760));
#1731=FILL_AREA_STYLE('',(#1761));
#1732=FILL_AREA_STYLE('',(#1762));
#1733=FILL_AREA_STYLE('',(#1763));
#1734=FILL_AREA_STYLE('',(#1764));
#1735=FILL_AREA_STYLE('',(#1765));
#1736=FILL_AREA_STYLE('',(#1766));
#1737=FILL_AREA_STYLE('',(#1767));
#1738=FILL_AREA_STYLE('',(#1768));
#1739=FILL_AREA_STYLE('',(#1769));
#1740=FILL_AREA_STYLE('',(#1770));
#1741=FILL_AREA_STYLE('',(#1771));
#1742=FILL_AREA_STYLE('',(#1772));
#1743=FILL_AREA_STYLE('',(#1773));
#1744=FILL_AREA_STYLE('',(#1774));
#1745=FILL_AREA_STYLE('',(#1775));
#1746=FILL_AREA_STYLE('',(#1776));
#1747=FILL_AREA_STYLE('',(#1777));
#1748=FILL_AREA_STYLE('',(#1778));
#1749=FILL_AREA_STYLE('',(#1779));
#1750=FILL_AREA_STYLE('',(#1780));
#1751=FILL_AREA_STYLE('',(#1781));
#1752=FILL_AREA_STYLE('',(#1782));
#1753=FILL_AREA_STYLE('',(#1783));
#1754=FILL_AREA_STYLE('',(#1784));
#1755=FILL_AREA_STYLE('',(#1785));
#1756=FILL_AREA_STYLE('',(#1786));
#1757=FILL_AREA_STYLE('',(#1787));
#1758=FILL_AREA_STYLE_COLOUR('',#1788);
#1759=FILL_AREA_STYLE_COLOUR('',#1789);
#1760=FILL_AREA_STYLE_COLOUR('',#1790);
#1761=FILL_AREA_STYLE_COLOUR('',#1791);
#1762=FILL_AREA_STYLE_COLOUR('',#1792);
#1763=FILL_AREA_STYLE_COLOUR('',#1793);
#1764=FILL_AREA_STYLE_COLOUR('',#1794);
#1765=FILL_AREA_STYLE_COLOUR('',#1795);
#1766=FILL_AREA_STYLE_COLOUR('',#1796);
#1767=FILL_AREA_STYLE_COLOUR('',#1797);
#1768=FILL_AREA_STYLE_COLOUR('',#1798);
#1769=FILL_AREA_STYLE_COLOUR('',#1799);
#1770=FILL_AREA_STYLE_COLOUR('',#1800);
#1771=FILL_AREA_STYLE_COLOUR('',#1801);
#1772=FILL_AREA_STYLE_COLOUR('',#1802);
#1773=FILL_AREA_STYLE_COLOUR('',#1803);
#1774=FILL_AREA_STYLE_COLOUR('',#1804);
#1775=FILL_AREA_STYLE_COLOUR('',#1805);
#1776=FILL_AREA_STYLE_COLOUR('',#1806);
#1777=FILL_AREA_STYLE_COLOUR('',#1807);
#1778=FILL_AREA_STYLE_COLOUR('',#1808);
#1779=FILL_AREA_STYLE_COLOUR('',#1809);
#1780=FILL_AREA_STYLE_COLOUR('',#1810);
#1781=FILL_AREA_STYLE_COLOUR('',#1811);
#1782=FILL_AREA_STYLE_COLOUR('',#1812);
#1783=FILL_AREA_STYLE_COLOUR('',#1813);
#1784=FILL_AREA_STYLE_COLOUR('',#1814);
#1785=FILL_AREA_STYLE_COLOUR('',#1815);
#1786=FILL_AREA_STYLE_COLOUR('',#1816);
#1787=FILL_AREA_STYLE_COLOUR('',#1817);
#1788=COLOUR_RGB('',0.498039215803146,0.498039215803146,0.498039215803146);
#1789=COLOUR_RGB('',0.498039215803146,0.498039215803146,0.498039215803146);
#1790=COLOUR_RGB('',0.800000011920929,0.800000011920929,0.800000011920929);
#1791=COLOUR_RGB('',0.800000011920929,0.800000011920929,0.800000011920929);
#1792=COLOUR_RGB('',0.800000011920929,0.800000011920929,0.800000011920929);
#1793=COLOUR_RGB('',0.498039215803146,0.498039215803146,0.498039215803146);
#1794=COLOUR_RGB('',0.200000002980232,0.600000023841858,1.0);
#1795=COLOUR_RGB('',0.200000002980232,0.600000023841858,1.0);
#1796=COLOUR_RGB('',0.200000002980232,0.600000023841858,1.0);
#1797=COLOUR_RGB('',0.200000002980232,0.600000023841858,1.0);
#1798=COLOUR_RGB('',0.200000002980232,0.600000023841858,1.0);
#1799=COLOUR_RGB('',0.498039215803146,0.498039215803146,0.498039215803146);
#1800=COLOUR_RGB('',0.800000011920929,0.800000011920929,0.800000011920929);
#1801=COLOUR_RGB('',0.800000011920929,0.800000011920929,0.800000011920929);
#1802=COLOUR_RGB('',0.200000002980232,0.600000023841858,1.0);
#1803=COLOUR_RGB('',0.498039215803146,0.498039215803146,0.498039215803146);
#1804=COLOUR_RGB('',0.200000002980232,0.600000023841858,1.0);
#1805=COLOUR_RGB('',0.498039215803146,0.498039215803146,0.498039215803146);
#1806=COLOUR_RGB('',0.200000002980232,0.600000023841858,1.0);
#1807=COLOUR_RGB('',0.200000002980232,0.600000023841858,1.0);
#1808=COLOUR_RGB('',0.498039215803146,0.498039215803146,0.498039215803146);
#1809=COLOUR_RGB('',0.200000002980232,0.600000023841858,1.0);
#1810=COLOUR_RGB('',0.498039215803146,0.498039215803146,0.498039215803146);
#1811=COLOUR_RGB('',0.200000002980232,0.600000023841858,1.0);
#1812=COLOUR_RGB('',0.800000011920929,0.800000011920929,0.800000011920929);
#1813=COLOUR_RGB('',0.498039215803146,0.498039215803146,0.498039215803146);
#1814=COLOUR_RGB('',0.200000002980232,0.600000023841858,1.0);
#1815=COLOUR_RGB('',0.498039215803146,0.498039215803146,0.498039215803146);
#1816=COLOUR_RGB('',0.800000011920929,0.800000011920929,0.800000011920929);
#1817=COLOUR_RGB('',0.498039215803146,0.498039215803146,0.498039215803146);
#1818=AXIS2_PLACEMENT_3D('CIP',#1819,#1820,#1821);
#1819=CARTESIAN_POINT('',(0.0,0.0,-63.0));
#1820=DIRECTION('',(0.0,0.0,1.0));
#1821=DIRECTION('',(1.0,0.0,0.0));
#1822=AXIS2_PLACEMENT_3D('CRP',#1823,#1824,#1825);
#1823=CARTESIAN_POINT('',(-3.0,0.0,-63.0));
#1824=DIRECTION('',(0.0,0.0,1.0));
#1825=DIRECTION('',(1.0,0.0,0.0));
#1826=AXIS2_PLACEMENT_3D('MCS',#1827,#1828,#1829);
#1827=CARTESIAN_POINT('',(0.0,0.0,-36.0));
#1828=DIRECTION('',(0.0,0.0,1.0));
#1829=DIRECTION('',(1.0,0.0,0.0));
#1830=AXIS2_PLACEMENT_3D('PCS',#1831,#1832,#1833);
#1831=CARTESIAN_POINT('',(0.0,0.0,0.0));
#1832=DIRECTION('',(0.0,0.0,1.0));
#1833=DIRECTION('',(1.0,0.0,0.0));
#1834=CONSTRUCTIVE_GEOMETRY_REPRESENTATION_RELATIONSHIP('coordinate systems',$,#155,#1835);
#1835=CONSTRUCTIVE_GEOMETRY_REPRESENTATION('coordinate systems',(#1818,#1822,#1826,#1830),#10);
ENDSEC;
END-ISO-10303-21;
