ISO-10303-21;
HEADER;
FILE_DESCRIPTION(('no description'),'unknown implementation level');
FILE_NAME('solidYzZ9zriB8LgB4_j9xSOQA0GSqKI_1.STP','  ',('CIMSOURCE GmbH'),('CADClick - KiM GmbH - www.kimweb.de'),'unknown preprocess','ACIS','unknown authorization');
FILE_SCHEMA(('automotive_design'));
ENDSEC;
DATA;
#1=MECHANICAL_DESIGN_GEOMETRIC_PRESENTATION_REPRESENTATION(' ',(#14,#15,#16,#17,#18,#19,#20,#21,#22,#23,#24,#25,#26,#27,#28,#29,#30,#31,#32,#33,#34,#35,#36,#37,#38,#39,#40,#41,#42,#43,#44,#45,#46,#47,#48,#49,#50,#51,#52,#53,#54,#55,#56,#57,#58,#59,#60,#61,#62,#63,#64,#65,#66,#67,#68,#69,#70,#71,#72,#73,#74,#75,#76,#77,#78,#79,#80,#81,#82,#83,#84,#85,#86,#87,#88,#89,#90,#91,#92,#93,#94,#95,#96,#97,#98,#99,#100,#101,#102,#103,#104,#105,#106,#107,#108,#109,#110,#111,#112,#113,#114,#115,#116,#117,#118,#119,#120,#121,#122,#123,#124,#125,#126,#127,#128,#129,#130,#131,#132,#133,#134,#135,#136,#137,#138,#139,#140,#141,#142,#143,#144,#145,#146,#147,#148,#149),#10);
#2=PRODUCT_DEFINITION_CONTEXT('',#150,'design');
#3=APPLICATION_PROTOCOL_DEFINITION('INTERNATIONAL STANDARD','automotive_design',1994,#150);
#4=PRODUCT_CATEGORY_RELATIONSHIP('NONE','NONE',#151,#152);
#5=SHAPE_DEFINITION_REPRESENTATION(#153,#154);
#6=PRODUCT_DEFINITION_CONTEXT('',#155,'design');
#7=APPLICATION_PROTOCOL_DEFINITION('INTERNATIONAL STANDARD','automotive_design',1994,#155);
#8=PRODUCT_CATEGORY_RELATIONSHIP('NONE','NONE',#156,#157);
#9=SHAPE_DEFINITION_REPRESENTATION(#158,#159);
#10= (GEOMETRIC_REPRESENTATION_CONTEXT(3)GLOBAL_UNCERTAINTY_ASSIGNED_CONTEXT((#162))GLOBAL_UNIT_ASSIGNED_CONTEXT((#164,#165,#166))REPRESENTATION_CONTEXT('NONE','WORKSPACE'));
#14=STYLED_ITEM('',(#168),#169);
#15=STYLED_ITEM('',(#170),#171);
#16=STYLED_ITEM('',(#172),#173);
#17=STYLED_ITEM('',(#174),#175);
#18=STYLED_ITEM('',(#176),#177);
#19=STYLED_ITEM('',(#178),#179);
#20=STYLED_ITEM('',(#180),#181);
#21=STYLED_ITEM('',(#182),#183);
#22=STYLED_ITEM('',(#184),#185);
#23=STYLED_ITEM('',(#186),#187);
#24=STYLED_ITEM('',(#188),#189);
#25=STYLED_ITEM('',(#190),#191);
#26=STYLED_ITEM('',(#192),#193);
#27=STYLED_ITEM('',(#194),#195);
#28=STYLED_ITEM('',(#196),#197);
#29=STYLED_ITEM('',(#198),#199);
#30=STYLED_ITEM('',(#200),#201);
#31=STYLED_ITEM('',(#202),#203);
#32=STYLED_ITEM('',(#204),#205);
#33=STYLED_ITEM('',(#206),#207);
#34=STYLED_ITEM('',(#208),#209);
#35=STYLED_ITEM('',(#210),#211);
#36=STYLED_ITEM('',(#212),#213);
#37=STYLED_ITEM('',(#214),#215);
#38=STYLED_ITEM('',(#216),#217);
#39=STYLED_ITEM('',(#218),#219);
#40=STYLED_ITEM('',(#220),#221);
#41=STYLED_ITEM('',(#222),#223);
#42=STYLED_ITEM('',(#224),#225);
#43=STYLED_ITEM('',(#226),#227);
#44=STYLED_ITEM('',(#228),#229);
#45=STYLED_ITEM('',(#230),#231);
#46=STYLED_ITEM('',(#232),#233);
#47=STYLED_ITEM('',(#234),#235);
#48=STYLED_ITEM('',(#236),#237);
#49=STYLED_ITEM('',(#238),#239);
#50=STYLED_ITEM('',(#240),#241);
#51=STYLED_ITEM('',(#242),#243);
#52=STYLED_ITEM('',(#244),#245);
#53=STYLED_ITEM('',(#246),#247);
#54=STYLED_ITEM('',(#248),#249);
#55=STYLED_ITEM('',(#250),#251);
#56=STYLED_ITEM('',(#252),#253);
#57=STYLED_ITEM('',(#254),#255);
#58=STYLED_ITEM('',(#256),#257);
#59=STYLED_ITEM('',(#258),#259);
#60=STYLED_ITEM('',(#260),#261);
#61=STYLED_ITEM('',(#262),#263);
#62=STYLED_ITEM('',(#264),#265);
#63=STYLED_ITEM('',(#266),#267);
#64=STYLED_ITEM('',(#268),#269);
#65=STYLED_ITEM('',(#270),#271);
#66=STYLED_ITEM('',(#272),#273);
#67=STYLED_ITEM('',(#274),#275);
#68=STYLED_ITEM('',(#276),#277);
#69=STYLED_ITEM('',(#278),#279);
#70=STYLED_ITEM('',(#280),#281);
#71=STYLED_ITEM('',(#282),#283);
#72=STYLED_ITEM('',(#284),#285);
#73=STYLED_ITEM('',(#286),#287);
#74=STYLED_ITEM('',(#288),#289);
#75=STYLED_ITEM('',(#290),#291);
#76=STYLED_ITEM('',(#292),#293);
#77=STYLED_ITEM('',(#294),#295);
#78=STYLED_ITEM('',(#296),#297);
#79=STYLED_ITEM('',(#298),#299);
#80=STYLED_ITEM('',(#300),#301);
#81=STYLED_ITEM('',(#302),#303);
#82=STYLED_ITEM('',(#304),#305);
#83=STYLED_ITEM('',(#306),#307);
#84=STYLED_ITEM('',(#308),#309);
#85=STYLED_ITEM('',(#310),#311);
#86=STYLED_ITEM('',(#312),#313);
#87=STYLED_ITEM('',(#314),#315);
#88=STYLED_ITEM('',(#316),#317);
#89=STYLED_ITEM('',(#318),#319);
#90=STYLED_ITEM('',(#320),#321);
#91=STYLED_ITEM('',(#322),#323);
#92=STYLED_ITEM('',(#324),#325);
#93=STYLED_ITEM('',(#326),#327);
#94=STYLED_ITEM('',(#328),#329);
#95=STYLED_ITEM('',(#330),#331);
#96=STYLED_ITEM('',(#332),#333);
#97=STYLED_ITEM('',(#334),#335);
#98=STYLED_ITEM('',(#336),#337);
#99=STYLED_ITEM('',(#338),#339);
#100=STYLED_ITEM('',(#340),#341);
#101=STYLED_ITEM('',(#342),#343);
#102=STYLED_ITEM('',(#344),#345);
#103=STYLED_ITEM('',(#346),#347);
#104=STYLED_ITEM('',(#348),#349);
#105=STYLED_ITEM('',(#350),#351);
#106=STYLED_ITEM('',(#352),#353);
#107=STYLED_ITEM('',(#354),#355);
#108=STYLED_ITEM('',(#356),#357);
#109=STYLED_ITEM('',(#358),#359);
#110=STYLED_ITEM('',(#360),#361);
#111=STYLED_ITEM('',(#362),#363);
#112=STYLED_ITEM('',(#364),#365);
#113=STYLED_ITEM('',(#366),#367);
#114=STYLED_ITEM('',(#368),#369);
#115=STYLED_ITEM('',(#370),#371);
#116=STYLED_ITEM('',(#372),#373);
#117=STYLED_ITEM('',(#374),#375);
#118=STYLED_ITEM('',(#376),#377);
#119=STYLED_ITEM('',(#378),#379);
#120=STYLED_ITEM('',(#380),#381);
#121=STYLED_ITEM('',(#382),#383);
#122=STYLED_ITEM('',(#384),#385);
#123=STYLED_ITEM('',(#386),#387);
#124=STYLED_ITEM('',(#388),#389);
#125=STYLED_ITEM('',(#390),#391);
#126=STYLED_ITEM('',(#392),#393);
#127=STYLED_ITEM('',(#394),#395);
#128=STYLED_ITEM('',(#396),#397);
#129=STYLED_ITEM('',(#398),#399);
#130=STYLED_ITEM('',(#400),#401);
#131=STYLED_ITEM('',(#402),#403);
#132=STYLED_ITEM('',(#404),#405);
#133=STYLED_ITEM('',(#406),#407);
#134=STYLED_ITEM('',(#408),#409);
#135=STYLED_ITEM('',(#410),#411);
#136=STYLED_ITEM('',(#412),#413);
#137=STYLED_ITEM('',(#414),#415);
#138=STYLED_ITEM('',(#416),#417);
#139=STYLED_ITEM('',(#418),#419);
#140=STYLED_ITEM('',(#420),#421);
#141=STYLED_ITEM('',(#422),#423);
#142=STYLED_ITEM('',(#424),#425);
#143=STYLED_ITEM('',(#426),#427);
#144=STYLED_ITEM('',(#428),#429);
#145=STYLED_ITEM('',(#430),#431);
#146=STYLED_ITEM('',(#432),#433);
#147=STYLED_ITEM('',(#434),#435);
#148=STYLED_ITEM('',(#436),#437);
#149=STYLED_ITEM('',(#438),#439);
#150=APPLICATION_CONTEXT(' ');
#151=PRODUCT_CATEGORY('part','NONE');
#152=PRODUCT_RELATED_PRODUCT_CATEGORY('detail',' ',(#440));
#153=PRODUCT_DEFINITION_SHAPE('NONE','NONE',#441);
#154=ADVANCED_BREP_SHAPE_REPRESENTATION('NOCUT',(#303,#442),#10);
#155=APPLICATION_CONTEXT(' ');
#156=PRODUCT_CATEGORY('part','NONE');
#157=PRODUCT_RELATED_PRODUCT_CATEGORY('detail',' ',(#443));
#158=PRODUCT_DEFINITION_SHAPE('NONE','NONE',#444);
#159=ADVANCED_BREP_SHAPE_REPRESENTATION('CUT',(#405,#445),#10);
#162=UNCERTAINTY_MEASURE_WITH_UNIT(LENGTH_MEASURE(1.0E-006),#164,'','');
#164= (CONVERSION_BASED_UNIT('MILLIMETRE',#448)LENGTH_UNIT()NAMED_UNIT(#451));
#165= (NAMED_UNIT(#453)PLANE_ANGLE_UNIT()SI_UNIT($,.RADIAN.));
#166= (NAMED_UNIT(#453)SOLID_ANGLE_UNIT()SI_UNIT($,.STERADIAN.));
#168=PRESENTATION_STYLE_ASSIGNMENT((#459));
#169=ADVANCED_FACE('',(#460),#461,.F.);
#170=PRESENTATION_STYLE_ASSIGNMENT((#462));
#171=ADVANCED_FACE('',(#463),#464,.F.);
#172=PRESENTATION_STYLE_ASSIGNMENT((#465));
#173=VERTEX_POINT('',#466);
#174=PRESENTATION_STYLE_ASSIGNMENT((#467));
#175=EDGE_CURVE('',#415,#217,#468,.T.);
#176=PRESENTATION_STYLE_ASSIGNMENT((#469));
#177=VERTEX_POINT('',#470);
#178=PRESENTATION_STYLE_ASSIGNMENT((#471));
#179=VERTEX_POINT('',#472);
#180=PRESENTATION_STYLE_ASSIGNMENT((#473));
#181=ADVANCED_FACE('',(#474),#475,.F.);
#182=PRESENTATION_STYLE_ASSIGNMENT((#476));
#183=VERTEX_POINT('',#477);
#184=PRESENTATION_STYLE_ASSIGNMENT((#478));
#185=EDGE_CURVE('',#191,#387,#479,.T.);
#186=PRESENTATION_STYLE_ASSIGNMENT((#480));
#187=EDGE_CURVE('',#299,#173,#481,.T.);
#188=PRESENTATION_STYLE_ASSIGNMENT((#482));
#189=VERTEX_POINT('',#483);
#190=PRESENTATION_STYLE_ASSIGNMENT((#484));
#191=VERTEX_POINT('',#485);
#192=PRESENTATION_STYLE_ASSIGNMENT((#486));
#193=EDGE_CURVE('',#241,#301,#487,.T.);
#194=PRESENTATION_STYLE_ASSIGNMENT((#488));
#195=VERTEX_POINT('',#489);
#196=PRESENTATION_STYLE_ASSIGNMENT((#490));
#197=VERTEX_POINT('',#491);
#198=PRESENTATION_STYLE_ASSIGNMENT((#492));
#199=VERTEX_POINT('',#493);
#200=PRESENTATION_STYLE_ASSIGNMENT((#494));
#201=VERTEX_POINT('',#495);
#202=PRESENTATION_STYLE_ASSIGNMENT((#496));
#203=EDGE_CURVE('',#191,#381,#497,.T.);
#204=PRESENTATION_STYLE_ASSIGNMENT((#498));
#205=VERTEX_POINT('',#499);
#206=PRESENTATION_STYLE_ASSIGNMENT((#500));
#207=VERTEX_POINT('',#501);
#208=PRESENTATION_STYLE_ASSIGNMENT((#502));
#209=ADVANCED_FACE('',(#503),#504,.T.);
#210=PRESENTATION_STYLE_ASSIGNMENT((#505));
#211=EDGE_CURVE('',#355,#217,#506,.T.);
#212=PRESENTATION_STYLE_ASSIGNMENT((#507));
#213=ADVANCED_FACE('',(#508),#509,.T.);
#214=PRESENTATION_STYLE_ASSIGNMENT((#510));
#215=EDGE_CURVE('',#229,#253,#511,.T.);
#216=PRESENTATION_STYLE_ASSIGNMENT((#512));
#217=VERTEX_POINT('',#513);
#218=PRESENTATION_STYLE_ASSIGNMENT((#514));
#219=ADVANCED_FACE('',(#515),#516,.T.);
#220=PRESENTATION_STYLE_ASSIGNMENT((#517));
#221=EDGE_CURVE('',#253,#423,#518,.T.);
#222=PRESENTATION_STYLE_ASSIGNMENT((#519));
#223=EDGE_CURVE('',#337,#205,#520,.T.);
#224=PRESENTATION_STYLE_ASSIGNMENT((#521));
#225=VERTEX_POINT('',#522);
#226=PRESENTATION_STYLE_ASSIGNMENT((#523));
#227=EDGE_CURVE('',#371,#207,#524,.T.);
#228=PRESENTATION_STYLE_ASSIGNMENT((#525));
#229=VERTEX_POINT('',#526);
#230=PRESENTATION_STYLE_ASSIGNMENT((#527));
#231=VERTEX_POINT('',#528);
#232=PRESENTATION_STYLE_ASSIGNMENT((#529));
#233=VERTEX_POINT('',#530);
#234=PRESENTATION_STYLE_ASSIGNMENT((#531));
#235=EDGE_CURVE('',#371,#225,#532,.T.);
#236=PRESENTATION_STYLE_ASSIGNMENT((#533));
#237=ADVANCED_FACE('',(#534),#535,.T.);
#238=PRESENTATION_STYLE_ASSIGNMENT((#536));
#239=EDGE_CURVE('',#387,#199,#537,.T.);
#240=PRESENTATION_STYLE_ASSIGNMENT((#538));
#241=VERTEX_POINT('',#539);
#242=PRESENTATION_STYLE_ASSIGNMENT((#540));
#243=EDGE_CURVE('',#299,#189,#541,.T.);
#244=PRESENTATION_STYLE_ASSIGNMENT((#542));
#245=VERTEX_POINT('',#543);
#246=PRESENTATION_STYLE_ASSIGNMENT((#544));
#247=EDGE_CURVE('',#293,#353,#545,.T.);
#248=PRESENTATION_STYLE_ASSIGNMENT((#546));
#249=EDGE_CURVE('',#381,#183,#547,.T.);
#250=PRESENTATION_STYLE_ASSIGNMENT((#548));
#251=EDGE_CURVE('',#189,#291,#549,.T.);
#252=PRESENTATION_STYLE_ASSIGNMENT((#550));
#253=VERTEX_POINT('',#551);
#254=PRESENTATION_STYLE_ASSIGNMENT((#552));
#255=EDGE_CURVE('',#343,#231,#553,.T.);
#256=PRESENTATION_STYLE_ASSIGNMENT((#554));
#257=ADVANCED_FACE('',(#555),#556,.T.);
#258=PRESENTATION_STYLE_ASSIGNMENT((#557));
#259=ADVANCED_FACE('',(#558),#559,.T.);
#260=PRESENTATION_STYLE_ASSIGNMENT((#560));
#261=EDGE_CURVE('',#413,#191,#561,.T.);
#262=PRESENTATION_STYLE_ASSIGNMENT((#562));
#263=EDGE_CURVE('',#415,#177,#563,.T.);
#264=PRESENTATION_STYLE_ASSIGNMENT((#564));
#265=VERTEX_POINT('',#565);
#266=PRESENTATION_STYLE_ASSIGNMENT((#566));
#267=EDGE_CURVE('',#201,#335,#567,.T.);
#268=PRESENTATION_STYLE_ASSIGNMENT((#568));
#269=ADVANCED_FACE('',(#569),#570,.T.);
#270=PRESENTATION_STYLE_ASSIGNMENT((#571));
#271=EDGE_CURVE('',#293,#183,#572,.T.);
#272=PRESENTATION_STYLE_ASSIGNMENT((#573));
#273=EDGE_CURVE('',#395,#201,#574,.T.);
#274=PRESENTATION_STYLE_ASSIGNMENT((#575));
#275=EDGE_CURVE('',#233,#229,#576,.T.);
#276=PRESENTATION_STYLE_ASSIGNMENT((#577));
#277=ADVANCED_FACE('',(#578),#579,.T.);
#278=PRESENTATION_STYLE_ASSIGNMENT((#580));
#279=EDGE_CURVE('',#435,#355,#581,.T.);
#280=PRESENTATION_STYLE_ASSIGNMENT((#582));
#281=EDGE_CURVE('',#359,#265,#583,.T.);
#282=PRESENTATION_STYLE_ASSIGNMENT((#584));
#283=EDGE_CURVE('',#177,#343,#585,.T.);
#284=PRESENTATION_STYLE_ASSIGNMENT((#586));
#285=ADVANCED_FACE('',(#587),#588,.F.);
#286=PRESENTATION_STYLE_ASSIGNMENT((#589));
#287=ADVANCED_FACE('',(#590),#591,.T.);
#288=PRESENTATION_STYLE_ASSIGNMENT((#592));
#289=ADVANCED_FACE('',(#593),#594,.F.);
#290=PRESENTATION_STYLE_ASSIGNMENT((#595));
#291=VERTEX_POINT('',#596);
#292=PRESENTATION_STYLE_ASSIGNMENT((#597));
#293=VERTEX_POINT('',#598);
#294=PRESENTATION_STYLE_ASSIGNMENT((#599));
#295=EDGE_CURVE('',#423,#205,#600,.T.);
#296=PRESENTATION_STYLE_ASSIGNMENT((#601));
#297=ADVANCED_FACE('',(#602),#603,.T.);
#298=PRESENTATION_STYLE_ASSIGNMENT((#604));
#299=VERTEX_POINT('',#605);
#300=PRESENTATION_STYLE_ASSIGNMENT((#606));
#301=VERTEX_POINT('',#607);
#302=PRESENTATION_STYLE_ASSIGNMENT((#608));
#303=MANIFOLD_SOLID_BREP('NOCUT',#609);
#304=PRESENTATION_STYLE_ASSIGNMENT((#610));
#305=EDGE_CURVE('',#437,#381,#611,.T.);
#306=PRESENTATION_STYLE_ASSIGNMENT((#612));
#307=EDGE_CURVE('',#177,#435,#613,.T.);
#308=PRESENTATION_STYLE_ASSIGNMENT((#614));
#309=EDGE_CURVE('',#353,#437,#615,.T.);
#310=PRESENTATION_STYLE_ASSIGNMENT((#616));
#311=ADVANCED_FACE('',(#617),#618,.T.);
#312=PRESENTATION_STYLE_ASSIGNMENT((#619));
#313=ADVANCED_FACE('',(#620),#621,.F.);
#314=PRESENTATION_STYLE_ASSIGNMENT((#622));
#315=ADVANCED_FACE('',(#623),#624,.T.);
#316=PRESENTATION_STYLE_ASSIGNMENT((#625));
#317=EDGE_CURVE('',#205,#245,#626,.T.);
#318=PRESENTATION_STYLE_ASSIGNMENT((#627));
#319=EDGE_CURVE('',#401,#197,#628,.T.);
#320=PRESENTATION_STYLE_ASSIGNMENT((#629));
#321=EDGE_CURVE('',#199,#413,#630,.T.);
#322=PRESENTATION_STYLE_ASSIGNMENT((#631));
#323=EDGE_CURVE('',#337,#233,#632,.T.);
#324=PRESENTATION_STYLE_ASSIGNMENT((#633));
#325=ADVANCED_FACE('',(#634),#635,.T.);
#326=PRESENTATION_STYLE_ASSIGNMENT((#636));
#327=EDGE_CURVE('',#183,#231,#637,.T.);
#328=PRESENTATION_STYLE_ASSIGNMENT((#638));
#329=EDGE_CURVE('',#189,#197,#639,.T.);
#330=PRESENTATION_STYLE_ASSIGNMENT((#640));
#331=ADVANCED_FACE('',(#641),#642,.T.);
#332=PRESENTATION_STYLE_ASSIGNMENT((#643));
#333=EDGE_CURVE('',#335,#395,#644,.T.);
#334=PRESENTATION_STYLE_ASSIGNMENT((#645));
#335=VERTEX_POINT('',#646);
#336=PRESENTATION_STYLE_ASSIGNMENT((#647));
#337=VERTEX_POINT('',#648);
#338=PRESENTATION_STYLE_ASSIGNMENT((#649));
#339=EDGE_CURVE('',#207,#437,#650,.T.);
#340=PRESENTATION_STYLE_ASSIGNMENT((#651));
#341=ADVANCED_FACE('',(#652),#653,.T.);
#342=PRESENTATION_STYLE_ASSIGNMENT((#654));
#343=VERTEX_POINT('',#655);
#344=PRESENTATION_STYLE_ASSIGNMENT((#656));
#345=EDGE_CURVE('',#241,#415,#657,.T.);
#346=PRESENTATION_STYLE_ASSIGNMENT((#658));
#347=EDGE_CURVE('',#229,#241,#659,.T.);
#348=PRESENTATION_STYLE_ASSIGNMENT((#660));
#349=EDGE_CURVE('',#225,#245,#661,.T.);
#350=PRESENTATION_STYLE_ASSIGNMENT((#662));
#351=EDGE_CURVE('',#413,#199,#663,.T.);
#352=PRESENTATION_STYLE_ASSIGNMENT((#664));
#353=VERTEX_POINT('',#665);
#354=PRESENTATION_STYLE_ASSIGNMENT((#666));
#355=VERTEX_POINT('',#667);
#356=PRESENTATION_STYLE_ASSIGNMENT((#668));
#357=EDGE_CURVE('',#335,#201,#669,.T.);
#358=PRESENTATION_STYLE_ASSIGNMENT((#670));
#359=VERTEX_POINT('',#671);
#360=PRESENTATION_STYLE_ASSIGNMENT((#672));
#361=EDGE_CURVE('',#359,#335,#673,.T.);
#362=PRESENTATION_STYLE_ASSIGNMENT((#674));
#363=EDGE_CURVE('',#265,#359,#675,.T.);
#364=PRESENTATION_STYLE_ASSIGNMENT((#676));
#365=EDGE_CURVE('',#401,#291,#677,.T.);
#366=PRESENTATION_STYLE_ASSIGNMENT((#678));
#367=ADVANCED_FACE('',(#679),#680,.F.);
#368=PRESENTATION_STYLE_ASSIGNMENT((#681));
#369=EDGE_CURVE('',#201,#265,#682,.T.);
#370=PRESENTATION_STYLE_ASSIGNMENT((#683));
#371=VERTEX_POINT('',#684);
#372=PRESENTATION_STYLE_ASSIGNMENT((#685));
#373=EDGE_CURVE('',#387,#191,#686,.T.);
#374=PRESENTATION_STYLE_ASSIGNMENT((#687));
#375=EDGE_CURVE('',#173,#299,#688,.T.);
#376=PRESENTATION_STYLE_ASSIGNMENT((#689));
#377=EDGE_CURVE('',#355,#179,#690,.T.);
#378=PRESENTATION_STYLE_ASSIGNMENT((#691));
#379=EDGE_CURVE('',#343,#293,#692,.T.);
#380=PRESENTATION_STYLE_ASSIGNMENT((#693));
#381=VERTEX_POINT('',#694);
#382=PRESENTATION_STYLE_ASSIGNMENT((#695));
#383=EDGE_CURVE('',#353,#371,#696,.T.);
#384=PRESENTATION_STYLE_ASSIGNMENT((#697));
#385=EDGE_CURVE('',#231,#435,#698,.T.);
#386=PRESENTATION_STYLE_ASSIGNMENT((#699));
#387=VERTEX_POINT('',#700);
#388=PRESENTATION_STYLE_ASSIGNMENT((#701));
#389=ADVANCED_FACE('',(#702),#703,.T.);
#390=PRESENTATION_STYLE_ASSIGNMENT((#704));
#391=EDGE_CURVE('',#195,#253,#705,.T.);
#392=PRESENTATION_STYLE_ASSIGNMENT((#706));
#393=EDGE_CURVE('',#233,#423,#707,.T.);
#394=PRESENTATION_STYLE_ASSIGNMENT((#708));
#395=VERTEX_POINT('',#709);
#396=PRESENTATION_STYLE_ASSIGNMENT((#710));
#397=EDGE_CURVE('',#195,#401,#711,.T.);
#398=PRESENTATION_STYLE_ASSIGNMENT((#712));
#399=ADVANCED_FACE('',(#713),#714,.T.);
#400=PRESENTATION_STYLE_ASSIGNMENT((#715));
#401=VERTEX_POINT('',#716);
#402=PRESENTATION_STYLE_ASSIGNMENT((#717));
#403=EDGE_CURVE('',#197,#401,#718,.T.);
#404=PRESENTATION_STYLE_ASSIGNMENT((#719));
#405=MANIFOLD_SOLID_BREP('CUT',#720);
#406=PRESENTATION_STYLE_ASSIGNMENT((#721));
#407=ADVANCED_FACE('',(#722),#723,.F.);
#408=PRESENTATION_STYLE_ASSIGNMENT((#724));
#409=EDGE_CURVE('',#197,#387,#725,.T.);
#410=PRESENTATION_STYLE_ASSIGNMENT((#726));
#411=ADVANCED_FACE('',(#727),#728,.F.);
#412=PRESENTATION_STYLE_ASSIGNMENT((#729));
#413=VERTEX_POINT('',#730);
#414=PRESENTATION_STYLE_ASSIGNMENT((#731));
#415=VERTEX_POINT('',#732);
#416=PRESENTATION_STYLE_ASSIGNMENT((#733));
#417=EDGE_CURVE('',#225,#337,#734,.T.);
#418=PRESENTATION_STYLE_ASSIGNMENT((#735));
#419=EDGE_CURVE('',#291,#189,#736,.T.);
#420=PRESENTATION_STYLE_ASSIGNMENT((#737));
#421=ADVANCED_FACE('',(#738),#739,.T.);
#422=PRESENTATION_STYLE_ASSIGNMENT((#740));
#423=VERTEX_POINT('',#741);
#424=PRESENTATION_STYLE_ASSIGNMENT((#742));
#425=ADVANCED_FACE('',(#743),#744,.T.);
#426=PRESENTATION_STYLE_ASSIGNMENT((#745));
#427=EDGE_CURVE('',#291,#173,#746,.T.);
#428=PRESENTATION_STYLE_ASSIGNMENT((#747));
#429=EDGE_CURVE('',#245,#207,#748,.T.);
#430=PRESENTATION_STYLE_ASSIGNMENT((#749));
#431=EDGE_CURVE('',#301,#195,#750,.T.);
#432=PRESENTATION_STYLE_ASSIGNMENT((#751));
#433=EDGE_CURVE('',#217,#179,#752,.T.);
#434=PRESENTATION_STYLE_ASSIGNMENT((#753));
#435=VERTEX_POINT('',#754);
#436=PRESENTATION_STYLE_ASSIGNMENT((#755));
#437=VERTEX_POINT('',#756);
#438=PRESENTATION_STYLE_ASSIGNMENT((#757));
#439=EDGE_CURVE('',#179,#301,#758,.T.);
#440=PRODUCT('NOCUT','NOCUT','PART-NOCUT-DESC',(#759));
#441=PRODUCT_DEFINITION('NONE','NONE',#760,#2);
#442=AXIS2_PLACEMENT_3D('',#761,#762,#763);
#443=PRODUCT('CUT','CUT','PART-CUT-DESC',(#764));
#444=PRODUCT_DEFINITION('NONE','NONE',#765,#6);
#445=AXIS2_PLACEMENT_3D('',#766,#767,#768);
#448=LENGTH_MEASURE_WITH_UNIT(LENGTH_MEASURE(1.0),#769);
#451=DIMENSIONAL_EXPONENTS(1.0,0.0,0.0,0.0,0.0,0.0,0.0);
#453=DIMENSIONAL_EXPONENTS(0.0,0.0,0.0,0.0,0.0,0.0,0.0);
#459=SURFACE_STYLE_USAGE(.BOTH.,#770);
#460=FACE_OUTER_BOUND('',#771,.T.);
#461=PLANE('',#772);
#462=SURFACE_STYLE_USAGE(.BOTH.,#773);
#463=FACE_OUTER_BOUND('',#774,.T.);
#464=CYLINDRICAL_SURFACE('',#775,0.542888128511779);
#465=POINT_STYLE(' ',#776,POSITIVE_LENGTH_MEASURE(1.0E-006),#777);
#466=CARTESIAN_POINT('',(0.0,0.4995,-47.0));
#467=CURVE_STYLE('',#778,POSITIVE_LENGTH_MEASURE(1.0E-006),#779);
#468=LINE('',#780,#781);
#469=POINT_STYLE(' ',#782,POSITIVE_LENGTH_MEASURE(1.0E-006),#783);
#470=CARTESIAN_POINT('',(-0.345024467969599,1.35681911709052,-35.9057073995657));
#471=POINT_STYLE(' ',#784,POSITIVE_LENGTH_MEASURE(1.0E-006),#785);
#472=CARTESIAN_POINT('',(-5.40912442412622E-016,1.5,-36.3709637112193));
#473=SURFACE_STYLE_USAGE(.BOTH.,#786);
#474=FACE_OUTER_BOUND('',#787,.T.);
#475=PLANE('',#788);
#476=POINT_STYLE(' ',#789,POSITIVE_LENGTH_MEASURE(1.0E-006),#790);
#477=CARTESIAN_POINT('',(-0.162126314794348,1.49121261329537,-36.0144279161002));
#478=CURVE_STYLE('',#791,POSITIVE_LENGTH_MEASURE(1.0E-006),#792);
#479=CIRCLE('',#793,1.5);
#480=CURVE_STYLE('',#794,POSITIVE_LENGTH_MEASURE(1.0E-006),#795);
#481=CIRCLE('',#796,0.4995);
#482=POINT_STYLE(' ',#797,POSITIVE_LENGTH_MEASURE(1.0E-006),#798);
#483=CARTESIAN_POINT('',(6.11690873734277E-017,-0.4995,-42.5));
#484=POINT_STYLE(' ',#799,POSITIVE_LENGTH_MEASURE(1.0E-006),#800);
#485=CARTESIAN_POINT('',(0.0,1.5,-0.299999999999997));
#486=CURVE_STYLE('',#801,POSITIVE_LENGTH_MEASURE(1.0E-006),#802);
#487=LINE('',#803,#804);
#488=POINT_STYLE(' ',#805,POSITIVE_LENGTH_MEASURE(1.0E-006),#806);
#489=CARTESIAN_POINT('',(4.87776181656944E-016,1.5,-36.8103417867011));
#490=POINT_STYLE(' ',#807,POSITIVE_LENGTH_MEASURE(1.0E-006),#808);
#491=CARTESIAN_POINT('',(1.83690953073357E-016,-1.5,-38.8));
#492=POINT_STYLE(' ',#809,POSITIVE_LENGTH_MEASURE(1.0E-006),#810);
#493=CARTESIAN_POINT('',(1.46952762458685E-016,-1.2,0.0));
#494=POINT_STYLE(' ',#811,POSITIVE_LENGTH_MEASURE(1.0E-006),#812);
#495=CARTESIAN_POINT('',(0.5,6.12303176911189E-017,-76.79289322));
#496=CURVE_STYLE('',#813,POSITIVE_LENGTH_MEASURE(1.0E-006),#814);
#497=LINE('',#815,#816);
#498=POINT_STYLE(' ',#817,POSITIVE_LENGTH_MEASURE(1.0E-006),#818);
#499=CARTESIAN_POINT('',(0.291186927252985,1.4714653150506,-36.719578393051));
#500=POINT_STYLE(' ',#819,POSITIVE_LENGTH_MEASURE(1.0E-006),#820);
#501=CARTESIAN_POINT('',(0.445736688382193,1.43224257883575,-35.9716828121607));
#502=SURFACE_STYLE_USAGE(.BOTH.,#821);
#503=FACE_OUTER_BOUND('',#822,.T.);
#504=CONICAL_SURFACE('',#823,0.25,1.17809724712174);
#505=CURVE_STYLE('',#824,POSITIVE_LENGTH_MEASURE(1.0E-006),#825);
#506=B_SPLINE_CURVE_WITH_KNOTS('',3,(#826,#827,#828,#829,#830,#831,#832,#833,#834,#835,#836,#837,#838,#839),.UNSPECIFIED.,.F.,.F.,(4,2,2,2,2,2,4),(1.04556644553436,1.19481792676597,1.34406940799758,1.49332088922919,1.6421919361918,1.79106298315441,1.94096154109475),.UNSPECIFIED.);
#507=SURFACE_STYLE_USAGE(.BOTH.,#840);
#508=FACE_OUTER_BOUND('',#841,.T.);
#509=CONICAL_SURFACE('',#842,0.25,1.17809724712174);
#510=CURVE_STYLE('',#843,POSITIVE_LENGTH_MEASURE(1.0E-006),#844);
#511=LINE('',#845,#846);
#512=POINT_STYLE(' ',#847,POSITIVE_LENGTH_MEASURE(1.0E-006),#848);
#513=CARTESIAN_POINT('',(0.191042345276873,1.4877845349079,-36.2767766558089));
#514=SURFACE_STYLE_USAGE(.BOTH.,#849);
#515=FACE_OUTER_BOUND('',#850,.T.);
#516=CYLINDRICAL_SURFACE('',#851,0.4995);
#517=CURVE_STYLE('',#852,POSITIVE_LENGTH_MEASURE(1.0E-006),#853);
#518=ELLIPSE('',#854,4.57199186005466,1.5);
#519=CURVE_STYLE('',#855,POSITIVE_LENGTH_MEASURE(1.0E-006),#856);
#520=LINE('',#857,#858);
#521=POINT_STYLE(' ',#859,POSITIVE_LENGTH_MEASURE(1.0E-006),#860);
#522=CARTESIAN_POINT('',(0.445736688382193,1.32714686626239,-36.5633885667752));
#523=CURVE_STYLE('',#861,POSITIVE_LENGTH_MEASURE(1.0E-006),#862);
#524=LINE('',#863,#864);
#525=POINT_STYLE(' ',#865,POSITIVE_LENGTH_MEASURE(1.0E-006),#866);
#526=CARTESIAN_POINT('',(0.0967010423452768,1.39665633153233,-36.7999442996743));
#527=POINT_STYLE(' ',#867,POSITIVE_LENGTH_MEASURE(1.0E-006),#868);
#528=CARTESIAN_POINT('',(-0.187444663409338,1.48824208318383,-35.9057073995657));
#529=POINT_STYLE(' ',#869,POSITIVE_LENGTH_MEASURE(1.0E-006),#870);
#530=CARTESIAN_POINT('',(0.291186927252986,1.36938313608609,-36.2399643865364));
#531=CURVE_STYLE('',#871,POSITIVE_LENGTH_MEASURE(1.0E-006),#872);
#532=LINE('',#873,#874);
#533=SURFACE_STYLE_USAGE(.BOTH.,#875);
#534=FACE_OUTER_BOUND('',#876,.T.);
#535=CYLINDRICAL_SURFACE('',#877,0.239624863395969);
#536=CURVE_STYLE('',#878,POSITIVE_LENGTH_MEASURE(1.0E-006),#879);
#537=LINE('',#880,#881);
#538=POINT_STYLE(' ',#882,POSITIVE_LENGTH_MEASURE(1.0E-006),#883);
#539=CARTESIAN_POINT('',(-0.445684250814332,1.32716447683626,-36.5906934636265));
#540=CURVE_STYLE('',#884,POSITIVE_LENGTH_MEASURE(1.0E-006),#885);
#541=LINE('',#886,#887);
#542=POINT_STYLE(' ',#888,POSITIVE_LENGTH_MEASURE(1.0E-006),#889);
#543=CARTESIAN_POINT('',(0.445736688382193,1.43224257883575,-36.5633885667752));
#544=CURVE_STYLE('',#890,POSITIVE_LENGTH_MEASURE(1.0E-006),#891);
#545=B_SPLINE_CURVE_WITH_KNOTS('',3,(#892,#893,#894,#895,#896,#897,#898,#899,#900,#901,#902,#903,#904,#905,#906,#907,#908,#909,#910,#911,#912,#913,#914,#915,#916,#917,#918),.UNSPECIFIED.,.F.,.F.,(4,2,2,2,2,2,2,2,2,2,3,2,4),(-0.904760382276984,-0.814331794904365,-0.723903207531746,-0.633474620159131,-0.543046032786515,-0.452751158305848,-0.36245628382518,-0.271707992864221,-0.180959701903262,-0.0904798509516307,0.0,0.0905731045725073,0.181146209145015),.UNSPECIFIED.);
#546=CURVE_STYLE('',#919,POSITIVE_LENGTH_MEASURE(1.0E-006),#920);
#547=B_SPLINE_CURVE_WITH_KNOTS('',3,(#921,#922,#923,#924,#925,#926,#927,#928,#929,#930,#931,#932,#933,#934,#935,#936,#937,#938,#939,#940,#941,#942,#943,#944,#945,#946,#947),.UNSPECIFIED.,.F.,.F.,(4,2,3,2,2,2,2,2,2,2,2,2,4),(-0.180901966709094,-0.090450983354547,0.0,0.0904509833545436,0.180901966709087,0.271587051521942,0.362272136334797,0.452562970858867,0.542853805382937,0.633260931758076,0.723668058133215,0.814075184508358,0.9044823108835),.UNSPECIFIED.);
#548=CURVE_STYLE('',#948,POSITIVE_LENGTH_MEASURE(1.0E-006),#949);
#549=CIRCLE('',#950,0.4995);
#550=POINT_STYLE(' ',#951,POSITIVE_LENGTH_MEASURE(1.0E-006),#952);
#551=CARTESIAN_POINT('',(0.0967010423452768,1.49687972409587,-36.7999442996743));
#552=CURVE_STYLE('',#953,POSITIVE_LENGTH_MEASURE(1.0E-006),#954);
#553=LINE('',#955,#956);
#554=SURFACE_STYLE_USAGE(.BOTH.,#957);
#555=FACE_OUTER_BOUND('',#958,.T.);
#556=CYLINDRICAL_SURFACE('',#959,0.5);
#557=SURFACE_STYLE_USAGE(.BOTH.,#960);
#558=FACE_OUTER_BOUND('',#961,.T.);
#559=CONICAL_SURFACE('',#962,0.99975,0.264089655349623);
#560=CURVE_STYLE('',#963,POSITIVE_LENGTH_MEASURE(1.0E-006),#964);
#561=LINE('',#965,#966);
#562=CURVE_STYLE('',#967,POSITIVE_LENGTH_MEASURE(1.0E-006),#968);
#563=B_SPLINE_CURVE_WITH_KNOTS('',3,(#969,#970,#971,#972,#973,#974,#975,#976,#977,#978,#979,#980,#981,#982),.UNSPECIFIED.,.F.,.F.,(4,2,2,2,2,2,4),(0.449150673999554,0.599254881805795,0.7481741362147,0.897093390623605,1.04645297376853,1.19581255691345,1.34500018410037),.UNSPECIFIED.);
#564=POINT_STYLE(' ',#983,POSITIVE_LENGTH_MEASURE(1.0E-006),#984);
#565=CARTESIAN_POINT('',(0.5,6.12303176911189E-017,-47.0));
#566=CURVE_STYLE('',#985,POSITIVE_LENGTH_MEASURE(1.0E-006),#986);
#567=CIRCLE('',#987,0.5);
#568=SURFACE_STYLE_USAGE(.BOTH.,#988);
#569=FACE_OUTER_BOUND('',#989,.T.);
#570=CONICAL_SURFACE('',#990,0.99975,0.264089655349623);
#571=CURVE_STYLE('',#991,POSITIVE_LENGTH_MEASURE(1.0E-006),#992);
#572=LINE('',#993,#994);
#573=CURVE_STYLE('',#995,POSITIVE_LENGTH_MEASURE(1.0E-006),#996);
#574=LINE('',#997,#998);
#575=CURVE_STYLE('',#999,POSITIVE_LENGTH_MEASURE(1.0E-006),#1000);
#576=ELLIPSE('',#1001,4.26719240271768,1.4);
#577=SURFACE_STYLE_USAGE(.BOTH.,#1002);
#578=FACE_OUTER_BOUND('',#1003,.T.);
#579=CONICAL_SURFACE('',#1004,1.35,0.785398163397453);
#580=CURVE_STYLE('',#1005,POSITIVE_LENGTH_MEASURE(1.0E-006),#1006);
#581=B_SPLINE_CURVE_WITH_KNOTS('',3,(#1007,#1008,#1009,#1010,#1011,#1012,#1013,#1014,#1015,#1016,#1017,#1018,#1019,#1020),.UNSPECIFIED.,.F.,.F.,(4,2,2,2,2,2,4),(1.04556644553436,1.19481792676597,1.34406940799758,1.49332088922919,1.6421919361918,1.79106298315441,1.94096154109475),.UNSPECIFIED.);
#582=CURVE_STYLE('',#1021,POSITIVE_LENGTH_MEASURE(1.0E-006),#1022);
#583=CIRCLE('',#1023,0.5);
#584=CURVE_STYLE('',#1024,POSITIVE_LENGTH_MEASURE(1.0E-006),#1025);
#585=CIRCLE('',#1026,1.4);
#586=SURFACE_STYLE_USAGE(.BOTH.,#1027);
#587=FACE_OUTER_BOUND('',#1028,.T.);
#588=PLANE('',#1029);
#589=SURFACE_STYLE_USAGE(.BOTH.,#1030);
#590=FACE_OUTER_BOUND('',#1031,.T.);
#591=CYLINDRICAL_SURFACE('',#1032,0.239624863395969);
#592=SURFACE_STYLE_USAGE(.BOTH.,#1033);
#593=FACE_OUTER_BOUND('',#1034,.T.);
#594=CYLINDRICAL_SURFACE('',#1035,0.542888147146112);
#595=POINT_STYLE(' ',#1036,POSITIVE_LENGTH_MEASURE(1.0E-006),#1037);
#596=CARTESIAN_POINT('',(0.0,0.4995,-42.5));
#597=POINT_STYLE(' ',#1038,POSITIVE_LENGTH_MEASURE(1.0E-006),#1039);
#598=CARTESIAN_POINT('',(-0.16212631479435,1.39058083477776,-36.0144279161002));
#599=CURVE_STYLE('',#1040,POSITIVE_LENGTH_MEASURE(1.0E-006),#1041);
#600=LINE('',#1042,#1043);
#601=SURFACE_STYLE_USAGE(.BOTH.,#1044);
#602=FACE_OUTER_BOUND('',#1045,.T.);
#603=PLANE('',#1046);
#604=POINT_STYLE(' ',#1047,POSITIVE_LENGTH_MEASURE(1.0E-006),#1048);
#605=CARTESIAN_POINT('',(6.11690873734277E-017,-0.4995,-47.0));
#606=POINT_STYLE(' ',#1049,POSITIVE_LENGTH_MEASURE(1.0E-006),#1050);
#607=CARTESIAN_POINT('',(-0.445684250814332,1.43225889718866,-36.5906934636265));
#608=SURFACE_STYLE_USAGE(.BOTH.,#1051);
#609=CLOSED_SHELL('',(#219,#259,#315,#421,#331,#287,#181,#313,#169,#407,#171,#325,#367,#289,#237,#285,#411,#341,#277,#389,#269,#399,#311));
#610=CURVE_STYLE('',#1052,POSITIVE_LENGTH_MEASURE(1.0E-006),#1053);
#611=B_SPLINE_CURVE_WITH_KNOTS('',3,(#1054,#1055,#1056,#1057,#1058,#1059,#1060,#1061,#1062,#1063,#1064,#1065,#1066,#1067,#1068,#1069,#1070,#1071,#1072,#1073,#1074,#1075,#1076,#1077,#1078,#1079,#1080),.UNSPECIFIED.,.F.,.F.,(4,2,3,2,2,2,2,2,2,2,2,2,4),(-0.180901966709094,-0.090450983354547,0.0,0.0904509833545436,0.180901966709087,0.271587051521942,0.362272136334797,0.452562970858867,0.542853805382937,0.633260931758076,0.723668058133215,0.814075184508358,0.9044823108835),.UNSPECIFIED.);
#612=CURVE_STYLE('',#1081,POSITIVE_LENGTH_MEASURE(1.0E-006),#1082);
#613=LINE('',#1083,#1084);
#614=CURVE_STYLE('',#1085,POSITIVE_LENGTH_MEASURE(1.0E-006),#1086);
#615=LINE('',#1087,#1088);
#616=SURFACE_STYLE_USAGE(.BOTH.,#1089);
#617=FACE_OUTER_BOUND('',#1090,.T.);
#618=PLANE('',#1091);
#619=SURFACE_STYLE_USAGE(.BOTH.,#1092);
#620=FACE_OUTER_BOUND('',#1093,.T.);
#621=CYLINDRICAL_SURFACE('',#1094,0.542888173802104);
#622=SURFACE_STYLE_USAGE(.BOTH.,#1095);
#623=FACE_OUTER_BOUND('',#1096,.T.);
#624=CYLINDRICAL_SURFACE('',#1097,1.5);
#625=CURVE_STYLE('',#1098,POSITIVE_LENGTH_MEASURE(1.0E-006),#1099);
#626=B_SPLINE_CURVE_WITH_KNOTS('',3,(#1100,#1101,#1102,#1103,#1104,#1105),.UNSPECIFIED.,.F.,.F.,(4,2,4),(2.68530701780466,2.89159761751384,3.09817892816278),.UNSPECIFIED.);
#627=CURVE_STYLE('',#1106,POSITIVE_LENGTH_MEASURE(1.0E-006),#1107);
#628=CIRCLE('',#1108,1.5);
#629=CURVE_STYLE('',#1109,POSITIVE_LENGTH_MEASURE(1.0E-006),#1110);
#630=CIRCLE('',#1111,1.2);
#631=CURVE_STYLE('',#1112,POSITIVE_LENGTH_MEASURE(1.0E-006),#1113);
#632=LINE('',#1114,#1115);
#633=SURFACE_STYLE_USAGE(.BOTH.,#1116);
#634=FACE_OUTER_BOUND('',#1117,.T.);
#635=CYLINDRICAL_SURFACE('',#1118,1.4);
#636=CURVE_STYLE('',#1119,POSITIVE_LENGTH_MEASURE(1.0E-006),#1120);
#637=B_SPLINE_CURVE_WITH_KNOTS('',3,(#1121,#1122,#1123,#1124,#1125,#1126,#1127,#1128,#1129,#1130,#1131,#1132,#1133,#1134,#1135,#1136,#1137,#1138,#1139,#1140,#1141,#1142,#1143,#1144,#1145,#1146,#1147),.UNSPECIFIED.,.F.,.F.,(4,2,3,2,2,2,2,2,2,2,2,2,4),(-0.180901966709094,-0.090450983354547,0.0,0.0904509833545436,0.180901966709087,0.271587051521942,0.362272136334797,0.452562970858867,0.542853805382937,0.633260931758076,0.723668058133215,0.814075184508358,0.9044823108835),.UNSPECIFIED.);
#638=CURVE_STYLE('',#1148,POSITIVE_LENGTH_MEASURE(1.0E-006),#1149);
#639=LINE('',#1150,#1151);
#640=SURFACE_STYLE_USAGE(.BOTH.,#1152);
#641=FACE_OUTER_BOUND('',#1153,.T.);
#642=CONICAL_SURFACE('',#1154,1.35,0.785398163397453);
#643=CURVE_STYLE('',#1155,POSITIVE_LENGTH_MEASURE(1.0E-006),#1156);
#644=LINE('',#1157,#1158);
#645=POINT_STYLE(' ',#1159,POSITIVE_LENGTH_MEASURE(1.0E-006),#1160);
#646=CARTESIAN_POINT('',(-0.5,0.0,-76.79289322));
#647=POINT_STYLE(' ',#1161,POSITIVE_LENGTH_MEASURE(1.0E-006),#1162);
#648=CARTESIAN_POINT('',(0.291186927252985,1.36938313608609,-36.719578393051));
#649=CURVE_STYLE('',#1163,POSITIVE_LENGTH_MEASURE(1.0E-006),#1164);
#650=B_SPLINE_CURVE_WITH_KNOTS('',3,(#1165,#1166,#1167,#1168,#1169,#1170),.UNSPECIFIED.,.F.,.F.,(4,2,4),(0.206581317849577,0.413162635699153,0.619453242343408),.UNSPECIFIED.);
#651=SURFACE_STYLE_USAGE(.BOTH.,#1171);
#652=FACE_OUTER_BOUND('',#1172,.T.);
#653=PLANE('',#1173);
#654=POINT_STYLE(' ',#1174,POSITIVE_LENGTH_MEASURE(1.0E-006),#1175);
#655=CARTESIAN_POINT('',(-0.187444663409338,1.38739486021801,-35.9057073995657));
#656=CURVE_STYLE('',#1176,POSITIVE_LENGTH_MEASURE(1.0E-006),#1177);
#657=ELLIPSE('',#1178,1.56089980486,1.4);
#658=CURVE_STYLE('',#1179,POSITIVE_LENGTH_MEASURE(1.0E-006),#1180);
#659=B_SPLINE_CURVE_WITH_KNOTS('',3,(#1181,#1182,#1183,#1184,#1185,#1186,#1187,#1188,#1189,#1190),.UNSPECIFIED.,.F.,.F.,(4,2,2,2,4),(0.620415869735466,0.826981332916279,1.03398970786774,1.24099808281921,1.44800214325881),.UNSPECIFIED.);
#660=CURVE_STYLE('',#1191,POSITIVE_LENGTH_MEASURE(1.0E-006),#1192);
#661=LINE('',#1193,#1194);
#662=CURVE_STYLE('',#1195,POSITIVE_LENGTH_MEASURE(1.0E-006),#1196);
#663=CIRCLE('',#1197,1.2);
#664=POINT_STYLE(' ',#1198,POSITIVE_LENGTH_MEASURE(1.0E-006),#1199);
#665=CARTESIAN_POINT('',(0.266477242128121,1.37440528208669,-35.800000092291));
#666=POINT_STYLE(' ',#1200,POSITIVE_LENGTH_MEASURE(1.0E-006),#1201);
#667=CARTESIAN_POINT('',(-5.58129510601172E-012,1.5,-36.3000267183946));
#668=CURVE_STYLE('',#1202,POSITIVE_LENGTH_MEASURE(1.0E-006),#1203);
#669=CIRCLE('',#1204,0.5);
#670=POINT_STYLE(' ',#1205,POSITIVE_LENGTH_MEASURE(1.0E-006),#1206);
#671=CARTESIAN_POINT('',(-0.5,0.0,-47.0));
#672=CURVE_STYLE('',#1207,POSITIVE_LENGTH_MEASURE(1.0E-006),#1208);
#673=LINE('',#1209,#1210);
#674=CURVE_STYLE('',#1211,POSITIVE_LENGTH_MEASURE(1.0E-006),#1212);
#675=CIRCLE('',#1213,0.5);
#676=CURVE_STYLE('',#1214,POSITIVE_LENGTH_MEASURE(1.0E-006),#1215);
#677=LINE('',#1216,#1217);
#678=SURFACE_STYLE_USAGE(.BOTH.,#1218);
#679=FACE_OUTER_BOUND('',#1219,.T.);
#680=PLANE('',#1220);
#681=CURVE_STYLE('',#1221,POSITIVE_LENGTH_MEASURE(1.0E-006),#1222);
#682=LINE('',#1223,#1224);
#683=POINT_STYLE(' ',#1225,POSITIVE_LENGTH_MEASURE(1.0E-006),#1226);
#684=CARTESIAN_POINT('',(0.445736688382193,1.32714686626239,-35.9716828121607));
#685=CURVE_STYLE('',#1227,POSITIVE_LENGTH_MEASURE(1.0E-006),#1228);
#686=CIRCLE('',#1229,1.5);
#687=CURVE_STYLE('',#1230,POSITIVE_LENGTH_MEASURE(1.0E-006),#1231);
#688=CIRCLE('',#1232,0.4995);
#689=CURVE_STYLE('',#1233,POSITIVE_LENGTH_MEASURE(1.0E-006),#1234);
#690=LINE('',#1235,#1236);
#691=CURVE_STYLE('',#1237,POSITIVE_LENGTH_MEASURE(1.0E-006),#1238);
#692=B_SPLINE_CURVE_WITH_KNOTS('',3,(#1239,#1240,#1241,#1242,#1243,#1244,#1245,#1246,#1247,#1248,#1249,#1250,#1251,#1252,#1253,#1254,#1255,#1256,#1257,#1258,#1259,#1260,#1261,#1262,#1263,#1264,#1265),.UNSPECIFIED.,.F.,.F.,(4,2,2,2,2,2,2,2,2,2,3,2,4),(-0.904760382276984,-0.814331794904365,-0.723903207531746,-0.633474620159131,-0.543046032786515,-0.452751158305848,-0.36245628382518,-0.271707992864221,-0.180959701903262,-0.0904798509516307,0.0,0.0905731045725073,0.181146209145015),.UNSPECIFIED.);
#693=POINT_STYLE(' ',#1266,POSITIVE_LENGTH_MEASURE(1.0E-006),#1267);
#694=CARTESIAN_POINT('',(2.05801952275322E-011,1.5,-36.141089603934));
#695=CURVE_STYLE('',#1268,POSITIVE_LENGTH_MEASURE(1.0E-006),#1269);
#696=B_SPLINE_CURVE_WITH_KNOTS('',3,(#1270,#1271,#1272,#1273,#1274,#1275),.UNSPECIFIED.,.F.,.F.,(4,2,4),(2.68959631217717,2.89616176304829,3.10308695553747),.UNSPECIFIED.);
#697=CURVE_STYLE('',#1276,POSITIVE_LENGTH_MEASURE(1.0E-006),#1277);
#698=CIRCLE('',#1278,1.5);
#699=POINT_STYLE(' ',#1279,POSITIVE_LENGTH_MEASURE(1.0E-006),#1280);
#700=CARTESIAN_POINT('',(1.83690953073357E-016,-1.5,-0.299999999999997));
#701=SURFACE_STYLE_USAGE(.BOTH.,#1281);
#702=FACE_OUTER_BOUND('',#1282,.T.);
#703=CYLINDRICAL_SURFACE('',#1283,1.5);
#704=CURVE_STYLE('',#1284,POSITIVE_LENGTH_MEASURE(1.0E-006),#1285);
#705=B_SPLINE_CURVE_WITH_KNOTS('',3,(#1286,#1287,#1288,#1289,#1290,#1291,#1292,#1293,#1294,#1295),.UNSPECIFIED.,.F.,.F.,(4,2,2,2,4),(1.85902529823815,2.06567030714979,2.27234349574444,2.47901668433909,2.68530730298492),.UNSPECIFIED.);
#706=CURVE_STYLE('',#1296,POSITIVE_LENGTH_MEASURE(1.0E-006),#1297);
#707=LINE('',#1298,#1299);
#708=POINT_STYLE(' ',#1300,POSITIVE_LENGTH_MEASURE(1.0E-006),#1301);
#709=CARTESIAN_POINT('',(0.0,0.0,-77.0));
#710=CURVE_STYLE('',#1302,POSITIVE_LENGTH_MEASURE(1.0E-006),#1303);
#711=LINE('',#1304,#1305);
#712=SURFACE_STYLE_USAGE(.BOTH.,#1306);
#713=FACE_OUTER_BOUND('',#1307,.T.);
#714=CYLINDRICAL_SURFACE('',#1308,0.4995);
#715=POINT_STYLE(' ',#1309,POSITIVE_LENGTH_MEASURE(1.0E-006),#1310);
#716=CARTESIAN_POINT('',(0.0,1.5,-38.8));
#717=CURVE_STYLE('',#1311,POSITIVE_LENGTH_MEASURE(1.0E-006),#1312);
#718=CIRCLE('',#1313,1.5);
#719=SURFACE_STYLE_USAGE(.BOTH.,#1314);
#720=CLOSED_SHELL('',(#209,#425,#297,#257,#213));
#721=SURFACE_STYLE_USAGE(.BOTH.,#1315);
#722=FACE_OUTER_BOUND('',#1316,.T.);
#723=PLANE('',#1317);
#724=CURVE_STYLE('',#1318,POSITIVE_LENGTH_MEASURE(1.0E-006),#1319);
#725=LINE('',#1320,#1321);
#726=SURFACE_STYLE_USAGE(.BOTH.,#1322);
#727=FACE_OUTER_BOUND('',#1323,.T.);
#728=CYLINDRICAL_SURFACE('',#1324,0.394355589784601);
#729=POINT_STYLE(' ',#1325,POSITIVE_LENGTH_MEASURE(1.0E-006),#1326);
#730=CARTESIAN_POINT('',(0.0,1.2,0.0));
#731=POINT_STYLE(' ',#1327,POSITIVE_LENGTH_MEASURE(1.0E-006),#1328);
#732=CARTESIAN_POINT('',(0.191042345276873,1.38690404221457,-36.2767766558089));
#733=CURVE_STYLE('',#1329,POSITIVE_LENGTH_MEASURE(1.0E-006),#1330);
#734=B_SPLINE_CURVE_WITH_KNOTS('',3,(#1331,#1332,#1333,#1334,#1335,#1336),.UNSPECIFIED.,.F.,.F.,(4,2,4),(0.206925185259038,0.413850370518076,0.620415814467366),.UNSPECIFIED.);
#735=CURVE_STYLE('',#1337,POSITIVE_LENGTH_MEASURE(1.0E-006),#1338);
#736=CIRCLE('',#1339,0.4995);
#737=SURFACE_STYLE_USAGE(.BOTH.,#1340);
#738=FACE_OUTER_BOUND('',#1341,.T.);
#739=CYLINDRICAL_SURFACE('',#1342,1.5);
#740=POINT_STYLE(' ',#1343,POSITIVE_LENGTH_MEASURE(1.0E-006),#1344);
#741=CARTESIAN_POINT('',(0.291186927252986,1.4714653150506,-36.2399643865364));
#742=SURFACE_STYLE_USAGE(.BOTH.,#1345);
#743=FACE_OUTER_BOUND('',#1346,.T.);
#744=CYLINDRICAL_SURFACE('',#1347,0.5);
#745=CURVE_STYLE('',#1348,POSITIVE_LENGTH_MEASURE(1.0E-006),#1349);
#746=LINE('',#1350,#1351);
#747=CURVE_STYLE('',#1352,POSITIVE_LENGTH_MEASURE(1.0E-006),#1353);
#748=LINE('',#1354,#1355);
#749=CURVE_STYLE('',#1356,POSITIVE_LENGTH_MEASURE(1.0E-006),#1357);
#750=B_SPLINE_CURVE_WITH_KNOTS('',3,(#1358,#1359,#1360,#1361,#1362,#1363,#1364,#1365,#1366,#1367),.UNSPECIFIED.,.F.,.F.,(4,2,2,2,4),(1.85902529823815,2.06567030714979,2.27234349574444,2.47901668433909,2.68530730298492),.UNSPECIFIED.);
#751=CURVE_STYLE('',#1368,POSITIVE_LENGTH_MEASURE(1.0E-006),#1369);
#752=ELLIPSE('',#1370,1.67239264806429,1.5);
#753=POINT_STYLE(' ',#1371,POSITIVE_LENGTH_MEASURE(1.0E-006),#1372);
#754=CARTESIAN_POINT('',(-0.345024467969599,1.45978016033316,-35.9057073995657));
#755=POINT_STYLE(' ',#1373,POSITIVE_LENGTH_MEASURE(1.0E-006),#1374);
#756=CARTESIAN_POINT('',(0.266477242128121,1.47614019639999,-35.800000092291));
#757=CURVE_STYLE('',#1375,POSITIVE_LENGTH_MEASURE(1.0E-006),#1376);
#758=ELLIPSE('',#1377,1.67239264806429,1.5);
#759=PRODUCT_CONTEXT('',#150,'mechanical');
#760=PRODUCT_DEFINITION_FORMATION_WITH_SPECIFIED_SOURCE(' ','NONE',#440,.NOT_KNOWN.);
#761=CARTESIAN_POINT('',(0.0,0.0,0.0));
#762=DIRECTION('',(0.0,0.0,1.0));
#763=DIRECTION('',(1.0,0.0,0.0));
#764=PRODUCT_CONTEXT('',#155,'mechanical');
#765=PRODUCT_DEFINITION_FORMATION_WITH_SPECIFIED_SOURCE(' ','NONE',#443,.NOT_KNOWN.);
#766=CARTESIAN_POINT('',(0.0,0.0,0.0));
#767=DIRECTION('',(0.0,0.0,1.0));
#768=DIRECTION('',(1.0,0.0,0.0));
#769= (NAMED_UNIT(#451)LENGTH_UNIT()SI_UNIT(.MILLI.,.METRE.));
#770=SURFACE_SIDE_STYLE('',(#1379));
#771=EDGE_LOOP('',(#1380,#1381,#1382,#1383));
#772=AXIS2_PLACEMENT_3D('',#1384,#1385,#1386);
#773=SURFACE_SIDE_STYLE('',(#1387));
#774=EDGE_LOOP('',(#1388,#1389,#1390,#1391));
#775=AXIS2_PLACEMENT_3D('',#1392,#1393,#1394);
#776=PRE_DEFINED_MARKER('');
#777=COLOUR_RGB('',0.498039215803146,0.498039215803146,0.498039215803146);
#778=DRAUGHTING_PRE_DEFINED_CURVE_FONT('continuous');
#779=COLOUR_RGB('',0.200000002980232,0.600000023841858,1.0);
#780=CARTESIAN_POINT('',(0.191042345276873,0.0,-36.2767766558089));
#781=VECTOR('',#1395,1.0);
#782=PRE_DEFINED_MARKER('');
#783=COLOUR_RGB('',0.200000002980232,0.600000023841858,1.0);
#784=PRE_DEFINED_MARKER('');
#785=COLOUR_RGB('',0.498039215803146,0.498039215803146,0.498039215803146);
#786=SURFACE_SIDE_STYLE('',(#1396));
#787=EDGE_LOOP('',(#1397,#1398,#1399,#1400,#1401));
#788=AXIS2_PLACEMENT_3D('',#1402,#1403,#1404);
#789=PRE_DEFINED_MARKER('');
#790=COLOUR_RGB('',0.498039215803146,0.498039215803146,0.498039215803146);
#791=DRAUGHTING_PRE_DEFINED_CURVE_FONT('continuous');
#792=COLOUR_RGB('',0.498039215803146,0.498039215803146,0.498039215803146);
#793=AXIS2_PLACEMENT_3D('',#1405,#1406,#1407);
#794=DRAUGHTING_PRE_DEFINED_CURVE_FONT('continuous');
#795=COLOUR_RGB('',0.498039215803146,0.498039215803146,0.498039215803146);
#796=AXIS2_PLACEMENT_3D('',#1408,#1409,#1410);
#797=PRE_DEFINED_MARKER('');
#798=COLOUR_RGB('',0.498039215803146,0.498039215803146,0.498039215803146);
#799=PRE_DEFINED_MARKER('');
#800=COLOUR_RGB('',0.498039215803146,0.498039215803146,0.498039215803146);
#801=DRAUGHTING_PRE_DEFINED_CURVE_FONT('continuous');
#802=COLOUR_RGB('',0.200000002980232,0.600000023841858,1.0);
#803=CARTESIAN_POINT('',(-0.445684250814332,0.0,-36.5906934636265));
#804=VECTOR('',#1411,1.0);
#805=PRE_DEFINED_MARKER('');
#806=COLOUR_RGB('',0.498039215803146,0.498039215803146,0.498039215803146);
#807=PRE_DEFINED_MARKER('');
#808=COLOUR_RGB('',0.498039215803146,0.498039215803146,0.498039215803146);
#809=PRE_DEFINED_MARKER('');
#810=COLOUR_RGB('',0.498039215803146,0.498039215803146,0.498039215803146);
#811=PRE_DEFINED_MARKER('');
#812=COLOUR_RGB('',0.800000011920929,0.800000011920929,0.800000011920929);
#813=DRAUGHTING_PRE_DEFINED_CURVE_FONT('continuous');
#814=COLOUR_RGB('',0.498039215803146,0.498039215803146,0.498039215803146);
#815=CARTESIAN_POINT('',(-1.83690953073357E-016,1.5,-19.5));
#816=VECTOR('',#1412,1.0);
#817=PRE_DEFINED_MARKER('');
#818=COLOUR_RGB('',0.498039215803146,0.498039215803146,0.498039215803146);
#819=PRE_DEFINED_MARKER('');
#820=COLOUR_RGB('',0.498039215803146,0.498039215803146,0.498039215803146);
#821=SURFACE_SIDE_STYLE('',(#1413));
#822=EDGE_LOOP('',(#1414,#1415,#1416));
#823=AXIS2_PLACEMENT_3D('',#1417,#1418,#1419);
#824=DRAUGHTING_PRE_DEFINED_CURVE_FONT('continuous');
#825=COLOUR_RGB('',0.498039215803146,0.498039215803146,0.498039215803146);
#826=CARTESIAN_POINT('',(-0.314868906269419,1.46658023028565,-35.7574949574024));
#827=CARTESIAN_POINT('',(-0.335050458532666,1.46224733367956,-35.8060820694257));
#828=CARTESIAN_POINT('',(-0.345036339300622,1.45977735444897,-35.8590167931671));
#829=CARTESIAN_POINT('',(-0.345036339300621,1.45977735444897,-35.9585177806548));
#830=CARTESIAN_POINT('',(-0.335050458532666,1.46224733367956,-36.0114525043962));
#831=CARTESIAN_POINT('',(-0.294687354006183,1.47091312689174,-36.1086267284426));
#832=CARTESIAN_POINT('',(-0.264319381944401,1.47695271033967,-36.1528839400996));
#833=CARTESIAN_POINT('',(-0.194416198846918,1.48776678314766,-36.2226824192427));
#834=CARTESIAN_POINT('',(-0.150190002765001,1.49325454353536,-36.2529651939691));
#835=CARTESIAN_POINT('',(-0.0531271239485839,1.49984788471278,-36.2931900793177));
#836=CARTESIAN_POINT('',(-0.000277601456355456,1.50082058647412,-36.3031228766955));
#837=CARTESIAN_POINT('',(0.0992584208997275,1.49754612136718,-36.3031228766955));
#838=CARTESIAN_POINT('',(0.152267005818255,1.49305636381024,-36.2930669468251));
#839=CARTESIAN_POINT('',(0.200841428620677,1.48649343104825,-36.2728515638676));
#840=SURFACE_SIDE_STYLE('',(#1420));
#841=EDGE_LOOP('',(#1421,#1422,#1423));
#842=AXIS2_PLACEMENT_3D('',#1424,#1425,#1426);
#843=DRAUGHTING_PRE_DEFINED_CURVE_FONT('continuous');
#844=COLOUR_RGB('',0.200000002980232,0.600000023841858,1.0);
#845=CARTESIAN_POINT('',(0.0967010423452768,0.0,-36.7999442996743));
#846=VECTOR('',#1427,1.0);
#847=PRE_DEFINED_MARKER('');
#848=COLOUR_RGB('',0.498039215803146,0.498039215803146,0.498039215803146);
#849=SURFACE_SIDE_STYLE('',(#1428));
#850=EDGE_LOOP('',(#1429,#1430,#1431,#1432));
#851=AXIS2_PLACEMENT_3D('',#1433,#1434,#1435);
#852=DRAUGHTING_PRE_DEFINED_CURVE_FONT('continuous');
#853=COLOUR_RGB('',0.498039215803146,0.498039215803146,0.498039215803146);
#854=AXIS2_PLACEMENT_3D('',#1436,#1437,#1438);
#855=DRAUGHTING_PRE_DEFINED_CURVE_FONT('continuous');
#856=COLOUR_RGB('',0.200000002980232,0.600000023841858,1.0);
#857=CARTESIAN_POINT('',(0.291186927252985,0.0,-36.719578393051));
#858=VECTOR('',#1439,1.0);
#859=PRE_DEFINED_MARKER('');
#860=COLOUR_RGB('',0.200000002980232,0.600000023841858,1.0);
#861=DRAUGHTING_PRE_DEFINED_CURVE_FONT('continuous');
#862=COLOUR_RGB('',0.200000002980232,0.600000023841858,1.0);
#863=CARTESIAN_POINT('',(0.445736688382193,0.0,-35.9716828121607));
#864=VECTOR('',#1440,1.0);
#865=PRE_DEFINED_MARKER('');
#866=COLOUR_RGB('',0.200000002980232,0.600000023841858,1.0);
#867=PRE_DEFINED_MARKER('');
#868=COLOUR_RGB('',0.498039215803146,0.498039215803146,0.498039215803146);
#869=PRE_DEFINED_MARKER('');
#870=COLOUR_RGB('',0.200000002980232,0.600000023841858,1.0);
#871=DRAUGHTING_PRE_DEFINED_CURVE_FONT('continuous');
#872=COLOUR_RGB('',0.200000002980232,0.600000023841858,1.0);
#873=CARTESIAN_POINT('',(0.445736688382193,1.32714686626239,-36.267535689468));
#874=VECTOR('',#1441,1.0);
#875=SURFACE_SIDE_STYLE('',(#1442));
#876=EDGE_LOOP('',(#1443,#1444,#1445,#1446,#1447));
#877=AXIS2_PLACEMENT_3D('',#1448,#1449,#1450);
#878=DRAUGHTING_PRE_DEFINED_CURVE_FONT('continuous');
#879=COLOUR_RGB('',0.498039215803146,0.498039215803146,0.498039215803146);
#880=CARTESIAN_POINT('',(1.65321857766021E-016,-1.35,-0.149999999999999));
#881=VECTOR('',#1451,1.0);
#882=PRE_DEFINED_MARKER('');
#883=COLOUR_RGB('',0.200000002980232,0.600000023841858,1.0);
#884=DRAUGHTING_PRE_DEFINED_CURVE_FONT('continuous');
#885=COLOUR_RGB('',0.498039215803146,0.498039215803146,0.498039215803146);
#886=CARTESIAN_POINT('',(6.11690873734277E-017,-0.4995,-44.75));
#887=VECTOR('',#1452,1.0);
#888=PRE_DEFINED_MARKER('');
#889=COLOUR_RGB('',0.498039215803146,0.498039215803146,0.498039215803146);
#890=DRAUGHTING_PRE_DEFINED_CURVE_FONT('continuous');
#891=COLOUR_RGB('',0.200000002980232,0.600000023841858,1.0);
#892=CARTESIAN_POINT('',(-0.117181624611204,1.39508726137596,-35.737690401687));
#893=CARTESIAN_POINT('',(-0.138468766914006,1.39329922847835,-35.7589566347354));
#894=CARTESIAN_POINT('',(-0.15692389553692,1.39123221227467,-35.7858905726496));
#895=CARTESIAN_POINT('',(-0.181415217899849,1.38825094909163,-35.844945964173));
#896=CARTESIAN_POINT('',(-0.187449399729082,1.38739422030698,-35.8770711417381));
#897=CARTESIAN_POINT('',(-0.187449399729082,1.38739422030698,-35.9373568666531));
#898=CARTESIAN_POINT('',(-0.181415217899849,1.38825094909163,-35.9694820442182));
#899=CARTESIAN_POINT('',(-0.15692389553692,1.39123221227467,-36.0285374357416));
#900=CARTESIAN_POINT('',(-0.138468766914005,1.39329922847835,-36.0554713736558));
#901=CARTESIAN_POINT('',(-0.0959259586970276,1.39687265038565,-36.0979723942817));
#902=CARTESIAN_POINT('',(-0.06900158446767,1.39861004085185,-36.1163934152249));
#903=CARTESIAN_POINT('',(-0.00999068415960436,1.40027549119428,-36.1408275166926));
#904=CARTESIAN_POINT('',(0.0220980814635057,1.40014912846684,-36.1468388675916));
#905=CARTESIAN_POINT('',(0.0824038797008532,1.39790007820479,-36.1468388675916));
#906=CARTESIAN_POINT('',(0.114562559826977,1.39562045177,-36.1407733890513));
#907=CARTESIAN_POINT('',(0.173611467778052,1.38951073541202,-36.1162485285127));
#908=CARTESIAN_POINT('',(0.200509103726029,1.38573400073898,-36.0977937209248));
#909=CARTESIAN_POINT('',(0.24292053335399,1.37893056499176,-36.0553169370546));
#910=CARTESIAN_POINT('',(0.261316537705002,1.37545227066293,-36.0284524064416));
#911=CARTESIAN_POINT('',(0.285758720113013,1.37058280964528,-35.9694843696622));
#912=CARTESIAN_POINT('',(0.291800327062856,1.36925255856106,-35.9373739545128));
#913=CARTESIAN_POINT('',(0.291800327062856,1.36925255856106,-35.9072140041956));
#914=CARTESIAN_POINT('',(0.291800327062856,1.36925255856106,-35.8770229693381));
#915=CARTESIAN_POINT('',(0.2857463781139,1.3705855963343,-35.8448817225855));
#916=CARTESIAN_POINT('',(0.261258051765335,1.37546359362798,-35.78586673519));
#917=CARTESIAN_POINT('',(0.242828249769718,1.37894741485181,-35.758986058602));
#918=CARTESIAN_POINT('',(0.221615829515077,1.38234815589574,-35.7377736383474));
#919=DRAUGHTING_PRE_DEFINED_CURVE_FONT('continuous');
#920=COLOUR_RGB('',0.498039215803146,0.498039215803146,0.498039215803146);
#921=CARTESIAN_POINT('',(0.221729286755512,1.48352152778276,-35.7378871716097));
#922=CARTESIAN_POINT('',(0.242916664335147,1.48035483149223,-35.7591029518554));
#923=CARTESIAN_POINT('',(0.261318671695974,1.47711443847429,-35.7859780646235));
#924=CARTESIAN_POINT('',(0.285762500920562,1.47258083232378,-35.8449554464605));
#925=CARTESIAN_POINT('',(0.291800327062856,1.47134379705289,-35.8770636764107));
#926=CARTESIAN_POINT('',(0.291800327062856,1.47134379705289,-35.9072140041956));
#927=CARTESIAN_POINT('',(0.291800327062856,1.47134379705289,-35.9373643319804));
#928=CARTESIAN_POINT('',(0.285762500920559,1.47258083232378,-35.9694725619307));
#929=CARTESIAN_POINT('',(0.261318671695972,1.47711443847429,-36.0284499437677));
#930=CARTESIAN_POINT('',(0.242916664335146,1.48035483149223,-36.0553250565357));
#931=CARTESIAN_POINT('',(0.200487072889916,1.4866964199844,-36.0978115268238));
#932=CARTESIAN_POINT('',(0.173583194808325,1.49021764919555,-36.1162645841107));
#933=CARTESIAN_POINT('',(0.114535660161262,1.49591488728219,-36.1407802443434));
#934=CARTESIAN_POINT('',(0.0823855330622715,1.49804084650163,-36.1468388675916));
#935=CARTESIAN_POINT('',(0.022096731509681,1.5001391803914,-36.1468388675916));
#936=CARTESIAN_POINT('',(-0.00999262344409855,1.5002571208703,-36.1408272955109));
#937=CARTESIAN_POINT('',(-0.0690070987492227,1.49870253939413,-36.1163905501035));
#938=CARTESIAN_POINT('',(-0.0959341735062562,1.49708093351492,-36.0979668841244));
#939=CARTESIAN_POINT('',(-0.138477984082618,1.49374686847048,-36.055459464118));
#940=CARTESIAN_POINT('',(-0.1569313723902,1.49181914896708,-36.0285240496651));
#941=CARTESIAN_POINT('',(-0.181417959074002,1.48903974234222,-35.969470789854));
#942=CARTESIAN_POINT('',(-0.187449399729082,1.48824148663488,-35.9373497129873));
#943=CARTESIAN_POINT('',(-0.187449399729082,1.48824148663488,-35.8770782954039));
#944=CARTESIAN_POINT('',(-0.181417959074002,1.48903974234222,-35.8449572185372));
#945=CARTESIAN_POINT('',(-0.1569313723902,1.49181914896708,-35.7859039587261));
#946=CARTESIAN_POINT('',(-0.138477984082619,1.49374686847048,-35.7589685442732));
#947=CARTESIAN_POINT('',(-0.117192388826771,1.49541497384541,-35.7377011560123));
#948=DRAUGHTING_PRE_DEFINED_CURVE_FONT('continuous');
#949=COLOUR_RGB('',0.498039215803146,0.498039215803146,0.498039215803146);
#950=AXIS2_PLACEMENT_3D('',#1453,#1454,#1455);
#951=PRE_DEFINED_MARKER('');
#952=COLOUR_RGB('',0.498039215803146,0.498039215803146,0.498039215803146);
#953=DRAUGHTING_PRE_DEFINED_CURVE_FONT('continuous');
#954=COLOUR_RGB('',0.200000002980232,0.600000023841858,1.0);
#955=CARTESIAN_POINT('',(-0.187444663409338,0.0,-35.9057073995657));
#956=VECTOR('',#1456,1.0);
#957=SURFACE_SIDE_STYLE('',(#1457));
#958=EDGE_LOOP('',(#1458,#1459,#1460,#1461));
#959=AXIS2_PLACEMENT_3D('',#1462,#1463,#1464);
#960=SURFACE_SIDE_STYLE('',(#1465));
#961=EDGE_LOOP('',(#1466,#1467,#1468,#1469));
#962=AXIS2_PLACEMENT_3D('',#1470,#1471,#1472);
#963=DRAUGHTING_PRE_DEFINED_CURVE_FONT('continuous');
#964=COLOUR_RGB('',0.498039215803146,0.498039215803146,0.498039215803146);
#965=CARTESIAN_POINT('',(-1.65321857766021E-016,1.35,-0.149999999999999));
#966=VECTOR('',#1473,1.0);
#967=DRAUGHTING_PRE_DEFINED_CURVE_FONT('continuous');
#968=COLOUR_RGB('',0.200000002980232,0.600000023841858,1.0);
#969=CARTESIAN_POINT('',(0.20093474970012,1.38550540466753,-36.2728127120872));
#970=CARTESIAN_POINT('',(0.152361027198009,1.39254987285908,-36.2930424128849));
#971=CARTESIAN_POINT('',(0.0993229298639763,1.39736839466311,-36.3031228766955));
#972=CARTESIAN_POINT('',(-0.000289689597055817,1.40087973109968,-36.3031228766955));
#973=CARTESIAN_POINT('',(-0.0531441761580125,1.3998366962277,-36.2931845414391));
#974=CARTESIAN_POINT('',(-0.150192542814048,1.39277036147263,-36.2529626120982));
#975=CARTESIAN_POINT('',(-0.194401081368024,1.38688829524184,-36.2226896998535));
#976=CARTESIAN_POINT('',(-0.264285887003957,1.37528589839301,-36.1529252151849));
#977=CARTESIAN_POINT('',(-0.294656242773867,1.36879766697314,-36.1086812917829));
#978=CARTESIAN_POINT('',(-0.335036721821815,1.3594777535698,-36.0115058899038));
#979=CARTESIAN_POINT('',(-0.345036339300622,1.35681609828378,-35.9585538146259));
#980=CARTESIAN_POINT('',(-0.345036339300621,1.35681609828378,-35.8590380778486));
#981=CARTESIAN_POINT('',(-0.335059492810622,1.35947148128579,-35.8061426655781));
#982=CARTESIAN_POINT('',(-0.314911729567392,1.36412264939076,-35.7575980957205));
#983=PRE_DEFINED_MARKER('');
#984=COLOUR_RGB('',0.800000011920929,0.800000011920929,0.800000011920929);
#985=DRAUGHTING_PRE_DEFINED_CURVE_FONT('continuous');
#986=COLOUR_RGB('',0.800000011920929,0.800000011920929,0.800000011920929);
#987=AXIS2_PLACEMENT_3D('',#1474,#1475,#1476);
#988=SURFACE_SIDE_STYLE('',(#1477));
#989=EDGE_LOOP('',(#1478,#1479,#1480,#1481));
#990=AXIS2_PLACEMENT_3D('',#1482,#1483,#1484);
#991=DRAUGHTING_PRE_DEFINED_CURVE_FONT('continuous');
#992=COLOUR_RGB('',0.200000002980232,0.600000023841858,1.0);
#993=CARTESIAN_POINT('',(-0.162126314794349,1.43475451892426,-36.0144279161002));
#994=VECTOR('',#1485,1.0);
#995=DRAUGHTING_PRE_DEFINED_CURVE_FONT('continuous');
#996=COLOUR_RGB('',0.800000011920929,0.800000011920929,0.800000011920929);
#997=CARTESIAN_POINT('',(0.25,3.06151588455594E-017,-76.89644661));
#998=VECTOR('',#1486,1.0);
#999=DRAUGHTING_PRE_DEFINED_CURVE_FONT('continuous');
#1000=COLOUR_RGB('',0.200000002980232,0.600000023841858,1.0);
#1001=AXIS2_PLACEMENT_3D('',#1487,#1488,#1489);
#1002=SURFACE_SIDE_STYLE('',(#1490));
#1003=EDGE_LOOP('',(#1491,#1492,#1493,#1494));
#1004=AXIS2_PLACEMENT_3D('',#1495,#1496,#1497);
#1005=DRAUGHTING_PRE_DEFINED_CURVE_FONT('continuous');
#1006=COLOUR_RGB('',0.498039215803146,0.498039215803146,0.498039215803146);
#1007=CARTESIAN_POINT('',(-0.314868906269419,1.46658023028565,-35.7574949574024));
#1008=CARTESIAN_POINT('',(-0.335050458532666,1.46224733367956,-35.8060820694257));
#1009=CARTESIAN_POINT('',(-0.345036339300622,1.45977735444897,-35.8590167931671));
#1010=CARTESIAN_POINT('',(-0.345036339300621,1.45977735444897,-35.9585177806548));
#1011=CARTESIAN_POINT('',(-0.335050458532666,1.46224733367956,-36.0114525043962));
#1012=CARTESIAN_POINT('',(-0.294687354006183,1.47091312689174,-36.1086267284426));
#1013=CARTESIAN_POINT('',(-0.264319381944401,1.47695271033967,-36.1528839400996));
#1014=CARTESIAN_POINT('',(-0.194416198846918,1.48776678314766,-36.2226824192427));
#1015=CARTESIAN_POINT('',(-0.150190002765001,1.49325454353536,-36.2529651939691));
#1016=CARTESIAN_POINT('',(-0.0531271239485839,1.49984788471278,-36.2931900793177));
#1017=CARTESIAN_POINT('',(-0.000277601456355456,1.50082058647412,-36.3031228766955));
#1018=CARTESIAN_POINT('',(0.0992584208997275,1.49754612136718,-36.3031228766955));
#1019=CARTESIAN_POINT('',(0.152267005818255,1.49305636381024,-36.2930669468251));
#1020=CARTESIAN_POINT('',(0.200841428620677,1.48649343104825,-36.2728515638676));
#1021=DRAUGHTING_PRE_DEFINED_CURVE_FONT('continuous');
#1022=COLOUR_RGB('',0.800000011920929,0.800000011920929,0.800000011920929);
#1023=AXIS2_PLACEMENT_3D('',#1498,#1499,#1500);
#1024=DRAUGHTING_PRE_DEFINED_CURVE_FONT('continuous');
#1025=COLOUR_RGB('',0.200000002980232,0.600000023841858,1.0);
#1026=AXIS2_PLACEMENT_3D('',#1501,#1502,#1503);
#1027=SURFACE_SIDE_STYLE('',(#1504));
#1028=EDGE_LOOP('',(#1505,#1506,#1507,#1508));
#1029=AXIS2_PLACEMENT_3D('',#1509,#1510,#1511);
#1030=SURFACE_SIDE_STYLE('',(#1512));
#1031=EDGE_LOOP('',(#1513,#1514,#1515,#1516));
#1032=AXIS2_PLACEMENT_3D('',#1517,#1518,#1519);
#1033=SURFACE_SIDE_STYLE('',(#1520));
#1034=EDGE_LOOP('',(#1521,#1522,#1523,#1524));
#1035=AXIS2_PLACEMENT_3D('',#1525,#1526,#1527);
#1036=PRE_DEFINED_MARKER('');
#1037=COLOUR_RGB('',0.498039215803146,0.498039215803146,0.498039215803146);
#1038=PRE_DEFINED_MARKER('');
#1039=COLOUR_RGB('',0.200000002980232,0.600000023841858,1.0);
#1040=DRAUGHTING_PRE_DEFINED_CURVE_FONT('continuous');
#1041=COLOUR_RGB('',0.498039215803146,0.498039215803146,0.498039215803146);
#1042=CARTESIAN_POINT('',(0.291186927252986,1.4714653150506,-36.4797713897937));
#1043=VECTOR('',#1528,1.0);
#1044=SURFACE_SIDE_STYLE('',(#1529));
#1045=EDGE_LOOP('',(#1530,#1531));
#1046=AXIS2_PLACEMENT_3D('',#1532,#1533,#1534);
#1047=PRE_DEFINED_MARKER('');
#1048=COLOUR_RGB('',0.498039215803146,0.498039215803146,0.498039215803146);
#1049=PRE_DEFINED_MARKER('');
#1050=COLOUR_RGB('',0.498039215803146,0.498039215803146,0.498039215803146);
#1051=SURFACE_SIDE_STYLE('',(#1535));
#1052=DRAUGHTING_PRE_DEFINED_CURVE_FONT('continuous');
#1053=COLOUR_RGB('',0.498039215803146,0.498039215803146,0.498039215803146);
#1054=CARTESIAN_POINT('',(0.221729286755512,1.48352152778276,-35.7378871716097));
#1055=CARTESIAN_POINT('',(0.242916664335147,1.48035483149223,-35.7591029518554));
#1056=CARTESIAN_POINT('',(0.261318671695974,1.47711443847429,-35.7859780646235));
#1057=CARTESIAN_POINT('',(0.285762500920562,1.47258083232378,-35.8449554464605));
#1058=CARTESIAN_POINT('',(0.291800327062856,1.47134379705289,-35.8770636764107));
#1059=CARTESIAN_POINT('',(0.291800327062856,1.47134379705289,-35.9072140041956));
#1060=CARTESIAN_POINT('',(0.291800327062856,1.47134379705289,-35.9373643319804));
#1061=CARTESIAN_POINT('',(0.285762500920559,1.47258083232378,-35.9694725619307));
#1062=CARTESIAN_POINT('',(0.261318671695972,1.47711443847429,-36.0284499437677));
#1063=CARTESIAN_POINT('',(0.242916664335146,1.48035483149223,-36.0553250565357));
#1064=CARTESIAN_POINT('',(0.200487072889916,1.4866964199844,-36.0978115268238));
#1065=CARTESIAN_POINT('',(0.173583194808325,1.49021764919555,-36.1162645841107));
#1066=CARTESIAN_POINT('',(0.114535660161262,1.49591488728219,-36.1407802443434));
#1067=CARTESIAN_POINT('',(0.0823855330622715,1.49804084650163,-36.1468388675916));
#1068=CARTESIAN_POINT('',(0.022096731509681,1.5001391803914,-36.1468388675916));
#1069=CARTESIAN_POINT('',(-0.00999262344409855,1.5002571208703,-36.1408272955109));
#1070=CARTESIAN_POINT('',(-0.0690070987492227,1.49870253939413,-36.1163905501035));
#1071=CARTESIAN_POINT('',(-0.0959341735062562,1.49708093351492,-36.0979668841244));
#1072=CARTESIAN_POINT('',(-0.138477984082618,1.49374686847048,-36.055459464118));
#1073=CARTESIAN_POINT('',(-0.1569313723902,1.49181914896708,-36.0285240496651));
#1074=CARTESIAN_POINT('',(-0.181417959074002,1.48903974234222,-35.969470789854));
#1075=CARTESIAN_POINT('',(-0.187449399729082,1.48824148663488,-35.9373497129873));
#1076=CARTESIAN_POINT('',(-0.187449399729082,1.48824148663488,-35.8770782954039));
#1077=CARTESIAN_POINT('',(-0.181417959074002,1.48903974234222,-35.8449572185372));
#1078=CARTESIAN_POINT('',(-0.1569313723902,1.49181914896708,-35.7859039587261));
#1079=CARTESIAN_POINT('',(-0.138477984082619,1.49374686847048,-35.7589685442732));
#1080=CARTESIAN_POINT('',(-0.117192388826771,1.49541497384541,-35.7377011560123));
#1081=DRAUGHTING_PRE_DEFINED_CURVE_FONT('continuous');
#1082=COLOUR_RGB('',0.200000002980232,0.600000023841858,1.0);
#1083=CARTESIAN_POINT('',(-0.345024467969599,0.0,-35.9057073995657));
#1084=VECTOR('',#1536,1.0);
#1085=DRAUGHTING_PRE_DEFINED_CURVE_FONT('continuous');
#1086=COLOUR_RGB('',0.200000002980232,0.600000023841858,1.0);
#1087=CARTESIAN_POINT('',(0.266477242128121,0.0,-35.800000092291));
#1088=VECTOR('',#1537,1.0);
#1089=SURFACE_SIDE_STYLE('',(#1538));
#1090=EDGE_LOOP('',(#1539,#1540));
#1091=AXIS2_PLACEMENT_3D('',#1541,#1542,#1543);
#1092=SURFACE_SIDE_STYLE('',(#1544));
#1093=EDGE_LOOP('',(#1545,#1546,#1547,#1548,#1549));
#1094=AXIS2_PLACEMENT_3D('',#1550,#1551,#1552);
#1095=SURFACE_SIDE_STYLE('',(#1553));
#1096=EDGE_LOOP('',(#1554,#1555,#1556));
#1097=AXIS2_PLACEMENT_3D('',#1557,#1558,#1559);
#1098=DRAUGHTING_PRE_DEFINED_CURVE_FONT('continuous');
#1099=COLOUR_RGB('',0.498039215803146,0.498039215803146,0.498039215803146);
#1100=CARTESIAN_POINT('',(0.199061849002126,1.48673278711134,-36.7687828857748));
#1101=CARTESIAN_POINT('',(0.265847067215447,1.47779077066393,-36.7410006035899));
#1102=CARTESIAN_POINT('',(0.32649334241822,1.4648697423439,-36.6993265217779));
#1103=CARTESIAN_POINT('',(0.422252417114927,1.44019132283688,-36.6036106277201));
#1104=CARTESIAN_POINT('',(0.463941140424689,1.42675317793294,-36.54295936927));
#1105=CARTESIAN_POINT('',(0.491743345585497,1.4171056707502,-36.4761709487976));
#1106=DRAUGHTING_PRE_DEFINED_CURVE_FONT('continuous');
#1107=COLOUR_RGB('',0.498039215803146,0.498039215803146,0.498039215803146);
#1108=AXIS2_PLACEMENT_3D('',#1560,#1561,#1562);
#1109=DRAUGHTING_PRE_DEFINED_CURVE_FONT('continuous');
#1110=COLOUR_RGB('',0.498039215803146,0.498039215803146,0.498039215803146);
#1111=AXIS2_PLACEMENT_3D('',#1563,#1564,#1565);
#1112=DRAUGHTING_PRE_DEFINED_CURVE_FONT('continuous');
#1113=COLOUR_RGB('',0.200000002980232,0.600000023841858,1.0);
#1114=CARTESIAN_POINT('',(0.291186927252986,1.36938313608609,-36.4797713897937));
#1115=VECTOR('',#1566,1.0);
#1116=SURFACE_SIDE_STYLE('',(#1567));
#1117=EDGE_LOOP('',(#1568,#1569,#1570,#1571,#1572,#1573,#1574,#1575,#1576,#1577,#1578));
#1118=AXIS2_PLACEMENT_3D('',#1579,#1580,#1581);
#1119=DRAUGHTING_PRE_DEFINED_CURVE_FONT('continuous');
#1120=COLOUR_RGB('',0.498039215803146,0.498039215803146,0.498039215803146);
#1121=CARTESIAN_POINT('',(0.221729286755512,1.48352152778276,-35.7378871716097));
#1122=CARTESIAN_POINT('',(0.242916664335147,1.48035483149223,-35.7591029518554));
#1123=CARTESIAN_POINT('',(0.261318671695974,1.47711443847429,-35.7859780646235));
#1124=CARTESIAN_POINT('',(0.285762500920562,1.47258083232378,-35.8449554464605));
#1125=CARTESIAN_POINT('',(0.291800327062856,1.47134379705289,-35.8770636764107));
#1126=CARTESIAN_POINT('',(0.291800327062856,1.47134379705289,-35.9072140041956));
#1127=CARTESIAN_POINT('',(0.291800327062856,1.47134379705289,-35.9373643319804));
#1128=CARTESIAN_POINT('',(0.285762500920559,1.47258083232378,-35.9694725619307));
#1129=CARTESIAN_POINT('',(0.261318671695972,1.47711443847429,-36.0284499437677));
#1130=CARTESIAN_POINT('',(0.242916664335146,1.48035483149223,-36.0553250565357));
#1131=CARTESIAN_POINT('',(0.200487072889916,1.4866964199844,-36.0978115268238));
#1132=CARTESIAN_POINT('',(0.173583194808325,1.49021764919555,-36.1162645841107));
#1133=CARTESIAN_POINT('',(0.114535660161262,1.49591488728219,-36.1407802443434));
#1134=CARTESIAN_POINT('',(0.0823855330622715,1.49804084650163,-36.1468388675916));
#1135=CARTESIAN_POINT('',(0.022096731509681,1.5001391803914,-36.1468388675916));
#1136=CARTESIAN_POINT('',(-0.00999262344409855,1.5002571208703,-36.1408272955109));
#1137=CARTESIAN_POINT('',(-0.0690070987492227,1.49870253939413,-36.1163905501035));
#1138=CARTESIAN_POINT('',(-0.0959341735062562,1.49708093351492,-36.0979668841244));
#1139=CARTESIAN_POINT('',(-0.138477984082618,1.49374686847048,-36.055459464118));
#1140=CARTESIAN_POINT('',(-0.1569313723902,1.49181914896708,-36.0285240496651));
#1141=CARTESIAN_POINT('',(-0.181417959074002,1.48903974234222,-35.969470789854));
#1142=CARTESIAN_POINT('',(-0.187449399729082,1.48824148663488,-35.9373497129873));
#1143=CARTESIAN_POINT('',(-0.187449399729082,1.48824148663488,-35.8770782954039));
#1144=CARTESIAN_POINT('',(-0.181417959074002,1.48903974234222,-35.8449572185372));
#1145=CARTESIAN_POINT('',(-0.1569313723902,1.49181914896708,-35.7859039587261));
#1146=CARTESIAN_POINT('',(-0.138477984082619,1.49374686847048,-35.7589685442732));
#1147=CARTESIAN_POINT('',(-0.117192388826771,1.49541497384541,-35.7377011560123));
#1148=DRAUGHTING_PRE_DEFINED_CURVE_FONT('continuous');
#1149=COLOUR_RGB('',0.498039215803146,0.498039215803146,0.498039215803146);
#1150=CARTESIAN_POINT('',(1.22430020223392E-016,-0.99975,-40.65));
#1151=VECTOR('',#1582,1.0);
#1152=SURFACE_SIDE_STYLE('',(#1583));
#1153=EDGE_LOOP('',(#1584,#1585,#1586,#1587));
#1154=AXIS2_PLACEMENT_3D('',#1588,#1589,#1590);
#1155=DRAUGHTING_PRE_DEFINED_CURVE_FONT('continuous');
#1156=COLOUR_RGB('',0.800000011920929,0.800000011920929,0.800000011920929);
#1157=CARTESIAN_POINT('',(-0.25,-3.06151588455594E-017,-76.89644661));
#1158=VECTOR('',#1591,1.0);
#1159=PRE_DEFINED_MARKER('');
#1160=COLOUR_RGB('',0.800000011920929,0.800000011920929,0.800000011920929);
#1161=PRE_DEFINED_MARKER('');
#1162=COLOUR_RGB('',0.200000002980232,0.600000023841858,1.0);
#1163=DRAUGHTING_PRE_DEFINED_CURVE_FONT('continuous');
#1164=COLOUR_RGB('',0.498039215803146,0.498039215803146,0.498039215803146);
#1165=CARTESIAN_POINT('',(0.491743348242611,1.41710566982817,-36.0589004347604));
#1166=CARTESIAN_POINT('',(0.463941142106075,1.42675317740789,-35.9921120119755));
#1167=CARTESIAN_POINT('',(0.42225241733621,1.44019132283161,-35.9314607514286));
#1168=CARTESIAN_POINT('',(0.326493339315814,1.46486974309175,-35.8357448541152));
#1169=CARTESIAN_POINT('',(0.265847062040816,1.47779077169742,-35.7940707709));
#1170=CARTESIAN_POINT('',(0.199061841552505,1.48673278810879,-35.7662884877836));
#1171=SURFACE_SIDE_STYLE('',(#1592));
#1172=EDGE_LOOP('',(#1593,#1594));
#1173=AXIS2_PLACEMENT_3D('',#1595,#1596,#1597);
#1174=PRE_DEFINED_MARKER('');
#1175=COLOUR_RGB('',0.200000002980232,0.600000023841858,1.0);
#1176=DRAUGHTING_PRE_DEFINED_CURVE_FONT('continuous');
#1177=COLOUR_RGB('',0.200000002980232,0.600000023841858,1.0);
#1178=AXIS2_PLACEMENT_3D('',#1598,#1599,#1600);
#1179=DRAUGHTING_PRE_DEFINED_CURVE_FONT('continuous');
#1180=COLOUR_RGB('',0.200000002980232,0.600000023841858,1.0);
#1181=CARTESIAN_POINT('',(0.199180176910604,1.38575872976715,-36.7687338283494));
#1182=CARTESIAN_POINT('',(0.132408368329894,1.39535608638171,-36.796529011669));
#1183=CARTESIAN_POINT('',(0.0593995279736131,1.40043305029661,-36.8104241111695));
#1184=CARTESIAN_POINT('',(-0.0784552747615234,1.39950210972247,-36.8104241111695));
#1185=CARTESIAN_POINT('',(-0.15153324696165,1.3934165949244,-36.7964755055559));
#1186=CARTESIAN_POINT('',(-0.285113817743679,1.37232730878111,-36.7407961721918));
#1187=CARTESIAN_POINT('',(-0.345671056748324,1.3575672374164,-36.6991045148745));
#1188=CARTESIAN_POINT('',(-0.44120303878569,1.32959281694928,-36.6035209583352));
#1189=CARTESIAN_POINT('',(-0.482815583798974,1.31445046880523,-36.5430016760065));
#1190=CARTESIAN_POINT('',(-0.510608347789736,1.30356400501373,-36.4762748784508));
#1191=DRAUGHTING_PRE_DEFINED_CURVE_FONT('continuous');
#1192=COLOUR_RGB('',0.200000002980232,0.600000023841858,1.0);
#1193=CARTESIAN_POINT('',(0.445736688382193,0.0,-36.5633885667752));
#1194=VECTOR('',#1601,1.0);
#1195=DRAUGHTING_PRE_DEFINED_CURVE_FONT('continuous');
#1196=COLOUR_RGB('',0.498039215803146,0.498039215803146,0.498039215803146);
#1197=AXIS2_PLACEMENT_3D('',#1602,#1603,#1604);
#1198=PRE_DEFINED_MARKER('');
#1199=COLOUR_RGB('',0.200000002980232,0.600000023841858,1.0);
#1200=PRE_DEFINED_MARKER('');
#1201=COLOUR_RGB('',0.498039215803146,0.498039215803146,0.498039215803146);
#1202=DRAUGHTING_PRE_DEFINED_CURVE_FONT('continuous');
#1203=COLOUR_RGB('',0.800000011920929,0.800000011920929,0.800000011920929);
#1204=AXIS2_PLACEMENT_3D('',#1605,#1606,#1607);
#1205=PRE_DEFINED_MARKER('');
#1206=COLOUR_RGB('',0.800000011920929,0.800000011920929,0.800000011920929);
#1207=DRAUGHTING_PRE_DEFINED_CURVE_FONT('continuous');
#1208=COLOUR_RGB('',0.800000011920929,0.800000011920929,0.800000011920929);
#1209=CARTESIAN_POINT('',(-0.5,-6.12303176911189E-017,-61.89644661));
#1210=VECTOR('',#1608,1.0);
#1211=DRAUGHTING_PRE_DEFINED_CURVE_FONT('continuous');
#1212=COLOUR_RGB('',0.800000011920929,0.800000011920929,0.800000011920929);
#1213=AXIS2_PLACEMENT_3D('',#1609,#1610,#1611);
#1214=DRAUGHTING_PRE_DEFINED_CURVE_FONT('continuous');
#1215=COLOUR_RGB('',0.498039215803146,0.498039215803146,0.498039215803146);
#1216=CARTESIAN_POINT('',(-1.22430020223392E-016,0.99975,-40.65));
#1217=VECTOR('',#1612,1.0);
#1218=SURFACE_SIDE_STYLE('',(#1613));
#1219=EDGE_LOOP('',(#1614,#1615,#1616,#1617));
#1220=AXIS2_PLACEMENT_3D('',#1618,#1619,#1620);
#1221=DRAUGHTING_PRE_DEFINED_CURVE_FONT('continuous');
#1222=COLOUR_RGB('',0.800000011920929,0.800000011920929,0.800000011920929);
#1223=CARTESIAN_POINT('',(0.5,6.12303176911189E-017,-61.89644661));
#1224=VECTOR('',#1621,1.0);
#1225=PRE_DEFINED_MARKER('');
#1226=COLOUR_RGB('',0.200000002980232,0.600000023841858,1.0);
#1227=DRAUGHTING_PRE_DEFINED_CURVE_FONT('continuous');
#1228=COLOUR_RGB('',0.498039215803146,0.498039215803146,0.498039215803146);
#1229=AXIS2_PLACEMENT_3D('',#1622,#1623,#1624);
#1230=DRAUGHTING_PRE_DEFINED_CURVE_FONT('continuous');
#1231=COLOUR_RGB('',0.498039215803146,0.498039215803146,0.498039215803146);
#1232=AXIS2_PLACEMENT_3D('',#1625,#1626,#1627);
#1233=DRAUGHTING_PRE_DEFINED_CURVE_FONT('continuous');
#1234=COLOUR_RGB('',0.498039215803146,0.498039215803146,0.498039215803146);
#1235=CARTESIAN_POINT('',(-1.83690953073357E-016,1.5,-19.5));
#1236=VECTOR('',#1628,1.0);
#1237=DRAUGHTING_PRE_DEFINED_CURVE_FONT('continuous');
#1238=COLOUR_RGB('',0.200000002980232,0.600000023841858,1.0);
#1239=CARTESIAN_POINT('',(-0.117181624611204,1.39508726137596,-35.737690401687));
#1240=CARTESIAN_POINT('',(-0.138468766914006,1.39329922847835,-35.7589566347354));
#1241=CARTESIAN_POINT('',(-0.15692389553692,1.39123221227467,-35.7858905726496));
#1242=CARTESIAN_POINT('',(-0.181415217899849,1.38825094909163,-35.844945964173));
#1243=CARTESIAN_POINT('',(-0.187449399729082,1.38739422030698,-35.8770711417381));
#1244=CARTESIAN_POINT('',(-0.187449399729082,1.38739422030698,-35.9373568666531));
#1245=CARTESIAN_POINT('',(-0.181415217899849,1.38825094909163,-35.9694820442182));
#1246=CARTESIAN_POINT('',(-0.15692389553692,1.39123221227467,-36.0285374357416));
#1247=CARTESIAN_POINT('',(-0.138468766914005,1.39329922847835,-36.0554713736558));
#1248=CARTESIAN_POINT('',(-0.0959259586970276,1.39687265038565,-36.0979723942817));
#1249=CARTESIAN_POINT('',(-0.06900158446767,1.39861004085185,-36.1163934152249));
#1250=CARTESIAN_POINT('',(-0.00999068415960436,1.40027549119428,-36.1408275166926));
#1251=CARTESIAN_POINT('',(0.0220980814635057,1.40014912846684,-36.1468388675916));
#1252=CARTESIAN_POINT('',(0.0824038797008532,1.39790007820479,-36.1468388675916));
#1253=CARTESIAN_POINT('',(0.114562559826977,1.39562045177,-36.1407733890513));
#1254=CARTESIAN_POINT('',(0.173611467778052,1.38951073541202,-36.1162485285127));
#1255=CARTESIAN_POINT('',(0.200509103726029,1.38573400073898,-36.0977937209248));
#1256=CARTESIAN_POINT('',(0.24292053335399,1.37893056499176,-36.0553169370546));
#1257=CARTESIAN_POINT('',(0.261316537705002,1.37545227066293,-36.0284524064416));
#1258=CARTESIAN_POINT('',(0.285758720113013,1.37058280964528,-35.9694843696622));
#1259=CARTESIAN_POINT('',(0.291800327062856,1.36925255856106,-35.9373739545128));
#1260=CARTESIAN_POINT('',(0.291800327062856,1.36925255856106,-35.9072140041956));
#1261=CARTESIAN_POINT('',(0.291800327062856,1.36925255856106,-35.8770229693381));
#1262=CARTESIAN_POINT('',(0.2857463781139,1.3705855963343,-35.8448817225855));
#1263=CARTESIAN_POINT('',(0.261258051765335,1.37546359362798,-35.78586673519));
#1264=CARTESIAN_POINT('',(0.242828249769718,1.37894741485181,-35.758986058602));
#1265=CARTESIAN_POINT('',(0.221615829515077,1.38234815589574,-35.7377736383474));
#1266=PRE_DEFINED_MARKER('');
#1267=COLOUR_RGB('',0.498039215803146,0.498039215803146,0.498039215803146);
#1268=DRAUGHTING_PRE_DEFINED_CURVE_FONT('continuous');
#1269=COLOUR_RGB('',0.200000002980232,0.600000023841858,1.0);
#1270=CARTESIAN_POINT('',(0.199180077969662,1.38575874398829,-35.7663376898337));
#1271=CARTESIAN_POINT('',(0.265951883202218,1.37616139272086,-35.794132871577));
#1272=CARTESIAN_POINT('',(0.32653702515263,1.36228968737254,-35.835791803325));
#1273=CARTESIAN_POINT('',(0.422198144050778,1.33574583015829,-35.931403214734));
#1274=CARTESIAN_POINT('',(0.463869843250635,1.32125219566903,-35.991992181706));
#1275=CARTESIAN_POINT('',(0.49168634536898,1.31081827030969,-36.0587635512681));
#1276=DRAUGHTING_PRE_DEFINED_CURVE_FONT('continuous');
#1277=COLOUR_RGB('',0.498039215803146,0.498039215803146,0.498039215803146);
#1278=AXIS2_PLACEMENT_3D('',#1629,#1630,#1631);
#1279=PRE_DEFINED_MARKER('');
#1280=COLOUR_RGB('',0.498039215803146,0.498039215803146,0.498039215803146);
#1281=SURFACE_SIDE_STYLE('',(#1632));
#1282=EDGE_LOOP('',(#1633,#1634,#1635,#1636,#1637,#1638,#1639,#1640,#1641,#1642,#1643,#1644));
#1283=AXIS2_PLACEMENT_3D('',#1645,#1646,#1647);
#1284=DRAUGHTING_PRE_DEFINED_CURVE_FONT('continuous');
#1285=COLOUR_RGB('',0.498039215803146,0.498039215803146,0.498039215803146);
#1286=CARTESIAN_POINT('',(-0.510663884086718,1.41039795713461,-36.4761414932216));
#1287=CARTESIAN_POINT('',(-0.482882195324521,1.42045688567567,-36.5428917331796));
#1288=CARTESIAN_POINT('',(-0.441244348092513,1.43448916486863,-36.6034830495674));
#1289=CARTESIAN_POINT('',(-0.34559676176087,1.46048597628377,-36.699175425681));
#1290=CARTESIAN_POINT('',(-0.284974339318753,1.47422809273278,-36.7408778107875));
#1291=CARTESIAN_POINT('',(-0.151371949196347,1.49386926357127,-36.7965191841322));
#1292=CARTESIAN_POINT('',(-0.0783437509828543,1.49953600664492,-36.8104241111695));
#1293=CARTESIAN_POINT('',(0.059308117302166,1.50040360289934,-36.8104241111695));
#1294=CARTESIAN_POINT('',(0.132276716500882,1.49567479625857,-36.7965653151316));
#1295=CARTESIAN_POINT('',(0.199061940328441,1.48673277488346,-36.7687830304685));
#1296=DRAUGHTING_PRE_DEFINED_CURVE_FONT('continuous');
#1297=COLOUR_RGB('',0.200000002980232,0.600000023841858,1.0);
#1298=CARTESIAN_POINT('',(0.291186927252986,0.0,-36.2399643865364));
#1299=VECTOR('',#1648,1.0);
#1300=PRE_DEFINED_MARKER('');
#1301=COLOUR_RGB('',0.800000011920929,0.800000011920929,0.800000011920929);
#1302=DRAUGHTING_PRE_DEFINED_CURVE_FONT('continuous');
#1303=COLOUR_RGB('',0.498039215803146,0.498039215803146,0.498039215803146);
#1304=CARTESIAN_POINT('',(-1.83690953073357E-016,1.5,-19.5));
#1305=VECTOR('',#1649,1.0);
#1306=SURFACE_SIDE_STYLE('',(#1650));
#1307=EDGE_LOOP('',(#1651,#1652,#1653,#1654));
#1308=AXIS2_PLACEMENT_3D('',#1655,#1656,#1657);
#1309=PRE_DEFINED_MARKER('');
#1310=COLOUR_RGB('',0.498039215803146,0.498039215803146,0.498039215803146);
#1311=DRAUGHTING_PRE_DEFINED_CURVE_FONT('continuous');
#1312=COLOUR_RGB('',0.498039215803146,0.498039215803146,0.498039215803146);
#1313=AXIS2_PLACEMENT_3D('',#1658,#1659,#1660);
#1314=SURFACE_SIDE_STYLE('',(#1661));
#1315=SURFACE_SIDE_STYLE('',(#1662));
#1316=EDGE_LOOP('',(#1663,#1664,#1665,#1666));
#1317=AXIS2_PLACEMENT_3D('',#1667,#1668,#1669);
#1318=DRAUGHTING_PRE_DEFINED_CURVE_FONT('continuous');
#1319=COLOUR_RGB('',0.498039215803146,0.498039215803146,0.498039215803146);
#1320=CARTESIAN_POINT('',(1.83690953073357E-016,-1.5,-19.5));
#1321=VECTOR('',#1670,1.0);
#1322=SURFACE_SIDE_STYLE('',(#1671));
#1323=EDGE_LOOP('',(#1672,#1673,#1674,#1675,#1676));
#1324=AXIS2_PLACEMENT_3D('',#1677,#1678,#1679);
#1325=PRE_DEFINED_MARKER('');
#1326=COLOUR_RGB('',0.498039215803146,0.498039215803146,0.498039215803146);
#1327=PRE_DEFINED_MARKER('');
#1328=COLOUR_RGB('',0.200000002980232,0.600000023841858,1.0);
#1329=DRAUGHTING_PRE_DEFINED_CURVE_FONT('continuous');
#1330=COLOUR_RGB('',0.200000002980232,0.600000023841858,1.0);
#1331=CARTESIAN_POINT('',(0.491686342719134,1.31081827130365,-36.4763078322725));
#1332=CARTESIAN_POINT('',(0.463869841580199,1.32125219623146,-36.5430791995198));
#1333=CARTESIAN_POINT('',(0.422198143844177,1.33574583015858,-36.603668164395));
#1334=CARTESIAN_POINT('',(0.326537028272233,1.36228968656385,-36.6992795725562));
#1335=CARTESIAN_POINT('',(0.265951888390631,1.37616139160821,-36.7409385029054));
#1336=CARTESIAN_POINT('',(0.199180085429986,1.38575874291599,-36.7687336837202));
#1337=DRAUGHTING_PRE_DEFINED_CURVE_FONT('continuous');
#1338=COLOUR_RGB('',0.498039215803146,0.498039215803146,0.498039215803146);
#1339=AXIS2_PLACEMENT_3D('',#1680,#1681,#1682);
#1340=SURFACE_SIDE_STYLE('',(#1683));
#1341=EDGE_LOOP('',(#1684,#1685,#1686,#1687,#1688,#1689,#1690,#1691,#1692,#1693,#1694,#1695));
#1342=AXIS2_PLACEMENT_3D('',#1696,#1697,#1698);
#1343=PRE_DEFINED_MARKER('');
#1344=COLOUR_RGB('',0.498039215803146,0.498039215803146,0.498039215803146);
#1345=SURFACE_SIDE_STYLE('',(#1699));
#1346=EDGE_LOOP('',(#1700,#1701,#1702,#1703));
#1347=AXIS2_PLACEMENT_3D('',#1704,#1705,#1706);
#1348=DRAUGHTING_PRE_DEFINED_CURVE_FONT('continuous');
#1349=COLOUR_RGB('',0.498039215803146,0.498039215803146,0.498039215803146);
#1350=CARTESIAN_POINT('',(-6.11690873734277E-017,0.4995,-44.75));
#1351=VECTOR('',#1707,1.0);
#1352=DRAUGHTING_PRE_DEFINED_CURVE_FONT('continuous');
#1353=COLOUR_RGB('',0.498039215803146,0.498039215803146,0.498039215803146);
#1354=CARTESIAN_POINT('',(0.445736688382193,1.43224257883575,-36.267535689468));
#1355=VECTOR('',#1708,1.0);
#1356=DRAUGHTING_PRE_DEFINED_CURVE_FONT('continuous');
#1357=COLOUR_RGB('',0.498039215803146,0.498039215803146,0.498039215803146);
#1358=CARTESIAN_POINT('',(-0.510663884086718,1.41039795713461,-36.4761414932216));
#1359=CARTESIAN_POINT('',(-0.482882195324521,1.42045688567567,-36.5428917331796));
#1360=CARTESIAN_POINT('',(-0.441244348092513,1.43448916486863,-36.6034830495674));
#1361=CARTESIAN_POINT('',(-0.34559676176087,1.46048597628377,-36.699175425681));
#1362=CARTESIAN_POINT('',(-0.284974339318753,1.47422809273278,-36.7408778107875));
#1363=CARTESIAN_POINT('',(-0.151371949196347,1.49386926357127,-36.7965191841322));
#1364=CARTESIAN_POINT('',(-0.0783437509828543,1.49953600664492,-36.8104241111695));
#1365=CARTESIAN_POINT('',(0.059308117302166,1.50040360289934,-36.8104241111695));
#1366=CARTESIAN_POINT('',(0.132276716500882,1.49567479625857,-36.7965653151316));
#1367=CARTESIAN_POINT('',(0.199061940328441,1.48673277488346,-36.7687830304685));
#1368=DRAUGHTING_PRE_DEFINED_CURVE_FONT('continuous');
#1369=COLOUR_RGB('',0.498039215803146,0.498039215803146,0.498039215803146);
#1370=AXIS2_PLACEMENT_3D('',#1709,#1710,#1711);
#1371=PRE_DEFINED_MARKER('');
#1372=COLOUR_RGB('',0.498039215803146,0.498039215803146,0.498039215803146);
#1373=PRE_DEFINED_MARKER('');
#1374=COLOUR_RGB('',0.498039215803146,0.498039215803146,0.498039215803146);
#1375=DRAUGHTING_PRE_DEFINED_CURVE_FONT('continuous');
#1376=COLOUR_RGB('',0.498039215803146,0.498039215803146,0.498039215803146);
#1377=AXIS2_PLACEMENT_3D('',#1712,#1713,#1714);
#1379=SURFACE_STYLE_FILL_AREA(#1715);
#1380=ORIENTED_EDGE('',*,*,#221,.F.);
#1381=ORIENTED_EDGE('',*,*,#215,.F.);
#1382=ORIENTED_EDGE('',*,*,#275,.F.);
#1383=ORIENTED_EDGE('',*,*,#393,.T.);
#1384=CARTESIAN_POINT('',(0.0967010423452768,0.0,-36.7999442996743));
#1385=DIRECTION('',(0.944648353914092,0.0,-0.328084573619969));
#1386=DIRECTION('',(-0.328084573619969,0.0,-0.944648353914092));
#1387=SURFACE_STYLE_FILL_AREA(#1716);
#1388=ORIENTED_EDGE('',*,*,#317,.F.);
#1389=ORIENTED_EDGE('',*,*,#223,.F.);
#1390=ORIENTED_EDGE('',*,*,#417,.F.);
#1391=ORIENTED_EDGE('',*,*,#349,.T.);
#1392=CARTESIAN_POINT('',(-0.00945412946648461,0.0,-36.2675358341104));
#1393=DIRECTION('',(-0.0,-1.0,-0.0));
#1394=DIRECTION('',(0.838461542890049,0.0,-0.544960770234371));
#1395=DIRECTION('',(0.0,1.0,0.0));
#1396=SURFACE_STYLE_FILL_AREA(#1717);
#1397=ORIENTED_EDGE('',*,*,#433,.F.);
#1398=ORIENTED_EDGE('',*,*,#175,.F.);
#1399=ORIENTED_EDGE('',*,*,#345,.F.);
#1400=ORIENTED_EDGE('',*,*,#193,.T.);
#1401=ORIENTED_EDGE('',*,*,#439,.F.);
#1402=CARTESIAN_POINT('',(0.191042345276873,0.0,-36.2767766558089));
#1403=DIRECTION('',(-0.442195774284071,0.0,0.896918556617774));
#1404=DIRECTION('',(0.896918556617774,0.0,0.442195774284071));
#1405=CARTESIAN_POINT('',(0.0,0.0,-0.299999999999997));
#1406=DIRECTION('',(0.0,0.0,-1.0));
#1407=DIRECTION('',(0.0,1.0,0.0));
#1408=CARTESIAN_POINT('',(0.0,0.0,-47.0));
#1409=DIRECTION('',(0.0,0.0,-1.0));
#1410=DIRECTION('',(0.0,1.0,0.0));
#1411=DIRECTION('',(0.0,1.0,0.0));
#1412=DIRECTION('',(0.0,0.0,-1.0));
#1413=SURFACE_STYLE_FILL_AREA(#1718);
#1414=ORIENTED_EDGE('',*,*,#273,.F.);
#1415=ORIENTED_EDGE('',*,*,#333,.F.);
#1416=ORIENTED_EDGE('',*,*,#357,.T.);
#1417=CARTESIAN_POINT('',(0.0,0.0,-76.89644661));
#1418=DIRECTION('',(-0.0,-0.0,1.0));
#1419=DIRECTION('',(-1.0,0.0,0.0));
#1420=SURFACE_STYLE_FILL_AREA(#1719);
#1421=ORIENTED_EDGE('',*,*,#273,.T.);
#1422=ORIENTED_EDGE('',*,*,#267,.T.);
#1423=ORIENTED_EDGE('',*,*,#333,.T.);
#1424=CARTESIAN_POINT('',(0.0,0.0,-76.89644661));
#1425=DIRECTION('',(-0.0,-0.0,1.0));
#1426=DIRECTION('',(-1.0,0.0,0.0));
#1427=DIRECTION('',(0.0,1.0,0.0));
#1428=SURFACE_STYLE_FILL_AREA(#1720);
#1429=ORIENTED_EDGE('',*,*,#427,.F.);
#1430=ORIENTED_EDGE('',*,*,#419,.T.);
#1431=ORIENTED_EDGE('',*,*,#243,.F.);
#1432=ORIENTED_EDGE('',*,*,#375,.F.);
#1433=CARTESIAN_POINT('',(0.0,0.0,-44.75));
#1434=DIRECTION('',(-0.0,-0.0,1.0));
#1435=DIRECTION('',(0.0,1.0,0.0));
#1436=CARTESIAN_POINT('',(0.0,0.0,-37.0783739724423));
#1437=DIRECTION('',(0.944648353914092,0.0,-0.328084573619969));
#1438=DIRECTION('',(0.328084573619969,-0.0,0.944648353914092));
#1439=DIRECTION('',(0.0,1.0,0.0));
#1440=DIRECTION('',(0.0,1.0,0.0));
#1441=DIRECTION('',(0.0,0.0,-1.0));
#1442=SURFACE_STYLE_FILL_AREA(#1721);
#1443=ORIENTED_EDGE('',*,*,#271,.T.);
#1444=ORIENTED_EDGE('',*,*,#249,.F.);
#1445=ORIENTED_EDGE('',*,*,#305,.F.);
#1446=ORIENTED_EDGE('',*,*,#309,.F.);
#1447=ORIENTED_EDGE('',*,*,#247,.F.);
#1448=CARTESIAN_POINT('',(0.0521754636668867,0.0,-35.9072140041956));
#1449=DIRECTION('',(0.0,-1.0,-0.0));
#1450=DIRECTION('',(0.894321964023871,0.0,0.447423987582791));
#1451=DIRECTION('',(-8.65927457071939E-017,0.707106781186551,0.707106781186544));
#1452=DIRECTION('',(-0.0,-0.0,1.0));
#1453=CARTESIAN_POINT('',(0.0,0.0,-42.5));
#1454=DIRECTION('',(0.0,0.0,-1.0));
#1455=DIRECTION('',(0.0,1.0,0.0));
#1456=DIRECTION('',(0.0,1.0,0.0));
#1457=SURFACE_STYLE_FILL_AREA(#1722);
#1458=ORIENTED_EDGE('',*,*,#361,.T.);
#1459=ORIENTED_EDGE('',*,*,#267,.F.);
#1460=ORIENTED_EDGE('',*,*,#369,.T.);
#1461=ORIENTED_EDGE('',*,*,#363,.T.);
#1462=CARTESIAN_POINT('',(0.0,0.0,-61.89644661));
#1463=DIRECTION('',(-0.0,-0.0,1.0));
#1464=DIRECTION('',(-1.0,0.0,0.0));
#1465=SURFACE_STYLE_FILL_AREA(#1723);
#1466=ORIENTED_EDGE('',*,*,#365,.F.);
#1467=ORIENTED_EDGE('',*,*,#319,.T.);
#1468=ORIENTED_EDGE('',*,*,#329,.F.);
#1469=ORIENTED_EDGE('',*,*,#419,.F.);
#1470=CARTESIAN_POINT('',(0.0,0.0,-40.65));
#1471=DIRECTION('',(-0.0,-0.0,1.0));
#1472=DIRECTION('',(0.0,1.0,0.0));
#1473=DIRECTION('',(-8.65927457071939E-017,0.707106781186551,-0.707106781186544));
#1474=CARTESIAN_POINT('',(0.0,0.0,-76.79289322));
#1475=DIRECTION('',(0.0,0.0,-1.0));
#1476=DIRECTION('',(-1.0,0.0,0.0));
#1477=SURFACE_STYLE_FILL_AREA(#1724);
#1478=ORIENTED_EDGE('',*,*,#365,.T.);
#1479=ORIENTED_EDGE('',*,*,#251,.F.);
#1480=ORIENTED_EDGE('',*,*,#329,.T.);
#1481=ORIENTED_EDGE('',*,*,#403,.T.);
#1482=CARTESIAN_POINT('',(0.0,0.0,-40.65));
#1483=DIRECTION('',(-0.0,-0.0,1.0));
#1484=DIRECTION('',(0.0,1.0,0.0));
#1485=DIRECTION('',(0.0,1.0,0.0));
#1486=DIRECTION('',(0.923879533286436,1.13138874662902E-016,0.382683430493714));
#1487=CARTESIAN_POINT('',(0.0,0.0,-37.0783739724423));
#1488=DIRECTION('',(-0.944648353914092,-0.0,0.328084573619969));
#1489=DIRECTION('',(0.328084573619969,0.0,0.944648353914092));
#1490=SURFACE_STYLE_FILL_AREA(#1725);
#1491=ORIENTED_EDGE('',*,*,#261,.T.);
#1492=ORIENTED_EDGE('',*,*,#373,.F.);
#1493=ORIENTED_EDGE('',*,*,#239,.T.);
#1494=ORIENTED_EDGE('',*,*,#321,.T.);
#1495=CARTESIAN_POINT('',(0.0,0.0,-0.149999999999999));
#1496=DIRECTION('',(0.0,-0.0,-1.0));
#1497=DIRECTION('',(0.0,1.0,0.0));
#1498=CARTESIAN_POINT('',(0.0,0.0,-47.0));
#1499=DIRECTION('',(0.0,0.0,-1.0));
#1500=DIRECTION('',(-1.0,0.0,0.0));
#1501=CARTESIAN_POINT('',(0.0,0.0,-35.9057073995657));
#1502=DIRECTION('',(0.0,0.0,-1.0));
#1503=DIRECTION('',(1.0,0.0,0.0));
#1504=SURFACE_STYLE_FILL_AREA(#1726);
#1505=ORIENTED_EDGE('',*,*,#385,.F.);
#1506=ORIENTED_EDGE('',*,*,#255,.F.);
#1507=ORIENTED_EDGE('',*,*,#283,.F.);
#1508=ORIENTED_EDGE('',*,*,#307,.T.);
#1509=CARTESIAN_POINT('',(-0.187444663409338,0.0,-35.9057073995657));
#1510=DIRECTION('',(0.0,0.0,1.0));
#1511=DIRECTION('',(1.0,0.0,0.0));
#1512=SURFACE_STYLE_FILL_AREA(#1727);
#1513=ORIENTED_EDGE('',*,*,#271,.F.);
#1514=ORIENTED_EDGE('',*,*,#379,.F.);
#1515=ORIENTED_EDGE('',*,*,#255,.T.);
#1516=ORIENTED_EDGE('',*,*,#327,.F.);
#1517=CARTESIAN_POINT('',(0.0521754636668867,0.0,-35.9072140041956));
#1518=DIRECTION('',(0.0,-1.0,-0.0));
#1519=DIRECTION('',(0.894321964023871,0.0,0.447423987582791));
#1520=SURFACE_STYLE_FILL_AREA(#1728);
#1521=ORIENTED_EDGE('',*,*,#339,.F.);
#1522=ORIENTED_EDGE('',*,*,#227,.F.);
#1523=ORIENTED_EDGE('',*,*,#383,.F.);
#1524=ORIENTED_EDGE('',*,*,#309,.T.);
#1525=CARTESIAN_POINT('',(-0.00945414397777439,0.0,-36.2675355566928));
#1526=DIRECTION('',(0.0,-1.0,-0.0));
#1527=DIRECTION('',(0.508265629957899,0.0,0.861200353810599));
#1528=DIRECTION('',(0.0,0.0,-1.0));
#1529=SURFACE_STYLE_FILL_AREA(#1729);
#1530=ORIENTED_EDGE('',*,*,#281,.F.);
#1531=ORIENTED_EDGE('',*,*,#363,.F.);
#1532=CARTESIAN_POINT('',(-0.25,0.0,-47.0));
#1533=DIRECTION('',(0.0,0.0,1.0));
#1534=DIRECTION('',(1.0,0.0,0.0));
#1535=SURFACE_STYLE_FILL_AREA(#1730);
#1536=DIRECTION('',(0.0,1.0,0.0));
#1537=DIRECTION('',(0.0,1.0,0.0));
#1538=SURFACE_STYLE_FILL_AREA(#1731);
#1539=ORIENTED_EDGE('',*,*,#375,.T.);
#1540=ORIENTED_EDGE('',*,*,#187,.T.);
#1541=CARTESIAN_POINT('',(0.0,0.24975,-47.0));
#1542=DIRECTION('',(0.0,0.0,-1.0));
#1543=DIRECTION('',(0.0,1.0,0.0));
#1544=SURFACE_STYLE_FILL_AREA(#1732);
#1545=ORIENTED_EDGE('',*,*,#431,.F.);
#1546=ORIENTED_EDGE('',*,*,#193,.F.);
#1547=ORIENTED_EDGE('',*,*,#347,.F.);
#1548=ORIENTED_EDGE('',*,*,#215,.T.);
#1549=ORIENTED_EDGE('',*,*,#391,.F.);
#1550=CARTESIAN_POINT('',(-0.00945405644865667,0.0,-36.2675359373674));
#1551=DIRECTION('',(-0.0,-1.0,-0.0));
#1552=DIRECTION('',(0.195537688821767,0.0,-0.980696187537324));
#1553=SURFACE_STYLE_FILL_AREA(#1733);
#1554=ORIENTED_EDGE('',*,*,#377,.F.);
#1555=ORIENTED_EDGE('',*,*,#211,.T.);
#1556=ORIENTED_EDGE('',*,*,#433,.T.);
#1557=CARTESIAN_POINT('',(0.0,0.0,-19.5));
#1558=DIRECTION('',(-0.0,-0.0,1.0));
#1559=DIRECTION('',(0.0,1.0,0.0));
#1560=CARTESIAN_POINT('',(0.0,0.0,-38.8));
#1561=DIRECTION('',(0.0,0.0,-1.0));
#1562=DIRECTION('',(0.0,1.0,0.0));
#1563=CARTESIAN_POINT('',(0.0,0.0,0.0));
#1564=DIRECTION('',(0.0,0.0,-1.0));
#1565=DIRECTION('',(0.0,1.0,0.0));
#1566=DIRECTION('',(-0.0,-0.0,1.0));
#1567=SURFACE_STYLE_FILL_AREA(#1734);
#1568=ORIENTED_EDGE('',*,*,#345,.T.);
#1569=ORIENTED_EDGE('',*,*,#263,.T.);
#1570=ORIENTED_EDGE('',*,*,#283,.T.);
#1571=ORIENTED_EDGE('',*,*,#379,.T.);
#1572=ORIENTED_EDGE('',*,*,#247,.T.);
#1573=ORIENTED_EDGE('',*,*,#383,.T.);
#1574=ORIENTED_EDGE('',*,*,#235,.T.);
#1575=ORIENTED_EDGE('',*,*,#417,.T.);
#1576=ORIENTED_EDGE('',*,*,#323,.T.);
#1577=ORIENTED_EDGE('',*,*,#275,.T.);
#1578=ORIENTED_EDGE('',*,*,#347,.T.);
#1579=CARTESIAN_POINT('',(0.0,0.0,-36.3));
#1580=DIRECTION('',(-0.0,-0.0,1.0));
#1581=DIRECTION('',(1.0,0.0,0.0));
#1582=DIRECTION('',(3.19659722668462E-017,-0.261030592949893,0.965330528650279));
#1583=SURFACE_STYLE_FILL_AREA(#1735);
#1584=ORIENTED_EDGE('',*,*,#261,.F.);
#1585=ORIENTED_EDGE('',*,*,#351,.T.);
#1586=ORIENTED_EDGE('',*,*,#239,.F.);
#1587=ORIENTED_EDGE('',*,*,#185,.F.);
#1588=CARTESIAN_POINT('',(0.0,0.0,-0.149999999999999));
#1589=DIRECTION('',(0.0,-0.0,-1.0));
#1590=DIRECTION('',(0.0,1.0,0.0));
#1591=DIRECTION('',(0.923879533286436,1.13138874662902E-016,-0.382683430493714));
#1592=SURFACE_STYLE_FILL_AREA(#1736);
#1593=ORIENTED_EDGE('',*,*,#351,.F.);
#1594=ORIENTED_EDGE('',*,*,#321,.F.);
#1595=CARTESIAN_POINT('',(0.0,0.6,0.0));
#1596=DIRECTION('',(-0.0,0.0,1.0));
#1597=DIRECTION('',(0.0,-1.0,0.0));
#1598=CARTESIAN_POINT('',(0.0,0.0,-36.3709637112193));
#1599=DIRECTION('',(0.442195774284071,0.0,-0.896918556617774));
#1600=DIRECTION('',(0.896918556617774,0.0,0.442195774284071));
#1601=DIRECTION('',(0.0,1.0,0.0));
#1602=CARTESIAN_POINT('',(0.0,0.0,0.0));
#1603=DIRECTION('',(0.0,0.0,-1.0));
#1604=DIRECTION('',(0.0,1.0,0.0));
#1605=CARTESIAN_POINT('',(0.0,0.0,-76.79289322));
#1606=DIRECTION('',(0.0,0.0,-1.0));
#1607=DIRECTION('',(-1.0,0.0,0.0));
#1608=DIRECTION('',(0.0,0.0,-1.0));
#1609=CARTESIAN_POINT('',(0.0,0.0,-47.0));
#1610=DIRECTION('',(0.0,0.0,-1.0));
#1611=DIRECTION('',(-1.0,0.0,0.0));
#1612=DIRECTION('',(3.19659722668462E-017,-0.261030592949893,-0.965330528650279));
#1613=SURFACE_STYLE_FILL_AREA(#1737);
#1614=ORIENTED_EDGE('',*,*,#429,.F.);
#1615=ORIENTED_EDGE('',*,*,#349,.F.);
#1616=ORIENTED_EDGE('',*,*,#235,.F.);
#1617=ORIENTED_EDGE('',*,*,#227,.T.);
#1618=CARTESIAN_POINT('',(0.445736688382193,0.0,-36.5633885667752));
#1619=DIRECTION('',(1.0,0.0,0.0));
#1620=DIRECTION('',(0.0,0.0,-1.0));
#1621=DIRECTION('',(-0.0,-0.0,1.0));
#1622=CARTESIAN_POINT('',(0.0,0.0,-0.299999999999997));
#1623=DIRECTION('',(0.0,0.0,-1.0));
#1624=DIRECTION('',(0.0,1.0,0.0));
#1625=CARTESIAN_POINT('',(0.0,0.0,-47.0));
#1626=DIRECTION('',(0.0,0.0,-1.0));
#1627=DIRECTION('',(0.0,1.0,0.0));
#1628=DIRECTION('',(0.0,0.0,-1.0));
#1629=CARTESIAN_POINT('',(0.0,0.0,-35.9057073995657));
#1630=DIRECTION('',(0.0,-0.0,1.0));
#1631=DIRECTION('',(0.0,1.0,0.0));
#1632=SURFACE_STYLE_FILL_AREA(#1738);
#1633=ORIENTED_EDGE('',*,*,#203,.T.);
#1634=ORIENTED_EDGE('',*,*,#249,.T.);
#1635=ORIENTED_EDGE('',*,*,#327,.T.);
#1636=ORIENTED_EDGE('',*,*,#385,.T.);
#1637=ORIENTED_EDGE('',*,*,#279,.T.);
#1638=ORIENTED_EDGE('',*,*,#377,.T.);
#1639=ORIENTED_EDGE('',*,*,#439,.T.);
#1640=ORIENTED_EDGE('',*,*,#431,.T.);
#1641=ORIENTED_EDGE('',*,*,#397,.T.);
#1642=ORIENTED_EDGE('',*,*,#403,.F.);
#1643=ORIENTED_EDGE('',*,*,#409,.T.);
#1644=ORIENTED_EDGE('',*,*,#373,.T.);
#1645=CARTESIAN_POINT('',(0.0,0.0,-19.5));
#1646=DIRECTION('',(-0.0,-0.0,1.0));
#1647=DIRECTION('',(0.0,1.0,0.0));
#1648=DIRECTION('',(0.0,1.0,0.0));
#1649=DIRECTION('',(0.0,0.0,-1.0));
#1650=SURFACE_STYLE_FILL_AREA(#1739);
#1651=ORIENTED_EDGE('',*,*,#427,.T.);
#1652=ORIENTED_EDGE('',*,*,#187,.F.);
#1653=ORIENTED_EDGE('',*,*,#243,.T.);
#1654=ORIENTED_EDGE('',*,*,#251,.T.);
#1655=CARTESIAN_POINT('',(0.0,0.0,-44.75));
#1656=DIRECTION('',(-0.0,-0.0,1.0));
#1657=DIRECTION('',(0.0,1.0,0.0));
#1658=CARTESIAN_POINT('',(0.0,0.0,-38.8));
#1659=DIRECTION('',(0.0,0.0,-1.0));
#1660=DIRECTION('',(0.0,1.0,0.0));
#1661=SURFACE_STYLE_FILL_AREA(#1740);
#1662=SURFACE_STYLE_FILL_AREA(#1741);
#1663=ORIENTED_EDGE('',*,*,#295,.F.);
#1664=ORIENTED_EDGE('',*,*,#393,.F.);
#1665=ORIENTED_EDGE('',*,*,#323,.F.);
#1666=ORIENTED_EDGE('',*,*,#223,.T.);
#1667=CARTESIAN_POINT('',(0.291186927252986,0.0,-36.2399643865364));
#1668=DIRECTION('',(-1.0,0.0,0.0));
#1669=DIRECTION('',(0.0,0.0,1.0));
#1670=DIRECTION('',(-0.0,-0.0,1.0));
#1671=SURFACE_STYLE_FILL_AREA(#1742);
#1672=ORIENTED_EDGE('',*,*,#279,.F.);
#1673=ORIENTED_EDGE('',*,*,#307,.F.);
#1674=ORIENTED_EDGE('',*,*,#263,.F.);
#1675=ORIENTED_EDGE('',*,*,#175,.T.);
#1676=ORIENTED_EDGE('',*,*,#211,.F.);
#1677=CARTESIAN_POINT('',(0.0493192504839796,0.0,-35.9087672869109));
#1678=DIRECTION('',(-0.0,-1.0,-0.0));
#1679=DIRECTION('',(0.359378942416673,0.0,-0.933191714358563));
#1680=CARTESIAN_POINT('',(0.0,0.0,-42.5));
#1681=DIRECTION('',(0.0,0.0,-1.0));
#1682=DIRECTION('',(0.0,1.0,0.0));
#1683=SURFACE_STYLE_FILL_AREA(#1743);
#1684=ORIENTED_EDGE('',*,*,#203,.F.);
#1685=ORIENTED_EDGE('',*,*,#185,.T.);
#1686=ORIENTED_EDGE('',*,*,#409,.F.);
#1687=ORIENTED_EDGE('',*,*,#319,.F.);
#1688=ORIENTED_EDGE('',*,*,#397,.F.);
#1689=ORIENTED_EDGE('',*,*,#391,.T.);
#1690=ORIENTED_EDGE('',*,*,#221,.T.);
#1691=ORIENTED_EDGE('',*,*,#295,.T.);
#1692=ORIENTED_EDGE('',*,*,#317,.T.);
#1693=ORIENTED_EDGE('',*,*,#429,.T.);
#1694=ORIENTED_EDGE('',*,*,#339,.T.);
#1695=ORIENTED_EDGE('',*,*,#305,.T.);
#1696=CARTESIAN_POINT('',(0.0,0.0,-19.5));
#1697=DIRECTION('',(-0.0,-0.0,1.0));
#1698=DIRECTION('',(0.0,1.0,0.0));
#1699=SURFACE_STYLE_FILL_AREA(#1744);
#1700=ORIENTED_EDGE('',*,*,#361,.F.);
#1701=ORIENTED_EDGE('',*,*,#281,.T.);
#1702=ORIENTED_EDGE('',*,*,#369,.F.);
#1703=ORIENTED_EDGE('',*,*,#357,.F.);
#1704=CARTESIAN_POINT('',(0.0,0.0,-61.89644661));
#1705=DIRECTION('',(-0.0,-0.0,1.0));
#1706=DIRECTION('',(-1.0,0.0,0.0));
#1707=DIRECTION('',(0.0,0.0,-1.0));
#1708=DIRECTION('',(-0.0,-0.0,1.0));
#1709=CARTESIAN_POINT('',(0.0,0.0,-36.3709637112193));
#1710=DIRECTION('',(-0.442195774284071,0.0,0.896918556617774));
#1711=DIRECTION('',(0.896918556617774,-0.0,0.442195774284071));
#1712=CARTESIAN_POINT('',(0.0,0.0,-36.3709637112193));
#1713=DIRECTION('',(-0.442195774284071,0.0,0.896918556617774));
#1714=DIRECTION('',(0.896918556617774,-0.0,0.442195774284071));
#1715=FILL_AREA_STYLE('',(#1745));
#1716=FILL_AREA_STYLE('',(#1746));
#1717=FILL_AREA_STYLE('',(#1747));
#1718=FILL_AREA_STYLE('',(#1748));
#1719=FILL_AREA_STYLE('',(#1749));
#1720=FILL_AREA_STYLE('',(#1750));
#1721=FILL_AREA_STYLE('',(#1751));
#1722=FILL_AREA_STYLE('',(#1752));
#1723=FILL_AREA_STYLE('',(#1753));
#1724=FILL_AREA_STYLE('',(#1754));
#1725=FILL_AREA_STYLE('',(#1755));
#1726=FILL_AREA_STYLE('',(#1756));
#1727=FILL_AREA_STYLE('',(#1757));
#1728=FILL_AREA_STYLE('',(#1758));
#1729=FILL_AREA_STYLE('',(#1759));
#1730=FILL_AREA_STYLE('',(#1760));
#1731=FILL_AREA_STYLE('',(#1761));
#1732=FILL_AREA_STYLE('',(#1762));
#1733=FILL_AREA_STYLE('',(#1763));
#1734=FILL_AREA_STYLE('',(#1764));
#1735=FILL_AREA_STYLE('',(#1765));
#1736=FILL_AREA_STYLE('',(#1766));
#1737=FILL_AREA_STYLE('',(#1767));
#1738=FILL_AREA_STYLE('',(#1768));
#1739=FILL_AREA_STYLE('',(#1769));
#1740=FILL_AREA_STYLE('',(#1770));
#1741=FILL_AREA_STYLE('',(#1771));
#1742=FILL_AREA_STYLE('',(#1772));
#1743=FILL_AREA_STYLE('',(#1773));
#1744=FILL_AREA_STYLE('',(#1774));
#1745=FILL_AREA_STYLE_COLOUR('',#1775);
#1746=FILL_AREA_STYLE_COLOUR('',#1776);
#1747=FILL_AREA_STYLE_COLOUR('',#1777);
#1748=FILL_AREA_STYLE_COLOUR('',#1778);
#1749=FILL_AREA_STYLE_COLOUR('',#1779);
#1750=FILL_AREA_STYLE_COLOUR('',#1780);
#1751=FILL_AREA_STYLE_COLOUR('',#1781);
#1752=FILL_AREA_STYLE_COLOUR('',#1782);
#1753=FILL_AREA_STYLE_COLOUR('',#1783);
#1754=FILL_AREA_STYLE_COLOUR('',#1784);
#1755=FILL_AREA_STYLE_COLOUR('',#1785);
#1756=FILL_AREA_STYLE_COLOUR('',#1786);
#1757=FILL_AREA_STYLE_COLOUR('',#1787);
#1758=FILL_AREA_STYLE_COLOUR('',#1788);
#1759=FILL_AREA_STYLE_COLOUR('',#1789);
#1760=FILL_AREA_STYLE_COLOUR('',#1790);
#1761=FILL_AREA_STYLE_COLOUR('',#1791);
#1762=FILL_AREA_STYLE_COLOUR('',#1792);
#1763=FILL_AREA_STYLE_COLOUR('',#1793);
#1764=FILL_AREA_STYLE_COLOUR('',#1794);
#1765=FILL_AREA_STYLE_COLOUR('',#1795);
#1766=FILL_AREA_STYLE_COLOUR('',#1796);
#1767=FILL_AREA_STYLE_COLOUR('',#1797);
#1768=FILL_AREA_STYLE_COLOUR('',#1798);
#1769=FILL_AREA_STYLE_COLOUR('',#1799);
#1770=FILL_AREA_STYLE_COLOUR('',#1800);
#1771=FILL_AREA_STYLE_COLOUR('',#1801);
#1772=FILL_AREA_STYLE_COLOUR('',#1802);
#1773=FILL_AREA_STYLE_COLOUR('',#1803);
#1774=FILL_AREA_STYLE_COLOUR('',#1804);
#1775=COLOUR_RGB('',0.200000002980232,0.600000023841858,1.0);
#1776=COLOUR_RGB('',0.200000002980232,0.600000023841858,1.0);
#1777=COLOUR_RGB('',0.200000002980232,0.600000023841858,1.0);
#1778=COLOUR_RGB('',0.800000011920929,0.800000011920929,0.800000011920929);
#1779=COLOUR_RGB('',0.800000011920929,0.800000011920929,0.800000011920929);
#1780=COLOUR_RGB('',0.498039215803146,0.498039215803146,0.498039215803146);
#1781=COLOUR_RGB('',0.200000002980232,0.600000023841858,1.0);
#1782=COLOUR_RGB('',0.800000011920929,0.800000011920929,0.800000011920929);
#1783=COLOUR_RGB('',0.498039215803146,0.498039215803146,0.498039215803146);
#1784=COLOUR_RGB('',0.498039215803146,0.498039215803146,0.498039215803146);
#1785=COLOUR_RGB('',0.498039215803146,0.498039215803146,0.498039215803146);
#1786=COLOUR_RGB('',0.200000002980232,0.600000023841858,1.0);
#1787=COLOUR_RGB('',0.200000002980232,0.600000023841858,1.0);
#1788=COLOUR_RGB('',0.200000002980232,0.600000023841858,1.0);
#1789=COLOUR_RGB('',0.800000011920929,0.800000011920929,0.800000011920929);
#1790=COLOUR_RGB('',0.498039215803146,0.498039215803146,0.498039215803146);
#1791=COLOUR_RGB('',0.498039215803146,0.498039215803146,0.498039215803146);
#1792=COLOUR_RGB('',0.200000002980232,0.600000023841858,1.0);
#1793=COLOUR_RGB('',0.498039215803146,0.498039215803146,0.498039215803146);
#1794=COLOUR_RGB('',0.200000002980232,0.600000023841858,1.0);
#1795=COLOUR_RGB('',0.498039215803146,0.498039215803146,0.498039215803146);
#1796=COLOUR_RGB('',0.498039215803146,0.498039215803146,0.498039215803146);
#1797=COLOUR_RGB('',0.200000002980232,0.600000023841858,1.0);
#1798=COLOUR_RGB('',0.498039215803146,0.498039215803146,0.498039215803146);
#1799=COLOUR_RGB('',0.498039215803146,0.498039215803146,0.498039215803146);
#1800=COLOUR_RGB('',0.800000011920929,0.800000011920929,0.800000011920929);
#1801=COLOUR_RGB('',0.200000002980232,0.600000023841858,1.0);
#1802=COLOUR_RGB('',0.200000002980232,0.600000023841858,1.0);
#1803=COLOUR_RGB('',0.498039215803146,0.498039215803146,0.498039215803146);
#1804=COLOUR_RGB('',0.800000011920929,0.800000011920929,0.800000011920929);
#1805=AXIS2_PLACEMENT_3D('CIP',#1806,#1807,#1808);
#1806=CARTESIAN_POINT('',(0.0,0.0,-77.0));
#1807=DIRECTION('',(0.0,0.0,1.0));
#1808=DIRECTION('',(1.0,0.0,0.0));
#1809=AXIS2_PLACEMENT_3D('CRP',#1810,#1811,#1812);
#1810=CARTESIAN_POINT('',(-0.5,0.0,-76.79289322));
#1811=DIRECTION('',(0.0,0.0,1.0));
#1812=DIRECTION('',(1.0,0.0,0.0));
#1813=AXIS2_PLACEMENT_3D('MCS',#1814,#1815,#1816);
#1814=CARTESIAN_POINT('',(0.0,0.0,-38.7));
#1815=DIRECTION('',(0.0,0.0,1.0));
#1816=DIRECTION('',(1.0,0.0,0.0));
#1817=AXIS2_PLACEMENT_3D('PCS',#1818,#1819,#1820);
#1818=CARTESIAN_POINT('',(0.0,0.0,0.0));
#1819=DIRECTION('',(0.0,0.0,1.0));
#1820=DIRECTION('',(1.0,0.0,0.0));
#1821=CONSTRUCTIVE_GEOMETRY_REPRESENTATION_RELATIONSHIP('coordinate systems',$,#154,#1822);
#1822=CONSTRUCTIVE_GEOMETRY_REPRESENTATION('coordinate systems',(#1805,#1809,#1813,#1817),#10);
ENDSEC;
END-ISO-10303-21;
