ISO-10303-21;
HEADER;
FILE_DESCRIPTION(('no description'),'unknown implementation level');
FILE_NAME('solid5XcaXWA8f8ArflfyPioff9qnPRU_1.STP','  ',('CIMSOURCE GmbH'),('CADClick - KiM GmbH - www.kimweb.de'),'unknown preprocess','ACIS','unknown authorization');
FILE_SCHEMA(('automotive_design'));
ENDSEC;
DATA;
#1=MECHANICAL_DESIGN_GEOMETRIC_PRESENTATION_REPRESENTATION(' ',(#14,#15,#16,#17,#18,#19,#20,#21,#22,#23,#24,#25,#26,#27,#28,#29,#30,#31,#32,#33,#34,#35,#36,#37,#38,#39,#40,#41,#42,#43,#44,#45,#46,#47,#48,#49,#50,#51,#52,#53,#54,#55,#56,#57,#58,#59,#60,#61,#62,#63,#64,#65,#66,#67,#68,#69,#70,#71,#72,#73,#74,#75,#76,#77,#78,#79,#80,#81,#82,#83,#84,#85,#86,#87,#88,#89,#90,#91,#92,#93,#94,#95,#96,#97,#98,#99,#100,#101,#102,#103,#104,#105,#106,#107,#108,#109,#110,#111,#112,#113,#114,#115,#116,#117,#118,#119,#120,#121,#122,#123,#124,#125,#126,#127,#128,#129,#130,#131,#132,#133,#134,#135,#136,#137,#138,#139,#140,#141,#142,#143,#144,#145,#146,#147,#148,#149),#10);
#2=PRODUCT_DEFINITION_CONTEXT('',#150,'design');
#3=APPLICATION_PROTOCOL_DEFINITION('INTERNATIONAL STANDARD','automotive_design',1994,#150);
#4=PRODUCT_CATEGORY_RELATIONSHIP('NONE','NONE',#151,#152);
#5=SHAPE_DEFINITION_REPRESENTATION(#153,#154);
#6=PRODUCT_DEFINITION_CONTEXT('',#155,'design');
#7=APPLICATION_PROTOCOL_DEFINITION('INTERNATIONAL STANDARD','automotive_design',1994,#155);
#8=PRODUCT_CATEGORY_RELATIONSHIP('NONE','NONE',#156,#157);
#9=SHAPE_DEFINITION_REPRESENTATION(#158,#159);
#10= (GEOMETRIC_REPRESENTATION_CONTEXT(3)GLOBAL_UNCERTAINTY_ASSIGNED_CONTEXT((#162))GLOBAL_UNIT_ASSIGNED_CONTEXT((#164,#165,#166))REPRESENTATION_CONTEXT('NONE','WORKSPACE'));
#14=STYLED_ITEM('',(#168),#169);
#15=STYLED_ITEM('',(#170),#171);
#16=STYLED_ITEM('',(#172),#173);
#17=STYLED_ITEM('',(#174),#175);
#18=STYLED_ITEM('',(#176),#177);
#19=STYLED_ITEM('',(#178),#179);
#20=STYLED_ITEM('',(#180),#181);
#21=STYLED_ITEM('',(#182),#183);
#22=STYLED_ITEM('',(#184),#185);
#23=STYLED_ITEM('',(#186),#187);
#24=STYLED_ITEM('',(#188),#189);
#25=STYLED_ITEM('',(#190),#191);
#26=STYLED_ITEM('',(#192),#193);
#27=STYLED_ITEM('',(#194),#195);
#28=STYLED_ITEM('',(#196),#197);
#29=STYLED_ITEM('',(#198),#199);
#30=STYLED_ITEM('',(#200),#201);
#31=STYLED_ITEM('',(#202),#203);
#32=STYLED_ITEM('',(#204),#205);
#33=STYLED_ITEM('',(#206),#207);
#34=STYLED_ITEM('',(#208),#209);
#35=STYLED_ITEM('',(#210),#211);
#36=STYLED_ITEM('',(#212),#213);
#37=STYLED_ITEM('',(#214),#215);
#38=STYLED_ITEM('',(#216),#217);
#39=STYLED_ITEM('',(#218),#219);
#40=STYLED_ITEM('',(#220),#221);
#41=STYLED_ITEM('',(#222),#223);
#42=STYLED_ITEM('',(#224),#225);
#43=STYLED_ITEM('',(#226),#227);
#44=STYLED_ITEM('',(#228),#229);
#45=STYLED_ITEM('',(#230),#231);
#46=STYLED_ITEM('',(#232),#233);
#47=STYLED_ITEM('',(#234),#235);
#48=STYLED_ITEM('',(#236),#237);
#49=STYLED_ITEM('',(#238),#239);
#50=STYLED_ITEM('',(#240),#241);
#51=STYLED_ITEM('',(#242),#243);
#52=STYLED_ITEM('',(#244),#245);
#53=STYLED_ITEM('',(#246),#247);
#54=STYLED_ITEM('',(#248),#249);
#55=STYLED_ITEM('',(#250),#251);
#56=STYLED_ITEM('',(#252),#253);
#57=STYLED_ITEM('',(#254),#255);
#58=STYLED_ITEM('',(#256),#257);
#59=STYLED_ITEM('',(#258),#259);
#60=STYLED_ITEM('',(#260),#261);
#61=STYLED_ITEM('',(#262),#263);
#62=STYLED_ITEM('',(#264),#265);
#63=STYLED_ITEM('',(#266),#267);
#64=STYLED_ITEM('',(#268),#269);
#65=STYLED_ITEM('',(#270),#271);
#66=STYLED_ITEM('',(#272),#273);
#67=STYLED_ITEM('',(#274),#275);
#68=STYLED_ITEM('',(#276),#277);
#69=STYLED_ITEM('',(#278),#279);
#70=STYLED_ITEM('',(#280),#281);
#71=STYLED_ITEM('',(#282),#283);
#72=STYLED_ITEM('',(#284),#285);
#73=STYLED_ITEM('',(#286),#287);
#74=STYLED_ITEM('',(#288),#289);
#75=STYLED_ITEM('',(#290),#291);
#76=STYLED_ITEM('',(#292),#293);
#77=STYLED_ITEM('',(#294),#295);
#78=STYLED_ITEM('',(#296),#297);
#79=STYLED_ITEM('',(#298),#299);
#80=STYLED_ITEM('',(#300),#301);
#81=STYLED_ITEM('',(#302),#303);
#82=STYLED_ITEM('',(#304),#305);
#83=STYLED_ITEM('',(#306),#307);
#84=STYLED_ITEM('',(#308),#309);
#85=STYLED_ITEM('',(#310),#311);
#86=STYLED_ITEM('',(#312),#313);
#87=STYLED_ITEM('',(#314),#315);
#88=STYLED_ITEM('',(#316),#317);
#89=STYLED_ITEM('',(#318),#319);
#90=STYLED_ITEM('',(#320),#321);
#91=STYLED_ITEM('',(#322),#323);
#92=STYLED_ITEM('',(#324),#325);
#93=STYLED_ITEM('',(#326),#327);
#94=STYLED_ITEM('',(#328),#329);
#95=STYLED_ITEM('',(#330),#331);
#96=STYLED_ITEM('',(#332),#333);
#97=STYLED_ITEM('',(#334),#335);
#98=STYLED_ITEM('',(#336),#337);
#99=STYLED_ITEM('',(#338),#339);
#100=STYLED_ITEM('',(#340),#341);
#101=STYLED_ITEM('',(#342),#343);
#102=STYLED_ITEM('',(#344),#345);
#103=STYLED_ITEM('',(#346),#347);
#104=STYLED_ITEM('',(#348),#349);
#105=STYLED_ITEM('',(#350),#351);
#106=STYLED_ITEM('',(#352),#353);
#107=STYLED_ITEM('',(#354),#355);
#108=STYLED_ITEM('',(#356),#357);
#109=STYLED_ITEM('',(#358),#359);
#110=STYLED_ITEM('',(#360),#361);
#111=STYLED_ITEM('',(#362),#363);
#112=STYLED_ITEM('',(#364),#365);
#113=STYLED_ITEM('',(#366),#367);
#114=STYLED_ITEM('',(#368),#369);
#115=STYLED_ITEM('',(#370),#371);
#116=STYLED_ITEM('',(#372),#373);
#117=STYLED_ITEM('',(#374),#375);
#118=STYLED_ITEM('',(#376),#377);
#119=STYLED_ITEM('',(#378),#379);
#120=STYLED_ITEM('',(#380),#381);
#121=STYLED_ITEM('',(#382),#383);
#122=STYLED_ITEM('',(#384),#385);
#123=STYLED_ITEM('',(#386),#387);
#124=STYLED_ITEM('',(#388),#389);
#125=STYLED_ITEM('',(#390),#391);
#126=STYLED_ITEM('',(#392),#393);
#127=STYLED_ITEM('',(#394),#395);
#128=STYLED_ITEM('',(#396),#397);
#129=STYLED_ITEM('',(#398),#399);
#130=STYLED_ITEM('',(#400),#401);
#131=STYLED_ITEM('',(#402),#403);
#132=STYLED_ITEM('',(#404),#405);
#133=STYLED_ITEM('',(#406),#407);
#134=STYLED_ITEM('',(#408),#409);
#135=STYLED_ITEM('',(#410),#411);
#136=STYLED_ITEM('',(#412),#413);
#137=STYLED_ITEM('',(#414),#415);
#138=STYLED_ITEM('',(#416),#417);
#139=STYLED_ITEM('',(#418),#419);
#140=STYLED_ITEM('',(#420),#421);
#141=STYLED_ITEM('',(#422),#423);
#142=STYLED_ITEM('',(#424),#425);
#143=STYLED_ITEM('',(#426),#427);
#144=STYLED_ITEM('',(#428),#429);
#145=STYLED_ITEM('',(#430),#431);
#146=STYLED_ITEM('',(#432),#433);
#147=STYLED_ITEM('',(#434),#435);
#148=STYLED_ITEM('',(#436),#437);
#149=STYLED_ITEM('',(#438),#439);
#150=APPLICATION_CONTEXT(' ');
#151=PRODUCT_CATEGORY('part','NONE');
#152=PRODUCT_RELATED_PRODUCT_CATEGORY('detail',' ',(#440));
#153=PRODUCT_DEFINITION_SHAPE('NONE','NONE',#441);
#154=ADVANCED_BREP_SHAPE_REPRESENTATION('NOCUT',(#233,#442),#10);
#155=APPLICATION_CONTEXT(' ');
#156=PRODUCT_CATEGORY('part','NONE');
#157=PRODUCT_RELATED_PRODUCT_CATEGORY('detail',' ',(#443));
#158=PRODUCT_DEFINITION_SHAPE('NONE','NONE',#444);
#159=ADVANCED_BREP_SHAPE_REPRESENTATION('CUT',(#279,#445),#10);
#162=UNCERTAINTY_MEASURE_WITH_UNIT(LENGTH_MEASURE(1.0E-006),#164,'','');
#164= (CONVERSION_BASED_UNIT('MILLIMETRE',#448)LENGTH_UNIT()NAMED_UNIT(#451));
#165= (NAMED_UNIT(#453)PLANE_ANGLE_UNIT()SI_UNIT($,.RADIAN.));
#166= (NAMED_UNIT(#453)SOLID_ANGLE_UNIT()SI_UNIT($,.STERADIAN.));
#168=PRESENTATION_STYLE_ASSIGNMENT((#459));
#169=VERTEX_POINT('',#460);
#170=PRESENTATION_STYLE_ASSIGNMENT((#461));
#171=ADVANCED_FACE('',(#462),#463,.T.);
#172=PRESENTATION_STYLE_ASSIGNMENT((#464));
#173=EDGE_CURVE('',#283,#209,#465,.T.);
#174=PRESENTATION_STYLE_ASSIGNMENT((#466));
#175=ADVANCED_FACE('',(#467),#468,.F.);
#176=PRESENTATION_STYLE_ASSIGNMENT((#469));
#177=EDGE_CURVE('',#223,#271,#470,.T.);
#178=PRESENTATION_STYLE_ASSIGNMENT((#471));
#179=VERTEX_POINT('',#472);
#180=PRESENTATION_STYLE_ASSIGNMENT((#473));
#181=VERTEX_POINT('',#474);
#182=PRESENTATION_STYLE_ASSIGNMENT((#475));
#183=EDGE_CURVE('',#345,#219,#476,.T.);
#184=PRESENTATION_STYLE_ASSIGNMENT((#477));
#185=VERTEX_POINT('',#478);
#186=PRESENTATION_STYLE_ASSIGNMENT((#479));
#187=EDGE_CURVE('',#371,#433,#480,.T.);
#188=PRESENTATION_STYLE_ASSIGNMENT((#481));
#189=EDGE_CURVE('',#433,#407,#482,.T.);
#190=PRESENTATION_STYLE_ASSIGNMENT((#483));
#191=ADVANCED_FACE('',(#484),#485,.T.);
#192=PRESENTATION_STYLE_ASSIGNMENT((#486));
#193=VERTEX_POINT('',#487);
#194=PRESENTATION_STYLE_ASSIGNMENT((#488));
#195=EDGE_CURVE('',#393,#193,#489,.T.);
#196=PRESENTATION_STYLE_ASSIGNMENT((#490));
#197=ADVANCED_FACE('',(#491),#492,.F.);
#198=PRESENTATION_STYLE_ASSIGNMENT((#493));
#199=ADVANCED_FACE('',(#494),#495,.T.);
#200=PRESENTATION_STYLE_ASSIGNMENT((#496));
#201=EDGE_CURVE('',#367,#257,#497,.T.);
#202=PRESENTATION_STYLE_ASSIGNMENT((#498));
#203=VERTEX_POINT('',#499);
#204=PRESENTATION_STYLE_ASSIGNMENT((#500));
#205=EDGE_CURVE('',#371,#389,#501,.T.);
#206=PRESENTATION_STYLE_ASSIGNMENT((#502));
#207=VERTEX_POINT('',#503);
#208=PRESENTATION_STYLE_ASSIGNMENT((#504));
#209=VERTEX_POINT('',#505);
#210=PRESENTATION_STYLE_ASSIGNMENT((#506));
#211=EDGE_CURVE('',#305,#403,#507,.T.);
#212=PRESENTATION_STYLE_ASSIGNMENT((#508));
#213=EDGE_CURVE('',#257,#307,#509,.T.);
#214=PRESENTATION_STYLE_ASSIGNMENT((#510));
#215=VERTEX_POINT('',#511);
#216=PRESENTATION_STYLE_ASSIGNMENT((#512));
#217=EDGE_CURVE('',#283,#325,#513,.T.);
#218=PRESENTATION_STYLE_ASSIGNMENT((#514));
#219=VERTEX_POINT('',#515);
#220=PRESENTATION_STYLE_ASSIGNMENT((#516));
#221=VERTEX_POINT('',#517);
#222=PRESENTATION_STYLE_ASSIGNMENT((#518));
#223=VERTEX_POINT('',#519);
#224=PRESENTATION_STYLE_ASSIGNMENT((#520));
#225=EDGE_CURVE('',#169,#247,#521,.T.);
#226=PRESENTATION_STYLE_ASSIGNMENT((#522));
#227=EDGE_CURVE('',#215,#381,#523,.T.);
#228=PRESENTATION_STYLE_ASSIGNMENT((#524));
#229=ADVANCED_FACE('',(#525),#526,.T.);
#230=PRESENTATION_STYLE_ASSIGNMENT((#527));
#231=EDGE_CURVE('',#269,#409,#528,.T.);
#232=PRESENTATION_STYLE_ASSIGNMENT((#529));
#233=MANIFOLD_SOLID_BREP('NOCUT',#530);
#234=PRESENTATION_STYLE_ASSIGNMENT((#531));
#235=EDGE_CURVE('',#295,#223,#532,.T.);
#236=PRESENTATION_STYLE_ASSIGNMENT((#533));
#237=EDGE_CURVE('',#381,#283,#534,.T.);
#238=PRESENTATION_STYLE_ASSIGNMENT((#535));
#239=ADVANCED_FACE('',(#536),#537,.T.);
#240=PRESENTATION_STYLE_ASSIGNMENT((#538));
#241=EDGE_CURVE('',#305,#369,#539,.T.);
#242=PRESENTATION_STYLE_ASSIGNMENT((#540));
#243=VERTEX_POINT('',#541);
#244=PRESENTATION_STYLE_ASSIGNMENT((#542));
#245=EDGE_CURVE('',#433,#219,#543,.T.);
#246=PRESENTATION_STYLE_ASSIGNMENT((#544));
#247=VERTEX_POINT('',#545);
#248=PRESENTATION_STYLE_ASSIGNMENT((#546));
#249=VERTEX_POINT('',#547);
#250=PRESENTATION_STYLE_ASSIGNMENT((#548));
#251=EDGE_CURVE('',#409,#305,#549,.T.);
#252=PRESENTATION_STYLE_ASSIGNMENT((#550));
#253=EDGE_CURVE('',#209,#325,#551,.T.);
#254=PRESENTATION_STYLE_ASSIGNMENT((#552));
#255=VERTEX_POINT('',#553);
#256=PRESENTATION_STYLE_ASSIGNMENT((#554));
#257=VERTEX_POINT('',#555);
#258=PRESENTATION_STYLE_ASSIGNMENT((#556));
#259=EDGE_CURVE('',#345,#255,#557,.T.);
#260=PRESENTATION_STYLE_ASSIGNMENT((#558));
#261=ADVANCED_FACE('',(#559),#560,.F.);
#262=PRESENTATION_STYLE_ASSIGNMENT((#561));
#263=ADVANCED_FACE('',(#562),#563,.T.);
#264=PRESENTATION_STYLE_ASSIGNMENT((#564));
#265=VERTEX_POINT('',#565);
#266=PRESENTATION_STYLE_ASSIGNMENT((#566));
#267=ADVANCED_FACE('',(#567),#568,.T.);
#268=PRESENTATION_STYLE_ASSIGNMENT((#569));
#269=VERTEX_POINT('',#570);
#270=PRESENTATION_STYLE_ASSIGNMENT((#571));
#271=VERTEX_POINT('',#572);
#272=PRESENTATION_STYLE_ASSIGNMENT((#573));
#273=EDGE_CURVE('',#425,#221,#574,.T.);
#274=PRESENTATION_STYLE_ASSIGNMENT((#575));
#275=EDGE_CURVE('',#271,#203,#576,.T.);
#276=PRESENTATION_STYLE_ASSIGNMENT((#577));
#277=EDGE_CURVE('',#295,#363,#578,.T.);
#278=PRESENTATION_STYLE_ASSIGNMENT((#579));
#279=MANIFOLD_SOLID_BREP('CUT',#580);
#280=PRESENTATION_STYLE_ASSIGNMENT((#581));
#281=EDGE_CURVE('',#185,#203,#582,.T.);
#282=PRESENTATION_STYLE_ASSIGNMENT((#583));
#283=VERTEX_POINT('',#584);
#284=PRESENTATION_STYLE_ASSIGNMENT((#585));
#285=EDGE_CURVE('',#325,#215,#586,.T.);
#286=PRESENTATION_STYLE_ASSIGNMENT((#587));
#287=EDGE_CURVE('',#249,#243,#588,.T.);
#288=PRESENTATION_STYLE_ASSIGNMENT((#589));
#289=ADVANCED_FACE('',(#590),#591,.T.);
#290=PRESENTATION_STYLE_ASSIGNMENT((#592));
#291=EDGE_CURVE('',#325,#283,#593,.T.);
#292=PRESENTATION_STYLE_ASSIGNMENT((#594));
#293=ADVANCED_FACE('',(#595),#596,.T.);
#294=PRESENTATION_STYLE_ASSIGNMENT((#597));
#295=VERTEX_POINT('',#598);
#296=PRESENTATION_STYLE_ASSIGNMENT((#599));
#297=EDGE_CURVE('',#257,#295,#600,.T.);
#298=PRESENTATION_STYLE_ASSIGNMENT((#601));
#299=EDGE_CURVE('',#367,#269,#602,.T.);
#300=PRESENTATION_STYLE_ASSIGNMENT((#603));
#301=ADVANCED_FACE('',(#604),#605,.F.);
#302=PRESENTATION_STYLE_ASSIGNMENT((#606));
#303=EDGE_CURVE('',#387,#185,#607,.T.);
#304=PRESENTATION_STYLE_ASSIGNMENT((#608));
#305=VERTEX_POINT('',#609);
#306=PRESENTATION_STYLE_ASSIGNMENT((#610));
#307=VERTEX_POINT('',#611);
#308=PRESENTATION_STYLE_ASSIGNMENT((#612));
#309=EDGE_CURVE('',#221,#255,#613,.T.);
#310=PRESENTATION_STYLE_ASSIGNMENT((#614));
#311=ADVANCED_FACE('',(#615),#616,.F.);
#312=PRESENTATION_STYLE_ASSIGNMENT((#617));
#313=EDGE_CURVE('',#265,#395,#618,.T.);
#314=PRESENTATION_STYLE_ASSIGNMENT((#619));
#315=EDGE_CURVE('',#207,#345,#620,.T.);
#316=PRESENTATION_STYLE_ASSIGNMENT((#621));
#317=EDGE_CURVE('',#265,#249,#622,.T.);
#318=PRESENTATION_STYLE_ASSIGNMENT((#623));
#319=ADVANCED_FACE('',(#624),#625,.F.);
#320=PRESENTATION_STYLE_ASSIGNMENT((#626));
#321=VERTEX_POINT('',#627);
#322=PRESENTATION_STYLE_ASSIGNMENT((#628));
#323=ADVANCED_FACE('',(#629),#630,.T.);
#324=PRESENTATION_STYLE_ASSIGNMENT((#631));
#325=VERTEX_POINT('',#632);
#326=PRESENTATION_STYLE_ASSIGNMENT((#633));
#327=EDGE_CURVE('',#307,#269,#634,.T.);
#328=PRESENTATION_STYLE_ASSIGNMENT((#635));
#329=EDGE_CURVE('',#247,#169,#636,.T.);
#330=PRESENTATION_STYLE_ASSIGNMENT((#637));
#331=ADVANCED_FACE('',(#638),#639,.F.);
#332=PRESENTATION_STYLE_ASSIGNMENT((#640));
#333=EDGE_CURVE('',#219,#389,#641,.T.);
#334=PRESENTATION_STYLE_ASSIGNMENT((#642));
#335=EDGE_CURVE('',#181,#395,#643,.T.);
#336=PRESENTATION_STYLE_ASSIGNMENT((#644));
#337=EDGE_CURVE('',#387,#371,#645,.T.);
#338=PRESENTATION_STYLE_ASSIGNMENT((#646));
#339=EDGE_CURVE('',#271,#387,#647,.T.);
#340=PRESENTATION_STYLE_ASSIGNMENT((#648));
#341=EDGE_CURVE('',#381,#215,#649,.T.);
#342=PRESENTATION_STYLE_ASSIGNMENT((#650));
#343=EDGE_CURVE('',#203,#179,#651,.T.);
#344=PRESENTATION_STYLE_ASSIGNMENT((#652));
#345=VERTEX_POINT('',#653);
#346=PRESENTATION_STYLE_ASSIGNMENT((#654));
#347=EDGE_CURVE('',#179,#363,#655,.T.);
#348=PRESENTATION_STYLE_ASSIGNMENT((#656));
#349=EDGE_CURVE('',#389,#185,#657,.T.);
#350=PRESENTATION_STYLE_ASSIGNMENT((#658));
#351=EDGE_CURVE('',#363,#243,#659,.T.);
#352=PRESENTATION_STYLE_ASSIGNMENT((#660));
#353=ADVANCED_FACE('',(#661),#662,.F.);
#354=PRESENTATION_STYLE_ASSIGNMENT((#663));
#355=EDGE_CURVE('',#243,#307,#664,.T.);
#356=PRESENTATION_STYLE_ASSIGNMENT((#665));
#357=ADVANCED_FACE('',(#666),#667,.T.);
#358=PRESENTATION_STYLE_ASSIGNMENT((#668));
#359=ADVANCED_FACE('',(#669),#670,.T.);
#360=PRESENTATION_STYLE_ASSIGNMENT((#671));
#361=EDGE_CURVE('',#255,#221,#672,.T.);
#362=PRESENTATION_STYLE_ASSIGNMENT((#673));
#363=VERTEX_POINT('',#674);
#364=PRESENTATION_STYLE_ASSIGNMENT((#675));
#365=EDGE_CURVE('',#193,#409,#676,.T.);
#366=PRESENTATION_STYLE_ASSIGNMENT((#677));
#367=VERTEX_POINT('',#678);
#368=PRESENTATION_STYLE_ASSIGNMENT((#679));
#369=VERTEX_POINT('',#680);
#370=PRESENTATION_STYLE_ASSIGNMENT((#681));
#371=VERTEX_POINT('',#682);
#372=PRESENTATION_STYLE_ASSIGNMENT((#683));
#373=ADVANCED_FACE('',(#684),#685,.T.);
#374=PRESENTATION_STYLE_ASSIGNMENT((#686));
#375=EDGE_CURVE('',#255,#321,#687,.T.);
#376=PRESENTATION_STYLE_ASSIGNMENT((#688));
#377=EDGE_CURVE('',#221,#265,#689,.T.);
#378=PRESENTATION_STYLE_ASSIGNMENT((#690));
#379=EDGE_CURVE('',#395,#181,#691,.T.);
#380=PRESENTATION_STYLE_ASSIGNMENT((#692));
#381=VERTEX_POINT('',#693);
#382=PRESENTATION_STYLE_ASSIGNMENT((#694));
#383=ADVANCED_FACE('',(#695),#696,.T.);
#384=PRESENTATION_STYLE_ASSIGNMENT((#697));
#385=EDGE_CURVE('',#181,#249,#698,.T.);
#386=PRESENTATION_STYLE_ASSIGNMENT((#699));
#387=VERTEX_POINT('',#700);
#388=PRESENTATION_STYLE_ASSIGNMENT((#701));
#389=VERTEX_POINT('',#702);
#390=PRESENTATION_STYLE_ASSIGNMENT((#703));
#391=EDGE_CURVE('',#425,#321,#704,.T.);
#392=PRESENTATION_STYLE_ASSIGNMENT((#705));
#393=VERTEX_POINT('',#706);
#394=PRESENTATION_STYLE_ASSIGNMENT((#707));
#395=VERTEX_POINT('',#708);
#396=PRESENTATION_STYLE_ASSIGNMENT((#709));
#397=EDGE_CURVE('',#249,#265,#710,.T.);
#398=PRESENTATION_STYLE_ASSIGNMENT((#711));
#399=EDGE_CURVE('',#193,#367,#712,.T.);
#400=PRESENTATION_STYLE_ASSIGNMENT((#713));
#401=EDGE_CURVE('',#321,#247,#714,.T.);
#402=PRESENTATION_STYLE_ASSIGNMENT((#715));
#403=VERTEX_POINT('',#716);
#404=PRESENTATION_STYLE_ASSIGNMENT((#717));
#405=EDGE_CURVE('',#321,#425,#718,.T.);
#406=PRESENTATION_STYLE_ASSIGNMENT((#719));
#407=VERTEX_POINT('',#720);
#408=PRESENTATION_STYLE_ASSIGNMENT((#721));
#409=VERTEX_POINT('',#722);
#410=PRESENTATION_STYLE_ASSIGNMENT((#723));
#411=ADVANCED_FACE('',(#724),#725,.T.);
#412=PRESENTATION_STYLE_ASSIGNMENT((#726));
#413=EDGE_CURVE('',#407,#393,#727,.T.);
#414=PRESENTATION_STYLE_ASSIGNMENT((#728));
#415=EDGE_CURVE('',#407,#207,#729,.T.);
#416=PRESENTATION_STYLE_ASSIGNMENT((#730));
#417=ADVANCED_FACE('',(#731),#732,.T.);
#418=PRESENTATION_STYLE_ASSIGNMENT((#733));
#419=EDGE_CURVE('',#403,#207,#734,.T.);
#420=PRESENTATION_STYLE_ASSIGNMENT((#735));
#421=EDGE_CURVE('',#169,#425,#736,.T.);
#422=PRESENTATION_STYLE_ASSIGNMENT((#737));
#423=ADVANCED_FACE('',(#738),#739,.T.);
#424=PRESENTATION_STYLE_ASSIGNMENT((#740));
#425=VERTEX_POINT('',#741);
#426=PRESENTATION_STYLE_ASSIGNMENT((#742));
#427=ADVANCED_FACE('',(#743),#744,.T.);
#428=PRESENTATION_STYLE_ASSIGNMENT((#745));
#429=EDGE_CURVE('',#223,#179,#746,.T.);
#430=PRESENTATION_STYLE_ASSIGNMENT((#747));
#431=ADVANCED_FACE('',(#748),#749,.F.);
#432=PRESENTATION_STYLE_ASSIGNMENT((#750));
#433=VERTEX_POINT('',#751);
#434=PRESENTATION_STYLE_ASSIGNMENT((#752));
#435=EDGE_CURVE('',#393,#369,#753,.T.);
#436=PRESENTATION_STYLE_ASSIGNMENT((#754));
#437=EDGE_CURVE('',#369,#403,#755,.T.);
#438=PRESENTATION_STYLE_ASSIGNMENT((#756));
#439=ADVANCED_FACE('',(#757),#758,.T.);
#440=PRODUCT('NOCUT','NOCUT','PART-NOCUT-DESC',(#759));
#441=PRODUCT_DEFINITION('NONE','NONE',#760,#2);
#442=AXIS2_PLACEMENT_3D('',#761,#762,#763);
#443=PRODUCT('CUT','CUT','PART-CUT-DESC',(#764));
#444=PRODUCT_DEFINITION('NONE','NONE',#765,#6);
#445=AXIS2_PLACEMENT_3D('',#766,#767,#768);
#448=LENGTH_MEASURE_WITH_UNIT(LENGTH_MEASURE(1.0),#769);
#451=DIMENSIONAL_EXPONENTS(1.0,0.0,0.0,0.0,0.0,0.0,0.0);
#453=DIMENSIONAL_EXPONENTS(0.0,0.0,0.0,0.0,0.0,0.0,0.0);
#459=POINT_STYLE(' ',#770,POSITIVE_LENGTH_MEASURE(1.0E-006),#771);
#460=CARTESIAN_POINT('',(6.11690873734277E-017,-0.4995,-48.0));
#461=SURFACE_STYLE_USAGE(.BOTH.,#772);
#462=FACE_OUTER_BOUND('',#773,.T.);
#463=CYLINDRICAL_SURFACE('',#774,1.5);
#464=CURVE_STYLE('',#775,POSITIVE_LENGTH_MEASURE(1.0E-006),#776);
#465=LINE('',#777,#778);
#466=SURFACE_STYLE_USAGE(.BOTH.,#779);
#467=FACE_OUTER_BOUND('',#780,.T.);
#468=PLANE('',#781);
#469=CURVE_STYLE('',#782,POSITIVE_LENGTH_MEASURE(1.0E-006),#783);
#470=LINE('',#784,#785);
#471=POINT_STYLE(' ',#786,POSITIVE_LENGTH_MEASURE(1.0E-006),#787);
#472=CARTESIAN_POINT('',(0.445736688382193,1.43224257883575,-35.9716828121607));
#473=POINT_STYLE(' ',#788,POSITIVE_LENGTH_MEASURE(1.0E-006),#789);
#474=CARTESIAN_POINT('',(0.0,1.2,0.0));
#475=CURVE_STYLE('',#790,POSITIVE_LENGTH_MEASURE(1.0E-006),#791);
#476=B_SPLINE_CURVE_WITH_KNOTS('',3,(#792,#793,#794,#795,#796,#797,#798,#799,#800,#801),.UNSPECIFIED.,.F.,.F.,(4,2,2,2,4),(1.85902529823815,2.06567030714979,2.27234349574444,2.47901668433909,2.68530730298492),.UNSPECIFIED.);
#477=POINT_STYLE(' ',#802,POSITIVE_LENGTH_MEASURE(1.0E-006),#803);
#478=CARTESIAN_POINT('',(0.291186927252985,1.4714653150506,-36.719578393051));
#479=CURVE_STYLE('',#804,POSITIVE_LENGTH_MEASURE(1.0E-006),#805);
#480=ELLIPSE('',#806,4.26719240271768,1.4);
#481=CURVE_STYLE('',#807,POSITIVE_LENGTH_MEASURE(1.0E-006),#808);
#482=B_SPLINE_CURVE_WITH_KNOTS('',3,(#809,#810,#811,#812,#813,#814,#815,#816,#817,#818),.UNSPECIFIED.,.F.,.F.,(4,2,2,2,4),(0.620415869735466,0.826981332916279,1.03398970786774,1.24099808281921,1.44800214325881),.UNSPECIFIED.);
#483=SURFACE_STYLE_USAGE(.BOTH.,#819);
#484=FACE_OUTER_BOUND('',#820,.T.);
#485=CYLINDRICAL_SURFACE('',#821,1.5);
#486=POINT_STYLE(' ',#822,POSITIVE_LENGTH_MEASURE(1.0E-006),#823);
#487=CARTESIAN_POINT('',(-0.345024467969599,1.35681911709052,-35.9057073995657));
#488=CURVE_STYLE('',#824,POSITIVE_LENGTH_MEASURE(1.0E-006),#825);
#489=B_SPLINE_CURVE_WITH_KNOTS('',3,(#826,#827,#828,#829,#830,#831,#832,#833,#834,#835,#836,#837,#838,#839),.UNSPECIFIED.,.F.,.F.,(4,2,2,2,2,2,4),(0.449150673999554,0.599254881805795,0.7481741362147,0.897093390623605,1.04645297376853,1.19581255691345,1.34500018410037),.UNSPECIFIED.);
#490=SURFACE_STYLE_USAGE(.BOTH.,#840);
#491=FACE_OUTER_BOUND('',#841,.T.);
#492=CYLINDRICAL_SURFACE('',#842,0.542888173802104);
#493=SURFACE_STYLE_USAGE(.BOTH.,#843);
#494=FACE_OUTER_BOUND('',#844,.T.);
#495=CYLINDRICAL_SURFACE('',#845,0.5);
#496=CURVE_STYLE('',#846,POSITIVE_LENGTH_MEASURE(1.0E-006),#847);
#497=B_SPLINE_CURVE_WITH_KNOTS('',3,(#848,#849,#850,#851,#852,#853,#854,#855,#856,#857,#858,#859,#860,#861,#862,#863,#864,#865,#866,#867,#868,#869,#870,#871,#872,#873,#874),.UNSPECIFIED.,.F.,.F.,(4,2,2,2,2,2,2,2,2,2,3,2,4),(-0.904760382276984,-0.814331794904365,-0.723903207531746,-0.633474620159131,-0.543046032786515,-0.452751158305848,-0.36245628382518,-0.271707992864221,-0.180959701903262,-0.0904798509516307,0.0,0.0905731045725073,0.181146209145015),.UNSPECIFIED.);
#498=POINT_STYLE(' ',#875,POSITIVE_LENGTH_MEASURE(1.0E-006),#876);
#499=CARTESIAN_POINT('',(0.445736688382193,1.43224257883575,-36.5633885667752));
#500=CURVE_STYLE('',#877,POSITIVE_LENGTH_MEASURE(1.0E-006),#878);
#501=LINE('',#879,#880);
#502=POINT_STYLE(' ',#881,POSITIVE_LENGTH_MEASURE(1.0E-006),#882);
#503=CARTESIAN_POINT('',(-0.445684250814332,1.43225889718866,-36.5906934636265));
#504=POINT_STYLE(' ',#883,POSITIVE_LENGTH_MEASURE(1.0E-006),#884);
#505=CARTESIAN_POINT('',(0.0,0.0,-60.0));
#506=CURVE_STYLE('',#885,POSITIVE_LENGTH_MEASURE(1.0E-006),#886);
#507=LINE('',#887,#888);
#508=CURVE_STYLE('',#889,POSITIVE_LENGTH_MEASURE(1.0E-006),#890);
#509=LINE('',#891,#892);
#510=POINT_STYLE(' ',#893,POSITIVE_LENGTH_MEASURE(1.0E-006),#894);
#511=CARTESIAN_POINT('',(0.5,6.12303176911189E-017,-48.0));
#512=CURVE_STYLE('',#895,POSITIVE_LENGTH_MEASURE(1.0E-006),#896);
#513=CIRCLE('',#897,0.5);
#514=POINT_STYLE(' ',#898,POSITIVE_LENGTH_MEASURE(1.0E-006),#899);
#515=CARTESIAN_POINT('',(0.0967010423452768,1.49687972409587,-36.7999442996743));
#516=POINT_STYLE(' ',#900,POSITIVE_LENGTH_MEASURE(1.0E-006),#901);
#517=CARTESIAN_POINT('',(1.83690953073357E-016,-1.5,-38.8));
#518=POINT_STYLE(' ',#902,POSITIVE_LENGTH_MEASURE(1.0E-006),#903);
#519=CARTESIAN_POINT('',(0.445736688382193,1.32714686626239,-35.9716828121607));
#520=CURVE_STYLE('',#904,POSITIVE_LENGTH_MEASURE(1.0E-006),#905);
#521=CIRCLE('',#906,0.4995);
#522=CURVE_STYLE('',#907,POSITIVE_LENGTH_MEASURE(1.0E-006),#908);
#523=CIRCLE('',#909,0.5);
#524=SURFACE_STYLE_USAGE(.BOTH.,#910);
#525=FACE_OUTER_BOUND('',#911,.T.);
#526=CONICAL_SURFACE('',#912,1.35,0.785398163397453);
#527=CURVE_STYLE('',#913,POSITIVE_LENGTH_MEASURE(1.0E-006),#914);
#528=CIRCLE('',#915,1.5);
#529=SURFACE_STYLE_USAGE(.BOTH.,#916);
#530=CLOSED_SHELL('',(#423,#417,#171,#439,#263,#293,#301,#197,#175,#353,#261,#411,#311,#331,#373,#319,#431,#267,#229,#191,#289,#239,#359));
#531=CURVE_STYLE('',#917,POSITIVE_LENGTH_MEASURE(1.0E-006),#918);
#532=B_SPLINE_CURVE_WITH_KNOTS('',3,(#919,#920,#921,#922,#923,#924),.UNSPECIFIED.,.F.,.F.,(4,2,4),(2.68959631217717,2.89616176304829,3.10308695553747),.UNSPECIFIED.);
#533=CURVE_STYLE('',#925,POSITIVE_LENGTH_MEASURE(1.0E-006),#926);
#534=LINE('',#927,#928);
#535=SURFACE_STYLE_USAGE(.BOTH.,#929);
#536=FACE_OUTER_BOUND('',#930,.T.);
#537=CYLINDRICAL_SURFACE('',#931,0.4995);
#538=CURVE_STYLE('',#932,POSITIVE_LENGTH_MEASURE(1.0E-006),#933);
#539=B_SPLINE_CURVE_WITH_KNOTS('',3,(#934,#935,#936,#937,#938,#939,#940,#941,#942,#943,#944,#945,#946,#947),.UNSPECIFIED.,.F.,.F.,(4,2,2,2,2,2,4),(1.04556644553436,1.19481792676597,1.34406940799758,1.49332088922919,1.6421919361918,1.79106298315441,1.94096154109475),.UNSPECIFIED.);
#540=POINT_STYLE(' ',#948,POSITIVE_LENGTH_MEASURE(1.0E-006),#949);
#541=CARTESIAN_POINT('',(2.05801952275322E-011,1.5,-36.141089603934));
#542=CURVE_STYLE('',#950,POSITIVE_LENGTH_MEASURE(1.0E-006),#951);
#543=LINE('',#952,#953);
#544=POINT_STYLE(' ',#954,POSITIVE_LENGTH_MEASURE(1.0E-006),#955);
#545=CARTESIAN_POINT('',(0.0,0.4995,-48.0));
#546=POINT_STYLE(' ',#956,POSITIVE_LENGTH_MEASURE(1.0E-006),#957);
#547=CARTESIAN_POINT('',(0.0,1.5,-0.299999999999997));
#548=CURVE_STYLE('',#958,POSITIVE_LENGTH_MEASURE(1.0E-006),#959);
#549=B_SPLINE_CURVE_WITH_KNOTS('',3,(#960,#961,#962,#963,#964,#965,#966,#967,#968,#969,#970,#971,#972,#973),.UNSPECIFIED.,.F.,.F.,(4,2,2,2,2,2,4),(1.04556644553436,1.19481792676597,1.34406940799758,1.49332088922919,1.6421919361918,1.79106298315441,1.94096154109475),.UNSPECIFIED.);
#550=CURVE_STYLE('',#974,POSITIVE_LENGTH_MEASURE(1.0E-006),#975);
#551=LINE('',#976,#977);
#552=POINT_STYLE(' ',#978,POSITIVE_LENGTH_MEASURE(1.0E-006),#979);
#553=CARTESIAN_POINT('',(0.0,1.5,-38.8));
#554=POINT_STYLE(' ',#980,POSITIVE_LENGTH_MEASURE(1.0E-006),#981);
#555=CARTESIAN_POINT('',(-0.16212631479435,1.39058083477776,-36.0144279161002));
#556=CURVE_STYLE('',#982,POSITIVE_LENGTH_MEASURE(1.0E-006),#983);
#557=LINE('',#984,#985);
#558=SURFACE_STYLE_USAGE(.BOTH.,#986);
#559=FACE_OUTER_BOUND('',#987,.T.);
#560=CYLINDRICAL_SURFACE('',#988,0.542888128511779);
#561=SURFACE_STYLE_USAGE(.BOTH.,#989);
#562=FACE_OUTER_BOUND('',#990,.T.);
#563=CONICAL_SURFACE('',#991,1.35,0.785398163397453);
#564=POINT_STYLE(' ',#992,POSITIVE_LENGTH_MEASURE(1.0E-006),#993);
#565=CARTESIAN_POINT('',(1.83690953073357E-016,-1.5,-0.299999999999997));
#566=SURFACE_STYLE_USAGE(.BOTH.,#994);
#567=FACE_OUTER_BOUND('',#995,.T.);
#568=PLANE('',#996);
#569=POINT_STYLE(' ',#997,POSITIVE_LENGTH_MEASURE(1.0E-006),#998);
#570=CARTESIAN_POINT('',(-0.187444663409338,1.48824208318383,-35.9057073995657));
#571=POINT_STYLE(' ',#999,POSITIVE_LENGTH_MEASURE(1.0E-006),#1000);
#572=CARTESIAN_POINT('',(0.445736688382193,1.32714686626239,-36.5633885667752));
#573=CURVE_STYLE('',#1001,POSITIVE_LENGTH_MEASURE(1.0E-006),#1002);
#574=LINE('',#1003,#1004);
#575=CURVE_STYLE('',#1005,POSITIVE_LENGTH_MEASURE(1.0E-006),#1006);
#576=LINE('',#1007,#1008);
#577=CURVE_STYLE('',#1009,POSITIVE_LENGTH_MEASURE(1.0E-006),#1010);
#578=LINE('',#1011,#1012);
#579=SURFACE_STYLE_USAGE(.BOTH.,#1013);
#580=CLOSED_SHELL('',(#357,#383,#323,#199,#427));
#581=CURVE_STYLE('',#1014,POSITIVE_LENGTH_MEASURE(1.0E-006),#1015);
#582=B_SPLINE_CURVE_WITH_KNOTS('',3,(#1016,#1017,#1018,#1019,#1020,#1021),.UNSPECIFIED.,.F.,.F.,(4,2,4),(2.68530701780466,2.89159761751384,3.09817892816278),.UNSPECIFIED.);
#583=POINT_STYLE(' ',#1022,POSITIVE_LENGTH_MEASURE(1.0E-006),#1023);
#584=CARTESIAN_POINT('',(-0.5,0.0,-59.79289322));
#585=CURVE_STYLE('',#1024,POSITIVE_LENGTH_MEASURE(1.0E-006),#1025);
#586=LINE('',#1026,#1027);
#587=CURVE_STYLE('',#1028,POSITIVE_LENGTH_MEASURE(1.0E-006),#1029);
#588=LINE('',#1030,#1031);
#589=SURFACE_STYLE_USAGE(.BOTH.,#1032);
#590=FACE_OUTER_BOUND('',#1033,.T.);
#591=CONICAL_SURFACE('',#1034,0.99975,0.264089655349623);
#592=CURVE_STYLE('',#1035,POSITIVE_LENGTH_MEASURE(1.0E-006),#1036);
#593=CIRCLE('',#1037,0.5);
#594=SURFACE_STYLE_USAGE(.BOTH.,#1038);
#595=FACE_OUTER_BOUND('',#1039,.T.);
#596=CYLINDRICAL_SURFACE('',#1040,0.239624863395969);
#597=POINT_STYLE(' ',#1041,POSITIVE_LENGTH_MEASURE(1.0E-006),#1042);
#598=CARTESIAN_POINT('',(0.266477242128121,1.37440528208669,-35.800000092291));
#599=CURVE_STYLE('',#1043,POSITIVE_LENGTH_MEASURE(1.0E-006),#1044);
#600=B_SPLINE_CURVE_WITH_KNOTS('',3,(#1045,#1046,#1047,#1048,#1049,#1050,#1051,#1052,#1053,#1054,#1055,#1056,#1057,#1058,#1059,#1060,#1061,#1062,#1063,#1064,#1065,#1066,#1067,#1068,#1069,#1070,#1071),.UNSPECIFIED.,.F.,.F.,(4,2,2,2,2,2,2,2,2,2,3,2,4),(-0.904760382276984,-0.814331794904365,-0.723903207531746,-0.633474620159131,-0.543046032786515,-0.452751158305848,-0.36245628382518,-0.271707992864221,-0.180959701903262,-0.0904798509516307,0.0,0.0905731045725073,0.181146209145015),.UNSPECIFIED.);
#601=CURVE_STYLE('',#1072,POSITIVE_LENGTH_MEASURE(1.0E-006),#1073);
#602=LINE('',#1074,#1075);
#603=SURFACE_STYLE_USAGE(.BOTH.,#1076);
#604=FACE_OUTER_BOUND('',#1077,.T.);
#605=PLANE('',#1078);
#606=CURVE_STYLE('',#1079,POSITIVE_LENGTH_MEASURE(1.0E-006),#1080);
#607=LINE('',#1081,#1082);
#608=POINT_STYLE(' ',#1083,POSITIVE_LENGTH_MEASURE(1.0E-006),#1084);
#609=CARTESIAN_POINT('',(-5.58129510601172E-012,1.5,-36.3000267183946));
#610=POINT_STYLE(' ',#1085,POSITIVE_LENGTH_MEASURE(1.0E-006),#1086);
#611=CARTESIAN_POINT('',(-0.162126314794348,1.49121261329537,-36.0144279161002));
#612=CURVE_STYLE('',#1087,POSITIVE_LENGTH_MEASURE(1.0E-006),#1088);
#613=CIRCLE('',#1089,1.5);
#614=SURFACE_STYLE_USAGE(.BOTH.,#1090);
#615=FACE_OUTER_BOUND('',#1091,.T.);
#616=PLANE('',#1092);
#617=CURVE_STYLE('',#1093,POSITIVE_LENGTH_MEASURE(1.0E-006),#1094);
#618=LINE('',#1095,#1096);
#619=CURVE_STYLE('',#1097,POSITIVE_LENGTH_MEASURE(1.0E-006),#1098);
#620=B_SPLINE_CURVE_WITH_KNOTS('',3,(#1099,#1100,#1101,#1102,#1103,#1104,#1105,#1106,#1107,#1108),.UNSPECIFIED.,.F.,.F.,(4,2,2,2,4),(1.85902529823815,2.06567030714979,2.27234349574444,2.47901668433909,2.68530730298492),.UNSPECIFIED.);
#621=CURVE_STYLE('',#1109,POSITIVE_LENGTH_MEASURE(1.0E-006),#1110);
#622=CIRCLE('',#1111,1.5);
#623=SURFACE_STYLE_USAGE(.BOTH.,#1112);
#624=FACE_OUTER_BOUND('',#1113,.T.);
#625=PLANE('',#1114);
#626=POINT_STYLE(' ',#1115,POSITIVE_LENGTH_MEASURE(1.0E-006),#1116);
#627=CARTESIAN_POINT('',(0.0,0.4995,-42.5));
#628=SURFACE_STYLE_USAGE(.BOTH.,#1117);
#629=FACE_OUTER_BOUND('',#1118,.T.);
#630=PLANE('',#1119);
#631=POINT_STYLE(' ',#1120,POSITIVE_LENGTH_MEASURE(1.0E-006),#1121);
#632=CARTESIAN_POINT('',(0.5,6.12303176911189E-017,-59.79289322));
#633=CURVE_STYLE('',#1122,POSITIVE_LENGTH_MEASURE(1.0E-006),#1123);
#634=B_SPLINE_CURVE_WITH_KNOTS('',3,(#1124,#1125,#1126,#1127,#1128,#1129,#1130,#1131,#1132,#1133,#1134,#1135,#1136,#1137,#1138,#1139,#1140,#1141,#1142,#1143,#1144,#1145,#1146,#1147,#1148,#1149,#1150),.UNSPECIFIED.,.F.,.F.,(4,2,3,2,2,2,2,2,2,2,2,2,4),(-0.180901966709094,-0.090450983354547,0.0,0.0904509833545436,0.180901966709087,0.271587051521942,0.362272136334797,0.452562970858867,0.542853805382937,0.633260931758076,0.723668058133215,0.814075184508358,0.9044823108835),.UNSPECIFIED.);
#635=CURVE_STYLE('',#1151,POSITIVE_LENGTH_MEASURE(1.0E-006),#1152);
#636=CIRCLE('',#1153,0.4995);
#637=SURFACE_STYLE_USAGE(.BOTH.,#1154);
#638=FACE_OUTER_BOUND('',#1155,.T.);
#639=CYLINDRICAL_SURFACE('',#1156,0.542888147146112);
#640=CURVE_STYLE('',#1157,POSITIVE_LENGTH_MEASURE(1.0E-006),#1158);
#641=ELLIPSE('',#1159,4.57199186005466,1.5);
#642=CURVE_STYLE('',#1160,POSITIVE_LENGTH_MEASURE(1.0E-006),#1161);
#643=CIRCLE('',#1162,1.2);
#644=CURVE_STYLE('',#1163,POSITIVE_LENGTH_MEASURE(1.0E-006),#1164);
#645=LINE('',#1165,#1166);
#646=CURVE_STYLE('',#1167,POSITIVE_LENGTH_MEASURE(1.0E-006),#1168);
#647=B_SPLINE_CURVE_WITH_KNOTS('',3,(#1169,#1170,#1171,#1172,#1173,#1174),.UNSPECIFIED.,.F.,.F.,(4,2,4),(0.206925185259038,0.413850370518076,0.620415814467366),.UNSPECIFIED.);
#648=CURVE_STYLE('',#1175,POSITIVE_LENGTH_MEASURE(1.0E-006),#1176);
#649=CIRCLE('',#1177,0.5);
#650=CURVE_STYLE('',#1178,POSITIVE_LENGTH_MEASURE(1.0E-006),#1179);
#651=LINE('',#1180,#1181);
#652=POINT_STYLE(' ',#1182,POSITIVE_LENGTH_MEASURE(1.0E-006),#1183);
#653=CARTESIAN_POINT('',(4.87776181656944E-016,1.5,-36.8103417867011));
#654=CURVE_STYLE('',#1184,POSITIVE_LENGTH_MEASURE(1.0E-006),#1185);
#655=B_SPLINE_CURVE_WITH_KNOTS('',3,(#1186,#1187,#1188,#1189,#1190,#1191),.UNSPECIFIED.,.F.,.F.,(4,2,4),(0.206581317849577,0.413162635699153,0.619453242343408),.UNSPECIFIED.);
#656=CURVE_STYLE('',#1192,POSITIVE_LENGTH_MEASURE(1.0E-006),#1193);
#657=LINE('',#1194,#1195);
#658=CURVE_STYLE('',#1196,POSITIVE_LENGTH_MEASURE(1.0E-006),#1197);
#659=B_SPLINE_CURVE_WITH_KNOTS('',3,(#1198,#1199,#1200,#1201,#1202,#1203,#1204,#1205,#1206,#1207,#1208,#1209,#1210,#1211,#1212,#1213,#1214,#1215,#1216,#1217,#1218,#1219,#1220,#1221,#1222,#1223,#1224),.UNSPECIFIED.,.F.,.F.,(4,2,3,2,2,2,2,2,2,2,2,2,4),(-0.180901966709094,-0.090450983354547,0.0,0.0904509833545436,0.180901966709087,0.271587051521942,0.362272136334797,0.452562970858867,0.542853805382937,0.633260931758076,0.723668058133215,0.814075184508358,0.9044823108835),.UNSPECIFIED.);
#660=SURFACE_STYLE_USAGE(.BOTH.,#1225);
#661=FACE_OUTER_BOUND('',#1226,.T.);
#662=PLANE('',#1227);
#663=CURVE_STYLE('',#1228,POSITIVE_LENGTH_MEASURE(1.0E-006),#1229);
#664=B_SPLINE_CURVE_WITH_KNOTS('',3,(#1230,#1231,#1232,#1233,#1234,#1235,#1236,#1237,#1238,#1239,#1240,#1241,#1242,#1243,#1244,#1245,#1246,#1247,#1248,#1249,#1250,#1251,#1252,#1253,#1254,#1255,#1256),.UNSPECIFIED.,.F.,.F.,(4,2,3,2,2,2,2,2,2,2,2,2,4),(-0.180901966709094,-0.090450983354547,0.0,0.0904509833545436,0.180901966709087,0.271587051521942,0.362272136334797,0.452562970858867,0.542853805382937,0.633260931758076,0.723668058133215,0.814075184508358,0.9044823108835),.UNSPECIFIED.);
#665=SURFACE_STYLE_USAGE(.BOTH.,#1257);
#666=FACE_OUTER_BOUND('',#1258,.T.);
#667=CONICAL_SURFACE('',#1259,0.25,1.17809724712174);
#668=SURFACE_STYLE_USAGE(.BOTH.,#1260);
#669=FACE_OUTER_BOUND('',#1261,.T.);
#670=PLANE('',#1262);
#671=CURVE_STYLE('',#1263,POSITIVE_LENGTH_MEASURE(1.0E-006),#1264);
#672=CIRCLE('',#1265,1.5);
#673=POINT_STYLE(' ',#1266,POSITIVE_LENGTH_MEASURE(1.0E-006),#1267);
#674=CARTESIAN_POINT('',(0.266477242128121,1.47614019639999,-35.800000092291));
#675=CURVE_STYLE('',#1268,POSITIVE_LENGTH_MEASURE(1.0E-006),#1269);
#676=LINE('',#1270,#1271);
#677=POINT_STYLE(' ',#1272,POSITIVE_LENGTH_MEASURE(1.0E-006),#1273);
#678=CARTESIAN_POINT('',(-0.187444663409338,1.38739486021801,-35.9057073995657));
#679=POINT_STYLE(' ',#1274,POSITIVE_LENGTH_MEASURE(1.0E-006),#1275);
#680=CARTESIAN_POINT('',(0.191042345276873,1.4877845349079,-36.2767766558089));
#681=POINT_STYLE(' ',#1276,POSITIVE_LENGTH_MEASURE(1.0E-006),#1277);
#682=CARTESIAN_POINT('',(0.291186927252986,1.36938313608609,-36.2399643865364));
#683=SURFACE_STYLE_USAGE(.BOTH.,#1278);
#684=FACE_OUTER_BOUND('',#1279,.T.);
#685=CYLINDRICAL_SURFACE('',#1280,0.239624863395969);
#686=CURVE_STYLE('',#1281,POSITIVE_LENGTH_MEASURE(1.0E-006),#1282);
#687=LINE('',#1283,#1284);
#688=CURVE_STYLE('',#1285,POSITIVE_LENGTH_MEASURE(1.0E-006),#1286);
#689=LINE('',#1287,#1288);
#690=CURVE_STYLE('',#1289,POSITIVE_LENGTH_MEASURE(1.0E-006),#1290);
#691=CIRCLE('',#1291,1.2);
#692=POINT_STYLE(' ',#1292,POSITIVE_LENGTH_MEASURE(1.0E-006),#1293);
#693=CARTESIAN_POINT('',(-0.5,0.0,-48.0));
#694=SURFACE_STYLE_USAGE(.BOTH.,#1294);
#695=FACE_OUTER_BOUND('',#1295,.T.);
#696=CYLINDRICAL_SURFACE('',#1296,0.5);
#697=CURVE_STYLE('',#1297,POSITIVE_LENGTH_MEASURE(1.0E-006),#1298);
#698=LINE('',#1299,#1300);
#699=POINT_STYLE(' ',#1301,POSITIVE_LENGTH_MEASURE(1.0E-006),#1302);
#700=CARTESIAN_POINT('',(0.291186927252985,1.36938313608609,-36.719578393051));
#701=POINT_STYLE(' ',#1303,POSITIVE_LENGTH_MEASURE(1.0E-006),#1304);
#702=CARTESIAN_POINT('',(0.291186927252986,1.4714653150506,-36.2399643865364));
#703=CURVE_STYLE('',#1305,POSITIVE_LENGTH_MEASURE(1.0E-006),#1306);
#704=CIRCLE('',#1307,0.4995);
#705=POINT_STYLE(' ',#1308,POSITIVE_LENGTH_MEASURE(1.0E-006),#1309);
#706=CARTESIAN_POINT('',(0.191042345276873,1.38690404221457,-36.2767766558089));
#707=POINT_STYLE(' ',#1310,POSITIVE_LENGTH_MEASURE(1.0E-006),#1311);
#708=CARTESIAN_POINT('',(1.46952762458685E-016,-1.2,0.0));
#709=CURVE_STYLE('',#1312,POSITIVE_LENGTH_MEASURE(1.0E-006),#1313);
#710=CIRCLE('',#1314,1.5);
#711=CURVE_STYLE('',#1315,POSITIVE_LENGTH_MEASURE(1.0E-006),#1316);
#712=CIRCLE('',#1317,1.4);
#713=CURVE_STYLE('',#1318,POSITIVE_LENGTH_MEASURE(1.0E-006),#1319);
#714=LINE('',#1320,#1321);
#715=POINT_STYLE(' ',#1322,POSITIVE_LENGTH_MEASURE(1.0E-006),#1323);
#716=CARTESIAN_POINT('',(-5.40912442412622E-016,1.5,-36.3709637112193));
#717=CURVE_STYLE('',#1324,POSITIVE_LENGTH_MEASURE(1.0E-006),#1325);
#718=CIRCLE('',#1326,0.4995);
#719=POINT_STYLE(' ',#1327,POSITIVE_LENGTH_MEASURE(1.0E-006),#1328);
#720=CARTESIAN_POINT('',(-0.445684250814332,1.32716447683626,-36.5906934636265));
#721=POINT_STYLE(' ',#1329,POSITIVE_LENGTH_MEASURE(1.0E-006),#1330);
#722=CARTESIAN_POINT('',(-0.345024467969599,1.45978016033316,-35.9057073995657));
#723=SURFACE_STYLE_USAGE(.BOTH.,#1331);
#724=FACE_OUTER_BOUND('',#1332,.T.);
#725=CYLINDRICAL_SURFACE('',#1333,1.4);
#726=CURVE_STYLE('',#1334,POSITIVE_LENGTH_MEASURE(1.0E-006),#1335);
#727=ELLIPSE('',#1336,1.56089980486,1.4);
#728=CURVE_STYLE('',#1337,POSITIVE_LENGTH_MEASURE(1.0E-006),#1338);
#729=LINE('',#1339,#1340);
#730=SURFACE_STYLE_USAGE(.BOTH.,#1341);
#731=FACE_OUTER_BOUND('',#1342,.T.);
#732=CONICAL_SURFACE('',#1343,0.99975,0.264089655349623);
#733=CURVE_STYLE('',#1344,POSITIVE_LENGTH_MEASURE(1.0E-006),#1345);
#734=ELLIPSE('',#1346,1.67239264806429,1.5);
#735=CURVE_STYLE('',#1347,POSITIVE_LENGTH_MEASURE(1.0E-006),#1348);
#736=LINE('',#1349,#1350);
#737=SURFACE_STYLE_USAGE(.BOTH.,#1351);
#738=FACE_OUTER_BOUND('',#1352,.T.);
#739=CYLINDRICAL_SURFACE('',#1353,0.4995);
#740=POINT_STYLE(' ',#1354,POSITIVE_LENGTH_MEASURE(1.0E-006),#1355);
#741=CARTESIAN_POINT('',(6.11690873734277E-017,-0.4995,-42.5));
#742=SURFACE_STYLE_USAGE(.BOTH.,#1356);
#743=FACE_OUTER_BOUND('',#1357,.T.);
#744=CONICAL_SURFACE('',#1358,0.25,1.17809724712174);
#745=CURVE_STYLE('',#1359,POSITIVE_LENGTH_MEASURE(1.0E-006),#1360);
#746=LINE('',#1361,#1362);
#747=SURFACE_STYLE_USAGE(.BOTH.,#1363);
#748=FACE_OUTER_BOUND('',#1364,.T.);
#749=CYLINDRICAL_SURFACE('',#1365,0.394355589784601);
#750=POINT_STYLE(' ',#1366,POSITIVE_LENGTH_MEASURE(1.0E-006),#1367);
#751=CARTESIAN_POINT('',(0.0967010423452768,1.39665633153233,-36.7999442996743));
#752=CURVE_STYLE('',#1368,POSITIVE_LENGTH_MEASURE(1.0E-006),#1369);
#753=LINE('',#1370,#1371);
#754=CURVE_STYLE('',#1372,POSITIVE_LENGTH_MEASURE(1.0E-006),#1373);
#755=ELLIPSE('',#1374,1.67239264806429,1.5);
#756=SURFACE_STYLE_USAGE(.BOTH.,#1375);
#757=FACE_OUTER_BOUND('',#1376,.T.);
#758=CYLINDRICAL_SURFACE('',#1377,1.5);
#759=PRODUCT_CONTEXT('',#150,'mechanical');
#760=PRODUCT_DEFINITION_FORMATION_WITH_SPECIFIED_SOURCE(' ','NONE',#440,.NOT_KNOWN.);
#761=CARTESIAN_POINT('',(0.0,0.0,0.0));
#762=DIRECTION('',(0.0,0.0,1.0));
#763=DIRECTION('',(1.0,0.0,0.0));
#764=PRODUCT_CONTEXT('',#155,'mechanical');
#765=PRODUCT_DEFINITION_FORMATION_WITH_SPECIFIED_SOURCE(' ','NONE',#443,.NOT_KNOWN.);
#766=CARTESIAN_POINT('',(0.0,0.0,0.0));
#767=DIRECTION('',(0.0,0.0,1.0));
#768=DIRECTION('',(1.0,0.0,0.0));
#769= (NAMED_UNIT(#451)LENGTH_UNIT()SI_UNIT(.MILLI.,.METRE.));
#770=PRE_DEFINED_MARKER('');
#771=COLOUR_RGB('',0.498039215803146,0.498039215803146,0.498039215803146);
#772=SURFACE_SIDE_STYLE('',(#1379));
#773=EDGE_LOOP('',(#1380,#1381,#1382));
#774=AXIS2_PLACEMENT_3D('',#1383,#1384,#1385);
#775=DRAUGHTING_PRE_DEFINED_CURVE_FONT('continuous');
#776=COLOUR_RGB('',0.800000011920929,0.800000011920929,0.800000011920929);
#777=CARTESIAN_POINT('',(-0.25,-3.06151588455594E-017,-59.89644661));
#778=VECTOR('',#1386,1.0);
#779=SURFACE_SIDE_STYLE('',(#1387));
#780=EDGE_LOOP('',(#1388,#1389,#1390,#1391));
#781=AXIS2_PLACEMENT_3D('',#1392,#1393,#1394);
#782=DRAUGHTING_PRE_DEFINED_CURVE_FONT('continuous');
#783=COLOUR_RGB('',0.200000002980232,0.600000023841858,1.0);
#784=CARTESIAN_POINT('',(0.445736688382193,1.32714686626239,-36.267535689468));
#785=VECTOR('',#1395,1.0);
#786=PRE_DEFINED_MARKER('');
#787=COLOUR_RGB('',0.498039215803146,0.498039215803146,0.498039215803146);
#788=PRE_DEFINED_MARKER('');
#789=COLOUR_RGB('',0.498039215803146,0.498039215803146,0.498039215803146);
#790=DRAUGHTING_PRE_DEFINED_CURVE_FONT('continuous');
#791=COLOUR_RGB('',0.498039215803146,0.498039215803146,0.498039215803146);
#792=CARTESIAN_POINT('',(-0.510663884086718,1.41039795713461,-36.4761414932216));
#793=CARTESIAN_POINT('',(-0.482882195324521,1.42045688567567,-36.5428917331796));
#794=CARTESIAN_POINT('',(-0.441244348092513,1.43448916486863,-36.6034830495674));
#795=CARTESIAN_POINT('',(-0.34559676176087,1.46048597628377,-36.699175425681));
#796=CARTESIAN_POINT('',(-0.284974339318753,1.47422809273278,-36.7408778107875));
#797=CARTESIAN_POINT('',(-0.151371949196347,1.49386926357127,-36.7965191841322));
#798=CARTESIAN_POINT('',(-0.0783437509828543,1.49953600664492,-36.8104241111695));
#799=CARTESIAN_POINT('',(0.059308117302166,1.50040360289934,-36.8104241111695));
#800=CARTESIAN_POINT('',(0.132276716500882,1.49567479625857,-36.7965653151316));
#801=CARTESIAN_POINT('',(0.199061940328441,1.48673277488346,-36.7687830304685));
#802=PRE_DEFINED_MARKER('');
#803=COLOUR_RGB('',0.498039215803146,0.498039215803146,0.498039215803146);
#804=DRAUGHTING_PRE_DEFINED_CURVE_FONT('continuous');
#805=COLOUR_RGB('',0.200000002980232,0.600000023841858,1.0);
#806=AXIS2_PLACEMENT_3D('',#1396,#1397,#1398);
#807=DRAUGHTING_PRE_DEFINED_CURVE_FONT('continuous');
#808=COLOUR_RGB('',0.200000002980232,0.600000023841858,1.0);
#809=CARTESIAN_POINT('',(0.199180176910604,1.38575872976715,-36.7687338283494));
#810=CARTESIAN_POINT('',(0.132408368329894,1.39535608638171,-36.796529011669));
#811=CARTESIAN_POINT('',(0.0593995279736131,1.40043305029661,-36.8104241111695));
#812=CARTESIAN_POINT('',(-0.0784552747615234,1.39950210972247,-36.8104241111695));
#813=CARTESIAN_POINT('',(-0.15153324696165,1.3934165949244,-36.7964755055559));
#814=CARTESIAN_POINT('',(-0.285113817743679,1.37232730878111,-36.7407961721918));
#815=CARTESIAN_POINT('',(-0.345671056748324,1.3575672374164,-36.6991045148745));
#816=CARTESIAN_POINT('',(-0.44120303878569,1.32959281694928,-36.6035209583352));
#817=CARTESIAN_POINT('',(-0.482815583798974,1.31445046880523,-36.5430016760065));
#818=CARTESIAN_POINT('',(-0.510608347789736,1.30356400501373,-36.4762748784508));
#819=SURFACE_SIDE_STYLE('',(#1399));
#820=EDGE_LOOP('',(#1400,#1401,#1402,#1403,#1404,#1405,#1406,#1407,#1408,#1409,#1410,#1411));
#821=AXIS2_PLACEMENT_3D('',#1412,#1413,#1414);
#822=PRE_DEFINED_MARKER('');
#823=COLOUR_RGB('',0.200000002980232,0.600000023841858,1.0);
#824=DRAUGHTING_PRE_DEFINED_CURVE_FONT('continuous');
#825=COLOUR_RGB('',0.200000002980232,0.600000023841858,1.0);
#826=CARTESIAN_POINT('',(0.20093474970012,1.38550540466753,-36.2728127120872));
#827=CARTESIAN_POINT('',(0.152361027198009,1.39254987285908,-36.2930424128849));
#828=CARTESIAN_POINT('',(0.0993229298639763,1.39736839466311,-36.3031228766955));
#829=CARTESIAN_POINT('',(-0.000289689597055817,1.40087973109968,-36.3031228766955));
#830=CARTESIAN_POINT('',(-0.0531441761580125,1.3998366962277,-36.2931845414391));
#831=CARTESIAN_POINT('',(-0.150192542814048,1.39277036147263,-36.2529626120982));
#832=CARTESIAN_POINT('',(-0.194401081368024,1.38688829524184,-36.2226896998535));
#833=CARTESIAN_POINT('',(-0.264285887003957,1.37528589839301,-36.1529252151849));
#834=CARTESIAN_POINT('',(-0.294656242773867,1.36879766697314,-36.1086812917829));
#835=CARTESIAN_POINT('',(-0.335036721821815,1.3594777535698,-36.0115058899038));
#836=CARTESIAN_POINT('',(-0.345036339300622,1.35681609828378,-35.9585538146259));
#837=CARTESIAN_POINT('',(-0.345036339300621,1.35681609828378,-35.8590380778486));
#838=CARTESIAN_POINT('',(-0.335059492810622,1.35947148128579,-35.8061426655781));
#839=CARTESIAN_POINT('',(-0.314911729567392,1.36412264939076,-35.7575980957205));
#840=SURFACE_SIDE_STYLE('',(#1415));
#841=EDGE_LOOP('',(#1416,#1417,#1418,#1419,#1420));
#842=AXIS2_PLACEMENT_3D('',#1421,#1422,#1423);
#843=SURFACE_SIDE_STYLE('',(#1424));
#844=EDGE_LOOP('',(#1425,#1426,#1427,#1428));
#845=AXIS2_PLACEMENT_3D('',#1429,#1430,#1431);
#846=DRAUGHTING_PRE_DEFINED_CURVE_FONT('continuous');
#847=COLOUR_RGB('',0.200000002980232,0.600000023841858,1.0);
#848=CARTESIAN_POINT('',(-0.117181624611204,1.39508726137596,-35.737690401687));
#849=CARTESIAN_POINT('',(-0.138468766914006,1.39329922847835,-35.7589566347354));
#850=CARTESIAN_POINT('',(-0.15692389553692,1.39123221227467,-35.7858905726496));
#851=CARTESIAN_POINT('',(-0.181415217899849,1.38825094909163,-35.844945964173));
#852=CARTESIAN_POINT('',(-0.187449399729082,1.38739422030698,-35.8770711417381));
#853=CARTESIAN_POINT('',(-0.187449399729082,1.38739422030698,-35.9373568666531));
#854=CARTESIAN_POINT('',(-0.181415217899849,1.38825094909163,-35.9694820442182));
#855=CARTESIAN_POINT('',(-0.15692389553692,1.39123221227467,-36.0285374357416));
#856=CARTESIAN_POINT('',(-0.138468766914005,1.39329922847835,-36.0554713736558));
#857=CARTESIAN_POINT('',(-0.0959259586970276,1.39687265038565,-36.0979723942817));
#858=CARTESIAN_POINT('',(-0.06900158446767,1.39861004085185,-36.1163934152249));
#859=CARTESIAN_POINT('',(-0.00999068415960436,1.40027549119428,-36.1408275166926));
#860=CARTESIAN_POINT('',(0.0220980814635057,1.40014912846684,-36.1468388675916));
#861=CARTESIAN_POINT('',(0.0824038797008532,1.39790007820479,-36.1468388675916));
#862=CARTESIAN_POINT('',(0.114562559826977,1.39562045177,-36.1407733890513));
#863=CARTESIAN_POINT('',(0.173611467778052,1.38951073541202,-36.1162485285127));
#864=CARTESIAN_POINT('',(0.200509103726029,1.38573400073898,-36.0977937209248));
#865=CARTESIAN_POINT('',(0.24292053335399,1.37893056499176,-36.0553169370546));
#866=CARTESIAN_POINT('',(0.261316537705002,1.37545227066293,-36.0284524064416));
#867=CARTESIAN_POINT('',(0.285758720113013,1.37058280964528,-35.9694843696622));
#868=CARTESIAN_POINT('',(0.291800327062856,1.36925255856106,-35.9373739545128));
#869=CARTESIAN_POINT('',(0.291800327062856,1.36925255856106,-35.9072140041956));
#870=CARTESIAN_POINT('',(0.291800327062856,1.36925255856106,-35.8770229693381));
#871=CARTESIAN_POINT('',(0.2857463781139,1.3705855963343,-35.8448817225855));
#872=CARTESIAN_POINT('',(0.261258051765335,1.37546359362798,-35.78586673519));
#873=CARTESIAN_POINT('',(0.242828249769718,1.37894741485181,-35.758986058602));
#874=CARTESIAN_POINT('',(0.221615829515077,1.38234815589574,-35.7377736383474));
#875=PRE_DEFINED_MARKER('');
#876=COLOUR_RGB('',0.498039215803146,0.498039215803146,0.498039215803146);
#877=DRAUGHTING_PRE_DEFINED_CURVE_FONT('continuous');
#878=COLOUR_RGB('',0.200000002980232,0.600000023841858,1.0);
#879=CARTESIAN_POINT('',(0.291186927252986,0.0,-36.2399643865364));
#880=VECTOR('',#1432,1.0);
#881=PRE_DEFINED_MARKER('');
#882=COLOUR_RGB('',0.498039215803146,0.498039215803146,0.498039215803146);
#883=PRE_DEFINED_MARKER('');
#884=COLOUR_RGB('',0.800000011920929,0.800000011920929,0.800000011920929);
#885=DRAUGHTING_PRE_DEFINED_CURVE_FONT('continuous');
#886=COLOUR_RGB('',0.498039215803146,0.498039215803146,0.498039215803146);
#887=CARTESIAN_POINT('',(-1.83690953073357E-016,1.5,-19.5));
#888=VECTOR('',#1433,1.0);
#889=DRAUGHTING_PRE_DEFINED_CURVE_FONT('continuous');
#890=COLOUR_RGB('',0.200000002980232,0.600000023841858,1.0);
#891=CARTESIAN_POINT('',(-0.162126314794349,1.43475451892426,-36.0144279161002));
#892=VECTOR('',#1434,1.0);
#893=PRE_DEFINED_MARKER('');
#894=COLOUR_RGB('',0.800000011920929,0.800000011920929,0.800000011920929);
#895=DRAUGHTING_PRE_DEFINED_CURVE_FONT('continuous');
#896=COLOUR_RGB('',0.800000011920929,0.800000011920929,0.800000011920929);
#897=AXIS2_PLACEMENT_3D('',#1435,#1436,#1437);
#898=PRE_DEFINED_MARKER('');
#899=COLOUR_RGB('',0.498039215803146,0.498039215803146,0.498039215803146);
#900=PRE_DEFINED_MARKER('');
#901=COLOUR_RGB('',0.498039215803146,0.498039215803146,0.498039215803146);
#902=PRE_DEFINED_MARKER('');
#903=COLOUR_RGB('',0.200000002980232,0.600000023841858,1.0);
#904=DRAUGHTING_PRE_DEFINED_CURVE_FONT('continuous');
#905=COLOUR_RGB('',0.498039215803146,0.498039215803146,0.498039215803146);
#906=AXIS2_PLACEMENT_3D('',#1438,#1439,#1440);
#907=DRAUGHTING_PRE_DEFINED_CURVE_FONT('continuous');
#908=COLOUR_RGB('',0.800000011920929,0.800000011920929,0.800000011920929);
#909=AXIS2_PLACEMENT_3D('',#1441,#1442,#1443);
#910=SURFACE_SIDE_STYLE('',(#1444));
#911=EDGE_LOOP('',(#1445,#1446,#1447,#1448));
#912=AXIS2_PLACEMENT_3D('',#1449,#1450,#1451);
#913=DRAUGHTING_PRE_DEFINED_CURVE_FONT('continuous');
#914=COLOUR_RGB('',0.498039215803146,0.498039215803146,0.498039215803146);
#915=AXIS2_PLACEMENT_3D('',#1452,#1453,#1454);
#916=SURFACE_SIDE_STYLE('',(#1455));
#917=DRAUGHTING_PRE_DEFINED_CURVE_FONT('continuous');
#918=COLOUR_RGB('',0.200000002980232,0.600000023841858,1.0);
#919=CARTESIAN_POINT('',(0.199180077969662,1.38575874398829,-35.7663376898337));
#920=CARTESIAN_POINT('',(0.265951883202218,1.37616139272086,-35.794132871577));
#921=CARTESIAN_POINT('',(0.32653702515263,1.36228968737254,-35.835791803325));
#922=CARTESIAN_POINT('',(0.422198144050778,1.33574583015829,-35.931403214734));
#923=CARTESIAN_POINT('',(0.463869843250635,1.32125219566903,-35.991992181706));
#924=CARTESIAN_POINT('',(0.49168634536898,1.31081827030969,-36.0587635512681));
#925=DRAUGHTING_PRE_DEFINED_CURVE_FONT('continuous');
#926=COLOUR_RGB('',0.800000011920929,0.800000011920929,0.800000011920929);
#927=CARTESIAN_POINT('',(-0.5,-6.12303176911189E-017,-53.89644661));
#928=VECTOR('',#1456,1.0);
#929=SURFACE_SIDE_STYLE('',(#1457));
#930=EDGE_LOOP('',(#1458,#1459,#1460,#1461));
#931=AXIS2_PLACEMENT_3D('',#1462,#1463,#1464);
#932=DRAUGHTING_PRE_DEFINED_CURVE_FONT('continuous');
#933=COLOUR_RGB('',0.498039215803146,0.498039215803146,0.498039215803146);
#934=CARTESIAN_POINT('',(-0.314868906269419,1.46658023028565,-35.7574949574024));
#935=CARTESIAN_POINT('',(-0.335050458532666,1.46224733367956,-35.8060820694257));
#936=CARTESIAN_POINT('',(-0.345036339300622,1.45977735444897,-35.8590167931671));
#937=CARTESIAN_POINT('',(-0.345036339300621,1.45977735444897,-35.9585177806548));
#938=CARTESIAN_POINT('',(-0.335050458532666,1.46224733367956,-36.0114525043962));
#939=CARTESIAN_POINT('',(-0.294687354006183,1.47091312689174,-36.1086267284426));
#940=CARTESIAN_POINT('',(-0.264319381944401,1.47695271033967,-36.1528839400996));
#941=CARTESIAN_POINT('',(-0.194416198846918,1.48776678314766,-36.2226824192427));
#942=CARTESIAN_POINT('',(-0.150190002765001,1.49325454353536,-36.2529651939691));
#943=CARTESIAN_POINT('',(-0.0531271239485839,1.49984788471278,-36.2931900793177));
#944=CARTESIAN_POINT('',(-0.000277601456355456,1.50082058647412,-36.3031228766955));
#945=CARTESIAN_POINT('',(0.0992584208997275,1.49754612136718,-36.3031228766955));
#946=CARTESIAN_POINT('',(0.152267005818255,1.49305636381024,-36.2930669468251));
#947=CARTESIAN_POINT('',(0.200841428620677,1.48649343104825,-36.2728515638676));
#948=PRE_DEFINED_MARKER('');
#949=COLOUR_RGB('',0.498039215803146,0.498039215803146,0.498039215803146);
#950=DRAUGHTING_PRE_DEFINED_CURVE_FONT('continuous');
#951=COLOUR_RGB('',0.200000002980232,0.600000023841858,1.0);
#952=CARTESIAN_POINT('',(0.0967010423452768,0.0,-36.7999442996743));
#953=VECTOR('',#1465,1.0);
#954=PRE_DEFINED_MARKER('');
#955=COLOUR_RGB('',0.498039215803146,0.498039215803146,0.498039215803146);
#956=PRE_DEFINED_MARKER('');
#957=COLOUR_RGB('',0.498039215803146,0.498039215803146,0.498039215803146);
#958=DRAUGHTING_PRE_DEFINED_CURVE_FONT('continuous');
#959=COLOUR_RGB('',0.498039215803146,0.498039215803146,0.498039215803146);
#960=CARTESIAN_POINT('',(-0.314868906269419,1.46658023028565,-35.7574949574024));
#961=CARTESIAN_POINT('',(-0.335050458532666,1.46224733367956,-35.8060820694257));
#962=CARTESIAN_POINT('',(-0.345036339300622,1.45977735444897,-35.8590167931671));
#963=CARTESIAN_POINT('',(-0.345036339300621,1.45977735444897,-35.9585177806548));
#964=CARTESIAN_POINT('',(-0.335050458532666,1.46224733367956,-36.0114525043962));
#965=CARTESIAN_POINT('',(-0.294687354006183,1.47091312689174,-36.1086267284426));
#966=CARTESIAN_POINT('',(-0.264319381944401,1.47695271033967,-36.1528839400996));
#967=CARTESIAN_POINT('',(-0.194416198846918,1.48776678314766,-36.2226824192427));
#968=CARTESIAN_POINT('',(-0.150190002765001,1.49325454353536,-36.2529651939691));
#969=CARTESIAN_POINT('',(-0.0531271239485839,1.49984788471278,-36.2931900793177));
#970=CARTESIAN_POINT('',(-0.000277601456355456,1.50082058647412,-36.3031228766955));
#971=CARTESIAN_POINT('',(0.0992584208997275,1.49754612136718,-36.3031228766955));
#972=CARTESIAN_POINT('',(0.152267005818255,1.49305636381024,-36.2930669468251));
#973=CARTESIAN_POINT('',(0.200841428620677,1.48649343104825,-36.2728515638676));
#974=DRAUGHTING_PRE_DEFINED_CURVE_FONT('continuous');
#975=COLOUR_RGB('',0.800000011920929,0.800000011920929,0.800000011920929);
#976=CARTESIAN_POINT('',(0.25,3.06151588455594E-017,-59.89644661));
#977=VECTOR('',#1466,1.0);
#978=PRE_DEFINED_MARKER('');
#979=COLOUR_RGB('',0.498039215803146,0.498039215803146,0.498039215803146);
#980=PRE_DEFINED_MARKER('');
#981=COLOUR_RGB('',0.200000002980232,0.600000023841858,1.0);
#982=DRAUGHTING_PRE_DEFINED_CURVE_FONT('continuous');
#983=COLOUR_RGB('',0.498039215803146,0.498039215803146,0.498039215803146);
#984=CARTESIAN_POINT('',(-1.83690953073357E-016,1.5,-19.5));
#985=VECTOR('',#1467,1.0);
#986=SURFACE_SIDE_STYLE('',(#1468));
#987=EDGE_LOOP('',(#1469,#1470,#1471,#1472));
#988=AXIS2_PLACEMENT_3D('',#1473,#1474,#1475);
#989=SURFACE_SIDE_STYLE('',(#1476));
#990=EDGE_LOOP('',(#1477,#1478,#1479,#1480));
#991=AXIS2_PLACEMENT_3D('',#1481,#1482,#1483);
#992=PRE_DEFINED_MARKER('');
#993=COLOUR_RGB('',0.498039215803146,0.498039215803146,0.498039215803146);
#994=SURFACE_SIDE_STYLE('',(#1484));
#995=EDGE_LOOP('',(#1485,#1486));
#996=AXIS2_PLACEMENT_3D('',#1487,#1488,#1489);
#997=PRE_DEFINED_MARKER('');
#998=COLOUR_RGB('',0.498039215803146,0.498039215803146,0.498039215803146);
#999=PRE_DEFINED_MARKER('');
#1000=COLOUR_RGB('',0.200000002980232,0.600000023841858,1.0);
#1001=DRAUGHTING_PRE_DEFINED_CURVE_FONT('continuous');
#1002=COLOUR_RGB('',0.498039215803146,0.498039215803146,0.498039215803146);
#1003=CARTESIAN_POINT('',(1.22430020223392E-016,-0.99975,-40.65));
#1004=VECTOR('',#1490,1.0);
#1005=DRAUGHTING_PRE_DEFINED_CURVE_FONT('continuous');
#1006=COLOUR_RGB('',0.200000002980232,0.600000023841858,1.0);
#1007=CARTESIAN_POINT('',(0.445736688382193,0.0,-36.5633885667752));
#1008=VECTOR('',#1491,1.0);
#1009=DRAUGHTING_PRE_DEFINED_CURVE_FONT('continuous');
#1010=COLOUR_RGB('',0.200000002980232,0.600000023841858,1.0);
#1011=CARTESIAN_POINT('',(0.266477242128121,0.0,-35.800000092291));
#1012=VECTOR('',#1492,1.0);
#1013=SURFACE_SIDE_STYLE('',(#1493));
#1014=DRAUGHTING_PRE_DEFINED_CURVE_FONT('continuous');
#1015=COLOUR_RGB('',0.498039215803146,0.498039215803146,0.498039215803146);
#1016=CARTESIAN_POINT('',(0.199061849002126,1.48673278711134,-36.7687828857748));
#1017=CARTESIAN_POINT('',(0.265847067215447,1.47779077066393,-36.7410006035899));
#1018=CARTESIAN_POINT('',(0.32649334241822,1.4648697423439,-36.6993265217779));
#1019=CARTESIAN_POINT('',(0.422252417114927,1.44019132283688,-36.6036106277201));
#1020=CARTESIAN_POINT('',(0.463941140424689,1.42675317793294,-36.54295936927));
#1021=CARTESIAN_POINT('',(0.491743345585497,1.4171056707502,-36.4761709487976));
#1022=PRE_DEFINED_MARKER('');
#1023=COLOUR_RGB('',0.800000011920929,0.800000011920929,0.800000011920929);
#1024=DRAUGHTING_PRE_DEFINED_CURVE_FONT('continuous');
#1025=COLOUR_RGB('',0.800000011920929,0.800000011920929,0.800000011920929);
#1026=CARTESIAN_POINT('',(0.5,6.12303176911189E-017,-53.89644661));
#1027=VECTOR('',#1494,1.0);
#1028=DRAUGHTING_PRE_DEFINED_CURVE_FONT('continuous');
#1029=COLOUR_RGB('',0.498039215803146,0.498039215803146,0.498039215803146);
#1030=CARTESIAN_POINT('',(-1.83690953073357E-016,1.5,-19.5));
#1031=VECTOR('',#1495,1.0);
#1032=SURFACE_SIDE_STYLE('',(#1496));
#1033=EDGE_LOOP('',(#1497,#1498,#1499,#1500));
#1034=AXIS2_PLACEMENT_3D('',#1501,#1502,#1503);
#1035=DRAUGHTING_PRE_DEFINED_CURVE_FONT('continuous');
#1036=COLOUR_RGB('',0.800000011920929,0.800000011920929,0.800000011920929);
#1037=AXIS2_PLACEMENT_3D('',#1504,#1505,#1506);
#1038=SURFACE_SIDE_STYLE('',(#1507));
#1039=EDGE_LOOP('',(#1508,#1509,#1510,#1511));
#1040=AXIS2_PLACEMENT_3D('',#1512,#1513,#1514);
#1041=PRE_DEFINED_MARKER('');
#1042=COLOUR_RGB('',0.200000002980232,0.600000023841858,1.0);
#1043=DRAUGHTING_PRE_DEFINED_CURVE_FONT('continuous');
#1044=COLOUR_RGB('',0.200000002980232,0.600000023841858,1.0);
#1045=CARTESIAN_POINT('',(-0.117181624611204,1.39508726137596,-35.737690401687));
#1046=CARTESIAN_POINT('',(-0.138468766914006,1.39329922847835,-35.7589566347354));
#1047=CARTESIAN_POINT('',(-0.15692389553692,1.39123221227467,-35.7858905726496));
#1048=CARTESIAN_POINT('',(-0.181415217899849,1.38825094909163,-35.844945964173));
#1049=CARTESIAN_POINT('',(-0.187449399729082,1.38739422030698,-35.8770711417381));
#1050=CARTESIAN_POINT('',(-0.187449399729082,1.38739422030698,-35.9373568666531));
#1051=CARTESIAN_POINT('',(-0.181415217899849,1.38825094909163,-35.9694820442182));
#1052=CARTESIAN_POINT('',(-0.15692389553692,1.39123221227467,-36.0285374357416));
#1053=CARTESIAN_POINT('',(-0.138468766914005,1.39329922847835,-36.0554713736558));
#1054=CARTESIAN_POINT('',(-0.0959259586970276,1.39687265038565,-36.0979723942817));
#1055=CARTESIAN_POINT('',(-0.06900158446767,1.39861004085185,-36.1163934152249));
#1056=CARTESIAN_POINT('',(-0.00999068415960436,1.40027549119428,-36.1408275166926));
#1057=CARTESIAN_POINT('',(0.0220980814635057,1.40014912846684,-36.1468388675916));
#1058=CARTESIAN_POINT('',(0.0824038797008532,1.39790007820479,-36.1468388675916));
#1059=CARTESIAN_POINT('',(0.114562559826977,1.39562045177,-36.1407733890513));
#1060=CARTESIAN_POINT('',(0.173611467778052,1.38951073541202,-36.1162485285127));
#1061=CARTESIAN_POINT('',(0.200509103726029,1.38573400073898,-36.0977937209248));
#1062=CARTESIAN_POINT('',(0.24292053335399,1.37893056499176,-36.0553169370546));
#1063=CARTESIAN_POINT('',(0.261316537705002,1.37545227066293,-36.0284524064416));
#1064=CARTESIAN_POINT('',(0.285758720113013,1.37058280964528,-35.9694843696622));
#1065=CARTESIAN_POINT('',(0.291800327062856,1.36925255856106,-35.9373739545128));
#1066=CARTESIAN_POINT('',(0.291800327062856,1.36925255856106,-35.9072140041956));
#1067=CARTESIAN_POINT('',(0.291800327062856,1.36925255856106,-35.8770229693381));
#1068=CARTESIAN_POINT('',(0.2857463781139,1.3705855963343,-35.8448817225855));
#1069=CARTESIAN_POINT('',(0.261258051765335,1.37546359362798,-35.78586673519));
#1070=CARTESIAN_POINT('',(0.242828249769718,1.37894741485181,-35.758986058602));
#1071=CARTESIAN_POINT('',(0.221615829515077,1.38234815589574,-35.7377736383474));
#1072=DRAUGHTING_PRE_DEFINED_CURVE_FONT('continuous');
#1073=COLOUR_RGB('',0.200000002980232,0.600000023841858,1.0);
#1074=CARTESIAN_POINT('',(-0.187444663409338,0.0,-35.9057073995657));
#1075=VECTOR('',#1515,1.0);
#1076=SURFACE_SIDE_STYLE('',(#1516));
#1077=EDGE_LOOP('',(#1517,#1518,#1519,#1520,#1521));
#1078=AXIS2_PLACEMENT_3D('',#1522,#1523,#1524);
#1079=DRAUGHTING_PRE_DEFINED_CURVE_FONT('continuous');
#1080=COLOUR_RGB('',0.200000002980232,0.600000023841858,1.0);
#1081=CARTESIAN_POINT('',(0.291186927252985,0.0,-36.719578393051));
#1082=VECTOR('',#1525,1.0);
#1083=PRE_DEFINED_MARKER('');
#1084=COLOUR_RGB('',0.498039215803146,0.498039215803146,0.498039215803146);
#1085=PRE_DEFINED_MARKER('');
#1086=COLOUR_RGB('',0.498039215803146,0.498039215803146,0.498039215803146);
#1087=DRAUGHTING_PRE_DEFINED_CURVE_FONT('continuous');
#1088=COLOUR_RGB('',0.498039215803146,0.498039215803146,0.498039215803146);
#1089=AXIS2_PLACEMENT_3D('',#1526,#1527,#1528);
#1090=SURFACE_SIDE_STYLE('',(#1529));
#1091=EDGE_LOOP('',(#1530,#1531,#1532,#1533));
#1092=AXIS2_PLACEMENT_3D('',#1534,#1535,#1536);
#1093=DRAUGHTING_PRE_DEFINED_CURVE_FONT('continuous');
#1094=COLOUR_RGB('',0.498039215803146,0.498039215803146,0.498039215803146);
#1095=CARTESIAN_POINT('',(1.65321857766021E-016,-1.35,-0.149999999999999));
#1096=VECTOR('',#1537,1.0);
#1097=DRAUGHTING_PRE_DEFINED_CURVE_FONT('continuous');
#1098=COLOUR_RGB('',0.498039215803146,0.498039215803146,0.498039215803146);
#1099=CARTESIAN_POINT('',(-0.510663884086718,1.41039795713461,-36.4761414932216));
#1100=CARTESIAN_POINT('',(-0.482882195324521,1.42045688567567,-36.5428917331796));
#1101=CARTESIAN_POINT('',(-0.441244348092513,1.43448916486863,-36.6034830495674));
#1102=CARTESIAN_POINT('',(-0.34559676176087,1.46048597628377,-36.699175425681));
#1103=CARTESIAN_POINT('',(-0.284974339318753,1.47422809273278,-36.7408778107875));
#1104=CARTESIAN_POINT('',(-0.151371949196347,1.49386926357127,-36.7965191841322));
#1105=CARTESIAN_POINT('',(-0.0783437509828543,1.49953600664492,-36.8104241111695));
#1106=CARTESIAN_POINT('',(0.059308117302166,1.50040360289934,-36.8104241111695));
#1107=CARTESIAN_POINT('',(0.132276716500882,1.49567479625857,-36.7965653151316));
#1108=CARTESIAN_POINT('',(0.199061940328441,1.48673277488346,-36.7687830304685));
#1109=DRAUGHTING_PRE_DEFINED_CURVE_FONT('continuous');
#1110=COLOUR_RGB('',0.498039215803146,0.498039215803146,0.498039215803146);
#1111=AXIS2_PLACEMENT_3D('',#1538,#1539,#1540);
#1112=SURFACE_SIDE_STYLE('',(#1541));
#1113=EDGE_LOOP('',(#1542,#1543,#1544,#1545));
#1114=AXIS2_PLACEMENT_3D('',#1546,#1547,#1548);
#1115=PRE_DEFINED_MARKER('');
#1116=COLOUR_RGB('',0.498039215803146,0.498039215803146,0.498039215803146);
#1117=SURFACE_SIDE_STYLE('',(#1549));
#1118=EDGE_LOOP('',(#1550,#1551));
#1119=AXIS2_PLACEMENT_3D('',#1552,#1553,#1554);
#1120=PRE_DEFINED_MARKER('');
#1121=COLOUR_RGB('',0.800000011920929,0.800000011920929,0.800000011920929);
#1122=DRAUGHTING_PRE_DEFINED_CURVE_FONT('continuous');
#1123=COLOUR_RGB('',0.498039215803146,0.498039215803146,0.498039215803146);
#1124=CARTESIAN_POINT('',(0.221729286755512,1.48352152778276,-35.7378871716097));
#1125=CARTESIAN_POINT('',(0.242916664335147,1.48035483149223,-35.7591029518554));
#1126=CARTESIAN_POINT('',(0.261318671695974,1.47711443847429,-35.7859780646235));
#1127=CARTESIAN_POINT('',(0.285762500920562,1.47258083232378,-35.8449554464605));
#1128=CARTESIAN_POINT('',(0.291800327062856,1.47134379705289,-35.8770636764107));
#1129=CARTESIAN_POINT('',(0.291800327062856,1.47134379705289,-35.9072140041956));
#1130=CARTESIAN_POINT('',(0.291800327062856,1.47134379705289,-35.9373643319804));
#1131=CARTESIAN_POINT('',(0.285762500920559,1.47258083232378,-35.9694725619307));
#1132=CARTESIAN_POINT('',(0.261318671695972,1.47711443847429,-36.0284499437677));
#1133=CARTESIAN_POINT('',(0.242916664335146,1.48035483149223,-36.0553250565357));
#1134=CARTESIAN_POINT('',(0.200487072889916,1.4866964199844,-36.0978115268238));
#1135=CARTESIAN_POINT('',(0.173583194808325,1.49021764919555,-36.1162645841107));
#1136=CARTESIAN_POINT('',(0.114535660161262,1.49591488728219,-36.1407802443434));
#1137=CARTESIAN_POINT('',(0.0823855330622715,1.49804084650163,-36.1468388675916));
#1138=CARTESIAN_POINT('',(0.022096731509681,1.5001391803914,-36.1468388675916));
#1139=CARTESIAN_POINT('',(-0.00999262344409855,1.5002571208703,-36.1408272955109));
#1140=CARTESIAN_POINT('',(-0.0690070987492227,1.49870253939413,-36.1163905501035));
#1141=CARTESIAN_POINT('',(-0.0959341735062562,1.49708093351492,-36.0979668841244));
#1142=CARTESIAN_POINT('',(-0.138477984082618,1.49374686847048,-36.055459464118));
#1143=CARTESIAN_POINT('',(-0.1569313723902,1.49181914896708,-36.0285240496651));
#1144=CARTESIAN_POINT('',(-0.181417959074002,1.48903974234222,-35.969470789854));
#1145=CARTESIAN_POINT('',(-0.187449399729082,1.48824148663488,-35.9373497129873));
#1146=CARTESIAN_POINT('',(-0.187449399729082,1.48824148663488,-35.8770782954039));
#1147=CARTESIAN_POINT('',(-0.181417959074002,1.48903974234222,-35.8449572185372));
#1148=CARTESIAN_POINT('',(-0.1569313723902,1.49181914896708,-35.7859039587261));
#1149=CARTESIAN_POINT('',(-0.138477984082619,1.49374686847048,-35.7589685442732));
#1150=CARTESIAN_POINT('',(-0.117192388826771,1.49541497384541,-35.7377011560123));
#1151=DRAUGHTING_PRE_DEFINED_CURVE_FONT('continuous');
#1152=COLOUR_RGB('',0.498039215803146,0.498039215803146,0.498039215803146);
#1153=AXIS2_PLACEMENT_3D('',#1555,#1556,#1557);
#1154=SURFACE_SIDE_STYLE('',(#1558));
#1155=EDGE_LOOP('',(#1559,#1560,#1561,#1562));
#1156=AXIS2_PLACEMENT_3D('',#1563,#1564,#1565);
#1157=DRAUGHTING_PRE_DEFINED_CURVE_FONT('continuous');
#1158=COLOUR_RGB('',0.498039215803146,0.498039215803146,0.498039215803146);
#1159=AXIS2_PLACEMENT_3D('',#1566,#1567,#1568);
#1160=DRAUGHTING_PRE_DEFINED_CURVE_FONT('continuous');
#1161=COLOUR_RGB('',0.498039215803146,0.498039215803146,0.498039215803146);
#1162=AXIS2_PLACEMENT_3D('',#1569,#1570,#1571);
#1163=DRAUGHTING_PRE_DEFINED_CURVE_FONT('continuous');
#1164=COLOUR_RGB('',0.200000002980232,0.600000023841858,1.0);
#1165=CARTESIAN_POINT('',(0.291186927252986,1.36938313608609,-36.4797713897937));
#1166=VECTOR('',#1572,1.0);
#1167=DRAUGHTING_PRE_DEFINED_CURVE_FONT('continuous');
#1168=COLOUR_RGB('',0.200000002980232,0.600000023841858,1.0);
#1169=CARTESIAN_POINT('',(0.491686342719134,1.31081827130365,-36.4763078322725));
#1170=CARTESIAN_POINT('',(0.463869841580199,1.32125219623146,-36.5430791995198));
#1171=CARTESIAN_POINT('',(0.422198143844177,1.33574583015858,-36.603668164395));
#1172=CARTESIAN_POINT('',(0.326537028272233,1.36228968656385,-36.6992795725562));
#1173=CARTESIAN_POINT('',(0.265951888390631,1.37616139160821,-36.7409385029054));
#1174=CARTESIAN_POINT('',(0.199180085429986,1.38575874291599,-36.7687336837202));
#1175=DRAUGHTING_PRE_DEFINED_CURVE_FONT('continuous');
#1176=COLOUR_RGB('',0.800000011920929,0.800000011920929,0.800000011920929);
#1177=AXIS2_PLACEMENT_3D('',#1573,#1574,#1575);
#1178=DRAUGHTING_PRE_DEFINED_CURVE_FONT('continuous');
#1179=COLOUR_RGB('',0.498039215803146,0.498039215803146,0.498039215803146);
#1180=CARTESIAN_POINT('',(0.445736688382193,1.43224257883575,-36.267535689468));
#1181=VECTOR('',#1576,1.0);
#1182=PRE_DEFINED_MARKER('');
#1183=COLOUR_RGB('',0.498039215803146,0.498039215803146,0.498039215803146);
#1184=DRAUGHTING_PRE_DEFINED_CURVE_FONT('continuous');
#1185=COLOUR_RGB('',0.498039215803146,0.498039215803146,0.498039215803146);
#1186=CARTESIAN_POINT('',(0.491743348242611,1.41710566982817,-36.0589004347604));
#1187=CARTESIAN_POINT('',(0.463941142106075,1.42675317740789,-35.9921120119755));
#1188=CARTESIAN_POINT('',(0.42225241733621,1.44019132283161,-35.9314607514286));
#1189=CARTESIAN_POINT('',(0.326493339315814,1.46486974309175,-35.8357448541152));
#1190=CARTESIAN_POINT('',(0.265847062040816,1.47779077169742,-35.7940707709));
#1191=CARTESIAN_POINT('',(0.199061841552505,1.48673278810879,-35.7662884877836));
#1192=DRAUGHTING_PRE_DEFINED_CURVE_FONT('continuous');
#1193=COLOUR_RGB('',0.498039215803146,0.498039215803146,0.498039215803146);
#1194=CARTESIAN_POINT('',(0.291186927252986,1.4714653150506,-36.4797713897937));
#1195=VECTOR('',#1577,1.0);
#1196=DRAUGHTING_PRE_DEFINED_CURVE_FONT('continuous');
#1197=COLOUR_RGB('',0.498039215803146,0.498039215803146,0.498039215803146);
#1198=CARTESIAN_POINT('',(0.221729286755512,1.48352152778276,-35.7378871716097));
#1199=CARTESIAN_POINT('',(0.242916664335147,1.48035483149223,-35.7591029518554));
#1200=CARTESIAN_POINT('',(0.261318671695974,1.47711443847429,-35.7859780646235));
#1201=CARTESIAN_POINT('',(0.285762500920562,1.47258083232378,-35.8449554464605));
#1202=CARTESIAN_POINT('',(0.291800327062856,1.47134379705289,-35.8770636764107));
#1203=CARTESIAN_POINT('',(0.291800327062856,1.47134379705289,-35.9072140041956));
#1204=CARTESIAN_POINT('',(0.291800327062856,1.47134379705289,-35.9373643319804));
#1205=CARTESIAN_POINT('',(0.285762500920559,1.47258083232378,-35.9694725619307));
#1206=CARTESIAN_POINT('',(0.261318671695972,1.47711443847429,-36.0284499437677));
#1207=CARTESIAN_POINT('',(0.242916664335146,1.48035483149223,-36.0553250565357));
#1208=CARTESIAN_POINT('',(0.200487072889916,1.4866964199844,-36.0978115268238));
#1209=CARTESIAN_POINT('',(0.173583194808325,1.49021764919555,-36.1162645841107));
#1210=CARTESIAN_POINT('',(0.114535660161262,1.49591488728219,-36.1407802443434));
#1211=CARTESIAN_POINT('',(0.0823855330622715,1.49804084650163,-36.1468388675916));
#1212=CARTESIAN_POINT('',(0.022096731509681,1.5001391803914,-36.1468388675916));
#1213=CARTESIAN_POINT('',(-0.00999262344409855,1.5002571208703,-36.1408272955109));
#1214=CARTESIAN_POINT('',(-0.0690070987492227,1.49870253939413,-36.1163905501035));
#1215=CARTESIAN_POINT('',(-0.0959341735062562,1.49708093351492,-36.0979668841244));
#1216=CARTESIAN_POINT('',(-0.138477984082618,1.49374686847048,-36.055459464118));
#1217=CARTESIAN_POINT('',(-0.1569313723902,1.49181914896708,-36.0285240496651));
#1218=CARTESIAN_POINT('',(-0.181417959074002,1.48903974234222,-35.969470789854));
#1219=CARTESIAN_POINT('',(-0.187449399729082,1.48824148663488,-35.9373497129873));
#1220=CARTESIAN_POINT('',(-0.187449399729082,1.48824148663488,-35.8770782954039));
#1221=CARTESIAN_POINT('',(-0.181417959074002,1.48903974234222,-35.8449572185372));
#1222=CARTESIAN_POINT('',(-0.1569313723902,1.49181914896708,-35.7859039587261));
#1223=CARTESIAN_POINT('',(-0.138477984082619,1.49374686847048,-35.7589685442732));
#1224=CARTESIAN_POINT('',(-0.117192388826771,1.49541497384541,-35.7377011560123));
#1225=SURFACE_SIDE_STYLE('',(#1578));
#1226=EDGE_LOOP('',(#1579,#1580,#1581,#1582));
#1227=AXIS2_PLACEMENT_3D('',#1583,#1584,#1585);
#1228=DRAUGHTING_PRE_DEFINED_CURVE_FONT('continuous');
#1229=COLOUR_RGB('',0.498039215803146,0.498039215803146,0.498039215803146);
#1230=CARTESIAN_POINT('',(0.221729286755512,1.48352152778276,-35.7378871716097));
#1231=CARTESIAN_POINT('',(0.242916664335147,1.48035483149223,-35.7591029518554));
#1232=CARTESIAN_POINT('',(0.261318671695974,1.47711443847429,-35.7859780646235));
#1233=CARTESIAN_POINT('',(0.285762500920562,1.47258083232378,-35.8449554464605));
#1234=CARTESIAN_POINT('',(0.291800327062856,1.47134379705289,-35.8770636764107));
#1235=CARTESIAN_POINT('',(0.291800327062856,1.47134379705289,-35.9072140041956));
#1236=CARTESIAN_POINT('',(0.291800327062856,1.47134379705289,-35.9373643319804));
#1237=CARTESIAN_POINT('',(0.285762500920559,1.47258083232378,-35.9694725619307));
#1238=CARTESIAN_POINT('',(0.261318671695972,1.47711443847429,-36.0284499437677));
#1239=CARTESIAN_POINT('',(0.242916664335146,1.48035483149223,-36.0553250565357));
#1240=CARTESIAN_POINT('',(0.200487072889916,1.4866964199844,-36.0978115268238));
#1241=CARTESIAN_POINT('',(0.173583194808325,1.49021764919555,-36.1162645841107));
#1242=CARTESIAN_POINT('',(0.114535660161262,1.49591488728219,-36.1407802443434));
#1243=CARTESIAN_POINT('',(0.0823855330622715,1.49804084650163,-36.1468388675916));
#1244=CARTESIAN_POINT('',(0.022096731509681,1.5001391803914,-36.1468388675916));
#1245=CARTESIAN_POINT('',(-0.00999262344409855,1.5002571208703,-36.1408272955109));
#1246=CARTESIAN_POINT('',(-0.0690070987492227,1.49870253939413,-36.1163905501035));
#1247=CARTESIAN_POINT('',(-0.0959341735062562,1.49708093351492,-36.0979668841244));
#1248=CARTESIAN_POINT('',(-0.138477984082618,1.49374686847048,-36.055459464118));
#1249=CARTESIAN_POINT('',(-0.1569313723902,1.49181914896708,-36.0285240496651));
#1250=CARTESIAN_POINT('',(-0.181417959074002,1.48903974234222,-35.969470789854));
#1251=CARTESIAN_POINT('',(-0.187449399729082,1.48824148663488,-35.9373497129873));
#1252=CARTESIAN_POINT('',(-0.187449399729082,1.48824148663488,-35.8770782954039));
#1253=CARTESIAN_POINT('',(-0.181417959074002,1.48903974234222,-35.8449572185372));
#1254=CARTESIAN_POINT('',(-0.1569313723902,1.49181914896708,-35.7859039587261));
#1255=CARTESIAN_POINT('',(-0.138477984082619,1.49374686847048,-35.7589685442732));
#1256=CARTESIAN_POINT('',(-0.117192388826771,1.49541497384541,-35.7377011560123));
#1257=SURFACE_SIDE_STYLE('',(#1586));
#1258=EDGE_LOOP('',(#1587,#1588,#1589));
#1259=AXIS2_PLACEMENT_3D('',#1590,#1591,#1592);
#1260=SURFACE_SIDE_STYLE('',(#1593));
#1261=EDGE_LOOP('',(#1594,#1595));
#1262=AXIS2_PLACEMENT_3D('',#1596,#1597,#1598);
#1263=DRAUGHTING_PRE_DEFINED_CURVE_FONT('continuous');
#1264=COLOUR_RGB('',0.498039215803146,0.498039215803146,0.498039215803146);
#1265=AXIS2_PLACEMENT_3D('',#1599,#1600,#1601);
#1266=PRE_DEFINED_MARKER('');
#1267=COLOUR_RGB('',0.498039215803146,0.498039215803146,0.498039215803146);
#1268=DRAUGHTING_PRE_DEFINED_CURVE_FONT('continuous');
#1269=COLOUR_RGB('',0.200000002980232,0.600000023841858,1.0);
#1270=CARTESIAN_POINT('',(-0.345024467969599,0.0,-35.9057073995657));
#1271=VECTOR('',#1602,1.0);
#1272=PRE_DEFINED_MARKER('');
#1273=COLOUR_RGB('',0.200000002980232,0.600000023841858,1.0);
#1274=PRE_DEFINED_MARKER('');
#1275=COLOUR_RGB('',0.498039215803146,0.498039215803146,0.498039215803146);
#1276=PRE_DEFINED_MARKER('');
#1277=COLOUR_RGB('',0.200000002980232,0.600000023841858,1.0);
#1278=SURFACE_SIDE_STYLE('',(#1603));
#1279=EDGE_LOOP('',(#1604,#1605,#1606,#1607,#1608));
#1280=AXIS2_PLACEMENT_3D('',#1609,#1610,#1611);
#1281=DRAUGHTING_PRE_DEFINED_CURVE_FONT('continuous');
#1282=COLOUR_RGB('',0.498039215803146,0.498039215803146,0.498039215803146);
#1283=CARTESIAN_POINT('',(-1.22430020223392E-016,0.99975,-40.65));
#1284=VECTOR('',#1612,1.0);
#1285=DRAUGHTING_PRE_DEFINED_CURVE_FONT('continuous');
#1286=COLOUR_RGB('',0.498039215803146,0.498039215803146,0.498039215803146);
#1287=CARTESIAN_POINT('',(1.83690953073357E-016,-1.5,-19.5));
#1288=VECTOR('',#1613,1.0);
#1289=DRAUGHTING_PRE_DEFINED_CURVE_FONT('continuous');
#1290=COLOUR_RGB('',0.498039215803146,0.498039215803146,0.498039215803146);
#1291=AXIS2_PLACEMENT_3D('',#1614,#1615,#1616);
#1292=PRE_DEFINED_MARKER('');
#1293=COLOUR_RGB('',0.800000011920929,0.800000011920929,0.800000011920929);
#1294=SURFACE_SIDE_STYLE('',(#1617));
#1295=EDGE_LOOP('',(#1618,#1619,#1620,#1621));
#1296=AXIS2_PLACEMENT_3D('',#1622,#1623,#1624);
#1297=DRAUGHTING_PRE_DEFINED_CURVE_FONT('continuous');
#1298=COLOUR_RGB('',0.498039215803146,0.498039215803146,0.498039215803146);
#1299=CARTESIAN_POINT('',(-1.65321857766021E-016,1.35,-0.149999999999999));
#1300=VECTOR('',#1625,1.0);
#1301=PRE_DEFINED_MARKER('');
#1302=COLOUR_RGB('',0.200000002980232,0.600000023841858,1.0);
#1303=PRE_DEFINED_MARKER('');
#1304=COLOUR_RGB('',0.498039215803146,0.498039215803146,0.498039215803146);
#1305=DRAUGHTING_PRE_DEFINED_CURVE_FONT('continuous');
#1306=COLOUR_RGB('',0.498039215803146,0.498039215803146,0.498039215803146);
#1307=AXIS2_PLACEMENT_3D('',#1626,#1627,#1628);
#1308=PRE_DEFINED_MARKER('');
#1309=COLOUR_RGB('',0.200000002980232,0.600000023841858,1.0);
#1310=PRE_DEFINED_MARKER('');
#1311=COLOUR_RGB('',0.498039215803146,0.498039215803146,0.498039215803146);
#1312=DRAUGHTING_PRE_DEFINED_CURVE_FONT('continuous');
#1313=COLOUR_RGB('',0.498039215803146,0.498039215803146,0.498039215803146);
#1314=AXIS2_PLACEMENT_3D('',#1629,#1630,#1631);
#1315=DRAUGHTING_PRE_DEFINED_CURVE_FONT('continuous');
#1316=COLOUR_RGB('',0.200000002980232,0.600000023841858,1.0);
#1317=AXIS2_PLACEMENT_3D('',#1632,#1633,#1634);
#1318=DRAUGHTING_PRE_DEFINED_CURVE_FONT('continuous');
#1319=COLOUR_RGB('',0.498039215803146,0.498039215803146,0.498039215803146);
#1320=CARTESIAN_POINT('',(-6.11690873734277E-017,0.4995,-45.25));
#1321=VECTOR('',#1635,1.0);
#1322=PRE_DEFINED_MARKER('');
#1323=COLOUR_RGB('',0.498039215803146,0.498039215803146,0.498039215803146);
#1324=DRAUGHTING_PRE_DEFINED_CURVE_FONT('continuous');
#1325=COLOUR_RGB('',0.498039215803146,0.498039215803146,0.498039215803146);
#1326=AXIS2_PLACEMENT_3D('',#1636,#1637,#1638);
#1327=PRE_DEFINED_MARKER('');
#1328=COLOUR_RGB('',0.200000002980232,0.600000023841858,1.0);
#1329=PRE_DEFINED_MARKER('');
#1330=COLOUR_RGB('',0.498039215803146,0.498039215803146,0.498039215803146);
#1331=SURFACE_SIDE_STYLE('',(#1639));
#1332=EDGE_LOOP('',(#1640,#1641,#1642,#1643,#1644,#1645,#1646,#1647,#1648,#1649,#1650));
#1333=AXIS2_PLACEMENT_3D('',#1651,#1652,#1653);
#1334=DRAUGHTING_PRE_DEFINED_CURVE_FONT('continuous');
#1335=COLOUR_RGB('',0.200000002980232,0.600000023841858,1.0);
#1336=AXIS2_PLACEMENT_3D('',#1654,#1655,#1656);
#1337=DRAUGHTING_PRE_DEFINED_CURVE_FONT('continuous');
#1338=COLOUR_RGB('',0.200000002980232,0.600000023841858,1.0);
#1339=CARTESIAN_POINT('',(-0.445684250814332,0.0,-36.5906934636265));
#1340=VECTOR('',#1657,1.0);
#1341=SURFACE_SIDE_STYLE('',(#1658));
#1342=EDGE_LOOP('',(#1659,#1660,#1661,#1662));
#1343=AXIS2_PLACEMENT_3D('',#1663,#1664,#1665);
#1344=DRAUGHTING_PRE_DEFINED_CURVE_FONT('continuous');
#1345=COLOUR_RGB('',0.498039215803146,0.498039215803146,0.498039215803146);
#1346=AXIS2_PLACEMENT_3D('',#1666,#1667,#1668);
#1347=DRAUGHTING_PRE_DEFINED_CURVE_FONT('continuous');
#1348=COLOUR_RGB('',0.498039215803146,0.498039215803146,0.498039215803146);
#1349=CARTESIAN_POINT('',(6.11690873734277E-017,-0.4995,-45.25));
#1350=VECTOR('',#1669,1.0);
#1351=SURFACE_SIDE_STYLE('',(#1670));
#1352=EDGE_LOOP('',(#1671,#1672,#1673,#1674));
#1353=AXIS2_PLACEMENT_3D('',#1675,#1676,#1677);
#1354=PRE_DEFINED_MARKER('');
#1355=COLOUR_RGB('',0.498039215803146,0.498039215803146,0.498039215803146);
#1356=SURFACE_SIDE_STYLE('',(#1678));
#1357=EDGE_LOOP('',(#1679,#1680,#1681));
#1358=AXIS2_PLACEMENT_3D('',#1682,#1683,#1684);
#1359=DRAUGHTING_PRE_DEFINED_CURVE_FONT('continuous');
#1360=COLOUR_RGB('',0.200000002980232,0.600000023841858,1.0);
#1361=CARTESIAN_POINT('',(0.445736688382193,0.0,-35.9716828121607));
#1362=VECTOR('',#1685,1.0);
#1363=SURFACE_SIDE_STYLE('',(#1686));
#1364=EDGE_LOOP('',(#1687,#1688,#1689,#1690,#1691));
#1365=AXIS2_PLACEMENT_3D('',#1692,#1693,#1694);
#1366=PRE_DEFINED_MARKER('');
#1367=COLOUR_RGB('',0.200000002980232,0.600000023841858,1.0);
#1368=DRAUGHTING_PRE_DEFINED_CURVE_FONT('continuous');
#1369=COLOUR_RGB('',0.200000002980232,0.600000023841858,1.0);
#1370=CARTESIAN_POINT('',(0.191042345276873,0.0,-36.2767766558089));
#1371=VECTOR('',#1695,1.0);
#1372=DRAUGHTING_PRE_DEFINED_CURVE_FONT('continuous');
#1373=COLOUR_RGB('',0.498039215803146,0.498039215803146,0.498039215803146);
#1374=AXIS2_PLACEMENT_3D('',#1696,#1697,#1698);
#1375=SURFACE_SIDE_STYLE('',(#1699));
#1376=EDGE_LOOP('',(#1700,#1701,#1702,#1703,#1704,#1705,#1706,#1707,#1708,#1709,#1710,#1711));
#1377=AXIS2_PLACEMENT_3D('',#1712,#1713,#1714);
#1379=SURFACE_STYLE_FILL_AREA(#1715);
#1380=ORIENTED_EDGE('',*,*,#211,.F.);
#1381=ORIENTED_EDGE('',*,*,#241,.T.);
#1382=ORIENTED_EDGE('',*,*,#437,.T.);
#1383=CARTESIAN_POINT('',(0.0,0.0,-19.5));
#1384=DIRECTION('',(-0.0,-0.0,1.0));
#1385=DIRECTION('',(0.0,1.0,0.0));
#1386=DIRECTION('',(0.923879533286436,1.13138874662902E-016,-0.382683430493714));
#1387=SURFACE_STYLE_FILL_AREA(#1716);
#1388=ORIENTED_EDGE('',*,*,#333,.F.);
#1389=ORIENTED_EDGE('',*,*,#245,.F.);
#1390=ORIENTED_EDGE('',*,*,#187,.F.);
#1391=ORIENTED_EDGE('',*,*,#205,.T.);
#1392=CARTESIAN_POINT('',(0.0967010423452768,0.0,-36.7999442996743));
#1393=DIRECTION('',(0.944648353914092,0.0,-0.328084573619969));
#1394=DIRECTION('',(-0.328084573619969,0.0,-0.944648353914092));
#1395=DIRECTION('',(0.0,0.0,-1.0));
#1396=CARTESIAN_POINT('',(0.0,0.0,-37.0783739724423));
#1397=DIRECTION('',(-0.944648353914092,-0.0,0.328084573619969));
#1398=DIRECTION('',(0.328084573619969,0.0,0.944648353914092));
#1399=SURFACE_STYLE_FILL_AREA(#1717);
#1400=ORIENTED_EDGE('',*,*,#287,.T.);
#1401=ORIENTED_EDGE('',*,*,#355,.T.);
#1402=ORIENTED_EDGE('',*,*,#327,.T.);
#1403=ORIENTED_EDGE('',*,*,#231,.T.);
#1404=ORIENTED_EDGE('',*,*,#251,.T.);
#1405=ORIENTED_EDGE('',*,*,#211,.T.);
#1406=ORIENTED_EDGE('',*,*,#419,.T.);
#1407=ORIENTED_EDGE('',*,*,#315,.T.);
#1408=ORIENTED_EDGE('',*,*,#259,.T.);
#1409=ORIENTED_EDGE('',*,*,#309,.F.);
#1410=ORIENTED_EDGE('',*,*,#377,.T.);
#1411=ORIENTED_EDGE('',*,*,#317,.T.);
#1412=CARTESIAN_POINT('',(0.0,0.0,-19.5));
#1413=DIRECTION('',(-0.0,-0.0,1.0));
#1414=DIRECTION('',(0.0,1.0,0.0));
#1415=SURFACE_STYLE_FILL_AREA(#1718);
#1416=ORIENTED_EDGE('',*,*,#315,.F.);
#1417=ORIENTED_EDGE('',*,*,#415,.F.);
#1418=ORIENTED_EDGE('',*,*,#189,.F.);
#1419=ORIENTED_EDGE('',*,*,#245,.T.);
#1420=ORIENTED_EDGE('',*,*,#183,.F.);
#1421=CARTESIAN_POINT('',(-0.00945405644865667,0.0,-36.2675359373674));
#1422=DIRECTION('',(-0.0,-1.0,-0.0));
#1423=DIRECTION('',(0.195537688821767,0.0,-0.980696187537324));
#1424=SURFACE_STYLE_FILL_AREA(#1719);
#1425=ORIENTED_EDGE('',*,*,#237,.T.);
#1426=ORIENTED_EDGE('',*,*,#291,.F.);
#1427=ORIENTED_EDGE('',*,*,#285,.T.);
#1428=ORIENTED_EDGE('',*,*,#227,.T.);
#1429=CARTESIAN_POINT('',(0.0,0.0,-53.89644661));
#1430=DIRECTION('',(-0.0,-0.0,1.0));
#1431=DIRECTION('',(-1.0,0.0,0.0));
#1432=DIRECTION('',(0.0,1.0,0.0));
#1433=DIRECTION('',(0.0,0.0,-1.0));
#1434=DIRECTION('',(0.0,1.0,0.0));
#1435=CARTESIAN_POINT('',(0.0,0.0,-59.79289322));
#1436=DIRECTION('',(0.0,0.0,-1.0));
#1437=DIRECTION('',(-1.0,0.0,0.0));
#1438=CARTESIAN_POINT('',(0.0,0.0,-48.0));
#1439=DIRECTION('',(0.0,0.0,-1.0));
#1440=DIRECTION('',(0.0,1.0,0.0));
#1441=CARTESIAN_POINT('',(0.0,0.0,-48.0));
#1442=DIRECTION('',(0.0,0.0,-1.0));
#1443=DIRECTION('',(-1.0,0.0,0.0));
#1444=SURFACE_STYLE_FILL_AREA(#1720);
#1445=ORIENTED_EDGE('',*,*,#385,.T.);
#1446=ORIENTED_EDGE('',*,*,#317,.F.);
#1447=ORIENTED_EDGE('',*,*,#313,.T.);
#1448=ORIENTED_EDGE('',*,*,#379,.T.);
#1449=CARTESIAN_POINT('',(0.0,0.0,-0.149999999999999));
#1450=DIRECTION('',(0.0,-0.0,-1.0));
#1451=DIRECTION('',(0.0,1.0,0.0));
#1452=CARTESIAN_POINT('',(0.0,0.0,-35.9057073995657));
#1453=DIRECTION('',(0.0,-0.0,1.0));
#1454=DIRECTION('',(0.0,1.0,0.0));
#1455=SURFACE_STYLE_FILL_AREA(#1721);
#1456=DIRECTION('',(0.0,0.0,-1.0));
#1457=SURFACE_STYLE_FILL_AREA(#1722);
#1458=ORIENTED_EDGE('',*,*,#401,.T.);
#1459=ORIENTED_EDGE('',*,*,#225,.F.);
#1460=ORIENTED_EDGE('',*,*,#421,.T.);
#1461=ORIENTED_EDGE('',*,*,#391,.T.);
#1462=CARTESIAN_POINT('',(0.0,0.0,-45.25));
#1463=DIRECTION('',(-0.0,-0.0,1.0));
#1464=DIRECTION('',(0.0,1.0,0.0));
#1465=DIRECTION('',(0.0,1.0,0.0));
#1466=DIRECTION('',(0.923879533286436,1.13138874662902E-016,0.382683430493714));
#1467=DIRECTION('',(0.0,0.0,-1.0));
#1468=SURFACE_STYLE_FILL_AREA(#1723);
#1469=ORIENTED_EDGE('',*,*,#281,.F.);
#1470=ORIENTED_EDGE('',*,*,#303,.F.);
#1471=ORIENTED_EDGE('',*,*,#339,.F.);
#1472=ORIENTED_EDGE('',*,*,#275,.T.);
#1473=CARTESIAN_POINT('',(-0.00945412946648461,0.0,-36.2675358341104));
#1474=DIRECTION('',(-0.0,-1.0,-0.0));
#1475=DIRECTION('',(0.838461542890049,0.0,-0.544960770234371));
#1476=SURFACE_STYLE_FILL_AREA(#1724);
#1477=ORIENTED_EDGE('',*,*,#385,.F.);
#1478=ORIENTED_EDGE('',*,*,#335,.T.);
#1479=ORIENTED_EDGE('',*,*,#313,.F.);
#1480=ORIENTED_EDGE('',*,*,#397,.F.);
#1481=CARTESIAN_POINT('',(0.0,0.0,-0.149999999999999));
#1482=DIRECTION('',(0.0,-0.0,-1.0));
#1483=DIRECTION('',(0.0,1.0,0.0));
#1484=SURFACE_STYLE_FILL_AREA(#1725);
#1485=ORIENTED_EDGE('',*,*,#335,.F.);
#1486=ORIENTED_EDGE('',*,*,#379,.F.);
#1487=CARTESIAN_POINT('',(0.0,0.6,0.0));
#1488=DIRECTION('',(-0.0,0.0,1.0));
#1489=DIRECTION('',(0.0,-1.0,0.0));
#1490=DIRECTION('',(3.19659722668462E-017,-0.261030592949893,0.965330528650279));
#1491=DIRECTION('',(0.0,1.0,0.0));
#1492=DIRECTION('',(0.0,1.0,0.0));
#1493=SURFACE_STYLE_FILL_AREA(#1726);
#1494=DIRECTION('',(-0.0,-0.0,1.0));
#1495=DIRECTION('',(0.0,0.0,-1.0));
#1496=SURFACE_STYLE_FILL_AREA(#1727);
#1497=ORIENTED_EDGE('',*,*,#375,.T.);
#1498=ORIENTED_EDGE('',*,*,#391,.F.);
#1499=ORIENTED_EDGE('',*,*,#273,.T.);
#1500=ORIENTED_EDGE('',*,*,#309,.T.);
#1501=CARTESIAN_POINT('',(0.0,0.0,-40.65));
#1502=DIRECTION('',(-0.0,-0.0,1.0));
#1503=DIRECTION('',(0.0,1.0,0.0));
#1504=CARTESIAN_POINT('',(0.0,0.0,-59.79289322));
#1505=DIRECTION('',(0.0,0.0,-1.0));
#1506=DIRECTION('',(-1.0,0.0,0.0));
#1507=SURFACE_STYLE_FILL_AREA(#1728);
#1508=ORIENTED_EDGE('',*,*,#213,.F.);
#1509=ORIENTED_EDGE('',*,*,#201,.F.);
#1510=ORIENTED_EDGE('',*,*,#299,.T.);
#1511=ORIENTED_EDGE('',*,*,#327,.F.);
#1512=CARTESIAN_POINT('',(0.0521754636668867,0.0,-35.9072140041956));
#1513=DIRECTION('',(0.0,-1.0,-0.0));
#1514=DIRECTION('',(0.894321964023871,0.0,0.447423987582791));
#1515=DIRECTION('',(0.0,1.0,0.0));
#1516=SURFACE_STYLE_FILL_AREA(#1729);
#1517=ORIENTED_EDGE('',*,*,#437,.F.);
#1518=ORIENTED_EDGE('',*,*,#435,.F.);
#1519=ORIENTED_EDGE('',*,*,#413,.F.);
#1520=ORIENTED_EDGE('',*,*,#415,.T.);
#1521=ORIENTED_EDGE('',*,*,#419,.F.);
#1522=CARTESIAN_POINT('',(0.191042345276873,0.0,-36.2767766558089));
#1523=DIRECTION('',(-0.442195774284071,0.0,0.896918556617774));
#1524=DIRECTION('',(0.896918556617774,0.0,0.442195774284071));
#1525=DIRECTION('',(0.0,1.0,0.0));
#1526=CARTESIAN_POINT('',(0.0,0.0,-38.8));
#1527=DIRECTION('',(0.0,0.0,-1.0));
#1528=DIRECTION('',(0.0,1.0,0.0));
#1529=SURFACE_STYLE_FILL_AREA(#1730);
#1530=ORIENTED_EDGE('',*,*,#343,.F.);
#1531=ORIENTED_EDGE('',*,*,#275,.F.);
#1532=ORIENTED_EDGE('',*,*,#177,.F.);
#1533=ORIENTED_EDGE('',*,*,#429,.T.);
#1534=CARTESIAN_POINT('',(0.445736688382193,0.0,-36.5633885667752));
#1535=DIRECTION('',(1.0,0.0,0.0));
#1536=DIRECTION('',(0.0,0.0,-1.0));
#1537=DIRECTION('',(-8.65927457071939E-017,0.707106781186551,0.707106781186544));
#1538=CARTESIAN_POINT('',(0.0,0.0,-0.299999999999997));
#1539=DIRECTION('',(0.0,0.0,-1.0));
#1540=DIRECTION('',(0.0,1.0,0.0));
#1541=SURFACE_STYLE_FILL_AREA(#1731);
#1542=ORIENTED_EDGE('',*,*,#231,.F.);
#1543=ORIENTED_EDGE('',*,*,#299,.F.);
#1544=ORIENTED_EDGE('',*,*,#399,.F.);
#1545=ORIENTED_EDGE('',*,*,#365,.T.);
#1546=CARTESIAN_POINT('',(-0.187444663409338,0.0,-35.9057073995657));
#1547=DIRECTION('',(0.0,0.0,1.0));
#1548=DIRECTION('',(1.0,0.0,0.0));
#1549=SURFACE_STYLE_FILL_AREA(#1732);
#1550=ORIENTED_EDGE('',*,*,#341,.F.);
#1551=ORIENTED_EDGE('',*,*,#227,.F.);
#1552=CARTESIAN_POINT('',(-0.25,0.0,-48.0));
#1553=DIRECTION('',(0.0,0.0,1.0));
#1554=DIRECTION('',(1.0,0.0,0.0));
#1555=CARTESIAN_POINT('',(0.0,0.0,-48.0));
#1556=DIRECTION('',(0.0,0.0,-1.0));
#1557=DIRECTION('',(0.0,1.0,0.0));
#1558=SURFACE_STYLE_FILL_AREA(#1733);
#1559=ORIENTED_EDGE('',*,*,#347,.F.);
#1560=ORIENTED_EDGE('',*,*,#429,.F.);
#1561=ORIENTED_EDGE('',*,*,#235,.F.);
#1562=ORIENTED_EDGE('',*,*,#277,.T.);
#1563=CARTESIAN_POINT('',(-0.00945414397777439,0.0,-36.2675355566928));
#1564=DIRECTION('',(0.0,-1.0,-0.0));
#1565=DIRECTION('',(0.508265629957899,0.0,0.861200353810599));
#1566=CARTESIAN_POINT('',(0.0,0.0,-37.0783739724423));
#1567=DIRECTION('',(0.944648353914092,0.0,-0.328084573619969));
#1568=DIRECTION('',(0.328084573619969,-0.0,0.944648353914092));
#1569=CARTESIAN_POINT('',(0.0,0.0,0.0));
#1570=DIRECTION('',(0.0,0.0,-1.0));
#1571=DIRECTION('',(0.0,1.0,0.0));
#1572=DIRECTION('',(-0.0,-0.0,1.0));
#1573=CARTESIAN_POINT('',(0.0,0.0,-48.0));
#1574=DIRECTION('',(0.0,0.0,-1.0));
#1575=DIRECTION('',(-1.0,0.0,0.0));
#1576=DIRECTION('',(-0.0,-0.0,1.0));
#1577=DIRECTION('',(0.0,0.0,-1.0));
#1578=SURFACE_STYLE_FILL_AREA(#1734);
#1579=ORIENTED_EDGE('',*,*,#349,.F.);
#1580=ORIENTED_EDGE('',*,*,#205,.F.);
#1581=ORIENTED_EDGE('',*,*,#337,.F.);
#1582=ORIENTED_EDGE('',*,*,#303,.T.);
#1583=CARTESIAN_POINT('',(0.291186927252986,0.0,-36.2399643865364));
#1584=DIRECTION('',(-1.0,0.0,0.0));
#1585=DIRECTION('',(0.0,0.0,1.0));
#1586=SURFACE_STYLE_FILL_AREA(#1735);
#1587=ORIENTED_EDGE('',*,*,#253,.F.);
#1588=ORIENTED_EDGE('',*,*,#173,.F.);
#1589=ORIENTED_EDGE('',*,*,#217,.T.);
#1590=CARTESIAN_POINT('',(0.0,0.0,-59.89644661));
#1591=DIRECTION('',(-0.0,-0.0,1.0));
#1592=DIRECTION('',(-1.0,0.0,0.0));
#1593=SURFACE_STYLE_FILL_AREA(#1736);
#1594=ORIENTED_EDGE('',*,*,#329,.T.);
#1595=ORIENTED_EDGE('',*,*,#225,.T.);
#1596=CARTESIAN_POINT('',(0.0,0.24975,-48.0));
#1597=DIRECTION('',(0.0,0.0,-1.0));
#1598=DIRECTION('',(0.0,1.0,0.0));
#1599=CARTESIAN_POINT('',(0.0,0.0,-38.8));
#1600=DIRECTION('',(0.0,0.0,-1.0));
#1601=DIRECTION('',(0.0,1.0,0.0));
#1602=DIRECTION('',(0.0,1.0,0.0));
#1603=SURFACE_STYLE_FILL_AREA(#1737);
#1604=ORIENTED_EDGE('',*,*,#213,.T.);
#1605=ORIENTED_EDGE('',*,*,#355,.F.);
#1606=ORIENTED_EDGE('',*,*,#351,.F.);
#1607=ORIENTED_EDGE('',*,*,#277,.F.);
#1608=ORIENTED_EDGE('',*,*,#297,.F.);
#1609=CARTESIAN_POINT('',(0.0521754636668867,0.0,-35.9072140041956));
#1610=DIRECTION('',(0.0,-1.0,-0.0));
#1611=DIRECTION('',(0.894321964023871,0.0,0.447423987582791));
#1612=DIRECTION('',(3.19659722668462E-017,-0.261030592949893,-0.965330528650279));
#1613=DIRECTION('',(-0.0,-0.0,1.0));
#1614=CARTESIAN_POINT('',(0.0,0.0,0.0));
#1615=DIRECTION('',(0.0,0.0,-1.0));
#1616=DIRECTION('',(0.0,1.0,0.0));
#1617=SURFACE_STYLE_FILL_AREA(#1738);
#1618=ORIENTED_EDGE('',*,*,#237,.F.);
#1619=ORIENTED_EDGE('',*,*,#341,.T.);
#1620=ORIENTED_EDGE('',*,*,#285,.F.);
#1621=ORIENTED_EDGE('',*,*,#217,.F.);
#1622=CARTESIAN_POINT('',(0.0,0.0,-53.89644661));
#1623=DIRECTION('',(-0.0,-0.0,1.0));
#1624=DIRECTION('',(-1.0,0.0,0.0));
#1625=DIRECTION('',(-8.65927457071939E-017,0.707106781186551,-0.707106781186544));
#1626=CARTESIAN_POINT('',(0.0,0.0,-42.5));
#1627=DIRECTION('',(0.0,0.0,-1.0));
#1628=DIRECTION('',(0.0,1.0,0.0));
#1629=CARTESIAN_POINT('',(0.0,0.0,-0.299999999999997));
#1630=DIRECTION('',(0.0,0.0,-1.0));
#1631=DIRECTION('',(0.0,1.0,0.0));
#1632=CARTESIAN_POINT('',(0.0,0.0,-35.9057073995657));
#1633=DIRECTION('',(0.0,0.0,-1.0));
#1634=DIRECTION('',(1.0,0.0,0.0));
#1635=DIRECTION('',(0.0,0.0,-1.0));
#1636=CARTESIAN_POINT('',(0.0,0.0,-42.5));
#1637=DIRECTION('',(0.0,0.0,-1.0));
#1638=DIRECTION('',(0.0,1.0,0.0));
#1639=SURFACE_STYLE_FILL_AREA(#1739);
#1640=ORIENTED_EDGE('',*,*,#413,.T.);
#1641=ORIENTED_EDGE('',*,*,#195,.T.);
#1642=ORIENTED_EDGE('',*,*,#399,.T.);
#1643=ORIENTED_EDGE('',*,*,#201,.T.);
#1644=ORIENTED_EDGE('',*,*,#297,.T.);
#1645=ORIENTED_EDGE('',*,*,#235,.T.);
#1646=ORIENTED_EDGE('',*,*,#177,.T.);
#1647=ORIENTED_EDGE('',*,*,#339,.T.);
#1648=ORIENTED_EDGE('',*,*,#337,.T.);
#1649=ORIENTED_EDGE('',*,*,#187,.T.);
#1650=ORIENTED_EDGE('',*,*,#189,.T.);
#1651=CARTESIAN_POINT('',(0.0,0.0,-36.3));
#1652=DIRECTION('',(-0.0,-0.0,1.0));
#1653=DIRECTION('',(1.0,0.0,0.0));
#1654=CARTESIAN_POINT('',(0.0,0.0,-36.3709637112193));
#1655=DIRECTION('',(0.442195774284071,0.0,-0.896918556617774));
#1656=DIRECTION('',(0.896918556617774,0.0,0.442195774284071));
#1657=DIRECTION('',(0.0,1.0,0.0));
#1658=SURFACE_STYLE_FILL_AREA(#1740);
#1659=ORIENTED_EDGE('',*,*,#375,.F.);
#1660=ORIENTED_EDGE('',*,*,#361,.T.);
#1661=ORIENTED_EDGE('',*,*,#273,.F.);
#1662=ORIENTED_EDGE('',*,*,#405,.F.);
#1663=CARTESIAN_POINT('',(0.0,0.0,-40.65));
#1664=DIRECTION('',(-0.0,-0.0,1.0));
#1665=DIRECTION('',(0.0,1.0,0.0));
#1666=CARTESIAN_POINT('',(0.0,0.0,-36.3709637112193));
#1667=DIRECTION('',(-0.442195774284071,0.0,0.896918556617774));
#1668=DIRECTION('',(0.896918556617774,-0.0,0.442195774284071));
#1669=DIRECTION('',(-0.0,-0.0,1.0));
#1670=SURFACE_STYLE_FILL_AREA(#1741);
#1671=ORIENTED_EDGE('',*,*,#401,.F.);
#1672=ORIENTED_EDGE('',*,*,#405,.T.);
#1673=ORIENTED_EDGE('',*,*,#421,.F.);
#1674=ORIENTED_EDGE('',*,*,#329,.F.);
#1675=CARTESIAN_POINT('',(0.0,0.0,-45.25));
#1676=DIRECTION('',(-0.0,-0.0,1.0));
#1677=DIRECTION('',(0.0,1.0,0.0));
#1678=SURFACE_STYLE_FILL_AREA(#1742);
#1679=ORIENTED_EDGE('',*,*,#253,.T.);
#1680=ORIENTED_EDGE('',*,*,#291,.T.);
#1681=ORIENTED_EDGE('',*,*,#173,.T.);
#1682=CARTESIAN_POINT('',(0.0,0.0,-59.89644661));
#1683=DIRECTION('',(-0.0,-0.0,1.0));
#1684=DIRECTION('',(-1.0,0.0,0.0));
#1685=DIRECTION('',(0.0,1.0,0.0));
#1686=SURFACE_STYLE_FILL_AREA(#1743);
#1687=ORIENTED_EDGE('',*,*,#251,.F.);
#1688=ORIENTED_EDGE('',*,*,#365,.F.);
#1689=ORIENTED_EDGE('',*,*,#195,.F.);
#1690=ORIENTED_EDGE('',*,*,#435,.T.);
#1691=ORIENTED_EDGE('',*,*,#241,.F.);
#1692=CARTESIAN_POINT('',(0.0493192504839796,0.0,-35.9087672869109));
#1693=DIRECTION('',(-0.0,-1.0,-0.0));
#1694=DIRECTION('',(0.359378942416673,0.0,-0.933191714358563));
#1695=DIRECTION('',(0.0,1.0,0.0));
#1696=CARTESIAN_POINT('',(0.0,0.0,-36.3709637112193));
#1697=DIRECTION('',(-0.442195774284071,0.0,0.896918556617774));
#1698=DIRECTION('',(0.896918556617774,-0.0,0.442195774284071));
#1699=SURFACE_STYLE_FILL_AREA(#1744);
#1700=ORIENTED_EDGE('',*,*,#287,.F.);
#1701=ORIENTED_EDGE('',*,*,#397,.T.);
#1702=ORIENTED_EDGE('',*,*,#377,.F.);
#1703=ORIENTED_EDGE('',*,*,#361,.F.);
#1704=ORIENTED_EDGE('',*,*,#259,.F.);
#1705=ORIENTED_EDGE('',*,*,#183,.T.);
#1706=ORIENTED_EDGE('',*,*,#333,.T.);
#1707=ORIENTED_EDGE('',*,*,#349,.T.);
#1708=ORIENTED_EDGE('',*,*,#281,.T.);
#1709=ORIENTED_EDGE('',*,*,#343,.T.);
#1710=ORIENTED_EDGE('',*,*,#347,.T.);
#1711=ORIENTED_EDGE('',*,*,#351,.T.);
#1712=CARTESIAN_POINT('',(0.0,0.0,-19.5));
#1713=DIRECTION('',(-0.0,-0.0,1.0));
#1714=DIRECTION('',(0.0,1.0,0.0));
#1715=FILL_AREA_STYLE('',(#1745));
#1716=FILL_AREA_STYLE('',(#1746));
#1717=FILL_AREA_STYLE('',(#1747));
#1718=FILL_AREA_STYLE('',(#1748));
#1719=FILL_AREA_STYLE('',(#1749));
#1720=FILL_AREA_STYLE('',(#1750));
#1721=FILL_AREA_STYLE('',(#1751));
#1722=FILL_AREA_STYLE('',(#1752));
#1723=FILL_AREA_STYLE('',(#1753));
#1724=FILL_AREA_STYLE('',(#1754));
#1725=FILL_AREA_STYLE('',(#1755));
#1726=FILL_AREA_STYLE('',(#1756));
#1727=FILL_AREA_STYLE('',(#1757));
#1728=FILL_AREA_STYLE('',(#1758));
#1729=FILL_AREA_STYLE('',(#1759));
#1730=FILL_AREA_STYLE('',(#1760));
#1731=FILL_AREA_STYLE('',(#1761));
#1732=FILL_AREA_STYLE('',(#1762));
#1733=FILL_AREA_STYLE('',(#1763));
#1734=FILL_AREA_STYLE('',(#1764));
#1735=FILL_AREA_STYLE('',(#1765));
#1736=FILL_AREA_STYLE('',(#1766));
#1737=FILL_AREA_STYLE('',(#1767));
#1738=FILL_AREA_STYLE('',(#1768));
#1739=FILL_AREA_STYLE('',(#1769));
#1740=FILL_AREA_STYLE('',(#1770));
#1741=FILL_AREA_STYLE('',(#1771));
#1742=FILL_AREA_STYLE('',(#1772));
#1743=FILL_AREA_STYLE('',(#1773));
#1744=FILL_AREA_STYLE('',(#1774));
#1745=FILL_AREA_STYLE_COLOUR('',#1775);
#1746=FILL_AREA_STYLE_COLOUR('',#1776);
#1747=FILL_AREA_STYLE_COLOUR('',#1777);
#1748=FILL_AREA_STYLE_COLOUR('',#1778);
#1749=FILL_AREA_STYLE_COLOUR('',#1779);
#1750=FILL_AREA_STYLE_COLOUR('',#1780);
#1751=FILL_AREA_STYLE_COLOUR('',#1781);
#1752=FILL_AREA_STYLE_COLOUR('',#1782);
#1753=FILL_AREA_STYLE_COLOUR('',#1783);
#1754=FILL_AREA_STYLE_COLOUR('',#1784);
#1755=FILL_AREA_STYLE_COLOUR('',#1785);
#1756=FILL_AREA_STYLE_COLOUR('',#1786);
#1757=FILL_AREA_STYLE_COLOUR('',#1787);
#1758=FILL_AREA_STYLE_COLOUR('',#1788);
#1759=FILL_AREA_STYLE_COLOUR('',#1789);
#1760=FILL_AREA_STYLE_COLOUR('',#1790);
#1761=FILL_AREA_STYLE_COLOUR('',#1791);
#1762=FILL_AREA_STYLE_COLOUR('',#1792);
#1763=FILL_AREA_STYLE_COLOUR('',#1793);
#1764=FILL_AREA_STYLE_COLOUR('',#1794);
#1765=FILL_AREA_STYLE_COLOUR('',#1795);
#1766=FILL_AREA_STYLE_COLOUR('',#1796);
#1767=FILL_AREA_STYLE_COLOUR('',#1797);
#1768=FILL_AREA_STYLE_COLOUR('',#1798);
#1769=FILL_AREA_STYLE_COLOUR('',#1799);
#1770=FILL_AREA_STYLE_COLOUR('',#1800);
#1771=FILL_AREA_STYLE_COLOUR('',#1801);
#1772=FILL_AREA_STYLE_COLOUR('',#1802);
#1773=FILL_AREA_STYLE_COLOUR('',#1803);
#1774=FILL_AREA_STYLE_COLOUR('',#1804);
#1775=COLOUR_RGB('',0.498039215803146,0.498039215803146,0.498039215803146);
#1776=COLOUR_RGB('',0.200000002980232,0.600000023841858,1.0);
#1777=COLOUR_RGB('',0.498039215803146,0.498039215803146,0.498039215803146);
#1778=COLOUR_RGB('',0.200000002980232,0.600000023841858,1.0);
#1779=COLOUR_RGB('',0.800000011920929,0.800000011920929,0.800000011920929);
#1780=COLOUR_RGB('',0.498039215803146,0.498039215803146,0.498039215803146);
#1781=COLOUR_RGB('',0.498039215803146,0.498039215803146,0.498039215803146);
#1782=COLOUR_RGB('',0.498039215803146,0.498039215803146,0.498039215803146);
#1783=COLOUR_RGB('',0.200000002980232,0.600000023841858,1.0);
#1784=COLOUR_RGB('',0.498039215803146,0.498039215803146,0.498039215803146);
#1785=COLOUR_RGB('',0.498039215803146,0.498039215803146,0.498039215803146);
#1786=COLOUR_RGB('',0.800000011920929,0.800000011920929,0.800000011920929);
#1787=COLOUR_RGB('',0.498039215803146,0.498039215803146,0.498039215803146);
#1788=COLOUR_RGB('',0.200000002980232,0.600000023841858,1.0);
#1789=COLOUR_RGB('',0.200000002980232,0.600000023841858,1.0);
#1790=COLOUR_RGB('',0.200000002980232,0.600000023841858,1.0);
#1791=COLOUR_RGB('',0.200000002980232,0.600000023841858,1.0);
#1792=COLOUR_RGB('',0.800000011920929,0.800000011920929,0.800000011920929);
#1793=COLOUR_RGB('',0.200000002980232,0.600000023841858,1.0);
#1794=COLOUR_RGB('',0.200000002980232,0.600000023841858,1.0);
#1795=COLOUR_RGB('',0.800000011920929,0.800000011920929,0.800000011920929);
#1796=COLOUR_RGB('',0.498039215803146,0.498039215803146,0.498039215803146);
#1797=COLOUR_RGB('',0.200000002980232,0.600000023841858,1.0);
#1798=COLOUR_RGB('',0.800000011920929,0.800000011920929,0.800000011920929);
#1799=COLOUR_RGB('',0.200000002980232,0.600000023841858,1.0);
#1800=COLOUR_RGB('',0.498039215803146,0.498039215803146,0.498039215803146);
#1801=COLOUR_RGB('',0.498039215803146,0.498039215803146,0.498039215803146);
#1802=COLOUR_RGB('',0.800000011920929,0.800000011920929,0.800000011920929);
#1803=COLOUR_RGB('',0.200000002980232,0.600000023841858,1.0);
#1804=COLOUR_RGB('',0.498039215803146,0.498039215803146,0.498039215803146);
#1805=AXIS2_PLACEMENT_3D('CIP',#1806,#1807,#1808);
#1806=CARTESIAN_POINT('',(0.0,0.0,-60.0));
#1807=DIRECTION('',(0.0,0.0,1.0));
#1808=DIRECTION('',(1.0,0.0,0.0));
#1809=AXIS2_PLACEMENT_3D('CRP',#1810,#1811,#1812);
#1810=CARTESIAN_POINT('',(-0.5,0.0,-59.79289322));
#1811=DIRECTION('',(0.0,0.0,1.0));
#1812=DIRECTION('',(1.0,0.0,0.0));
#1813=AXIS2_PLACEMENT_3D('MCS',#1814,#1815,#1816);
#1814=CARTESIAN_POINT('',(0.0,0.0,-38.7));
#1815=DIRECTION('',(0.0,0.0,1.0));
#1816=DIRECTION('',(1.0,0.0,0.0));
#1817=AXIS2_PLACEMENT_3D('PCS',#1818,#1819,#1820);
#1818=CARTESIAN_POINT('',(0.0,0.0,0.0));
#1819=DIRECTION('',(0.0,0.0,1.0));
#1820=DIRECTION('',(1.0,0.0,0.0));
#1821=CONSTRUCTIVE_GEOMETRY_REPRESENTATION_RELATIONSHIP('coordinate systems',$,#154,#1822);
#1822=CONSTRUCTIVE_GEOMETRY_REPRESENTATION('coordinate systems',(#1805,#1809,#1813,#1817),#10);
ENDSEC;
END-ISO-10303-21;
