ISO-10303-21;
HEADER;
FILE_DESCRIPTION(('no description'),'unknown implementation level');
FILE_NAME('solid32M7K_qC1GR7Aukloo7_wUDtWRk_1.STP','  ',('CIMSOURCE GmbH'),('CADClick - KiM GmbH - www.kimweb.de'),'unknown preprocess','ACIS','unknown authorization');
FILE_SCHEMA(('automotive_design'));
ENDSEC;
DATA;
#1=MECHANICAL_DESIGN_GEOMETRIC_PRESENTATION_REPRESENTATION(' ',(#14,#15,#16,#17,#18,#19,#20,#21,#22,#23,#24,#25,#26,#27,#28,#29,#30,#31,#32,#33,#34,#35,#36,#37,#38,#39,#40,#41,#42,#43,#44,#45,#46,#47,#48,#49,#50,#51,#52,#53,#54,#55,#56,#57,#58,#59,#60,#61,#62,#63,#64,#65,#66,#67,#68,#69,#70,#71,#72,#73,#74,#75,#76,#77,#78,#79,#80,#81,#82,#83,#84,#85,#86,#87,#88,#89,#90,#91,#92,#93,#94,#95,#96,#97,#98,#99,#100,#101,#102,#103,#104,#105,#106,#107,#108,#109,#110,#111,#112,#113,#114,#115,#116,#117,#118,#119,#120,#121,#122,#123,#124,#125,#126,#127,#128,#129,#130,#131,#132,#133,#134,#135,#136,#137,#138,#139,#140,#141,#142,#143,#144,#145,#146,#147,#148,#149),#10);
#2=PRODUCT_DEFINITION_CONTEXT('',#150,'design');
#3=APPLICATION_PROTOCOL_DEFINITION('INTERNATIONAL STANDARD','automotive_design',1994,#150);
#4=PRODUCT_CATEGORY_RELATIONSHIP('NONE','NONE',#151,#152);
#5=SHAPE_DEFINITION_REPRESENTATION(#153,#154);
#6=PRODUCT_DEFINITION_CONTEXT('',#155,'design');
#7=APPLICATION_PROTOCOL_DEFINITION('INTERNATIONAL STANDARD','automotive_design',1994,#155);
#8=PRODUCT_CATEGORY_RELATIONSHIP('NONE','NONE',#156,#157);
#9=SHAPE_DEFINITION_REPRESENTATION(#158,#159);
#10= (GEOMETRIC_REPRESENTATION_CONTEXT(3)GLOBAL_UNCERTAINTY_ASSIGNED_CONTEXT((#162))GLOBAL_UNIT_ASSIGNED_CONTEXT((#164,#165,#166))REPRESENTATION_CONTEXT('NONE','WORKSPACE'));
#14=STYLED_ITEM('',(#168),#169);
#15=STYLED_ITEM('',(#170),#171);
#16=STYLED_ITEM('',(#172),#173);
#17=STYLED_ITEM('',(#174),#175);
#18=STYLED_ITEM('',(#176),#177);
#19=STYLED_ITEM('',(#178),#179);
#20=STYLED_ITEM('',(#180),#181);
#21=STYLED_ITEM('',(#182),#183);
#22=STYLED_ITEM('',(#184),#185);
#23=STYLED_ITEM('',(#186),#187);
#24=STYLED_ITEM('',(#188),#189);
#25=STYLED_ITEM('',(#190),#191);
#26=STYLED_ITEM('',(#192),#193);
#27=STYLED_ITEM('',(#194),#195);
#28=STYLED_ITEM('',(#196),#197);
#29=STYLED_ITEM('',(#198),#199);
#30=STYLED_ITEM('',(#200),#201);
#31=STYLED_ITEM('',(#202),#203);
#32=STYLED_ITEM('',(#204),#205);
#33=STYLED_ITEM('',(#206),#207);
#34=STYLED_ITEM('',(#208),#209);
#35=STYLED_ITEM('',(#210),#211);
#36=STYLED_ITEM('',(#212),#213);
#37=STYLED_ITEM('',(#214),#215);
#38=STYLED_ITEM('',(#216),#217);
#39=STYLED_ITEM('',(#218),#219);
#40=STYLED_ITEM('',(#220),#221);
#41=STYLED_ITEM('',(#222),#223);
#42=STYLED_ITEM('',(#224),#225);
#43=STYLED_ITEM('',(#226),#227);
#44=STYLED_ITEM('',(#228),#229);
#45=STYLED_ITEM('',(#230),#231);
#46=STYLED_ITEM('',(#232),#233);
#47=STYLED_ITEM('',(#234),#235);
#48=STYLED_ITEM('',(#236),#237);
#49=STYLED_ITEM('',(#238),#239);
#50=STYLED_ITEM('',(#240),#241);
#51=STYLED_ITEM('',(#242),#243);
#52=STYLED_ITEM('',(#244),#245);
#53=STYLED_ITEM('',(#246),#247);
#54=STYLED_ITEM('',(#248),#249);
#55=STYLED_ITEM('',(#250),#251);
#56=STYLED_ITEM('',(#252),#253);
#57=STYLED_ITEM('',(#254),#255);
#58=STYLED_ITEM('',(#256),#257);
#59=STYLED_ITEM('',(#258),#259);
#60=STYLED_ITEM('',(#260),#261);
#61=STYLED_ITEM('',(#262),#263);
#62=STYLED_ITEM('',(#264),#265);
#63=STYLED_ITEM('',(#266),#267);
#64=STYLED_ITEM('',(#268),#269);
#65=STYLED_ITEM('',(#270),#271);
#66=STYLED_ITEM('',(#272),#273);
#67=STYLED_ITEM('',(#274),#275);
#68=STYLED_ITEM('',(#276),#277);
#69=STYLED_ITEM('',(#278),#279);
#70=STYLED_ITEM('',(#280),#281);
#71=STYLED_ITEM('',(#282),#283);
#72=STYLED_ITEM('',(#284),#285);
#73=STYLED_ITEM('',(#286),#287);
#74=STYLED_ITEM('',(#288),#289);
#75=STYLED_ITEM('',(#290),#291);
#76=STYLED_ITEM('',(#292),#293);
#77=STYLED_ITEM('',(#294),#295);
#78=STYLED_ITEM('',(#296),#297);
#79=STYLED_ITEM('',(#298),#299);
#80=STYLED_ITEM('',(#300),#301);
#81=STYLED_ITEM('',(#302),#303);
#82=STYLED_ITEM('',(#304),#305);
#83=STYLED_ITEM('',(#306),#307);
#84=STYLED_ITEM('',(#308),#309);
#85=STYLED_ITEM('',(#310),#311);
#86=STYLED_ITEM('',(#312),#313);
#87=STYLED_ITEM('',(#314),#315);
#88=STYLED_ITEM('',(#316),#317);
#89=STYLED_ITEM('',(#318),#319);
#90=STYLED_ITEM('',(#320),#321);
#91=STYLED_ITEM('',(#322),#323);
#92=STYLED_ITEM('',(#324),#325);
#93=STYLED_ITEM('',(#326),#327);
#94=STYLED_ITEM('',(#328),#329);
#95=STYLED_ITEM('',(#330),#331);
#96=STYLED_ITEM('',(#332),#333);
#97=STYLED_ITEM('',(#334),#335);
#98=STYLED_ITEM('',(#336),#337);
#99=STYLED_ITEM('',(#338),#339);
#100=STYLED_ITEM('',(#340),#341);
#101=STYLED_ITEM('',(#342),#343);
#102=STYLED_ITEM('',(#344),#345);
#103=STYLED_ITEM('',(#346),#347);
#104=STYLED_ITEM('',(#348),#349);
#105=STYLED_ITEM('',(#350),#351);
#106=STYLED_ITEM('',(#352),#353);
#107=STYLED_ITEM('',(#354),#355);
#108=STYLED_ITEM('',(#356),#357);
#109=STYLED_ITEM('',(#358),#359);
#110=STYLED_ITEM('',(#360),#361);
#111=STYLED_ITEM('',(#362),#363);
#112=STYLED_ITEM('',(#364),#365);
#113=STYLED_ITEM('',(#366),#367);
#114=STYLED_ITEM('',(#368),#369);
#115=STYLED_ITEM('',(#370),#371);
#116=STYLED_ITEM('',(#372),#373);
#117=STYLED_ITEM('',(#374),#375);
#118=STYLED_ITEM('',(#376),#377);
#119=STYLED_ITEM('',(#378),#379);
#120=STYLED_ITEM('',(#380),#381);
#121=STYLED_ITEM('',(#382),#383);
#122=STYLED_ITEM('',(#384),#385);
#123=STYLED_ITEM('',(#386),#387);
#124=STYLED_ITEM('',(#388),#389);
#125=STYLED_ITEM('',(#390),#391);
#126=STYLED_ITEM('',(#392),#393);
#127=STYLED_ITEM('',(#394),#395);
#128=STYLED_ITEM('',(#396),#397);
#129=STYLED_ITEM('',(#398),#399);
#130=STYLED_ITEM('',(#400),#401);
#131=STYLED_ITEM('',(#402),#403);
#132=STYLED_ITEM('',(#404),#405);
#133=STYLED_ITEM('',(#406),#407);
#134=STYLED_ITEM('',(#408),#409);
#135=STYLED_ITEM('',(#410),#411);
#136=STYLED_ITEM('',(#412),#413);
#137=STYLED_ITEM('',(#414),#415);
#138=STYLED_ITEM('',(#416),#417);
#139=STYLED_ITEM('',(#418),#419);
#140=STYLED_ITEM('',(#420),#421);
#141=STYLED_ITEM('',(#422),#423);
#142=STYLED_ITEM('',(#424),#425);
#143=STYLED_ITEM('',(#426),#427);
#144=STYLED_ITEM('',(#428),#429);
#145=STYLED_ITEM('',(#430),#431);
#146=STYLED_ITEM('',(#432),#433);
#147=STYLED_ITEM('',(#434),#435);
#148=STYLED_ITEM('',(#436),#437);
#149=STYLED_ITEM('',(#438),#439);
#150=APPLICATION_CONTEXT(' ');
#151=PRODUCT_CATEGORY('part','NONE');
#152=PRODUCT_RELATED_PRODUCT_CATEGORY('detail',' ',(#440));
#153=PRODUCT_DEFINITION_SHAPE('NONE','NONE',#441);
#154=ADVANCED_BREP_SHAPE_REPRESENTATION('NOCUT',(#353,#442),#10);
#155=APPLICATION_CONTEXT(' ');
#156=PRODUCT_CATEGORY('part','NONE');
#157=PRODUCT_RELATED_PRODUCT_CATEGORY('detail',' ',(#443));
#158=PRODUCT_DEFINITION_SHAPE('NONE','NONE',#444);
#159=ADVANCED_BREP_SHAPE_REPRESENTATION('CUT',(#173,#445),#10);
#162=UNCERTAINTY_MEASURE_WITH_UNIT(LENGTH_MEASURE(1.0E-006),#164,'','');
#164= (CONVERSION_BASED_UNIT('MILLIMETRE',#448)LENGTH_UNIT()NAMED_UNIT(#451));
#165= (NAMED_UNIT(#453)PLANE_ANGLE_UNIT()SI_UNIT($,.RADIAN.));
#166= (NAMED_UNIT(#453)SOLID_ANGLE_UNIT()SI_UNIT($,.STERADIAN.));
#168=PRESENTATION_STYLE_ASSIGNMENT((#459));
#169=EDGE_CURVE('',#207,#219,#460,.T.);
#170=PRESENTATION_STYLE_ASSIGNMENT((#461));
#171=EDGE_CURVE('',#257,#285,#462,.T.);
#172=PRESENTATION_STYLE_ASSIGNMENT((#463));
#173=MANIFOLD_SOLID_BREP('CUT',#464);
#174=PRESENTATION_STYLE_ASSIGNMENT((#465));
#175=VERTEX_POINT('',#466);
#176=PRESENTATION_STYLE_ASSIGNMENT((#467));
#177=ADVANCED_FACE('',(#468),#469,.F.);
#178=PRESENTATION_STYLE_ASSIGNMENT((#470));
#179=ADVANCED_FACE('',(#471),#472,.F.);
#180=PRESENTATION_STYLE_ASSIGNMENT((#473));
#181=ADVANCED_FACE('',(#474),#475,.T.);
#182=PRESENTATION_STYLE_ASSIGNMENT((#476));
#183=EDGE_CURVE('',#313,#433,#477,.T.);
#184=PRESENTATION_STYLE_ASSIGNMENT((#478));
#185=ADVANCED_FACE('',(#479),#480,.F.);
#186=PRESENTATION_STYLE_ASSIGNMENT((#481));
#187=EDGE_CURVE('',#241,#297,#482,.T.);
#188=PRESENTATION_STYLE_ASSIGNMENT((#483));
#189=EDGE_CURVE('',#285,#257,#484,.T.);
#190=PRESENTATION_STYLE_ASSIGNMENT((#485));
#191=EDGE_CURVE('',#433,#415,#486,.T.);
#192=PRESENTATION_STYLE_ASSIGNMENT((#487));
#193=EDGE_CURVE('',#343,#241,#488,.T.);
#194=PRESENTATION_STYLE_ASSIGNMENT((#489));
#195=ADVANCED_FACE('',(#490),#491,.T.);
#196=PRESENTATION_STYLE_ASSIGNMENT((#492));
#197=ADVANCED_FACE('',(#493),#494,.T.);
#198=PRESENTATION_STYLE_ASSIGNMENT((#495));
#199=EDGE_CURVE('',#221,#243,#496,.T.);
#200=PRESENTATION_STYLE_ASSIGNMENT((#497));
#201=EDGE_CURVE('',#285,#307,#498,.T.);
#202=PRESENTATION_STYLE_ASSIGNMENT((#499));
#203=EDGE_CURVE('',#301,#307,#500,.T.);
#204=PRESENTATION_STYLE_ASSIGNMENT((#501));
#205=EDGE_CURVE('',#415,#373,#502,.T.);
#206=PRESENTATION_STYLE_ASSIGNMENT((#503));
#207=VERTEX_POINT('',#504);
#208=PRESENTATION_STYLE_ASSIGNMENT((#505));
#209=VERTEX_POINT('',#506);
#210=PRESENTATION_STYLE_ASSIGNMENT((#507));
#211=VERTEX_POINT('',#508);
#212=PRESENTATION_STYLE_ASSIGNMENT((#509));
#213=EDGE_CURVE('',#421,#325,#510,.T.);
#214=PRESENTATION_STYLE_ASSIGNMENT((#511));
#215=EDGE_CURVE('',#415,#229,#512,.T.);
#216=PRESENTATION_STYLE_ASSIGNMENT((#513));
#217=ADVANCED_FACE('',(#514),#515,.F.);
#218=PRESENTATION_STYLE_ASSIGNMENT((#516));
#219=VERTEX_POINT('',#517);
#220=PRESENTATION_STYLE_ASSIGNMENT((#518));
#221=VERTEX_POINT('',#519);
#222=PRESENTATION_STYLE_ASSIGNMENT((#520));
#223=VERTEX_POINT('',#521);
#224=PRESENTATION_STYLE_ASSIGNMENT((#522));
#225=EDGE_CURVE('',#277,#313,#523,.T.);
#226=PRESENTATION_STYLE_ASSIGNMENT((#524));
#227=EDGE_CURVE('',#313,#303,#525,.T.);
#228=PRESENTATION_STYLE_ASSIGNMENT((#526));
#229=VERTEX_POINT('',#527);
#230=PRESENTATION_STYLE_ASSIGNMENT((#528));
#231=EDGE_CURVE('',#325,#383,#529,.T.);
#232=PRESENTATION_STYLE_ASSIGNMENT((#530));
#233=ADVANCED_FACE('',(#531),#532,.T.);
#234=PRESENTATION_STYLE_ASSIGNMENT((#533));
#235=EDGE_CURVE('',#349,#175,#534,.T.);
#236=PRESENTATION_STYLE_ASSIGNMENT((#535));
#237=EDGE_CURVE('',#229,#249,#536,.T.);
#238=PRESENTATION_STYLE_ASSIGNMENT((#537));
#239=EDGE_CURVE('',#219,#321,#538,.T.);
#240=PRESENTATION_STYLE_ASSIGNMENT((#539));
#241=VERTEX_POINT('',#540);
#242=PRESENTATION_STYLE_ASSIGNMENT((#541));
#243=VERTEX_POINT('',#542);
#244=PRESENTATION_STYLE_ASSIGNMENT((#543));
#245=EDGE_CURVE('',#307,#301,#544,.T.);
#246=PRESENTATION_STYLE_ASSIGNMENT((#545));
#247=EDGE_CURVE('',#359,#223,#546,.T.);
#248=PRESENTATION_STYLE_ASSIGNMENT((#547));
#249=VERTEX_POINT('',#548);
#250=PRESENTATION_STYLE_ASSIGNMENT((#549));
#251=EDGE_CURVE('',#277,#263,#550,.T.);
#252=PRESENTATION_STYLE_ASSIGNMENT((#551));
#253=EDGE_CURVE('',#417,#211,#552,.T.);
#254=PRESENTATION_STYLE_ASSIGNMENT((#553));
#255=ADVANCED_FACE('',(#554),#555,.F.);
#256=PRESENTATION_STYLE_ASSIGNMENT((#556));
#257=VERTEX_POINT('',#557);
#258=PRESENTATION_STYLE_ASSIGNMENT((#558));
#259=EDGE_CURVE('',#361,#285,#559,.T.);
#260=PRESENTATION_STYLE_ASSIGNMENT((#560));
#261=EDGE_CURVE('',#223,#287,#561,.T.);
#262=PRESENTATION_STYLE_ASSIGNMENT((#562));
#263=VERTEX_POINT('',#563);
#264=PRESENTATION_STYLE_ASSIGNMENT((#564));
#265=ADVANCED_FACE('',(#565),#566,.T.);
#266=PRESENTATION_STYLE_ASSIGNMENT((#567));
#267=EDGE_CURVE('',#283,#223,#568,.T.);
#268=PRESENTATION_STYLE_ASSIGNMENT((#569));
#269=EDGE_CURVE('',#303,#263,#570,.T.);
#270=PRESENTATION_STYLE_ASSIGNMENT((#571));
#271=EDGE_CURVE('',#319,#207,#572,.T.);
#272=PRESENTATION_STYLE_ASSIGNMENT((#573));
#273=EDGE_CURVE('',#345,#249,#574,.T.);
#274=PRESENTATION_STYLE_ASSIGNMENT((#575));
#275=ADVANCED_FACE('',(#576),#577,.F.);
#276=PRESENTATION_STYLE_ASSIGNMENT((#578));
#277=VERTEX_POINT('',#579);
#278=PRESENTATION_STYLE_ASSIGNMENT((#580));
#279=EDGE_CURVE('',#249,#387,#581,.T.);
#280=PRESENTATION_STYLE_ASSIGNMENT((#582));
#281=VERTEX_POINT('',#583);
#282=PRESENTATION_STYLE_ASSIGNMENT((#584));
#283=VERTEX_POINT('',#585);
#284=PRESENTATION_STYLE_ASSIGNMENT((#586));
#285=VERTEX_POINT('',#587);
#286=PRESENTATION_STYLE_ASSIGNMENT((#588));
#287=VERTEX_POINT('',#589);
#288=PRESENTATION_STYLE_ASSIGNMENT((#590));
#289=ADVANCED_FACE('',(#591),#592,.T.);
#290=PRESENTATION_STYLE_ASSIGNMENT((#593));
#291=EDGE_CURVE('',#321,#229,#594,.T.);
#292=PRESENTATION_STYLE_ASSIGNMENT((#595));
#293=VERTEX_POINT('',#596);
#294=PRESENTATION_STYLE_ASSIGNMENT((#597));
#295=EDGE_CURVE('',#211,#281,#598,.T.);
#296=PRESENTATION_STYLE_ASSIGNMENT((#599));
#297=VERTEX_POINT('',#600);
#298=PRESENTATION_STYLE_ASSIGNMENT((#601));
#299=EDGE_CURVE('',#293,#383,#602,.T.);
#300=PRESENTATION_STYLE_ASSIGNMENT((#603));
#301=VERTEX_POINT('',#604);
#302=PRESENTATION_STYLE_ASSIGNMENT((#605));
#303=VERTEX_POINT('',#606);
#304=PRESENTATION_STYLE_ASSIGNMENT((#607));
#305=VERTEX_POINT('',#608);
#306=PRESENTATION_STYLE_ASSIGNMENT((#609));
#307=VERTEX_POINT('',#610);
#308=PRESENTATION_STYLE_ASSIGNMENT((#611));
#309=EDGE_CURVE('',#241,#349,#612,.T.);
#310=PRESENTATION_STYLE_ASSIGNMENT((#613));
#311=EDGE_CURVE('',#409,#417,#614,.T.);
#312=PRESENTATION_STYLE_ASSIGNMENT((#615));
#313=VERTEX_POINT('',#616);
#314=PRESENTATION_STYLE_ASSIGNMENT((#617));
#315=EDGE_CURVE('',#287,#281,#618,.T.);
#316=PRESENTATION_STYLE_ASSIGNMENT((#619));
#317=ADVANCED_FACE('',(#620),#621,.T.);
#318=PRESENTATION_STYLE_ASSIGNMENT((#622));
#319=VERTEX_POINT('',#623);
#320=PRESENTATION_STYLE_ASSIGNMENT((#624));
#321=VERTEX_POINT('',#625);
#322=PRESENTATION_STYLE_ASSIGNMENT((#626));
#323=EDGE_CURVE('',#243,#319,#627,.T.);
#324=PRESENTATION_STYLE_ASSIGNMENT((#628));
#325=VERTEX_POINT('',#629);
#326=PRESENTATION_STYLE_ASSIGNMENT((#630));
#327=ADVANCED_FACE('',(#631),#632,.T.);
#328=PRESENTATION_STYLE_ASSIGNMENT((#633));
#329=EDGE_CURVE('',#293,#345,#634,.T.);
#330=PRESENTATION_STYLE_ASSIGNMENT((#635));
#331=EDGE_CURVE('',#417,#243,#636,.T.);
#332=PRESENTATION_STYLE_ASSIGNMENT((#637));
#333=EDGE_CURVE('',#373,#209,#638,.T.);
#334=PRESENTATION_STYLE_ASSIGNMENT((#639));
#335=ADVANCED_FACE('',(#640),#641,.T.);
#336=PRESENTATION_STYLE_ASSIGNMENT((#642));
#337=EDGE_CURVE('',#283,#277,#643,.T.);
#338=PRESENTATION_STYLE_ASSIGNMENT((#644));
#339=ADVANCED_FACE('',(#645),#646,.T.);
#340=PRESENTATION_STYLE_ASSIGNMENT((#647));
#341=ADVANCED_FACE('',(#648),#649,.T.);
#342=PRESENTATION_STYLE_ASSIGNMENT((#650));
#343=VERTEX_POINT('',#651);
#344=PRESENTATION_STYLE_ASSIGNMENT((#652));
#345=VERTEX_POINT('',#653);
#346=PRESENTATION_STYLE_ASSIGNMENT((#654));
#347=EDGE_CURVE('',#325,#345,#655,.T.);
#348=PRESENTATION_STYLE_ASSIGNMENT((#656));
#349=VERTEX_POINT('',#657);
#350=PRESENTATION_STYLE_ASSIGNMENT((#658));
#351=EDGE_CURVE('',#281,#221,#659,.T.);
#352=PRESENTATION_STYLE_ASSIGNMENT((#660));
#353=MANIFOLD_SOLID_BREP('NOCUT',#661);
#354=PRESENTATION_STYLE_ASSIGNMENT((#662));
#355=ADVANCED_FACE('',(#663),#664,.T.);
#356=PRESENTATION_STYLE_ASSIGNMENT((#665));
#357=EDGE_CURVE('',#301,#257,#666,.T.);
#358=PRESENTATION_STYLE_ASSIGNMENT((#667));
#359=VERTEX_POINT('',#668);
#360=PRESENTATION_STYLE_ASSIGNMENT((#669));
#361=VERTEX_POINT('',#670);
#362=PRESENTATION_STYLE_ASSIGNMENT((#671));
#363=EDGE_CURVE('',#433,#387,#672,.T.);
#364=PRESENTATION_STYLE_ASSIGNMENT((#673));
#365=EDGE_CURVE('',#387,#303,#674,.T.);
#366=PRESENTATION_STYLE_ASSIGNMENT((#675));
#367=EDGE_CURVE('',#209,#305,#676,.T.);
#368=PRESENTATION_STYLE_ASSIGNMENT((#677));
#369=EDGE_CURVE('',#349,#241,#678,.T.);
#370=PRESENTATION_STYLE_ASSIGNMENT((#679));
#371=ADVANCED_FACE('',(#680),#681,.T.);
#372=PRESENTATION_STYLE_ASSIGNMENT((#682));
#373=VERTEX_POINT('',#683);
#374=PRESENTATION_STYLE_ASSIGNMENT((#684));
#375=ADVANCED_FACE('',(#685),#686,.T.);
#376=PRESENTATION_STYLE_ASSIGNMENT((#687));
#377=EDGE_CURVE('',#305,#207,#688,.T.);
#378=PRESENTATION_STYLE_ASSIGNMENT((#689));
#379=ADVANCED_FACE('',(#690),#691,.F.);
#380=PRESENTATION_STYLE_ASSIGNMENT((#692));
#381=EDGE_CURVE('',#257,#421,#693,.T.);
#382=PRESENTATION_STYLE_ASSIGNMENT((#694));
#383=VERTEX_POINT('',#695);
#384=PRESENTATION_STYLE_ASSIGNMENT((#696));
#385=EDGE_CURVE('',#343,#175,#697,.T.);
#386=PRESENTATION_STYLE_ASSIGNMENT((#698));
#387=VERTEX_POINT('',#699);
#388=PRESENTATION_STYLE_ASSIGNMENT((#700));
#389=EDGE_CURVE('',#361,#421,#701,.T.);
#390=PRESENTATION_STYLE_ASSIGNMENT((#702));
#391=ADVANCED_FACE('',(#703),#704,.F.);
#392=PRESENTATION_STYLE_ASSIGNMENT((#705));
#393=ADVANCED_FACE('',(#706),#707,.T.);
#394=PRESENTATION_STYLE_ASSIGNMENT((#708));
#395=EDGE_CURVE('',#409,#319,#709,.T.);
#396=PRESENTATION_STYLE_ASSIGNMENT((#710));
#397=EDGE_CURVE('',#175,#343,#711,.T.);
#398=PRESENTATION_STYLE_ASSIGNMENT((#712));
#399=EDGE_CURVE('',#221,#361,#713,.T.);
#400=PRESENTATION_STYLE_ASSIGNMENT((#714));
#401=ADVANCED_FACE('',(#715),#716,.F.);
#402=PRESENTATION_STYLE_ASSIGNMENT((#717));
#403=EDGE_CURVE('',#359,#287,#718,.T.);
#404=PRESENTATION_STYLE_ASSIGNMENT((#719));
#405=ADVANCED_FACE('',(#720),#721,.T.);
#406=PRESENTATION_STYLE_ASSIGNMENT((#722));
#407=EDGE_CURVE('',#211,#283,#723,.T.);
#408=PRESENTATION_STYLE_ASSIGNMENT((#724));
#409=VERTEX_POINT('',#725);
#410=PRESENTATION_STYLE_ASSIGNMENT((#726));
#411=ADVANCED_FACE('',(#727),#728,.T.);
#412=PRESENTATION_STYLE_ASSIGNMENT((#729));
#413=EDGE_CURVE('',#297,#349,#730,.T.);
#414=PRESENTATION_STYLE_ASSIGNMENT((#731));
#415=VERTEX_POINT('',#732);
#416=PRESENTATION_STYLE_ASSIGNMENT((#733));
#417=VERTEX_POINT('',#734);
#418=PRESENTATION_STYLE_ASSIGNMENT((#735));
#419=ADVANCED_FACE('',(#736),#737,.T.);
#420=PRESENTATION_STYLE_ASSIGNMENT((#738));
#421=VERTEX_POINT('',#739);
#422=PRESENTATION_STYLE_ASSIGNMENT((#740));
#423=EDGE_CURVE('',#305,#409,#741,.T.);
#424=PRESENTATION_STYLE_ASSIGNMENT((#742));
#425=EDGE_CURVE('',#209,#219,#743,.T.);
#426=PRESENTATION_STYLE_ASSIGNMENT((#744));
#427=EDGE_CURVE('',#263,#359,#745,.T.);
#428=PRESENTATION_STYLE_ASSIGNMENT((#746));
#429=EDGE_CURVE('',#373,#321,#747,.T.);
#430=PRESENTATION_STYLE_ASSIGNMENT((#748));
#431=EDGE_CURVE('',#345,#325,#749,.T.);
#432=PRESENTATION_STYLE_ASSIGNMENT((#750));
#433=VERTEX_POINT('',#751);
#434=PRESENTATION_STYLE_ASSIGNMENT((#752));
#435=EDGE_CURVE('',#383,#293,#753,.T.);
#436=PRESENTATION_STYLE_ASSIGNMENT((#754));
#437=EDGE_CURVE('',#421,#361,#755,.T.);
#438=PRESENTATION_STYLE_ASSIGNMENT((#756));
#439=ADVANCED_FACE('',(#757),#758,.T.);
#440=PRODUCT('NOCUT','NOCUT','PART-NOCUT-DESC',(#759));
#441=PRODUCT_DEFINITION('NONE','NONE',#760,#2);
#442=AXIS2_PLACEMENT_3D('',#761,#762,#763);
#443=PRODUCT('CUT','CUT','PART-CUT-DESC',(#764));
#444=PRODUCT_DEFINITION('NONE','NONE',#765,#6);
#445=AXIS2_PLACEMENT_3D('',#766,#767,#768);
#448=LENGTH_MEASURE_WITH_UNIT(LENGTH_MEASURE(1.0),#769);
#451=DIMENSIONAL_EXPONENTS(1.0,0.0,0.0,0.0,0.0,0.0,0.0);
#453=DIMENSIONAL_EXPONENTS(0.0,0.0,0.0,0.0,0.0,0.0,0.0);
#459=CURVE_STYLE('',#770,POSITIVE_LENGTH_MEASURE(1.0E-006),#771);
#460=B_SPLINE_CURVE_WITH_KNOTS('',3,(#772,#773,#774,#775,#776,#777),.UNSPECIFIED.,.F.,.F.,(4,2,4),(2.68530701780466,2.89159761751384,3.09817892816277),.UNSPECIFIED.);
#461=CURVE_STYLE('',#778,POSITIVE_LENGTH_MEASURE(1.0E-006),#779);
#462=CIRCLE('',#780,0.4995);
#463=SURFACE_STYLE_USAGE(.BOTH.,#781);
#464=CLOSED_SHELL('',(#341,#339,#265,#233,#411));
#465=POINT_STYLE(' ',#782,POSITIVE_LENGTH_MEASURE(1.0E-006),#783);
#466=CARTESIAN_POINT('',(0.5,6.12303176911189E-017,-30.0));
#467=SURFACE_STYLE_USAGE(.BOTH.,#784);
#468=FACE_OUTER_BOUND('',#785,.T.);
#469=CYLINDRICAL_SURFACE('',#786,0.542888128511779);
#470=SURFACE_STYLE_USAGE(.BOTH.,#787);
#471=FACE_OUTER_BOUND('',#788,.T.);
#472=PLANE('',#789);
#473=SURFACE_STYLE_USAGE(.BOTH.,#790);
#474=FACE_OUTER_BOUND('',#791,.T.);
#475=CYLINDRICAL_SURFACE('',#792,1.5);
#476=CURVE_STYLE('',#793,POSITIVE_LENGTH_MEASURE(1.0E-006),#794);
#477=B_SPLINE_CURVE_WITH_KNOTS('',3,(#795,#796,#797,#798,#799,#800,#801,#802,#803,#804,#805,#806,#807,#808,#809,#810,#811,#812,#813,#814,#815,#816,#817,#818,#819,#820,#821),.UNSPECIFIED.,.F.,.F.,(4,2,2,2,2,2,2,2,2,2,3,2,4),(-0.904760382276979,-0.814331794904364,-0.723903207531748,-0.633474620159131,-0.543046032786514,-0.452751158305847,-0.36245628382518,-0.271707992864221,-0.180959701903262,-0.0904798509516307,0.0,0.0905731045725073,0.181146209145015),.UNSPECIFIED.);
#478=SURFACE_STYLE_USAGE(.BOTH.,#822);
#479=FACE_OUTER_BOUND('',#823,.T.);
#480=CYLINDRICAL_SURFACE('',#824,0.542888147146112);
#481=CURVE_STYLE('',#825,POSITIVE_LENGTH_MEASURE(1.0E-006),#826);
#482=LINE('',#827,#828);
#483=CURVE_STYLE('',#829,POSITIVE_LENGTH_MEASURE(1.0E-006),#830);
#484=CIRCLE('',#831,0.4995);
#485=CURVE_STYLE('',#832,POSITIVE_LENGTH_MEASURE(1.0E-006),#833);
#486=B_SPLINE_CURVE_WITH_KNOTS('',3,(#834,#835,#836,#837,#838,#839,#840,#841,#842,#843,#844,#845,#846,#847,#848,#849,#850,#851,#852,#853,#854,#855,#856,#857,#858,#859,#860),.UNSPECIFIED.,.F.,.F.,(4,2,2,2,2,2,2,2,2,2,3,2,4),(-0.904760382276979,-0.814331794904364,-0.723903207531748,-0.633474620159131,-0.543046032786514,-0.452751158305847,-0.36245628382518,-0.271707992864221,-0.180959701903262,-0.0904798509516307,0.0,0.0905731045725073,0.181146209145015),.UNSPECIFIED.);
#487=CURVE_STYLE('',#861,POSITIVE_LENGTH_MEASURE(1.0E-006),#862);
#488=LINE('',#863,#864);
#489=SURFACE_STYLE_USAGE(.BOTH.,#865);
#490=FACE_OUTER_BOUND('',#866,.T.);
#491=PLANE('',#867);
#492=SURFACE_STYLE_USAGE(.BOTH.,#868);
#493=FACE_OUTER_BOUND('',#869,.T.);
#494=CYLINDRICAL_SURFACE('',#870,0.4995);
#495=CURVE_STYLE('',#871,POSITIVE_LENGTH_MEASURE(1.0E-006),#872);
#496=B_SPLINE_CURVE_WITH_KNOTS('',3,(#873,#874,#875,#876,#877,#878,#879,#880,#881,#882),.UNSPECIFIED.,.F.,.F.,(4,2,2,2,4),(1.85902529823815,2.06567030714978,2.27234349574443,2.47901668433909,2.68530730298492),.UNSPECIFIED.);
#497=CURVE_STYLE('',#883,POSITIVE_LENGTH_MEASURE(1.0E-006),#884);
#498=LINE('',#885,#886);
#499=CURVE_STYLE('',#887,POSITIVE_LENGTH_MEASURE(1.0E-006),#888);
#500=CIRCLE('',#889,0.4995);
#501=CURVE_STYLE('',#890,POSITIVE_LENGTH_MEASURE(1.0E-006),#891);
#502=B_SPLINE_CURVE_WITH_KNOTS('',3,(#892,#893,#894,#895,#896,#897),.UNSPECIFIED.,.F.,.F.,(4,2,4),(2.68959631217716,2.89616176304829,3.10308695553747),.UNSPECIFIED.);
#503=POINT_STYLE(' ',#898,POSITIVE_LENGTH_MEASURE(1.0E-006),#899);
#504=CARTESIAN_POINT('',(0.291186927252985,1.4714653150506,-21.219578393051));
#505=POINT_STYLE(' ',#900,POSITIVE_LENGTH_MEASURE(1.0E-006),#901);
#506=CARTESIAN_POINT('',(0.445736688382193,1.32714686626239,-21.0633885667752));
#507=POINT_STYLE(' ',#902,POSITIVE_LENGTH_MEASURE(1.0E-006),#903);
#508=CARTESIAN_POINT('',(-0.445684250814332,1.32716447683626,-21.0906934636265));
#509=CURVE_STYLE('',#904,POSITIVE_LENGTH_MEASURE(1.0E-006),#905);
#510=LINE('',#906,#907);
#511=CURVE_STYLE('',#908,POSITIVE_LENGTH_MEASURE(1.0E-006),#909);
#512=LINE('',#910,#911);
#513=SURFACE_STYLE_USAGE(.BOTH.,#912);
#514=FACE_OUTER_BOUND('',#913,.T.);
#515=CYLINDRICAL_SURFACE('',#914,0.394355589784601);
#516=POINT_STYLE(' ',#915,POSITIVE_LENGTH_MEASURE(1.0E-006),#916);
#517=CARTESIAN_POINT('',(0.445736688382193,1.43224257883575,-21.0633885667752));
#518=POINT_STYLE(' ',#917,POSITIVE_LENGTH_MEASURE(1.0E-006),#918);
#519=CARTESIAN_POINT('',(5.28467147414175E-016,1.5,-21.3103417867011));
#520=POINT_STYLE(' ',#919,POSITIVE_LENGTH_MEASURE(1.0E-006),#920);
#521=CARTESIAN_POINT('',(0.191042345276873,1.4877845349079,-20.7767766558089));
#522=CURVE_STYLE('',#921,POSITIVE_LENGTH_MEASURE(1.0E-006),#922);
#523=CIRCLE('',#923,1.4);
#524=CURVE_STYLE('',#924,POSITIVE_LENGTH_MEASURE(1.0E-006),#925);
#525=LINE('',#926,#927);
#526=POINT_STYLE(' ',#928,POSITIVE_LENGTH_MEASURE(1.0E-006),#929);
#527=CARTESIAN_POINT('',(0.266477242128121,1.47614019639999,-20.300000092291));
#528=CURVE_STYLE('',#930,POSITIVE_LENGTH_MEASURE(1.0E-006),#931);
#529=LINE('',#932,#933);
#530=SURFACE_STYLE_USAGE(.BOTH.,#934);
#531=FACE_OUTER_BOUND('',#935,.T.);
#532=CYLINDRICAL_SURFACE('',#936,0.5);
#533=CURVE_STYLE('',#937,POSITIVE_LENGTH_MEASURE(1.0E-006),#938);
#534=LINE('',#939,#940);
#535=CURVE_STYLE('',#941,POSITIVE_LENGTH_MEASURE(1.0E-006),#942);
#536=B_SPLINE_CURVE_WITH_KNOTS('',3,(#943,#944,#945,#946,#947,#948,#949,#950,#951,#952,#953,#954,#955,#956,#957,#958,#959,#960,#961,#962,#963,#964,#965,#966,#967,#968,#969),.UNSPECIFIED.,.F.,.F.,(4,2,3,2,2,2,2,2,2,2,2,2,4),(-0.180901966709087,-0.0904509833545435,0.0,0.0904509833545436,0.180901966709087,0.271587051521942,0.362272136334797,0.452562970858867,0.542853805382937,0.633260931758076,0.723668058133215,0.814075184508354,0.904482310883494),.UNSPECIFIED.);
#537=CURVE_STYLE('',#970,POSITIVE_LENGTH_MEASURE(1.0E-006),#971);
#538=LINE('',#972,#973);
#539=POINT_STYLE(' ',#974,POSITIVE_LENGTH_MEASURE(1.0E-006),#975);
#540=CARTESIAN_POINT('',(-0.5,0.0,-34.76684617));
#541=POINT_STYLE(' ',#976,POSITIVE_LENGTH_MEASURE(1.0E-006),#977);
#542=CARTESIAN_POINT('',(0.0967010423452768,1.49687972409587,-21.2999442996743));
#543=CURVE_STYLE('',#978,POSITIVE_LENGTH_MEASURE(1.0E-006),#979);
#544=CIRCLE('',#980,0.4995);
#545=CURVE_STYLE('',#981,POSITIVE_LENGTH_MEASURE(1.0E-006),#982);
#546=B_SPLINE_CURVE_WITH_KNOTS('',3,(#983,#984,#985,#986,#987,#988,#989,#990,#991,#992,#993,#994,#995,#996),.UNSPECIFIED.,.F.,.F.,(4,2,2,2,2,2,4),(1.04556644553437,1.19481792676598,1.34406940799758,1.49332088922919,1.6421919361918,1.79106298315441,1.94096154109475),.UNSPECIFIED.);
#547=POINT_STYLE(' ',#997,POSITIVE_LENGTH_MEASURE(1.0E-006),#998);
#548=CARTESIAN_POINT('',(2.05794355424154E-011,1.5,-20.641089603934));
#549=CURVE_STYLE('',#999,POSITIVE_LENGTH_MEASURE(1.0E-006),#1000);
#550=LINE('',#1001,#1002);
#551=CURVE_STYLE('',#1003,POSITIVE_LENGTH_MEASURE(1.0E-006),#1004);
#552=B_SPLINE_CURVE_WITH_KNOTS('',3,(#1005,#1006,#1007,#1008,#1009,#1010,#1011,#1012,#1013,#1014),.UNSPECIFIED.,.F.,.F.,(4,2,2,2,4),(0.620415869735469,0.826981332916279,1.03398970786775,1.24099808281921,1.44800214325881),.UNSPECIFIED.);
#553=SURFACE_STYLE_USAGE(.BOTH.,#1015);
#554=FACE_OUTER_BOUND('',#1016,.T.);
#555=CYLINDRICAL_SURFACE('',#1017,0.542888173802104);
#556=POINT_STYLE(' ',#1018,POSITIVE_LENGTH_MEASURE(1.0E-006),#1019);
#557=CARTESIAN_POINT('',(6.11690873734277E-017,-0.4995,-27.0));
#558=CURVE_STYLE('',#1020,POSITIVE_LENGTH_MEASURE(1.0E-006),#1021);
#559=LINE('',#1022,#1023);
#560=CURVE_STYLE('',#1024,POSITIVE_LENGTH_MEASURE(1.0E-006),#1025);
#561=ELLIPSE('',#1026,1.67239264806429,1.5);
#562=POINT_STYLE(' ',#1027,POSITIVE_LENGTH_MEASURE(1.0E-006),#1028);
#563=CARTESIAN_POINT('',(-0.345024467969599,1.45978016033316,-20.4057073995657));
#564=SURFACE_STYLE_USAGE(.BOTH.,#1029);
#565=FACE_OUTER_BOUND('',#1030,.T.);
#566=PLANE('',#1031);
#567=CURVE_STYLE('',#1032,POSITIVE_LENGTH_MEASURE(1.0E-006),#1033);
#568=LINE('',#1034,#1035);
#569=CURVE_STYLE('',#1036,POSITIVE_LENGTH_MEASURE(1.0E-006),#1037);
#570=CIRCLE('',#1038,1.5);
#571=CURVE_STYLE('',#1039,POSITIVE_LENGTH_MEASURE(1.0E-006),#1040);
#572=LINE('',#1041,#1042);
#573=CURVE_STYLE('',#1043,POSITIVE_LENGTH_MEASURE(1.0E-006),#1044);
#574=LINE('',#1045,#1046);
#575=SURFACE_STYLE_USAGE(.BOTH.,#1047);
#576=FACE_OUTER_BOUND('',#1048,.T.);
#577=PLANE('',#1049);
#578=POINT_STYLE(' ',#1050,POSITIVE_LENGTH_MEASURE(1.0E-006),#1051);
#579=CARTESIAN_POINT('',(-0.345024467969599,1.35681911709052,-20.4057073995657));
#580=CURVE_STYLE('',#1052,POSITIVE_LENGTH_MEASURE(1.0E-006),#1053);
#581=B_SPLINE_CURVE_WITH_KNOTS('',3,(#1054,#1055,#1056,#1057,#1058,#1059,#1060,#1061,#1062,#1063,#1064,#1065,#1066,#1067,#1068,#1069,#1070,#1071,#1072,#1073,#1074,#1075,#1076,#1077,#1078,#1079,#1080),.UNSPECIFIED.,.F.,.F.,(4,2,3,2,2,2,2,2,2,2,2,2,4),(-0.180901966709087,-0.0904509833545435,0.0,0.0904509833545436,0.180901966709087,0.271587051521942,0.362272136334797,0.452562970858867,0.542853805382937,0.633260931758076,0.723668058133215,0.814075184508354,0.904482310883494),.UNSPECIFIED.);
#582=POINT_STYLE(' ',#1081,POSITIVE_LENGTH_MEASURE(1.0E-006),#1082);
#583=CARTESIAN_POINT('',(-0.445684250814332,1.43225889718866,-21.0906934636265));
#584=POINT_STYLE(' ',#1083,POSITIVE_LENGTH_MEASURE(1.0E-006),#1084);
#585=CARTESIAN_POINT('',(0.191042345276873,1.38690404221457,-20.7767766558089));
#586=POINT_STYLE(' ',#1085,POSITIVE_LENGTH_MEASURE(1.0E-006),#1086);
#587=CARTESIAN_POINT('',(0.0,0.4995,-27.0));
#588=POINT_STYLE(' ',#1087,POSITIVE_LENGTH_MEASURE(1.0E-006),#1088);
#589=CARTESIAN_POINT('',(-1.59271369637281E-015,1.5,-20.8709637112193));
#590=SURFACE_STYLE_USAGE(.BOTH.,#1089);
#591=FACE_OUTER_BOUND('',#1090,.T.);
#592=CYLINDRICAL_SURFACE('',#1091,1.4);
#593=CURVE_STYLE('',#1092,POSITIVE_LENGTH_MEASURE(1.0E-006),#1093);
#594=B_SPLINE_CURVE_WITH_KNOTS('',3,(#1094,#1095,#1096,#1097,#1098,#1099),.UNSPECIFIED.,.F.,.F.,(4,2,4),(0.206581317849573,0.413162635699147,0.619453242343403),.UNSPECIFIED.);
#595=POINT_STYLE(' ',#1100,POSITIVE_LENGTH_MEASURE(1.0E-006),#1101);
#596=CARTESIAN_POINT('',(0.0,1.2,0.0));
#597=CURVE_STYLE('',#1102,POSITIVE_LENGTH_MEASURE(1.0E-006),#1103);
#598=LINE('',#1104,#1105);
#599=POINT_STYLE(' ',#1106,POSITIVE_LENGTH_MEASURE(1.0E-006),#1107);
#600=CARTESIAN_POINT('',(0.0,0.0,-35.0));
#601=CURVE_STYLE('',#1108,POSITIVE_LENGTH_MEASURE(1.0E-006),#1109);
#602=CIRCLE('',#1110,1.2);
#603=POINT_STYLE(' ',#1111,POSITIVE_LENGTH_MEASURE(1.0E-006),#1112);
#604=CARTESIAN_POINT('',(6.11690873734277E-017,-0.4995,-30.0));
#605=POINT_STYLE(' ',#1113,POSITIVE_LENGTH_MEASURE(1.0E-006),#1114);
#606=CARTESIAN_POINT('',(-0.187444663409338,1.48824208318383,-20.4057073995657));
#607=POINT_STYLE(' ',#1115,POSITIVE_LENGTH_MEASURE(1.0E-006),#1116);
#608=CARTESIAN_POINT('',(0.291186927252985,1.36938313608609,-21.219578393051));
#609=POINT_STYLE(' ',#1117,POSITIVE_LENGTH_MEASURE(1.0E-006),#1118);
#610=CARTESIAN_POINT('',(0.0,0.4995,-30.0));
#611=CURVE_STYLE('',#1119,POSITIVE_LENGTH_MEASURE(1.0E-006),#1120);
#612=CIRCLE('',#1121,0.5);
#613=CURVE_STYLE('',#1122,POSITIVE_LENGTH_MEASURE(1.0E-006),#1123);
#614=ELLIPSE('',#1124,4.26719240271768,1.4);
#615=POINT_STYLE(' ',#1125,POSITIVE_LENGTH_MEASURE(1.0E-006),#1126);
#616=CARTESIAN_POINT('',(-0.187444663409338,1.38739486021801,-20.4057073995657));
#617=CURVE_STYLE('',#1127,POSITIVE_LENGTH_MEASURE(1.0E-006),#1128);
#618=ELLIPSE('',#1129,1.67239264806429,1.5);
#619=SURFACE_STYLE_USAGE(.BOTH.,#1130);
#620=FACE_OUTER_BOUND('',#1131,.T.);
#621=CYLINDRICAL_SURFACE('',#1132,0.239624863395969);
#622=POINT_STYLE(' ',#1133,POSITIVE_LENGTH_MEASURE(1.0E-006),#1134);
#623=CARTESIAN_POINT('',(0.291186927252986,1.4714653150506,-20.7399643865364));
#624=POINT_STYLE(' ',#1135,POSITIVE_LENGTH_MEASURE(1.0E-006),#1136);
#625=CARTESIAN_POINT('',(0.445736688382193,1.43224257883575,-20.4716828121607));
#626=CURVE_STYLE('',#1137,POSITIVE_LENGTH_MEASURE(1.0E-006),#1138);
#627=ELLIPSE('',#1139,4.57199186005466,1.5);
#628=POINT_STYLE(' ',#1140,POSITIVE_LENGTH_MEASURE(1.0E-006),#1141);
#629=CARTESIAN_POINT('',(1.83690953073357E-016,-1.5,-0.300000000000001));
#630=SURFACE_STYLE_USAGE(.BOTH.,#1142);
#631=FACE_OUTER_BOUND('',#1143,.T.);
#632=CONICAL_SURFACE('',#1144,1.35,0.785398163397447);
#633=CURVE_STYLE('',#1145,POSITIVE_LENGTH_MEASURE(1.0E-006),#1146);
#634=LINE('',#1147,#1148);
#635=CURVE_STYLE('',#1149,POSITIVE_LENGTH_MEASURE(1.0E-006),#1150);
#636=LINE('',#1151,#1152);
#637=CURVE_STYLE('',#1153,POSITIVE_LENGTH_MEASURE(1.0E-006),#1154);
#638=LINE('',#1155,#1156);
#639=SURFACE_STYLE_USAGE(.BOTH.,#1157);
#640=FACE_OUTER_BOUND('',#1158,.T.);
#641=CONICAL_SURFACE('',#1159,0.99975,0.264089655349623);
#642=CURVE_STYLE('',#1160,POSITIVE_LENGTH_MEASURE(1.0E-006),#1161);
#643=B_SPLINE_CURVE_WITH_KNOTS('',3,(#1162,#1163,#1164,#1165,#1166,#1167,#1168,#1169,#1170,#1171,#1172,#1173,#1174,#1175),.UNSPECIFIED.,.F.,.F.,(4,2,2,2,2,2,4),(0.449150673999558,0.599254881805798,0.748174136214704,0.89709339062361,1.04645297376854,1.19581255691346,1.34500018410038),.UNSPECIFIED.);
#644=SURFACE_STYLE_USAGE(.BOTH.,#1176);
#645=FACE_OUTER_BOUND('',#1177,.T.);
#646=CYLINDRICAL_SURFACE('',#1178,0.5);
#647=SURFACE_STYLE_USAGE(.BOTH.,#1179);
#648=FACE_OUTER_BOUND('',#1180,.T.);
#649=CONICAL_SURFACE('',#1181,0.25,1.13446401228084);
#650=POINT_STYLE(' ',#1182,POSITIVE_LENGTH_MEASURE(1.0E-006),#1183);
#651=CARTESIAN_POINT('',(-0.5,0.0,-30.0));
#652=POINT_STYLE(' ',#1184,POSITIVE_LENGTH_MEASURE(1.0E-006),#1185);
#653=CARTESIAN_POINT('',(0.0,1.5,-0.300000000000001));
#654=CURVE_STYLE('',#1186,POSITIVE_LENGTH_MEASURE(1.0E-006),#1187);
#655=CIRCLE('',#1188,1.5);
#656=POINT_STYLE(' ',#1189,POSITIVE_LENGTH_MEASURE(1.0E-006),#1190);
#657=CARTESIAN_POINT('',(0.5,6.12303176911189E-017,-34.76684617));
#658=CURVE_STYLE('',#1191,POSITIVE_LENGTH_MEASURE(1.0E-006),#1192);
#659=B_SPLINE_CURVE_WITH_KNOTS('',3,(#1193,#1194,#1195,#1196,#1197,#1198,#1199,#1200,#1201,#1202),.UNSPECIFIED.,.F.,.F.,(4,2,2,2,4),(1.85902529823815,2.06567030714978,2.27234349574443,2.47901668433909,2.68530730298492),.UNSPECIFIED.);
#660=SURFACE_STYLE_USAGE(.BOTH.,#1203);
#661=CLOSED_SHELL('',(#197,#439,#371,#355,#405,#393,#391,#255,#379,#275,#177,#289,#401,#185,#317,#179,#217,#419,#327,#181,#335,#375,#195));
#662=SURFACE_STYLE_USAGE(.BOTH.,#1204);
#663=FACE_OUTER_BOUND('',#1205,.T.);
#664=CYLINDRICAL_SURFACE('',#1206,1.5);
#665=CURVE_STYLE('',#1207,POSITIVE_LENGTH_MEASURE(1.0E-006),#1208);
#666=LINE('',#1209,#1210);
#667=POINT_STYLE(' ',#1211,POSITIVE_LENGTH_MEASURE(1.0E-006),#1212);
#668=CARTESIAN_POINT('',(-5.5810628876861E-012,1.5,-20.8000267183946));
#669=POINT_STYLE(' ',#1213,POSITIVE_LENGTH_MEASURE(1.0E-006),#1214);
#670=CARTESIAN_POINT('',(0.0,1.5,-23.3));
#671=CURVE_STYLE('',#1215,POSITIVE_LENGTH_MEASURE(1.0E-006),#1216);
#672=LINE('',#1217,#1218);
#673=CURVE_STYLE('',#1219,POSITIVE_LENGTH_MEASURE(1.0E-006),#1220);
#674=B_SPLINE_CURVE_WITH_KNOTS('',3,(#1221,#1222,#1223,#1224,#1225,#1226,#1227,#1228,#1229,#1230,#1231,#1232,#1233,#1234,#1235,#1236,#1237,#1238,#1239,#1240,#1241,#1242,#1243,#1244,#1245,#1246,#1247),.UNSPECIFIED.,.F.,.F.,(4,2,3,2,2,2,2,2,2,2,2,2,4),(-0.180901966709087,-0.0904509833545435,0.0,0.0904509833545436,0.180901966709087,0.271587051521942,0.362272136334797,0.452562970858867,0.542853805382937,0.633260931758076,0.723668058133215,0.814075184508354,0.904482310883494),.UNSPECIFIED.);
#675=CURVE_STYLE('',#1248,POSITIVE_LENGTH_MEASURE(1.0E-006),#1249);
#676=B_SPLINE_CURVE_WITH_KNOTS('',3,(#1250,#1251,#1252,#1253,#1254,#1255),.UNSPECIFIED.,.F.,.F.,(4,2,4),(0.20692518525904,0.413850370518079,0.620415814467368),.UNSPECIFIED.);
#677=CURVE_STYLE('',#1256,POSITIVE_LENGTH_MEASURE(1.0E-006),#1257);
#678=CIRCLE('',#1258,0.5);
#679=SURFACE_STYLE_USAGE(.BOTH.,#1259);
#680=FACE_OUTER_BOUND('',#1260,.T.);
#681=CYLINDRICAL_SURFACE('',#1261,1.5);
#682=POINT_STYLE(' ',#1262,POSITIVE_LENGTH_MEASURE(1.0E-006),#1263);
#683=CARTESIAN_POINT('',(0.445736688382193,1.32714686626239,-20.4716828121607));
#684=SURFACE_STYLE_USAGE(.BOTH.,#1264);
#685=FACE_OUTER_BOUND('',#1265,.T.);
#686=CYLINDRICAL_SURFACE('',#1266,0.4995);
#687=CURVE_STYLE('',#1267,POSITIVE_LENGTH_MEASURE(1.0E-006),#1268);
#688=LINE('',#1269,#1270);
#689=SURFACE_STYLE_USAGE(.BOTH.,#1271);
#690=FACE_OUTER_BOUND('',#1272,.T.);
#691=PLANE('',#1273);
#692=CURVE_STYLE('',#1274,POSITIVE_LENGTH_MEASURE(1.0E-006),#1275);
#693=LINE('',#1276,#1277);
#694=POINT_STYLE(' ',#1278,POSITIVE_LENGTH_MEASURE(1.0E-006),#1279);
#695=CARTESIAN_POINT('',(1.46952762458685E-016,-1.2,0.0));
#696=CURVE_STYLE('',#1280,POSITIVE_LENGTH_MEASURE(1.0E-006),#1281);
#697=CIRCLE('',#1282,0.5);
#698=POINT_STYLE(' ',#1283,POSITIVE_LENGTH_MEASURE(1.0E-006),#1284);
#699=CARTESIAN_POINT('',(-0.162126314794348,1.49121261329537,-20.5144279161002));
#700=CURVE_STYLE('',#1285,POSITIVE_LENGTH_MEASURE(1.0E-006),#1286);
#701=CIRCLE('',#1287,1.5);
#702=SURFACE_STYLE_USAGE(.BOTH.,#1288);
#703=FACE_OUTER_BOUND('',#1289,.T.);
#704=PLANE('',#1290);
#705=SURFACE_STYLE_USAGE(.BOTH.,#1291);
#706=FACE_OUTER_BOUND('',#1292,.T.);
#707=CYLINDRICAL_SURFACE('',#1293,0.239624863395969);
#708=CURVE_STYLE('',#1294,POSITIVE_LENGTH_MEASURE(1.0E-006),#1295);
#709=LINE('',#1296,#1297);
#710=CURVE_STYLE('',#1298,POSITIVE_LENGTH_MEASURE(1.0E-006),#1299);
#711=CIRCLE('',#1300,0.5);
#712=CURVE_STYLE('',#1301,POSITIVE_LENGTH_MEASURE(1.0E-006),#1302);
#713=LINE('',#1303,#1304);
#714=SURFACE_STYLE_USAGE(.BOTH.,#1305);
#715=FACE_OUTER_BOUND('',#1306,.T.);
#716=PLANE('',#1307);
#717=CURVE_STYLE('',#1308,POSITIVE_LENGTH_MEASURE(1.0E-006),#1309);
#718=LINE('',#1310,#1311);
#719=SURFACE_STYLE_USAGE(.BOTH.,#1312);
#720=FACE_OUTER_BOUND('',#1313,.T.);
#721=CONICAL_SURFACE('',#1314,1.35,0.785398163397447);
#722=CURVE_STYLE('',#1315,POSITIVE_LENGTH_MEASURE(1.0E-006),#1316);
#723=ELLIPSE('',#1317,1.56089980486,1.4);
#724=POINT_STYLE(' ',#1318,POSITIVE_LENGTH_MEASURE(1.0E-006),#1319);
#725=CARTESIAN_POINT('',(0.291186927252986,1.36938313608609,-20.7399643865364));
#726=SURFACE_STYLE_USAGE(.BOTH.,#1320);
#727=FACE_OUTER_BOUND('',#1321,.T.);
#728=CONICAL_SURFACE('',#1322,0.25,1.13446401228084);
#729=CURVE_STYLE('',#1323,POSITIVE_LENGTH_MEASURE(1.0E-006),#1324);
#730=LINE('',#1325,#1326);
#731=POINT_STYLE(' ',#1327,POSITIVE_LENGTH_MEASURE(1.0E-006),#1328);
#732=CARTESIAN_POINT('',(0.266477242128121,1.37440528208669,-20.300000092291));
#733=POINT_STYLE(' ',#1329,POSITIVE_LENGTH_MEASURE(1.0E-006),#1330);
#734=CARTESIAN_POINT('',(0.0967010423452768,1.39665633153233,-21.2999442996743));
#735=SURFACE_STYLE_USAGE(.BOTH.,#1331);
#736=FACE_OUTER_BOUND('',#1332,.T.);
#737=PLANE('',#1333);
#738=POINT_STYLE(' ',#1334,POSITIVE_LENGTH_MEASURE(1.0E-006),#1335);
#739=CARTESIAN_POINT('',(1.83690953073357E-016,-1.5,-23.3));
#740=CURVE_STYLE('',#1336,POSITIVE_LENGTH_MEASURE(1.0E-006),#1337);
#741=LINE('',#1338,#1339);
#742=CURVE_STYLE('',#1340,POSITIVE_LENGTH_MEASURE(1.0E-006),#1341);
#743=LINE('',#1342,#1343);
#744=CURVE_STYLE('',#1344,POSITIVE_LENGTH_MEASURE(1.0E-006),#1345);
#745=B_SPLINE_CURVE_WITH_KNOTS('',3,(#1346,#1347,#1348,#1349,#1350,#1351,#1352,#1353,#1354,#1355,#1356,#1357,#1358,#1359),.UNSPECIFIED.,.F.,.F.,(4,2,2,2,2,2,4),(1.04556644553437,1.19481792676598,1.34406940799758,1.49332088922919,1.6421919361918,1.79106298315441,1.94096154109475),.UNSPECIFIED.);
#746=CURVE_STYLE('',#1360,POSITIVE_LENGTH_MEASURE(1.0E-006),#1361);
#747=LINE('',#1362,#1363);
#748=CURVE_STYLE('',#1364,POSITIVE_LENGTH_MEASURE(1.0E-006),#1365);
#749=CIRCLE('',#1366,1.5);
#750=POINT_STYLE(' ',#1367,POSITIVE_LENGTH_MEASURE(1.0E-006),#1368);
#751=CARTESIAN_POINT('',(-0.162126314794349,1.39058083477776,-20.5144279161002));
#752=CURVE_STYLE('',#1369,POSITIVE_LENGTH_MEASURE(1.0E-006),#1370);
#753=CIRCLE('',#1371,1.2);
#754=CURVE_STYLE('',#1372,POSITIVE_LENGTH_MEASURE(1.0E-006),#1373);
#755=CIRCLE('',#1374,1.5);
#756=SURFACE_STYLE_USAGE(.BOTH.,#1375);
#757=FACE_OUTER_BOUND('',#1376,.T.);
#758=CONICAL_SURFACE('',#1377,0.99975,0.264089655349623);
#759=PRODUCT_CONTEXT('',#150,'mechanical');
#760=PRODUCT_DEFINITION_FORMATION_WITH_SPECIFIED_SOURCE(' ','NONE',#440,.NOT_KNOWN.);
#761=CARTESIAN_POINT('',(0.0,0.0,0.0));
#762=DIRECTION('',(0.0,0.0,1.0));
#763=DIRECTION('',(1.0,0.0,0.0));
#764=PRODUCT_CONTEXT('',#155,'mechanical');
#765=PRODUCT_DEFINITION_FORMATION_WITH_SPECIFIED_SOURCE(' ','NONE',#443,.NOT_KNOWN.);
#766=CARTESIAN_POINT('',(0.0,0.0,0.0));
#767=DIRECTION('',(0.0,0.0,1.0));
#768=DIRECTION('',(1.0,0.0,0.0));
#769= (NAMED_UNIT(#451)LENGTH_UNIT()SI_UNIT(.MILLI.,.METRE.));
#770=DRAUGHTING_PRE_DEFINED_CURVE_FONT('continuous');
#771=COLOUR_RGB('',0.498039215803146,0.498039215803146,0.498039215803146);
#772=CARTESIAN_POINT('',(0.199061849002132,1.48673278711134,-21.2687828857748));
#773=CARTESIAN_POINT('',(0.26584706721545,1.47779077066393,-21.2410006035898));
#774=CARTESIAN_POINT('',(0.326493342418221,1.4648697423439,-21.1993265217779));
#775=CARTESIAN_POINT('',(0.422252417114927,1.44019132283688,-21.1036106277201));
#776=CARTESIAN_POINT('',(0.463941140424695,1.42675317793293,-21.04295936927));
#777=CARTESIAN_POINT('',(0.491743345585499,1.4171056707502,-20.9761709487976));
#778=DRAUGHTING_PRE_DEFINED_CURVE_FONT('continuous');
#779=COLOUR_RGB('',0.498039215803146,0.498039215803146,0.498039215803146);
#780=AXIS2_PLACEMENT_3D('',#1379,#1380,#1381);
#781=SURFACE_SIDE_STYLE('',(#1382));
#782=PRE_DEFINED_MARKER('');
#783=COLOUR_RGB('',0.800000011920929,0.800000011920929,0.800000011920929);
#784=SURFACE_SIDE_STYLE('',(#1383));
#785=EDGE_LOOP('',(#1384,#1385,#1386,#1387));
#786=AXIS2_PLACEMENT_3D('',#1388,#1389,#1390);
#787=SURFACE_SIDE_STYLE('',(#1391));
#788=EDGE_LOOP('',(#1392,#1393,#1394,#1395));
#789=AXIS2_PLACEMENT_3D('',#1396,#1397,#1398);
#790=SURFACE_SIDE_STYLE('',(#1399));
#791=EDGE_LOOP('',(#1400,#1401,#1402,#1403,#1404,#1405,#1406,#1407,#1408,#1409,#1410,#1411));
#792=AXIS2_PLACEMENT_3D('',#1412,#1413,#1414);
#793=DRAUGHTING_PRE_DEFINED_CURVE_FONT('continuous');
#794=COLOUR_RGB('',0.200000002980232,0.600000023841858,1.0);
#795=CARTESIAN_POINT('',(-0.117181624611206,1.39508726137596,-20.237690401687));
#796=CARTESIAN_POINT('',(-0.138468766914005,1.39329922847835,-20.2589566347354));
#797=CARTESIAN_POINT('',(-0.156923895536923,1.39123221227467,-20.2858905726496));
#798=CARTESIAN_POINT('',(-0.181415217899851,1.38825094909163,-20.344945964173));
#799=CARTESIAN_POINT('',(-0.187449399729082,1.38739422030698,-20.3770711417381));
#800=CARTESIAN_POINT('',(-0.187449399729082,1.38739422030698,-20.4373568666531));
#801=CARTESIAN_POINT('',(-0.181415217899851,1.38825094909163,-20.4694820442182));
#802=CARTESIAN_POINT('',(-0.156923895536921,1.39123221227467,-20.5285374357416));
#803=CARTESIAN_POINT('',(-0.138468766914005,1.39329922847835,-20.5554713736558));
#804=CARTESIAN_POINT('',(-0.0959259586970276,1.39687265038565,-20.5979723942817));
#805=CARTESIAN_POINT('',(-0.0690015844676661,1.39861004085185,-20.6163934152249));
#806=CARTESIAN_POINT('',(-0.00999068415960253,1.40027549119428,-20.6408275166926));
#807=CARTESIAN_POINT('',(0.0220980814635059,1.40014912846684,-20.6468388675916));
#808=CARTESIAN_POINT('',(0.0824038797008532,1.39790007820479,-20.6468388675916));
#809=CARTESIAN_POINT('',(0.114562559826976,1.39562045177,-20.6407733890513));
#810=CARTESIAN_POINT('',(0.173611467778051,1.38951073541202,-20.6162485285127));
#811=CARTESIAN_POINT('',(0.200509103726029,1.38573400073898,-20.5977937209248));
#812=CARTESIAN_POINT('',(0.24292053335399,1.37893056499176,-20.5553169370546));
#813=CARTESIAN_POINT('',(0.261316537705005,1.37545227066293,-20.5284524064416));
#814=CARTESIAN_POINT('',(0.285758720113014,1.37058280964528,-20.4694843696622));
#815=CARTESIAN_POINT('',(0.291800327062856,1.36925255856106,-20.4373739545128));
#816=CARTESIAN_POINT('',(0.291800327062856,1.36925255856106,-20.4072140041956));
#817=CARTESIAN_POINT('',(0.291800327062856,1.36925255856106,-20.3770229693381));
#818=CARTESIAN_POINT('',(0.285746378113902,1.3705855963343,-20.3448817225855));
#819=CARTESIAN_POINT('',(0.261258051765335,1.37546359362798,-20.28586673519));
#820=CARTESIAN_POINT('',(0.242828249769718,1.37894741485181,-20.258986058602));
#821=CARTESIAN_POINT('',(0.221615829515077,1.38234815589574,-20.2377736383474));
#822=SURFACE_SIDE_STYLE('',(#1415));
#823=EDGE_LOOP('',(#1416,#1417,#1418,#1419));
#824=AXIS2_PLACEMENT_3D('',#1420,#1421,#1422);
#825=DRAUGHTING_PRE_DEFINED_CURVE_FONT('continuous');
#826=COLOUR_RGB('',0.800000011920929,0.800000011920929,0.800000011920929);
#827=CARTESIAN_POINT('',(-0.25,-3.06151588455594E-017,-34.883423085));
#828=VECTOR('',#1423,1.0);
#829=DRAUGHTING_PRE_DEFINED_CURVE_FONT('continuous');
#830=COLOUR_RGB('',0.498039215803146,0.498039215803146,0.498039215803146);
#831=AXIS2_PLACEMENT_3D('',#1424,#1425,#1426);
#832=DRAUGHTING_PRE_DEFINED_CURVE_FONT('continuous');
#833=COLOUR_RGB('',0.200000002980232,0.600000023841858,1.0);
#834=CARTESIAN_POINT('',(-0.117181624611206,1.39508726137596,-20.237690401687));
#835=CARTESIAN_POINT('',(-0.138468766914005,1.39329922847835,-20.2589566347354));
#836=CARTESIAN_POINT('',(-0.156923895536923,1.39123221227467,-20.2858905726496));
#837=CARTESIAN_POINT('',(-0.181415217899851,1.38825094909163,-20.344945964173));
#838=CARTESIAN_POINT('',(-0.187449399729082,1.38739422030698,-20.3770711417381));
#839=CARTESIAN_POINT('',(-0.187449399729082,1.38739422030698,-20.4373568666531));
#840=CARTESIAN_POINT('',(-0.181415217899851,1.38825094909163,-20.4694820442182));
#841=CARTESIAN_POINT('',(-0.156923895536921,1.39123221227467,-20.5285374357416));
#842=CARTESIAN_POINT('',(-0.138468766914005,1.39329922847835,-20.5554713736558));
#843=CARTESIAN_POINT('',(-0.0959259586970276,1.39687265038565,-20.5979723942817));
#844=CARTESIAN_POINT('',(-0.0690015844676661,1.39861004085185,-20.6163934152249));
#845=CARTESIAN_POINT('',(-0.00999068415960253,1.40027549119428,-20.6408275166926));
#846=CARTESIAN_POINT('',(0.0220980814635059,1.40014912846684,-20.6468388675916));
#847=CARTESIAN_POINT('',(0.0824038797008532,1.39790007820479,-20.6468388675916));
#848=CARTESIAN_POINT('',(0.114562559826976,1.39562045177,-20.6407733890513));
#849=CARTESIAN_POINT('',(0.173611467778051,1.38951073541202,-20.6162485285127));
#850=CARTESIAN_POINT('',(0.200509103726029,1.38573400073898,-20.5977937209248));
#851=CARTESIAN_POINT('',(0.24292053335399,1.37893056499176,-20.5553169370546));
#852=CARTESIAN_POINT('',(0.261316537705005,1.37545227066293,-20.5284524064416));
#853=CARTESIAN_POINT('',(0.285758720113014,1.37058280964528,-20.4694843696622));
#854=CARTESIAN_POINT('',(0.291800327062856,1.36925255856106,-20.4373739545128));
#855=CARTESIAN_POINT('',(0.291800327062856,1.36925255856106,-20.4072140041956));
#856=CARTESIAN_POINT('',(0.291800327062856,1.36925255856106,-20.3770229693381));
#857=CARTESIAN_POINT('',(0.285746378113902,1.3705855963343,-20.3448817225855));
#858=CARTESIAN_POINT('',(0.261258051765335,1.37546359362798,-20.28586673519));
#859=CARTESIAN_POINT('',(0.242828249769718,1.37894741485181,-20.258986058602));
#860=CARTESIAN_POINT('',(0.221615829515077,1.38234815589574,-20.2377736383474));
#861=DRAUGHTING_PRE_DEFINED_CURVE_FONT('continuous');
#862=COLOUR_RGB('',0.800000011920929,0.800000011920929,0.800000011920929);
#863=CARTESIAN_POINT('',(-0.5,-6.12303176911189E-017,-32.383423085));
#864=VECTOR('',#1427,1.0);
#865=SURFACE_SIDE_STYLE('',(#1428));
#866=EDGE_LOOP('',(#1429,#1430));
#867=AXIS2_PLACEMENT_3D('',#1431,#1432,#1433);
#868=SURFACE_SIDE_STYLE('',(#1434));
#869=EDGE_LOOP('',(#1435,#1436,#1437,#1438));
#870=AXIS2_PLACEMENT_3D('',#1439,#1440,#1441);
#871=DRAUGHTING_PRE_DEFINED_CURVE_FONT('continuous');
#872=COLOUR_RGB('',0.498039215803146,0.498039215803146,0.498039215803146);
#873=CARTESIAN_POINT('',(-0.510663884086716,1.41039795713461,-20.9761414932216));
#874=CARTESIAN_POINT('',(-0.48288219532452,1.42045688567568,-21.0428917331796));
#875=CARTESIAN_POINT('',(-0.441244348092513,1.43448916486863,-21.1034830495674));
#876=CARTESIAN_POINT('',(-0.345596761760871,1.46048597628377,-21.199175425681));
#877=CARTESIAN_POINT('',(-0.284974339318755,1.47422809273278,-21.2408778107875));
#878=CARTESIAN_POINT('',(-0.151371949196349,1.49386926357127,-21.2965191841322));
#879=CARTESIAN_POINT('',(-0.0783437509828542,1.49953600664492,-21.3104241111695));
#880=CARTESIAN_POINT('',(0.059308117302166,1.50040360289934,-21.3104241111695));
#881=CARTESIAN_POINT('',(0.132276716500884,1.49567479625857,-21.2965653151316));
#882=CARTESIAN_POINT('',(0.199061940328443,1.48673277488346,-21.2687830304685));
#883=DRAUGHTING_PRE_DEFINED_CURVE_FONT('continuous');
#884=COLOUR_RGB('',0.498039215803146,0.498039215803146,0.498039215803146);
#885=CARTESIAN_POINT('',(-6.11690873734277E-017,0.4995,-28.5));
#886=VECTOR('',#1442,1.0);
#887=DRAUGHTING_PRE_DEFINED_CURVE_FONT('continuous');
#888=COLOUR_RGB('',0.498039215803146,0.498039215803146,0.498039215803146);
#889=AXIS2_PLACEMENT_3D('',#1443,#1444,#1445);
#890=DRAUGHTING_PRE_DEFINED_CURVE_FONT('continuous');
#891=COLOUR_RGB('',0.200000002980232,0.600000023841858,1.0);
#892=CARTESIAN_POINT('',(0.199180077969661,1.38575874398829,-20.2663376898337));
#893=CARTESIAN_POINT('',(0.265951883202218,1.37616139272086,-20.294132871577));
#894=CARTESIAN_POINT('',(0.32653702515263,1.36228968737254,-20.335791803325));
#895=CARTESIAN_POINT('',(0.422198144050778,1.33574583015829,-20.431403214734));
#896=CARTESIAN_POINT('',(0.463869843250633,1.32125219566903,-20.491992181706));
#897=CARTESIAN_POINT('',(0.491686345368979,1.31081827030969,-20.5587635512681));
#898=PRE_DEFINED_MARKER('');
#899=COLOUR_RGB('',0.498039215803146,0.498039215803146,0.498039215803146);
#900=PRE_DEFINED_MARKER('');
#901=COLOUR_RGB('',0.200000002980232,0.600000023841858,1.0);
#902=PRE_DEFINED_MARKER('');
#903=COLOUR_RGB('',0.200000002980232,0.600000023841858,1.0);
#904=DRAUGHTING_PRE_DEFINED_CURVE_FONT('continuous');
#905=COLOUR_RGB('',0.498039215803146,0.498039215803146,0.498039215803146);
#906=CARTESIAN_POINT('',(1.83690953073357E-016,-1.5,-11.8));
#907=VECTOR('',#1446,1.0);
#908=DRAUGHTING_PRE_DEFINED_CURVE_FONT('continuous');
#909=COLOUR_RGB('',0.200000002980232,0.600000023841858,1.0);
#910=CARTESIAN_POINT('',(0.266477242128121,0.0,-20.300000092291));
#911=VECTOR('',#1447,1.0);
#912=SURFACE_SIDE_STYLE('',(#1448));
#913=EDGE_LOOP('',(#1449,#1450,#1451,#1452,#1453));
#914=AXIS2_PLACEMENT_3D('',#1454,#1455,#1456);
#915=PRE_DEFINED_MARKER('');
#916=COLOUR_RGB('',0.498039215803146,0.498039215803146,0.498039215803146);
#917=PRE_DEFINED_MARKER('');
#918=COLOUR_RGB('',0.498039215803146,0.498039215803146,0.498039215803146);
#919=PRE_DEFINED_MARKER('');
#920=COLOUR_RGB('',0.498039215803146,0.498039215803146,0.498039215803146);
#921=DRAUGHTING_PRE_DEFINED_CURVE_FONT('continuous');
#922=COLOUR_RGB('',0.200000002980232,0.600000023841858,1.0);
#923=AXIS2_PLACEMENT_3D('',#1457,#1458,#1459);
#924=DRAUGHTING_PRE_DEFINED_CURVE_FONT('continuous');
#925=COLOUR_RGB('',0.200000002980232,0.600000023841858,1.0);
#926=CARTESIAN_POINT('',(-0.187444663409338,0.0,-20.4057073995657));
#927=VECTOR('',#1460,1.0);
#928=PRE_DEFINED_MARKER('');
#929=COLOUR_RGB('',0.498039215803146,0.498039215803146,0.498039215803146);
#930=DRAUGHTING_PRE_DEFINED_CURVE_FONT('continuous');
#931=COLOUR_RGB('',0.498039215803146,0.498039215803146,0.498039215803146);
#932=CARTESIAN_POINT('',(1.65321857766021E-016,-1.35,-0.150000000000002));
#933=VECTOR('',#1461,1.0);
#934=SURFACE_SIDE_STYLE('',(#1462));
#935=EDGE_LOOP('',(#1463,#1464,#1465,#1466));
#936=AXIS2_PLACEMENT_3D('',#1467,#1468,#1469);
#937=DRAUGHTING_PRE_DEFINED_CURVE_FONT('continuous');
#938=COLOUR_RGB('',0.800000011920929,0.800000011920929,0.800000011920929);
#939=CARTESIAN_POINT('',(0.5,6.12303176911189E-017,-32.383423085));
#940=VECTOR('',#1470,1.0);
#941=DRAUGHTING_PRE_DEFINED_CURVE_FONT('continuous');
#942=COLOUR_RGB('',0.498039215803146,0.498039215803146,0.498039215803146);
#943=CARTESIAN_POINT('',(0.221729286755517,1.48352152778276,-20.2378871716097));
#944=CARTESIAN_POINT('',(0.242916664335146,1.48035483149223,-20.2591029518555));
#945=CARTESIAN_POINT('',(0.261318671695976,1.47711443847429,-20.2859780646235));
#946=CARTESIAN_POINT('',(0.285762500920564,1.47258083232378,-20.3449554464605));
#947=CARTESIAN_POINT('',(0.291800327062856,1.47134379705289,-20.3770636764107));
#948=CARTESIAN_POINT('',(0.291800327062856,1.47134379705289,-20.4072140041956));
#949=CARTESIAN_POINT('',(0.291800327062856,1.47134379705289,-20.4373643319804));
#950=CARTESIAN_POINT('',(0.285762500920564,1.47258083232378,-20.4694725619307));
#951=CARTESIAN_POINT('',(0.261318671695976,1.47711443847429,-20.5284499437677));
#952=CARTESIAN_POINT('',(0.242916664335146,1.48035483149223,-20.5553250565357));
#953=CARTESIAN_POINT('',(0.200487072889916,1.4866964199844,-20.5978115268238));
#954=CARTESIAN_POINT('',(0.173583194808326,1.49021764919555,-20.6162645841107));
#955=CARTESIAN_POINT('',(0.114535660161259,1.49591488728219,-20.6407802443434));
#956=CARTESIAN_POINT('',(0.0823855330622715,1.49804084650163,-20.6468388675916));
#957=CARTESIAN_POINT('',(0.022096731509681,1.5001391803914,-20.6468388675916));
#958=CARTESIAN_POINT('',(-0.00999262344409792,1.5002571208703,-20.6408272955109));
#959=CARTESIAN_POINT('',(-0.0690070987492234,1.49870253939413,-20.6163905501035));
#960=CARTESIAN_POINT('',(-0.0959341735062562,1.49708093351492,-20.5979668841244));
#961=CARTESIAN_POINT('',(-0.138477984082618,1.49374686847048,-20.555459464118));
#962=CARTESIAN_POINT('',(-0.156931372390204,1.49181914896708,-20.5285240496651));
#963=CARTESIAN_POINT('',(-0.181417959074004,1.48903974234222,-20.469470789854));
#964=CARTESIAN_POINT('',(-0.187449399729082,1.48824148663488,-20.4373497129873));
#965=CARTESIAN_POINT('',(-0.187449399729082,1.48824148663488,-20.3770782954039));
#966=CARTESIAN_POINT('',(-0.181417959074004,1.48903974234222,-20.3449572185372));
#967=CARTESIAN_POINT('',(-0.156931372390204,1.49181914896708,-20.2859039587261));
#968=CARTESIAN_POINT('',(-0.138477984082618,1.49374686847048,-20.2589685442732));
#969=CARTESIAN_POINT('',(-0.117192388826773,1.49541497384541,-20.2377011560123));
#970=DRAUGHTING_PRE_DEFINED_CURVE_FONT('continuous');
#971=COLOUR_RGB('',0.498039215803146,0.498039215803146,0.498039215803146);
#972=CARTESIAN_POINT('',(0.445736688382193,1.43224257883575,-20.767535689468));
#973=VECTOR('',#1471,1.0);
#974=PRE_DEFINED_MARKER('');
#975=COLOUR_RGB('',0.800000011920929,0.800000011920929,0.800000011920929);
#976=PRE_DEFINED_MARKER('');
#977=COLOUR_RGB('',0.498039215803146,0.498039215803146,0.498039215803146);
#978=DRAUGHTING_PRE_DEFINED_CURVE_FONT('continuous');
#979=COLOUR_RGB('',0.498039215803146,0.498039215803146,0.498039215803146);
#980=AXIS2_PLACEMENT_3D('',#1472,#1473,#1474);
#981=DRAUGHTING_PRE_DEFINED_CURVE_FONT('continuous');
#982=COLOUR_RGB('',0.498039215803146,0.498039215803146,0.498039215803146);
#983=CARTESIAN_POINT('',(-0.31486890626942,1.46658023028565,-20.2574949574025));
#984=CARTESIAN_POINT('',(-0.335050458532667,1.46224733367956,-20.3060820694257));
#985=CARTESIAN_POINT('',(-0.345036339300621,1.45977735444897,-20.3590167931671));
#986=CARTESIAN_POINT('',(-0.345036339300621,1.45977735444897,-20.4585177806548));
#987=CARTESIAN_POINT('',(-0.335050458532666,1.46224733367956,-20.5114525043962));
#988=CARTESIAN_POINT('',(-0.294687354006184,1.47091312689174,-20.6086267284426));
#989=CARTESIAN_POINT('',(-0.2643193819444,1.47695271033967,-20.6528839400996));
#990=CARTESIAN_POINT('',(-0.194416198846917,1.48776678314766,-20.7226824192427));
#991=CARTESIAN_POINT('',(-0.150190002765005,1.49325454353536,-20.7529651939691));
#992=CARTESIAN_POINT('',(-0.0531271239485849,1.49984788471278,-20.7931900793177));
#993=CARTESIAN_POINT('',(-0.000277601456355976,1.50082058647412,-20.8031228766955));
#994=CARTESIAN_POINT('',(0.0992584208997283,1.49754612136718,-20.8031228766955));
#995=CARTESIAN_POINT('',(0.152267005818254,1.49305636381024,-20.7930669468251));
#996=CARTESIAN_POINT('',(0.200841428620677,1.48649343104825,-20.7728515638676));
#997=PRE_DEFINED_MARKER('');
#998=COLOUR_RGB('',0.498039215803146,0.498039215803146,0.498039215803146);
#999=DRAUGHTING_PRE_DEFINED_CURVE_FONT('continuous');
#1000=COLOUR_RGB('',0.200000002980232,0.600000023841858,1.0);
#1001=CARTESIAN_POINT('',(-0.345024467969599,0.0,-20.4057073995657));
#1002=VECTOR('',#1475,1.0);
#1003=DRAUGHTING_PRE_DEFINED_CURVE_FONT('continuous');
#1004=COLOUR_RGB('',0.200000002980232,0.600000023841858,1.0);
#1005=CARTESIAN_POINT('',(0.199180176910605,1.38575872976715,-21.2687338283494));
#1006=CARTESIAN_POINT('',(0.132408368329895,1.39535608638171,-21.296529011669));
#1007=CARTESIAN_POINT('',(0.0593995279736127,1.40043305029661,-21.3104241111695));
#1008=CARTESIAN_POINT('',(-0.0784552747615232,1.39950210972247,-21.3104241111695));
#1009=CARTESIAN_POINT('',(-0.151533246961655,1.3934165949244,-21.296475505556));
#1010=CARTESIAN_POINT('',(-0.285113817743684,1.37232730878111,-21.2407961721918));
#1011=CARTESIAN_POINT('',(-0.345671056748324,1.3575672374164,-21.1991045148745));
#1012=CARTESIAN_POINT('',(-0.441203038785691,1.32959281694928,-21.1035209583352));
#1013=CARTESIAN_POINT('',(-0.482815583798976,1.31445046880523,-21.0430016760065));
#1014=CARTESIAN_POINT('',(-0.510608347789735,1.30356400501373,-20.9762748784508));
#1015=SURFACE_SIDE_STYLE('',(#1476));
#1016=EDGE_LOOP('',(#1477,#1478,#1479,#1480,#1481));
#1017=AXIS2_PLACEMENT_3D('',#1482,#1483,#1484);
#1018=PRE_DEFINED_MARKER('');
#1019=COLOUR_RGB('',0.498039215803146,0.498039215803146,0.498039215803146);
#1020=DRAUGHTING_PRE_DEFINED_CURVE_FONT('continuous');
#1021=COLOUR_RGB('',0.498039215803146,0.498039215803146,0.498039215803146);
#1022=CARTESIAN_POINT('',(-1.22430020223392E-016,0.99975,-25.15));
#1023=VECTOR('',#1485,1.0);
#1024=DRAUGHTING_PRE_DEFINED_CURVE_FONT('continuous');
#1025=COLOUR_RGB('',0.498039215803146,0.498039215803146,0.498039215803146);
#1026=AXIS2_PLACEMENT_3D('',#1486,#1487,#1488);
#1027=PRE_DEFINED_MARKER('');
#1028=COLOUR_RGB('',0.498039215803146,0.498039215803146,0.498039215803146);
#1029=SURFACE_SIDE_STYLE('',(#1489));
#1030=EDGE_LOOP('',(#1490,#1491));
#1031=AXIS2_PLACEMENT_3D('',#1492,#1493,#1494);
#1032=DRAUGHTING_PRE_DEFINED_CURVE_FONT('continuous');
#1033=COLOUR_RGB('',0.200000002980232,0.600000023841858,1.0);
#1034=CARTESIAN_POINT('',(0.191042345276873,0.0,-20.7767766558089));
#1035=VECTOR('',#1495,1.0);
#1036=DRAUGHTING_PRE_DEFINED_CURVE_FONT('continuous');
#1037=COLOUR_RGB('',0.498039215803146,0.498039215803146,0.498039215803146);
#1038=AXIS2_PLACEMENT_3D('',#1496,#1497,#1498);
#1039=DRAUGHTING_PRE_DEFINED_CURVE_FONT('continuous');
#1040=COLOUR_RGB('',0.498039215803146,0.498039215803146,0.498039215803146);
#1041=CARTESIAN_POINT('',(0.291186927252986,1.4714653150506,-20.9797713897937));
#1042=VECTOR('',#1499,1.0);
#1043=DRAUGHTING_PRE_DEFINED_CURVE_FONT('continuous');
#1044=COLOUR_RGB('',0.498039215803146,0.498039215803146,0.498039215803146);
#1045=CARTESIAN_POINT('',(-1.83690953073357E-016,1.5,-11.8));
#1046=VECTOR('',#1500,1.0);
#1047=SURFACE_SIDE_STYLE('',(#1501));
#1048=EDGE_LOOP('',(#1502,#1503,#1504,#1505));
#1049=AXIS2_PLACEMENT_3D('',#1506,#1507,#1508);
#1050=PRE_DEFINED_MARKER('');
#1051=COLOUR_RGB('',0.200000002980232,0.600000023841858,1.0);
#1052=DRAUGHTING_PRE_DEFINED_CURVE_FONT('continuous');
#1053=COLOUR_RGB('',0.498039215803146,0.498039215803146,0.498039215803146);
#1054=CARTESIAN_POINT('',(0.221729286755517,1.48352152778276,-20.2378871716097));
#1055=CARTESIAN_POINT('',(0.242916664335146,1.48035483149223,-20.2591029518555));
#1056=CARTESIAN_POINT('',(0.261318671695976,1.47711443847429,-20.2859780646235));
#1057=CARTESIAN_POINT('',(0.285762500920564,1.47258083232378,-20.3449554464605));
#1058=CARTESIAN_POINT('',(0.291800327062856,1.47134379705289,-20.3770636764107));
#1059=CARTESIAN_POINT('',(0.291800327062856,1.47134379705289,-20.4072140041956));
#1060=CARTESIAN_POINT('',(0.291800327062856,1.47134379705289,-20.4373643319804));
#1061=CARTESIAN_POINT('',(0.285762500920564,1.47258083232378,-20.4694725619307));
#1062=CARTESIAN_POINT('',(0.261318671695976,1.47711443847429,-20.5284499437677));
#1063=CARTESIAN_POINT('',(0.242916664335146,1.48035483149223,-20.5553250565357));
#1064=CARTESIAN_POINT('',(0.200487072889916,1.4866964199844,-20.5978115268238));
#1065=CARTESIAN_POINT('',(0.173583194808326,1.49021764919555,-20.6162645841107));
#1066=CARTESIAN_POINT('',(0.114535660161259,1.49591488728219,-20.6407802443434));
#1067=CARTESIAN_POINT('',(0.0823855330622715,1.49804084650163,-20.6468388675916));
#1068=CARTESIAN_POINT('',(0.022096731509681,1.5001391803914,-20.6468388675916));
#1069=CARTESIAN_POINT('',(-0.00999262344409792,1.5002571208703,-20.6408272955109));
#1070=CARTESIAN_POINT('',(-0.0690070987492234,1.49870253939413,-20.6163905501035));
#1071=CARTESIAN_POINT('',(-0.0959341735062562,1.49708093351492,-20.5979668841244));
#1072=CARTESIAN_POINT('',(-0.138477984082618,1.49374686847048,-20.555459464118));
#1073=CARTESIAN_POINT('',(-0.156931372390204,1.49181914896708,-20.5285240496651));
#1074=CARTESIAN_POINT('',(-0.181417959074004,1.48903974234222,-20.469470789854));
#1075=CARTESIAN_POINT('',(-0.187449399729082,1.48824148663488,-20.4373497129873));
#1076=CARTESIAN_POINT('',(-0.187449399729082,1.48824148663488,-20.3770782954039));
#1077=CARTESIAN_POINT('',(-0.181417959074004,1.48903974234222,-20.3449572185372));
#1078=CARTESIAN_POINT('',(-0.156931372390204,1.49181914896708,-20.2859039587261));
#1079=CARTESIAN_POINT('',(-0.138477984082618,1.49374686847048,-20.2589685442732));
#1080=CARTESIAN_POINT('',(-0.117192388826773,1.49541497384541,-20.2377011560123));
#1081=PRE_DEFINED_MARKER('');
#1082=COLOUR_RGB('',0.498039215803146,0.498039215803146,0.498039215803146);
#1083=PRE_DEFINED_MARKER('');
#1084=COLOUR_RGB('',0.200000002980232,0.600000023841858,1.0);
#1085=PRE_DEFINED_MARKER('');
#1086=COLOUR_RGB('',0.498039215803146,0.498039215803146,0.498039215803146);
#1087=PRE_DEFINED_MARKER('');
#1088=COLOUR_RGB('',0.498039215803146,0.498039215803146,0.498039215803146);
#1089=SURFACE_SIDE_STYLE('',(#1509));
#1090=EDGE_LOOP('',(#1510,#1511,#1512,#1513,#1514,#1515,#1516,#1517,#1518,#1519,#1520));
#1091=AXIS2_PLACEMENT_3D('',#1521,#1522,#1523);
#1092=DRAUGHTING_PRE_DEFINED_CURVE_FONT('continuous');
#1093=COLOUR_RGB('',0.498039215803146,0.498039215803146,0.498039215803146);
#1094=CARTESIAN_POINT('',(0.491743348242613,1.41710566982817,-20.5589004347604));
#1095=CARTESIAN_POINT('',(0.463941142106077,1.42675317740789,-20.4921120119755));
#1096=CARTESIAN_POINT('',(0.422252417336209,1.44019132283161,-20.4314607514286));
#1097=CARTESIAN_POINT('',(0.326493339315814,1.46486974309175,-20.3357448541153));
#1098=CARTESIAN_POINT('',(0.26584706204082,1.47779077169742,-20.2940707709));
#1099=CARTESIAN_POINT('',(0.199061841552507,1.48673278810879,-20.2662884877836));
#1100=PRE_DEFINED_MARKER('');
#1101=COLOUR_RGB('',0.498039215803146,0.498039215803146,0.498039215803146);
#1102=DRAUGHTING_PRE_DEFINED_CURVE_FONT('continuous');
#1103=COLOUR_RGB('',0.200000002980232,0.600000023841858,1.0);
#1104=CARTESIAN_POINT('',(-0.445684250814332,0.0,-21.0906934636265));
#1105=VECTOR('',#1524,1.0);
#1106=PRE_DEFINED_MARKER('');
#1107=COLOUR_RGB('',0.800000011920929,0.800000011920929,0.800000011920929);
#1108=DRAUGHTING_PRE_DEFINED_CURVE_FONT('continuous');
#1109=COLOUR_RGB('',0.498039215803146,0.498039215803146,0.498039215803146);
#1110=AXIS2_PLACEMENT_3D('',#1525,#1526,#1527);
#1111=PRE_DEFINED_MARKER('');
#1112=COLOUR_RGB('',0.498039215803146,0.498039215803146,0.498039215803146);
#1113=PRE_DEFINED_MARKER('');
#1114=COLOUR_RGB('',0.498039215803146,0.498039215803146,0.498039215803146);
#1115=PRE_DEFINED_MARKER('');
#1116=COLOUR_RGB('',0.200000002980232,0.600000023841858,1.0);
#1117=PRE_DEFINED_MARKER('');
#1118=COLOUR_RGB('',0.498039215803146,0.498039215803146,0.498039215803146);
#1119=DRAUGHTING_PRE_DEFINED_CURVE_FONT('continuous');
#1120=COLOUR_RGB('',0.800000011920929,0.800000011920929,0.800000011920929);
#1121=AXIS2_PLACEMENT_3D('',#1528,#1529,#1530);
#1122=DRAUGHTING_PRE_DEFINED_CURVE_FONT('continuous');
#1123=COLOUR_RGB('',0.200000002980232,0.600000023841858,1.0);
#1124=AXIS2_PLACEMENT_3D('',#1531,#1532,#1533);
#1125=PRE_DEFINED_MARKER('');
#1126=COLOUR_RGB('',0.200000002980232,0.600000023841858,1.0);
#1127=DRAUGHTING_PRE_DEFINED_CURVE_FONT('continuous');
#1128=COLOUR_RGB('',0.498039215803146,0.498039215803146,0.498039215803146);
#1129=AXIS2_PLACEMENT_3D('',#1534,#1535,#1536);
#1130=SURFACE_SIDE_STYLE('',(#1537));
#1131=EDGE_LOOP('',(#1538,#1539,#1540,#1541,#1542));
#1132=AXIS2_PLACEMENT_3D('',#1543,#1544,#1545);
#1133=PRE_DEFINED_MARKER('');
#1134=COLOUR_RGB('',0.498039215803146,0.498039215803146,0.498039215803146);
#1135=PRE_DEFINED_MARKER('');
#1136=COLOUR_RGB('',0.498039215803146,0.498039215803146,0.498039215803146);
#1137=DRAUGHTING_PRE_DEFINED_CURVE_FONT('continuous');
#1138=COLOUR_RGB('',0.498039215803146,0.498039215803146,0.498039215803146);
#1139=AXIS2_PLACEMENT_3D('',#1546,#1547,#1548);
#1140=PRE_DEFINED_MARKER('');
#1141=COLOUR_RGB('',0.498039215803146,0.498039215803146,0.498039215803146);
#1142=SURFACE_SIDE_STYLE('',(#1549));
#1143=EDGE_LOOP('',(#1550,#1551,#1552,#1553));
#1144=AXIS2_PLACEMENT_3D('',#1554,#1555,#1556);
#1145=DRAUGHTING_PRE_DEFINED_CURVE_FONT('continuous');
#1146=COLOUR_RGB('',0.498039215803146,0.498039215803146,0.498039215803146);
#1147=CARTESIAN_POINT('',(-1.65321857766021E-016,1.35,-0.150000000000002));
#1148=VECTOR('',#1557,1.0);
#1149=DRAUGHTING_PRE_DEFINED_CURVE_FONT('continuous');
#1150=COLOUR_RGB('',0.200000002980232,0.600000023841858,1.0);
#1151=CARTESIAN_POINT('',(0.0967010423452768,0.0,-21.2999442996743));
#1152=VECTOR('',#1558,1.0);
#1153=DRAUGHTING_PRE_DEFINED_CURVE_FONT('continuous');
#1154=COLOUR_RGB('',0.200000002980232,0.600000023841858,1.0);
#1155=CARTESIAN_POINT('',(0.445736688382193,1.32714686626239,-20.767535689468));
#1156=VECTOR('',#1559,1.0);
#1157=SURFACE_SIDE_STYLE('',(#1560));
#1158=EDGE_LOOP('',(#1561,#1562,#1563,#1564));
#1159=AXIS2_PLACEMENT_3D('',#1565,#1566,#1567);
#1160=DRAUGHTING_PRE_DEFINED_CURVE_FONT('continuous');
#1161=COLOUR_RGB('',0.200000002980232,0.600000023841858,1.0);
#1162=CARTESIAN_POINT('',(0.200934749700117,1.38550540466754,-20.7728127120872));
#1163=CARTESIAN_POINT('',(0.152361027198006,1.39254987285908,-20.7930424128849));
#1164=CARTESIAN_POINT('',(0.0993229298639763,1.39736839466311,-20.8031228766955));
#1165=CARTESIAN_POINT('',(-0.000289689597056074,1.40087973109968,-20.8031228766955));
#1166=CARTESIAN_POINT('',(-0.0531441761580086,1.3998366962277,-20.7931845414391));
#1167=CARTESIAN_POINT('',(-0.150192542814046,1.39277036147263,-20.7529626120982));
#1168=CARTESIAN_POINT('',(-0.194401081368023,1.38688829524184,-20.7226896998535));
#1169=CARTESIAN_POINT('',(-0.264285887003956,1.37528589839301,-20.6529252151849));
#1170=CARTESIAN_POINT('',(-0.294656242773869,1.36879766697314,-20.6086812917829));
#1171=CARTESIAN_POINT('',(-0.335036721821817,1.3594777535698,-20.5115058899038));
#1172=CARTESIAN_POINT('',(-0.345036339300621,1.35681609828378,-20.4585538146259));
#1173=CARTESIAN_POINT('',(-0.345036339300621,1.35681609828378,-20.3590380778486));
#1174=CARTESIAN_POINT('',(-0.335059492810623,1.35947148128579,-20.3061426655781));
#1175=CARTESIAN_POINT('',(-0.31491172956739,1.36412264939076,-20.2575980957205));
#1176=SURFACE_SIDE_STYLE('',(#1568));
#1177=EDGE_LOOP('',(#1569,#1570,#1571,#1572));
#1178=AXIS2_PLACEMENT_3D('',#1573,#1574,#1575);
#1179=SURFACE_SIDE_STYLE('',(#1576));
#1180=EDGE_LOOP('',(#1577,#1578,#1579));
#1181=AXIS2_PLACEMENT_3D('',#1580,#1581,#1582);
#1182=PRE_DEFINED_MARKER('');
#1183=COLOUR_RGB('',0.800000011920929,0.800000011920929,0.800000011920929);
#1184=PRE_DEFINED_MARKER('');
#1185=COLOUR_RGB('',0.498039215803146,0.498039215803146,0.498039215803146);
#1186=DRAUGHTING_PRE_DEFINED_CURVE_FONT('continuous');
#1187=COLOUR_RGB('',0.498039215803146,0.498039215803146,0.498039215803146);
#1188=AXIS2_PLACEMENT_3D('',#1583,#1584,#1585);
#1189=PRE_DEFINED_MARKER('');
#1190=COLOUR_RGB('',0.800000011920929,0.800000011920929,0.800000011920929);
#1191=DRAUGHTING_PRE_DEFINED_CURVE_FONT('continuous');
#1192=COLOUR_RGB('',0.498039215803146,0.498039215803146,0.498039215803146);
#1193=CARTESIAN_POINT('',(-0.510663884086716,1.41039795713461,-20.9761414932216));
#1194=CARTESIAN_POINT('',(-0.48288219532452,1.42045688567568,-21.0428917331796));
#1195=CARTESIAN_POINT('',(-0.441244348092513,1.43448916486863,-21.1034830495674));
#1196=CARTESIAN_POINT('',(-0.345596761760871,1.46048597628377,-21.199175425681));
#1197=CARTESIAN_POINT('',(-0.284974339318755,1.47422809273278,-21.2408778107875));
#1198=CARTESIAN_POINT('',(-0.151371949196349,1.49386926357127,-21.2965191841322));
#1199=CARTESIAN_POINT('',(-0.0783437509828542,1.49953600664492,-21.3104241111695));
#1200=CARTESIAN_POINT('',(0.059308117302166,1.50040360289934,-21.3104241111695));
#1201=CARTESIAN_POINT('',(0.132276716500884,1.49567479625857,-21.2965653151316));
#1202=CARTESIAN_POINT('',(0.199061940328443,1.48673277488346,-21.2687830304685));
#1203=SURFACE_SIDE_STYLE('',(#1586));
#1204=SURFACE_SIDE_STYLE('',(#1587));
#1205=EDGE_LOOP('',(#1588,#1589,#1590,#1591,#1592,#1593,#1594,#1595,#1596,#1597,#1598,#1599));
#1206=AXIS2_PLACEMENT_3D('',#1600,#1601,#1602);
#1207=DRAUGHTING_PRE_DEFINED_CURVE_FONT('continuous');
#1208=COLOUR_RGB('',0.498039215803146,0.498039215803146,0.498039215803146);
#1209=CARTESIAN_POINT('',(6.11690873734277E-017,-0.4995,-28.5));
#1210=VECTOR('',#1603,1.0);
#1211=PRE_DEFINED_MARKER('');
#1212=COLOUR_RGB('',0.498039215803146,0.498039215803146,0.498039215803146);
#1213=PRE_DEFINED_MARKER('');
#1214=COLOUR_RGB('',0.498039215803146,0.498039215803146,0.498039215803146);
#1215=DRAUGHTING_PRE_DEFINED_CURVE_FONT('continuous');
#1216=COLOUR_RGB('',0.200000002980232,0.600000023841858,1.0);
#1217=CARTESIAN_POINT('',(-0.162126314794348,1.43475451892426,-20.5144279161002));
#1218=VECTOR('',#1604,1.0);
#1219=DRAUGHTING_PRE_DEFINED_CURVE_FONT('continuous');
#1220=COLOUR_RGB('',0.498039215803146,0.498039215803146,0.498039215803146);
#1221=CARTESIAN_POINT('',(0.221729286755517,1.48352152778276,-20.2378871716097));
#1222=CARTESIAN_POINT('',(0.242916664335146,1.48035483149223,-20.2591029518555));
#1223=CARTESIAN_POINT('',(0.261318671695976,1.47711443847429,-20.2859780646235));
#1224=CARTESIAN_POINT('',(0.285762500920564,1.47258083232378,-20.3449554464605));
#1225=CARTESIAN_POINT('',(0.291800327062856,1.47134379705289,-20.3770636764107));
#1226=CARTESIAN_POINT('',(0.291800327062856,1.47134379705289,-20.4072140041956));
#1227=CARTESIAN_POINT('',(0.291800327062856,1.47134379705289,-20.4373643319804));
#1228=CARTESIAN_POINT('',(0.285762500920564,1.47258083232378,-20.4694725619307));
#1229=CARTESIAN_POINT('',(0.261318671695976,1.47711443847429,-20.5284499437677));
#1230=CARTESIAN_POINT('',(0.242916664335146,1.48035483149223,-20.5553250565357));
#1231=CARTESIAN_POINT('',(0.200487072889916,1.4866964199844,-20.5978115268238));
#1232=CARTESIAN_POINT('',(0.173583194808326,1.49021764919555,-20.6162645841107));
#1233=CARTESIAN_POINT('',(0.114535660161259,1.49591488728219,-20.6407802443434));
#1234=CARTESIAN_POINT('',(0.0823855330622715,1.49804084650163,-20.6468388675916));
#1235=CARTESIAN_POINT('',(0.022096731509681,1.5001391803914,-20.6468388675916));
#1236=CARTESIAN_POINT('',(-0.00999262344409792,1.5002571208703,-20.6408272955109));
#1237=CARTESIAN_POINT('',(-0.0690070987492234,1.49870253939413,-20.6163905501035));
#1238=CARTESIAN_POINT('',(-0.0959341735062562,1.49708093351492,-20.5979668841244));
#1239=CARTESIAN_POINT('',(-0.138477984082618,1.49374686847048,-20.555459464118));
#1240=CARTESIAN_POINT('',(-0.156931372390204,1.49181914896708,-20.5285240496651));
#1241=CARTESIAN_POINT('',(-0.181417959074004,1.48903974234222,-20.469470789854));
#1242=CARTESIAN_POINT('',(-0.187449399729082,1.48824148663488,-20.4373497129873));
#1243=CARTESIAN_POINT('',(-0.187449399729082,1.48824148663488,-20.3770782954039));
#1244=CARTESIAN_POINT('',(-0.181417959074004,1.48903974234222,-20.3449572185372));
#1245=CARTESIAN_POINT('',(-0.156931372390204,1.49181914896708,-20.2859039587261));
#1246=CARTESIAN_POINT('',(-0.138477984082618,1.49374686847048,-20.2589685442732));
#1247=CARTESIAN_POINT('',(-0.117192388826773,1.49541497384541,-20.2377011560123));
#1248=DRAUGHTING_PRE_DEFINED_CURVE_FONT('continuous');
#1249=COLOUR_RGB('',0.200000002980232,0.600000023841858,1.0);
#1250=CARTESIAN_POINT('',(0.49168634271913,1.31081827130365,-20.9763078322725));
#1251=CARTESIAN_POINT('',(0.463869841580195,1.32125219623147,-21.0430791995198));
#1252=CARTESIAN_POINT('',(0.422198143844178,1.33574583015858,-21.103668164395));
#1253=CARTESIAN_POINT('',(0.326537028272234,1.36228968656385,-21.1992795725562));
#1254=CARTESIAN_POINT('',(0.26595188839063,1.37616139160821,-21.2409385029054));
#1255=CARTESIAN_POINT('',(0.199180085429989,1.38575874291599,-21.2687336837202));
#1256=DRAUGHTING_PRE_DEFINED_CURVE_FONT('continuous');
#1257=COLOUR_RGB('',0.800000011920929,0.800000011920929,0.800000011920929);
#1258=AXIS2_PLACEMENT_3D('',#1605,#1606,#1607);
#1259=SURFACE_SIDE_STYLE('',(#1608));
#1260=EDGE_LOOP('',(#1609,#1610,#1611));
#1261=AXIS2_PLACEMENT_3D('',#1612,#1613,#1614);
#1262=PRE_DEFINED_MARKER('');
#1263=COLOUR_RGB('',0.200000002980232,0.600000023841858,1.0);
#1264=SURFACE_SIDE_STYLE('',(#1615));
#1265=EDGE_LOOP('',(#1616,#1617,#1618,#1619));
#1266=AXIS2_PLACEMENT_3D('',#1620,#1621,#1622);
#1267=DRAUGHTING_PRE_DEFINED_CURVE_FONT('continuous');
#1268=COLOUR_RGB('',0.200000002980232,0.600000023841858,1.0);
#1269=CARTESIAN_POINT('',(0.291186927252985,0.0,-21.219578393051));
#1270=VECTOR('',#1623,1.0);
#1271=SURFACE_SIDE_STYLE('',(#1624));
#1272=EDGE_LOOP('',(#1625,#1626,#1627,#1628));
#1273=AXIS2_PLACEMENT_3D('',#1629,#1630,#1631);
#1274=DRAUGHTING_PRE_DEFINED_CURVE_FONT('continuous');
#1275=COLOUR_RGB('',0.498039215803146,0.498039215803146,0.498039215803146);
#1276=CARTESIAN_POINT('',(1.22430020223392E-016,-0.99975,-25.15));
#1277=VECTOR('',#1632,1.0);
#1278=PRE_DEFINED_MARKER('');
#1279=COLOUR_RGB('',0.498039215803146,0.498039215803146,0.498039215803146);
#1280=DRAUGHTING_PRE_DEFINED_CURVE_FONT('continuous');
#1281=COLOUR_RGB('',0.800000011920929,0.800000011920929,0.800000011920929);
#1282=AXIS2_PLACEMENT_3D('',#1633,#1634,#1635);
#1283=PRE_DEFINED_MARKER('');
#1284=COLOUR_RGB('',0.498039215803146,0.498039215803146,0.498039215803146);
#1285=DRAUGHTING_PRE_DEFINED_CURVE_FONT('continuous');
#1286=COLOUR_RGB('',0.498039215803146,0.498039215803146,0.498039215803146);
#1287=AXIS2_PLACEMENT_3D('',#1636,#1637,#1638);
#1288=SURFACE_SIDE_STYLE('',(#1639));
#1289=EDGE_LOOP('',(#1640,#1641,#1642,#1643,#1644));
#1290=AXIS2_PLACEMENT_3D('',#1645,#1646,#1647);
#1291=SURFACE_SIDE_STYLE('',(#1648));
#1292=EDGE_LOOP('',(#1649,#1650,#1651,#1652));
#1293=AXIS2_PLACEMENT_3D('',#1653,#1654,#1655);
#1294=DRAUGHTING_PRE_DEFINED_CURVE_FONT('continuous');
#1295=COLOUR_RGB('',0.200000002980232,0.600000023841858,1.0);
#1296=CARTESIAN_POINT('',(0.291186927252986,0.0,-20.7399643865364));
#1297=VECTOR('',#1656,1.0);
#1298=DRAUGHTING_PRE_DEFINED_CURVE_FONT('continuous');
#1299=COLOUR_RGB('',0.800000011920929,0.800000011920929,0.800000011920929);
#1300=AXIS2_PLACEMENT_3D('',#1657,#1658,#1659);
#1301=DRAUGHTING_PRE_DEFINED_CURVE_FONT('continuous');
#1302=COLOUR_RGB('',0.498039215803146,0.498039215803146,0.498039215803146);
#1303=CARTESIAN_POINT('',(-1.83690953073357E-016,1.5,-11.8));
#1304=VECTOR('',#1660,1.0);
#1305=SURFACE_SIDE_STYLE('',(#1661));
#1306=EDGE_LOOP('',(#1662,#1663,#1664,#1665));
#1307=AXIS2_PLACEMENT_3D('',#1666,#1667,#1668);
#1308=DRAUGHTING_PRE_DEFINED_CURVE_FONT('continuous');
#1309=COLOUR_RGB('',0.498039215803146,0.498039215803146,0.498039215803146);
#1310=CARTESIAN_POINT('',(-1.83690953073357E-016,1.5,-11.8));
#1311=VECTOR('',#1669,1.0);
#1312=SURFACE_SIDE_STYLE('',(#1670));
#1313=EDGE_LOOP('',(#1671,#1672,#1673,#1674));
#1314=AXIS2_PLACEMENT_3D('',#1675,#1676,#1677);
#1315=DRAUGHTING_PRE_DEFINED_CURVE_FONT('continuous');
#1316=COLOUR_RGB('',0.200000002980232,0.600000023841858,1.0);
#1317=AXIS2_PLACEMENT_3D('',#1678,#1679,#1680);
#1318=PRE_DEFINED_MARKER('');
#1319=COLOUR_RGB('',0.200000002980232,0.600000023841858,1.0);
#1320=SURFACE_SIDE_STYLE('',(#1681));
#1321=EDGE_LOOP('',(#1682,#1683,#1684));
#1322=AXIS2_PLACEMENT_3D('',#1685,#1686,#1687);
#1323=DRAUGHTING_PRE_DEFINED_CURVE_FONT('continuous');
#1324=COLOUR_RGB('',0.800000011920929,0.800000011920929,0.800000011920929);
#1325=CARTESIAN_POINT('',(0.25,3.06151588455594E-017,-34.883423085));
#1326=VECTOR('',#1688,1.0);
#1327=PRE_DEFINED_MARKER('');
#1328=COLOUR_RGB('',0.200000002980232,0.600000023841858,1.0);
#1329=PRE_DEFINED_MARKER('');
#1330=COLOUR_RGB('',0.200000002980232,0.600000023841858,1.0);
#1331=SURFACE_SIDE_STYLE('',(#1689));
#1332=EDGE_LOOP('',(#1690,#1691));
#1333=AXIS2_PLACEMENT_3D('',#1692,#1693,#1694);
#1334=PRE_DEFINED_MARKER('');
#1335=COLOUR_RGB('',0.498039215803146,0.498039215803146,0.498039215803146);
#1336=DRAUGHTING_PRE_DEFINED_CURVE_FONT('continuous');
#1337=COLOUR_RGB('',0.200000002980232,0.600000023841858,1.0);
#1338=CARTESIAN_POINT('',(0.291186927252986,1.36938313608609,-20.9797713897937));
#1339=VECTOR('',#1695,1.0);
#1340=DRAUGHTING_PRE_DEFINED_CURVE_FONT('continuous');
#1341=COLOUR_RGB('',0.200000002980232,0.600000023841858,1.0);
#1342=CARTESIAN_POINT('',(0.445736688382193,0.0,-21.0633885667752));
#1343=VECTOR('',#1696,1.0);
#1344=DRAUGHTING_PRE_DEFINED_CURVE_FONT('continuous');
#1345=COLOUR_RGB('',0.498039215803146,0.498039215803146,0.498039215803146);
#1346=CARTESIAN_POINT('',(-0.31486890626942,1.46658023028565,-20.2574949574025));
#1347=CARTESIAN_POINT('',(-0.335050458532667,1.46224733367956,-20.3060820694257));
#1348=CARTESIAN_POINT('',(-0.345036339300621,1.45977735444897,-20.3590167931671));
#1349=CARTESIAN_POINT('',(-0.345036339300621,1.45977735444897,-20.4585177806548));
#1350=CARTESIAN_POINT('',(-0.335050458532666,1.46224733367956,-20.5114525043962));
#1351=CARTESIAN_POINT('',(-0.294687354006184,1.47091312689174,-20.6086267284426));
#1352=CARTESIAN_POINT('',(-0.2643193819444,1.47695271033967,-20.6528839400996));
#1353=CARTESIAN_POINT('',(-0.194416198846917,1.48776678314766,-20.7226824192427));
#1354=CARTESIAN_POINT('',(-0.150190002765005,1.49325454353536,-20.7529651939691));
#1355=CARTESIAN_POINT('',(-0.0531271239485849,1.49984788471278,-20.7931900793177));
#1356=CARTESIAN_POINT('',(-0.000277601456355976,1.50082058647412,-20.8031228766955));
#1357=CARTESIAN_POINT('',(0.0992584208997283,1.49754612136718,-20.8031228766955));
#1358=CARTESIAN_POINT('',(0.152267005818254,1.49305636381024,-20.7930669468251));
#1359=CARTESIAN_POINT('',(0.200841428620677,1.48649343104825,-20.7728515638676));
#1360=DRAUGHTING_PRE_DEFINED_CURVE_FONT('continuous');
#1361=COLOUR_RGB('',0.200000002980232,0.600000023841858,1.0);
#1362=CARTESIAN_POINT('',(0.445736688382193,0.0,-20.4716828121607));
#1363=VECTOR('',#1697,1.0);
#1364=DRAUGHTING_PRE_DEFINED_CURVE_FONT('continuous');
#1365=COLOUR_RGB('',0.498039215803146,0.498039215803146,0.498039215803146);
#1366=AXIS2_PLACEMENT_3D('',#1698,#1699,#1700);
#1367=PRE_DEFINED_MARKER('');
#1368=COLOUR_RGB('',0.200000002980232,0.600000023841858,1.0);
#1369=DRAUGHTING_PRE_DEFINED_CURVE_FONT('continuous');
#1370=COLOUR_RGB('',0.498039215803146,0.498039215803146,0.498039215803146);
#1371=AXIS2_PLACEMENT_3D('',#1701,#1702,#1703);
#1372=DRAUGHTING_PRE_DEFINED_CURVE_FONT('continuous');
#1373=COLOUR_RGB('',0.498039215803146,0.498039215803146,0.498039215803146);
#1374=AXIS2_PLACEMENT_3D('',#1704,#1705,#1706);
#1375=SURFACE_SIDE_STYLE('',(#1707));
#1376=EDGE_LOOP('',(#1708,#1709,#1710,#1711));
#1377=AXIS2_PLACEMENT_3D('',#1712,#1713,#1714);
#1379=CARTESIAN_POINT('',(0.0,0.0,-27.0));
#1380=DIRECTION('',(0.0,0.0,-1.0));
#1381=DIRECTION('',(0.0,1.0,0.0));
#1382=SURFACE_STYLE_FILL_AREA(#1715);
#1383=SURFACE_STYLE_FILL_AREA(#1716);
#1384=ORIENTED_EDGE('',*,*,#169,.F.);
#1385=ORIENTED_EDGE('',*,*,#377,.F.);
#1386=ORIENTED_EDGE('',*,*,#367,.F.);
#1387=ORIENTED_EDGE('',*,*,#425,.T.);
#1388=CARTESIAN_POINT('',(-0.00945412946648461,0.0,-20.7675358341104));
#1389=DIRECTION('',(-0.0,-1.0,-0.0));
#1390=DIRECTION('',(0.838461542890049,0.0,-0.544960770234371));
#1391=SURFACE_STYLE_FILL_AREA(#1717);
#1392=ORIENTED_EDGE('',*,*,#269,.F.);
#1393=ORIENTED_EDGE('',*,*,#227,.F.);
#1394=ORIENTED_EDGE('',*,*,#225,.F.);
#1395=ORIENTED_EDGE('',*,*,#251,.T.);
#1396=CARTESIAN_POINT('',(-0.187444663409338,0.0,-20.4057073995657));
#1397=DIRECTION('',(0.0,0.0,1.0));
#1398=DIRECTION('',(1.0,0.0,0.0));
#1399=SURFACE_STYLE_FILL_AREA(#1718);
#1400=ORIENTED_EDGE('',*,*,#273,.T.);
#1401=ORIENTED_EDGE('',*,*,#279,.T.);
#1402=ORIENTED_EDGE('',*,*,#365,.T.);
#1403=ORIENTED_EDGE('',*,*,#269,.T.);
#1404=ORIENTED_EDGE('',*,*,#427,.T.);
#1405=ORIENTED_EDGE('',*,*,#403,.T.);
#1406=ORIENTED_EDGE('',*,*,#315,.T.);
#1407=ORIENTED_EDGE('',*,*,#351,.T.);
#1408=ORIENTED_EDGE('',*,*,#399,.T.);
#1409=ORIENTED_EDGE('',*,*,#437,.F.);
#1410=ORIENTED_EDGE('',*,*,#213,.T.);
#1411=ORIENTED_EDGE('',*,*,#347,.T.);
#1412=CARTESIAN_POINT('',(0.0,0.0,-11.8));
#1413=DIRECTION('',(-0.0,-0.0,1.0));
#1414=DIRECTION('',(0.0,1.0,0.0));
#1415=SURFACE_STYLE_FILL_AREA(#1719);
#1416=ORIENTED_EDGE('',*,*,#291,.F.);
#1417=ORIENTED_EDGE('',*,*,#429,.F.);
#1418=ORIENTED_EDGE('',*,*,#205,.F.);
#1419=ORIENTED_EDGE('',*,*,#215,.T.);
#1420=CARTESIAN_POINT('',(-0.00945414397777439,0.0,-20.7675355566928));
#1421=DIRECTION('',(0.0,-1.0,-0.0));
#1422=DIRECTION('',(0.508265629957899,0.0,0.861200353810599));
#1423=DIRECTION('',(0.906307786396183,1.10987027373946E-016,-0.422618263114184));
#1424=CARTESIAN_POINT('',(0.0,0.0,-27.0));
#1425=DIRECTION('',(0.0,0.0,-1.0));
#1426=DIRECTION('',(0.0,1.0,0.0));
#1427=DIRECTION('',(0.0,0.0,-1.0));
#1428=SURFACE_STYLE_FILL_AREA(#1720);
#1429=ORIENTED_EDGE('',*,*,#245,.T.);
#1430=ORIENTED_EDGE('',*,*,#203,.T.);
#1431=CARTESIAN_POINT('',(0.0,0.24975,-30.0));
#1432=DIRECTION('',(0.0,0.0,-1.0));
#1433=DIRECTION('',(0.0,1.0,0.0));
#1434=SURFACE_STYLE_FILL_AREA(#1721);
#1435=ORIENTED_EDGE('',*,*,#201,.F.);
#1436=ORIENTED_EDGE('',*,*,#189,.T.);
#1437=ORIENTED_EDGE('',*,*,#357,.F.);
#1438=ORIENTED_EDGE('',*,*,#245,.F.);
#1439=CARTESIAN_POINT('',(0.0,0.0,-28.5));
#1440=DIRECTION('',(-0.0,-0.0,1.0));
#1441=DIRECTION('',(0.0,1.0,0.0));
#1442=DIRECTION('',(0.0,0.0,-1.0));
#1443=CARTESIAN_POINT('',(0.0,0.0,-30.0));
#1444=DIRECTION('',(0.0,0.0,-1.0));
#1445=DIRECTION('',(0.0,1.0,0.0));
#1446=DIRECTION('',(-0.0,-0.0,1.0));
#1447=DIRECTION('',(0.0,1.0,0.0));
#1448=SURFACE_STYLE_FILL_AREA(#1722);
#1449=ORIENTED_EDGE('',*,*,#427,.F.);
#1450=ORIENTED_EDGE('',*,*,#251,.F.);
#1451=ORIENTED_EDGE('',*,*,#337,.F.);
#1452=ORIENTED_EDGE('',*,*,#267,.T.);
#1453=ORIENTED_EDGE('',*,*,#247,.F.);
#1454=CARTESIAN_POINT('',(0.0493192504839796,0.0,-20.4087672869109));
#1455=DIRECTION('',(-0.0,-1.0,-0.0));
#1456=DIRECTION('',(0.359378942416673,0.0,-0.933191714358563));
#1457=CARTESIAN_POINT('',(0.0,0.0,-20.4057073995657));
#1458=DIRECTION('',(0.0,0.0,-1.0));
#1459=DIRECTION('',(1.0,0.0,0.0));
#1460=DIRECTION('',(0.0,1.0,0.0));
#1461=DIRECTION('',(-8.65927457071934E-017,0.707106781186546,0.707106781186549));
#1462=SURFACE_STYLE_FILL_AREA(#1723);
#1463=ORIENTED_EDGE('',*,*,#193,.T.);
#1464=ORIENTED_EDGE('',*,*,#369,.F.);
#1465=ORIENTED_EDGE('',*,*,#235,.T.);
#1466=ORIENTED_EDGE('',*,*,#397,.T.);
#1467=CARTESIAN_POINT('',(0.0,0.0,-32.383423085));
#1468=DIRECTION('',(-0.0,-0.0,1.0));
#1469=DIRECTION('',(-1.0,0.0,0.0));
#1470=DIRECTION('',(-0.0,-0.0,1.0));
#1471=DIRECTION('',(-0.0,-0.0,1.0));
#1472=CARTESIAN_POINT('',(0.0,0.0,-30.0));
#1473=DIRECTION('',(0.0,0.0,-1.0));
#1474=DIRECTION('',(0.0,1.0,0.0));
#1475=DIRECTION('',(0.0,1.0,0.0));
#1476=SURFACE_STYLE_FILL_AREA(#1724);
#1477=ORIENTED_EDGE('',*,*,#351,.F.);
#1478=ORIENTED_EDGE('',*,*,#295,.F.);
#1479=ORIENTED_EDGE('',*,*,#253,.F.);
#1480=ORIENTED_EDGE('',*,*,#331,.T.);
#1481=ORIENTED_EDGE('',*,*,#199,.F.);
#1482=CARTESIAN_POINT('',(-0.00945405644865667,0.0,-20.7675359373674));
#1483=DIRECTION('',(-0.0,-1.0,-0.0));
#1484=DIRECTION('',(0.195537688821767,0.0,-0.980696187537324));
#1485=DIRECTION('',(3.19659722668462E-017,-0.261030592949893,-0.965330528650279));
#1486=CARTESIAN_POINT('',(0.0,0.0,-20.8709637112193));
#1487=DIRECTION('',(-0.442195774284071,0.0,0.896918556617774));
#1488=DIRECTION('',(0.896918556617774,-0.0,0.442195774284071));
#1489=SURFACE_STYLE_FILL_AREA(#1725);
#1490=ORIENTED_EDGE('',*,*,#385,.F.);
#1491=ORIENTED_EDGE('',*,*,#397,.F.);
#1492=CARTESIAN_POINT('',(-0.25,0.0,-30.0));
#1493=DIRECTION('',(0.0,0.0,1.0));
#1494=DIRECTION('',(1.0,0.0,0.0));
#1495=DIRECTION('',(0.0,1.0,0.0));
#1496=CARTESIAN_POINT('',(0.0,0.0,-20.4057073995657));
#1497=DIRECTION('',(0.0,-0.0,1.0));
#1498=DIRECTION('',(0.0,1.0,0.0));
#1499=DIRECTION('',(0.0,0.0,-1.0));
#1500=DIRECTION('',(0.0,0.0,-1.0));
#1501=SURFACE_STYLE_FILL_AREA(#1726);
#1502=ORIENTED_EDGE('',*,*,#271,.F.);
#1503=ORIENTED_EDGE('',*,*,#395,.F.);
#1504=ORIENTED_EDGE('',*,*,#423,.F.);
#1505=ORIENTED_EDGE('',*,*,#377,.T.);
#1506=CARTESIAN_POINT('',(0.291186927252986,0.0,-20.7399643865364));
#1507=DIRECTION('',(-1.0,0.0,0.0));
#1508=DIRECTION('',(0.0,0.0,1.0));
#1509=SURFACE_STYLE_FILL_AREA(#1727);
#1510=ORIENTED_EDGE('',*,*,#407,.T.);
#1511=ORIENTED_EDGE('',*,*,#337,.T.);
#1512=ORIENTED_EDGE('',*,*,#225,.T.);
#1513=ORIENTED_EDGE('',*,*,#183,.T.);
#1514=ORIENTED_EDGE('',*,*,#191,.T.);
#1515=ORIENTED_EDGE('',*,*,#205,.T.);
#1516=ORIENTED_EDGE('',*,*,#333,.T.);
#1517=ORIENTED_EDGE('',*,*,#367,.T.);
#1518=ORIENTED_EDGE('',*,*,#423,.T.);
#1519=ORIENTED_EDGE('',*,*,#311,.T.);
#1520=ORIENTED_EDGE('',*,*,#253,.T.);
#1521=CARTESIAN_POINT('',(0.0,0.0,-20.8));
#1522=DIRECTION('',(-0.0,-0.0,1.0));
#1523=DIRECTION('',(1.0,0.0,0.0));
#1524=DIRECTION('',(0.0,1.0,0.0));
#1525=CARTESIAN_POINT('',(0.0,0.0,0.0));
#1526=DIRECTION('',(0.0,0.0,-1.0));
#1527=DIRECTION('',(0.0,1.0,0.0));
#1528=CARTESIAN_POINT('',(0.0,0.0,-34.76684617));
#1529=DIRECTION('',(0.0,0.0,-1.0));
#1530=DIRECTION('',(-1.0,0.0,0.0));
#1531=CARTESIAN_POINT('',(0.0,0.0,-21.5783739724423));
#1532=DIRECTION('',(-0.944648353914092,-0.0,0.328084573619969));
#1533=DIRECTION('',(0.328084573619969,0.0,0.944648353914092));
#1534=CARTESIAN_POINT('',(0.0,0.0,-20.8709637112193));
#1535=DIRECTION('',(-0.442195774284071,0.0,0.896918556617774));
#1536=DIRECTION('',(0.896918556617774,-0.0,0.442195774284071));
#1537=SURFACE_STYLE_FILL_AREA(#1728);
#1538=ORIENTED_EDGE('',*,*,#363,.T.);
#1539=ORIENTED_EDGE('',*,*,#279,.F.);
#1540=ORIENTED_EDGE('',*,*,#237,.F.);
#1541=ORIENTED_EDGE('',*,*,#215,.F.);
#1542=ORIENTED_EDGE('',*,*,#191,.F.);
#1543=CARTESIAN_POINT('',(0.0521754636668867,0.0,-20.4072140041956));
#1544=DIRECTION('',(0.0,-1.0,-0.0));
#1545=DIRECTION('',(0.894321964023871,0.0,0.447423987582791));
#1546=CARTESIAN_POINT('',(0.0,0.0,-21.5783739724423));
#1547=DIRECTION('',(0.944648353914092,0.0,-0.328084573619969));
#1548=DIRECTION('',(0.328084573619969,-0.0,0.944648353914092));
#1549=SURFACE_STYLE_FILL_AREA(#1729);
#1550=ORIENTED_EDGE('',*,*,#329,.T.);
#1551=ORIENTED_EDGE('',*,*,#347,.F.);
#1552=ORIENTED_EDGE('',*,*,#231,.T.);
#1553=ORIENTED_EDGE('',*,*,#435,.T.);
#1554=CARTESIAN_POINT('',(0.0,0.0,-0.150000000000002));
#1555=DIRECTION('',(0.0,-0.0,-1.0));
#1556=DIRECTION('',(0.0,1.0,0.0));
#1557=DIRECTION('',(-8.65927457071934E-017,0.707106781186546,-0.707106781186549));
#1558=DIRECTION('',(0.0,1.0,0.0));
#1559=DIRECTION('',(0.0,0.0,-1.0));
#1560=SURFACE_STYLE_FILL_AREA(#1730);
#1561=ORIENTED_EDGE('',*,*,#259,.T.);
#1562=ORIENTED_EDGE('',*,*,#171,.F.);
#1563=ORIENTED_EDGE('',*,*,#381,.T.);
#1564=ORIENTED_EDGE('',*,*,#437,.T.);
#1565=CARTESIAN_POINT('',(0.0,0.0,-25.15));
#1566=DIRECTION('',(-0.0,-0.0,1.0));
#1567=DIRECTION('',(0.0,1.0,0.0));
#1568=SURFACE_STYLE_FILL_AREA(#1731);
#1569=ORIENTED_EDGE('',*,*,#193,.F.);
#1570=ORIENTED_EDGE('',*,*,#385,.T.);
#1571=ORIENTED_EDGE('',*,*,#235,.F.);
#1572=ORIENTED_EDGE('',*,*,#309,.F.);
#1573=CARTESIAN_POINT('',(0.0,0.0,-32.383423085));
#1574=DIRECTION('',(-0.0,-0.0,1.0));
#1575=DIRECTION('',(-1.0,0.0,0.0));
#1576=SURFACE_STYLE_FILL_AREA(#1732);
#1577=ORIENTED_EDGE('',*,*,#413,.F.);
#1578=ORIENTED_EDGE('',*,*,#187,.F.);
#1579=ORIENTED_EDGE('',*,*,#309,.T.);
#1580=CARTESIAN_POINT('',(0.0,0.0,-34.883423085));
#1581=DIRECTION('',(-0.0,-0.0,1.0));
#1582=DIRECTION('',(-1.0,0.0,0.0));
#1583=CARTESIAN_POINT('',(0.0,0.0,-0.300000000000001));
#1584=DIRECTION('',(0.0,0.0,-1.0));
#1585=DIRECTION('',(0.0,1.0,0.0));
#1586=SURFACE_STYLE_FILL_AREA(#1733);
#1587=SURFACE_STYLE_FILL_AREA(#1734);
#1588=ORIENTED_EDGE('',*,*,#273,.F.);
#1589=ORIENTED_EDGE('',*,*,#431,.T.);
#1590=ORIENTED_EDGE('',*,*,#213,.F.);
#1591=ORIENTED_EDGE('',*,*,#389,.F.);
#1592=ORIENTED_EDGE('',*,*,#399,.F.);
#1593=ORIENTED_EDGE('',*,*,#199,.T.);
#1594=ORIENTED_EDGE('',*,*,#323,.T.);
#1595=ORIENTED_EDGE('',*,*,#271,.T.);
#1596=ORIENTED_EDGE('',*,*,#169,.T.);
#1597=ORIENTED_EDGE('',*,*,#239,.T.);
#1598=ORIENTED_EDGE('',*,*,#291,.T.);
#1599=ORIENTED_EDGE('',*,*,#237,.T.);
#1600=CARTESIAN_POINT('',(0.0,0.0,-11.8));
#1601=DIRECTION('',(-0.0,-0.0,1.0));
#1602=DIRECTION('',(0.0,1.0,0.0));
#1603=DIRECTION('',(-0.0,-0.0,1.0));
#1604=DIRECTION('',(0.0,1.0,0.0));
#1605=CARTESIAN_POINT('',(0.0,0.0,-34.76684617));
#1606=DIRECTION('',(0.0,0.0,-1.0));
#1607=DIRECTION('',(-1.0,0.0,0.0));
#1608=SURFACE_STYLE_FILL_AREA(#1735);
#1609=ORIENTED_EDGE('',*,*,#403,.F.);
#1610=ORIENTED_EDGE('',*,*,#247,.T.);
#1611=ORIENTED_EDGE('',*,*,#261,.T.);
#1612=CARTESIAN_POINT('',(0.0,0.0,-11.8));
#1613=DIRECTION('',(-0.0,-0.0,1.0));
#1614=DIRECTION('',(0.0,1.0,0.0));
#1615=SURFACE_STYLE_FILL_AREA(#1736);
#1616=ORIENTED_EDGE('',*,*,#201,.T.);
#1617=ORIENTED_EDGE('',*,*,#203,.F.);
#1618=ORIENTED_EDGE('',*,*,#357,.T.);
#1619=ORIENTED_EDGE('',*,*,#171,.T.);
#1620=CARTESIAN_POINT('',(0.0,0.0,-28.5));
#1621=DIRECTION('',(-0.0,-0.0,1.0));
#1622=DIRECTION('',(0.0,1.0,0.0));
#1623=DIRECTION('',(0.0,1.0,0.0));
#1624=SURFACE_STYLE_FILL_AREA(#1737);
#1625=ORIENTED_EDGE('',*,*,#323,.F.);
#1626=ORIENTED_EDGE('',*,*,#331,.F.);
#1627=ORIENTED_EDGE('',*,*,#311,.F.);
#1628=ORIENTED_EDGE('',*,*,#395,.T.);
#1629=CARTESIAN_POINT('',(0.0967010423452768,0.0,-21.2999442996743));
#1630=DIRECTION('',(0.944648353914092,0.0,-0.328084573619969));
#1631=DIRECTION('',(-0.328084573619969,0.0,-0.944648353914092));
#1632=DIRECTION('',(3.19659722668462E-017,-0.261030592949893,0.965330528650279));
#1633=CARTESIAN_POINT('',(0.0,0.0,-30.0));
#1634=DIRECTION('',(0.0,0.0,-1.0));
#1635=DIRECTION('',(-1.0,0.0,0.0));
#1636=CARTESIAN_POINT('',(0.0,0.0,-23.3));
#1637=DIRECTION('',(0.0,0.0,-1.0));
#1638=DIRECTION('',(0.0,1.0,0.0));
#1639=SURFACE_STYLE_FILL_AREA(#1738);
#1640=ORIENTED_EDGE('',*,*,#261,.F.);
#1641=ORIENTED_EDGE('',*,*,#267,.F.);
#1642=ORIENTED_EDGE('',*,*,#407,.F.);
#1643=ORIENTED_EDGE('',*,*,#295,.T.);
#1644=ORIENTED_EDGE('',*,*,#315,.F.);
#1645=CARTESIAN_POINT('',(0.191042345276873,0.0,-20.7767766558089));
#1646=DIRECTION('',(-0.442195774284071,0.0,0.896918556617774));
#1647=DIRECTION('',(0.896918556617774,0.0,0.442195774284071));
#1648=SURFACE_STYLE_FILL_AREA(#1739);
#1649=ORIENTED_EDGE('',*,*,#363,.F.);
#1650=ORIENTED_EDGE('',*,*,#183,.F.);
#1651=ORIENTED_EDGE('',*,*,#227,.T.);
#1652=ORIENTED_EDGE('',*,*,#365,.F.);
#1653=CARTESIAN_POINT('',(0.0521754636668867,0.0,-20.4072140041956));
#1654=DIRECTION('',(0.0,-1.0,-0.0));
#1655=DIRECTION('',(0.894321964023871,0.0,0.447423987582791));
#1656=DIRECTION('',(0.0,1.0,0.0));
#1657=CARTESIAN_POINT('',(0.0,0.0,-30.0));
#1658=DIRECTION('',(0.0,0.0,-1.0));
#1659=DIRECTION('',(-1.0,0.0,0.0));
#1660=DIRECTION('',(0.0,0.0,-1.0));
#1661=SURFACE_STYLE_FILL_AREA(#1740);
#1662=ORIENTED_EDGE('',*,*,#239,.F.);
#1663=ORIENTED_EDGE('',*,*,#425,.F.);
#1664=ORIENTED_EDGE('',*,*,#333,.F.);
#1665=ORIENTED_EDGE('',*,*,#429,.T.);
#1666=CARTESIAN_POINT('',(0.445736688382193,0.0,-21.0633885667752));
#1667=DIRECTION('',(1.0,0.0,0.0));
#1668=DIRECTION('',(0.0,0.0,-1.0));
#1669=DIRECTION('',(0.0,0.0,-1.0));
#1670=SURFACE_STYLE_FILL_AREA(#1741);
#1671=ORIENTED_EDGE('',*,*,#329,.F.);
#1672=ORIENTED_EDGE('',*,*,#299,.T.);
#1673=ORIENTED_EDGE('',*,*,#231,.F.);
#1674=ORIENTED_EDGE('',*,*,#431,.F.);
#1675=CARTESIAN_POINT('',(0.0,0.0,-0.150000000000002));
#1676=DIRECTION('',(0.0,-0.0,-1.0));
#1677=DIRECTION('',(0.0,1.0,0.0));
#1678=CARTESIAN_POINT('',(0.0,0.0,-20.8709637112193));
#1679=DIRECTION('',(0.442195774284071,0.0,-0.896918556617774));
#1680=DIRECTION('',(0.896918556617774,0.0,0.442195774284071));
#1681=SURFACE_STYLE_FILL_AREA(#1742);
#1682=ORIENTED_EDGE('',*,*,#413,.T.);
#1683=ORIENTED_EDGE('',*,*,#369,.T.);
#1684=ORIENTED_EDGE('',*,*,#187,.T.);
#1685=CARTESIAN_POINT('',(0.0,0.0,-34.883423085));
#1686=DIRECTION('',(-0.0,-0.0,1.0));
#1687=DIRECTION('',(-1.0,0.0,0.0));
#1688=DIRECTION('',(0.906307786396183,1.10987027373946E-016,0.422618263114184));
#1689=SURFACE_STYLE_FILL_AREA(#1743);
#1690=ORIENTED_EDGE('',*,*,#299,.F.);
#1691=ORIENTED_EDGE('',*,*,#435,.F.);
#1692=CARTESIAN_POINT('',(0.0,0.6,0.0));
#1693=DIRECTION('',(-0.0,0.0,1.0));
#1694=DIRECTION('',(0.0,-1.0,0.0));
#1695=DIRECTION('',(-0.0,-0.0,1.0));
#1696=DIRECTION('',(0.0,1.0,0.0));
#1697=DIRECTION('',(0.0,1.0,0.0));
#1698=CARTESIAN_POINT('',(0.0,0.0,-0.300000000000001));
#1699=DIRECTION('',(0.0,0.0,-1.0));
#1700=DIRECTION('',(0.0,1.0,0.0));
#1701=CARTESIAN_POINT('',(0.0,0.0,0.0));
#1702=DIRECTION('',(0.0,0.0,-1.0));
#1703=DIRECTION('',(0.0,1.0,0.0));
#1704=CARTESIAN_POINT('',(0.0,0.0,-23.3));
#1705=DIRECTION('',(0.0,0.0,-1.0));
#1706=DIRECTION('',(0.0,1.0,0.0));
#1707=SURFACE_STYLE_FILL_AREA(#1744);
#1708=ORIENTED_EDGE('',*,*,#259,.F.);
#1709=ORIENTED_EDGE('',*,*,#389,.T.);
#1710=ORIENTED_EDGE('',*,*,#381,.F.);
#1711=ORIENTED_EDGE('',*,*,#189,.F.);
#1712=CARTESIAN_POINT('',(0.0,0.0,-25.15));
#1713=DIRECTION('',(-0.0,-0.0,1.0));
#1714=DIRECTION('',(0.0,1.0,0.0));
#1715=FILL_AREA_STYLE('',(#1745));
#1716=FILL_AREA_STYLE('',(#1746));
#1717=FILL_AREA_STYLE('',(#1747));
#1718=FILL_AREA_STYLE('',(#1748));
#1719=FILL_AREA_STYLE('',(#1749));
#1720=FILL_AREA_STYLE('',(#1750));
#1721=FILL_AREA_STYLE('',(#1751));
#1722=FILL_AREA_STYLE('',(#1752));
#1723=FILL_AREA_STYLE('',(#1753));
#1724=FILL_AREA_STYLE('',(#1754));
#1725=FILL_AREA_STYLE('',(#1755));
#1726=FILL_AREA_STYLE('',(#1756));
#1727=FILL_AREA_STYLE('',(#1757));
#1728=FILL_AREA_STYLE('',(#1758));
#1729=FILL_AREA_STYLE('',(#1759));
#1730=FILL_AREA_STYLE('',(#1760));
#1731=FILL_AREA_STYLE('',(#1761));
#1732=FILL_AREA_STYLE('',(#1762));
#1733=FILL_AREA_STYLE('',(#1763));
#1734=FILL_AREA_STYLE('',(#1764));
#1735=FILL_AREA_STYLE('',(#1765));
#1736=FILL_AREA_STYLE('',(#1766));
#1737=FILL_AREA_STYLE('',(#1767));
#1738=FILL_AREA_STYLE('',(#1768));
#1739=FILL_AREA_STYLE('',(#1769));
#1740=FILL_AREA_STYLE('',(#1770));
#1741=FILL_AREA_STYLE('',(#1771));
#1742=FILL_AREA_STYLE('',(#1772));
#1743=FILL_AREA_STYLE('',(#1773));
#1744=FILL_AREA_STYLE('',(#1774));
#1745=FILL_AREA_STYLE_COLOUR('',#1775);
#1746=FILL_AREA_STYLE_COLOUR('',#1776);
#1747=FILL_AREA_STYLE_COLOUR('',#1777);
#1748=FILL_AREA_STYLE_COLOUR('',#1778);
#1749=FILL_AREA_STYLE_COLOUR('',#1779);
#1750=FILL_AREA_STYLE_COLOUR('',#1780);
#1751=FILL_AREA_STYLE_COLOUR('',#1781);
#1752=FILL_AREA_STYLE_COLOUR('',#1782);
#1753=FILL_AREA_STYLE_COLOUR('',#1783);
#1754=FILL_AREA_STYLE_COLOUR('',#1784);
#1755=FILL_AREA_STYLE_COLOUR('',#1785);
#1756=FILL_AREA_STYLE_COLOUR('',#1786);
#1757=FILL_AREA_STYLE_COLOUR('',#1787);
#1758=FILL_AREA_STYLE_COLOUR('',#1788);
#1759=FILL_AREA_STYLE_COLOUR('',#1789);
#1760=FILL_AREA_STYLE_COLOUR('',#1790);
#1761=FILL_AREA_STYLE_COLOUR('',#1791);
#1762=FILL_AREA_STYLE_COLOUR('',#1792);
#1763=FILL_AREA_STYLE_COLOUR('',#1793);
#1764=FILL_AREA_STYLE_COLOUR('',#1794);
#1765=FILL_AREA_STYLE_COLOUR('',#1795);
#1766=FILL_AREA_STYLE_COLOUR('',#1796);
#1767=FILL_AREA_STYLE_COLOUR('',#1797);
#1768=FILL_AREA_STYLE_COLOUR('',#1798);
#1769=FILL_AREA_STYLE_COLOUR('',#1799);
#1770=FILL_AREA_STYLE_COLOUR('',#1800);
#1771=FILL_AREA_STYLE_COLOUR('',#1801);
#1772=FILL_AREA_STYLE_COLOUR('',#1802);
#1773=FILL_AREA_STYLE_COLOUR('',#1803);
#1774=FILL_AREA_STYLE_COLOUR('',#1804);
#1775=COLOUR_RGB('',0.800000011920929,0.800000011920929,0.800000011920929);
#1776=COLOUR_RGB('',0.200000002980232,0.600000023841858,1.0);
#1777=COLOUR_RGB('',0.200000002980232,0.600000023841858,1.0);
#1778=COLOUR_RGB('',0.498039215803146,0.498039215803146,0.498039215803146);
#1779=COLOUR_RGB('',0.200000002980232,0.600000023841858,1.0);
#1780=COLOUR_RGB('',0.498039215803146,0.498039215803146,0.498039215803146);
#1781=COLOUR_RGB('',0.498039215803146,0.498039215803146,0.498039215803146);
#1782=COLOUR_RGB('',0.200000002980232,0.600000023841858,1.0);
#1783=COLOUR_RGB('',0.800000011920929,0.800000011920929,0.800000011920929);
#1784=COLOUR_RGB('',0.200000002980232,0.600000023841858,1.0);
#1785=COLOUR_RGB('',0.800000011920929,0.800000011920929,0.800000011920929);
#1786=COLOUR_RGB('',0.200000002980232,0.600000023841858,1.0);
#1787=COLOUR_RGB('',0.200000002980232,0.600000023841858,1.0);
#1788=COLOUR_RGB('',0.200000002980232,0.600000023841858,1.0);
#1789=COLOUR_RGB('',0.498039215803146,0.498039215803146,0.498039215803146);
#1790=COLOUR_RGB('',0.498039215803146,0.498039215803146,0.498039215803146);
#1791=COLOUR_RGB('',0.800000011920929,0.800000011920929,0.800000011920929);
#1792=COLOUR_RGB('',0.800000011920929,0.800000011920929,0.800000011920929);
#1793=COLOUR_RGB('',0.498039215803146,0.498039215803146,0.498039215803146);
#1794=COLOUR_RGB('',0.498039215803146,0.498039215803146,0.498039215803146);
#1795=COLOUR_RGB('',0.498039215803146,0.498039215803146,0.498039215803146);
#1796=COLOUR_RGB('',0.498039215803146,0.498039215803146,0.498039215803146);
#1797=COLOUR_RGB('',0.200000002980232,0.600000023841858,1.0);
#1798=COLOUR_RGB('',0.200000002980232,0.600000023841858,1.0);
#1799=COLOUR_RGB('',0.200000002980232,0.600000023841858,1.0);
#1800=COLOUR_RGB('',0.200000002980232,0.600000023841858,1.0);
#1801=COLOUR_RGB('',0.498039215803146,0.498039215803146,0.498039215803146);
#1802=COLOUR_RGB('',0.800000011920929,0.800000011920929,0.800000011920929);
#1803=COLOUR_RGB('',0.498039215803146,0.498039215803146,0.498039215803146);
#1804=COLOUR_RGB('',0.498039215803146,0.498039215803146,0.498039215803146);
#1805=AXIS2_PLACEMENT_3D('CIP',#1806,#1807,#1808);
#1806=CARTESIAN_POINT('',(0.0,0.0,-35.0));
#1807=DIRECTION('',(0.0,0.0,1.0));
#1808=DIRECTION('',(1.0,0.0,0.0));
#1809=AXIS2_PLACEMENT_3D('CRP',#1810,#1811,#1812);
#1810=CARTESIAN_POINT('',(-0.5,0.0,-34.76684617));
#1811=DIRECTION('',(0.0,0.0,1.0));
#1812=DIRECTION('',(1.0,0.0,0.0));
#1813=AXIS2_PLACEMENT_3D('MCS',#1814,#1815,#1816);
#1814=CARTESIAN_POINT('',(0.0,0.0,-23.3));
#1815=DIRECTION('',(0.0,0.0,1.0));
#1816=DIRECTION('',(1.0,0.0,0.0));
#1817=AXIS2_PLACEMENT_3D('PCS',#1818,#1819,#1820);
#1818=CARTESIAN_POINT('',(0.0,0.0,0.0));
#1819=DIRECTION('',(0.0,0.0,1.0));
#1820=DIRECTION('',(1.0,0.0,0.0));
#1821=CONSTRUCTIVE_GEOMETRY_REPRESENTATION_RELATIONSHIP('coordinate systems',$,#154,#1822);
#1822=CONSTRUCTIVE_GEOMETRY_REPRESENTATION('coordinate systems',(#1805,#1809,#1813,#1817),#10);
ENDSEC;
END-ISO-10303-21;
