ISO-10303-21;
HEADER;
FILE_DESCRIPTION(('no description'),'unknown implementation level');
FILE_NAME('solidsRKG0Jj1li2xoCcrbsABUSXsaOs_1.STP','  ',('CIMSOURCE GmbH'),('CADClick - KiM GmbH - www.kimweb.de'),'unknown preprocess','ACIS','unknown authorization');
FILE_SCHEMA(('automotive_design'));
ENDSEC;
DATA;
#1=MECHANICAL_DESIGN_GEOMETRIC_PRESENTATION_REPRESENTATION(' ',(#14,#15,#16,#17,#18,#19,#20,#21,#22,#23,#24,#25,#26,#27,#28,#29,#30,#31,#32,#33,#34,#35,#36,#37,#38,#39,#40,#41,#42,#43,#44,#45,#46,#47,#48,#49,#50,#51,#52,#53,#54,#55,#56,#57,#58,#59,#60,#61,#62,#63,#64,#65,#66,#67,#68,#69,#70,#71,#72,#73,#74,#75,#76,#77,#78,#79,#80,#81,#82,#83,#84,#85,#86,#87,#88,#89,#90,#91,#92,#93,#94,#95,#96,#97,#98,#99,#100,#101,#102,#103,#104,#105,#106,#107,#108,#109,#110,#111,#112,#113,#114,#115,#116,#117,#118,#119,#120,#121,#122,#123,#124,#125,#126,#127,#128,#129,#130,#131,#132,#133,#134,#135,#136,#137,#138,#139,#140,#141,#142,#143,#144,#145,#146,#147,#148,#149),#10);
#2=PRODUCT_DEFINITION_CONTEXT('',#150,'design');
#3=APPLICATION_PROTOCOL_DEFINITION('INTERNATIONAL STANDARD','automotive_design',1994,#150);
#4=PRODUCT_CATEGORY_RELATIONSHIP('NONE','NONE',#151,#152);
#5=SHAPE_DEFINITION_REPRESENTATION(#153,#154);
#6=PRODUCT_DEFINITION_CONTEXT('',#155,'design');
#7=APPLICATION_PROTOCOL_DEFINITION('INTERNATIONAL STANDARD','automotive_design',1994,#155);
#8=PRODUCT_CATEGORY_RELATIONSHIP('NONE','NONE',#156,#157);
#9=SHAPE_DEFINITION_REPRESENTATION(#158,#159);
#10= (GEOMETRIC_REPRESENTATION_CONTEXT(3)GLOBAL_UNCERTAINTY_ASSIGNED_CONTEXT((#162))GLOBAL_UNIT_ASSIGNED_CONTEXT((#164,#165,#166))REPRESENTATION_CONTEXT('NONE','WORKSPACE'));
#14=STYLED_ITEM('',(#168),#169);
#15=STYLED_ITEM('',(#170),#171);
#16=STYLED_ITEM('',(#172),#173);
#17=STYLED_ITEM('',(#174),#175);
#18=STYLED_ITEM('',(#176),#177);
#19=STYLED_ITEM('',(#178),#179);
#20=STYLED_ITEM('',(#180),#181);
#21=STYLED_ITEM('',(#182),#183);
#22=STYLED_ITEM('',(#184),#185);
#23=STYLED_ITEM('',(#186),#187);
#24=STYLED_ITEM('',(#188),#189);
#25=STYLED_ITEM('',(#190),#191);
#26=STYLED_ITEM('',(#192),#193);
#27=STYLED_ITEM('',(#194),#195);
#28=STYLED_ITEM('',(#196),#197);
#29=STYLED_ITEM('',(#198),#199);
#30=STYLED_ITEM('',(#200),#201);
#31=STYLED_ITEM('',(#202),#203);
#32=STYLED_ITEM('',(#204),#205);
#33=STYLED_ITEM('',(#206),#207);
#34=STYLED_ITEM('',(#208),#209);
#35=STYLED_ITEM('',(#210),#211);
#36=STYLED_ITEM('',(#212),#213);
#37=STYLED_ITEM('',(#214),#215);
#38=STYLED_ITEM('',(#216),#217);
#39=STYLED_ITEM('',(#218),#219);
#40=STYLED_ITEM('',(#220),#221);
#41=STYLED_ITEM('',(#222),#223);
#42=STYLED_ITEM('',(#224),#225);
#43=STYLED_ITEM('',(#226),#227);
#44=STYLED_ITEM('',(#228),#229);
#45=STYLED_ITEM('',(#230),#231);
#46=STYLED_ITEM('',(#232),#233);
#47=STYLED_ITEM('',(#234),#235);
#48=STYLED_ITEM('',(#236),#237);
#49=STYLED_ITEM('',(#238),#239);
#50=STYLED_ITEM('',(#240),#241);
#51=STYLED_ITEM('',(#242),#243);
#52=STYLED_ITEM('',(#244),#245);
#53=STYLED_ITEM('',(#246),#247);
#54=STYLED_ITEM('',(#248),#249);
#55=STYLED_ITEM('',(#250),#251);
#56=STYLED_ITEM('',(#252),#253);
#57=STYLED_ITEM('',(#254),#255);
#58=STYLED_ITEM('',(#256),#257);
#59=STYLED_ITEM('',(#258),#259);
#60=STYLED_ITEM('',(#260),#261);
#61=STYLED_ITEM('',(#262),#263);
#62=STYLED_ITEM('',(#264),#265);
#63=STYLED_ITEM('',(#266),#267);
#64=STYLED_ITEM('',(#268),#269);
#65=STYLED_ITEM('',(#270),#271);
#66=STYLED_ITEM('',(#272),#273);
#67=STYLED_ITEM('',(#274),#275);
#68=STYLED_ITEM('',(#276),#277);
#69=STYLED_ITEM('',(#278),#279);
#70=STYLED_ITEM('',(#280),#281);
#71=STYLED_ITEM('',(#282),#283);
#72=STYLED_ITEM('',(#284),#285);
#73=STYLED_ITEM('',(#286),#287);
#74=STYLED_ITEM('',(#288),#289);
#75=STYLED_ITEM('',(#290),#291);
#76=STYLED_ITEM('',(#292),#293);
#77=STYLED_ITEM('',(#294),#295);
#78=STYLED_ITEM('',(#296),#297);
#79=STYLED_ITEM('',(#298),#299);
#80=STYLED_ITEM('',(#300),#301);
#81=STYLED_ITEM('',(#302),#303);
#82=STYLED_ITEM('',(#304),#305);
#83=STYLED_ITEM('',(#306),#307);
#84=STYLED_ITEM('',(#308),#309);
#85=STYLED_ITEM('',(#310),#311);
#86=STYLED_ITEM('',(#312),#313);
#87=STYLED_ITEM('',(#314),#315);
#88=STYLED_ITEM('',(#316),#317);
#89=STYLED_ITEM('',(#318),#319);
#90=STYLED_ITEM('',(#320),#321);
#91=STYLED_ITEM('',(#322),#323);
#92=STYLED_ITEM('',(#324),#325);
#93=STYLED_ITEM('',(#326),#327);
#94=STYLED_ITEM('',(#328),#329);
#95=STYLED_ITEM('',(#330),#331);
#96=STYLED_ITEM('',(#332),#333);
#97=STYLED_ITEM('',(#334),#335);
#98=STYLED_ITEM('',(#336),#337);
#99=STYLED_ITEM('',(#338),#339);
#100=STYLED_ITEM('',(#340),#341);
#101=STYLED_ITEM('',(#342),#343);
#102=STYLED_ITEM('',(#344),#345);
#103=STYLED_ITEM('',(#346),#347);
#104=STYLED_ITEM('',(#348),#349);
#105=STYLED_ITEM('',(#350),#351);
#106=STYLED_ITEM('',(#352),#353);
#107=STYLED_ITEM('',(#354),#355);
#108=STYLED_ITEM('',(#356),#357);
#109=STYLED_ITEM('',(#358),#359);
#110=STYLED_ITEM('',(#360),#361);
#111=STYLED_ITEM('',(#362),#363);
#112=STYLED_ITEM('',(#364),#365);
#113=STYLED_ITEM('',(#366),#367);
#114=STYLED_ITEM('',(#368),#369);
#115=STYLED_ITEM('',(#370),#371);
#116=STYLED_ITEM('',(#372),#373);
#117=STYLED_ITEM('',(#374),#375);
#118=STYLED_ITEM('',(#376),#377);
#119=STYLED_ITEM('',(#378),#379);
#120=STYLED_ITEM('',(#380),#381);
#121=STYLED_ITEM('',(#382),#383);
#122=STYLED_ITEM('',(#384),#385);
#123=STYLED_ITEM('',(#386),#387);
#124=STYLED_ITEM('',(#388),#389);
#125=STYLED_ITEM('',(#390),#391);
#126=STYLED_ITEM('',(#392),#393);
#127=STYLED_ITEM('',(#394),#395);
#128=STYLED_ITEM('',(#396),#397);
#129=STYLED_ITEM('',(#398),#399);
#130=STYLED_ITEM('',(#400),#401);
#131=STYLED_ITEM('',(#402),#403);
#132=STYLED_ITEM('',(#404),#405);
#133=STYLED_ITEM('',(#406),#407);
#134=STYLED_ITEM('',(#408),#409);
#135=STYLED_ITEM('',(#410),#411);
#136=STYLED_ITEM('',(#412),#413);
#137=STYLED_ITEM('',(#414),#415);
#138=STYLED_ITEM('',(#416),#417);
#139=STYLED_ITEM('',(#418),#419);
#140=STYLED_ITEM('',(#420),#421);
#141=STYLED_ITEM('',(#422),#423);
#142=STYLED_ITEM('',(#424),#425);
#143=STYLED_ITEM('',(#426),#427);
#144=STYLED_ITEM('',(#428),#429);
#145=STYLED_ITEM('',(#430),#431);
#146=STYLED_ITEM('',(#432),#433);
#147=STYLED_ITEM('',(#434),#435);
#148=STYLED_ITEM('',(#436),#437);
#149=STYLED_ITEM('',(#438),#439);
#150=APPLICATION_CONTEXT(' ');
#151=PRODUCT_CATEGORY('part','NONE');
#152=PRODUCT_RELATED_PRODUCT_CATEGORY('detail',' ',(#440));
#153=PRODUCT_DEFINITION_SHAPE('NONE','NONE',#441);
#154=ADVANCED_BREP_SHAPE_REPRESENTATION('NOCUT',(#185,#442),#10);
#155=APPLICATION_CONTEXT(' ');
#156=PRODUCT_CATEGORY('part','NONE');
#157=PRODUCT_RELATED_PRODUCT_CATEGORY('detail',' ',(#443));
#158=PRODUCT_DEFINITION_SHAPE('NONE','NONE',#444);
#159=ADVANCED_BREP_SHAPE_REPRESENTATION('CUT',(#287,#445),#10);
#162=UNCERTAINTY_MEASURE_WITH_UNIT(LENGTH_MEASURE(1.0E-006),#164,'','');
#164= (CONVERSION_BASED_UNIT('MILLIMETRE',#448)LENGTH_UNIT()NAMED_UNIT(#451));
#165= (NAMED_UNIT(#453)PLANE_ANGLE_UNIT()SI_UNIT($,.RADIAN.));
#166= (NAMED_UNIT(#453)SOLID_ANGLE_UNIT()SI_UNIT($,.STERADIAN.));
#168=PRESENTATION_STYLE_ASSIGNMENT((#459));
#169=EDGE_CURVE('',#173,#323,#460,.T.);
#170=PRESENTATION_STYLE_ASSIGNMENT((#461));
#171=EDGE_CURVE('',#363,#323,#462,.T.);
#172=PRESENTATION_STYLE_ASSIGNMENT((#463));
#173=VERTEX_POINT('',#464);
#174=PRESENTATION_STYLE_ASSIGNMENT((#465));
#175=EDGE_CURVE('',#425,#305,#466,.T.);
#176=PRESENTATION_STYLE_ASSIGNMENT((#467));
#177=EDGE_CURVE('',#335,#225,#468,.T.);
#178=PRESENTATION_STYLE_ASSIGNMENT((#469));
#179=ADVANCED_FACE('',(#470),#471,.F.);
#180=PRESENTATION_STYLE_ASSIGNMENT((#472));
#181=EDGE_CURVE('',#305,#425,#473,.T.);
#182=PRESENTATION_STYLE_ASSIGNMENT((#474));
#183=EDGE_CURVE('',#385,#427,#475,.T.);
#184=PRESENTATION_STYLE_ASSIGNMENT((#476));
#185=MANIFOLD_SOLID_BREP('NOCUT',#477);
#186=PRESENTATION_STYLE_ASSIGNMENT((#478));
#187=VERTEX_POINT('',#479);
#188=PRESENTATION_STYLE_ASSIGNMENT((#480));
#189=EDGE_CURVE('',#325,#233,#481,.T.);
#190=PRESENTATION_STYLE_ASSIGNMENT((#482));
#191=ADVANCED_FACE('',(#483),#484,.T.);
#192=PRESENTATION_STYLE_ASSIGNMENT((#485));
#193=ADVANCED_FACE('',(#486),#487,.T.);
#194=PRESENTATION_STYLE_ASSIGNMENT((#488));
#195=EDGE_CURVE('',#225,#349,#489,.T.);
#196=PRESENTATION_STYLE_ASSIGNMENT((#490));
#197=ADVANCED_FACE('',(#491),#492,.T.);
#198=PRESENTATION_STYLE_ASSIGNMENT((#493));
#199=VERTEX_POINT('',#494);
#200=PRESENTATION_STYLE_ASSIGNMENT((#495));
#201=ADVANCED_FACE('',(#496),#497,.F.);
#202=PRESENTATION_STYLE_ASSIGNMENT((#498));
#203=EDGE_CURVE('',#283,#427,#499,.T.);
#204=PRESENTATION_STYLE_ASSIGNMENT((#500));
#205=VERTEX_POINT('',#501);
#206=PRESENTATION_STYLE_ASSIGNMENT((#502));
#207=EDGE_CURVE('',#299,#283,#503,.T.);
#208=PRESENTATION_STYLE_ASSIGNMENT((#504));
#209=VERTEX_POINT('',#505);
#210=PRESENTATION_STYLE_ASSIGNMENT((#506));
#211=EDGE_CURVE('',#421,#297,#507,.T.);
#212=PRESENTATION_STYLE_ASSIGNMENT((#508));
#213=EDGE_CURVE('',#377,#205,#509,.T.);
#214=PRESENTATION_STYLE_ASSIGNMENT((#510));
#215=EDGE_CURVE('',#187,#299,#511,.T.);
#216=PRESENTATION_STYLE_ASSIGNMENT((#512));
#217=EDGE_CURVE('',#223,#173,#513,.T.);
#218=PRESENTATION_STYLE_ASSIGNMENT((#514));
#219=EDGE_CURVE('',#223,#221,#515,.T.);
#220=PRESENTATION_STYLE_ASSIGNMENT((#516));
#221=VERTEX_POINT('',#517);
#222=PRESENTATION_STYLE_ASSIGNMENT((#518));
#223=VERTEX_POINT('',#519);
#224=PRESENTATION_STYLE_ASSIGNMENT((#520));
#225=VERTEX_POINT('',#521);
#226=PRESENTATION_STYLE_ASSIGNMENT((#522));
#227=ADVANCED_FACE('',(#523),#524,.F.);
#228=PRESENTATION_STYLE_ASSIGNMENT((#525));
#229=EDGE_CURVE('',#289,#199,#526,.T.);
#230=PRESENTATION_STYLE_ASSIGNMENT((#527));
#231=EDGE_CURVE('',#347,#283,#528,.T.);
#232=PRESENTATION_STYLE_ASSIGNMENT((#529));
#233=VERTEX_POINT('',#530);
#234=PRESENTATION_STYLE_ASSIGNMENT((#531));
#235=EDGE_CURVE('',#249,#205,#532,.T.);
#236=PRESENTATION_STYLE_ASSIGNMENT((#533));
#237=ADVANCED_FACE('',(#534),#535,.T.);
#238=PRESENTATION_STYLE_ASSIGNMENT((#536));
#239=EDGE_CURVE('',#249,#357,#537,.T.);
#240=PRESENTATION_STYLE_ASSIGNMENT((#538));
#241=EDGE_CURVE('',#381,#343,#539,.T.);
#242=PRESENTATION_STYLE_ASSIGNMENT((#540));
#243=VERTEX_POINT('',#541);
#244=PRESENTATION_STYLE_ASSIGNMENT((#542));
#245=ADVANCED_FACE('',(#543),#544,.T.);
#246=PRESENTATION_STYLE_ASSIGNMENT((#545));
#247=EDGE_CURVE('',#421,#333,#546,.T.);
#248=PRESENTATION_STYLE_ASSIGNMENT((#547));
#249=VERTEX_POINT('',#548);
#250=PRESENTATION_STYLE_ASSIGNMENT((#549));
#251=VERTEX_POINT('',#550);
#252=PRESENTATION_STYLE_ASSIGNMENT((#551));
#253=VERTEX_POINT('',#552);
#254=PRESENTATION_STYLE_ASSIGNMENT((#553));
#255=ADVANCED_FACE('',(#554),#555,.F.);
#256=PRESENTATION_STYLE_ASSIGNMENT((#556));
#257=EDGE_CURVE('',#253,#377,#557,.T.);
#258=PRESENTATION_STYLE_ASSIGNMENT((#558));
#259=EDGE_CURVE('',#289,#305,#559,.T.);
#260=PRESENTATION_STYLE_ASSIGNMENT((#560));
#261=EDGE_CURVE('',#363,#249,#561,.T.);
#262=PRESENTATION_STYLE_ASSIGNMENT((#562));
#263=EDGE_CURVE('',#333,#209,#563,.T.);
#264=PRESENTATION_STYLE_ASSIGNMENT((#564));
#265=EDGE_CURVE('',#251,#345,#565,.T.);
#266=PRESENTATION_STYLE_ASSIGNMENT((#566));
#267=EDGE_CURVE('',#323,#221,#567,.T.);
#268=PRESENTATION_STYLE_ASSIGNMENT((#568));
#269=EDGE_CURVE('',#349,#339,#569,.T.);
#270=PRESENTATION_STYLE_ASSIGNMENT((#570));
#271=EDGE_CURVE('',#253,#407,#571,.T.);
#272=PRESENTATION_STYLE_ASSIGNMENT((#572));
#273=EDGE_CURVE('',#199,#289,#573,.T.);
#274=PRESENTATION_STYLE_ASSIGNMENT((#574));
#275=EDGE_CURVE('',#355,#251,#575,.T.);
#276=PRESENTATION_STYLE_ASSIGNMENT((#576));
#277=EDGE_CURVE('',#427,#339,#577,.T.);
#278=PRESENTATION_STYLE_ASSIGNMENT((#578));
#279=ADVANCED_FACE('',(#579),#580,.T.);
#280=PRESENTATION_STYLE_ASSIGNMENT((#581));
#281=VERTEX_POINT('',#582);
#282=PRESENTATION_STYLE_ASSIGNMENT((#583));
#283=VERTEX_POINT('',#584);
#284=PRESENTATION_STYLE_ASSIGNMENT((#585));
#285=EDGE_CURVE('',#387,#313,#586,.T.);
#286=PRESENTATION_STYLE_ASSIGNMENT((#587));
#287=MANIFOLD_SOLID_BREP('CUT',#588);
#288=PRESENTATION_STYLE_ASSIGNMENT((#589));
#289=VERTEX_POINT('',#590);
#290=PRESENTATION_STYLE_ASSIGNMENT((#591));
#291=EDGE_CURVE('',#313,#343,#592,.T.);
#292=PRESENTATION_STYLE_ASSIGNMENT((#593));
#293=EDGE_CURVE('',#333,#317,#594,.T.);
#294=PRESENTATION_STYLE_ASSIGNMENT((#595));
#295=EDGE_CURVE('',#381,#387,#596,.T.);
#296=PRESENTATION_STYLE_ASSIGNMENT((#597));
#297=VERTEX_POINT('',#598);
#298=PRESENTATION_STYLE_ASSIGNMENT((#599));
#299=VERTEX_POINT('',#600);
#300=PRESENTATION_STYLE_ASSIGNMENT((#601));
#301=ADVANCED_FACE('',(#602),#603,.T.);
#302=PRESENTATION_STYLE_ASSIGNMENT((#604));
#303=EDGE_CURVE('',#347,#355,#605,.T.);
#304=PRESENTATION_STYLE_ASSIGNMENT((#606));
#305=VERTEX_POINT('',#607);
#306=PRESENTATION_STYLE_ASSIGNMENT((#608));
#307=EDGE_CURVE('',#281,#243,#609,.T.);
#308=PRESENTATION_STYLE_ASSIGNMENT((#610));
#309=ADVANCED_FACE('',(#611),#612,.T.);
#310=PRESENTATION_STYLE_ASSIGNMENT((#613));
#311=EDGE_CURVE('',#305,#299,#614,.T.);
#312=PRESENTATION_STYLE_ASSIGNMENT((#615));
#313=VERTEX_POINT('',#616);
#314=PRESENTATION_STYLE_ASSIGNMENT((#617));
#315=EDGE_CURVE('',#317,#209,#618,.T.);
#316=PRESENTATION_STYLE_ASSIGNMENT((#619));
#317=VERTEX_POINT('',#620);
#318=PRESENTATION_STYLE_ASSIGNMENT((#621));
#319=EDGE_CURVE('',#425,#199,#622,.T.);
#320=PRESENTATION_STYLE_ASSIGNMENT((#623));
#321=EDGE_CURVE('',#205,#425,#624,.T.);
#322=PRESENTATION_STYLE_ASSIGNMENT((#625));
#323=VERTEX_POINT('',#626);
#324=PRESENTATION_STYLE_ASSIGNMENT((#627));
#325=VERTEX_POINT('',#628);
#326=PRESENTATION_STYLE_ASSIGNMENT((#629));
#327=EDGE_CURVE('',#221,#313,#630,.T.);
#328=PRESENTATION_STYLE_ASSIGNMENT((#631));
#329=EDGE_CURVE('',#251,#381,#632,.T.);
#330=PRESENTATION_STYLE_ASSIGNMENT((#633));
#331=ADVANCED_FACE('',(#634),#635,.F.);
#332=PRESENTATION_STYLE_ASSIGNMENT((#636));
#333=VERTEX_POINT('',#637);
#334=PRESENTATION_STYLE_ASSIGNMENT((#638));
#335=VERTEX_POINT('',#639);
#336=PRESENTATION_STYLE_ASSIGNMENT((#640));
#337=ADVANCED_FACE('',(#641),#642,.T.);
#338=PRESENTATION_STYLE_ASSIGNMENT((#643));
#339=VERTEX_POINT('',#644);
#340=PRESENTATION_STYLE_ASSIGNMENT((#645));
#341=ADVANCED_FACE('',(#646),#647,.F.);
#342=PRESENTATION_STYLE_ASSIGNMENT((#648));
#343=VERTEX_POINT('',#649);
#344=PRESENTATION_STYLE_ASSIGNMENT((#650));
#345=VERTEX_POINT('',#651);
#346=PRESENTATION_STYLE_ASSIGNMENT((#652));
#347=VERTEX_POINT('',#653);
#348=PRESENTATION_STYLE_ASSIGNMENT((#654));
#349=VERTEX_POINT('',#655);
#350=PRESENTATION_STYLE_ASSIGNMENT((#656));
#351=EDGE_CURVE('',#377,#357,#657,.T.);
#352=PRESENTATION_STYLE_ASSIGNMENT((#658));
#353=ADVANCED_FACE('',(#659),#660,.F.);
#354=PRESENTATION_STYLE_ASSIGNMENT((#661));
#355=VERTEX_POINT('',#662);
#356=PRESENTATION_STYLE_ASSIGNMENT((#663));
#357=VERTEX_POINT('',#664);
#358=PRESENTATION_STYLE_ASSIGNMENT((#665));
#359=ADVANCED_FACE('',(#666),#667,.T.);
#360=PRESENTATION_STYLE_ASSIGNMENT((#668));
#361=EDGE_CURVE('',#355,#187,#669,.T.);
#362=PRESENTATION_STYLE_ASSIGNMENT((#670));
#363=VERTEX_POINT('',#671);
#364=PRESENTATION_STYLE_ASSIGNMENT((#672));
#365=EDGE_CURVE('',#297,#421,#673,.T.);
#366=PRESENTATION_STYLE_ASSIGNMENT((#674));
#367=ADVANCED_FACE('',(#675),#676,.F.);
#368=PRESENTATION_STYLE_ASSIGNMENT((#677));
#369=EDGE_CURVE('',#387,#223,#678,.T.);
#370=PRESENTATION_STYLE_ASSIGNMENT((#679));
#371=EDGE_CURVE('',#233,#363,#680,.T.);
#372=PRESENTATION_STYLE_ASSIGNMENT((#681));
#373=EDGE_CURVE('',#225,#243,#682,.T.);
#374=PRESENTATION_STYLE_ASSIGNMENT((#683));
#375=EDGE_CURVE('',#335,#233,#684,.T.);
#376=PRESENTATION_STYLE_ASSIGNMENT((#685));
#377=VERTEX_POINT('',#686);
#378=PRESENTATION_STYLE_ASSIGNMENT((#687));
#379=EDGE_CURVE('',#345,#187,#688,.T.);
#380=PRESENTATION_STYLE_ASSIGNMENT((#689));
#381=VERTEX_POINT('',#690);
#382=PRESENTATION_STYLE_ASSIGNMENT((#691));
#383=ADVANCED_FACE('',(#692),#693,.T.);
#384=PRESENTATION_STYLE_ASSIGNMENT((#694));
#385=VERTEX_POINT('',#695);
#386=PRESENTATION_STYLE_ASSIGNMENT((#696));
#387=VERTEX_POINT('',#697);
#388=PRESENTATION_STYLE_ASSIGNMENT((#698));
#389=EDGE_CURVE('',#243,#325,#699,.T.);
#390=PRESENTATION_STYLE_ASSIGNMENT((#700));
#391=ADVANCED_FACE('',(#701),#702,.T.);
#392=PRESENTATION_STYLE_ASSIGNMENT((#703));
#393=ADVANCED_FACE('',(#704),#705,.T.);
#394=PRESENTATION_STYLE_ASSIGNMENT((#706));
#395=ADVANCED_FACE('',(#707),#708,.T.);
#396=PRESENTATION_STYLE_ASSIGNMENT((#709));
#397=EDGE_CURVE('',#205,#249,#710,.T.);
#398=PRESENTATION_STYLE_ASSIGNMENT((#711));
#399=EDGE_CURVE('',#339,#281,#712,.T.);
#400=PRESENTATION_STYLE_ASSIGNMENT((#713));
#401=ADVANCED_FACE('',(#714),#715,.T.);
#402=PRESENTATION_STYLE_ASSIGNMENT((#716));
#403=ADVANCED_FACE('',(#717),#718,.F.);
#404=PRESENTATION_STYLE_ASSIGNMENT((#719));
#405=EDGE_CURVE('',#407,#253,#720,.T.);
#406=PRESENTATION_STYLE_ASSIGNMENT((#721));
#407=VERTEX_POINT('',#722);
#408=PRESENTATION_STYLE_ASSIGNMENT((#723));
#409=EDGE_CURVE('',#173,#335,#724,.T.);
#410=PRESENTATION_STYLE_ASSIGNMENT((#725));
#411=ADVANCED_FACE('',(#726),#727,.T.);
#412=PRESENTATION_STYLE_ASSIGNMENT((#728));
#413=EDGE_CURVE('',#357,#407,#729,.T.);
#414=PRESENTATION_STYLE_ASSIGNMENT((#730));
#415=EDGE_CURVE('',#343,#345,#731,.T.);
#416=PRESENTATION_STYLE_ASSIGNMENT((#732));
#417=ADVANCED_FACE('',(#733),#734,.T.);
#418=PRESENTATION_STYLE_ASSIGNMENT((#735));
#419=EDGE_CURVE('',#349,#385,#736,.T.);
#420=PRESENTATION_STYLE_ASSIGNMENT((#737));
#421=VERTEX_POINT('',#738);
#422=PRESENTATION_STYLE_ASSIGNMENT((#739));
#423=ADVANCED_FACE('',(#740),#741,.T.);
#424=PRESENTATION_STYLE_ASSIGNMENT((#742));
#425=VERTEX_POINT('',#743);
#426=PRESENTATION_STYLE_ASSIGNMENT((#744));
#427=VERTEX_POINT('',#745);
#428=PRESENTATION_STYLE_ASSIGNMENT((#746));
#429=EDGE_CURVE('',#209,#297,#747,.T.);
#430=PRESENTATION_STYLE_ASSIGNMENT((#748));
#431=ADVANCED_FACE('',(#749),#750,.T.);
#432=PRESENTATION_STYLE_ASSIGNMENT((#751));
#433=EDGE_CURVE('',#385,#347,#752,.T.);
#434=PRESENTATION_STYLE_ASSIGNMENT((#753));
#435=EDGE_CURVE('',#209,#333,#754,.T.);
#436=PRESENTATION_STYLE_ASSIGNMENT((#755));
#437=EDGE_CURVE('',#357,#377,#756,.T.);
#438=PRESENTATION_STYLE_ASSIGNMENT((#757));
#439=EDGE_CURVE('',#281,#325,#758,.T.);
#440=PRODUCT('NOCUT','NOCUT','PART-NOCUT-DESC',(#759));
#441=PRODUCT_DEFINITION('NONE','NONE',#760,#2);
#442=AXIS2_PLACEMENT_3D('',#761,#762,#763);
#443=PRODUCT('CUT','CUT','PART-CUT-DESC',(#764));
#444=PRODUCT_DEFINITION('NONE','NONE',#765,#6);
#445=AXIS2_PLACEMENT_3D('',#766,#767,#768);
#448=LENGTH_MEASURE_WITH_UNIT(LENGTH_MEASURE(1.0),#769);
#451=DIMENSIONAL_EXPONENTS(1.0,0.0,0.0,0.0,0.0,0.0,0.0);
#453=DIMENSIONAL_EXPONENTS(0.0,0.0,0.0,0.0,0.0,0.0,0.0);
#459=CURVE_STYLE('',#770,POSITIVE_LENGTH_MEASURE(1.0E-006),#771);
#460=LINE('',#772,#773);
#461=CURVE_STYLE('',#774,POSITIVE_LENGTH_MEASURE(1.0E-006),#775);
#462=B_SPLINE_CURVE_WITH_KNOTS('',3,(#776,#777,#778,#779,#780,#781,#782,#783,#784,#785),.UNSPECIFIED.,.F.,.F.,(4,2,2,2,4),(1.85902529823815,2.06567030714978,2.27234349574443,2.47901668433909,2.68530730298492),.UNSPECIFIED.);
#463=POINT_STYLE(' ',#786,POSITIVE_LENGTH_MEASURE(1.0E-006),#787);
#464=CARTESIAN_POINT('',(0.0967010423452768,1.39665633153233,-21.2999442996743));
#465=CURVE_STYLE('',#788,POSITIVE_LENGTH_MEASURE(1.0E-006),#789);
#466=CIRCLE('',#790,1.5);
#467=CURVE_STYLE('',#791,POSITIVE_LENGTH_MEASURE(1.0E-006),#792);
#468=ELLIPSE('',#793,1.56089980486,1.4);
#469=SURFACE_STYLE_USAGE(.BOTH.,#794);
#470=FACE_OUTER_BOUND('',#795,.T.);
#471=CYLINDRICAL_SURFACE('',#796,0.394355589784601);
#472=CURVE_STYLE('',#797,POSITIVE_LENGTH_MEASURE(1.0E-006),#798);
#473=CIRCLE('',#799,1.5);
#474=CURVE_STYLE('',#800,POSITIVE_LENGTH_MEASURE(1.0E-006),#801);
#475=LINE('',#802,#803);
#476=SURFACE_STYLE_USAGE(.BOTH.,#804);
#477=CLOSED_SHELL('',(#197,#417,#383,#193,#301,#395,#403,#341,#201,#367,#255,#279,#353,#331,#237,#227,#179,#245,#393,#411,#309,#359,#401));
#478=POINT_STYLE(' ',#805,POSITIVE_LENGTH_MEASURE(1.0E-006),#806);
#479=CARTESIAN_POINT('',(0.266477242128121,1.47614019639999,-20.300000092291));
#480=CURVE_STYLE('',#807,POSITIVE_LENGTH_MEASURE(1.0E-006),#808);
#481=ELLIPSE('',#809,1.67239264806429,1.5);
#482=SURFACE_STYLE_USAGE(.BOTH.,#810);
#483=FACE_OUTER_BOUND('',#811,.T.);
#484=CYLINDRICAL_SURFACE('',#812,0.5);
#485=SURFACE_STYLE_USAGE(.BOTH.,#813);
#486=FACE_OUTER_BOUND('',#814,.T.);
#487=CYLINDRICAL_SURFACE('',#815,1.5);
#488=CURVE_STYLE('',#816,POSITIVE_LENGTH_MEASURE(1.0E-006),#817);
#489=B_SPLINE_CURVE_WITH_KNOTS('',3,(#818,#819,#820,#821,#822,#823,#824,#825,#826,#827,#828,#829,#830,#831),.UNSPECIFIED.,.F.,.F.,(4,2,2,2,2,2,4),(0.449150673999558,0.599254881805798,0.748174136214704,0.89709339062361,1.04645297376854,1.19581255691346,1.34500018410038),.UNSPECIFIED.);
#490=SURFACE_STYLE_USAGE(.BOTH.,#832);
#491=FACE_OUTER_BOUND('',#833,.T.);
#492=CYLINDRICAL_SURFACE('',#834,0.4995);
#493=POINT_STYLE(' ',#835,POSITIVE_LENGTH_MEASURE(1.0E-006),#836);
#494=CARTESIAN_POINT('',(1.46952762458685E-016,-1.2,0.0));
#495=SURFACE_STYLE_USAGE(.BOTH.,#837);
#496=FACE_OUTER_BOUND('',#838,.T.);
#497=PLANE('',#839);
#498=CURVE_STYLE('',#840,POSITIVE_LENGTH_MEASURE(1.0E-006),#841);
#499=B_SPLINE_CURVE_WITH_KNOTS('',3,(#842,#843,#844,#845,#846,#847,#848,#849,#850,#851,#852,#853,#854,#855,#856,#857,#858,#859,#860,#861,#862,#863,#864,#865,#866,#867,#868),.UNSPECIFIED.,.F.,.F.,(4,2,3,2,2,2,2,2,2,2,2,2,4),(-0.180901966709087,-0.0904509833545435,0.0,0.0904509833545436,0.180901966709087,0.271587051521942,0.362272136334797,0.452562970858867,0.542853805382937,0.633260931758076,0.723668058133215,0.814075184508354,0.904482310883494),.UNSPECIFIED.);
#500=POINT_STYLE(' ',#869,POSITIVE_LENGTH_MEASURE(1.0E-006),#870);
#501=CARTESIAN_POINT('',(1.83690953073357E-016,-1.5,-23.3));
#502=CURVE_STYLE('',#871,POSITIVE_LENGTH_MEASURE(1.0E-006),#872);
#503=B_SPLINE_CURVE_WITH_KNOTS('',3,(#873,#874,#875,#876,#877,#878,#879,#880,#881,#882,#883,#884,#885,#886,#887,#888,#889,#890,#891,#892,#893,#894,#895,#896,#897,#898,#899),.UNSPECIFIED.,.F.,.F.,(4,2,3,2,2,2,2,2,2,2,2,2,4),(-0.180901966709087,-0.0904509833545435,0.0,0.0904509833545436,0.180901966709087,0.271587051521942,0.362272136334797,0.452562970858867,0.542853805382937,0.633260931758076,0.723668058133215,0.814075184508354,0.904482310883494),.UNSPECIFIED.);
#504=POINT_STYLE(' ',#900,POSITIVE_LENGTH_MEASURE(1.0E-006),#901);
#505=CARTESIAN_POINT('',(0.5,6.12303176911189E-017,-34.81801488));
#506=CURVE_STYLE('',#902,POSITIVE_LENGTH_MEASURE(1.0E-006),#903);
#507=CIRCLE('',#904,0.5);
#508=CURVE_STYLE('',#905,POSITIVE_LENGTH_MEASURE(1.0E-006),#906);
#509=LINE('',#907,#908);
#510=CURVE_STYLE('',#909,POSITIVE_LENGTH_MEASURE(1.0E-006),#910);
#511=B_SPLINE_CURVE_WITH_KNOTS('',3,(#911,#912,#913,#914,#915,#916,#917,#918,#919,#920,#921,#922,#923,#924,#925,#926,#927,#928,#929,#930,#931,#932,#933,#934,#935,#936,#937),.UNSPECIFIED.,.F.,.F.,(4,2,3,2,2,2,2,2,2,2,2,2,4),(-0.180901966709087,-0.0904509833545435,0.0,0.0904509833545436,0.180901966709087,0.271587051521942,0.362272136334797,0.452562970858867,0.542853805382937,0.633260931758076,0.723668058133215,0.814075184508354,0.904482310883494),.UNSPECIFIED.);
#512=CURVE_STYLE('',#938,POSITIVE_LENGTH_MEASURE(1.0E-006),#939);
#513=ELLIPSE('',#940,4.26719240271768,1.4);
#514=CURVE_STYLE('',#941,POSITIVE_LENGTH_MEASURE(1.0E-006),#942);
#515=LINE('',#943,#944);
#516=POINT_STYLE(' ',#945,POSITIVE_LENGTH_MEASURE(1.0E-006),#946);
#517=CARTESIAN_POINT('',(0.291186927252986,1.4714653150506,-20.7399643865364));
#518=POINT_STYLE(' ',#947,POSITIVE_LENGTH_MEASURE(1.0E-006),#948);
#519=CARTESIAN_POINT('',(0.291186927252986,1.36938313608609,-20.7399643865364));
#520=POINT_STYLE(' ',#949,POSITIVE_LENGTH_MEASURE(1.0E-006),#950);
#521=CARTESIAN_POINT('',(0.191042345276873,1.38690404221457,-20.7767766558089));
#522=SURFACE_STYLE_USAGE(.BOTH.,#951);
#523=FACE_OUTER_BOUND('',#952,.T.);
#524=PLANE('',#953);
#525=CURVE_STYLE('',#954,POSITIVE_LENGTH_MEASURE(1.0E-006),#955);
#526=CIRCLE('',#956,1.2);
#527=CURVE_STYLE('',#957,POSITIVE_LENGTH_MEASURE(1.0E-006),#958);
#528=LINE('',#959,#960);
#529=POINT_STYLE(' ',#961,POSITIVE_LENGTH_MEASURE(1.0E-006),#962);
#530=CARTESIAN_POINT('',(-0.445684250814332,1.43225889718866,-21.0906934636265));
#531=CURVE_STYLE('',#963,POSITIVE_LENGTH_MEASURE(1.0E-006),#964);
#532=CIRCLE('',#965,1.5);
#533=SURFACE_STYLE_USAGE(.BOTH.,#966);
#534=FACE_OUTER_BOUND('',#967,.T.);
#535=CYLINDRICAL_SURFACE('',#968,0.239624863395969);
#536=CURVE_STYLE('',#969,POSITIVE_LENGTH_MEASURE(1.0E-006),#970);
#537=LINE('',#971,#972);
#538=CURVE_STYLE('',#973,POSITIVE_LENGTH_MEASURE(1.0E-006),#974);
#539=LINE('',#975,#976);
#540=POINT_STYLE(' ',#977,POSITIVE_LENGTH_MEASURE(1.0E-006),#978);
#541=CARTESIAN_POINT('',(0.191042345276873,1.4877845349079,-20.7767766558089));
#542=SURFACE_STYLE_USAGE(.BOTH.,#979);
#543=FACE_OUTER_BOUND('',#980,.T.);
#544=PLANE('',#981);
#545=CURVE_STYLE('',#982,POSITIVE_LENGTH_MEASURE(1.0E-006),#983);
#546=LINE('',#984,#985);
#547=POINT_STYLE(' ',#986,POSITIVE_LENGTH_MEASURE(1.0E-006),#987);
#548=CARTESIAN_POINT('',(0.0,1.5,-23.3));
#549=POINT_STYLE(' ',#988,POSITIVE_LENGTH_MEASURE(1.0E-006),#989);
#550=CARTESIAN_POINT('',(0.445736688382193,1.32714686626239,-20.4716828121607));
#551=POINT_STYLE(' ',#990,POSITIVE_LENGTH_MEASURE(1.0E-006),#991);
#552=CARTESIAN_POINT('',(6.11690873734277E-017,-0.4995,-30.0));
#553=SURFACE_STYLE_USAGE(.BOTH.,#992);
#554=FACE_OUTER_BOUND('',#993,.T.);
#555=CYLINDRICAL_SURFACE('',#994,0.542888128511779);
#556=CURVE_STYLE('',#995,POSITIVE_LENGTH_MEASURE(1.0E-006),#996);
#557=LINE('',#997,#998);
#558=CURVE_STYLE('',#999,POSITIVE_LENGTH_MEASURE(1.0E-006),#1000);
#559=LINE('',#1001,#1002);
#560=CURVE_STYLE('',#1003,POSITIVE_LENGTH_MEASURE(1.0E-006),#1004);
#561=LINE('',#1005,#1006);
#562=CURVE_STYLE('',#1007,POSITIVE_LENGTH_MEASURE(1.0E-006),#1008);
#563=CIRCLE('',#1009,0.5);
#564=CURVE_STYLE('',#1010,POSITIVE_LENGTH_MEASURE(1.0E-006),#1011);
#565=LINE('',#1012,#1013);
#566=CURVE_STYLE('',#1014,POSITIVE_LENGTH_MEASURE(1.0E-006),#1015);
#567=ELLIPSE('',#1016,4.57199186005466,1.5);
#568=CURVE_STYLE('',#1017,POSITIVE_LENGTH_MEASURE(1.0E-006),#1018);
#569=LINE('',#1019,#1020);
#570=CURVE_STYLE('',#1021,POSITIVE_LENGTH_MEASURE(1.0E-006),#1022);
#571=CIRCLE('',#1023,0.4995);
#572=CURVE_STYLE('',#1024,POSITIVE_LENGTH_MEASURE(1.0E-006),#1025);
#573=CIRCLE('',#1026,1.2);
#574=CURVE_STYLE('',#1027,POSITIVE_LENGTH_MEASURE(1.0E-006),#1028);
#575=B_SPLINE_CURVE_WITH_KNOTS('',3,(#1029,#1030,#1031,#1032,#1033,#1034),.UNSPECIFIED.,.F.,.F.,(4,2,4),(2.68959631217716,2.89616176304829,3.10308695553747),.UNSPECIFIED.);
#576=CURVE_STYLE('',#1035,POSITIVE_LENGTH_MEASURE(1.0E-006),#1036);
#577=CIRCLE('',#1037,1.5);
#578=SURFACE_STYLE_USAGE(.BOTH.,#1038);
#579=FACE_OUTER_BOUND('',#1039,.T.);
#580=CYLINDRICAL_SURFACE('',#1040,1.4);
#581=POINT_STYLE(' ',#1041,POSITIVE_LENGTH_MEASURE(1.0E-006),#1042);
#582=CARTESIAN_POINT('',(-5.5810628876861E-012,1.5,-20.8000267183946));
#583=POINT_STYLE(' ',#1043,POSITIVE_LENGTH_MEASURE(1.0E-006),#1044);
#584=CARTESIAN_POINT('',(-0.162126314794348,1.49121261329537,-20.5144279161002));
#585=CURVE_STYLE('',#1045,POSITIVE_LENGTH_MEASURE(1.0E-006),#1046);
#586=LINE('',#1047,#1048);
#587=SURFACE_STYLE_USAGE(.BOTH.,#1049);
#588=CLOSED_SHELL('',(#391,#191,#337,#431,#423));
#589=POINT_STYLE(' ',#1050,POSITIVE_LENGTH_MEASURE(1.0E-006),#1051);
#590=CARTESIAN_POINT('',(0.0,1.2,0.0));
#591=CURVE_STYLE('',#1052,POSITIVE_LENGTH_MEASURE(1.0E-006),#1053);
#592=B_SPLINE_CURVE_WITH_KNOTS('',3,(#1054,#1055,#1056,#1057,#1058,#1059),.UNSPECIFIED.,.F.,.F.,(4,2,4),(2.68530701780466,2.89159761751384,3.09817892816277),.UNSPECIFIED.);
#593=CURVE_STYLE('',#1060,POSITIVE_LENGTH_MEASURE(1.0E-006),#1061);
#594=LINE('',#1062,#1063);
#595=CURVE_STYLE('',#1064,POSITIVE_LENGTH_MEASURE(1.0E-006),#1065);
#596=B_SPLINE_CURVE_WITH_KNOTS('',3,(#1066,#1067,#1068,#1069,#1070,#1071),.UNSPECIFIED.,.F.,.F.,(4,2,4),(0.20692518525904,0.413850370518079,0.620415814467368),.UNSPECIFIED.);
#597=POINT_STYLE(' ',#1072,POSITIVE_LENGTH_MEASURE(1.0E-006),#1073);
#598=CARTESIAN_POINT('',(0.5,6.12303176911189E-017,-30.0));
#599=POINT_STYLE(' ',#1074,POSITIVE_LENGTH_MEASURE(1.0E-006),#1075);
#600=CARTESIAN_POINT('',(2.05794355424154E-011,1.5,-20.641089603934));
#601=SURFACE_STYLE_USAGE(.BOTH.,#1076);
#602=FACE_OUTER_BOUND('',#1077,.T.);
#603=CONICAL_SURFACE('',#1078,1.35,0.785398163397447);
#604=CURVE_STYLE('',#1079,POSITIVE_LENGTH_MEASURE(1.0E-006),#1080);
#605=B_SPLINE_CURVE_WITH_KNOTS('',3,(#1081,#1082,#1083,#1084,#1085,#1086,#1087,#1088,#1089,#1090,#1091,#1092,#1093,#1094,#1095,#1096,#1097,#1098,#1099,#1100,#1101,#1102,#1103,#1104,#1105,#1106,#1107),.UNSPECIFIED.,.F.,.F.,(4,2,2,2,2,2,2,2,2,2,3,2,4),(-0.904760382276979,-0.814331794904364,-0.723903207531748,-0.633474620159131,-0.543046032786514,-0.452751158305847,-0.36245628382518,-0.271707992864221,-0.180959701903262,-0.0904798509516307,0.0,0.0905731045725073,0.181146209145015),.UNSPECIFIED.);
#606=POINT_STYLE(' ',#1108,POSITIVE_LENGTH_MEASURE(1.0E-006),#1109);
#607=CARTESIAN_POINT('',(0.0,1.5,-0.300000000000001));
#608=CURVE_STYLE('',#1110,POSITIVE_LENGTH_MEASURE(1.0E-006),#1111);
#609=B_SPLINE_CURVE_WITH_KNOTS('',3,(#1112,#1113,#1114,#1115,#1116,#1117,#1118,#1119,#1120,#1121,#1122,#1123,#1124,#1125),.UNSPECIFIED.,.F.,.F.,(4,2,2,2,2,2,4),(1.04556644553437,1.19481792676598,1.34406940799758,1.49332088922919,1.6421919361918,1.79106298315441,1.94096154109475),.UNSPECIFIED.);
#610=SURFACE_STYLE_USAGE(.BOTH.,#1126);
#611=FACE_OUTER_BOUND('',#1127,.T.);
#612=CONICAL_SURFACE('',#1128,0.99975,0.264089655349623);
#613=CURVE_STYLE('',#1129,POSITIVE_LENGTH_MEASURE(1.0E-006),#1130);
#614=LINE('',#1131,#1132);
#615=POINT_STYLE(' ',#1133,POSITIVE_LENGTH_MEASURE(1.0E-006),#1134);
#616=CARTESIAN_POINT('',(0.291186927252985,1.4714653150506,-21.219578393051));
#617=CURVE_STYLE('',#1135,POSITIVE_LENGTH_MEASURE(1.0E-006),#1136);
#618=LINE('',#1137,#1138);
#619=POINT_STYLE(' ',#1139,POSITIVE_LENGTH_MEASURE(1.0E-006),#1140);
#620=CARTESIAN_POINT('',(0.0,0.0,-35.0));
#621=CURVE_STYLE('',#1141,POSITIVE_LENGTH_MEASURE(1.0E-006),#1142);
#622=LINE('',#1143,#1144);
#623=CURVE_STYLE('',#1145,POSITIVE_LENGTH_MEASURE(1.0E-006),#1146);
#624=LINE('',#1147,#1148);
#625=POINT_STYLE(' ',#1149,POSITIVE_LENGTH_MEASURE(1.0E-006),#1150);
#626=CARTESIAN_POINT('',(0.0967010423452768,1.49687972409587,-21.2999442996743));
#627=POINT_STYLE(' ',#1151,POSITIVE_LENGTH_MEASURE(1.0E-006),#1152);
#628=CARTESIAN_POINT('',(-1.59271369637281E-015,1.5,-20.8709637112193));
#629=CURVE_STYLE('',#1153,POSITIVE_LENGTH_MEASURE(1.0E-006),#1154);
#630=LINE('',#1155,#1156);
#631=CURVE_STYLE('',#1157,POSITIVE_LENGTH_MEASURE(1.0E-006),#1158);
#632=LINE('',#1159,#1160);
#633=SURFACE_STYLE_USAGE(.BOTH.,#1161);
#634=FACE_OUTER_BOUND('',#1162,.T.);
#635=CYLINDRICAL_SURFACE('',#1163,0.542888147146112);
#636=POINT_STYLE(' ',#1164,POSITIVE_LENGTH_MEASURE(1.0E-006),#1165);
#637=CARTESIAN_POINT('',(-0.5,0.0,-34.81801488));
#638=POINT_STYLE(' ',#1166,POSITIVE_LENGTH_MEASURE(1.0E-006),#1167);
#639=CARTESIAN_POINT('',(-0.445684250814332,1.32716447683626,-21.0906934636265));
#640=SURFACE_STYLE_USAGE(.BOTH.,#1168);
#641=FACE_OUTER_BOUND('',#1169,.T.);
#642=PLANE('',#1170);
#643=POINT_STYLE(' ',#1171,POSITIVE_LENGTH_MEASURE(1.0E-006),#1172);
#644=CARTESIAN_POINT('',(-0.345024467969599,1.45978016033316,-20.4057073995657));
#645=SURFACE_STYLE_USAGE(.BOTH.,#1173);
#646=FACE_OUTER_BOUND('',#1174,.T.);
#647=CYLINDRICAL_SURFACE('',#1175,0.542888173802104);
#648=POINT_STYLE(' ',#1176,POSITIVE_LENGTH_MEASURE(1.0E-006),#1177);
#649=CARTESIAN_POINT('',(0.445736688382193,1.43224257883575,-21.0633885667752));
#650=POINT_STYLE(' ',#1178,POSITIVE_LENGTH_MEASURE(1.0E-006),#1179);
#651=CARTESIAN_POINT('',(0.445736688382193,1.43224257883575,-20.4716828121607));
#652=POINT_STYLE(' ',#1180,POSITIVE_LENGTH_MEASURE(1.0E-006),#1181);
#653=CARTESIAN_POINT('',(-0.162126314794349,1.39058083477776,-20.5144279161002));
#654=POINT_STYLE(' ',#1182,POSITIVE_LENGTH_MEASURE(1.0E-006),#1183);
#655=CARTESIAN_POINT('',(-0.345024467969599,1.35681911709052,-20.4057073995657));
#656=CURVE_STYLE('',#1184,POSITIVE_LENGTH_MEASURE(1.0E-006),#1185);
#657=CIRCLE('',#1186,0.4995);
#658=SURFACE_STYLE_USAGE(.BOTH.,#1187);
#659=FACE_OUTER_BOUND('',#1188,.T.);
#660=PLANE('',#1189);
#661=POINT_STYLE(' ',#1190,POSITIVE_LENGTH_MEASURE(1.0E-006),#1191);
#662=CARTESIAN_POINT('',(0.266477242128121,1.37440528208669,-20.300000092291));
#663=POINT_STYLE(' ',#1192,POSITIVE_LENGTH_MEASURE(1.0E-006),#1193);
#664=CARTESIAN_POINT('',(0.0,0.4995,-27.0));
#665=SURFACE_STYLE_USAGE(.BOTH.,#1194);
#666=FACE_OUTER_BOUND('',#1195,.T.);
#667=CYLINDRICAL_SURFACE('',#1196,0.4995);
#668=CURVE_STYLE('',#1197,POSITIVE_LENGTH_MEASURE(1.0E-006),#1198);
#669=LINE('',#1199,#1200);
#670=POINT_STYLE(' ',#1201,POSITIVE_LENGTH_MEASURE(1.0E-006),#1202);
#671=CARTESIAN_POINT('',(5.28467147414175E-016,1.5,-21.3103417867011));
#672=CURVE_STYLE('',#1203,POSITIVE_LENGTH_MEASURE(1.0E-006),#1204);
#673=CIRCLE('',#1205,0.5);
#674=SURFACE_STYLE_USAGE(.BOTH.,#1206);
#675=FACE_OUTER_BOUND('',#1207,.T.);
#676=PLANE('',#1208);
#677=CURVE_STYLE('',#1209,POSITIVE_LENGTH_MEASURE(1.0E-006),#1210);
#678=LINE('',#1211,#1212);
#679=CURVE_STYLE('',#1213,POSITIVE_LENGTH_MEASURE(1.0E-006),#1214);
#680=B_SPLINE_CURVE_WITH_KNOTS('',3,(#1215,#1216,#1217,#1218,#1219,#1220,#1221,#1222,#1223,#1224),.UNSPECIFIED.,.F.,.F.,(4,2,2,2,4),(1.85902529823815,2.06567030714978,2.27234349574443,2.47901668433909,2.68530730298492),.UNSPECIFIED.);
#681=CURVE_STYLE('',#1225,POSITIVE_LENGTH_MEASURE(1.0E-006),#1226);
#682=LINE('',#1227,#1228);
#683=CURVE_STYLE('',#1229,POSITIVE_LENGTH_MEASURE(1.0E-006),#1230);
#684=LINE('',#1231,#1232);
#685=POINT_STYLE(' ',#1233,POSITIVE_LENGTH_MEASURE(1.0E-006),#1234);
#686=CARTESIAN_POINT('',(6.11690873734277E-017,-0.4995,-27.0));
#687=CURVE_STYLE('',#1235,POSITIVE_LENGTH_MEASURE(1.0E-006),#1236);
#688=B_SPLINE_CURVE_WITH_KNOTS('',3,(#1237,#1238,#1239,#1240,#1241,#1242),.UNSPECIFIED.,.F.,.F.,(4,2,4),(0.206581317849573,0.413162635699147,0.619453242343403),.UNSPECIFIED.);
#689=POINT_STYLE(' ',#1243,POSITIVE_LENGTH_MEASURE(1.0E-006),#1244);
#690=CARTESIAN_POINT('',(0.445736688382193,1.32714686626239,-21.0633885667752));
#691=SURFACE_STYLE_USAGE(.BOTH.,#1245);
#692=FACE_OUTER_BOUND('',#1246,.T.);
#693=CYLINDRICAL_SURFACE('',#1247,1.5);
#694=POINT_STYLE(' ',#1248,POSITIVE_LENGTH_MEASURE(1.0E-006),#1249);
#695=CARTESIAN_POINT('',(-0.187444663409338,1.38739486021801,-20.4057073995657));
#696=POINT_STYLE(' ',#1250,POSITIVE_LENGTH_MEASURE(1.0E-006),#1251);
#697=CARTESIAN_POINT('',(0.291186927252985,1.36938313608609,-21.219578393051));
#698=CURVE_STYLE('',#1252,POSITIVE_LENGTH_MEASURE(1.0E-006),#1253);
#699=ELLIPSE('',#1254,1.67239264806429,1.5);
#700=SURFACE_STYLE_USAGE(.BOTH.,#1255);
#701=FACE_OUTER_BOUND('',#1256,.T.);
#702=CONICAL_SURFACE('',#1257,0.25,1.22173047133296);
#703=SURFACE_STYLE_USAGE(.BOTH.,#1258);
#704=FACE_OUTER_BOUND('',#1259,.T.);
#705=CONICAL_SURFACE('',#1260,1.35,0.785398163397447);
#706=SURFACE_STYLE_USAGE(.BOTH.,#1261);
#707=FACE_OUTER_BOUND('',#1262,.T.);
#708=CYLINDRICAL_SURFACE('',#1263,0.239624863395969);
#709=CURVE_STYLE('',#1264,POSITIVE_LENGTH_MEASURE(1.0E-006),#1265);
#710=CIRCLE('',#1266,1.5);
#711=CURVE_STYLE('',#1267,POSITIVE_LENGTH_MEASURE(1.0E-006),#1268);
#712=B_SPLINE_CURVE_WITH_KNOTS('',3,(#1269,#1270,#1271,#1272,#1273,#1274,#1275,#1276,#1277,#1278,#1279,#1280,#1281,#1282),.UNSPECIFIED.,.F.,.F.,(4,2,2,2,2,2,4),(1.04556644553437,1.19481792676598,1.34406940799758,1.49332088922919,1.6421919361918,1.79106298315441,1.94096154109475),.UNSPECIFIED.);
#713=SURFACE_STYLE_USAGE(.BOTH.,#1283);
#714=FACE_OUTER_BOUND('',#1284,.T.);
#715=PLANE('',#1285);
#716=SURFACE_STYLE_USAGE(.BOTH.,#1286);
#717=FACE_OUTER_BOUND('',#1287,.T.);
#718=PLANE('',#1288);
#719=CURVE_STYLE('',#1289,POSITIVE_LENGTH_MEASURE(1.0E-006),#1290);
#720=CIRCLE('',#1291,0.4995);
#721=POINT_STYLE(' ',#1292,POSITIVE_LENGTH_MEASURE(1.0E-006),#1293);
#722=CARTESIAN_POINT('',(0.0,0.4995,-30.0));
#723=CURVE_STYLE('',#1294,POSITIVE_LENGTH_MEASURE(1.0E-006),#1295);
#724=B_SPLINE_CURVE_WITH_KNOTS('',3,(#1296,#1297,#1298,#1299,#1300,#1301,#1302,#1303,#1304,#1305),.UNSPECIFIED.,.F.,.F.,(4,2,2,2,4),(0.620415869735469,0.826981332916279,1.03398970786775,1.24099808281921,1.44800214325881),.UNSPECIFIED.);
#725=SURFACE_STYLE_USAGE(.BOTH.,#1306);
#726=FACE_OUTER_BOUND('',#1307,.T.);
#727=CYLINDRICAL_SURFACE('',#1308,1.5);
#728=CURVE_STYLE('',#1309,POSITIVE_LENGTH_MEASURE(1.0E-006),#1310);
#729=LINE('',#1311,#1312);
#730=CURVE_STYLE('',#1313,POSITIVE_LENGTH_MEASURE(1.0E-006),#1314);
#731=LINE('',#1315,#1316);
#732=SURFACE_STYLE_USAGE(.BOTH.,#1317);
#733=FACE_OUTER_BOUND('',#1318,.T.);
#734=CONICAL_SURFACE('',#1319,0.99975,0.264089655349623);
#735=CURVE_STYLE('',#1320,POSITIVE_LENGTH_MEASURE(1.0E-006),#1321);
#736=CIRCLE('',#1322,1.4);
#737=POINT_STYLE(' ',#1323,POSITIVE_LENGTH_MEASURE(1.0E-006),#1324);
#738=CARTESIAN_POINT('',(-0.5,0.0,-30.0));
#739=SURFACE_STYLE_USAGE(.BOTH.,#1325);
#740=FACE_OUTER_BOUND('',#1326,.T.);
#741=CONICAL_SURFACE('',#1327,0.25,1.22173047133296);
#742=POINT_STYLE(' ',#1328,POSITIVE_LENGTH_MEASURE(1.0E-006),#1329);
#743=CARTESIAN_POINT('',(1.83690953073357E-016,-1.5,-0.300000000000001));
#744=POINT_STYLE(' ',#1330,POSITIVE_LENGTH_MEASURE(1.0E-006),#1331);
#745=CARTESIAN_POINT('',(-0.187444663409338,1.48824208318383,-20.4057073995657));
#746=CURVE_STYLE('',#1332,POSITIVE_LENGTH_MEASURE(1.0E-006),#1333);
#747=LINE('',#1334,#1335);
#748=SURFACE_STYLE_USAGE(.BOTH.,#1336);
#749=FACE_OUTER_BOUND('',#1337,.T.);
#750=CYLINDRICAL_SURFACE('',#1338,0.5);
#751=CURVE_STYLE('',#1339,POSITIVE_LENGTH_MEASURE(1.0E-006),#1340);
#752=B_SPLINE_CURVE_WITH_KNOTS('',3,(#1341,#1342,#1343,#1344,#1345,#1346,#1347,#1348,#1349,#1350,#1351,#1352,#1353,#1354,#1355,#1356,#1357,#1358,#1359,#1360,#1361,#1362,#1363,#1364,#1365,#1366,#1367),.UNSPECIFIED.,.F.,.F.,(4,2,2,2,2,2,2,2,2,2,3,2,4),(-0.904760382276979,-0.814331794904364,-0.723903207531748,-0.633474620159131,-0.543046032786514,-0.452751158305847,-0.36245628382518,-0.271707992864221,-0.180959701903262,-0.0904798509516307,0.0,0.0905731045725073,0.181146209145015),.UNSPECIFIED.);
#753=CURVE_STYLE('',#1368,POSITIVE_LENGTH_MEASURE(1.0E-006),#1369);
#754=CIRCLE('',#1370,0.5);
#755=CURVE_STYLE('',#1371,POSITIVE_LENGTH_MEASURE(1.0E-006),#1372);
#756=CIRCLE('',#1373,0.4995);
#757=CURVE_STYLE('',#1374,POSITIVE_LENGTH_MEASURE(1.0E-006),#1375);
#758=LINE('',#1376,#1377);
#759=PRODUCT_CONTEXT('',#150,'mechanical');
#760=PRODUCT_DEFINITION_FORMATION_WITH_SPECIFIED_SOURCE(' ','NONE',#440,.NOT_KNOWN.);
#761=CARTESIAN_POINT('',(0.0,0.0,0.0));
#762=DIRECTION('',(0.0,0.0,1.0));
#763=DIRECTION('',(1.0,0.0,0.0));
#764=PRODUCT_CONTEXT('',#155,'mechanical');
#765=PRODUCT_DEFINITION_FORMATION_WITH_SPECIFIED_SOURCE(' ','NONE',#443,.NOT_KNOWN.);
#766=CARTESIAN_POINT('',(0.0,0.0,0.0));
#767=DIRECTION('',(0.0,0.0,1.0));
#768=DIRECTION('',(1.0,0.0,0.0));
#769= (NAMED_UNIT(#451)LENGTH_UNIT()SI_UNIT(.MILLI.,.METRE.));
#770=DRAUGHTING_PRE_DEFINED_CURVE_FONT('continuous');
#771=COLOUR_RGB('',0.200000002980232,0.600000023841858,1.0);
#772=CARTESIAN_POINT('',(0.0967010423452768,0.0,-21.2999442996743));
#773=VECTOR('',#1379,1.0);
#774=DRAUGHTING_PRE_DEFINED_CURVE_FONT('continuous');
#775=COLOUR_RGB('',0.498039215803146,0.498039215803146,0.498039215803146);
#776=CARTESIAN_POINT('',(-0.510663884086716,1.41039795713461,-20.9761414932216));
#777=CARTESIAN_POINT('',(-0.48288219532452,1.42045688567568,-21.0428917331796));
#778=CARTESIAN_POINT('',(-0.441244348092513,1.43448916486863,-21.1034830495674));
#779=CARTESIAN_POINT('',(-0.345596761760871,1.46048597628377,-21.199175425681));
#780=CARTESIAN_POINT('',(-0.284974339318755,1.47422809273278,-21.2408778107875));
#781=CARTESIAN_POINT('',(-0.151371949196349,1.49386926357127,-21.2965191841322));
#782=CARTESIAN_POINT('',(-0.0783437509828542,1.49953600664492,-21.3104241111695));
#783=CARTESIAN_POINT('',(0.059308117302166,1.50040360289934,-21.3104241111695));
#784=CARTESIAN_POINT('',(0.132276716500884,1.49567479625857,-21.2965653151316));
#785=CARTESIAN_POINT('',(0.199061940328443,1.48673277488346,-21.2687830304685));
#786=PRE_DEFINED_MARKER('');
#787=COLOUR_RGB('',0.200000002980232,0.600000023841858,1.0);
#788=DRAUGHTING_PRE_DEFINED_CURVE_FONT('continuous');
#789=COLOUR_RGB('',0.498039215803146,0.498039215803146,0.498039215803146);
#790=AXIS2_PLACEMENT_3D('',#1380,#1381,#1382);
#791=DRAUGHTING_PRE_DEFINED_CURVE_FONT('continuous');
#792=COLOUR_RGB('',0.200000002980232,0.600000023841858,1.0);
#793=AXIS2_PLACEMENT_3D('',#1383,#1384,#1385);
#794=SURFACE_SIDE_STYLE('',(#1386));
#795=EDGE_LOOP('',(#1387,#1388,#1389,#1390,#1391));
#796=AXIS2_PLACEMENT_3D('',#1392,#1393,#1394);
#797=DRAUGHTING_PRE_DEFINED_CURVE_FONT('continuous');
#798=COLOUR_RGB('',0.498039215803146,0.498039215803146,0.498039215803146);
#799=AXIS2_PLACEMENT_3D('',#1395,#1396,#1397);
#800=DRAUGHTING_PRE_DEFINED_CURVE_FONT('continuous');
#801=COLOUR_RGB('',0.200000002980232,0.600000023841858,1.0);
#802=CARTESIAN_POINT('',(-0.187444663409338,0.0,-20.4057073995657));
#803=VECTOR('',#1398,1.0);
#804=SURFACE_SIDE_STYLE('',(#1399));
#805=PRE_DEFINED_MARKER('');
#806=COLOUR_RGB('',0.498039215803146,0.498039215803146,0.498039215803146);
#807=DRAUGHTING_PRE_DEFINED_CURVE_FONT('continuous');
#808=COLOUR_RGB('',0.498039215803146,0.498039215803146,0.498039215803146);
#809=AXIS2_PLACEMENT_3D('',#1400,#1401,#1402);
#810=SURFACE_SIDE_STYLE('',(#1403));
#811=EDGE_LOOP('',(#1404,#1405,#1406,#1407));
#812=AXIS2_PLACEMENT_3D('',#1408,#1409,#1410);
#813=SURFACE_SIDE_STYLE('',(#1411));
#814=EDGE_LOOP('',(#1412,#1413,#1414,#1415,#1416,#1417,#1418,#1419,#1420,#1421,#1422,#1423));
#815=AXIS2_PLACEMENT_3D('',#1424,#1425,#1426);
#816=DRAUGHTING_PRE_DEFINED_CURVE_FONT('continuous');
#817=COLOUR_RGB('',0.200000002980232,0.600000023841858,1.0);
#818=CARTESIAN_POINT('',(0.200934749700117,1.38550540466754,-20.7728127120872));
#819=CARTESIAN_POINT('',(0.152361027198006,1.39254987285908,-20.7930424128849));
#820=CARTESIAN_POINT('',(0.0993229298639763,1.39736839466311,-20.8031228766955));
#821=CARTESIAN_POINT('',(-0.000289689597056074,1.40087973109968,-20.8031228766955));
#822=CARTESIAN_POINT('',(-0.0531441761580086,1.3998366962277,-20.7931845414391));
#823=CARTESIAN_POINT('',(-0.150192542814046,1.39277036147263,-20.7529626120982));
#824=CARTESIAN_POINT('',(-0.194401081368023,1.38688829524184,-20.7226896998535));
#825=CARTESIAN_POINT('',(-0.264285887003956,1.37528589839301,-20.6529252151849));
#826=CARTESIAN_POINT('',(-0.294656242773869,1.36879766697314,-20.6086812917829));
#827=CARTESIAN_POINT('',(-0.335036721821817,1.3594777535698,-20.5115058899038));
#828=CARTESIAN_POINT('',(-0.345036339300621,1.35681609828378,-20.4585538146259));
#829=CARTESIAN_POINT('',(-0.345036339300621,1.35681609828378,-20.3590380778486));
#830=CARTESIAN_POINT('',(-0.335059492810623,1.35947148128579,-20.3061426655781));
#831=CARTESIAN_POINT('',(-0.31491172956739,1.36412264939076,-20.2575980957205));
#832=SURFACE_SIDE_STYLE('',(#1427));
#833=EDGE_LOOP('',(#1428,#1429,#1430,#1431));
#834=AXIS2_PLACEMENT_3D('',#1432,#1433,#1434);
#835=PRE_DEFINED_MARKER('');
#836=COLOUR_RGB('',0.498039215803146,0.498039215803146,0.498039215803146);
#837=SURFACE_SIDE_STYLE('',(#1435));
#838=EDGE_LOOP('',(#1436,#1437,#1438,#1439));
#839=AXIS2_PLACEMENT_3D('',#1440,#1441,#1442);
#840=DRAUGHTING_PRE_DEFINED_CURVE_FONT('continuous');
#841=COLOUR_RGB('',0.498039215803146,0.498039215803146,0.498039215803146);
#842=CARTESIAN_POINT('',(0.221729286755517,1.48352152778276,-20.2378871716097));
#843=CARTESIAN_POINT('',(0.242916664335146,1.48035483149223,-20.2591029518555));
#844=CARTESIAN_POINT('',(0.261318671695976,1.47711443847429,-20.2859780646235));
#845=CARTESIAN_POINT('',(0.285762500920564,1.47258083232378,-20.3449554464605));
#846=CARTESIAN_POINT('',(0.291800327062856,1.47134379705289,-20.3770636764107));
#847=CARTESIAN_POINT('',(0.291800327062856,1.47134379705289,-20.4072140041956));
#848=CARTESIAN_POINT('',(0.291800327062856,1.47134379705289,-20.4373643319804));
#849=CARTESIAN_POINT('',(0.285762500920564,1.47258083232378,-20.4694725619307));
#850=CARTESIAN_POINT('',(0.261318671695976,1.47711443847429,-20.5284499437677));
#851=CARTESIAN_POINT('',(0.242916664335146,1.48035483149223,-20.5553250565357));
#852=CARTESIAN_POINT('',(0.200487072889916,1.4866964199844,-20.5978115268238));
#853=CARTESIAN_POINT('',(0.173583194808326,1.49021764919555,-20.6162645841107));
#854=CARTESIAN_POINT('',(0.114535660161259,1.49591488728219,-20.6407802443434));
#855=CARTESIAN_POINT('',(0.0823855330622715,1.49804084650163,-20.6468388675916));
#856=CARTESIAN_POINT('',(0.022096731509681,1.5001391803914,-20.6468388675916));
#857=CARTESIAN_POINT('',(-0.00999262344409792,1.5002571208703,-20.6408272955109));
#858=CARTESIAN_POINT('',(-0.0690070987492234,1.49870253939413,-20.6163905501035));
#859=CARTESIAN_POINT('',(-0.0959341735062562,1.49708093351492,-20.5979668841244));
#860=CARTESIAN_POINT('',(-0.138477984082618,1.49374686847048,-20.555459464118));
#861=CARTESIAN_POINT('',(-0.156931372390204,1.49181914896708,-20.5285240496651));
#862=CARTESIAN_POINT('',(-0.181417959074004,1.48903974234222,-20.469470789854));
#863=CARTESIAN_POINT('',(-0.187449399729082,1.48824148663488,-20.4373497129873));
#864=CARTESIAN_POINT('',(-0.187449399729082,1.48824148663488,-20.3770782954039));
#865=CARTESIAN_POINT('',(-0.181417959074004,1.48903974234222,-20.3449572185372));
#866=CARTESIAN_POINT('',(-0.156931372390204,1.49181914896708,-20.2859039587261));
#867=CARTESIAN_POINT('',(-0.138477984082618,1.49374686847048,-20.2589685442732));
#868=CARTESIAN_POINT('',(-0.117192388826773,1.49541497384541,-20.2377011560123));
#869=PRE_DEFINED_MARKER('');
#870=COLOUR_RGB('',0.498039215803146,0.498039215803146,0.498039215803146);
#871=DRAUGHTING_PRE_DEFINED_CURVE_FONT('continuous');
#872=COLOUR_RGB('',0.498039215803146,0.498039215803146,0.498039215803146);
#873=CARTESIAN_POINT('',(0.221729286755517,1.48352152778276,-20.2378871716097));
#874=CARTESIAN_POINT('',(0.242916664335146,1.48035483149223,-20.2591029518555));
#875=CARTESIAN_POINT('',(0.261318671695976,1.47711443847429,-20.2859780646235));
#876=CARTESIAN_POINT('',(0.285762500920564,1.47258083232378,-20.3449554464605));
#877=CARTESIAN_POINT('',(0.291800327062856,1.47134379705289,-20.3770636764107));
#878=CARTESIAN_POINT('',(0.291800327062856,1.47134379705289,-20.4072140041956));
#879=CARTESIAN_POINT('',(0.291800327062856,1.47134379705289,-20.4373643319804));
#880=CARTESIAN_POINT('',(0.285762500920564,1.47258083232378,-20.4694725619307));
#881=CARTESIAN_POINT('',(0.261318671695976,1.47711443847429,-20.5284499437677));
#882=CARTESIAN_POINT('',(0.242916664335146,1.48035483149223,-20.5553250565357));
#883=CARTESIAN_POINT('',(0.200487072889916,1.4866964199844,-20.5978115268238));
#884=CARTESIAN_POINT('',(0.173583194808326,1.49021764919555,-20.6162645841107));
#885=CARTESIAN_POINT('',(0.114535660161259,1.49591488728219,-20.6407802443434));
#886=CARTESIAN_POINT('',(0.0823855330622715,1.49804084650163,-20.6468388675916));
#887=CARTESIAN_POINT('',(0.022096731509681,1.5001391803914,-20.6468388675916));
#888=CARTESIAN_POINT('',(-0.00999262344409792,1.5002571208703,-20.6408272955109));
#889=CARTESIAN_POINT('',(-0.0690070987492234,1.49870253939413,-20.6163905501035));
#890=CARTESIAN_POINT('',(-0.0959341735062562,1.49708093351492,-20.5979668841244));
#891=CARTESIAN_POINT('',(-0.138477984082618,1.49374686847048,-20.555459464118));
#892=CARTESIAN_POINT('',(-0.156931372390204,1.49181914896708,-20.5285240496651));
#893=CARTESIAN_POINT('',(-0.181417959074004,1.48903974234222,-20.469470789854));
#894=CARTESIAN_POINT('',(-0.187449399729082,1.48824148663488,-20.4373497129873));
#895=CARTESIAN_POINT('',(-0.187449399729082,1.48824148663488,-20.3770782954039));
#896=CARTESIAN_POINT('',(-0.181417959074004,1.48903974234222,-20.3449572185372));
#897=CARTESIAN_POINT('',(-0.156931372390204,1.49181914896708,-20.2859039587261));
#898=CARTESIAN_POINT('',(-0.138477984082618,1.49374686847048,-20.2589685442732));
#899=CARTESIAN_POINT('',(-0.117192388826773,1.49541497384541,-20.2377011560123));
#900=PRE_DEFINED_MARKER('');
#901=COLOUR_RGB('',0.800000011920929,0.800000011920929,0.800000011920929);
#902=DRAUGHTING_PRE_DEFINED_CURVE_FONT('continuous');
#903=COLOUR_RGB('',0.800000011920929,0.800000011920929,0.800000011920929);
#904=AXIS2_PLACEMENT_3D('',#1443,#1444,#1445);
#905=DRAUGHTING_PRE_DEFINED_CURVE_FONT('continuous');
#906=COLOUR_RGB('',0.498039215803146,0.498039215803146,0.498039215803146);
#907=CARTESIAN_POINT('',(1.22430020223392E-016,-0.99975,-25.15));
#908=VECTOR('',#1446,1.0);
#909=DRAUGHTING_PRE_DEFINED_CURVE_FONT('continuous');
#910=COLOUR_RGB('',0.498039215803146,0.498039215803146,0.498039215803146);
#911=CARTESIAN_POINT('',(0.221729286755517,1.48352152778276,-20.2378871716097));
#912=CARTESIAN_POINT('',(0.242916664335146,1.48035483149223,-20.2591029518555));
#913=CARTESIAN_POINT('',(0.261318671695976,1.47711443847429,-20.2859780646235));
#914=CARTESIAN_POINT('',(0.285762500920564,1.47258083232378,-20.3449554464605));
#915=CARTESIAN_POINT('',(0.291800327062856,1.47134379705289,-20.3770636764107));
#916=CARTESIAN_POINT('',(0.291800327062856,1.47134379705289,-20.4072140041956));
#917=CARTESIAN_POINT('',(0.291800327062856,1.47134379705289,-20.4373643319804));
#918=CARTESIAN_POINT('',(0.285762500920564,1.47258083232378,-20.4694725619307));
#919=CARTESIAN_POINT('',(0.261318671695976,1.47711443847429,-20.5284499437677));
#920=CARTESIAN_POINT('',(0.242916664335146,1.48035483149223,-20.5553250565357));
#921=CARTESIAN_POINT('',(0.200487072889916,1.4866964199844,-20.5978115268238));
#922=CARTESIAN_POINT('',(0.173583194808326,1.49021764919555,-20.6162645841107));
#923=CARTESIAN_POINT('',(0.114535660161259,1.49591488728219,-20.6407802443434));
#924=CARTESIAN_POINT('',(0.0823855330622715,1.49804084650163,-20.6468388675916));
#925=CARTESIAN_POINT('',(0.022096731509681,1.5001391803914,-20.6468388675916));
#926=CARTESIAN_POINT('',(-0.00999262344409792,1.5002571208703,-20.6408272955109));
#927=CARTESIAN_POINT('',(-0.0690070987492234,1.49870253939413,-20.6163905501035));
#928=CARTESIAN_POINT('',(-0.0959341735062562,1.49708093351492,-20.5979668841244));
#929=CARTESIAN_POINT('',(-0.138477984082618,1.49374686847048,-20.555459464118));
#930=CARTESIAN_POINT('',(-0.156931372390204,1.49181914896708,-20.5285240496651));
#931=CARTESIAN_POINT('',(-0.181417959074004,1.48903974234222,-20.469470789854));
#932=CARTESIAN_POINT('',(-0.187449399729082,1.48824148663488,-20.4373497129873));
#933=CARTESIAN_POINT('',(-0.187449399729082,1.48824148663488,-20.3770782954039));
#934=CARTESIAN_POINT('',(-0.181417959074004,1.48903974234222,-20.3449572185372));
#935=CARTESIAN_POINT('',(-0.156931372390204,1.49181914896708,-20.2859039587261));
#936=CARTESIAN_POINT('',(-0.138477984082618,1.49374686847048,-20.2589685442732));
#937=CARTESIAN_POINT('',(-0.117192388826773,1.49541497384541,-20.2377011560123));
#938=DRAUGHTING_PRE_DEFINED_CURVE_FONT('continuous');
#939=COLOUR_RGB('',0.200000002980232,0.600000023841858,1.0);
#940=AXIS2_PLACEMENT_3D('',#1447,#1448,#1449);
#941=DRAUGHTING_PRE_DEFINED_CURVE_FONT('continuous');
#942=COLOUR_RGB('',0.200000002980232,0.600000023841858,1.0);
#943=CARTESIAN_POINT('',(0.291186927252986,0.0,-20.7399643865364));
#944=VECTOR('',#1450,1.0);
#945=PRE_DEFINED_MARKER('');
#946=COLOUR_RGB('',0.498039215803146,0.498039215803146,0.498039215803146);
#947=PRE_DEFINED_MARKER('');
#948=COLOUR_RGB('',0.200000002980232,0.600000023841858,1.0);
#949=PRE_DEFINED_MARKER('');
#950=COLOUR_RGB('',0.200000002980232,0.600000023841858,1.0);
#951=SURFACE_SIDE_STYLE('',(#1451));
#952=EDGE_LOOP('',(#1452,#1453,#1454,#1455));
#953=AXIS2_PLACEMENT_3D('',#1456,#1457,#1458);
#954=DRAUGHTING_PRE_DEFINED_CURVE_FONT('continuous');
#955=COLOUR_RGB('',0.498039215803146,0.498039215803146,0.498039215803146);
#956=AXIS2_PLACEMENT_3D('',#1459,#1460,#1461);
#957=DRAUGHTING_PRE_DEFINED_CURVE_FONT('continuous');
#958=COLOUR_RGB('',0.200000002980232,0.600000023841858,1.0);
#959=CARTESIAN_POINT('',(-0.162126314794348,1.43475451892426,-20.5144279161002));
#960=VECTOR('',#1462,1.0);
#961=PRE_DEFINED_MARKER('');
#962=COLOUR_RGB('',0.498039215803146,0.498039215803146,0.498039215803146);
#963=DRAUGHTING_PRE_DEFINED_CURVE_FONT('continuous');
#964=COLOUR_RGB('',0.498039215803146,0.498039215803146,0.498039215803146);
#965=AXIS2_PLACEMENT_3D('',#1463,#1464,#1465);
#966=SURFACE_SIDE_STYLE('',(#1466));
#967=EDGE_LOOP('',(#1467,#1468,#1469,#1470,#1471));
#968=AXIS2_PLACEMENT_3D('',#1472,#1473,#1474);
#969=DRAUGHTING_PRE_DEFINED_CURVE_FONT('continuous');
#970=COLOUR_RGB('',0.498039215803146,0.498039215803146,0.498039215803146);
#971=CARTESIAN_POINT('',(-1.22430020223392E-016,0.99975,-25.15));
#972=VECTOR('',#1475,1.0);
#973=DRAUGHTING_PRE_DEFINED_CURVE_FONT('continuous');
#974=COLOUR_RGB('',0.200000002980232,0.600000023841858,1.0);
#975=CARTESIAN_POINT('',(0.445736688382193,0.0,-21.0633885667752));
#976=VECTOR('',#1476,1.0);
#977=PRE_DEFINED_MARKER('');
#978=COLOUR_RGB('',0.498039215803146,0.498039215803146,0.498039215803146);
#979=SURFACE_SIDE_STYLE('',(#1477));
#980=EDGE_LOOP('',(#1478,#1479));
#981=AXIS2_PLACEMENT_3D('',#1480,#1481,#1482);
#982=DRAUGHTING_PRE_DEFINED_CURVE_FONT('continuous');
#983=COLOUR_RGB('',0.800000011920929,0.800000011920929,0.800000011920929);
#984=CARTESIAN_POINT('',(-0.5,-6.12303176911189E-017,-32.40900744));
#985=VECTOR('',#1483,1.0);
#986=PRE_DEFINED_MARKER('');
#987=COLOUR_RGB('',0.498039215803146,0.498039215803146,0.498039215803146);
#988=PRE_DEFINED_MARKER('');
#989=COLOUR_RGB('',0.200000002980232,0.600000023841858,1.0);
#990=PRE_DEFINED_MARKER('');
#991=COLOUR_RGB('',0.498039215803146,0.498039215803146,0.498039215803146);
#992=SURFACE_SIDE_STYLE('',(#1484));
#993=EDGE_LOOP('',(#1485,#1486,#1487,#1488));
#994=AXIS2_PLACEMENT_3D('',#1489,#1490,#1491);
#995=DRAUGHTING_PRE_DEFINED_CURVE_FONT('continuous');
#996=COLOUR_RGB('',0.498039215803146,0.498039215803146,0.498039215803146);
#997=CARTESIAN_POINT('',(6.11690873734277E-017,-0.4995,-28.5));
#998=VECTOR('',#1492,1.0);
#999=DRAUGHTING_PRE_DEFINED_CURVE_FONT('continuous');
#1000=COLOUR_RGB('',0.498039215803146,0.498039215803146,0.498039215803146);
#1001=CARTESIAN_POINT('',(-1.65321857766021E-016,1.35,-0.150000000000002));
#1002=VECTOR('',#1493,1.0);
#1003=DRAUGHTING_PRE_DEFINED_CURVE_FONT('continuous');
#1004=COLOUR_RGB('',0.498039215803146,0.498039215803146,0.498039215803146);
#1005=CARTESIAN_POINT('',(-1.83690953073357E-016,1.5,-11.8));
#1006=VECTOR('',#1494,1.0);
#1007=DRAUGHTING_PRE_DEFINED_CURVE_FONT('continuous');
#1008=COLOUR_RGB('',0.800000011920929,0.800000011920929,0.800000011920929);
#1009=AXIS2_PLACEMENT_3D('',#1495,#1496,#1497);
#1010=DRAUGHTING_PRE_DEFINED_CURVE_FONT('continuous');
#1011=COLOUR_RGB('',0.200000002980232,0.600000023841858,1.0);
#1012=CARTESIAN_POINT('',(0.445736688382193,0.0,-20.4716828121607));
#1013=VECTOR('',#1498,1.0);
#1014=DRAUGHTING_PRE_DEFINED_CURVE_FONT('continuous');
#1015=COLOUR_RGB('',0.498039215803146,0.498039215803146,0.498039215803146);
#1016=AXIS2_PLACEMENT_3D('',#1499,#1500,#1501);
#1017=DRAUGHTING_PRE_DEFINED_CURVE_FONT('continuous');
#1018=COLOUR_RGB('',0.200000002980232,0.600000023841858,1.0);
#1019=CARTESIAN_POINT('',(-0.345024467969599,0.0,-20.4057073995657));
#1020=VECTOR('',#1502,1.0);
#1021=DRAUGHTING_PRE_DEFINED_CURVE_FONT('continuous');
#1022=COLOUR_RGB('',0.498039215803146,0.498039215803146,0.498039215803146);
#1023=AXIS2_PLACEMENT_3D('',#1503,#1504,#1505);
#1024=DRAUGHTING_PRE_DEFINED_CURVE_FONT('continuous');
#1025=COLOUR_RGB('',0.498039215803146,0.498039215803146,0.498039215803146);
#1026=AXIS2_PLACEMENT_3D('',#1506,#1507,#1508);
#1027=DRAUGHTING_PRE_DEFINED_CURVE_FONT('continuous');
#1028=COLOUR_RGB('',0.200000002980232,0.600000023841858,1.0);
#1029=CARTESIAN_POINT('',(0.199180077969661,1.38575874398829,-20.2663376898337));
#1030=CARTESIAN_POINT('',(0.265951883202218,1.37616139272086,-20.294132871577));
#1031=CARTESIAN_POINT('',(0.32653702515263,1.36228968737254,-20.335791803325));
#1032=CARTESIAN_POINT('',(0.422198144050778,1.33574583015829,-20.431403214734));
#1033=CARTESIAN_POINT('',(0.463869843250633,1.32125219566903,-20.491992181706));
#1034=CARTESIAN_POINT('',(0.491686345368979,1.31081827030969,-20.5587635512681));
#1035=DRAUGHTING_PRE_DEFINED_CURVE_FONT('continuous');
#1036=COLOUR_RGB('',0.498039215803146,0.498039215803146,0.498039215803146);
#1037=AXIS2_PLACEMENT_3D('',#1509,#1510,#1511);
#1038=SURFACE_SIDE_STYLE('',(#1512));
#1039=EDGE_LOOP('',(#1513,#1514,#1515,#1516,#1517,#1518,#1519,#1520,#1521,#1522,#1523));
#1040=AXIS2_PLACEMENT_3D('',#1524,#1525,#1526);
#1041=PRE_DEFINED_MARKER('');
#1042=COLOUR_RGB('',0.498039215803146,0.498039215803146,0.498039215803146);
#1043=PRE_DEFINED_MARKER('');
#1044=COLOUR_RGB('',0.498039215803146,0.498039215803146,0.498039215803146);
#1045=DRAUGHTING_PRE_DEFINED_CURVE_FONT('continuous');
#1046=COLOUR_RGB('',0.200000002980232,0.600000023841858,1.0);
#1047=CARTESIAN_POINT('',(0.291186927252985,0.0,-21.219578393051));
#1048=VECTOR('',#1527,1.0);
#1049=SURFACE_SIDE_STYLE('',(#1528));
#1050=PRE_DEFINED_MARKER('');
#1051=COLOUR_RGB('',0.498039215803146,0.498039215803146,0.498039215803146);
#1052=DRAUGHTING_PRE_DEFINED_CURVE_FONT('continuous');
#1053=COLOUR_RGB('',0.498039215803146,0.498039215803146,0.498039215803146);
#1054=CARTESIAN_POINT('',(0.199061849002132,1.48673278711134,-21.2687828857748));
#1055=CARTESIAN_POINT('',(0.26584706721545,1.47779077066393,-21.2410006035898));
#1056=CARTESIAN_POINT('',(0.326493342418221,1.4648697423439,-21.1993265217779));
#1057=CARTESIAN_POINT('',(0.422252417114927,1.44019132283688,-21.1036106277201));
#1058=CARTESIAN_POINT('',(0.463941140424695,1.42675317793293,-21.04295936927));
#1059=CARTESIAN_POINT('',(0.491743345585499,1.4171056707502,-20.9761709487976));
#1060=DRAUGHTING_PRE_DEFINED_CURVE_FONT('continuous');
#1061=COLOUR_RGB('',0.800000011920929,0.800000011920929,0.800000011920929);
#1062=CARTESIAN_POINT('',(-0.25,-3.06151588455594E-017,-34.90900744));
#1063=VECTOR('',#1529,1.0);
#1064=DRAUGHTING_PRE_DEFINED_CURVE_FONT('continuous');
#1065=COLOUR_RGB('',0.200000002980232,0.600000023841858,1.0);
#1066=CARTESIAN_POINT('',(0.49168634271913,1.31081827130365,-20.9763078322725));
#1067=CARTESIAN_POINT('',(0.463869841580195,1.32125219623147,-21.0430791995198));
#1068=CARTESIAN_POINT('',(0.422198143844178,1.33574583015858,-21.103668164395));
#1069=CARTESIAN_POINT('',(0.326537028272234,1.36228968656385,-21.1992795725562));
#1070=CARTESIAN_POINT('',(0.26595188839063,1.37616139160821,-21.2409385029054));
#1071=CARTESIAN_POINT('',(0.199180085429989,1.38575874291599,-21.2687336837202));
#1072=PRE_DEFINED_MARKER('');
#1073=COLOUR_RGB('',0.800000011920929,0.800000011920929,0.800000011920929);
#1074=PRE_DEFINED_MARKER('');
#1075=COLOUR_RGB('',0.498039215803146,0.498039215803146,0.498039215803146);
#1076=SURFACE_SIDE_STYLE('',(#1530));
#1077=EDGE_LOOP('',(#1531,#1532,#1533,#1534));
#1078=AXIS2_PLACEMENT_3D('',#1535,#1536,#1537);
#1079=DRAUGHTING_PRE_DEFINED_CURVE_FONT('continuous');
#1080=COLOUR_RGB('',0.200000002980232,0.600000023841858,1.0);
#1081=CARTESIAN_POINT('',(-0.117181624611206,1.39508726137596,-20.237690401687));
#1082=CARTESIAN_POINT('',(-0.138468766914005,1.39329922847835,-20.2589566347354));
#1083=CARTESIAN_POINT('',(-0.156923895536923,1.39123221227467,-20.2858905726496));
#1084=CARTESIAN_POINT('',(-0.181415217899851,1.38825094909163,-20.344945964173));
#1085=CARTESIAN_POINT('',(-0.187449399729082,1.38739422030698,-20.3770711417381));
#1086=CARTESIAN_POINT('',(-0.187449399729082,1.38739422030698,-20.4373568666531));
#1087=CARTESIAN_POINT('',(-0.181415217899851,1.38825094909163,-20.4694820442182));
#1088=CARTESIAN_POINT('',(-0.156923895536921,1.39123221227467,-20.5285374357416));
#1089=CARTESIAN_POINT('',(-0.138468766914005,1.39329922847835,-20.5554713736558));
#1090=CARTESIAN_POINT('',(-0.0959259586970276,1.39687265038565,-20.5979723942817));
#1091=CARTESIAN_POINT('',(-0.0690015844676661,1.39861004085185,-20.6163934152249));
#1092=CARTESIAN_POINT('',(-0.00999068415960253,1.40027549119428,-20.6408275166926));
#1093=CARTESIAN_POINT('',(0.0220980814635059,1.40014912846684,-20.6468388675916));
#1094=CARTESIAN_POINT('',(0.0824038797008532,1.39790007820479,-20.6468388675916));
#1095=CARTESIAN_POINT('',(0.114562559826976,1.39562045177,-20.6407733890513));
#1096=CARTESIAN_POINT('',(0.173611467778051,1.38951073541202,-20.6162485285127));
#1097=CARTESIAN_POINT('',(0.200509103726029,1.38573400073898,-20.5977937209248));
#1098=CARTESIAN_POINT('',(0.24292053335399,1.37893056499176,-20.5553169370546));
#1099=CARTESIAN_POINT('',(0.261316537705005,1.37545227066293,-20.5284524064416));
#1100=CARTESIAN_POINT('',(0.285758720113014,1.37058280964528,-20.4694843696622));
#1101=CARTESIAN_POINT('',(0.291800327062856,1.36925255856106,-20.4373739545128));
#1102=CARTESIAN_POINT('',(0.291800327062856,1.36925255856106,-20.4072140041956));
#1103=CARTESIAN_POINT('',(0.291800327062856,1.36925255856106,-20.3770229693381));
#1104=CARTESIAN_POINT('',(0.285746378113902,1.3705855963343,-20.3448817225855));
#1105=CARTESIAN_POINT('',(0.261258051765335,1.37546359362798,-20.28586673519));
#1106=CARTESIAN_POINT('',(0.242828249769718,1.37894741485181,-20.258986058602));
#1107=CARTESIAN_POINT('',(0.221615829515077,1.38234815589574,-20.2377736383474));
#1108=PRE_DEFINED_MARKER('');
#1109=COLOUR_RGB('',0.498039215803146,0.498039215803146,0.498039215803146);
#1110=DRAUGHTING_PRE_DEFINED_CURVE_FONT('continuous');
#1111=COLOUR_RGB('',0.498039215803146,0.498039215803146,0.498039215803146);
#1112=CARTESIAN_POINT('',(-0.31486890626942,1.46658023028565,-20.2574949574025));
#1113=CARTESIAN_POINT('',(-0.335050458532667,1.46224733367956,-20.3060820694257));
#1114=CARTESIAN_POINT('',(-0.345036339300621,1.45977735444897,-20.3590167931671));
#1115=CARTESIAN_POINT('',(-0.345036339300621,1.45977735444897,-20.4585177806548));
#1116=CARTESIAN_POINT('',(-0.335050458532666,1.46224733367956,-20.5114525043962));
#1117=CARTESIAN_POINT('',(-0.294687354006184,1.47091312689174,-20.6086267284426));
#1118=CARTESIAN_POINT('',(-0.2643193819444,1.47695271033967,-20.6528839400996));
#1119=CARTESIAN_POINT('',(-0.194416198846917,1.48776678314766,-20.7226824192427));
#1120=CARTESIAN_POINT('',(-0.150190002765005,1.49325454353536,-20.7529651939691));
#1121=CARTESIAN_POINT('',(-0.0531271239485849,1.49984788471278,-20.7931900793177));
#1122=CARTESIAN_POINT('',(-0.000277601456355976,1.50082058647412,-20.8031228766955));
#1123=CARTESIAN_POINT('',(0.0992584208997283,1.49754612136718,-20.8031228766955));
#1124=CARTESIAN_POINT('',(0.152267005818254,1.49305636381024,-20.7930669468251));
#1125=CARTESIAN_POINT('',(0.200841428620677,1.48649343104825,-20.7728515638676));
#1126=SURFACE_SIDE_STYLE('',(#1538));
#1127=EDGE_LOOP('',(#1539,#1540,#1541,#1542));
#1128=AXIS2_PLACEMENT_3D('',#1543,#1544,#1545);
#1129=DRAUGHTING_PRE_DEFINED_CURVE_FONT('continuous');
#1130=COLOUR_RGB('',0.498039215803146,0.498039215803146,0.498039215803146);
#1131=CARTESIAN_POINT('',(-1.83690953073357E-016,1.5,-11.8));
#1132=VECTOR('',#1546,1.0);
#1133=PRE_DEFINED_MARKER('');
#1134=COLOUR_RGB('',0.498039215803146,0.498039215803146,0.498039215803146);
#1135=DRAUGHTING_PRE_DEFINED_CURVE_FONT('continuous');
#1136=COLOUR_RGB('',0.800000011920929,0.800000011920929,0.800000011920929);
#1137=CARTESIAN_POINT('',(0.25,3.06151588455594E-017,-34.90900744));
#1138=VECTOR('',#1547,1.0);
#1139=PRE_DEFINED_MARKER('');
#1140=COLOUR_RGB('',0.800000011920929,0.800000011920929,0.800000011920929);
#1141=DRAUGHTING_PRE_DEFINED_CURVE_FONT('continuous');
#1142=COLOUR_RGB('',0.498039215803146,0.498039215803146,0.498039215803146);
#1143=CARTESIAN_POINT('',(1.65321857766021E-016,-1.35,-0.150000000000002));
#1144=VECTOR('',#1548,1.0);
#1145=DRAUGHTING_PRE_DEFINED_CURVE_FONT('continuous');
#1146=COLOUR_RGB('',0.498039215803146,0.498039215803146,0.498039215803146);
#1147=CARTESIAN_POINT('',(1.83690953073357E-016,-1.5,-11.8));
#1148=VECTOR('',#1549,1.0);
#1149=PRE_DEFINED_MARKER('');
#1150=COLOUR_RGB('',0.498039215803146,0.498039215803146,0.498039215803146);
#1151=PRE_DEFINED_MARKER('');
#1152=COLOUR_RGB('',0.498039215803146,0.498039215803146,0.498039215803146);
#1153=DRAUGHTING_PRE_DEFINED_CURVE_FONT('continuous');
#1154=COLOUR_RGB('',0.498039215803146,0.498039215803146,0.498039215803146);
#1155=CARTESIAN_POINT('',(0.291186927252986,1.4714653150506,-20.9797713897937));
#1156=VECTOR('',#1550,1.0);
#1157=DRAUGHTING_PRE_DEFINED_CURVE_FONT('continuous');
#1158=COLOUR_RGB('',0.200000002980232,0.600000023841858,1.0);
#1159=CARTESIAN_POINT('',(0.445736688382193,1.32714686626239,-20.767535689468));
#1160=VECTOR('',#1551,1.0);
#1161=SURFACE_SIDE_STYLE('',(#1552));
#1162=EDGE_LOOP('',(#1553,#1554,#1555,#1556));
#1163=AXIS2_PLACEMENT_3D('',#1557,#1558,#1559);
#1164=PRE_DEFINED_MARKER('');
#1165=COLOUR_RGB('',0.800000011920929,0.800000011920929,0.800000011920929);
#1166=PRE_DEFINED_MARKER('');
#1167=COLOUR_RGB('',0.200000002980232,0.600000023841858,1.0);
#1168=SURFACE_SIDE_STYLE('',(#1560));
#1169=EDGE_LOOP('',(#1561,#1562));
#1170=AXIS2_PLACEMENT_3D('',#1563,#1564,#1565);
#1171=PRE_DEFINED_MARKER('');
#1172=COLOUR_RGB('',0.498039215803146,0.498039215803146,0.498039215803146);
#1173=SURFACE_SIDE_STYLE('',(#1566));
#1174=EDGE_LOOP('',(#1567,#1568,#1569,#1570,#1571));
#1175=AXIS2_PLACEMENT_3D('',#1572,#1573,#1574);
#1176=PRE_DEFINED_MARKER('');
#1177=COLOUR_RGB('',0.498039215803146,0.498039215803146,0.498039215803146);
#1178=PRE_DEFINED_MARKER('');
#1179=COLOUR_RGB('',0.498039215803146,0.498039215803146,0.498039215803146);
#1180=PRE_DEFINED_MARKER('');
#1181=COLOUR_RGB('',0.200000002980232,0.600000023841858,1.0);
#1182=PRE_DEFINED_MARKER('');
#1183=COLOUR_RGB('',0.200000002980232,0.600000023841858,1.0);
#1184=DRAUGHTING_PRE_DEFINED_CURVE_FONT('continuous');
#1185=COLOUR_RGB('',0.498039215803146,0.498039215803146,0.498039215803146);
#1186=AXIS2_PLACEMENT_3D('',#1575,#1576,#1577);
#1187=SURFACE_SIDE_STYLE('',(#1578));
#1188=EDGE_LOOP('',(#1579,#1580,#1581,#1582));
#1189=AXIS2_PLACEMENT_3D('',#1583,#1584,#1585);
#1190=PRE_DEFINED_MARKER('');
#1191=COLOUR_RGB('',0.200000002980232,0.600000023841858,1.0);
#1192=PRE_DEFINED_MARKER('');
#1193=COLOUR_RGB('',0.498039215803146,0.498039215803146,0.498039215803146);
#1194=SURFACE_SIDE_STYLE('',(#1586));
#1195=EDGE_LOOP('',(#1587,#1588,#1589,#1590));
#1196=AXIS2_PLACEMENT_3D('',#1591,#1592,#1593);
#1197=DRAUGHTING_PRE_DEFINED_CURVE_FONT('continuous');
#1198=COLOUR_RGB('',0.200000002980232,0.600000023841858,1.0);
#1199=CARTESIAN_POINT('',(0.266477242128121,0.0,-20.300000092291));
#1200=VECTOR('',#1594,1.0);
#1201=PRE_DEFINED_MARKER('');
#1202=COLOUR_RGB('',0.498039215803146,0.498039215803146,0.498039215803146);
#1203=DRAUGHTING_PRE_DEFINED_CURVE_FONT('continuous');
#1204=COLOUR_RGB('',0.800000011920929,0.800000011920929,0.800000011920929);
#1205=AXIS2_PLACEMENT_3D('',#1595,#1596,#1597);
#1206=SURFACE_SIDE_STYLE('',(#1598));
#1207=EDGE_LOOP('',(#1599,#1600,#1601,#1602));
#1208=AXIS2_PLACEMENT_3D('',#1603,#1604,#1605);
#1209=DRAUGHTING_PRE_DEFINED_CURVE_FONT('continuous');
#1210=COLOUR_RGB('',0.200000002980232,0.600000023841858,1.0);
#1211=CARTESIAN_POINT('',(0.291186927252986,1.36938313608609,-20.9797713897937));
#1212=VECTOR('',#1606,1.0);
#1213=DRAUGHTING_PRE_DEFINED_CURVE_FONT('continuous');
#1214=COLOUR_RGB('',0.498039215803146,0.498039215803146,0.498039215803146);
#1215=CARTESIAN_POINT('',(-0.510663884086716,1.41039795713461,-20.9761414932216));
#1216=CARTESIAN_POINT('',(-0.48288219532452,1.42045688567568,-21.0428917331796));
#1217=CARTESIAN_POINT('',(-0.441244348092513,1.43448916486863,-21.1034830495674));
#1218=CARTESIAN_POINT('',(-0.345596761760871,1.46048597628377,-21.199175425681));
#1219=CARTESIAN_POINT('',(-0.284974339318755,1.47422809273278,-21.2408778107875));
#1220=CARTESIAN_POINT('',(-0.151371949196349,1.49386926357127,-21.2965191841322));
#1221=CARTESIAN_POINT('',(-0.0783437509828542,1.49953600664492,-21.3104241111695));
#1222=CARTESIAN_POINT('',(0.059308117302166,1.50040360289934,-21.3104241111695));
#1223=CARTESIAN_POINT('',(0.132276716500884,1.49567479625857,-21.2965653151316));
#1224=CARTESIAN_POINT('',(0.199061940328443,1.48673277488346,-21.2687830304685));
#1225=DRAUGHTING_PRE_DEFINED_CURVE_FONT('continuous');
#1226=COLOUR_RGB('',0.200000002980232,0.600000023841858,1.0);
#1227=CARTESIAN_POINT('',(0.191042345276873,0.0,-20.7767766558089));
#1228=VECTOR('',#1607,1.0);
#1229=DRAUGHTING_PRE_DEFINED_CURVE_FONT('continuous');
#1230=COLOUR_RGB('',0.200000002980232,0.600000023841858,1.0);
#1231=CARTESIAN_POINT('',(-0.445684250814332,0.0,-21.0906934636265));
#1232=VECTOR('',#1608,1.0);
#1233=PRE_DEFINED_MARKER('');
#1234=COLOUR_RGB('',0.498039215803146,0.498039215803146,0.498039215803146);
#1235=DRAUGHTING_PRE_DEFINED_CURVE_FONT('continuous');
#1236=COLOUR_RGB('',0.498039215803146,0.498039215803146,0.498039215803146);
#1237=CARTESIAN_POINT('',(0.491743348242613,1.41710566982817,-20.5589004347604));
#1238=CARTESIAN_POINT('',(0.463941142106077,1.42675317740789,-20.4921120119755));
#1239=CARTESIAN_POINT('',(0.422252417336209,1.44019132283161,-20.4314607514286));
#1240=CARTESIAN_POINT('',(0.326493339315814,1.46486974309175,-20.3357448541153));
#1241=CARTESIAN_POINT('',(0.26584706204082,1.47779077169742,-20.2940707709));
#1242=CARTESIAN_POINT('',(0.199061841552507,1.48673278810879,-20.2662884877836));
#1243=PRE_DEFINED_MARKER('');
#1244=COLOUR_RGB('',0.200000002980232,0.600000023841858,1.0);
#1245=SURFACE_SIDE_STYLE('',(#1609));
#1246=EDGE_LOOP('',(#1610,#1611,#1612));
#1247=AXIS2_PLACEMENT_3D('',#1613,#1614,#1615);
#1248=PRE_DEFINED_MARKER('');
#1249=COLOUR_RGB('',0.200000002980232,0.600000023841858,1.0);
#1250=PRE_DEFINED_MARKER('');
#1251=COLOUR_RGB('',0.200000002980232,0.600000023841858,1.0);
#1252=DRAUGHTING_PRE_DEFINED_CURVE_FONT('continuous');
#1253=COLOUR_RGB('',0.498039215803146,0.498039215803146,0.498039215803146);
#1254=AXIS2_PLACEMENT_3D('',#1616,#1617,#1618);
#1255=SURFACE_SIDE_STYLE('',(#1619));
#1256=EDGE_LOOP('',(#1620,#1621,#1622));
#1257=AXIS2_PLACEMENT_3D('',#1623,#1624,#1625);
#1258=SURFACE_SIDE_STYLE('',(#1626));
#1259=EDGE_LOOP('',(#1627,#1628,#1629,#1630));
#1260=AXIS2_PLACEMENT_3D('',#1631,#1632,#1633);
#1261=SURFACE_SIDE_STYLE('',(#1634));
#1262=EDGE_LOOP('',(#1635,#1636,#1637,#1638));
#1263=AXIS2_PLACEMENT_3D('',#1639,#1640,#1641);
#1264=DRAUGHTING_PRE_DEFINED_CURVE_FONT('continuous');
#1265=COLOUR_RGB('',0.498039215803146,0.498039215803146,0.498039215803146);
#1266=AXIS2_PLACEMENT_3D('',#1642,#1643,#1644);
#1267=DRAUGHTING_PRE_DEFINED_CURVE_FONT('continuous');
#1268=COLOUR_RGB('',0.498039215803146,0.498039215803146,0.498039215803146);
#1269=CARTESIAN_POINT('',(-0.31486890626942,1.46658023028565,-20.2574949574025));
#1270=CARTESIAN_POINT('',(-0.335050458532667,1.46224733367956,-20.3060820694257));
#1271=CARTESIAN_POINT('',(-0.345036339300621,1.45977735444897,-20.3590167931671));
#1272=CARTESIAN_POINT('',(-0.345036339300621,1.45977735444897,-20.4585177806548));
#1273=CARTESIAN_POINT('',(-0.335050458532666,1.46224733367956,-20.5114525043962));
#1274=CARTESIAN_POINT('',(-0.294687354006184,1.47091312689174,-20.6086267284426));
#1275=CARTESIAN_POINT('',(-0.2643193819444,1.47695271033967,-20.6528839400996));
#1276=CARTESIAN_POINT('',(-0.194416198846917,1.48776678314766,-20.7226824192427));
#1277=CARTESIAN_POINT('',(-0.150190002765005,1.49325454353536,-20.7529651939691));
#1278=CARTESIAN_POINT('',(-0.0531271239485849,1.49984788471278,-20.7931900793177));
#1279=CARTESIAN_POINT('',(-0.000277601456355976,1.50082058647412,-20.8031228766955));
#1280=CARTESIAN_POINT('',(0.0992584208997283,1.49754612136718,-20.8031228766955));
#1281=CARTESIAN_POINT('',(0.152267005818254,1.49305636381024,-20.7930669468251));
#1282=CARTESIAN_POINT('',(0.200841428620677,1.48649343104825,-20.7728515638676));
#1283=SURFACE_SIDE_STYLE('',(#1645));
#1284=EDGE_LOOP('',(#1646,#1647));
#1285=AXIS2_PLACEMENT_3D('',#1648,#1649,#1650);
#1286=SURFACE_SIDE_STYLE('',(#1651));
#1287=EDGE_LOOP('',(#1652,#1653,#1654,#1655,#1656));
#1288=AXIS2_PLACEMENT_3D('',#1657,#1658,#1659);
#1289=DRAUGHTING_PRE_DEFINED_CURVE_FONT('continuous');
#1290=COLOUR_RGB('',0.498039215803146,0.498039215803146,0.498039215803146);
#1291=AXIS2_PLACEMENT_3D('',#1660,#1661,#1662);
#1292=PRE_DEFINED_MARKER('');
#1293=COLOUR_RGB('',0.498039215803146,0.498039215803146,0.498039215803146);
#1294=DRAUGHTING_PRE_DEFINED_CURVE_FONT('continuous');
#1295=COLOUR_RGB('',0.200000002980232,0.600000023841858,1.0);
#1296=CARTESIAN_POINT('',(0.199180176910605,1.38575872976715,-21.2687338283494));
#1297=CARTESIAN_POINT('',(0.132408368329895,1.39535608638171,-21.296529011669));
#1298=CARTESIAN_POINT('',(0.0593995279736127,1.40043305029661,-21.3104241111695));
#1299=CARTESIAN_POINT('',(-0.0784552747615232,1.39950210972247,-21.3104241111695));
#1300=CARTESIAN_POINT('',(-0.151533246961655,1.3934165949244,-21.296475505556));
#1301=CARTESIAN_POINT('',(-0.285113817743684,1.37232730878111,-21.2407961721918));
#1302=CARTESIAN_POINT('',(-0.345671056748324,1.3575672374164,-21.1991045148745));
#1303=CARTESIAN_POINT('',(-0.441203038785691,1.32959281694928,-21.1035209583352));
#1304=CARTESIAN_POINT('',(-0.482815583798976,1.31445046880523,-21.0430016760065));
#1305=CARTESIAN_POINT('',(-0.510608347789735,1.30356400501373,-20.9762748784508));
#1306=SURFACE_SIDE_STYLE('',(#1663));
#1307=EDGE_LOOP('',(#1664,#1665,#1666,#1667,#1668,#1669,#1670,#1671,#1672,#1673,#1674,#1675));
#1308=AXIS2_PLACEMENT_3D('',#1676,#1677,#1678);
#1309=DRAUGHTING_PRE_DEFINED_CURVE_FONT('continuous');
#1310=COLOUR_RGB('',0.498039215803146,0.498039215803146,0.498039215803146);
#1311=CARTESIAN_POINT('',(-6.11690873734277E-017,0.4995,-28.5));
#1312=VECTOR('',#1679,1.0);
#1313=DRAUGHTING_PRE_DEFINED_CURVE_FONT('continuous');
#1314=COLOUR_RGB('',0.498039215803146,0.498039215803146,0.498039215803146);
#1315=CARTESIAN_POINT('',(0.445736688382193,1.43224257883575,-20.767535689468));
#1316=VECTOR('',#1680,1.0);
#1317=SURFACE_SIDE_STYLE('',(#1681));
#1318=EDGE_LOOP('',(#1682,#1683,#1684,#1685));
#1319=AXIS2_PLACEMENT_3D('',#1686,#1687,#1688);
#1320=DRAUGHTING_PRE_DEFINED_CURVE_FONT('continuous');
#1321=COLOUR_RGB('',0.200000002980232,0.600000023841858,1.0);
#1322=AXIS2_PLACEMENT_3D('',#1689,#1690,#1691);
#1323=PRE_DEFINED_MARKER('');
#1324=COLOUR_RGB('',0.800000011920929,0.800000011920929,0.800000011920929);
#1325=SURFACE_SIDE_STYLE('',(#1692));
#1326=EDGE_LOOP('',(#1693,#1694,#1695));
#1327=AXIS2_PLACEMENT_3D('',#1696,#1697,#1698);
#1328=PRE_DEFINED_MARKER('');
#1329=COLOUR_RGB('',0.498039215803146,0.498039215803146,0.498039215803146);
#1330=PRE_DEFINED_MARKER('');
#1331=COLOUR_RGB('',0.498039215803146,0.498039215803146,0.498039215803146);
#1332=DRAUGHTING_PRE_DEFINED_CURVE_FONT('continuous');
#1333=COLOUR_RGB('',0.800000011920929,0.800000011920929,0.800000011920929);
#1334=CARTESIAN_POINT('',(0.5,6.12303176911189E-017,-32.40900744));
#1335=VECTOR('',#1699,1.0);
#1336=SURFACE_SIDE_STYLE('',(#1700));
#1337=EDGE_LOOP('',(#1701,#1702,#1703,#1704));
#1338=AXIS2_PLACEMENT_3D('',#1705,#1706,#1707);
#1339=DRAUGHTING_PRE_DEFINED_CURVE_FONT('continuous');
#1340=COLOUR_RGB('',0.200000002980232,0.600000023841858,1.0);
#1341=CARTESIAN_POINT('',(-0.117181624611206,1.39508726137596,-20.237690401687));
#1342=CARTESIAN_POINT('',(-0.138468766914005,1.39329922847835,-20.2589566347354));
#1343=CARTESIAN_POINT('',(-0.156923895536923,1.39123221227467,-20.2858905726496));
#1344=CARTESIAN_POINT('',(-0.181415217899851,1.38825094909163,-20.344945964173));
#1345=CARTESIAN_POINT('',(-0.187449399729082,1.38739422030698,-20.3770711417381));
#1346=CARTESIAN_POINT('',(-0.187449399729082,1.38739422030698,-20.4373568666531));
#1347=CARTESIAN_POINT('',(-0.181415217899851,1.38825094909163,-20.4694820442182));
#1348=CARTESIAN_POINT('',(-0.156923895536921,1.39123221227467,-20.5285374357416));
#1349=CARTESIAN_POINT('',(-0.138468766914005,1.39329922847835,-20.5554713736558));
#1350=CARTESIAN_POINT('',(-0.0959259586970276,1.39687265038565,-20.5979723942817));
#1351=CARTESIAN_POINT('',(-0.0690015844676661,1.39861004085185,-20.6163934152249));
#1352=CARTESIAN_POINT('',(-0.00999068415960253,1.40027549119428,-20.6408275166926));
#1353=CARTESIAN_POINT('',(0.0220980814635059,1.40014912846684,-20.6468388675916));
#1354=CARTESIAN_POINT('',(0.0824038797008532,1.39790007820479,-20.6468388675916));
#1355=CARTESIAN_POINT('',(0.114562559826976,1.39562045177,-20.6407733890513));
#1356=CARTESIAN_POINT('',(0.173611467778051,1.38951073541202,-20.6162485285127));
#1357=CARTESIAN_POINT('',(0.200509103726029,1.38573400073898,-20.5977937209248));
#1358=CARTESIAN_POINT('',(0.24292053335399,1.37893056499176,-20.5553169370546));
#1359=CARTESIAN_POINT('',(0.261316537705005,1.37545227066293,-20.5284524064416));
#1360=CARTESIAN_POINT('',(0.285758720113014,1.37058280964528,-20.4694843696622));
#1361=CARTESIAN_POINT('',(0.291800327062856,1.36925255856106,-20.4373739545128));
#1362=CARTESIAN_POINT('',(0.291800327062856,1.36925255856106,-20.4072140041956));
#1363=CARTESIAN_POINT('',(0.291800327062856,1.36925255856106,-20.3770229693381));
#1364=CARTESIAN_POINT('',(0.285746378113902,1.3705855963343,-20.3448817225855));
#1365=CARTESIAN_POINT('',(0.261258051765335,1.37546359362798,-20.28586673519));
#1366=CARTESIAN_POINT('',(0.242828249769718,1.37894741485181,-20.258986058602));
#1367=CARTESIAN_POINT('',(0.221615829515077,1.38234815589574,-20.2377736383474));
#1368=DRAUGHTING_PRE_DEFINED_CURVE_FONT('continuous');
#1369=COLOUR_RGB('',0.800000011920929,0.800000011920929,0.800000011920929);
#1370=AXIS2_PLACEMENT_3D('',#1708,#1709,#1710);
#1371=DRAUGHTING_PRE_DEFINED_CURVE_FONT('continuous');
#1372=COLOUR_RGB('',0.498039215803146,0.498039215803146,0.498039215803146);
#1373=AXIS2_PLACEMENT_3D('',#1711,#1712,#1713);
#1374=DRAUGHTING_PRE_DEFINED_CURVE_FONT('continuous');
#1375=COLOUR_RGB('',0.498039215803146,0.498039215803146,0.498039215803146);
#1376=CARTESIAN_POINT('',(-1.83690953073357E-016,1.5,-11.8));
#1377=VECTOR('',#1714,1.0);
#1379=DIRECTION('',(0.0,1.0,0.0));
#1380=CARTESIAN_POINT('',(0.0,0.0,-0.300000000000001));
#1381=DIRECTION('',(0.0,0.0,-1.0));
#1382=DIRECTION('',(0.0,1.0,0.0));
#1383=CARTESIAN_POINT('',(0.0,0.0,-20.8709637112193));
#1384=DIRECTION('',(0.442195774284071,0.0,-0.896918556617774));
#1385=DIRECTION('',(0.896918556617774,0.0,0.442195774284071));
#1386=SURFACE_STYLE_FILL_AREA(#1715);
#1387=ORIENTED_EDGE('',*,*,#399,.F.);
#1388=ORIENTED_EDGE('',*,*,#269,.F.);
#1389=ORIENTED_EDGE('',*,*,#195,.F.);
#1390=ORIENTED_EDGE('',*,*,#373,.T.);
#1391=ORIENTED_EDGE('',*,*,#307,.F.);
#1392=CARTESIAN_POINT('',(0.0493192504839796,0.0,-20.4087672869109));
#1393=DIRECTION('',(-0.0,-1.0,-0.0));
#1394=DIRECTION('',(0.359378942416673,0.0,-0.933191714358563));
#1395=CARTESIAN_POINT('',(0.0,0.0,-0.300000000000001));
#1396=DIRECTION('',(0.0,0.0,-1.0));
#1397=DIRECTION('',(0.0,1.0,0.0));
#1398=DIRECTION('',(0.0,1.0,0.0));
#1399=SURFACE_STYLE_FILL_AREA(#1716);
#1400=CARTESIAN_POINT('',(0.0,0.0,-20.8709637112193));
#1401=DIRECTION('',(-0.442195774284071,0.0,0.896918556617774));
#1402=DIRECTION('',(0.896918556617774,-0.0,0.442195774284071));
#1403=SURFACE_STYLE_FILL_AREA(#1717);
#1404=ORIENTED_EDGE('',*,*,#247,.F.);
#1405=ORIENTED_EDGE('',*,*,#211,.T.);
#1406=ORIENTED_EDGE('',*,*,#429,.F.);
#1407=ORIENTED_EDGE('',*,*,#263,.F.);
#1408=CARTESIAN_POINT('',(0.0,0.0,-32.40900744));
#1409=DIRECTION('',(-0.0,-0.0,1.0));
#1410=DIRECTION('',(-1.0,0.0,0.0));
#1411=SURFACE_STYLE_FILL_AREA(#1718);
#1412=ORIENTED_EDGE('',*,*,#311,.F.);
#1413=ORIENTED_EDGE('',*,*,#181,.T.);
#1414=ORIENTED_EDGE('',*,*,#321,.F.);
#1415=ORIENTED_EDGE('',*,*,#235,.F.);
#1416=ORIENTED_EDGE('',*,*,#261,.F.);
#1417=ORIENTED_EDGE('',*,*,#171,.T.);
#1418=ORIENTED_EDGE('',*,*,#267,.T.);
#1419=ORIENTED_EDGE('',*,*,#327,.T.);
#1420=ORIENTED_EDGE('',*,*,#291,.T.);
#1421=ORIENTED_EDGE('',*,*,#415,.T.);
#1422=ORIENTED_EDGE('',*,*,#379,.T.);
#1423=ORIENTED_EDGE('',*,*,#215,.T.);
#1424=CARTESIAN_POINT('',(0.0,0.0,-11.8));
#1425=DIRECTION('',(-0.0,-0.0,1.0));
#1426=DIRECTION('',(0.0,1.0,0.0));
#1427=SURFACE_STYLE_FILL_AREA(#1719);
#1428=ORIENTED_EDGE('',*,*,#413,.F.);
#1429=ORIENTED_EDGE('',*,*,#437,.T.);
#1430=ORIENTED_EDGE('',*,*,#257,.F.);
#1431=ORIENTED_EDGE('',*,*,#405,.F.);
#1432=CARTESIAN_POINT('',(0.0,0.0,-28.5));
#1433=DIRECTION('',(-0.0,-0.0,1.0));
#1434=DIRECTION('',(0.0,1.0,0.0));
#1435=SURFACE_STYLE_FILL_AREA(#1720);
#1436=ORIENTED_EDGE('',*,*,#267,.F.);
#1437=ORIENTED_EDGE('',*,*,#169,.F.);
#1438=ORIENTED_EDGE('',*,*,#217,.F.);
#1439=ORIENTED_EDGE('',*,*,#219,.T.);
#1440=CARTESIAN_POINT('',(0.0967010423452768,0.0,-21.2999442996743));
#1441=DIRECTION('',(0.944648353914092,0.0,-0.328084573619969));
#1442=DIRECTION('',(-0.328084573619969,0.0,-0.944648353914092));
#1443=CARTESIAN_POINT('',(0.0,0.0,-30.0));
#1444=DIRECTION('',(0.0,0.0,-1.0));
#1445=DIRECTION('',(-1.0,0.0,0.0));
#1446=DIRECTION('',(3.19659722668462E-017,-0.261030592949893,0.965330528650279));
#1447=CARTESIAN_POINT('',(0.0,0.0,-21.5783739724423));
#1448=DIRECTION('',(-0.944648353914092,-0.0,0.328084573619969));
#1449=DIRECTION('',(0.328084573619969,0.0,0.944648353914092));
#1450=DIRECTION('',(0.0,1.0,0.0));
#1451=SURFACE_STYLE_FILL_AREA(#1721);
#1452=ORIENTED_EDGE('',*,*,#277,.F.);
#1453=ORIENTED_EDGE('',*,*,#183,.F.);
#1454=ORIENTED_EDGE('',*,*,#419,.F.);
#1455=ORIENTED_EDGE('',*,*,#269,.T.);
#1456=CARTESIAN_POINT('',(-0.187444663409338,0.0,-20.4057073995657));
#1457=DIRECTION('',(0.0,0.0,1.0));
#1458=DIRECTION('',(1.0,0.0,0.0));
#1459=CARTESIAN_POINT('',(0.0,0.0,0.0));
#1460=DIRECTION('',(0.0,0.0,-1.0));
#1461=DIRECTION('',(0.0,1.0,0.0));
#1462=DIRECTION('',(0.0,1.0,0.0));
#1463=CARTESIAN_POINT('',(0.0,0.0,-23.3));
#1464=DIRECTION('',(0.0,0.0,-1.0));
#1465=DIRECTION('',(0.0,1.0,0.0));
#1466=SURFACE_STYLE_FILL_AREA(#1722);
#1467=ORIENTED_EDGE('',*,*,#231,.T.);
#1468=ORIENTED_EDGE('',*,*,#207,.F.);
#1469=ORIENTED_EDGE('',*,*,#215,.F.);
#1470=ORIENTED_EDGE('',*,*,#361,.F.);
#1471=ORIENTED_EDGE('',*,*,#303,.F.);
#1472=CARTESIAN_POINT('',(0.0521754636668867,0.0,-20.4072140041956));
#1473=DIRECTION('',(0.0,-1.0,-0.0));
#1474=DIRECTION('',(0.894321964023871,0.0,0.447423987582791));
#1475=DIRECTION('',(3.19659722668462E-017,-0.261030592949893,-0.965330528650279));
#1476=DIRECTION('',(0.0,1.0,0.0));
#1477=SURFACE_STYLE_FILL_AREA(#1723);
#1478=ORIENTED_EDGE('',*,*,#229,.F.);
#1479=ORIENTED_EDGE('',*,*,#273,.F.);
#1480=CARTESIAN_POINT('',(0.0,0.6,0.0));
#1481=DIRECTION('',(-0.0,0.0,1.0));
#1482=DIRECTION('',(0.0,-1.0,0.0));
#1483=DIRECTION('',(0.0,0.0,-1.0));
#1484=SURFACE_STYLE_FILL_AREA(#1724);
#1485=ORIENTED_EDGE('',*,*,#291,.F.);
#1486=ORIENTED_EDGE('',*,*,#285,.F.);
#1487=ORIENTED_EDGE('',*,*,#295,.F.);
#1488=ORIENTED_EDGE('',*,*,#241,.T.);
#1489=CARTESIAN_POINT('',(-0.00945412946648461,0.0,-20.7675358341104));
#1490=DIRECTION('',(-0.0,-1.0,-0.0));
#1491=DIRECTION('',(0.838461542890049,0.0,-0.544960770234371));
#1492=DIRECTION('',(-0.0,-0.0,1.0));
#1493=DIRECTION('',(-8.65927457071934E-017,0.707106781186546,-0.707106781186549));
#1494=DIRECTION('',(0.0,0.0,-1.0));
#1495=CARTESIAN_POINT('',(0.0,0.0,-34.81801488));
#1496=DIRECTION('',(0.0,0.0,-1.0));
#1497=DIRECTION('',(-1.0,0.0,0.0));
#1498=DIRECTION('',(0.0,1.0,0.0));
#1499=CARTESIAN_POINT('',(0.0,0.0,-21.5783739724423));
#1500=DIRECTION('',(0.944648353914092,0.0,-0.328084573619969));
#1501=DIRECTION('',(0.328084573619969,-0.0,0.944648353914092));
#1502=DIRECTION('',(0.0,1.0,0.0));
#1503=CARTESIAN_POINT('',(0.0,0.0,-30.0));
#1504=DIRECTION('',(0.0,0.0,-1.0));
#1505=DIRECTION('',(0.0,1.0,0.0));
#1506=CARTESIAN_POINT('',(0.0,0.0,0.0));
#1507=DIRECTION('',(0.0,0.0,-1.0));
#1508=DIRECTION('',(0.0,1.0,0.0));
#1509=CARTESIAN_POINT('',(0.0,0.0,-20.4057073995657));
#1510=DIRECTION('',(0.0,-0.0,1.0));
#1511=DIRECTION('',(0.0,1.0,0.0));
#1512=SURFACE_STYLE_FILL_AREA(#1725);
#1513=ORIENTED_EDGE('',*,*,#177,.T.);
#1514=ORIENTED_EDGE('',*,*,#195,.T.);
#1515=ORIENTED_EDGE('',*,*,#419,.T.);
#1516=ORIENTED_EDGE('',*,*,#433,.T.);
#1517=ORIENTED_EDGE('',*,*,#303,.T.);
#1518=ORIENTED_EDGE('',*,*,#275,.T.);
#1519=ORIENTED_EDGE('',*,*,#329,.T.);
#1520=ORIENTED_EDGE('',*,*,#295,.T.);
#1521=ORIENTED_EDGE('',*,*,#369,.T.);
#1522=ORIENTED_EDGE('',*,*,#217,.T.);
#1523=ORIENTED_EDGE('',*,*,#409,.T.);
#1524=CARTESIAN_POINT('',(0.0,0.0,-20.8));
#1525=DIRECTION('',(-0.0,-0.0,1.0));
#1526=DIRECTION('',(1.0,0.0,0.0));
#1527=DIRECTION('',(0.0,1.0,0.0));
#1528=SURFACE_STYLE_FILL_AREA(#1726);
#1529=DIRECTION('',(0.939692619054236,1.15075355193381E-016,-0.342020148083399));
#1530=SURFACE_STYLE_FILL_AREA(#1727);
#1531=ORIENTED_EDGE('',*,*,#259,.F.);
#1532=ORIENTED_EDGE('',*,*,#229,.T.);
#1533=ORIENTED_EDGE('',*,*,#319,.F.);
#1534=ORIENTED_EDGE('',*,*,#181,.F.);
#1535=CARTESIAN_POINT('',(0.0,0.0,-0.150000000000002));
#1536=DIRECTION('',(0.0,-0.0,-1.0));
#1537=DIRECTION('',(0.0,1.0,0.0));
#1538=SURFACE_STYLE_FILL_AREA(#1728);
#1539=ORIENTED_EDGE('',*,*,#239,.T.);
#1540=ORIENTED_EDGE('',*,*,#351,.F.);
#1541=ORIENTED_EDGE('',*,*,#213,.T.);
#1542=ORIENTED_EDGE('',*,*,#397,.T.);
#1543=CARTESIAN_POINT('',(0.0,0.0,-25.15));
#1544=DIRECTION('',(-0.0,-0.0,1.0));
#1545=DIRECTION('',(0.0,1.0,0.0));
#1546=DIRECTION('',(0.0,0.0,-1.0));
#1547=DIRECTION('',(0.939692619054236,1.15075355193381E-016,0.342020148083399));
#1548=DIRECTION('',(-8.65927457071934E-017,0.707106781186546,0.707106781186549));
#1549=DIRECTION('',(-0.0,-0.0,1.0));
#1550=DIRECTION('',(0.0,0.0,-1.0));
#1551=DIRECTION('',(0.0,0.0,-1.0));
#1552=SURFACE_STYLE_FILL_AREA(#1729);
#1553=ORIENTED_EDGE('',*,*,#379,.F.);
#1554=ORIENTED_EDGE('',*,*,#265,.F.);
#1555=ORIENTED_EDGE('',*,*,#275,.F.);
#1556=ORIENTED_EDGE('',*,*,#361,.T.);
#1557=CARTESIAN_POINT('',(-0.00945414397777439,0.0,-20.7675355566928));
#1558=DIRECTION('',(0.0,-1.0,-0.0));
#1559=DIRECTION('',(0.508265629957899,0.0,0.861200353810599));
#1560=SURFACE_STYLE_FILL_AREA(#1730);
#1561=ORIENTED_EDGE('',*,*,#211,.F.);
#1562=ORIENTED_EDGE('',*,*,#365,.F.);
#1563=CARTESIAN_POINT('',(-0.25,0.0,-30.0));
#1564=DIRECTION('',(0.0,0.0,1.0));
#1565=DIRECTION('',(1.0,0.0,0.0));
#1566=SURFACE_STYLE_FILL_AREA(#1731);
#1567=ORIENTED_EDGE('',*,*,#371,.F.);
#1568=ORIENTED_EDGE('',*,*,#375,.F.);
#1569=ORIENTED_EDGE('',*,*,#409,.F.);
#1570=ORIENTED_EDGE('',*,*,#169,.T.);
#1571=ORIENTED_EDGE('',*,*,#171,.F.);
#1572=CARTESIAN_POINT('',(-0.00945405644865667,0.0,-20.7675359373674));
#1573=DIRECTION('',(-0.0,-1.0,-0.0));
#1574=DIRECTION('',(0.195537688821767,0.0,-0.980696187537324));
#1575=CARTESIAN_POINT('',(0.0,0.0,-27.0));
#1576=DIRECTION('',(0.0,0.0,-1.0));
#1577=DIRECTION('',(0.0,1.0,0.0));
#1578=SURFACE_STYLE_FILL_AREA(#1732);
#1579=ORIENTED_EDGE('',*,*,#415,.F.);
#1580=ORIENTED_EDGE('',*,*,#241,.F.);
#1581=ORIENTED_EDGE('',*,*,#329,.F.);
#1582=ORIENTED_EDGE('',*,*,#265,.T.);
#1583=CARTESIAN_POINT('',(0.445736688382193,0.0,-21.0633885667752));
#1584=DIRECTION('',(1.0,0.0,0.0));
#1585=DIRECTION('',(0.0,0.0,-1.0));
#1586=SURFACE_STYLE_FILL_AREA(#1733);
#1587=ORIENTED_EDGE('',*,*,#413,.T.);
#1588=ORIENTED_EDGE('',*,*,#271,.F.);
#1589=ORIENTED_EDGE('',*,*,#257,.T.);
#1590=ORIENTED_EDGE('',*,*,#351,.T.);
#1591=CARTESIAN_POINT('',(0.0,0.0,-28.5));
#1592=DIRECTION('',(-0.0,-0.0,1.0));
#1593=DIRECTION('',(0.0,1.0,0.0));
#1594=DIRECTION('',(0.0,1.0,0.0));
#1595=CARTESIAN_POINT('',(0.0,0.0,-30.0));
#1596=DIRECTION('',(0.0,0.0,-1.0));
#1597=DIRECTION('',(-1.0,0.0,0.0));
#1598=SURFACE_STYLE_FILL_AREA(#1734);
#1599=ORIENTED_EDGE('',*,*,#327,.F.);
#1600=ORIENTED_EDGE('',*,*,#219,.F.);
#1601=ORIENTED_EDGE('',*,*,#369,.F.);
#1602=ORIENTED_EDGE('',*,*,#285,.T.);
#1603=CARTESIAN_POINT('',(0.291186927252986,0.0,-20.7399643865364));
#1604=DIRECTION('',(-1.0,0.0,0.0));
#1605=DIRECTION('',(0.0,0.0,1.0));
#1606=DIRECTION('',(-0.0,-0.0,1.0));
#1607=DIRECTION('',(0.0,1.0,0.0));
#1608=DIRECTION('',(0.0,1.0,0.0));
#1609=SURFACE_STYLE_FILL_AREA(#1735);
#1610=ORIENTED_EDGE('',*,*,#439,.F.);
#1611=ORIENTED_EDGE('',*,*,#307,.T.);
#1612=ORIENTED_EDGE('',*,*,#389,.T.);
#1613=CARTESIAN_POINT('',(0.0,0.0,-11.8));
#1614=DIRECTION('',(-0.0,-0.0,1.0));
#1615=DIRECTION('',(0.0,1.0,0.0));
#1616=CARTESIAN_POINT('',(0.0,0.0,-20.8709637112193));
#1617=DIRECTION('',(-0.442195774284071,0.0,0.896918556617774));
#1618=DIRECTION('',(0.896918556617774,-0.0,0.442195774284071));
#1619=SURFACE_STYLE_FILL_AREA(#1736);
#1620=ORIENTED_EDGE('',*,*,#315,.F.);
#1621=ORIENTED_EDGE('',*,*,#293,.F.);
#1622=ORIENTED_EDGE('',*,*,#263,.T.);
#1623=CARTESIAN_POINT('',(0.0,0.0,-34.90900744));
#1624=DIRECTION('',(-0.0,-0.0,1.0));
#1625=DIRECTION('',(-1.0,0.0,0.0));
#1626=SURFACE_STYLE_FILL_AREA(#1737);
#1627=ORIENTED_EDGE('',*,*,#259,.T.);
#1628=ORIENTED_EDGE('',*,*,#175,.F.);
#1629=ORIENTED_EDGE('',*,*,#319,.T.);
#1630=ORIENTED_EDGE('',*,*,#273,.T.);
#1631=CARTESIAN_POINT('',(0.0,0.0,-0.150000000000002));
#1632=DIRECTION('',(0.0,-0.0,-1.0));
#1633=DIRECTION('',(0.0,1.0,0.0));
#1634=SURFACE_STYLE_FILL_AREA(#1738);
#1635=ORIENTED_EDGE('',*,*,#231,.F.);
#1636=ORIENTED_EDGE('',*,*,#433,.F.);
#1637=ORIENTED_EDGE('',*,*,#183,.T.);
#1638=ORIENTED_EDGE('',*,*,#203,.F.);
#1639=CARTESIAN_POINT('',(0.0521754636668867,0.0,-20.4072140041956));
#1640=DIRECTION('',(0.0,-1.0,-0.0));
#1641=DIRECTION('',(0.894321964023871,0.0,0.447423987582791));
#1642=CARTESIAN_POINT('',(0.0,0.0,-23.3));
#1643=DIRECTION('',(0.0,0.0,-1.0));
#1644=DIRECTION('',(0.0,1.0,0.0));
#1645=SURFACE_STYLE_FILL_AREA(#1739);
#1646=ORIENTED_EDGE('',*,*,#405,.T.);
#1647=ORIENTED_EDGE('',*,*,#271,.T.);
#1648=CARTESIAN_POINT('',(0.0,0.24975,-30.0));
#1649=DIRECTION('',(0.0,0.0,-1.0));
#1650=DIRECTION('',(0.0,1.0,0.0));
#1651=SURFACE_STYLE_FILL_AREA(#1740);
#1652=ORIENTED_EDGE('',*,*,#389,.F.);
#1653=ORIENTED_EDGE('',*,*,#373,.F.);
#1654=ORIENTED_EDGE('',*,*,#177,.F.);
#1655=ORIENTED_EDGE('',*,*,#375,.T.);
#1656=ORIENTED_EDGE('',*,*,#189,.F.);
#1657=CARTESIAN_POINT('',(0.191042345276873,0.0,-20.7767766558089));
#1658=DIRECTION('',(-0.442195774284071,0.0,0.896918556617774));
#1659=DIRECTION('',(0.896918556617774,0.0,0.442195774284071));
#1660=CARTESIAN_POINT('',(0.0,0.0,-30.0));
#1661=DIRECTION('',(0.0,0.0,-1.0));
#1662=DIRECTION('',(0.0,1.0,0.0));
#1663=SURFACE_STYLE_FILL_AREA(#1741);
#1664=ORIENTED_EDGE('',*,*,#311,.T.);
#1665=ORIENTED_EDGE('',*,*,#207,.T.);
#1666=ORIENTED_EDGE('',*,*,#203,.T.);
#1667=ORIENTED_EDGE('',*,*,#277,.T.);
#1668=ORIENTED_EDGE('',*,*,#399,.T.);
#1669=ORIENTED_EDGE('',*,*,#439,.T.);
#1670=ORIENTED_EDGE('',*,*,#189,.T.);
#1671=ORIENTED_EDGE('',*,*,#371,.T.);
#1672=ORIENTED_EDGE('',*,*,#261,.T.);
#1673=ORIENTED_EDGE('',*,*,#397,.F.);
#1674=ORIENTED_EDGE('',*,*,#321,.T.);
#1675=ORIENTED_EDGE('',*,*,#175,.T.);
#1676=CARTESIAN_POINT('',(0.0,0.0,-11.8));
#1677=DIRECTION('',(-0.0,-0.0,1.0));
#1678=DIRECTION('',(0.0,1.0,0.0));
#1679=DIRECTION('',(0.0,0.0,-1.0));
#1680=DIRECTION('',(-0.0,-0.0,1.0));
#1681=SURFACE_STYLE_FILL_AREA(#1742);
#1682=ORIENTED_EDGE('',*,*,#239,.F.);
#1683=ORIENTED_EDGE('',*,*,#235,.T.);
#1684=ORIENTED_EDGE('',*,*,#213,.F.);
#1685=ORIENTED_EDGE('',*,*,#437,.F.);
#1686=CARTESIAN_POINT('',(0.0,0.0,-25.15));
#1687=DIRECTION('',(-0.0,-0.0,1.0));
#1688=DIRECTION('',(0.0,1.0,0.0));
#1689=CARTESIAN_POINT('',(0.0,0.0,-20.4057073995657));
#1690=DIRECTION('',(0.0,0.0,-1.0));
#1691=DIRECTION('',(1.0,0.0,0.0));
#1692=SURFACE_STYLE_FILL_AREA(#1743);
#1693=ORIENTED_EDGE('',*,*,#315,.T.);
#1694=ORIENTED_EDGE('',*,*,#435,.T.);
#1695=ORIENTED_EDGE('',*,*,#293,.T.);
#1696=CARTESIAN_POINT('',(0.0,0.0,-34.90900744));
#1697=DIRECTION('',(-0.0,-0.0,1.0));
#1698=DIRECTION('',(-1.0,0.0,0.0));
#1699=DIRECTION('',(-0.0,-0.0,1.0));
#1700=SURFACE_STYLE_FILL_AREA(#1744);
#1701=ORIENTED_EDGE('',*,*,#247,.T.);
#1702=ORIENTED_EDGE('',*,*,#435,.F.);
#1703=ORIENTED_EDGE('',*,*,#429,.T.);
#1704=ORIENTED_EDGE('',*,*,#365,.T.);
#1705=CARTESIAN_POINT('',(0.0,0.0,-32.40900744));
#1706=DIRECTION('',(-0.0,-0.0,1.0));
#1707=DIRECTION('',(-1.0,0.0,0.0));
#1708=CARTESIAN_POINT('',(0.0,0.0,-34.81801488));
#1709=DIRECTION('',(0.0,0.0,-1.0));
#1710=DIRECTION('',(-1.0,0.0,0.0));
#1711=CARTESIAN_POINT('',(0.0,0.0,-27.0));
#1712=DIRECTION('',(0.0,0.0,-1.0));
#1713=DIRECTION('',(0.0,1.0,0.0));
#1714=DIRECTION('',(0.0,0.0,-1.0));
#1715=FILL_AREA_STYLE('',(#1745));
#1716=FILL_AREA_STYLE('',(#1746));
#1717=FILL_AREA_STYLE('',(#1747));
#1718=FILL_AREA_STYLE('',(#1748));
#1719=FILL_AREA_STYLE('',(#1749));
#1720=FILL_AREA_STYLE('',(#1750));
#1721=FILL_AREA_STYLE('',(#1751));
#1722=FILL_AREA_STYLE('',(#1752));
#1723=FILL_AREA_STYLE('',(#1753));
#1724=FILL_AREA_STYLE('',(#1754));
#1725=FILL_AREA_STYLE('',(#1755));
#1726=FILL_AREA_STYLE('',(#1756));
#1727=FILL_AREA_STYLE('',(#1757));
#1728=FILL_AREA_STYLE('',(#1758));
#1729=FILL_AREA_STYLE('',(#1759));
#1730=FILL_AREA_STYLE('',(#1760));
#1731=FILL_AREA_STYLE('',(#1761));
#1732=FILL_AREA_STYLE('',(#1762));
#1733=FILL_AREA_STYLE('',(#1763));
#1734=FILL_AREA_STYLE('',(#1764));
#1735=FILL_AREA_STYLE('',(#1765));
#1736=FILL_AREA_STYLE('',(#1766));
#1737=FILL_AREA_STYLE('',(#1767));
#1738=FILL_AREA_STYLE('',(#1768));
#1739=FILL_AREA_STYLE('',(#1769));
#1740=FILL_AREA_STYLE('',(#1770));
#1741=FILL_AREA_STYLE('',(#1771));
#1742=FILL_AREA_STYLE('',(#1772));
#1743=FILL_AREA_STYLE('',(#1773));
#1744=FILL_AREA_STYLE('',(#1774));
#1745=FILL_AREA_STYLE_COLOUR('',#1775);
#1746=FILL_AREA_STYLE_COLOUR('',#1776);
#1747=FILL_AREA_STYLE_COLOUR('',#1777);
#1748=FILL_AREA_STYLE_COLOUR('',#1778);
#1749=FILL_AREA_STYLE_COLOUR('',#1779);
#1750=FILL_AREA_STYLE_COLOUR('',#1780);
#1751=FILL_AREA_STYLE_COLOUR('',#1781);
#1752=FILL_AREA_STYLE_COLOUR('',#1782);
#1753=FILL_AREA_STYLE_COLOUR('',#1783);
#1754=FILL_AREA_STYLE_COLOUR('',#1784);
#1755=FILL_AREA_STYLE_COLOUR('',#1785);
#1756=FILL_AREA_STYLE_COLOUR('',#1786);
#1757=FILL_AREA_STYLE_COLOUR('',#1787);
#1758=FILL_AREA_STYLE_COLOUR('',#1788);
#1759=FILL_AREA_STYLE_COLOUR('',#1789);
#1760=FILL_AREA_STYLE_COLOUR('',#1790);
#1761=FILL_AREA_STYLE_COLOUR('',#1791);
#1762=FILL_AREA_STYLE_COLOUR('',#1792);
#1763=FILL_AREA_STYLE_COLOUR('',#1793);
#1764=FILL_AREA_STYLE_COLOUR('',#1794);
#1765=FILL_AREA_STYLE_COLOUR('',#1795);
#1766=FILL_AREA_STYLE_COLOUR('',#1796);
#1767=FILL_AREA_STYLE_COLOUR('',#1797);
#1768=FILL_AREA_STYLE_COLOUR('',#1798);
#1769=FILL_AREA_STYLE_COLOUR('',#1799);
#1770=FILL_AREA_STYLE_COLOUR('',#1800);
#1771=FILL_AREA_STYLE_COLOUR('',#1801);
#1772=FILL_AREA_STYLE_COLOUR('',#1802);
#1773=FILL_AREA_STYLE_COLOUR('',#1803);
#1774=FILL_AREA_STYLE_COLOUR('',#1804);
#1775=COLOUR_RGB('',0.200000002980232,0.600000023841858,1.0);
#1776=COLOUR_RGB('',0.498039215803146,0.498039215803146,0.498039215803146);
#1777=COLOUR_RGB('',0.800000011920929,0.800000011920929,0.800000011920929);
#1778=COLOUR_RGB('',0.498039215803146,0.498039215803146,0.498039215803146);
#1779=COLOUR_RGB('',0.498039215803146,0.498039215803146,0.498039215803146);
#1780=COLOUR_RGB('',0.200000002980232,0.600000023841858,1.0);
#1781=COLOUR_RGB('',0.200000002980232,0.600000023841858,1.0);
#1782=COLOUR_RGB('',0.200000002980232,0.600000023841858,1.0);
#1783=COLOUR_RGB('',0.498039215803146,0.498039215803146,0.498039215803146);
#1784=COLOUR_RGB('',0.200000002980232,0.600000023841858,1.0);
#1785=COLOUR_RGB('',0.200000002980232,0.600000023841858,1.0);
#1786=COLOUR_RGB('',0.800000011920929,0.800000011920929,0.800000011920929);
#1787=COLOUR_RGB('',0.498039215803146,0.498039215803146,0.498039215803146);
#1788=COLOUR_RGB('',0.498039215803146,0.498039215803146,0.498039215803146);
#1789=COLOUR_RGB('',0.200000002980232,0.600000023841858,1.0);
#1790=COLOUR_RGB('',0.800000011920929,0.800000011920929,0.800000011920929);
#1791=COLOUR_RGB('',0.200000002980232,0.600000023841858,1.0);
#1792=COLOUR_RGB('',0.200000002980232,0.600000023841858,1.0);
#1793=COLOUR_RGB('',0.498039215803146,0.498039215803146,0.498039215803146);
#1794=COLOUR_RGB('',0.200000002980232,0.600000023841858,1.0);
#1795=COLOUR_RGB('',0.498039215803146,0.498039215803146,0.498039215803146);
#1796=COLOUR_RGB('',0.800000011920929,0.800000011920929,0.800000011920929);
#1797=COLOUR_RGB('',0.498039215803146,0.498039215803146,0.498039215803146);
#1798=COLOUR_RGB('',0.200000002980232,0.600000023841858,1.0);
#1799=COLOUR_RGB('',0.498039215803146,0.498039215803146,0.498039215803146);
#1800=COLOUR_RGB('',0.200000002980232,0.600000023841858,1.0);
#1801=COLOUR_RGB('',0.498039215803146,0.498039215803146,0.498039215803146);
#1802=COLOUR_RGB('',0.498039215803146,0.498039215803146,0.498039215803146);
#1803=COLOUR_RGB('',0.800000011920929,0.800000011920929,0.800000011920929);
#1804=COLOUR_RGB('',0.800000011920929,0.800000011920929,0.800000011920929);
#1805=AXIS2_PLACEMENT_3D('CIP',#1806,#1807,#1808);
#1806=CARTESIAN_POINT('',(0.0,0.0,-35.0));
#1807=DIRECTION('',(0.0,0.0,1.0));
#1808=DIRECTION('',(1.0,0.0,0.0));
#1809=AXIS2_PLACEMENT_3D('CRP',#1810,#1811,#1812);
#1810=CARTESIAN_POINT('',(-0.5,0.0,-34.81801488));
#1811=DIRECTION('',(0.0,0.0,1.0));
#1812=DIRECTION('',(1.0,0.0,0.0));
#1813=AXIS2_PLACEMENT_3D('MCS',#1814,#1815,#1816);
#1814=CARTESIAN_POINT('',(0.0,0.0,-23.3));
#1815=DIRECTION('',(0.0,0.0,1.0));
#1816=DIRECTION('',(1.0,0.0,0.0));
#1817=AXIS2_PLACEMENT_3D('PCS',#1818,#1819,#1820);
#1818=CARTESIAN_POINT('',(0.0,0.0,0.0));
#1819=DIRECTION('',(0.0,0.0,1.0));
#1820=DIRECTION('',(1.0,0.0,0.0));
#1821=CONSTRUCTIVE_GEOMETRY_REPRESENTATION_RELATIONSHIP('coordinate systems',$,#154,#1822);
#1822=CONSTRUCTIVE_GEOMETRY_REPRESENTATION('coordinate systems',(#1805,#1809,#1813,#1817),#10);
ENDSEC;
END-ISO-10303-21;
