ISO-10303-21;
HEADER;
FILE_DESCRIPTION(('no description'),'unknown implementation level');
FILE_NAME('solidsIpchi94WwlaghekPe0PkUoXYTk_1.STP','  ',('CIMSOURCE GmbH'),('CADClick - KiM GmbH - www.kimweb.de'),'unknown preprocess','ACIS','unknown authorization');
FILE_SCHEMA(('automotive_design'));
ENDSEC;
DATA;
#1=MECHANICAL_DESIGN_GEOMETRIC_PRESENTATION_REPRESENTATION(' ',(#14,#15,#16,#17,#18,#19,#20,#21,#22,#23,#24,#25,#26,#27,#28,#29,#30,#31,#32,#33,#34,#35,#36,#37,#38,#39,#40,#41,#42,#43,#44,#45,#46,#47,#48,#49,#50,#51,#52,#53,#54,#55,#56,#57,#58,#59,#60,#61,#62,#63,#64,#65,#66,#67,#68,#69,#70,#71,#72,#73,#74,#75,#76,#77,#78,#79,#80,#81,#82,#83,#84,#85,#86,#87,#88,#89,#90,#91,#92,#93,#94,#95,#96,#97,#98,#99,#100,#101,#102,#103,#104,#105,#106,#107,#108,#109,#110,#111,#112,#113,#114,#115,#116,#117,#118,#119,#120,#121,#122,#123,#124,#125,#126,#127,#128,#129,#130,#131,#132,#133,#134,#135,#136,#137,#138,#139,#140,#141,#142,#143,#144,#145,#146,#147,#148,#149),#10);
#2=PRODUCT_DEFINITION_CONTEXT('',#150,'design');
#3=APPLICATION_PROTOCOL_DEFINITION('INTERNATIONAL STANDARD','automotive_design',1994,#150);
#4=PRODUCT_CATEGORY_RELATIONSHIP('NONE','NONE',#151,#152);
#5=SHAPE_DEFINITION_REPRESENTATION(#153,#154);
#6=PRODUCT_DEFINITION_CONTEXT('',#155,'design');
#7=APPLICATION_PROTOCOL_DEFINITION('INTERNATIONAL STANDARD','automotive_design',1994,#155);
#8=PRODUCT_CATEGORY_RELATIONSHIP('NONE','NONE',#156,#157);
#9=SHAPE_DEFINITION_REPRESENTATION(#158,#159);
#10= (GEOMETRIC_REPRESENTATION_CONTEXT(3)GLOBAL_UNCERTAINTY_ASSIGNED_CONTEXT((#162))GLOBAL_UNIT_ASSIGNED_CONTEXT((#164,#165,#166))REPRESENTATION_CONTEXT('NONE','WORKSPACE'));
#14=STYLED_ITEM('',(#168),#169);
#15=STYLED_ITEM('',(#170),#171);
#16=STYLED_ITEM('',(#172),#173);
#17=STYLED_ITEM('',(#174),#175);
#18=STYLED_ITEM('',(#176),#177);
#19=STYLED_ITEM('',(#178),#179);
#20=STYLED_ITEM('',(#180),#181);
#21=STYLED_ITEM('',(#182),#183);
#22=STYLED_ITEM('',(#184),#185);
#23=STYLED_ITEM('',(#186),#187);
#24=STYLED_ITEM('',(#188),#189);
#25=STYLED_ITEM('',(#190),#191);
#26=STYLED_ITEM('',(#192),#193);
#27=STYLED_ITEM('',(#194),#195);
#28=STYLED_ITEM('',(#196),#197);
#29=STYLED_ITEM('',(#198),#199);
#30=STYLED_ITEM('',(#200),#201);
#31=STYLED_ITEM('',(#202),#203);
#32=STYLED_ITEM('',(#204),#205);
#33=STYLED_ITEM('',(#206),#207);
#34=STYLED_ITEM('',(#208),#209);
#35=STYLED_ITEM('',(#210),#211);
#36=STYLED_ITEM('',(#212),#213);
#37=STYLED_ITEM('',(#214),#215);
#38=STYLED_ITEM('',(#216),#217);
#39=STYLED_ITEM('',(#218),#219);
#40=STYLED_ITEM('',(#220),#221);
#41=STYLED_ITEM('',(#222),#223);
#42=STYLED_ITEM('',(#224),#225);
#43=STYLED_ITEM('',(#226),#227);
#44=STYLED_ITEM('',(#228),#229);
#45=STYLED_ITEM('',(#230),#231);
#46=STYLED_ITEM('',(#232),#233);
#47=STYLED_ITEM('',(#234),#235);
#48=STYLED_ITEM('',(#236),#237);
#49=STYLED_ITEM('',(#238),#239);
#50=STYLED_ITEM('',(#240),#241);
#51=STYLED_ITEM('',(#242),#243);
#52=STYLED_ITEM('',(#244),#245);
#53=STYLED_ITEM('',(#246),#247);
#54=STYLED_ITEM('',(#248),#249);
#55=STYLED_ITEM('',(#250),#251);
#56=STYLED_ITEM('',(#252),#253);
#57=STYLED_ITEM('',(#254),#255);
#58=STYLED_ITEM('',(#256),#257);
#59=STYLED_ITEM('',(#258),#259);
#60=STYLED_ITEM('',(#260),#261);
#61=STYLED_ITEM('',(#262),#263);
#62=STYLED_ITEM('',(#264),#265);
#63=STYLED_ITEM('',(#266),#267);
#64=STYLED_ITEM('',(#268),#269);
#65=STYLED_ITEM('',(#270),#271);
#66=STYLED_ITEM('',(#272),#273);
#67=STYLED_ITEM('',(#274),#275);
#68=STYLED_ITEM('',(#276),#277);
#69=STYLED_ITEM('',(#278),#279);
#70=STYLED_ITEM('',(#280),#281);
#71=STYLED_ITEM('',(#282),#283);
#72=STYLED_ITEM('',(#284),#285);
#73=STYLED_ITEM('',(#286),#287);
#74=STYLED_ITEM('',(#288),#289);
#75=STYLED_ITEM('',(#290),#291);
#76=STYLED_ITEM('',(#292),#293);
#77=STYLED_ITEM('',(#294),#295);
#78=STYLED_ITEM('',(#296),#297);
#79=STYLED_ITEM('',(#298),#299);
#80=STYLED_ITEM('',(#300),#301);
#81=STYLED_ITEM('',(#302),#303);
#82=STYLED_ITEM('',(#304),#305);
#83=STYLED_ITEM('',(#306),#307);
#84=STYLED_ITEM('',(#308),#309);
#85=STYLED_ITEM('',(#310),#311);
#86=STYLED_ITEM('',(#312),#313);
#87=STYLED_ITEM('',(#314),#315);
#88=STYLED_ITEM('',(#316),#317);
#89=STYLED_ITEM('',(#318),#319);
#90=STYLED_ITEM('',(#320),#321);
#91=STYLED_ITEM('',(#322),#323);
#92=STYLED_ITEM('',(#324),#325);
#93=STYLED_ITEM('',(#326),#327);
#94=STYLED_ITEM('',(#328),#329);
#95=STYLED_ITEM('',(#330),#331);
#96=STYLED_ITEM('',(#332),#333);
#97=STYLED_ITEM('',(#334),#335);
#98=STYLED_ITEM('',(#336),#337);
#99=STYLED_ITEM('',(#338),#339);
#100=STYLED_ITEM('',(#340),#341);
#101=STYLED_ITEM('',(#342),#343);
#102=STYLED_ITEM('',(#344),#345);
#103=STYLED_ITEM('',(#346),#347);
#104=STYLED_ITEM('',(#348),#349);
#105=STYLED_ITEM('',(#350),#351);
#106=STYLED_ITEM('',(#352),#353);
#107=STYLED_ITEM('',(#354),#355);
#108=STYLED_ITEM('',(#356),#357);
#109=STYLED_ITEM('',(#358),#359);
#110=STYLED_ITEM('',(#360),#361);
#111=STYLED_ITEM('',(#362),#363);
#112=STYLED_ITEM('',(#364),#365);
#113=STYLED_ITEM('',(#366),#367);
#114=STYLED_ITEM('',(#368),#369);
#115=STYLED_ITEM('',(#370),#371);
#116=STYLED_ITEM('',(#372),#373);
#117=STYLED_ITEM('',(#374),#375);
#118=STYLED_ITEM('',(#376),#377);
#119=STYLED_ITEM('',(#378),#379);
#120=STYLED_ITEM('',(#380),#381);
#121=STYLED_ITEM('',(#382),#383);
#122=STYLED_ITEM('',(#384),#385);
#123=STYLED_ITEM('',(#386),#387);
#124=STYLED_ITEM('',(#388),#389);
#125=STYLED_ITEM('',(#390),#391);
#126=STYLED_ITEM('',(#392),#393);
#127=STYLED_ITEM('',(#394),#395);
#128=STYLED_ITEM('',(#396),#397);
#129=STYLED_ITEM('',(#398),#399);
#130=STYLED_ITEM('',(#400),#401);
#131=STYLED_ITEM('',(#402),#403);
#132=STYLED_ITEM('',(#404),#405);
#133=STYLED_ITEM('',(#406),#407);
#134=STYLED_ITEM('',(#408),#409);
#135=STYLED_ITEM('',(#410),#411);
#136=STYLED_ITEM('',(#412),#413);
#137=STYLED_ITEM('',(#414),#415);
#138=STYLED_ITEM('',(#416),#417);
#139=STYLED_ITEM('',(#418),#419);
#140=STYLED_ITEM('',(#420),#421);
#141=STYLED_ITEM('',(#422),#423);
#142=STYLED_ITEM('',(#424),#425);
#143=STYLED_ITEM('',(#426),#427);
#144=STYLED_ITEM('',(#428),#429);
#145=STYLED_ITEM('',(#430),#431);
#146=STYLED_ITEM('',(#432),#433);
#147=STYLED_ITEM('',(#434),#435);
#148=STYLED_ITEM('',(#436),#437);
#149=STYLED_ITEM('',(#438),#439);
#150=APPLICATION_CONTEXT(' ');
#151=PRODUCT_CATEGORY('part','NONE');
#152=PRODUCT_RELATED_PRODUCT_CATEGORY('detail',' ',(#440));
#153=PRODUCT_DEFINITION_SHAPE('NONE','NONE',#441);
#154=ADVANCED_BREP_SHAPE_REPRESENTATION('NOCUT',(#411,#442),#10);
#155=APPLICATION_CONTEXT(' ');
#156=PRODUCT_CATEGORY('part','NONE');
#157=PRODUCT_RELATED_PRODUCT_CATEGORY('detail',' ',(#443));
#158=PRODUCT_DEFINITION_SHAPE('NONE','NONE',#444);
#159=ADVANCED_BREP_SHAPE_REPRESENTATION('CUT',(#233,#445),#10);
#162=UNCERTAINTY_MEASURE_WITH_UNIT(LENGTH_MEASURE(1.0E-006),#164,'','');
#164= (CONVERSION_BASED_UNIT('MILLIMETRE',#448)LENGTH_UNIT()NAMED_UNIT(#451));
#165= (NAMED_UNIT(#453)PLANE_ANGLE_UNIT()SI_UNIT($,.RADIAN.));
#166= (NAMED_UNIT(#453)SOLID_ANGLE_UNIT()SI_UNIT($,.STERADIAN.));
#168=PRESENTATION_STYLE_ASSIGNMENT((#459));
#169=VERTEX_POINT('',#460);
#170=PRESENTATION_STYLE_ASSIGNMENT((#461));
#171=EDGE_CURVE('',#289,#235,#462,.T.);
#172=PRESENTATION_STYLE_ASSIGNMENT((#463));
#173=EDGE_CURVE('',#255,#323,#464,.T.);
#174=PRESENTATION_STYLE_ASSIGNMENT((#465));
#175=EDGE_CURVE('',#323,#297,#466,.T.);
#176=PRESENTATION_STYLE_ASSIGNMENT((#467));
#177=ADVANCED_FACE('',(#468),#469,.T.);
#178=PRESENTATION_STYLE_ASSIGNMENT((#470));
#179=EDGE_CURVE('',#297,#275,#471,.T.);
#180=PRESENTATION_STYLE_ASSIGNMENT((#472));
#181=VERTEX_POINT('',#473);
#182=PRESENTATION_STYLE_ASSIGNMENT((#474));
#183=EDGE_CURVE('',#281,#363,#475,.T.);
#184=PRESENTATION_STYLE_ASSIGNMENT((#476));
#185=ADVANCED_FACE('',(#477),#478,.T.);
#186=PRESENTATION_STYLE_ASSIGNMENT((#479));
#187=EDGE_CURVE('',#315,#289,#480,.T.);
#188=PRESENTATION_STYLE_ASSIGNMENT((#481));
#189=VERTEX_POINT('',#482);
#190=PRESENTATION_STYLE_ASSIGNMENT((#483));
#191=EDGE_CURVE('',#391,#309,#484,.T.);
#192=PRESENTATION_STYLE_ASSIGNMENT((#485));
#193=EDGE_CURVE('',#259,#197,#486,.T.);
#194=PRESENTATION_STYLE_ASSIGNMENT((#487));
#195=EDGE_CURVE('',#439,#363,#488,.T.);
#196=PRESENTATION_STYLE_ASSIGNMENT((#489));
#197=VERTEX_POINT('',#490);
#198=PRESENTATION_STYLE_ASSIGNMENT((#491));
#199=EDGE_CURVE('',#285,#181,#492,.T.);
#200=PRESENTATION_STYLE_ASSIGNMENT((#493));
#201=EDGE_CURVE('',#275,#417,#494,.T.);
#202=PRESENTATION_STYLE_ASSIGNMENT((#495));
#203=ADVANCED_FACE('',(#496),#497,.T.);
#204=PRESENTATION_STYLE_ASSIGNMENT((#498));
#205=VERTEX_POINT('',#499);
#206=PRESENTATION_STYLE_ASSIGNMENT((#500));
#207=EDGE_CURVE('',#197,#259,#501,.T.);
#208=PRESENTATION_STYLE_ASSIGNMENT((#502));
#209=ADVANCED_FACE('',(#503),#504,.F.);
#210=PRESENTATION_STYLE_ASSIGNMENT((#505));
#211=ADVANCED_FACE('',(#506),#507,.T.);
#212=PRESENTATION_STYLE_ASSIGNMENT((#508));
#213=VERTEX_POINT('',#509);
#214=PRESENTATION_STYLE_ASSIGNMENT((#510));
#215=EDGE_CURVE('',#425,#307,#511,.T.);
#216=PRESENTATION_STYLE_ASSIGNMENT((#512));
#217=EDGE_CURVE('',#181,#315,#513,.T.);
#218=PRESENTATION_STYLE_ASSIGNMENT((#514));
#219=EDGE_CURVE('',#267,#197,#515,.T.);
#220=PRESENTATION_STYLE_ASSIGNMENT((#516));
#221=EDGE_CURVE('',#245,#325,#517,.T.);
#222=PRESENTATION_STYLE_ASSIGNMENT((#518));
#223=EDGE_CURVE('',#249,#259,#519,.T.);
#224=PRESENTATION_STYLE_ASSIGNMENT((#520));
#225=ADVANCED_FACE('',(#521),#522,.T.);
#226=PRESENTATION_STYLE_ASSIGNMENT((#523));
#227=EDGE_CURVE('',#385,#289,#524,.T.);
#228=PRESENTATION_STYLE_ASSIGNMENT((#525));
#229=EDGE_CURVE('',#213,#391,#526,.T.);
#230=PRESENTATION_STYLE_ASSIGNMENT((#527));
#231=ADVANCED_FACE('',(#528),#529,.T.);
#232=PRESENTATION_STYLE_ASSIGNMENT((#530));
#233=MANIFOLD_SOLID_BREP('CUT',#531);
#234=PRESENTATION_STYLE_ASSIGNMENT((#532));
#235=VERTEX_POINT('',#533);
#236=PRESENTATION_STYLE_ASSIGNMENT((#534));
#237=EDGE_CURVE('',#439,#427,#535,.T.);
#238=PRESENTATION_STYLE_ASSIGNMENT((#536));
#239=EDGE_CURVE('',#309,#301,#537,.T.);
#240=PRESENTATION_STYLE_ASSIGNMENT((#538));
#241=EDGE_CURVE('',#367,#391,#539,.T.);
#242=PRESENTATION_STYLE_ASSIGNMENT((#540));
#243=EDGE_CURVE('',#259,#267,#541,.T.);
#244=PRESENTATION_STYLE_ASSIGNMENT((#542));
#245=VERTEX_POINT('',#543);
#246=PRESENTATION_STYLE_ASSIGNMENT((#544));
#247=ADVANCED_FACE('',(#545),#546,.F.);
#248=PRESENTATION_STYLE_ASSIGNMENT((#547));
#249=VERTEX_POINT('',#548);
#250=PRESENTATION_STYLE_ASSIGNMENT((#549));
#251=ADVANCED_FACE('',(#550),#551,.F.);
#252=PRESENTATION_STYLE_ASSIGNMENT((#552));
#253=VERTEX_POINT('',#553);
#254=PRESENTATION_STYLE_ASSIGNMENT((#554));
#255=VERTEX_POINT('',#555);
#256=PRESENTATION_STYLE_ASSIGNMENT((#556));
#257=EDGE_CURVE('',#301,#405,#557,.T.);
#258=PRESENTATION_STYLE_ASSIGNMENT((#558));
#259=VERTEX_POINT('',#559);
#260=PRESENTATION_STYLE_ASSIGNMENT((#560));
#261=EDGE_CURVE('',#249,#337,#561,.T.);
#262=PRESENTATION_STYLE_ASSIGNMENT((#562));
#263=ADVANCED_FACE('',(#563),#564,.T.);
#264=PRESENTATION_STYLE_ASSIGNMENT((#565));
#265=ADVANCED_FACE('',(#566),#567,.F.);
#266=PRESENTATION_STYLE_ASSIGNMENT((#568));
#267=VERTEX_POINT('',#569);
#268=PRESENTATION_STYLE_ASSIGNMENT((#570));
#269=ADVANCED_FACE('',(#571),#572,.T.);
#270=PRESENTATION_STYLE_ASSIGNMENT((#573));
#271=EDGE_CURVE('',#169,#341,#574,.T.);
#272=PRESENTATION_STYLE_ASSIGNMENT((#575));
#273=EDGE_CURVE('',#385,#315,#576,.T.);
#274=PRESENTATION_STYLE_ASSIGNMENT((#577));
#275=VERTEX_POINT('',#578);
#276=PRESENTATION_STYLE_ASSIGNMENT((#579));
#277=EDGE_CURVE('',#285,#235,#580,.T.);
#278=PRESENTATION_STYLE_ASSIGNMENT((#581));
#279=EDGE_CURVE('',#425,#335,#582,.T.);
#280=PRESENTATION_STYLE_ASSIGNMENT((#583));
#281=VERTEX_POINT('',#584);
#282=PRESENTATION_STYLE_ASSIGNMENT((#585));
#283=VERTEX_POINT('',#586);
#284=PRESENTATION_STYLE_ASSIGNMENT((#587));
#285=VERTEX_POINT('',#588);
#286=PRESENTATION_STYLE_ASSIGNMENT((#589));
#287=ADVANCED_FACE('',(#590),#591,.T.);
#288=PRESENTATION_STYLE_ASSIGNMENT((#592));
#289=VERTEX_POINT('',#593);
#290=PRESENTATION_STYLE_ASSIGNMENT((#594));
#291=ADVANCED_FACE('',(#595),#596,.T.);
#292=PRESENTATION_STYLE_ASSIGNMENT((#597));
#293=ADVANCED_FACE('',(#598),#599,.F.);
#294=PRESENTATION_STYLE_ASSIGNMENT((#600));
#295=EDGE_CURVE('',#189,#205,#601,.T.);
#296=PRESENTATION_STYLE_ASSIGNMENT((#602));
#297=VERTEX_POINT('',#603);
#298=PRESENTATION_STYLE_ASSIGNMENT((#604));
#299=EDGE_CURVE('',#307,#283,#605,.T.);
#300=PRESENTATION_STYLE_ASSIGNMENT((#606));
#301=VERTEX_POINT('',#607);
#302=PRESENTATION_STYLE_ASSIGNMENT((#608));
#303=ADVANCED_FACE('',(#609),#610,.F.);
#304=PRESENTATION_STYLE_ASSIGNMENT((#611));
#305=EDGE_CURVE('',#347,#309,#612,.T.);
#306=PRESENTATION_STYLE_ASSIGNMENT((#613));
#307=VERTEX_POINT('',#614);
#308=PRESENTATION_STYLE_ASSIGNMENT((#615));
#309=VERTEX_POINT('',#616);
#310=PRESENTATION_STYLE_ASSIGNMENT((#617));
#311=EDGE_CURVE('',#205,#253,#618,.T.);
#312=PRESENTATION_STYLE_ASSIGNMENT((#619));
#313=EDGE_CURVE('',#427,#281,#620,.T.);
#314=PRESENTATION_STYLE_ASSIGNMENT((#621));
#315=VERTEX_POINT('',#622);
#316=PRESENTATION_STYLE_ASSIGNMENT((#623));
#317=EDGE_CURVE('',#235,#213,#624,.T.);
#318=PRESENTATION_STYLE_ASSIGNMENT((#625));
#319=EDGE_CURVE('',#337,#249,#626,.T.);
#320=PRESENTATION_STYLE_ASSIGNMENT((#627));
#321=EDGE_CURVE('',#281,#427,#628,.T.);
#322=PRESENTATION_STYLE_ASSIGNMENT((#629));
#323=VERTEX_POINT('',#630);
#324=PRESENTATION_STYLE_ASSIGNMENT((#631));
#325=VERTEX_POINT('',#632);
#326=PRESENTATION_STYLE_ASSIGNMENT((#633));
#327=ADVANCED_FACE('',(#634),#635,.F.);
#328=PRESENTATION_STYLE_ASSIGNMENT((#636));
#329=EDGE_CURVE('',#367,#285,#637,.T.);
#330=PRESENTATION_STYLE_ASSIGNMENT((#638));
#331=EDGE_CURVE('',#323,#169,#639,.T.);
#332=PRESENTATION_STYLE_ASSIGNMENT((#640));
#333=VERTEX_POINT('',#641);
#334=PRESENTATION_STYLE_ASSIGNMENT((#642));
#335=VERTEX_POINT('',#643);
#336=PRESENTATION_STYLE_ASSIGNMENT((#644));
#337=VERTEX_POINT('',#645);
#338=PRESENTATION_STYLE_ASSIGNMENT((#646));
#339=EDGE_CURVE('',#283,#301,#647,.T.);
#340=PRESENTATION_STYLE_ASSIGNMENT((#648));
#341=VERTEX_POINT('',#649);
#342=PRESENTATION_STYLE_ASSIGNMENT((#650));
#343=EDGE_CURVE('',#347,#367,#651,.T.);
#344=PRESENTATION_STYLE_ASSIGNMENT((#652));
#345=EDGE_CURVE('',#413,#189,#653,.T.);
#346=PRESENTATION_STYLE_ASSIGNMENT((#654));
#347=VERTEX_POINT('',#655);
#348=PRESENTATION_STYLE_ASSIGNMENT((#656));
#349=EDGE_CURVE('',#213,#281,#657,.T.);
#350=PRESENTATION_STYLE_ASSIGNMENT((#658));
#351=ADVANCED_FACE('',(#659),#660,.T.);
#352=PRESENTATION_STYLE_ASSIGNMENT((#661));
#353=EDGE_CURVE('',#363,#245,#662,.T.);
#354=PRESENTATION_STYLE_ASSIGNMENT((#663));
#355=EDGE_CURVE('',#335,#417,#664,.T.);
#356=PRESENTATION_STYLE_ASSIGNMENT((#665));
#357=EDGE_CURVE('',#297,#409,#666,.T.);
#358=PRESENTATION_STYLE_ASSIGNMENT((#667));
#359=EDGE_CURVE('',#307,#405,#668,.T.);
#360=PRESENTATION_STYLE_ASSIGNMENT((#669));
#361=EDGE_CURVE('',#275,#425,#670,.T.);
#362=PRESENTATION_STYLE_ASSIGNMENT((#671));
#363=VERTEX_POINT('',#672);
#364=PRESENTATION_STYLE_ASSIGNMENT((#673));
#365=EDGE_CURVE('',#283,#347,#674,.T.);
#366=PRESENTATION_STYLE_ASSIGNMENT((#675));
#367=VERTEX_POINT('',#676);
#368=PRESENTATION_STYLE_ASSIGNMENT((#677));
#369=EDGE_CURVE('',#253,#413,#678,.T.);
#370=PRESENTATION_STYLE_ASSIGNMENT((#679));
#371=EDGE_CURVE('',#427,#189,#680,.T.);
#372=PRESENTATION_STYLE_ASSIGNMENT((#681));
#373=ADVANCED_FACE('',(#682),#683,.T.);
#374=PRESENTATION_STYLE_ASSIGNMENT((#684));
#375=EDGE_CURVE('',#325,#245,#685,.T.);
#376=PRESENTATION_STYLE_ASSIGNMENT((#686));
#377=ADVANCED_FACE('',(#687),#688,.T.);
#378=PRESENTATION_STYLE_ASSIGNMENT((#689));
#379=EDGE_CURVE('',#363,#439,#690,.T.);
#380=PRESENTATION_STYLE_ASSIGNMENT((#691));
#381=EDGE_CURVE('',#325,#439,#692,.T.);
#382=PRESENTATION_STYLE_ASSIGNMENT((#693));
#383=ADVANCED_FACE('',(#694),#695,.T.);
#384=PRESENTATION_STYLE_ASSIGNMENT((#696));
#385=VERTEX_POINT('',#697);
#386=PRESENTATION_STYLE_ASSIGNMENT((#698));
#387=EDGE_CURVE('',#341,#385,#699,.T.);
#388=PRESENTATION_STYLE_ASSIGNMENT((#700));
#389=ADVANCED_FACE('',(#701),#702,.F.);
#390=PRESENTATION_STYLE_ASSIGNMENT((#703));
#391=VERTEX_POINT('',#704);
#392=PRESENTATION_STYLE_ASSIGNMENT((#705));
#393=ADVANCED_FACE('',(#706),#707,.F.);
#394=PRESENTATION_STYLE_ASSIGNMENT((#708));
#395=EDGE_CURVE('',#405,#335,#709,.T.);
#396=PRESENTATION_STYLE_ASSIGNMENT((#710));
#397=EDGE_CURVE('',#189,#413,#711,.T.);
#398=PRESENTATION_STYLE_ASSIGNMENT((#712));
#399=EDGE_CURVE('',#197,#337,#713,.T.);
#400=PRESENTATION_STYLE_ASSIGNMENT((#714));
#401=ADVANCED_FACE('',(#715),#716,.T.);
#402=PRESENTATION_STYLE_ASSIGNMENT((#717));
#403=EDGE_CURVE('',#253,#205,#718,.T.);
#404=PRESENTATION_STYLE_ASSIGNMENT((#719));
#405=VERTEX_POINT('',#720);
#406=PRESENTATION_STYLE_ASSIGNMENT((#721));
#407=EDGE_CURVE('',#255,#341,#722,.T.);
#408=PRESENTATION_STYLE_ASSIGNMENT((#723));
#409=VERTEX_POINT('',#724);
#410=PRESENTATION_STYLE_ASSIGNMENT((#725));
#411=MANIFOLD_SOLID_BREP('NOCUT',#726);
#412=PRESENTATION_STYLE_ASSIGNMENT((#727));
#413=VERTEX_POINT('',#728);
#414=PRESENTATION_STYLE_ASSIGNMENT((#729));
#415=ADVANCED_FACE('',(#730),#731,.T.);
#416=PRESENTATION_STYLE_ASSIGNMENT((#732));
#417=VERTEX_POINT('',#733);
#418=PRESENTATION_STYLE_ASSIGNMENT((#734));
#419=EDGE_CURVE('',#333,#409,#735,.T.);
#420=PRESENTATION_STYLE_ASSIGNMENT((#736));
#421=EDGE_CURVE('',#409,#169,#737,.T.);
#422=PRESENTATION_STYLE_ASSIGNMENT((#738));
#423=EDGE_CURVE('',#417,#333,#739,.T.);
#424=PRESENTATION_STYLE_ASSIGNMENT((#740));
#425=VERTEX_POINT('',#741);
#426=PRESENTATION_STYLE_ASSIGNMENT((#742));
#427=VERTEX_POINT('',#743);
#428=PRESENTATION_STYLE_ASSIGNMENT((#744));
#429=EDGE_CURVE('',#413,#333,#745,.T.);
#430=PRESENTATION_STYLE_ASSIGNMENT((#746));
#431=EDGE_CURVE('',#181,#255,#747,.T.);
#432=PRESENTATION_STYLE_ASSIGNMENT((#748));
#433=ADVANCED_FACE('',(#749),#750,.T.);
#434=PRESENTATION_STYLE_ASSIGNMENT((#751));
#435=ADVANCED_FACE('',(#752),#753,.T.);
#436=PRESENTATION_STYLE_ASSIGNMENT((#754));
#437=ADVANCED_FACE('',(#755),#756,.T.);
#438=PRESENTATION_STYLE_ASSIGNMENT((#757));
#439=VERTEX_POINT('',#758);
#440=PRODUCT('NOCUT','NOCUT','PART-NOCUT-DESC',(#759));
#441=PRODUCT_DEFINITION('NONE','NONE',#760,#2);
#442=AXIS2_PLACEMENT_3D('',#761,#762,#763);
#443=PRODUCT('CUT','CUT','PART-CUT-DESC',(#764));
#444=PRODUCT_DEFINITION('NONE','NONE',#765,#6);
#445=AXIS2_PLACEMENT_3D('',#766,#767,#768);
#448=LENGTH_MEASURE_WITH_UNIT(LENGTH_MEASURE(1.0),#769);
#451=DIMENSIONAL_EXPONENTS(1.0,0.0,0.0,0.0,0.0,0.0,0.0);
#453=DIMENSIONAL_EXPONENTS(0.0,0.0,0.0,0.0,0.0,0.0,0.0);
#459=POINT_STYLE(' ',#770,POSITIVE_LENGTH_MEASURE(1.0E-006),#771);
#460=CARTESIAN_POINT('',(-0.187444663409338,1.48824208318383,-37.9057073995657));
#461=CURVE_STYLE('',#772,POSITIVE_LENGTH_MEASURE(1.0E-006),#773);
#462=ELLIPSE('',#774,1.67239264806429,1.5);
#463=CURVE_STYLE('',#775,POSITIVE_LENGTH_MEASURE(1.0E-006),#776);
#464=CIRCLE('',#777,1.4);
#465=CURVE_STYLE('',#778,POSITIVE_LENGTH_MEASURE(1.0E-006),#779);
#466=B_SPLINE_CURVE_WITH_KNOTS('',3,(#780,#781,#782,#783,#784,#785,#786,#787,#788,#789,#790,#791,#792,#793,#794,#795,#796,#797,#798,#799,#800,#801,#802,#803,#804,#805,#806),.UNSPECIFIED.,.F.,.F.,(4,2,2,2,2,2,2,2,2,2,3,2,4),(-0.904760382276984,-0.814331794904365,-0.723903207531746,-0.633474620159131,-0.543046032786515,-0.452751158305848,-0.36245628382518,-0.271707992864221,-0.180959701903262,-0.0904798509516307,0.0,0.0905731045725073,0.181146209145015),.UNSPECIFIED.);
#467=SURFACE_STYLE_USAGE(.BOTH.,#807);
#468=FACE_OUTER_BOUND('',#808,.T.);
#469=CONICAL_SURFACE('',#809,0.25,1.17809724712174);
#470=CURVE_STYLE('',#810,POSITIVE_LENGTH_MEASURE(1.0E-006),#811);
#471=B_SPLINE_CURVE_WITH_KNOTS('',3,(#812,#813,#814,#815,#816,#817,#818,#819,#820,#821,#822,#823,#824,#825,#826,#827,#828,#829,#830,#831,#832,#833,#834,#835,#836,#837,#838),.UNSPECIFIED.,.F.,.F.,(4,2,2,2,2,2,2,2,2,2,3,2,4),(-0.904760382276984,-0.814331794904365,-0.723903207531746,-0.633474620159131,-0.543046032786515,-0.452751158305848,-0.36245628382518,-0.271707992864221,-0.180959701903262,-0.0904798509516307,0.0,0.0905731045725073,0.181146209145015),.UNSPECIFIED.);
#472=POINT_STYLE(' ',#839,POSITIVE_LENGTH_MEASURE(1.0E-006),#840);
#473=CARTESIAN_POINT('',(0.191042345276873,1.38690404221457,-38.2767766558089));
#474=CURVE_STYLE('',#841,POSITIVE_LENGTH_MEASURE(1.0E-006),#842);
#475=LINE('',#843,#844);
#476=SURFACE_STYLE_USAGE(.BOTH.,#845);
#477=FACE_OUTER_BOUND('',#846,.T.);
#478=PLANE('',#847);
#479=CURVE_STYLE('',#848,POSITIVE_LENGTH_MEASURE(1.0E-006),#849);
#480=ELLIPSE('',#850,1.67239264806429,1.5);
#481=POINT_STYLE(' ',#851,POSITIVE_LENGTH_MEASURE(1.0E-006),#852);
#482=CARTESIAN_POINT('',(1.83690953073357E-016,-1.5,-0.299999999999997));
#483=CURVE_STYLE('',#853,POSITIVE_LENGTH_MEASURE(1.0E-006),#854);
#484=ELLIPSE('',#855,4.57199186005466,1.5);
#485=CURVE_STYLE('',#856,POSITIVE_LENGTH_MEASURE(1.0E-006),#857);
#486=CIRCLE('',#858,0.5);
#487=CURVE_STYLE('',#859,POSITIVE_LENGTH_MEASURE(1.0E-006),#860);
#488=CIRCLE('',#861,0.4995);
#489=POINT_STYLE(' ',#862,POSITIVE_LENGTH_MEASURE(1.0E-006),#863);
#490=CARTESIAN_POINT('',(0.5,6.12303176911189E-017,-54.79289322));
#491=CURVE_STYLE('',#864,POSITIVE_LENGTH_MEASURE(1.0E-006),#865);
#492=ELLIPSE('',#866,1.56089980486,1.4);
#493=CURVE_STYLE('',#867,POSITIVE_LENGTH_MEASURE(1.0E-006),#868);
#494=LINE('',#869,#870);
#495=SURFACE_STYLE_USAGE(.BOTH.,#871);
#496=FACE_OUTER_BOUND('',#872,.T.);
#497=CYLINDRICAL_SURFACE('',#873,1.5);
#498=POINT_STYLE(' ',#874,POSITIVE_LENGTH_MEASURE(1.0E-006),#875);
#499=CARTESIAN_POINT('',(1.46952762458685E-016,-1.2,0.0));
#500=CURVE_STYLE('',#876,POSITIVE_LENGTH_MEASURE(1.0E-006),#877);
#501=CIRCLE('',#878,0.5);
#502=SURFACE_STYLE_USAGE(.BOTH.,#879);
#503=FACE_OUTER_BOUND('',#880,.T.);
#504=CYLINDRICAL_SURFACE('',#881,0.542888173802104);
#505=SURFACE_STYLE_USAGE(.BOTH.,#882);
#506=FACE_OUTER_BOUND('',#883,.T.);
#507=PLANE('',#884);
#508=POINT_STYLE(' ',#885,POSITIVE_LENGTH_MEASURE(1.0E-006),#886);
#509=CARTESIAN_POINT('',(7.04842047857986E-016,1.5,-38.8103417867011));
#510=CURVE_STYLE('',#887,POSITIVE_LENGTH_MEASURE(1.0E-006),#888);
#511=LINE('',#889,#890);
#512=CURVE_STYLE('',#891,POSITIVE_LENGTH_MEASURE(1.0E-006),#892);
#513=LINE('',#893,#894);
#514=CURVE_STYLE('',#895,POSITIVE_LENGTH_MEASURE(1.0E-006),#896);
#515=LINE('',#897,#898);
#516=CURVE_STYLE('',#899,POSITIVE_LENGTH_MEASURE(1.0E-006),#900);
#517=CIRCLE('',#901,0.4995);
#518=CURVE_STYLE('',#902,POSITIVE_LENGTH_MEASURE(1.0E-006),#903);
#519=LINE('',#904,#905);
#520=SURFACE_STYLE_USAGE(.BOTH.,#906);
#521=FACE_OUTER_BOUND('',#907,.T.);
#522=CYLINDRICAL_SURFACE('',#908,0.5);
#523=CURVE_STYLE('',#909,POSITIVE_LENGTH_MEASURE(1.0E-006),#910);
#524=LINE('',#911,#912);
#525=CURVE_STYLE('',#913,POSITIVE_LENGTH_MEASURE(1.0E-006),#914);
#526=B_SPLINE_CURVE_WITH_KNOTS('',3,(#915,#916,#917,#918,#919,#920,#921,#922,#923,#924),.UNSPECIFIED.,.F.,.F.,(4,2,2,2,4),(1.85902529823815,2.06567030714979,2.27234349574444,2.47901668433909,2.68530730298492),.UNSPECIFIED.);
#527=SURFACE_STYLE_USAGE(.BOTH.,#925);
#528=FACE_OUTER_BOUND('',#926,.T.);
#529=CYLINDRICAL_SURFACE('',#927,0.239624863395969);
#530=SURFACE_STYLE_USAGE(.BOTH.,#928);
#531=CLOSED_SHELL('',(#177,#269,#185,#225,#383));
#532=POINT_STYLE(' ',#929,POSITIVE_LENGTH_MEASURE(1.0E-006),#930);
#533=CARTESIAN_POINT('',(-0.445684250814332,1.43225889718866,-38.5906934636265));
#534=CURVE_STYLE('',#931,POSITIVE_LENGTH_MEASURE(1.0E-006),#932);
#535=LINE('',#933,#934);
#536=CURVE_STYLE('',#935,POSITIVE_LENGTH_MEASURE(1.0E-006),#936);
#537=LINE('',#937,#938);
#538=CURVE_STYLE('',#939,POSITIVE_LENGTH_MEASURE(1.0E-006),#940);
#539=LINE('',#941,#942);
#540=CURVE_STYLE('',#943,POSITIVE_LENGTH_MEASURE(1.0E-006),#944);
#541=LINE('',#945,#946);
#542=POINT_STYLE(' ',#947,POSITIVE_LENGTH_MEASURE(1.0E-006),#948);
#543=CARTESIAN_POINT('',(0.0,0.4995,-50.0));
#544=SURFACE_STYLE_USAGE(.BOTH.,#949);
#545=FACE_OUTER_BOUND('',#950,.T.);
#546=CYLINDRICAL_SURFACE('',#951,0.542888147146112);
#547=POINT_STYLE(' ',#952,POSITIVE_LENGTH_MEASURE(1.0E-006),#953);
#548=CARTESIAN_POINT('',(-0.5,0.0,-50.0));
#549=SURFACE_STYLE_USAGE(.BOTH.,#954);
#550=FACE_OUTER_BOUND('',#955,.T.);
#551=PLANE('',#956);
#552=POINT_STYLE(' ',#957,POSITIVE_LENGTH_MEASURE(1.0E-006),#958);
#553=CARTESIAN_POINT('',(0.0,1.2,0.0));
#554=POINT_STYLE(' ',#959,POSITIVE_LENGTH_MEASURE(1.0E-006),#960);
#555=CARTESIAN_POINT('',(-0.345024467969599,1.35681911709052,-37.9057073995657));
#556=CURVE_STYLE('',#961,POSITIVE_LENGTH_MEASURE(1.0E-006),#962);
#557=B_SPLINE_CURVE_WITH_KNOTS('',3,(#963,#964,#965,#966,#967,#968),.UNSPECIFIED.,.F.,.F.,(4,2,4),(2.68530701780466,2.89159761751384,3.09817892816278),.UNSPECIFIED.);
#558=POINT_STYLE(' ',#969,POSITIVE_LENGTH_MEASURE(1.0E-006),#970);
#559=CARTESIAN_POINT('',(-0.5,0.0,-54.79289322));
#560=CURVE_STYLE('',#971,POSITIVE_LENGTH_MEASURE(1.0E-006),#972);
#561=CIRCLE('',#973,0.5);
#562=SURFACE_STYLE_USAGE(.BOTH.,#974);
#563=FACE_OUTER_BOUND('',#975,.T.);
#564=CYLINDRICAL_SURFACE('',#976,1.5);
#565=SURFACE_STYLE_USAGE(.BOTH.,#977);
#566=FACE_OUTER_BOUND('',#978,.T.);
#567=PLANE('',#979);
#568=POINT_STYLE(' ',#980,POSITIVE_LENGTH_MEASURE(1.0E-006),#981);
#569=CARTESIAN_POINT('',(0.0,0.0,-55.0));
#570=SURFACE_STYLE_USAGE(.BOTH.,#982);
#571=FACE_OUTER_BOUND('',#983,.T.);
#572=CYLINDRICAL_SURFACE('',#984,0.5);
#573=CURVE_STYLE('',#985,POSITIVE_LENGTH_MEASURE(1.0E-006),#986);
#574=CIRCLE('',#987,1.5);
#575=CURVE_STYLE('',#988,POSITIVE_LENGTH_MEASURE(1.0E-006),#989);
#576=B_SPLINE_CURVE_WITH_KNOTS('',3,(#990,#991,#992,#993,#994,#995,#996,#997,#998,#999,#1000,#1001,#1002,#1003),.UNSPECIFIED.,.F.,.F.,(4,2,2,2,2,2,4),(1.04556644553436,1.19481792676597,1.34406940799758,1.49332088922919,1.6421919361918,1.79106298315441,1.94096154109475),.UNSPECIFIED.);
#577=POINT_STYLE(' ',#1004,POSITIVE_LENGTH_MEASURE(1.0E-006),#1005);
#578=CARTESIAN_POINT('',(0.266477242128121,1.37440528208669,-37.800000092291));
#579=CURVE_STYLE('',#1006,POSITIVE_LENGTH_MEASURE(1.0E-006),#1007);
#580=LINE('',#1008,#1009);
#581=CURVE_STYLE('',#1010,POSITIVE_LENGTH_MEASURE(1.0E-006),#1011);
#582=LINE('',#1012,#1013);
#583=POINT_STYLE(' ',#1014,POSITIVE_LENGTH_MEASURE(1.0E-006),#1015);
#584=CARTESIAN_POINT('',(0.0,1.5,-40.8));
#585=POINT_STYLE(' ',#1016,POSITIVE_LENGTH_MEASURE(1.0E-006),#1017);
#586=CARTESIAN_POINT('',(0.291186927252985,1.36938313608609,-38.719578393051));
#587=POINT_STYLE(' ',#1018,POSITIVE_LENGTH_MEASURE(1.0E-006),#1019);
#588=CARTESIAN_POINT('',(-0.445684250814332,1.32716447683626,-38.5906934636265));
#589=SURFACE_STYLE_USAGE(.BOTH.,#1020);
#590=FACE_OUTER_BOUND('',#1021,.T.);
#591=CYLINDRICAL_SURFACE('',#1022,1.4);
#592=POINT_STYLE(' ',#1023,POSITIVE_LENGTH_MEASURE(1.0E-006),#1024);
#593=CARTESIAN_POINT('',(-5.40912442412622E-016,1.5,-38.3709637112193));
#594=SURFACE_STYLE_USAGE(.BOTH.,#1025);
#595=FACE_OUTER_BOUND('',#1026,.T.);
#596=CYLINDRICAL_SURFACE('',#1027,0.239624863395969);
#597=SURFACE_STYLE_USAGE(.BOTH.,#1028);
#598=FACE_OUTER_BOUND('',#1029,.T.);
#599=CYLINDRICAL_SURFACE('',#1030,0.394355589784601);
#600=CURVE_STYLE('',#1031,POSITIVE_LENGTH_MEASURE(1.0E-006),#1032);
#601=LINE('',#1033,#1034);
#602=POINT_STYLE(' ',#1035,POSITIVE_LENGTH_MEASURE(1.0E-006),#1036);
#603=CARTESIAN_POINT('',(-0.162126314794348,1.39058083477776,-38.0144279161002));
#604=CURVE_STYLE('',#1037,POSITIVE_LENGTH_MEASURE(1.0E-006),#1038);
#605=B_SPLINE_CURVE_WITH_KNOTS('',3,(#1039,#1040,#1041,#1042,#1043,#1044),.UNSPECIFIED.,.F.,.F.,(4,2,4),(0.206925185259038,0.413850370518076,0.620415814467366),.UNSPECIFIED.);
#606=POINT_STYLE(' ',#1045,POSITIVE_LENGTH_MEASURE(1.0E-006),#1046);
#607=CARTESIAN_POINT('',(0.291186927252985,1.4714653150506,-38.719578393051));
#608=SURFACE_STYLE_USAGE(.BOTH.,#1047);
#609=FACE_OUTER_BOUND('',#1048,.T.);
#610=PLANE('',#1049);
#611=CURVE_STYLE('',#1050,POSITIVE_LENGTH_MEASURE(1.0E-006),#1051);
#612=LINE('',#1052,#1053);
#613=POINT_STYLE(' ',#1054,POSITIVE_LENGTH_MEASURE(1.0E-006),#1055);
#614=CARTESIAN_POINT('',(0.445736688382193,1.32714686626239,-38.5633885667752));
#615=POINT_STYLE(' ',#1056,POSITIVE_LENGTH_MEASURE(1.0E-006),#1057);
#616=CARTESIAN_POINT('',(0.291186927252986,1.4714653150506,-38.2399643865364));
#617=CURVE_STYLE('',#1058,POSITIVE_LENGTH_MEASURE(1.0E-006),#1059);
#618=CIRCLE('',#1060,1.2);
#619=CURVE_STYLE('',#1061,POSITIVE_LENGTH_MEASURE(1.0E-006),#1062);
#620=CIRCLE('',#1063,1.5);
#621=POINT_STYLE(' ',#1064,POSITIVE_LENGTH_MEASURE(1.0E-006),#1065);
#622=CARTESIAN_POINT('',(0.191042345276873,1.4877845349079,-38.2767766558089));
#623=CURVE_STYLE('',#1066,POSITIVE_LENGTH_MEASURE(1.0E-006),#1067);
#624=B_SPLINE_CURVE_WITH_KNOTS('',3,(#1068,#1069,#1070,#1071,#1072,#1073,#1074,#1075,#1076,#1077),.UNSPECIFIED.,.F.,.F.,(4,2,2,2,4),(1.85902529823815,2.06567030714979,2.27234349574444,2.47901668433909,2.68530730298492),.UNSPECIFIED.);
#625=CURVE_STYLE('',#1078,POSITIVE_LENGTH_MEASURE(1.0E-006),#1079);
#626=CIRCLE('',#1080,0.5);
#627=CURVE_STYLE('',#1081,POSITIVE_LENGTH_MEASURE(1.0E-006),#1082);
#628=CIRCLE('',#1083,1.5);
#629=POINT_STYLE(' ',#1084,POSITIVE_LENGTH_MEASURE(1.0E-006),#1085);
#630=CARTESIAN_POINT('',(-0.187444663409338,1.38739486021801,-37.9057073995657));
#631=POINT_STYLE(' ',#1086,POSITIVE_LENGTH_MEASURE(1.0E-006),#1087);
#632=CARTESIAN_POINT('',(6.11690873734277E-017,-0.4995,-50.0));
#633=SURFACE_STYLE_USAGE(.BOTH.,#1088);
#634=FACE_OUTER_BOUND('',#1089,.T.);
#635=CYLINDRICAL_SURFACE('',#1090,0.542888128511779);
#636=CURVE_STYLE('',#1091,POSITIVE_LENGTH_MEASURE(1.0E-006),#1092);
#637=B_SPLINE_CURVE_WITH_KNOTS('',3,(#1093,#1094,#1095,#1096,#1097,#1098,#1099,#1100,#1101,#1102),.UNSPECIFIED.,.F.,.F.,(4,2,2,2,4),(0.620415869735466,0.826981332916279,1.03398970786774,1.24099808281921,1.44800214325881),.UNSPECIFIED.);
#638=CURVE_STYLE('',#1103,POSITIVE_LENGTH_MEASURE(1.0E-006),#1104);
#639=LINE('',#1105,#1106);
#640=POINT_STYLE(' ',#1107,POSITIVE_LENGTH_MEASURE(1.0E-006),#1108);
#641=CARTESIAN_POINT('',(2.05825631794781E-011,1.5,-38.141089603934));
#642=POINT_STYLE(' ',#1109,POSITIVE_LENGTH_MEASURE(1.0E-006),#1110);
#643=CARTESIAN_POINT('',(0.445736688382193,1.43224257883575,-37.9716828121607));
#644=POINT_STYLE(' ',#1111,POSITIVE_LENGTH_MEASURE(1.0E-006),#1112);
#645=CARTESIAN_POINT('',(0.5,6.12303176911189E-017,-50.0));
#646=CURVE_STYLE('',#1113,POSITIVE_LENGTH_MEASURE(1.0E-006),#1114);
#647=LINE('',#1115,#1116);
#648=POINT_STYLE(' ',#1117,POSITIVE_LENGTH_MEASURE(1.0E-006),#1118);
#649=CARTESIAN_POINT('',(-0.345024467969599,1.45978016033316,-37.9057073995657));
#650=CURVE_STYLE('',#1119,POSITIVE_LENGTH_MEASURE(1.0E-006),#1120);
#651=ELLIPSE('',#1121,4.26719240271768,1.4);
#652=CURVE_STYLE('',#1122,POSITIVE_LENGTH_MEASURE(1.0E-006),#1123);
#653=CIRCLE('',#1124,1.5);
#654=POINT_STYLE(' ',#1125,POSITIVE_LENGTH_MEASURE(1.0E-006),#1126);
#655=CARTESIAN_POINT('',(0.291186927252986,1.36938313608609,-38.2399643865364));
#656=CURVE_STYLE('',#1127,POSITIVE_LENGTH_MEASURE(1.0E-006),#1128);
#657=LINE('',#1129,#1130);
#658=SURFACE_STYLE_USAGE(.BOTH.,#1131);
#659=FACE_OUTER_BOUND('',#1132,.T.);
#660=CYLINDRICAL_SURFACE('',#1133,1.5);
#661=CURVE_STYLE('',#1134,POSITIVE_LENGTH_MEASURE(1.0E-006),#1135);
#662=LINE('',#1136,#1137);
#663=CURVE_STYLE('',#1138,POSITIVE_LENGTH_MEASURE(1.0E-006),#1139);
#664=B_SPLINE_CURVE_WITH_KNOTS('',3,(#1140,#1141,#1142,#1143,#1144,#1145),.UNSPECIFIED.,.F.,.F.,(4,2,4),(0.206581317849577,0.413162635699153,0.619453242343408),.UNSPECIFIED.);
#665=CURVE_STYLE('',#1146,POSITIVE_LENGTH_MEASURE(1.0E-006),#1147);
#666=LINE('',#1148,#1149);
#667=CURVE_STYLE('',#1150,POSITIVE_LENGTH_MEASURE(1.0E-006),#1151);
#668=LINE('',#1152,#1153);
#669=CURVE_STYLE('',#1154,POSITIVE_LENGTH_MEASURE(1.0E-006),#1155);
#670=B_SPLINE_CURVE_WITH_KNOTS('',3,(#1156,#1157,#1158,#1159,#1160,#1161),.UNSPECIFIED.,.F.,.F.,(4,2,4),(2.68959631217717,2.89616176304829,3.10308695553747),.UNSPECIFIED.);
#671=POINT_STYLE(' ',#1162,POSITIVE_LENGTH_MEASURE(1.0E-006),#1163);
#672=CARTESIAN_POINT('',(0.0,0.4995,-44.5));
#673=CURVE_STYLE('',#1164,POSITIVE_LENGTH_MEASURE(1.0E-006),#1165);
#674=LINE('',#1166,#1167);
#675=POINT_STYLE(' ',#1168,POSITIVE_LENGTH_MEASURE(1.0E-006),#1169);
#676=CARTESIAN_POINT('',(0.0967010423452768,1.39665633153233,-38.7999442996743));
#677=CURVE_STYLE('',#1170,POSITIVE_LENGTH_MEASURE(1.0E-006),#1171);
#678=LINE('',#1172,#1173);
#679=CURVE_STYLE('',#1174,POSITIVE_LENGTH_MEASURE(1.0E-006),#1175);
#680=LINE('',#1176,#1177);
#681=SURFACE_STYLE_USAGE(.BOTH.,#1178);
#682=FACE_OUTER_BOUND('',#1179,.T.);
#683=CYLINDRICAL_SURFACE('',#1180,0.4995);
#684=CURVE_STYLE('',#1181,POSITIVE_LENGTH_MEASURE(1.0E-006),#1182);
#685=CIRCLE('',#1183,0.4995);
#686=SURFACE_STYLE_USAGE(.BOTH.,#1184);
#687=FACE_OUTER_BOUND('',#1185,.T.);
#688=CONICAL_SURFACE('',#1186,1.35,0.785398163397453);
#689=CURVE_STYLE('',#1187,POSITIVE_LENGTH_MEASURE(1.0E-006),#1188);
#690=CIRCLE('',#1189,0.4995);
#691=CURVE_STYLE('',#1190,POSITIVE_LENGTH_MEASURE(1.0E-006),#1191);
#692=LINE('',#1192,#1193);
#693=SURFACE_STYLE_USAGE(.BOTH.,#1194);
#694=FACE_OUTER_BOUND('',#1195,.T.);
#695=CONICAL_SURFACE('',#1196,0.25,1.17809724712174);
#696=POINT_STYLE(' ',#1197,POSITIVE_LENGTH_MEASURE(1.0E-006),#1198);
#697=CARTESIAN_POINT('',(-5.58129510601172E-012,1.5,-38.3000267183946));
#698=CURVE_STYLE('',#1199,POSITIVE_LENGTH_MEASURE(1.0E-006),#1200);
#699=B_SPLINE_CURVE_WITH_KNOTS('',3,(#1201,#1202,#1203,#1204,#1205,#1206,#1207,#1208,#1209,#1210,#1211,#1212,#1213,#1214),.UNSPECIFIED.,.F.,.F.,(4,2,2,2,2,2,4),(1.04556644553436,1.19481792676597,1.34406940799758,1.49332088922919,1.6421919361918,1.79106298315441,1.94096154109475),.UNSPECIFIED.);
#700=SURFACE_STYLE_USAGE(.BOTH.,#1215);
#701=FACE_OUTER_BOUND('',#1216,.T.);
#702=PLANE('',#1217);
#703=POINT_STYLE(' ',#1218,POSITIVE_LENGTH_MEASURE(1.0E-006),#1219);
#704=CARTESIAN_POINT('',(0.0967010423452768,1.49687972409587,-38.7999442996743));
#705=SURFACE_STYLE_USAGE(.BOTH.,#1220);
#706=FACE_OUTER_BOUND('',#1221,.T.);
#707=PLANE('',#1222);
#708=CURVE_STYLE('',#1223,POSITIVE_LENGTH_MEASURE(1.0E-006),#1224);
#709=LINE('',#1225,#1226);
#710=CURVE_STYLE('',#1227,POSITIVE_LENGTH_MEASURE(1.0E-006),#1228);
#711=CIRCLE('',#1229,1.5);
#712=CURVE_STYLE('',#1230,POSITIVE_LENGTH_MEASURE(1.0E-006),#1231);
#713=LINE('',#1232,#1233);
#714=SURFACE_STYLE_USAGE(.BOTH.,#1234);
#715=FACE_OUTER_BOUND('',#1235,.T.);
#716=CYLINDRICAL_SURFACE('',#1236,0.4995);
#717=CURVE_STYLE('',#1237,POSITIVE_LENGTH_MEASURE(1.0E-006),#1238);
#718=CIRCLE('',#1239,1.2);
#719=POINT_STYLE(' ',#1240,POSITIVE_LENGTH_MEASURE(1.0E-006),#1241);
#720=CARTESIAN_POINT('',(0.445736688382193,1.43224257883575,-38.5633885667752));
#721=CURVE_STYLE('',#1242,POSITIVE_LENGTH_MEASURE(1.0E-006),#1243);
#722=LINE('',#1244,#1245);
#723=POINT_STYLE(' ',#1246,POSITIVE_LENGTH_MEASURE(1.0E-006),#1247);
#724=CARTESIAN_POINT('',(-0.162126314794347,1.49121261329537,-38.0144279161002));
#725=SURFACE_STYLE_USAGE(.BOTH.,#1248);
#726=CLOSED_SHELL('',(#373,#415,#351,#263,#377,#231,#251,#209,#303,#389,#327,#287,#393,#247,#291,#265,#293,#437,#435,#203,#433,#401,#211));
#727=POINT_STYLE(' ',#1249,POSITIVE_LENGTH_MEASURE(1.0E-006),#1250);
#728=CARTESIAN_POINT('',(0.0,1.5,-0.299999999999997));
#729=SURFACE_STYLE_USAGE(.BOTH.,#1251);
#730=FACE_OUTER_BOUND('',#1252,.T.);
#731=CONICAL_SURFACE('',#1253,0.99975,0.264089655349623);
#732=POINT_STYLE(' ',#1254,POSITIVE_LENGTH_MEASURE(1.0E-006),#1255);
#733=CARTESIAN_POINT('',(0.266477242128121,1.47614019639999,-37.800000092291));
#734=CURVE_STYLE('',#1256,POSITIVE_LENGTH_MEASURE(1.0E-006),#1257);
#735=B_SPLINE_CURVE_WITH_KNOTS('',3,(#1258,#1259,#1260,#1261,#1262,#1263,#1264,#1265,#1266,#1267,#1268,#1269,#1270,#1271,#1272,#1273,#1274,#1275,#1276,#1277,#1278,#1279,#1280,#1281,#1282,#1283,#1284),.UNSPECIFIED.,.F.,.F.,(4,2,3,2,2,2,2,2,2,2,2,2,4),(-0.180901966709094,-0.090450983354547,0.0,0.0904509833545436,0.180901966709087,0.271587051521942,0.362272136334797,0.452562970858867,0.542853805382937,0.633260931758076,0.723668058133215,0.814075184508358,0.9044823108835),.UNSPECIFIED.);
#736=CURVE_STYLE('',#1285,POSITIVE_LENGTH_MEASURE(1.0E-006),#1286);
#737=B_SPLINE_CURVE_WITH_KNOTS('',3,(#1287,#1288,#1289,#1290,#1291,#1292,#1293,#1294,#1295,#1296,#1297,#1298,#1299,#1300,#1301,#1302,#1303,#1304,#1305,#1306,#1307,#1308,#1309,#1310,#1311,#1312,#1313),.UNSPECIFIED.,.F.,.F.,(4,2,3,2,2,2,2,2,2,2,2,2,4),(-0.180901966709094,-0.090450983354547,0.0,0.0904509833545436,0.180901966709087,0.271587051521942,0.362272136334797,0.452562970858867,0.542853805382937,0.633260931758076,0.723668058133215,0.814075184508358,0.9044823108835),.UNSPECIFIED.);
#738=CURVE_STYLE('',#1314,POSITIVE_LENGTH_MEASURE(1.0E-006),#1315);
#739=B_SPLINE_CURVE_WITH_KNOTS('',3,(#1316,#1317,#1318,#1319,#1320,#1321,#1322,#1323,#1324,#1325,#1326,#1327,#1328,#1329,#1330,#1331,#1332,#1333,#1334,#1335,#1336,#1337,#1338,#1339,#1340,#1341,#1342),.UNSPECIFIED.,.F.,.F.,(4,2,3,2,2,2,2,2,2,2,2,2,4),(-0.180901966709094,-0.090450983354547,0.0,0.0904509833545436,0.180901966709087,0.271587051521942,0.362272136334797,0.452562970858867,0.542853805382937,0.633260931758076,0.723668058133215,0.814075184508358,0.9044823108835),.UNSPECIFIED.);
#740=POINT_STYLE(' ',#1343,POSITIVE_LENGTH_MEASURE(1.0E-006),#1344);
#741=CARTESIAN_POINT('',(0.445736688382193,1.32714686626239,-37.9716828121607));
#742=POINT_STYLE(' ',#1345,POSITIVE_LENGTH_MEASURE(1.0E-006),#1346);
#743=CARTESIAN_POINT('',(1.83690953073357E-016,-1.5,-40.8));
#744=CURVE_STYLE('',#1347,POSITIVE_LENGTH_MEASURE(1.0E-006),#1348);
#745=LINE('',#1349,#1350);
#746=CURVE_STYLE('',#1351,POSITIVE_LENGTH_MEASURE(1.0E-006),#1352);
#747=B_SPLINE_CURVE_WITH_KNOTS('',3,(#1353,#1354,#1355,#1356,#1357,#1358,#1359,#1360,#1361,#1362,#1363,#1364,#1365,#1366),.UNSPECIFIED.,.F.,.F.,(4,2,2,2,2,2,4),(0.449150673999554,0.599254881805795,0.7481741362147,0.897093390623605,1.04645297376853,1.19581255691345,1.34500018410037),.UNSPECIFIED.);
#748=SURFACE_STYLE_USAGE(.BOTH.,#1367);
#749=FACE_OUTER_BOUND('',#1368,.T.);
#750=CONICAL_SURFACE('',#1369,0.99975,0.264089655349623);
#751=SURFACE_STYLE_USAGE(.BOTH.,#1370);
#752=FACE_OUTER_BOUND('',#1371,.T.);
#753=CONICAL_SURFACE('',#1372,1.35,0.785398163397453);
#754=SURFACE_STYLE_USAGE(.BOTH.,#1373);
#755=FACE_OUTER_BOUND('',#1374,.T.);
#756=PLANE('',#1375);
#757=POINT_STYLE(' ',#1376,POSITIVE_LENGTH_MEASURE(1.0E-006),#1377);
#758=CARTESIAN_POINT('',(6.11690873734277E-017,-0.4995,-44.5));
#759=PRODUCT_CONTEXT('',#150,'mechanical');
#760=PRODUCT_DEFINITION_FORMATION_WITH_SPECIFIED_SOURCE(' ','NONE',#440,.NOT_KNOWN.);
#761=CARTESIAN_POINT('',(0.0,0.0,0.0));
#762=DIRECTION('',(0.0,0.0,1.0));
#763=DIRECTION('',(1.0,0.0,0.0));
#764=PRODUCT_CONTEXT('',#155,'mechanical');
#765=PRODUCT_DEFINITION_FORMATION_WITH_SPECIFIED_SOURCE(' ','NONE',#443,.NOT_KNOWN.);
#766=CARTESIAN_POINT('',(0.0,0.0,0.0));
#767=DIRECTION('',(0.0,0.0,1.0));
#768=DIRECTION('',(1.0,0.0,0.0));
#769= (NAMED_UNIT(#451)LENGTH_UNIT()SI_UNIT(.MILLI.,.METRE.));
#770=PRE_DEFINED_MARKER('');
#771=COLOUR_RGB('',0.498039215803146,0.498039215803146,0.498039215803146);
#772=DRAUGHTING_PRE_DEFINED_CURVE_FONT('continuous');
#773=COLOUR_RGB('',0.498039215803146,0.498039215803146,0.498039215803146);
#774=AXIS2_PLACEMENT_3D('',#1379,#1380,#1381);
#775=DRAUGHTING_PRE_DEFINED_CURVE_FONT('continuous');
#776=COLOUR_RGB('',0.200000002980232,0.600000023841858,1.0);
#777=AXIS2_PLACEMENT_3D('',#1382,#1383,#1384);
#778=DRAUGHTING_PRE_DEFINED_CURVE_FONT('continuous');
#779=COLOUR_RGB('',0.200000002980232,0.600000023841858,1.0);
#780=CARTESIAN_POINT('',(-0.117181624611204,1.39508726137596,-37.737690401687));
#781=CARTESIAN_POINT('',(-0.138468766914006,1.39329922847835,-37.7589566347354));
#782=CARTESIAN_POINT('',(-0.15692389553692,1.39123221227467,-37.7858905726496));
#783=CARTESIAN_POINT('',(-0.181415217899849,1.38825094909163,-37.844945964173));
#784=CARTESIAN_POINT('',(-0.187449399729082,1.38739422030698,-37.8770711417381));
#785=CARTESIAN_POINT('',(-0.187449399729082,1.38739422030698,-37.9373568666531));
#786=CARTESIAN_POINT('',(-0.181415217899849,1.38825094909163,-37.9694820442182));
#787=CARTESIAN_POINT('',(-0.15692389553692,1.39123221227467,-38.0285374357416));
#788=CARTESIAN_POINT('',(-0.138468766914005,1.39329922847835,-38.0554713736558));
#789=CARTESIAN_POINT('',(-0.0959259586970276,1.39687265038565,-38.0979723942817));
#790=CARTESIAN_POINT('',(-0.06900158446767,1.39861004085185,-38.1163934152249));
#791=CARTESIAN_POINT('',(-0.00999068415960436,1.40027549119428,-38.1408275166926));
#792=CARTESIAN_POINT('',(0.0220980814635057,1.40014912846684,-38.1468388675916));
#793=CARTESIAN_POINT('',(0.0824038797008532,1.39790007820479,-38.1468388675916));
#794=CARTESIAN_POINT('',(0.114562559826977,1.39562045177,-38.1407733890513));
#795=CARTESIAN_POINT('',(0.173611467778052,1.38951073541202,-38.1162485285127));
#796=CARTESIAN_POINT('',(0.200509103726029,1.38573400073898,-38.0977937209248));
#797=CARTESIAN_POINT('',(0.24292053335399,1.37893056499176,-38.0553169370546));
#798=CARTESIAN_POINT('',(0.261316537705009,1.37545227066293,-38.0284524064416));
#799=CARTESIAN_POINT('',(0.285758720113017,1.37058280964528,-37.9694843696622));
#800=CARTESIAN_POINT('',(0.291800327062856,1.36925255856106,-37.9373739545128));
#801=CARTESIAN_POINT('',(0.291800327062856,1.36925255856106,-37.9072140041956));
#802=CARTESIAN_POINT('',(0.291800327062856,1.36925255856106,-37.8770229693381));
#803=CARTESIAN_POINT('',(0.2857463781139,1.3705855963343,-37.8448817225855));
#804=CARTESIAN_POINT('',(0.261258051765335,1.37546359362798,-37.78586673519));
#805=CARTESIAN_POINT('',(0.242828249769718,1.37894741485181,-37.758986058602));
#806=CARTESIAN_POINT('',(0.221615829515077,1.38234815589574,-37.7377736383474));
#807=SURFACE_SIDE_STYLE('',(#1385));
#808=EDGE_LOOP('',(#1386,#1387,#1388));
#809=AXIS2_PLACEMENT_3D('',#1389,#1390,#1391);
#810=DRAUGHTING_PRE_DEFINED_CURVE_FONT('continuous');
#811=COLOUR_RGB('',0.200000002980232,0.600000023841858,1.0);
#812=CARTESIAN_POINT('',(-0.117181624611204,1.39508726137596,-37.737690401687));
#813=CARTESIAN_POINT('',(-0.138468766914006,1.39329922847835,-37.7589566347354));
#814=CARTESIAN_POINT('',(-0.15692389553692,1.39123221227467,-37.7858905726496));
#815=CARTESIAN_POINT('',(-0.181415217899849,1.38825094909163,-37.844945964173));
#816=CARTESIAN_POINT('',(-0.187449399729082,1.38739422030698,-37.8770711417381));
#817=CARTESIAN_POINT('',(-0.187449399729082,1.38739422030698,-37.9373568666531));
#818=CARTESIAN_POINT('',(-0.181415217899849,1.38825094909163,-37.9694820442182));
#819=CARTESIAN_POINT('',(-0.15692389553692,1.39123221227467,-38.0285374357416));
#820=CARTESIAN_POINT('',(-0.138468766914005,1.39329922847835,-38.0554713736558));
#821=CARTESIAN_POINT('',(-0.0959259586970276,1.39687265038565,-38.0979723942817));
#822=CARTESIAN_POINT('',(-0.06900158446767,1.39861004085185,-38.1163934152249));
#823=CARTESIAN_POINT('',(-0.00999068415960436,1.40027549119428,-38.1408275166926));
#824=CARTESIAN_POINT('',(0.0220980814635057,1.40014912846684,-38.1468388675916));
#825=CARTESIAN_POINT('',(0.0824038797008532,1.39790007820479,-38.1468388675916));
#826=CARTESIAN_POINT('',(0.114562559826977,1.39562045177,-38.1407733890513));
#827=CARTESIAN_POINT('',(0.173611467778052,1.38951073541202,-38.1162485285127));
#828=CARTESIAN_POINT('',(0.200509103726029,1.38573400073898,-38.0977937209248));
#829=CARTESIAN_POINT('',(0.24292053335399,1.37893056499176,-38.0553169370546));
#830=CARTESIAN_POINT('',(0.261316537705009,1.37545227066293,-38.0284524064416));
#831=CARTESIAN_POINT('',(0.285758720113017,1.37058280964528,-37.9694843696622));
#832=CARTESIAN_POINT('',(0.291800327062856,1.36925255856106,-37.9373739545128));
#833=CARTESIAN_POINT('',(0.291800327062856,1.36925255856106,-37.9072140041956));
#834=CARTESIAN_POINT('',(0.291800327062856,1.36925255856106,-37.8770229693381));
#835=CARTESIAN_POINT('',(0.2857463781139,1.3705855963343,-37.8448817225855));
#836=CARTESIAN_POINT('',(0.261258051765335,1.37546359362798,-37.78586673519));
#837=CARTESIAN_POINT('',(0.242828249769718,1.37894741485181,-37.758986058602));
#838=CARTESIAN_POINT('',(0.221615829515077,1.38234815589574,-37.7377736383474));
#839=PRE_DEFINED_MARKER('');
#840=COLOUR_RGB('',0.200000002980232,0.600000023841858,1.0);
#841=DRAUGHTING_PRE_DEFINED_CURVE_FONT('continuous');
#842=COLOUR_RGB('',0.498039215803146,0.498039215803146,0.498039215803146);
#843=CARTESIAN_POINT('',(-1.22430020223392E-016,0.99975,-42.65));
#844=VECTOR('',#1392,1.0);
#845=SURFACE_SIDE_STYLE('',(#1393));
#846=EDGE_LOOP('',(#1394,#1395));
#847=AXIS2_PLACEMENT_3D('',#1396,#1397,#1398);
#848=DRAUGHTING_PRE_DEFINED_CURVE_FONT('continuous');
#849=COLOUR_RGB('',0.498039215803146,0.498039215803146,0.498039215803146);
#850=AXIS2_PLACEMENT_3D('',#1399,#1400,#1401);
#851=PRE_DEFINED_MARKER('');
#852=COLOUR_RGB('',0.498039215803146,0.498039215803146,0.498039215803146);
#853=DRAUGHTING_PRE_DEFINED_CURVE_FONT('continuous');
#854=COLOUR_RGB('',0.498039215803146,0.498039215803146,0.498039215803146);
#855=AXIS2_PLACEMENT_3D('',#1402,#1403,#1404);
#856=DRAUGHTING_PRE_DEFINED_CURVE_FONT('continuous');
#857=COLOUR_RGB('',0.800000011920929,0.800000011920929,0.800000011920929);
#858=AXIS2_PLACEMENT_3D('',#1405,#1406,#1407);
#859=DRAUGHTING_PRE_DEFINED_CURVE_FONT('continuous');
#860=COLOUR_RGB('',0.498039215803146,0.498039215803146,0.498039215803146);
#861=AXIS2_PLACEMENT_3D('',#1408,#1409,#1410);
#862=PRE_DEFINED_MARKER('');
#863=COLOUR_RGB('',0.800000011920929,0.800000011920929,0.800000011920929);
#864=DRAUGHTING_PRE_DEFINED_CURVE_FONT('continuous');
#865=COLOUR_RGB('',0.200000002980232,0.600000023841858,1.0);
#866=AXIS2_PLACEMENT_3D('',#1411,#1412,#1413);
#867=DRAUGHTING_PRE_DEFINED_CURVE_FONT('continuous');
#868=COLOUR_RGB('',0.200000002980232,0.600000023841858,1.0);
#869=CARTESIAN_POINT('',(0.266477242128121,0.0,-37.800000092291));
#870=VECTOR('',#1414,1.0);
#871=SURFACE_SIDE_STYLE('',(#1415));
#872=EDGE_LOOP('',(#1416,#1417,#1418,#1419,#1420,#1421,#1422,#1423,#1424,#1425,#1426,#1427));
#873=AXIS2_PLACEMENT_3D('',#1428,#1429,#1430);
#874=PRE_DEFINED_MARKER('');
#875=COLOUR_RGB('',0.498039215803146,0.498039215803146,0.498039215803146);
#876=DRAUGHTING_PRE_DEFINED_CURVE_FONT('continuous');
#877=COLOUR_RGB('',0.800000011920929,0.800000011920929,0.800000011920929);
#878=AXIS2_PLACEMENT_3D('',#1431,#1432,#1433);
#879=SURFACE_SIDE_STYLE('',(#1434));
#880=EDGE_LOOP('',(#1435,#1436,#1437,#1438,#1439));
#881=AXIS2_PLACEMENT_3D('',#1440,#1441,#1442);
#882=SURFACE_SIDE_STYLE('',(#1443));
#883=EDGE_LOOP('',(#1444,#1445));
#884=AXIS2_PLACEMENT_3D('',#1446,#1447,#1448);
#885=PRE_DEFINED_MARKER('');
#886=COLOUR_RGB('',0.498039215803146,0.498039215803146,0.498039215803146);
#887=DRAUGHTING_PRE_DEFINED_CURVE_FONT('continuous');
#888=COLOUR_RGB('',0.200000002980232,0.600000023841858,1.0);
#889=CARTESIAN_POINT('',(0.445736688382193,1.32714686626239,-38.267535689468));
#890=VECTOR('',#1449,1.0);
#891=DRAUGHTING_PRE_DEFINED_CURVE_FONT('continuous');
#892=COLOUR_RGB('',0.200000002980232,0.600000023841858,1.0);
#893=CARTESIAN_POINT('',(0.191042345276873,0.0,-38.2767766558089));
#894=VECTOR('',#1450,1.0);
#895=DRAUGHTING_PRE_DEFINED_CURVE_FONT('continuous');
#896=COLOUR_RGB('',0.800000011920929,0.800000011920929,0.800000011920929);
#897=CARTESIAN_POINT('',(0.25,3.06151588455594E-017,-54.89644661));
#898=VECTOR('',#1451,1.0);
#899=DRAUGHTING_PRE_DEFINED_CURVE_FONT('continuous');
#900=COLOUR_RGB('',0.498039215803146,0.498039215803146,0.498039215803146);
#901=AXIS2_PLACEMENT_3D('',#1452,#1453,#1454);
#902=DRAUGHTING_PRE_DEFINED_CURVE_FONT('continuous');
#903=COLOUR_RGB('',0.800000011920929,0.800000011920929,0.800000011920929);
#904=CARTESIAN_POINT('',(-0.5,-6.12303176911189E-017,-52.39644661));
#905=VECTOR('',#1455,1.0);
#906=SURFACE_SIDE_STYLE('',(#1456));
#907=EDGE_LOOP('',(#1457,#1458,#1459,#1460));
#908=AXIS2_PLACEMENT_3D('',#1461,#1462,#1463);
#909=DRAUGHTING_PRE_DEFINED_CURVE_FONT('continuous');
#910=COLOUR_RGB('',0.498039215803146,0.498039215803146,0.498039215803146);
#911=CARTESIAN_POINT('',(-1.83690953073357E-016,1.5,-20.5));
#912=VECTOR('',#1464,1.0);
#913=DRAUGHTING_PRE_DEFINED_CURVE_FONT('continuous');
#914=COLOUR_RGB('',0.498039215803146,0.498039215803146,0.498039215803146);
#915=CARTESIAN_POINT('',(-0.510663884086718,1.41039795713461,-38.4761414932216));
#916=CARTESIAN_POINT('',(-0.482882195324521,1.42045688567567,-38.5428917331796));
#917=CARTESIAN_POINT('',(-0.441244348092513,1.43448916486863,-38.6034830495674));
#918=CARTESIAN_POINT('',(-0.34559676176087,1.46048597628377,-38.699175425681));
#919=CARTESIAN_POINT('',(-0.284974339318753,1.47422809273278,-38.7408778107875));
#920=CARTESIAN_POINT('',(-0.151371949196347,1.49386926357127,-38.7965191841322));
#921=CARTESIAN_POINT('',(-0.0783437509828543,1.49953600664492,-38.8104241111695));
#922=CARTESIAN_POINT('',(0.059308117302166,1.50040360289934,-38.8104241111695));
#923=CARTESIAN_POINT('',(0.132276716500882,1.49567479625857,-38.7965653151316));
#924=CARTESIAN_POINT('',(0.199061940328441,1.48673277488346,-38.7687830304685));
#925=SURFACE_SIDE_STYLE('',(#1465));
#926=EDGE_LOOP('',(#1466,#1467,#1468,#1469));
#927=AXIS2_PLACEMENT_3D('',#1470,#1471,#1472);
#928=SURFACE_SIDE_STYLE('',(#1473));
#929=PRE_DEFINED_MARKER('');
#930=COLOUR_RGB('',0.498039215803146,0.498039215803146,0.498039215803146);
#931=DRAUGHTING_PRE_DEFINED_CURVE_FONT('continuous');
#932=COLOUR_RGB('',0.498039215803146,0.498039215803146,0.498039215803146);
#933=CARTESIAN_POINT('',(1.22430020223392E-016,-0.99975,-42.65));
#934=VECTOR('',#1474,1.0);
#935=DRAUGHTING_PRE_DEFINED_CURVE_FONT('continuous');
#936=COLOUR_RGB('',0.498039215803146,0.498039215803146,0.498039215803146);
#937=CARTESIAN_POINT('',(0.291186927252986,1.4714653150506,-38.4797713897937));
#938=VECTOR('',#1475,1.0);
#939=DRAUGHTING_PRE_DEFINED_CURVE_FONT('continuous');
#940=COLOUR_RGB('',0.200000002980232,0.600000023841858,1.0);
#941=CARTESIAN_POINT('',(0.0967010423452768,0.0,-38.7999442996743));
#942=VECTOR('',#1476,1.0);
#943=DRAUGHTING_PRE_DEFINED_CURVE_FONT('continuous');
#944=COLOUR_RGB('',0.800000011920929,0.800000011920929,0.800000011920929);
#945=CARTESIAN_POINT('',(-0.25,-3.06151588455594E-017,-54.89644661));
#946=VECTOR('',#1477,1.0);
#947=PRE_DEFINED_MARKER('');
#948=COLOUR_RGB('',0.498039215803146,0.498039215803146,0.498039215803146);
#949=SURFACE_SIDE_STYLE('',(#1478));
#950=EDGE_LOOP('',(#1479,#1480,#1481,#1482));
#951=AXIS2_PLACEMENT_3D('',#1483,#1484,#1485);
#952=PRE_DEFINED_MARKER('');
#953=COLOUR_RGB('',0.800000011920929,0.800000011920929,0.800000011920929);
#954=SURFACE_SIDE_STYLE('',(#1486));
#955=EDGE_LOOP('',(#1487,#1488,#1489,#1490,#1491));
#956=AXIS2_PLACEMENT_3D('',#1492,#1493,#1494);
#957=PRE_DEFINED_MARKER('');
#958=COLOUR_RGB('',0.498039215803146,0.498039215803146,0.498039215803146);
#959=PRE_DEFINED_MARKER('');
#960=COLOUR_RGB('',0.200000002980232,0.600000023841858,1.0);
#961=DRAUGHTING_PRE_DEFINED_CURVE_FONT('continuous');
#962=COLOUR_RGB('',0.498039215803146,0.498039215803146,0.498039215803146);
#963=CARTESIAN_POINT('',(0.199061849002126,1.48673278711134,-38.7687828857748));
#964=CARTESIAN_POINT('',(0.265847067215447,1.47779077066393,-38.7410006035899));
#965=CARTESIAN_POINT('',(0.32649334241822,1.4648697423439,-38.6993265217779));
#966=CARTESIAN_POINT('',(0.422252417114927,1.44019132283688,-38.6036106277201));
#967=CARTESIAN_POINT('',(0.463941140424689,1.42675317793294,-38.54295936927));
#968=CARTESIAN_POINT('',(0.491743345585497,1.4171056707502,-38.4761709487976));
#969=PRE_DEFINED_MARKER('');
#970=COLOUR_RGB('',0.800000011920929,0.800000011920929,0.800000011920929);
#971=DRAUGHTING_PRE_DEFINED_CURVE_FONT('continuous');
#972=COLOUR_RGB('',0.800000011920929,0.800000011920929,0.800000011920929);
#973=AXIS2_PLACEMENT_3D('',#1495,#1496,#1497);
#974=SURFACE_SIDE_STYLE('',(#1498));
#975=EDGE_LOOP('',(#1499,#1500,#1501,#1502,#1503,#1504,#1505,#1506,#1507,#1508,#1509,#1510));
#976=AXIS2_PLACEMENT_3D('',#1511,#1512,#1513);
#977=SURFACE_SIDE_STYLE('',(#1514));
#978=EDGE_LOOP('',(#1515,#1516,#1517,#1518));
#979=AXIS2_PLACEMENT_3D('',#1519,#1520,#1521);
#980=PRE_DEFINED_MARKER('');
#981=COLOUR_RGB('',0.800000011920929,0.800000011920929,0.800000011920929);
#982=SURFACE_SIDE_STYLE('',(#1522));
#983=EDGE_LOOP('',(#1523,#1524,#1525,#1526));
#984=AXIS2_PLACEMENT_3D('',#1527,#1528,#1529);
#985=DRAUGHTING_PRE_DEFINED_CURVE_FONT('continuous');
#986=COLOUR_RGB('',0.498039215803146,0.498039215803146,0.498039215803146);
#987=AXIS2_PLACEMENT_3D('',#1530,#1531,#1532);
#988=DRAUGHTING_PRE_DEFINED_CURVE_FONT('continuous');
#989=COLOUR_RGB('',0.498039215803146,0.498039215803146,0.498039215803146);
#990=CARTESIAN_POINT('',(-0.314868906269419,1.46658023028565,-37.7574949574024));
#991=CARTESIAN_POINT('',(-0.335050458532666,1.46224733367956,-37.8060820694257));
#992=CARTESIAN_POINT('',(-0.345036339300622,1.45977735444897,-37.8590167931671));
#993=CARTESIAN_POINT('',(-0.345036339300621,1.45977735444897,-37.9585177806548));
#994=CARTESIAN_POINT('',(-0.335050458532666,1.46224733367956,-38.0114525043962));
#995=CARTESIAN_POINT('',(-0.294687354006183,1.47091312689174,-38.1086267284426));
#996=CARTESIAN_POINT('',(-0.264319381944401,1.47695271033967,-38.1528839400996));
#997=CARTESIAN_POINT('',(-0.194416198846918,1.48776678314766,-38.2226824192427));
#998=CARTESIAN_POINT('',(-0.150190002765001,1.49325454353536,-38.2529651939691));
#999=CARTESIAN_POINT('',(-0.0531271239485839,1.49984788471278,-38.2931900793177));
#1000=CARTESIAN_POINT('',(-0.000277601456355456,1.50082058647412,-38.3031228766955));
#1001=CARTESIAN_POINT('',(0.0992584208997275,1.49754612136718,-38.3031228766955));
#1002=CARTESIAN_POINT('',(0.152267005818255,1.49305636381024,-38.2930669468251));
#1003=CARTESIAN_POINT('',(0.200841428620677,1.48649343104825,-38.2728515638676));
#1004=PRE_DEFINED_MARKER('');
#1005=COLOUR_RGB('',0.200000002980232,0.600000023841858,1.0);
#1006=DRAUGHTING_PRE_DEFINED_CURVE_FONT('continuous');
#1007=COLOUR_RGB('',0.200000002980232,0.600000023841858,1.0);
#1008=CARTESIAN_POINT('',(-0.445684250814332,0.0,-38.5906934636265));
#1009=VECTOR('',#1533,1.0);
#1010=DRAUGHTING_PRE_DEFINED_CURVE_FONT('continuous');
#1011=COLOUR_RGB('',0.200000002980232,0.600000023841858,1.0);
#1012=CARTESIAN_POINT('',(0.445736688382193,0.0,-37.9716828121607));
#1013=VECTOR('',#1534,1.0);
#1014=PRE_DEFINED_MARKER('');
#1015=COLOUR_RGB('',0.498039215803146,0.498039215803146,0.498039215803146);
#1016=PRE_DEFINED_MARKER('');
#1017=COLOUR_RGB('',0.200000002980232,0.600000023841858,1.0);
#1018=PRE_DEFINED_MARKER('');
#1019=COLOUR_RGB('',0.200000002980232,0.600000023841858,1.0);
#1020=SURFACE_SIDE_STYLE('',(#1535));
#1021=EDGE_LOOP('',(#1536,#1537,#1538,#1539,#1540,#1541,#1542,#1543,#1544,#1545,#1546));
#1022=AXIS2_PLACEMENT_3D('',#1547,#1548,#1549);
#1023=PRE_DEFINED_MARKER('');
#1024=COLOUR_RGB('',0.498039215803146,0.498039215803146,0.498039215803146);
#1025=SURFACE_SIDE_STYLE('',(#1550));
#1026=EDGE_LOOP('',(#1551,#1552,#1553,#1554,#1555));
#1027=AXIS2_PLACEMENT_3D('',#1556,#1557,#1558);
#1028=SURFACE_SIDE_STYLE('',(#1559));
#1029=EDGE_LOOP('',(#1560,#1561,#1562,#1563,#1564));
#1030=AXIS2_PLACEMENT_3D('',#1565,#1566,#1567);
#1031=DRAUGHTING_PRE_DEFINED_CURVE_FONT('continuous');
#1032=COLOUR_RGB('',0.498039215803146,0.498039215803146,0.498039215803146);
#1033=CARTESIAN_POINT('',(1.65321857766021E-016,-1.35,-0.149999999999999));
#1034=VECTOR('',#1568,1.0);
#1035=PRE_DEFINED_MARKER('');
#1036=COLOUR_RGB('',0.200000002980232,0.600000023841858,1.0);
#1037=DRAUGHTING_PRE_DEFINED_CURVE_FONT('continuous');
#1038=COLOUR_RGB('',0.200000002980232,0.600000023841858,1.0);
#1039=CARTESIAN_POINT('',(0.491686342719134,1.31081827130365,-38.4763078322725));
#1040=CARTESIAN_POINT('',(0.463869841580199,1.32125219623146,-38.5430791995198));
#1041=CARTESIAN_POINT('',(0.422198143844177,1.33574583015858,-38.603668164395));
#1042=CARTESIAN_POINT('',(0.326537028272233,1.36228968656385,-38.6992795725562));
#1043=CARTESIAN_POINT('',(0.265951888390631,1.37616139160821,-38.7409385029054));
#1044=CARTESIAN_POINT('',(0.199180085429986,1.38575874291599,-38.7687336837202));
#1045=PRE_DEFINED_MARKER('');
#1046=COLOUR_RGB('',0.498039215803146,0.498039215803146,0.498039215803146);
#1047=SURFACE_SIDE_STYLE('',(#1569));
#1048=EDGE_LOOP('',(#1570,#1571,#1572,#1573));
#1049=AXIS2_PLACEMENT_3D('',#1574,#1575,#1576);
#1050=DRAUGHTING_PRE_DEFINED_CURVE_FONT('continuous');
#1051=COLOUR_RGB('',0.200000002980232,0.600000023841858,1.0);
#1052=CARTESIAN_POINT('',(0.291186927252986,0.0,-38.2399643865364));
#1053=VECTOR('',#1577,1.0);
#1054=PRE_DEFINED_MARKER('');
#1055=COLOUR_RGB('',0.200000002980232,0.600000023841858,1.0);
#1056=PRE_DEFINED_MARKER('');
#1057=COLOUR_RGB('',0.498039215803146,0.498039215803146,0.498039215803146);
#1058=DRAUGHTING_PRE_DEFINED_CURVE_FONT('continuous');
#1059=COLOUR_RGB('',0.498039215803146,0.498039215803146,0.498039215803146);
#1060=AXIS2_PLACEMENT_3D('',#1578,#1579,#1580);
#1061=DRAUGHTING_PRE_DEFINED_CURVE_FONT('continuous');
#1062=COLOUR_RGB('',0.498039215803146,0.498039215803146,0.498039215803146);
#1063=AXIS2_PLACEMENT_3D('',#1581,#1582,#1583);
#1064=PRE_DEFINED_MARKER('');
#1065=COLOUR_RGB('',0.498039215803146,0.498039215803146,0.498039215803146);
#1066=DRAUGHTING_PRE_DEFINED_CURVE_FONT('continuous');
#1067=COLOUR_RGB('',0.498039215803146,0.498039215803146,0.498039215803146);
#1068=CARTESIAN_POINT('',(-0.510663884086718,1.41039795713461,-38.4761414932216));
#1069=CARTESIAN_POINT('',(-0.482882195324521,1.42045688567567,-38.5428917331796));
#1070=CARTESIAN_POINT('',(-0.441244348092513,1.43448916486863,-38.6034830495674));
#1071=CARTESIAN_POINT('',(-0.34559676176087,1.46048597628377,-38.699175425681));
#1072=CARTESIAN_POINT('',(-0.284974339318753,1.47422809273278,-38.7408778107875));
#1073=CARTESIAN_POINT('',(-0.151371949196347,1.49386926357127,-38.7965191841322));
#1074=CARTESIAN_POINT('',(-0.0783437509828543,1.49953600664492,-38.8104241111695));
#1075=CARTESIAN_POINT('',(0.059308117302166,1.50040360289934,-38.8104241111695));
#1076=CARTESIAN_POINT('',(0.132276716500882,1.49567479625857,-38.7965653151316));
#1077=CARTESIAN_POINT('',(0.199061940328441,1.48673277488346,-38.7687830304685));
#1078=DRAUGHTING_PRE_DEFINED_CURVE_FONT('continuous');
#1079=COLOUR_RGB('',0.800000011920929,0.800000011920929,0.800000011920929);
#1080=AXIS2_PLACEMENT_3D('',#1584,#1585,#1586);
#1081=DRAUGHTING_PRE_DEFINED_CURVE_FONT('continuous');
#1082=COLOUR_RGB('',0.498039215803146,0.498039215803146,0.498039215803146);
#1083=AXIS2_PLACEMENT_3D('',#1587,#1588,#1589);
#1084=PRE_DEFINED_MARKER('');
#1085=COLOUR_RGB('',0.200000002980232,0.600000023841858,1.0);
#1086=PRE_DEFINED_MARKER('');
#1087=COLOUR_RGB('',0.498039215803146,0.498039215803146,0.498039215803146);
#1088=SURFACE_SIDE_STYLE('',(#1590));
#1089=EDGE_LOOP('',(#1591,#1592,#1593,#1594));
#1090=AXIS2_PLACEMENT_3D('',#1595,#1596,#1597);
#1091=DRAUGHTING_PRE_DEFINED_CURVE_FONT('continuous');
#1092=COLOUR_RGB('',0.200000002980232,0.600000023841858,1.0);
#1093=CARTESIAN_POINT('',(0.199180176910604,1.38575872976715,-38.7687338283494));
#1094=CARTESIAN_POINT('',(0.132408368329894,1.39535608638171,-38.796529011669));
#1095=CARTESIAN_POINT('',(0.0593995279736131,1.40043305029661,-38.8104241111695));
#1096=CARTESIAN_POINT('',(-0.0784552747615234,1.39950210972247,-38.8104241111695));
#1097=CARTESIAN_POINT('',(-0.15153324696165,1.3934165949244,-38.7964755055559));
#1098=CARTESIAN_POINT('',(-0.285113817743679,1.37232730878111,-38.7407961721918));
#1099=CARTESIAN_POINT('',(-0.345671056748324,1.3575672374164,-38.6991045148745));
#1100=CARTESIAN_POINT('',(-0.44120303878569,1.32959281694928,-38.6035209583352));
#1101=CARTESIAN_POINT('',(-0.482815583798974,1.31445046880523,-38.5430016760065));
#1102=CARTESIAN_POINT('',(-0.510608347789736,1.30356400501373,-38.4762748784508));
#1103=DRAUGHTING_PRE_DEFINED_CURVE_FONT('continuous');
#1104=COLOUR_RGB('',0.200000002980232,0.600000023841858,1.0);
#1105=CARTESIAN_POINT('',(-0.187444663409338,0.0,-37.9057073995657));
#1106=VECTOR('',#1598,1.0);
#1107=PRE_DEFINED_MARKER('');
#1108=COLOUR_RGB('',0.498039215803146,0.498039215803146,0.498039215803146);
#1109=PRE_DEFINED_MARKER('');
#1110=COLOUR_RGB('',0.498039215803146,0.498039215803146,0.498039215803146);
#1111=PRE_DEFINED_MARKER('');
#1112=COLOUR_RGB('',0.800000011920929,0.800000011920929,0.800000011920929);
#1113=DRAUGHTING_PRE_DEFINED_CURVE_FONT('continuous');
#1114=COLOUR_RGB('',0.200000002980232,0.600000023841858,1.0);
#1115=CARTESIAN_POINT('',(0.291186927252985,0.0,-38.719578393051));
#1116=VECTOR('',#1599,1.0);
#1117=PRE_DEFINED_MARKER('');
#1118=COLOUR_RGB('',0.498039215803146,0.498039215803146,0.498039215803146);
#1119=DRAUGHTING_PRE_DEFINED_CURVE_FONT('continuous');
#1120=COLOUR_RGB('',0.200000002980232,0.600000023841858,1.0);
#1121=AXIS2_PLACEMENT_3D('',#1600,#1601,#1602);
#1122=DRAUGHTING_PRE_DEFINED_CURVE_FONT('continuous');
#1123=COLOUR_RGB('',0.498039215803146,0.498039215803146,0.498039215803146);
#1124=AXIS2_PLACEMENT_3D('',#1603,#1604,#1605);
#1125=PRE_DEFINED_MARKER('');
#1126=COLOUR_RGB('',0.200000002980232,0.600000023841858,1.0);
#1127=DRAUGHTING_PRE_DEFINED_CURVE_FONT('continuous');
#1128=COLOUR_RGB('',0.498039215803146,0.498039215803146,0.498039215803146);
#1129=CARTESIAN_POINT('',(-1.83690953073357E-016,1.5,-20.5));
#1130=VECTOR('',#1606,1.0);
#1131=SURFACE_SIDE_STYLE('',(#1607));
#1132=EDGE_LOOP('',(#1608,#1609,#1610));
#1133=AXIS2_PLACEMENT_3D('',#1611,#1612,#1613);
#1134=DRAUGHTING_PRE_DEFINED_CURVE_FONT('continuous');
#1135=COLOUR_RGB('',0.498039215803146,0.498039215803146,0.498039215803146);
#1136=CARTESIAN_POINT('',(-6.11690873734277E-017,0.4995,-47.25));
#1137=VECTOR('',#1614,1.0);
#1138=DRAUGHTING_PRE_DEFINED_CURVE_FONT('continuous');
#1139=COLOUR_RGB('',0.498039215803146,0.498039215803146,0.498039215803146);
#1140=CARTESIAN_POINT('',(0.491743348242611,1.41710566982817,-38.0589004347604));
#1141=CARTESIAN_POINT('',(0.463941142106075,1.42675317740789,-37.9921120119755));
#1142=CARTESIAN_POINT('',(0.42225241733621,1.44019132283161,-37.9314607514286));
#1143=CARTESIAN_POINT('',(0.326493339315814,1.46486974309175,-37.8357448541152));
#1144=CARTESIAN_POINT('',(0.265847062040816,1.47779077169742,-37.7940707709));
#1145=CARTESIAN_POINT('',(0.199061841552505,1.48673278810879,-37.7662884877836));
#1146=DRAUGHTING_PRE_DEFINED_CURVE_FONT('continuous');
#1147=COLOUR_RGB('',0.200000002980232,0.600000023841858,1.0);
#1148=CARTESIAN_POINT('',(-0.162126314794349,1.43475451892426,-38.0144279161002));
#1149=VECTOR('',#1615,1.0);
#1150=DRAUGHTING_PRE_DEFINED_CURVE_FONT('continuous');
#1151=COLOUR_RGB('',0.200000002980232,0.600000023841858,1.0);
#1152=CARTESIAN_POINT('',(0.445736688382193,0.0,-38.5633885667752));
#1153=VECTOR('',#1616,1.0);
#1154=DRAUGHTING_PRE_DEFINED_CURVE_FONT('continuous');
#1155=COLOUR_RGB('',0.200000002980232,0.600000023841858,1.0);
#1156=CARTESIAN_POINT('',(0.199180077969662,1.38575874398829,-37.7663376898337));
#1157=CARTESIAN_POINT('',(0.265951883202218,1.37616139272086,-37.794132871577));
#1158=CARTESIAN_POINT('',(0.32653702515263,1.36228968737254,-37.835791803325));
#1159=CARTESIAN_POINT('',(0.422198144050778,1.33574583015829,-37.931403214734));
#1160=CARTESIAN_POINT('',(0.463869843250635,1.32125219566903,-37.991992181706));
#1161=CARTESIAN_POINT('',(0.49168634536898,1.31081827030969,-38.0587635512681));
#1162=PRE_DEFINED_MARKER('');
#1163=COLOUR_RGB('',0.498039215803146,0.498039215803146,0.498039215803146);
#1164=DRAUGHTING_PRE_DEFINED_CURVE_FONT('continuous');
#1165=COLOUR_RGB('',0.200000002980232,0.600000023841858,1.0);
#1166=CARTESIAN_POINT('',(0.291186927252986,1.36938313608609,-38.4797713897937));
#1167=VECTOR('',#1617,1.0);
#1168=PRE_DEFINED_MARKER('');
#1169=COLOUR_RGB('',0.200000002980232,0.600000023841858,1.0);
#1170=DRAUGHTING_PRE_DEFINED_CURVE_FONT('continuous');
#1171=COLOUR_RGB('',0.498039215803146,0.498039215803146,0.498039215803146);
#1172=CARTESIAN_POINT('',(-1.65321857766021E-016,1.35,-0.149999999999999));
#1173=VECTOR('',#1618,1.0);
#1174=DRAUGHTING_PRE_DEFINED_CURVE_FONT('continuous');
#1175=COLOUR_RGB('',0.498039215803146,0.498039215803146,0.498039215803146);
#1176=CARTESIAN_POINT('',(1.83690953073357E-016,-1.5,-20.5));
#1177=VECTOR('',#1619,1.0);
#1178=SURFACE_SIDE_STYLE('',(#1620));
#1179=EDGE_LOOP('',(#1621,#1622,#1623,#1624));
#1180=AXIS2_PLACEMENT_3D('',#1625,#1626,#1627);
#1181=DRAUGHTING_PRE_DEFINED_CURVE_FONT('continuous');
#1182=COLOUR_RGB('',0.498039215803146,0.498039215803146,0.498039215803146);
#1183=AXIS2_PLACEMENT_3D('',#1628,#1629,#1630);
#1184=SURFACE_SIDE_STYLE('',(#1631));
#1185=EDGE_LOOP('',(#1632,#1633,#1634,#1635));
#1186=AXIS2_PLACEMENT_3D('',#1636,#1637,#1638);
#1187=DRAUGHTING_PRE_DEFINED_CURVE_FONT('continuous');
#1188=COLOUR_RGB('',0.498039215803146,0.498039215803146,0.498039215803146);
#1189=AXIS2_PLACEMENT_3D('',#1639,#1640,#1641);
#1190=DRAUGHTING_PRE_DEFINED_CURVE_FONT('continuous');
#1191=COLOUR_RGB('',0.498039215803146,0.498039215803146,0.498039215803146);
#1192=CARTESIAN_POINT('',(6.11690873734277E-017,-0.4995,-47.25));
#1193=VECTOR('',#1642,1.0);
#1194=SURFACE_SIDE_STYLE('',(#1643));
#1195=EDGE_LOOP('',(#1644,#1645,#1646));
#1196=AXIS2_PLACEMENT_3D('',#1647,#1648,#1649);
#1197=PRE_DEFINED_MARKER('');
#1198=COLOUR_RGB('',0.498039215803146,0.498039215803146,0.498039215803146);
#1199=DRAUGHTING_PRE_DEFINED_CURVE_FONT('continuous');
#1200=COLOUR_RGB('',0.498039215803146,0.498039215803146,0.498039215803146);
#1201=CARTESIAN_POINT('',(-0.314868906269419,1.46658023028565,-37.7574949574024));
#1202=CARTESIAN_POINT('',(-0.335050458532666,1.46224733367956,-37.8060820694257));
#1203=CARTESIAN_POINT('',(-0.345036339300622,1.45977735444897,-37.8590167931671));
#1204=CARTESIAN_POINT('',(-0.345036339300621,1.45977735444897,-37.9585177806548));
#1205=CARTESIAN_POINT('',(-0.335050458532666,1.46224733367956,-38.0114525043962));
#1206=CARTESIAN_POINT('',(-0.294687354006183,1.47091312689174,-38.1086267284426));
#1207=CARTESIAN_POINT('',(-0.264319381944401,1.47695271033967,-38.1528839400996));
#1208=CARTESIAN_POINT('',(-0.194416198846918,1.48776678314766,-38.2226824192427));
#1209=CARTESIAN_POINT('',(-0.150190002765001,1.49325454353536,-38.2529651939691));
#1210=CARTESIAN_POINT('',(-0.0531271239485839,1.49984788471278,-38.2931900793177));
#1211=CARTESIAN_POINT('',(-0.000277601456355456,1.50082058647412,-38.3031228766955));
#1212=CARTESIAN_POINT('',(0.0992584208997275,1.49754612136718,-38.3031228766955));
#1213=CARTESIAN_POINT('',(0.152267005818255,1.49305636381024,-38.2930669468251));
#1214=CARTESIAN_POINT('',(0.200841428620677,1.48649343104825,-38.2728515638676));
#1215=SURFACE_SIDE_STYLE('',(#1650));
#1216=EDGE_LOOP('',(#1651,#1652,#1653,#1654));
#1217=AXIS2_PLACEMENT_3D('',#1655,#1656,#1657);
#1218=PRE_DEFINED_MARKER('');
#1219=COLOUR_RGB('',0.498039215803146,0.498039215803146,0.498039215803146);
#1220=SURFACE_SIDE_STYLE('',(#1658));
#1221=EDGE_LOOP('',(#1659,#1660,#1661,#1662));
#1222=AXIS2_PLACEMENT_3D('',#1663,#1664,#1665);
#1223=DRAUGHTING_PRE_DEFINED_CURVE_FONT('continuous');
#1224=COLOUR_RGB('',0.498039215803146,0.498039215803146,0.498039215803146);
#1225=CARTESIAN_POINT('',(0.445736688382193,1.43224257883575,-38.267535689468));
#1226=VECTOR('',#1666,1.0);
#1227=DRAUGHTING_PRE_DEFINED_CURVE_FONT('continuous');
#1228=COLOUR_RGB('',0.498039215803146,0.498039215803146,0.498039215803146);
#1229=AXIS2_PLACEMENT_3D('',#1667,#1668,#1669);
#1230=DRAUGHTING_PRE_DEFINED_CURVE_FONT('continuous');
#1231=COLOUR_RGB('',0.800000011920929,0.800000011920929,0.800000011920929);
#1232=CARTESIAN_POINT('',(0.5,6.12303176911189E-017,-52.39644661));
#1233=VECTOR('',#1670,1.0);
#1234=SURFACE_SIDE_STYLE('',(#1671));
#1235=EDGE_LOOP('',(#1672,#1673,#1674,#1675));
#1236=AXIS2_PLACEMENT_3D('',#1676,#1677,#1678);
#1237=DRAUGHTING_PRE_DEFINED_CURVE_FONT('continuous');
#1238=COLOUR_RGB('',0.498039215803146,0.498039215803146,0.498039215803146);
#1239=AXIS2_PLACEMENT_3D('',#1679,#1680,#1681);
#1240=PRE_DEFINED_MARKER('');
#1241=COLOUR_RGB('',0.498039215803146,0.498039215803146,0.498039215803146);
#1242=DRAUGHTING_PRE_DEFINED_CURVE_FONT('continuous');
#1243=COLOUR_RGB('',0.200000002980232,0.600000023841858,1.0);
#1244=CARTESIAN_POINT('',(-0.345024467969599,0.0,-37.9057073995657));
#1245=VECTOR('',#1682,1.0);
#1246=PRE_DEFINED_MARKER('');
#1247=COLOUR_RGB('',0.498039215803146,0.498039215803146,0.498039215803146);
#1248=SURFACE_SIDE_STYLE('',(#1683));
#1249=PRE_DEFINED_MARKER('');
#1250=COLOUR_RGB('',0.498039215803146,0.498039215803146,0.498039215803146);
#1251=SURFACE_SIDE_STYLE('',(#1684));
#1252=EDGE_LOOP('',(#1685,#1686,#1687,#1688));
#1253=AXIS2_PLACEMENT_3D('',#1689,#1690,#1691);
#1254=PRE_DEFINED_MARKER('');
#1255=COLOUR_RGB('',0.498039215803146,0.498039215803146,0.498039215803146);
#1256=DRAUGHTING_PRE_DEFINED_CURVE_FONT('continuous');
#1257=COLOUR_RGB('',0.498039215803146,0.498039215803146,0.498039215803146);
#1258=CARTESIAN_POINT('',(0.221729286755512,1.48352152778276,-37.7378871716097));
#1259=CARTESIAN_POINT('',(0.242916664335147,1.48035483149223,-37.7591029518554));
#1260=CARTESIAN_POINT('',(0.261318671695974,1.47711443847429,-37.7859780646235));
#1261=CARTESIAN_POINT('',(0.285762500920562,1.47258083232378,-37.8449554464605));
#1262=CARTESIAN_POINT('',(0.291800327062856,1.47134379705289,-37.8770636764107));
#1263=CARTESIAN_POINT('',(0.291800327062856,1.47134379705289,-37.9072140041956));
#1264=CARTESIAN_POINT('',(0.291800327062856,1.47134379705289,-37.9373643319804));
#1265=CARTESIAN_POINT('',(0.285762500920559,1.47258083232378,-37.9694725619307));
#1266=CARTESIAN_POINT('',(0.261318671695972,1.47711443847429,-38.0284499437677));
#1267=CARTESIAN_POINT('',(0.242916664335146,1.48035483149223,-38.0553250565357));
#1268=CARTESIAN_POINT('',(0.200487072889916,1.4866964199844,-38.0978115268238));
#1269=CARTESIAN_POINT('',(0.173583194808325,1.49021764919555,-38.1162645841107));
#1270=CARTESIAN_POINT('',(0.114535660161262,1.49591488728219,-38.1407802443434));
#1271=CARTESIAN_POINT('',(0.0823855330622715,1.49804084650163,-38.1468388675916));
#1272=CARTESIAN_POINT('',(0.022096731509681,1.5001391803914,-38.1468388675916));
#1273=CARTESIAN_POINT('',(-0.00999262344409855,1.5002571208703,-38.1408272955109));
#1274=CARTESIAN_POINT('',(-0.0690070987492227,1.49870253939413,-38.1163905501035));
#1275=CARTESIAN_POINT('',(-0.0959341735062562,1.49708093351492,-38.0979668841244));
#1276=CARTESIAN_POINT('',(-0.138477984082618,1.49374686847048,-38.055459464118));
#1277=CARTESIAN_POINT('',(-0.1569313723902,1.49181914896708,-38.0285240496651));
#1278=CARTESIAN_POINT('',(-0.181417959074002,1.48903974234222,-37.969470789854));
#1279=CARTESIAN_POINT('',(-0.187449399729082,1.48824148663488,-37.9373497129873));
#1280=CARTESIAN_POINT('',(-0.187449399729082,1.48824148663488,-37.8770782954039));
#1281=CARTESIAN_POINT('',(-0.181417959074002,1.48903974234222,-37.8449572185372));
#1282=CARTESIAN_POINT('',(-0.1569313723902,1.49181914896708,-37.7859039587261));
#1283=CARTESIAN_POINT('',(-0.138477984082619,1.49374686847048,-37.7589685442732));
#1284=CARTESIAN_POINT('',(-0.117192388826771,1.49541497384541,-37.7377011560123));
#1285=DRAUGHTING_PRE_DEFINED_CURVE_FONT('continuous');
#1286=COLOUR_RGB('',0.498039215803146,0.498039215803146,0.498039215803146);
#1287=CARTESIAN_POINT('',(0.221729286755512,1.48352152778276,-37.7378871716097));
#1288=CARTESIAN_POINT('',(0.242916664335147,1.48035483149223,-37.7591029518554));
#1289=CARTESIAN_POINT('',(0.261318671695974,1.47711443847429,-37.7859780646235));
#1290=CARTESIAN_POINT('',(0.285762500920562,1.47258083232378,-37.8449554464605));
#1291=CARTESIAN_POINT('',(0.291800327062856,1.47134379705289,-37.8770636764107));
#1292=CARTESIAN_POINT('',(0.291800327062856,1.47134379705289,-37.9072140041956));
#1293=CARTESIAN_POINT('',(0.291800327062856,1.47134379705289,-37.9373643319804));
#1294=CARTESIAN_POINT('',(0.285762500920559,1.47258083232378,-37.9694725619307));
#1295=CARTESIAN_POINT('',(0.261318671695972,1.47711443847429,-38.0284499437677));
#1296=CARTESIAN_POINT('',(0.242916664335146,1.48035483149223,-38.0553250565357));
#1297=CARTESIAN_POINT('',(0.200487072889916,1.4866964199844,-38.0978115268238));
#1298=CARTESIAN_POINT('',(0.173583194808325,1.49021764919555,-38.1162645841107));
#1299=CARTESIAN_POINT('',(0.114535660161262,1.49591488728219,-38.1407802443434));
#1300=CARTESIAN_POINT('',(0.0823855330622715,1.49804084650163,-38.1468388675916));
#1301=CARTESIAN_POINT('',(0.022096731509681,1.5001391803914,-38.1468388675916));
#1302=CARTESIAN_POINT('',(-0.00999262344409855,1.5002571208703,-38.1408272955109));
#1303=CARTESIAN_POINT('',(-0.0690070987492227,1.49870253939413,-38.1163905501035));
#1304=CARTESIAN_POINT('',(-0.0959341735062562,1.49708093351492,-38.0979668841244));
#1305=CARTESIAN_POINT('',(-0.138477984082618,1.49374686847048,-38.055459464118));
#1306=CARTESIAN_POINT('',(-0.1569313723902,1.49181914896708,-38.0285240496651));
#1307=CARTESIAN_POINT('',(-0.181417959074002,1.48903974234222,-37.969470789854));
#1308=CARTESIAN_POINT('',(-0.187449399729082,1.48824148663488,-37.9373497129873));
#1309=CARTESIAN_POINT('',(-0.187449399729082,1.48824148663488,-37.8770782954039));
#1310=CARTESIAN_POINT('',(-0.181417959074002,1.48903974234222,-37.8449572185372));
#1311=CARTESIAN_POINT('',(-0.1569313723902,1.49181914896708,-37.7859039587261));
#1312=CARTESIAN_POINT('',(-0.138477984082619,1.49374686847048,-37.7589685442732));
#1313=CARTESIAN_POINT('',(-0.117192388826771,1.49541497384541,-37.7377011560123));
#1314=DRAUGHTING_PRE_DEFINED_CURVE_FONT('continuous');
#1315=COLOUR_RGB('',0.498039215803146,0.498039215803146,0.498039215803146);
#1316=CARTESIAN_POINT('',(0.221729286755512,1.48352152778276,-37.7378871716097));
#1317=CARTESIAN_POINT('',(0.242916664335147,1.48035483149223,-37.7591029518554));
#1318=CARTESIAN_POINT('',(0.261318671695974,1.47711443847429,-37.7859780646235));
#1319=CARTESIAN_POINT('',(0.285762500920562,1.47258083232378,-37.8449554464605));
#1320=CARTESIAN_POINT('',(0.291800327062856,1.47134379705289,-37.8770636764107));
#1321=CARTESIAN_POINT('',(0.291800327062856,1.47134379705289,-37.9072140041956));
#1322=CARTESIAN_POINT('',(0.291800327062856,1.47134379705289,-37.9373643319804));
#1323=CARTESIAN_POINT('',(0.285762500920559,1.47258083232378,-37.9694725619307));
#1324=CARTESIAN_POINT('',(0.261318671695972,1.47711443847429,-38.0284499437677));
#1325=CARTESIAN_POINT('',(0.242916664335146,1.48035483149223,-38.0553250565357));
#1326=CARTESIAN_POINT('',(0.200487072889916,1.4866964199844,-38.0978115268238));
#1327=CARTESIAN_POINT('',(0.173583194808325,1.49021764919555,-38.1162645841107));
#1328=CARTESIAN_POINT('',(0.114535660161262,1.49591488728219,-38.1407802443434));
#1329=CARTESIAN_POINT('',(0.0823855330622715,1.49804084650163,-38.1468388675916));
#1330=CARTESIAN_POINT('',(0.022096731509681,1.5001391803914,-38.1468388675916));
#1331=CARTESIAN_POINT('',(-0.00999262344409855,1.5002571208703,-38.1408272955109));
#1332=CARTESIAN_POINT('',(-0.0690070987492227,1.49870253939413,-38.1163905501035));
#1333=CARTESIAN_POINT('',(-0.0959341735062562,1.49708093351492,-38.0979668841244));
#1334=CARTESIAN_POINT('',(-0.138477984082618,1.49374686847048,-38.055459464118));
#1335=CARTESIAN_POINT('',(-0.1569313723902,1.49181914896708,-38.0285240496651));
#1336=CARTESIAN_POINT('',(-0.181417959074002,1.48903974234222,-37.969470789854));
#1337=CARTESIAN_POINT('',(-0.187449399729082,1.48824148663488,-37.9373497129873));
#1338=CARTESIAN_POINT('',(-0.187449399729082,1.48824148663488,-37.8770782954039));
#1339=CARTESIAN_POINT('',(-0.181417959074002,1.48903974234222,-37.8449572185372));
#1340=CARTESIAN_POINT('',(-0.1569313723902,1.49181914896708,-37.7859039587261));
#1341=CARTESIAN_POINT('',(-0.138477984082619,1.49374686847048,-37.7589685442732));
#1342=CARTESIAN_POINT('',(-0.117192388826771,1.49541497384541,-37.7377011560123));
#1343=PRE_DEFINED_MARKER('');
#1344=COLOUR_RGB('',0.200000002980232,0.600000023841858,1.0);
#1345=PRE_DEFINED_MARKER('');
#1346=COLOUR_RGB('',0.498039215803146,0.498039215803146,0.498039215803146);
#1347=DRAUGHTING_PRE_DEFINED_CURVE_FONT('continuous');
#1348=COLOUR_RGB('',0.498039215803146,0.498039215803146,0.498039215803146);
#1349=CARTESIAN_POINT('',(-1.83690953073357E-016,1.5,-20.5));
#1350=VECTOR('',#1692,1.0);
#1351=DRAUGHTING_PRE_DEFINED_CURVE_FONT('continuous');
#1352=COLOUR_RGB('',0.200000002980232,0.600000023841858,1.0);
#1353=CARTESIAN_POINT('',(0.20093474970012,1.38550540466753,-38.2728127120872));
#1354=CARTESIAN_POINT('',(0.152361027198009,1.39254987285908,-38.2930424128849));
#1355=CARTESIAN_POINT('',(0.0993229298639763,1.39736839466311,-38.3031228766955));
#1356=CARTESIAN_POINT('',(-0.000289689597055817,1.40087973109968,-38.3031228766955));
#1357=CARTESIAN_POINT('',(-0.0531441761580125,1.3998366962277,-38.2931845414391));
#1358=CARTESIAN_POINT('',(-0.150192542814048,1.39277036147263,-38.2529626120982));
#1359=CARTESIAN_POINT('',(-0.194401081368024,1.38688829524184,-38.2226896998535));
#1360=CARTESIAN_POINT('',(-0.264285887003957,1.37528589839301,-38.1529252151849));
#1361=CARTESIAN_POINT('',(-0.294656242773867,1.36879766697314,-38.1086812917829));
#1362=CARTESIAN_POINT('',(-0.335036721821815,1.3594777535698,-38.0115058899038));
#1363=CARTESIAN_POINT('',(-0.345036339300622,1.35681609828378,-37.9585538146259));
#1364=CARTESIAN_POINT('',(-0.345036339300621,1.35681609828378,-37.8590380778486));
#1365=CARTESIAN_POINT('',(-0.335059492810622,1.35947148128579,-37.8061426655781));
#1366=CARTESIAN_POINT('',(-0.314911729567392,1.36412264939076,-37.7575980957205));
#1367=SURFACE_SIDE_STYLE('',(#1693));
#1368=EDGE_LOOP('',(#1694,#1695,#1696,#1697));
#1369=AXIS2_PLACEMENT_3D('',#1698,#1699,#1700);
#1370=SURFACE_SIDE_STYLE('',(#1701));
#1371=EDGE_LOOP('',(#1702,#1703,#1704,#1705));
#1372=AXIS2_PLACEMENT_3D('',#1706,#1707,#1708);
#1373=SURFACE_SIDE_STYLE('',(#1709));
#1374=EDGE_LOOP('',(#1710,#1711));
#1375=AXIS2_PLACEMENT_3D('',#1712,#1713,#1714);
#1376=PRE_DEFINED_MARKER('');
#1377=COLOUR_RGB('',0.498039215803146,0.498039215803146,0.498039215803146);
#1379=CARTESIAN_POINT('',(0.0,0.0,-38.3709637112193));
#1380=DIRECTION('',(-0.442195774284071,0.0,0.896918556617774));
#1381=DIRECTION('',(0.896918556617774,-0.0,0.442195774284071));
#1382=CARTESIAN_POINT('',(0.0,0.0,-37.9057073995657));
#1383=DIRECTION('',(0.0,0.0,-1.0));
#1384=DIRECTION('',(1.0,0.0,0.0));
#1385=SURFACE_STYLE_FILL_AREA(#1715);
#1386=ORIENTED_EDGE('',*,*,#219,.F.);
#1387=ORIENTED_EDGE('',*,*,#243,.F.);
#1388=ORIENTED_EDGE('',*,*,#193,.T.);
#1389=CARTESIAN_POINT('',(0.0,0.0,-54.89644661));
#1390=DIRECTION('',(-0.0,-0.0,1.0));
#1391=DIRECTION('',(-1.0,0.0,0.0));
#1392=DIRECTION('',(3.19659722668462E-017,-0.261030592949893,-0.965330528650279));
#1393=SURFACE_STYLE_FILL_AREA(#1716);
#1394=ORIENTED_EDGE('',*,*,#261,.F.);
#1395=ORIENTED_EDGE('',*,*,#319,.F.);
#1396=CARTESIAN_POINT('',(-0.25,0.0,-50.0));
#1397=DIRECTION('',(0.0,0.0,1.0));
#1398=DIRECTION('',(1.0,0.0,0.0));
#1399=CARTESIAN_POINT('',(0.0,0.0,-38.3709637112193));
#1400=DIRECTION('',(-0.442195774284071,0.0,0.896918556617774));
#1401=DIRECTION('',(0.896918556617774,-0.0,0.442195774284071));
#1402=CARTESIAN_POINT('',(0.0,0.0,-39.0783739724423));
#1403=DIRECTION('',(0.944648353914092,0.0,-0.328084573619969));
#1404=DIRECTION('',(0.328084573619969,-0.0,0.944648353914092));
#1405=CARTESIAN_POINT('',(0.0,0.0,-54.79289322));
#1406=DIRECTION('',(0.0,0.0,-1.0));
#1407=DIRECTION('',(-1.0,0.0,0.0));
#1408=CARTESIAN_POINT('',(0.0,0.0,-44.5));
#1409=DIRECTION('',(0.0,0.0,-1.0));
#1410=DIRECTION('',(0.0,1.0,0.0));
#1411=CARTESIAN_POINT('',(0.0,0.0,-38.3709637112193));
#1412=DIRECTION('',(0.442195774284071,0.0,-0.896918556617774));
#1413=DIRECTION('',(0.896918556617774,0.0,0.442195774284071));
#1414=DIRECTION('',(0.0,1.0,0.0));
#1415=SURFACE_STYLE_FILL_AREA(#1717);
#1416=ORIENTED_EDGE('',*,*,#429,.T.);
#1417=ORIENTED_EDGE('',*,*,#419,.T.);
#1418=ORIENTED_EDGE('',*,*,#421,.T.);
#1419=ORIENTED_EDGE('',*,*,#271,.T.);
#1420=ORIENTED_EDGE('',*,*,#387,.T.);
#1421=ORIENTED_EDGE('',*,*,#227,.T.);
#1422=ORIENTED_EDGE('',*,*,#171,.T.);
#1423=ORIENTED_EDGE('',*,*,#317,.T.);
#1424=ORIENTED_EDGE('',*,*,#349,.T.);
#1425=ORIENTED_EDGE('',*,*,#313,.F.);
#1426=ORIENTED_EDGE('',*,*,#371,.T.);
#1427=ORIENTED_EDGE('',*,*,#397,.T.);
#1428=CARTESIAN_POINT('',(0.0,0.0,-20.5));
#1429=DIRECTION('',(-0.0,-0.0,1.0));
#1430=DIRECTION('',(0.0,1.0,0.0));
#1431=CARTESIAN_POINT('',(0.0,0.0,-54.79289322));
#1432=DIRECTION('',(0.0,0.0,-1.0));
#1433=DIRECTION('',(-1.0,0.0,0.0));
#1434=SURFACE_STYLE_FILL_AREA(#1718);
#1435=ORIENTED_EDGE('',*,*,#317,.F.);
#1436=ORIENTED_EDGE('',*,*,#277,.F.);
#1437=ORIENTED_EDGE('',*,*,#329,.F.);
#1438=ORIENTED_EDGE('',*,*,#241,.T.);
#1439=ORIENTED_EDGE('',*,*,#229,.F.);
#1440=CARTESIAN_POINT('',(-0.00945405644865667,0.0,-38.2675359373674));
#1441=DIRECTION('',(-0.0,-1.0,-0.0));
#1442=DIRECTION('',(0.195537688821767,0.0,-0.980696187537324));
#1443=SURFACE_STYLE_FILL_AREA(#1719);
#1444=ORIENTED_EDGE('',*,*,#221,.T.);
#1445=ORIENTED_EDGE('',*,*,#375,.T.);
#1446=CARTESIAN_POINT('',(0.0,0.24975,-50.0));
#1447=DIRECTION('',(0.0,0.0,-1.0));
#1448=DIRECTION('',(0.0,1.0,0.0));
#1449=DIRECTION('',(0.0,0.0,-1.0));
#1450=DIRECTION('',(0.0,1.0,0.0));
#1451=DIRECTION('',(0.923879533286436,1.13138874662902E-016,0.382683430493714));
#1452=CARTESIAN_POINT('',(0.0,0.0,-50.0));
#1453=DIRECTION('',(0.0,0.0,-1.0));
#1454=DIRECTION('',(0.0,1.0,0.0));
#1455=DIRECTION('',(0.0,0.0,-1.0));
#1456=SURFACE_STYLE_FILL_AREA(#1720);
#1457=ORIENTED_EDGE('',*,*,#223,.T.);
#1458=ORIENTED_EDGE('',*,*,#207,.F.);
#1459=ORIENTED_EDGE('',*,*,#399,.T.);
#1460=ORIENTED_EDGE('',*,*,#319,.T.);
#1461=CARTESIAN_POINT('',(0.0,0.0,-52.39644661));
#1462=DIRECTION('',(-0.0,-0.0,1.0));
#1463=DIRECTION('',(-1.0,0.0,0.0));
#1464=DIRECTION('',(0.0,0.0,-1.0));
#1465=SURFACE_STYLE_FILL_AREA(#1721);
#1466=ORIENTED_EDGE('',*,*,#357,.F.);
#1467=ORIENTED_EDGE('',*,*,#175,.F.);
#1468=ORIENTED_EDGE('',*,*,#331,.T.);
#1469=ORIENTED_EDGE('',*,*,#421,.F.);
#1470=CARTESIAN_POINT('',(0.0521754636668867,0.0,-37.9072140041956));
#1471=DIRECTION('',(0.0,-1.0,-0.0));
#1472=DIRECTION('',(0.894321964023871,0.0,0.447423987582791));
#1473=SURFACE_STYLE_FILL_AREA(#1722);
#1474=DIRECTION('',(3.19659722668462E-017,-0.261030592949893,0.965330528650279));
#1475=DIRECTION('',(0.0,0.0,-1.0));
#1476=DIRECTION('',(0.0,1.0,0.0));
#1477=DIRECTION('',(0.923879533286436,1.13138874662902E-016,-0.382683430493714));
#1478=SURFACE_STYLE_FILL_AREA(#1723);
#1479=ORIENTED_EDGE('',*,*,#355,.F.);
#1480=ORIENTED_EDGE('',*,*,#279,.F.);
#1481=ORIENTED_EDGE('',*,*,#361,.F.);
#1482=ORIENTED_EDGE('',*,*,#201,.T.);
#1483=CARTESIAN_POINT('',(-0.00945414397777439,0.0,-38.2675355566928));
#1484=DIRECTION('',(0.0,-1.0,-0.0));
#1485=DIRECTION('',(0.508265629957899,0.0,0.861200353810599));
#1486=SURFACE_STYLE_FILL_AREA(#1724);
#1487=ORIENTED_EDGE('',*,*,#187,.F.);
#1488=ORIENTED_EDGE('',*,*,#217,.F.);
#1489=ORIENTED_EDGE('',*,*,#199,.F.);
#1490=ORIENTED_EDGE('',*,*,#277,.T.);
#1491=ORIENTED_EDGE('',*,*,#171,.F.);
#1492=CARTESIAN_POINT('',(0.191042345276873,0.0,-38.2767766558089));
#1493=DIRECTION('',(-0.442195774284071,0.0,0.896918556617774));
#1494=DIRECTION('',(0.896918556617774,0.0,0.442195774284071));
#1495=CARTESIAN_POINT('',(0.0,0.0,-50.0));
#1496=DIRECTION('',(0.0,0.0,-1.0));
#1497=DIRECTION('',(-1.0,0.0,0.0));
#1498=SURFACE_STYLE_FILL_AREA(#1725);
#1499=ORIENTED_EDGE('',*,*,#429,.F.);
#1500=ORIENTED_EDGE('',*,*,#345,.T.);
#1501=ORIENTED_EDGE('',*,*,#371,.F.);
#1502=ORIENTED_EDGE('',*,*,#321,.F.);
#1503=ORIENTED_EDGE('',*,*,#349,.F.);
#1504=ORIENTED_EDGE('',*,*,#229,.T.);
#1505=ORIENTED_EDGE('',*,*,#191,.T.);
#1506=ORIENTED_EDGE('',*,*,#239,.T.);
#1507=ORIENTED_EDGE('',*,*,#257,.T.);
#1508=ORIENTED_EDGE('',*,*,#395,.T.);
#1509=ORIENTED_EDGE('',*,*,#355,.T.);
#1510=ORIENTED_EDGE('',*,*,#423,.T.);
#1511=CARTESIAN_POINT('',(0.0,0.0,-20.5));
#1512=DIRECTION('',(-0.0,-0.0,1.0));
#1513=DIRECTION('',(0.0,1.0,0.0));
#1514=SURFACE_STYLE_FILL_AREA(#1726);
#1515=ORIENTED_EDGE('',*,*,#271,.F.);
#1516=ORIENTED_EDGE('',*,*,#331,.F.);
#1517=ORIENTED_EDGE('',*,*,#173,.F.);
#1518=ORIENTED_EDGE('',*,*,#407,.T.);
#1519=CARTESIAN_POINT('',(-0.187444663409338,0.0,-37.9057073995657));
#1520=DIRECTION('',(0.0,0.0,1.0));
#1521=DIRECTION('',(1.0,0.0,0.0));
#1522=SURFACE_STYLE_FILL_AREA(#1727);
#1523=ORIENTED_EDGE('',*,*,#223,.F.);
#1524=ORIENTED_EDGE('',*,*,#261,.T.);
#1525=ORIENTED_EDGE('',*,*,#399,.F.);
#1526=ORIENTED_EDGE('',*,*,#193,.F.);
#1527=CARTESIAN_POINT('',(0.0,0.0,-52.39644661));
#1528=DIRECTION('',(-0.0,-0.0,1.0));
#1529=DIRECTION('',(-1.0,0.0,0.0));
#1530=CARTESIAN_POINT('',(0.0,0.0,-37.9057073995657));
#1531=DIRECTION('',(0.0,-0.0,1.0));
#1532=DIRECTION('',(0.0,1.0,0.0));
#1533=DIRECTION('',(0.0,1.0,0.0));
#1534=DIRECTION('',(0.0,1.0,0.0));
#1535=SURFACE_STYLE_FILL_AREA(#1728);
#1536=ORIENTED_EDGE('',*,*,#199,.T.);
#1537=ORIENTED_EDGE('',*,*,#431,.T.);
#1538=ORIENTED_EDGE('',*,*,#173,.T.);
#1539=ORIENTED_EDGE('',*,*,#175,.T.);
#1540=ORIENTED_EDGE('',*,*,#179,.T.);
#1541=ORIENTED_EDGE('',*,*,#361,.T.);
#1542=ORIENTED_EDGE('',*,*,#215,.T.);
#1543=ORIENTED_EDGE('',*,*,#299,.T.);
#1544=ORIENTED_EDGE('',*,*,#365,.T.);
#1545=ORIENTED_EDGE('',*,*,#343,.T.);
#1546=ORIENTED_EDGE('',*,*,#329,.T.);
#1547=CARTESIAN_POINT('',(0.0,0.0,-38.3));
#1548=DIRECTION('',(-0.0,-0.0,1.0));
#1549=DIRECTION('',(1.0,0.0,0.0));
#1550=SURFACE_STYLE_FILL_AREA(#1729);
#1551=ORIENTED_EDGE('',*,*,#357,.T.);
#1552=ORIENTED_EDGE('',*,*,#419,.F.);
#1553=ORIENTED_EDGE('',*,*,#423,.F.);
#1554=ORIENTED_EDGE('',*,*,#201,.F.);
#1555=ORIENTED_EDGE('',*,*,#179,.F.);
#1556=CARTESIAN_POINT('',(0.0521754636668867,0.0,-37.9072140041956));
#1557=DIRECTION('',(0.0,-1.0,-0.0));
#1558=DIRECTION('',(0.894321964023871,0.0,0.447423987582791));
#1559=SURFACE_STYLE_FILL_AREA(#1730);
#1560=ORIENTED_EDGE('',*,*,#387,.F.);
#1561=ORIENTED_EDGE('',*,*,#407,.F.);
#1562=ORIENTED_EDGE('',*,*,#431,.F.);
#1563=ORIENTED_EDGE('',*,*,#217,.T.);
#1564=ORIENTED_EDGE('',*,*,#273,.F.);
#1565=CARTESIAN_POINT('',(0.0493192504839796,0.0,-37.9087672869109));
#1566=DIRECTION('',(-0.0,-1.0,-0.0));
#1567=DIRECTION('',(0.359378942416673,0.0,-0.933191714358563));
#1568=DIRECTION('',(-8.65927457071939E-017,0.707106781186551,0.707106781186544));
#1569=SURFACE_STYLE_FILL_AREA(#1731);
#1570=ORIENTED_EDGE('',*,*,#191,.F.);
#1571=ORIENTED_EDGE('',*,*,#241,.F.);
#1572=ORIENTED_EDGE('',*,*,#343,.F.);
#1573=ORIENTED_EDGE('',*,*,#305,.T.);
#1574=CARTESIAN_POINT('',(0.0967010423452768,0.0,-38.7999442996743));
#1575=DIRECTION('',(0.944648353914092,0.0,-0.328084573619969));
#1576=DIRECTION('',(-0.328084573619969,0.0,-0.944648353914092));
#1577=DIRECTION('',(0.0,1.0,0.0));
#1578=CARTESIAN_POINT('',(0.0,0.0,0.0));
#1579=DIRECTION('',(0.0,0.0,-1.0));
#1580=DIRECTION('',(0.0,1.0,0.0));
#1581=CARTESIAN_POINT('',(0.0,0.0,-40.8));
#1582=DIRECTION('',(0.0,0.0,-1.0));
#1583=DIRECTION('',(0.0,1.0,0.0));
#1584=CARTESIAN_POINT('',(0.0,0.0,-50.0));
#1585=DIRECTION('',(0.0,0.0,-1.0));
#1586=DIRECTION('',(-1.0,0.0,0.0));
#1587=CARTESIAN_POINT('',(0.0,0.0,-40.8));
#1588=DIRECTION('',(0.0,0.0,-1.0));
#1589=DIRECTION('',(0.0,1.0,0.0));
#1590=SURFACE_STYLE_FILL_AREA(#1732);
#1591=ORIENTED_EDGE('',*,*,#257,.F.);
#1592=ORIENTED_EDGE('',*,*,#339,.F.);
#1593=ORIENTED_EDGE('',*,*,#299,.F.);
#1594=ORIENTED_EDGE('',*,*,#359,.T.);
#1595=CARTESIAN_POINT('',(-0.00945412946648461,0.0,-38.2675358341104));
#1596=DIRECTION('',(-0.0,-1.0,-0.0));
#1597=DIRECTION('',(0.838461542890049,0.0,-0.544960770234371));
#1598=DIRECTION('',(0.0,1.0,0.0));
#1599=DIRECTION('',(0.0,1.0,0.0));
#1600=CARTESIAN_POINT('',(0.0,0.0,-39.0783739724423));
#1601=DIRECTION('',(-0.944648353914092,-0.0,0.328084573619969));
#1602=DIRECTION('',(0.328084573619969,0.0,0.944648353914092));
#1603=CARTESIAN_POINT('',(0.0,0.0,-0.299999999999997));
#1604=DIRECTION('',(0.0,0.0,-1.0));
#1605=DIRECTION('',(0.0,1.0,0.0));
#1606=DIRECTION('',(0.0,0.0,-1.0));
#1607=SURFACE_STYLE_FILL_AREA(#1733);
#1608=ORIENTED_EDGE('',*,*,#227,.F.);
#1609=ORIENTED_EDGE('',*,*,#273,.T.);
#1610=ORIENTED_EDGE('',*,*,#187,.T.);
#1611=CARTESIAN_POINT('',(0.0,0.0,-20.5));
#1612=DIRECTION('',(-0.0,-0.0,1.0));
#1613=DIRECTION('',(0.0,1.0,0.0));
#1614=DIRECTION('',(0.0,0.0,-1.0));
#1615=DIRECTION('',(0.0,1.0,0.0));
#1616=DIRECTION('',(0.0,1.0,0.0));
#1617=DIRECTION('',(-0.0,-0.0,1.0));
#1618=DIRECTION('',(-8.65927457071939E-017,0.707106781186551,-0.707106781186544));
#1619=DIRECTION('',(-0.0,-0.0,1.0));
#1620=SURFACE_STYLE_FILL_AREA(#1734);
#1621=ORIENTED_EDGE('',*,*,#353,.F.);
#1622=ORIENTED_EDGE('',*,*,#379,.T.);
#1623=ORIENTED_EDGE('',*,*,#381,.F.);
#1624=ORIENTED_EDGE('',*,*,#221,.F.);
#1625=CARTESIAN_POINT('',(0.0,0.0,-47.25));
#1626=DIRECTION('',(-0.0,-0.0,1.0));
#1627=DIRECTION('',(0.0,1.0,0.0));
#1628=CARTESIAN_POINT('',(0.0,0.0,-50.0));
#1629=DIRECTION('',(0.0,0.0,-1.0));
#1630=DIRECTION('',(0.0,1.0,0.0));
#1631=SURFACE_STYLE_FILL_AREA(#1735);
#1632=ORIENTED_EDGE('',*,*,#369,.F.);
#1633=ORIENTED_EDGE('',*,*,#403,.T.);
#1634=ORIENTED_EDGE('',*,*,#295,.F.);
#1635=ORIENTED_EDGE('',*,*,#345,.F.);
#1636=CARTESIAN_POINT('',(0.0,0.0,-0.149999999999999));
#1637=DIRECTION('',(0.0,-0.0,-1.0));
#1638=DIRECTION('',(0.0,1.0,0.0));
#1639=CARTESIAN_POINT('',(0.0,0.0,-44.5));
#1640=DIRECTION('',(0.0,0.0,-1.0));
#1641=DIRECTION('',(0.0,1.0,0.0));
#1642=DIRECTION('',(-0.0,-0.0,1.0));
#1643=SURFACE_STYLE_FILL_AREA(#1736);
#1644=ORIENTED_EDGE('',*,*,#219,.T.);
#1645=ORIENTED_EDGE('',*,*,#207,.T.);
#1646=ORIENTED_EDGE('',*,*,#243,.T.);
#1647=CARTESIAN_POINT('',(0.0,0.0,-54.89644661));
#1648=DIRECTION('',(-0.0,-0.0,1.0));
#1649=DIRECTION('',(-1.0,0.0,0.0));
#1650=SURFACE_STYLE_FILL_AREA(#1737);
#1651=ORIENTED_EDGE('',*,*,#239,.F.);
#1652=ORIENTED_EDGE('',*,*,#305,.F.);
#1653=ORIENTED_EDGE('',*,*,#365,.F.);
#1654=ORIENTED_EDGE('',*,*,#339,.T.);
#1655=CARTESIAN_POINT('',(0.291186927252986,0.0,-38.2399643865364));
#1656=DIRECTION('',(-1.0,0.0,0.0));
#1657=DIRECTION('',(0.0,0.0,1.0));
#1658=SURFACE_STYLE_FILL_AREA(#1738);
#1659=ORIENTED_EDGE('',*,*,#395,.F.);
#1660=ORIENTED_EDGE('',*,*,#359,.F.);
#1661=ORIENTED_EDGE('',*,*,#215,.F.);
#1662=ORIENTED_EDGE('',*,*,#279,.T.);
#1663=CARTESIAN_POINT('',(0.445736688382193,0.0,-38.5633885667752));
#1664=DIRECTION('',(1.0,0.0,0.0));
#1665=DIRECTION('',(0.0,0.0,-1.0));
#1666=DIRECTION('',(-0.0,-0.0,1.0));
#1667=CARTESIAN_POINT('',(0.0,0.0,-0.299999999999997));
#1668=DIRECTION('',(0.0,0.0,-1.0));
#1669=DIRECTION('',(0.0,1.0,0.0));
#1670=DIRECTION('',(-0.0,-0.0,1.0));
#1671=SURFACE_STYLE_FILL_AREA(#1739);
#1672=ORIENTED_EDGE('',*,*,#353,.T.);
#1673=ORIENTED_EDGE('',*,*,#375,.F.);
#1674=ORIENTED_EDGE('',*,*,#381,.T.);
#1675=ORIENTED_EDGE('',*,*,#195,.T.);
#1676=CARTESIAN_POINT('',(0.0,0.0,-47.25));
#1677=DIRECTION('',(-0.0,-0.0,1.0));
#1678=DIRECTION('',(0.0,1.0,0.0));
#1679=CARTESIAN_POINT('',(0.0,0.0,0.0));
#1680=DIRECTION('',(0.0,0.0,-1.0));
#1681=DIRECTION('',(0.0,1.0,0.0));
#1682=DIRECTION('',(0.0,1.0,0.0));
#1683=SURFACE_STYLE_FILL_AREA(#1740);
#1684=SURFACE_STYLE_FILL_AREA(#1741);
#1685=ORIENTED_EDGE('',*,*,#183,.F.);
#1686=ORIENTED_EDGE('',*,*,#321,.T.);
#1687=ORIENTED_EDGE('',*,*,#237,.F.);
#1688=ORIENTED_EDGE('',*,*,#379,.F.);
#1689=CARTESIAN_POINT('',(0.0,0.0,-42.65));
#1690=DIRECTION('',(-0.0,-0.0,1.0));
#1691=DIRECTION('',(0.0,1.0,0.0));
#1692=DIRECTION('',(0.0,0.0,-1.0));
#1693=SURFACE_STYLE_FILL_AREA(#1742);
#1694=ORIENTED_EDGE('',*,*,#183,.T.);
#1695=ORIENTED_EDGE('',*,*,#195,.F.);
#1696=ORIENTED_EDGE('',*,*,#237,.T.);
#1697=ORIENTED_EDGE('',*,*,#313,.T.);
#1698=CARTESIAN_POINT('',(0.0,0.0,-42.65));
#1699=DIRECTION('',(-0.0,-0.0,1.0));
#1700=DIRECTION('',(0.0,1.0,0.0));
#1701=SURFACE_STYLE_FILL_AREA(#1743);
#1702=ORIENTED_EDGE('',*,*,#369,.T.);
#1703=ORIENTED_EDGE('',*,*,#397,.F.);
#1704=ORIENTED_EDGE('',*,*,#295,.T.);
#1705=ORIENTED_EDGE('',*,*,#311,.T.);
#1706=CARTESIAN_POINT('',(0.0,0.0,-0.149999999999999));
#1707=DIRECTION('',(0.0,-0.0,-1.0));
#1708=DIRECTION('',(0.0,1.0,0.0));
#1709=SURFACE_STYLE_FILL_AREA(#1744);
#1710=ORIENTED_EDGE('',*,*,#403,.F.);
#1711=ORIENTED_EDGE('',*,*,#311,.F.);
#1712=CARTESIAN_POINT('',(0.0,0.6,0.0));
#1713=DIRECTION('',(-0.0,0.0,1.0));
#1714=DIRECTION('',(0.0,-1.0,0.0));
#1715=FILL_AREA_STYLE('',(#1745));
#1716=FILL_AREA_STYLE('',(#1746));
#1717=FILL_AREA_STYLE('',(#1747));
#1718=FILL_AREA_STYLE('',(#1748));
#1719=FILL_AREA_STYLE('',(#1749));
#1720=FILL_AREA_STYLE('',(#1750));
#1721=FILL_AREA_STYLE('',(#1751));
#1722=FILL_AREA_STYLE('',(#1752));
#1723=FILL_AREA_STYLE('',(#1753));
#1724=FILL_AREA_STYLE('',(#1754));
#1725=FILL_AREA_STYLE('',(#1755));
#1726=FILL_AREA_STYLE('',(#1756));
#1727=FILL_AREA_STYLE('',(#1757));
#1728=FILL_AREA_STYLE('',(#1758));
#1729=FILL_AREA_STYLE('',(#1759));
#1730=FILL_AREA_STYLE('',(#1760));
#1731=FILL_AREA_STYLE('',(#1761));
#1732=FILL_AREA_STYLE('',(#1762));
#1733=FILL_AREA_STYLE('',(#1763));
#1734=FILL_AREA_STYLE('',(#1764));
#1735=FILL_AREA_STYLE('',(#1765));
#1736=FILL_AREA_STYLE('',(#1766));
#1737=FILL_AREA_STYLE('',(#1767));
#1738=FILL_AREA_STYLE('',(#1768));
#1739=FILL_AREA_STYLE('',(#1769));
#1740=FILL_AREA_STYLE('',(#1770));
#1741=FILL_AREA_STYLE('',(#1771));
#1742=FILL_AREA_STYLE('',(#1772));
#1743=FILL_AREA_STYLE('',(#1773));
#1744=FILL_AREA_STYLE('',(#1774));
#1745=FILL_AREA_STYLE_COLOUR('',#1775);
#1746=FILL_AREA_STYLE_COLOUR('',#1776);
#1747=FILL_AREA_STYLE_COLOUR('',#1777);
#1748=FILL_AREA_STYLE_COLOUR('',#1778);
#1749=FILL_AREA_STYLE_COLOUR('',#1779);
#1750=FILL_AREA_STYLE_COLOUR('',#1780);
#1751=FILL_AREA_STYLE_COLOUR('',#1781);
#1752=FILL_AREA_STYLE_COLOUR('',#1782);
#1753=FILL_AREA_STYLE_COLOUR('',#1783);
#1754=FILL_AREA_STYLE_COLOUR('',#1784);
#1755=FILL_AREA_STYLE_COLOUR('',#1785);
#1756=FILL_AREA_STYLE_COLOUR('',#1786);
#1757=FILL_AREA_STYLE_COLOUR('',#1787);
#1758=FILL_AREA_STYLE_COLOUR('',#1788);
#1759=FILL_AREA_STYLE_COLOUR('',#1789);
#1760=FILL_AREA_STYLE_COLOUR('',#1790);
#1761=FILL_AREA_STYLE_COLOUR('',#1791);
#1762=FILL_AREA_STYLE_COLOUR('',#1792);
#1763=FILL_AREA_STYLE_COLOUR('',#1793);
#1764=FILL_AREA_STYLE_COLOUR('',#1794);
#1765=FILL_AREA_STYLE_COLOUR('',#1795);
#1766=FILL_AREA_STYLE_COLOUR('',#1796);
#1767=FILL_AREA_STYLE_COLOUR('',#1797);
#1768=FILL_AREA_STYLE_COLOUR('',#1798);
#1769=FILL_AREA_STYLE_COLOUR('',#1799);
#1770=FILL_AREA_STYLE_COLOUR('',#1800);
#1771=FILL_AREA_STYLE_COLOUR('',#1801);
#1772=FILL_AREA_STYLE_COLOUR('',#1802);
#1773=FILL_AREA_STYLE_COLOUR('',#1803);
#1774=FILL_AREA_STYLE_COLOUR('',#1804);
#1775=COLOUR_RGB('',0.800000011920929,0.800000011920929,0.800000011920929);
#1776=COLOUR_RGB('',0.800000011920929,0.800000011920929,0.800000011920929);
#1777=COLOUR_RGB('',0.498039215803146,0.498039215803146,0.498039215803146);
#1778=COLOUR_RGB('',0.200000002980232,0.600000023841858,1.0);
#1779=COLOUR_RGB('',0.498039215803146,0.498039215803146,0.498039215803146);
#1780=COLOUR_RGB('',0.800000011920929,0.800000011920929,0.800000011920929);
#1781=COLOUR_RGB('',0.200000002980232,0.600000023841858,1.0);
#1782=COLOUR_RGB('',0.800000011920929,0.800000011920929,0.800000011920929);
#1783=COLOUR_RGB('',0.200000002980232,0.600000023841858,1.0);
#1784=COLOUR_RGB('',0.200000002980232,0.600000023841858,1.0);
#1785=COLOUR_RGB('',0.498039215803146,0.498039215803146,0.498039215803146);
#1786=COLOUR_RGB('',0.200000002980232,0.600000023841858,1.0);
#1787=COLOUR_RGB('',0.800000011920929,0.800000011920929,0.800000011920929);
#1788=COLOUR_RGB('',0.200000002980232,0.600000023841858,1.0);
#1789=COLOUR_RGB('',0.200000002980232,0.600000023841858,1.0);
#1790=COLOUR_RGB('',0.200000002980232,0.600000023841858,1.0);
#1791=COLOUR_RGB('',0.200000002980232,0.600000023841858,1.0);
#1792=COLOUR_RGB('',0.200000002980232,0.600000023841858,1.0);
#1793=COLOUR_RGB('',0.498039215803146,0.498039215803146,0.498039215803146);
#1794=COLOUR_RGB('',0.498039215803146,0.498039215803146,0.498039215803146);
#1795=COLOUR_RGB('',0.498039215803146,0.498039215803146,0.498039215803146);
#1796=COLOUR_RGB('',0.800000011920929,0.800000011920929,0.800000011920929);
#1797=COLOUR_RGB('',0.200000002980232,0.600000023841858,1.0);
#1798=COLOUR_RGB('',0.200000002980232,0.600000023841858,1.0);
#1799=COLOUR_RGB('',0.498039215803146,0.498039215803146,0.498039215803146);
#1800=COLOUR_RGB('',0.498039215803146,0.498039215803146,0.498039215803146);
#1801=COLOUR_RGB('',0.498039215803146,0.498039215803146,0.498039215803146);
#1802=COLOUR_RGB('',0.498039215803146,0.498039215803146,0.498039215803146);
#1803=COLOUR_RGB('',0.498039215803146,0.498039215803146,0.498039215803146);
#1804=COLOUR_RGB('',0.498039215803146,0.498039215803146,0.498039215803146);
#1805=AXIS2_PLACEMENT_3D('CIP',#1806,#1807,#1808);
#1806=CARTESIAN_POINT('',(0.0,0.0,-55.0));
#1807=DIRECTION('',(0.0,0.0,1.0));
#1808=DIRECTION('',(1.0,0.0,0.0));
#1809=AXIS2_PLACEMENT_3D('CRP',#1810,#1811,#1812);
#1810=CARTESIAN_POINT('',(-0.5,0.0,-54.79289322));
#1811=DIRECTION('',(0.0,0.0,1.0));
#1812=DIRECTION('',(1.0,0.0,0.0));
#1813=AXIS2_PLACEMENT_3D('MCS',#1814,#1815,#1816);
#1814=CARTESIAN_POINT('',(0.0,0.0,-40.7));
#1815=DIRECTION('',(0.0,0.0,1.0));
#1816=DIRECTION('',(1.0,0.0,0.0));
#1817=AXIS2_PLACEMENT_3D('PCS',#1818,#1819,#1820);
#1818=CARTESIAN_POINT('',(0.0,0.0,0.0));
#1819=DIRECTION('',(0.0,0.0,1.0));
#1820=DIRECTION('',(1.0,0.0,0.0));
#1821=CONSTRUCTIVE_GEOMETRY_REPRESENTATION_RELATIONSHIP('coordinate systems',$,#154,#1822);
#1822=CONSTRUCTIVE_GEOMETRY_REPRESENTATION('coordinate systems',(#1805,#1809,#1813,#1817),#10);
ENDSEC;
END-ISO-10303-21;
