ISO-10303-21;
HEADER;
FILE_DESCRIPTION(('no description'),'unknown implementation level');
FILE_NAME('solidrx2p5EphdE3nidr8TQX0IqfC21M_1.STP','  ',('CIMSOURCE GmbH'),('CADClick - KiM GmbH - www.kimweb.de'),'unknown preprocess','ACIS','unknown authorization');
FILE_SCHEMA(('automotive_design'));
ENDSEC;
DATA;
#1=MECHANICAL_DESIGN_GEOMETRIC_PRESENTATION_REPRESENTATION(' ',(#14,#15,#16,#17,#18,#19,#20,#21,#22,#23,#24,#25,#26,#27,#28,#29,#30,#31,#32,#33,#34,#35,#36,#37,#38,#39,#40,#41,#42,#43,#44,#45,#46,#47,#48,#49,#50,#51,#52,#53,#54,#55,#56,#57,#58,#59,#60,#61,#62,#63,#64,#65,#66,#67,#68,#69,#70,#71,#72,#73,#74,#75,#76,#77,#78,#79,#80,#81,#82,#83,#84,#85,#86,#87,#88,#89,#90,#91,#92,#93,#94,#95,#96,#97,#98,#99,#100,#101,#102,#103,#104,#105,#106,#107,#108,#109,#110,#111,#112,#113,#114,#115,#116,#117,#118,#119,#120,#121,#122,#123,#124),#10);
#2=PRODUCT_DEFINITION_CONTEXT('',#125,'design');
#3=APPLICATION_PROTOCOL_DEFINITION('INTERNATIONAL STANDARD','automotive_design',1994,#125);
#4=PRODUCT_CATEGORY_RELATIONSHIP('NONE','NONE',#126,#127);
#5=SHAPE_DEFINITION_REPRESENTATION(#128,#129);
#6=PRODUCT_DEFINITION_CONTEXT('',#130,'design');
#7=APPLICATION_PROTOCOL_DEFINITION('INTERNATIONAL STANDARD','automotive_design',1994,#130);
#8=PRODUCT_CATEGORY_RELATIONSHIP('NONE','NONE',#131,#132);
#9=SHAPE_DEFINITION_REPRESENTATION(#133,#134);
#10= (GEOMETRIC_REPRESENTATION_CONTEXT(3)GLOBAL_UNCERTAINTY_ASSIGNED_CONTEXT((#137))GLOBAL_UNIT_ASSIGNED_CONTEXT((#139,#140,#141))REPRESENTATION_CONTEXT('NONE','WORKSPACE'));
#14=STYLED_ITEM('',(#143),#144);
#15=STYLED_ITEM('',(#145),#146);
#16=STYLED_ITEM('',(#147),#148);
#17=STYLED_ITEM('',(#149),#150);
#18=STYLED_ITEM('',(#151),#152);
#19=STYLED_ITEM('',(#153),#154);
#20=STYLED_ITEM('',(#155),#156);
#21=STYLED_ITEM('',(#157),#158);
#22=STYLED_ITEM('',(#159),#160);
#23=STYLED_ITEM('',(#161),#162);
#24=STYLED_ITEM('',(#163),#164);
#25=STYLED_ITEM('',(#165),#166);
#26=STYLED_ITEM('',(#167),#168);
#27=STYLED_ITEM('',(#169),#170);
#28=STYLED_ITEM('',(#171),#172);
#29=STYLED_ITEM('',(#173),#174);
#30=STYLED_ITEM('',(#175),#176);
#31=STYLED_ITEM('',(#177),#178);
#32=STYLED_ITEM('',(#179),#180);
#33=STYLED_ITEM('',(#181),#182);
#34=STYLED_ITEM('',(#183),#184);
#35=STYLED_ITEM('',(#185),#186);
#36=STYLED_ITEM('',(#187),#188);
#37=STYLED_ITEM('',(#189),#190);
#38=STYLED_ITEM('',(#191),#192);
#39=STYLED_ITEM('',(#193),#194);
#40=STYLED_ITEM('',(#195),#196);
#41=STYLED_ITEM('',(#197),#198);
#42=STYLED_ITEM('',(#199),#200);
#43=STYLED_ITEM('',(#201),#202);
#44=STYLED_ITEM('',(#203),#204);
#45=STYLED_ITEM('',(#205),#206);
#46=STYLED_ITEM('',(#207),#208);
#47=STYLED_ITEM('',(#209),#210);
#48=STYLED_ITEM('',(#211),#212);
#49=STYLED_ITEM('',(#213),#214);
#50=STYLED_ITEM('',(#215),#216);
#51=STYLED_ITEM('',(#217),#218);
#52=STYLED_ITEM('',(#219),#220);
#53=STYLED_ITEM('',(#221),#222);
#54=STYLED_ITEM('',(#223),#224);
#55=STYLED_ITEM('',(#225),#226);
#56=STYLED_ITEM('',(#227),#228);
#57=STYLED_ITEM('',(#229),#230);
#58=STYLED_ITEM('',(#231),#232);
#59=STYLED_ITEM('',(#233),#234);
#60=STYLED_ITEM('',(#235),#236);
#61=STYLED_ITEM('',(#237),#238);
#62=STYLED_ITEM('',(#239),#240);
#63=STYLED_ITEM('',(#241),#242);
#64=STYLED_ITEM('',(#243),#244);
#65=STYLED_ITEM('',(#245),#246);
#66=STYLED_ITEM('',(#247),#248);
#67=STYLED_ITEM('',(#249),#250);
#68=STYLED_ITEM('',(#251),#252);
#69=STYLED_ITEM('',(#253),#254);
#70=STYLED_ITEM('',(#255),#256);
#71=STYLED_ITEM('',(#257),#258);
#72=STYLED_ITEM('',(#259),#260);
#73=STYLED_ITEM('',(#261),#262);
#74=STYLED_ITEM('',(#263),#264);
#75=STYLED_ITEM('',(#265),#266);
#76=STYLED_ITEM('',(#267),#268);
#77=STYLED_ITEM('',(#269),#270);
#78=STYLED_ITEM('',(#271),#272);
#79=STYLED_ITEM('',(#273),#274);
#80=STYLED_ITEM('',(#275),#276);
#81=STYLED_ITEM('',(#277),#278);
#82=STYLED_ITEM('',(#279),#280);
#83=STYLED_ITEM('',(#281),#282);
#84=STYLED_ITEM('',(#283),#284);
#85=STYLED_ITEM('',(#285),#286);
#86=STYLED_ITEM('',(#287),#288);
#87=STYLED_ITEM('',(#289),#290);
#88=STYLED_ITEM('',(#291),#292);
#89=STYLED_ITEM('',(#293),#294);
#90=STYLED_ITEM('',(#295),#296);
#91=STYLED_ITEM('',(#297),#298);
#92=STYLED_ITEM('',(#299),#300);
#93=STYLED_ITEM('',(#301),#302);
#94=STYLED_ITEM('',(#303),#304);
#95=STYLED_ITEM('',(#305),#306);
#96=STYLED_ITEM('',(#307),#308);
#97=STYLED_ITEM('',(#309),#310);
#98=STYLED_ITEM('',(#311),#312);
#99=STYLED_ITEM('',(#313),#314);
#100=STYLED_ITEM('',(#315),#316);
#101=STYLED_ITEM('',(#317),#318);
#102=STYLED_ITEM('',(#319),#320);
#103=STYLED_ITEM('',(#321),#322);
#104=STYLED_ITEM('',(#323),#324);
#105=STYLED_ITEM('',(#325),#326);
#106=STYLED_ITEM('',(#327),#328);
#107=STYLED_ITEM('',(#329),#330);
#108=STYLED_ITEM('',(#331),#332);
#109=STYLED_ITEM('',(#333),#334);
#110=STYLED_ITEM('',(#335),#336);
#111=STYLED_ITEM('',(#337),#338);
#112=STYLED_ITEM('',(#339),#340);
#113=STYLED_ITEM('',(#341),#342);
#114=STYLED_ITEM('',(#343),#344);
#115=STYLED_ITEM('',(#345),#346);
#116=STYLED_ITEM('',(#347),#348);
#117=STYLED_ITEM('',(#349),#350);
#118=STYLED_ITEM('',(#351),#352);
#119=STYLED_ITEM('',(#353),#354);
#120=STYLED_ITEM('',(#355),#356);
#121=STYLED_ITEM('',(#357),#358);
#122=STYLED_ITEM('',(#359),#360);
#123=STYLED_ITEM('',(#361),#362);
#124=STYLED_ITEM('',(#363),#364);
#125=APPLICATION_CONTEXT(' ');
#126=PRODUCT_CATEGORY('part','NONE');
#127=PRODUCT_RELATED_PRODUCT_CATEGORY('detail',' ',(#365));
#128=PRODUCT_DEFINITION_SHAPE('NONE','NONE',#366);
#129=ADVANCED_BREP_SHAPE_REPRESENTATION('1',(#332,#367),#10);
#130=APPLICATION_CONTEXT(' ');
#131=PRODUCT_CATEGORY('part','NONE');
#132=PRODUCT_RELATED_PRODUCT_CATEGORY('detail',' ',(#368));
#133=PRODUCT_DEFINITION_SHAPE('NONE','NONE',#369);
#134=ADVANCED_BREP_SHAPE_REPRESENTATION('2',(#158,#370),#10);
#137=UNCERTAINTY_MEASURE_WITH_UNIT(LENGTH_MEASURE(1.0E-006),#139,'','');
#139= (CONVERSION_BASED_UNIT('MILLIMETRE',#373)LENGTH_UNIT()NAMED_UNIT(#376));
#140= (NAMED_UNIT(#378)PLANE_ANGLE_UNIT()SI_UNIT($,.RADIAN.));
#141= (NAMED_UNIT(#378)SOLID_ANGLE_UNIT()SI_UNIT($,.STERADIAN.));
#143=PRESENTATION_STYLE_ASSIGNMENT((#384));
#144=EDGE_CURVE('',#346,#334,#385,.T.);
#145=PRESENTATION_STYLE_ASSIGNMENT((#386));
#146=EDGE_CURVE('',#186,#354,#387,.T.);
#147=PRESENTATION_STYLE_ASSIGNMENT((#388));
#148=EDGE_CURVE('',#188,#346,#389,.T.);
#149=PRESENTATION_STYLE_ASSIGNMENT((#390));
#150=EDGE_CURVE('',#352,#188,#391,.T.);
#151=PRESENTATION_STYLE_ASSIGNMENT((#392));
#152=EDGE_CURVE('',#340,#344,#393,.T.);
#153=PRESENTATION_STYLE_ASSIGNMENT((#394));
#154=EDGE_CURVE('',#290,#278,#395,.T.);
#155=PRESENTATION_STYLE_ASSIGNMENT((#396));
#156=VERTEX_POINT('',#397);
#157=PRESENTATION_STYLE_ASSIGNMENT((#398));
#158=MANIFOLD_SOLID_BREP('2',#399);
#159=PRESENTATION_STYLE_ASSIGNMENT((#400));
#160=VERTEX_POINT('',#401);
#161=PRESENTATION_STYLE_ASSIGNMENT((#402));
#162=ADVANCED_FACE('',(#403),#404,.T.);
#163=PRESENTATION_STYLE_ASSIGNMENT((#405));
#164=ADVANCED_FACE('',(#406),#407,.T.);
#165=PRESENTATION_STYLE_ASSIGNMENT((#408));
#166=ADVANCED_FACE('',(#409),#410,.T.);
#167=PRESENTATION_STYLE_ASSIGNMENT((#411));
#168=EDGE_CURVE('',#318,#300,#412,.T.);
#169=PRESENTATION_STYLE_ASSIGNMENT((#413));
#170=EDGE_CURVE('',#268,#316,#414,.T.);
#171=PRESENTATION_STYLE_ASSIGNMENT((#415));
#172=EDGE_CURVE('',#290,#190,#416,.T.);
#173=PRESENTATION_STYLE_ASSIGNMENT((#417));
#174=ADVANCED_FACE('',(#418,#419),#420,.T.);
#175=PRESENTATION_STYLE_ASSIGNMENT((#421));
#176=ADVANCED_FACE('',(#422),#423,.T.);
#177=PRESENTATION_STYLE_ASSIGNMENT((#424));
#178=ADVANCED_FACE('',(#425),#426,.T.);
#179=PRESENTATION_STYLE_ASSIGNMENT((#427));
#180=ADVANCED_FACE('',(#428,#429),#430,.T.);
#181=PRESENTATION_STYLE_ASSIGNMENT((#431));
#182=EDGE_CURVE('',#350,#310,#432,.T.);
#183=PRESENTATION_STYLE_ASSIGNMENT((#433));
#184=EDGE_CURVE('',#222,#200,#434,.T.);
#185=PRESENTATION_STYLE_ASSIGNMENT((#435));
#186=VERTEX_POINT('',#436);
#187=PRESENTATION_STYLE_ASSIGNMENT((#437));
#188=VERTEX_POINT('',#438);
#189=PRESENTATION_STYLE_ASSIGNMENT((#439));
#190=VERTEX_POINT('',#440);
#191=PRESENTATION_STYLE_ASSIGNMENT((#441));
#192=EDGE_CURVE('',#304,#318,#442,.T.);
#193=PRESENTATION_STYLE_ASSIGNMENT((#443));
#194=EDGE_CURVE('',#260,#160,#444,.T.);
#195=PRESENTATION_STYLE_ASSIGNMENT((#445));
#196=EDGE_CURVE('',#300,#318,#446,.T.);
#197=PRESENTATION_STYLE_ASSIGNMENT((#447));
#198=ADVANCED_FACE('',(#448),#449,.T.);
#199=PRESENTATION_STYLE_ASSIGNMENT((#450));
#200=VERTEX_POINT('',#451);
#201=PRESENTATION_STYLE_ASSIGNMENT((#452));
#202=VERTEX_POINT('',#453);
#203=PRESENTATION_STYLE_ASSIGNMENT((#454));
#204=EDGE_CURVE('',#318,#350,#455,.T.);
#205=PRESENTATION_STYLE_ASSIGNMENT((#456));
#206=EDGE_CURVE('',#334,#346,#457,.T.);
#207=PRESENTATION_STYLE_ASSIGNMENT((#458));
#208=ADVANCED_FACE('',(#459),#460,.T.);
#209=PRESENTATION_STYLE_ASSIGNMENT((#461));
#210=ADVANCED_FACE('',(#462),#463,.T.);
#211=PRESENTATION_STYLE_ASSIGNMENT((#464));
#212=EDGE_CURVE('',#356,#222,#465,.T.);
#213=PRESENTATION_STYLE_ASSIGNMENT((#466));
#214=EDGE_CURVE('',#310,#300,#467,.T.);
#215=PRESENTATION_STYLE_ASSIGNMENT((#468));
#216=ADVANCED_FACE('',(#469),#470,.T.);
#217=PRESENTATION_STYLE_ASSIGNMENT((#471));
#218=EDGE_CURVE('',#200,#202,#472,.T.);
#219=PRESENTATION_STYLE_ASSIGNMENT((#473));
#220=EDGE_CURVE('',#190,#304,#474,.T.);
#221=PRESENTATION_STYLE_ASSIGNMENT((#475));
#222=VERTEX_POINT('',#476);
#223=PRESENTATION_STYLE_ASSIGNMENT((#477));
#224=ADVANCED_FACE('',(#478),#479,.T.);
#225=PRESENTATION_STYLE_ASSIGNMENT((#480));
#226=EDGE_CURVE('',#344,#336,#481,.T.);
#227=PRESENTATION_STYLE_ASSIGNMENT((#482));
#228=ADVANCED_FACE('',(#483),#484,.T.);
#229=PRESENTATION_STYLE_ASSIGNMENT((#485));
#230=EDGE_CURVE('',#358,#340,#486,.T.);
#231=PRESENTATION_STYLE_ASSIGNMENT((#487));
#232=EDGE_CURVE('',#330,#264,#488,.T.);
#233=PRESENTATION_STYLE_ASSIGNMENT((#489));
#234=ADVANCED_FACE('',(#490),#491,.F.);
#235=PRESENTATION_STYLE_ASSIGNMENT((#492));
#236=ADVANCED_FACE('',(#493),#494,.T.);
#237=PRESENTATION_STYLE_ASSIGNMENT((#495));
#238=EDGE_CURVE('',#160,#260,#496,.T.);
#239=PRESENTATION_STYLE_ASSIGNMENT((#497));
#240=EDGE_CURVE('',#188,#352,#498,.T.);
#241=PRESENTATION_STYLE_ASSIGNMENT((#499));
#242=EDGE_CURVE('',#250,#156,#500,.T.);
#243=PRESENTATION_STYLE_ASSIGNMENT((#501));
#244=ADVANCED_FACE('',(#502),#503,.T.);
#245=PRESENTATION_STYLE_ASSIGNMENT((#504));
#246=EDGE_CURVE('',#358,#336,#505,.T.);
#247=PRESENTATION_STYLE_ASSIGNMENT((#506));
#248=EDGE_CURVE('',#278,#354,#507,.T.);
#249=PRESENTATION_STYLE_ASSIGNMENT((#508));
#250=VERTEX_POINT('',#509);
#251=PRESENTATION_STYLE_ASSIGNMENT((#510));
#252=EDGE_CURVE('',#304,#190,#511,.T.);
#253=PRESENTATION_STYLE_ASSIGNMENT((#512));
#254=EDGE_CURVE('',#186,#290,#513,.T.);
#255=PRESENTATION_STYLE_ASSIGNMENT((#514));
#256=EDGE_CURVE('',#346,#260,#515,.T.);
#257=PRESENTATION_STYLE_ASSIGNMENT((#516));
#258=EDGE_CURVE('',#278,#290,#517,.T.);
#259=PRESENTATION_STYLE_ASSIGNMENT((#518));
#260=VERTEX_POINT('',#519);
#261=PRESENTATION_STYLE_ASSIGNMENT((#520));
#262=EDGE_CURVE('',#250,#188,#521,.T.);
#263=PRESENTATION_STYLE_ASSIGNMENT((#522));
#264=VERTEX_POINT('',#523);
#265=PRESENTATION_STYLE_ASSIGNMENT((#524));
#266=EDGE_CURVE('',#310,#350,#525,.T.);
#267=PRESENTATION_STYLE_ASSIGNMENT((#526));
#268=VERTEX_POINT('',#527);
#269=PRESENTATION_STYLE_ASSIGNMENT((#528));
#270=ADVANCED_FACE('',(#529),#530,.T.);
#271=PRESENTATION_STYLE_ASSIGNMENT((#531));
#272=EDGE_CURVE('',#354,#186,#532,.T.);
#273=PRESENTATION_STYLE_ASSIGNMENT((#533));
#274=EDGE_CURVE('',#202,#316,#534,.T.);
#275=PRESENTATION_STYLE_ASSIGNMENT((#535));
#276=ADVANCED_FACE('',(#536),#537,.T.);
#277=PRESENTATION_STYLE_ASSIGNMENT((#538));
#278=VERTEX_POINT('',#539);
#279=PRESENTATION_STYLE_ASSIGNMENT((#540));
#280=EDGE_CURVE('',#202,#356,#541,.T.);
#281=PRESENTATION_STYLE_ASSIGNMENT((#542));
#282=EDGE_CURVE('',#334,#352,#543,.T.);
#283=PRESENTATION_STYLE_ASSIGNMENT((#544));
#284=ADVANCED_FACE('',(#545),#546,.T.);
#285=PRESENTATION_STYLE_ASSIGNMENT((#547));
#286=EDGE_CURVE('',#300,#190,#548,.T.);
#287=PRESENTATION_STYLE_ASSIGNMENT((#549));
#288=EDGE_CURVE('',#304,#278,#550,.T.);
#289=PRESENTATION_STYLE_ASSIGNMENT((#551));
#290=VERTEX_POINT('',#552);
#291=PRESENTATION_STYLE_ASSIGNMENT((#553));
#292=EDGE_CURVE('',#344,#340,#554,.T.);
#293=PRESENTATION_STYLE_ASSIGNMENT((#555));
#294=EDGE_CURVE('',#316,#268,#556,.T.);
#295=PRESENTATION_STYLE_ASSIGNMENT((#557));
#296=EDGE_CURVE('',#156,#250,#558,.T.);
#297=PRESENTATION_STYLE_ASSIGNMENT((#559));
#298=EDGE_CURVE('',#200,#222,#560,.T.);
#299=PRESENTATION_STYLE_ASSIGNMENT((#561));
#300=VERTEX_POINT('',#562);
#301=PRESENTATION_STYLE_ASSIGNMENT((#563));
#302=EDGE_CURVE('',#336,#358,#564,.T.);
#303=PRESENTATION_STYLE_ASSIGNMENT((#565));
#304=VERTEX_POINT('',#566);
#305=PRESENTATION_STYLE_ASSIGNMENT((#567));
#306=ADVANCED_FACE('',(#568,#569),#570,.T.);
#307=PRESENTATION_STYLE_ASSIGNMENT((#571));
#308=EDGE_CURVE('',#356,#202,#572,.T.);
#309=PRESENTATION_STYLE_ASSIGNMENT((#573));
#310=VERTEX_POINT('',#574);
#311=PRESENTATION_STYLE_ASSIGNMENT((#575));
#312=EDGE_CURVE('',#340,#330,#576,.T.);
#313=PRESENTATION_STYLE_ASSIGNMENT((#577));
#314=ADVANCED_FACE('',(#578),#579,.T.);
#315=PRESENTATION_STYLE_ASSIGNMENT((#580));
#316=VERTEX_POINT('',#581);
#317=PRESENTATION_STYLE_ASSIGNMENT((#582));
#318=VERTEX_POINT('',#583);
#319=PRESENTATION_STYLE_ASSIGNMENT((#584));
#320=EDGE_CURVE('',#352,#156,#585,.T.);
#321=PRESENTATION_STYLE_ASSIGNMENT((#586));
#322=EDGE_CURVE('',#264,#330,#587,.T.);
#323=PRESENTATION_STYLE_ASSIGNMENT((#588));
#324=EDGE_CURVE('',#160,#334,#589,.T.);
#325=PRESENTATION_STYLE_ASSIGNMENT((#590));
#326=ADVANCED_FACE('',(#591),#592,.T.);
#327=PRESENTATION_STYLE_ASSIGNMENT((#593));
#328=ADVANCED_FACE('',(#594),#595,.T.);
#329=PRESENTATION_STYLE_ASSIGNMENT((#596));
#330=VERTEX_POINT('',#597);
#331=PRESENTATION_STYLE_ASSIGNMENT((#598));
#332=MANIFOLD_SOLID_BREP('1',#599);
#333=PRESENTATION_STYLE_ASSIGNMENT((#600));
#334=VERTEX_POINT('',#601);
#335=PRESENTATION_STYLE_ASSIGNMENT((#602));
#336=VERTEX_POINT('',#603);
#337=PRESENTATION_STYLE_ASSIGNMENT((#604));
#338=ADVANCED_FACE('',(#605),#606,.F.);
#339=PRESENTATION_STYLE_ASSIGNMENT((#607));
#340=VERTEX_POINT('',#608);
#341=PRESENTATION_STYLE_ASSIGNMENT((#609));
#342=EDGE_CURVE('',#264,#344,#610,.T.);
#343=PRESENTATION_STYLE_ASSIGNMENT((#611));
#344=VERTEX_POINT('',#612);
#345=PRESENTATION_STYLE_ASSIGNMENT((#613));
#346=VERTEX_POINT('',#614);
#347=PRESENTATION_STYLE_ASSIGNMENT((#615));
#348=ADVANCED_FACE('',(#616),#617,.F.);
#349=PRESENTATION_STYLE_ASSIGNMENT((#618));
#350=VERTEX_POINT('',#619);
#351=PRESENTATION_STYLE_ASSIGNMENT((#620));
#352=VERTEX_POINT('',#621);
#353=PRESENTATION_STYLE_ASSIGNMENT((#622));
#354=VERTEX_POINT('',#623);
#355=PRESENTATION_STYLE_ASSIGNMENT((#624));
#356=VERTEX_POINT('',#625);
#357=PRESENTATION_STYLE_ASSIGNMENT((#626));
#358=VERTEX_POINT('',#627);
#359=PRESENTATION_STYLE_ASSIGNMENT((#628));
#360=ADVANCED_FACE('',(#629),#630,.T.);
#361=PRESENTATION_STYLE_ASSIGNMENT((#631));
#362=EDGE_CURVE('',#268,#356,#632,.T.);
#363=PRESENTATION_STYLE_ASSIGNMENT((#633));
#364=ADVANCED_FACE('',(#634),#635,.F.);
#365=PRODUCT('1','1','PART-1-DESC',(#636));
#366=PRODUCT_DEFINITION('NONE','NONE',#637,#2);
#367=AXIS2_PLACEMENT_3D('',#638,#639,#640);
#368=PRODUCT('2','2','PART-2-DESC',(#641));
#369=PRODUCT_DEFINITION('NONE','NONE',#642,#6);
#370=AXIS2_PLACEMENT_3D('',#643,#644,#645);
#373=LENGTH_MEASURE_WITH_UNIT(LENGTH_MEASURE(1.0),#646);
#376=DIMENSIONAL_EXPONENTS(1.0,0.0,0.0,0.0,0.0,0.0,0.0);
#378=DIMENSIONAL_EXPONENTS(0.0,0.0,0.0,0.0,0.0,0.0,0.0);
#384=CURVE_STYLE('',#647,POSITIVE_LENGTH_MEASURE(1.0E-006),#648);
#385=CIRCLE('',#649,3.5);
#386=CURVE_STYLE('',#650,POSITIVE_LENGTH_MEASURE(1.0E-006),#651);
#387=CIRCLE('',#652,3.35);
#388=CURVE_STYLE('',#653,POSITIVE_LENGTH_MEASURE(1.0E-006),#654);
#389=LINE('',#655,#656);
#390=CURVE_STYLE('',#657,POSITIVE_LENGTH_MEASURE(1.0E-006),#658);
#391=CIRCLE('',#659,3.5);
#392=CURVE_STYLE('',#660,POSITIVE_LENGTH_MEASURE(1.0E-006),#661);
#393=CIRCLE('',#662,1.5075);
#394=CURVE_STYLE('',#663,POSITIVE_LENGTH_MEASURE(1.0E-006),#664);
#395=CIRCLE('',#665,3.35);
#396=POINT_STYLE(' ',#666,POSITIVE_LENGTH_MEASURE(1.0E-006),#667);
#397=CARTESIAN_POINT('',(4.89836418497182E-016,-3.99995,-59.8));
#398=SURFACE_STYLE_USAGE(.BOTH.,#668);
#399=CLOSED_SHELL('',(#364,#348,#326,#166,#174,#284,#210,#234,#338));
#400=POINT_STYLE(' ',#669,POSITIVE_LENGTH_MEASURE(1.0E-006),#670);
#401=CARTESIAN_POINT('',(3.30776850448707E-016,-2.701087165,-62.782));
#402=SURFACE_STYLE_USAGE(.BOTH.,#671);
#403=FACE_OUTER_BOUND('',#672,.T.);
#404=CYLINDRICAL_SURFACE('',#673,4.0);
#405=SURFACE_STYLE_USAGE(.BOTH.,#674);
#406=FACE_OUTER_BOUND('',#675,.T.);
#407=CONICAL_SURFACE('',#676,3.8,0.78539816339745);
#408=SURFACE_STYLE_USAGE(.BOTH.,#677);
#409=FACE_OUTER_BOUND('',#678,.T.);
#410=CYLINDRICAL_SURFACE('',#679,3.35);
#411=CURVE_STYLE('',#680,POSITIVE_LENGTH_MEASURE(1.0E-006),#681);
#412=CIRCLE('',#682,1.5075);
#413=CURVE_STYLE('',#683,POSITIVE_LENGTH_MEASURE(1.0E-006),#684);
#414=CIRCLE('',#685,3.6);
#415=CURVE_STYLE('',#686,POSITIVE_LENGTH_MEASURE(1.0E-006),#687);
#416=LINE('',#688,#689);
#417=SURFACE_STYLE_USAGE(.BOTH.,#690);
#418=FACE_OUTER_BOUND('',#691,.T.);
#419=FACE_BOUND('',#692,.T.);
#420=PLANE('',#693);
#421=SURFACE_STYLE_USAGE(.BOTH.,#694);
#422=FACE_OUTER_BOUND('',#695,.T.);
#423=CONICAL_SURFACE('',#696,3.749975,0.523568174782091);
#424=SURFACE_STYLE_USAGE(.BOTH.,#697);
#425=FACE_OUTER_BOUND('',#698,.T.);
#426=CONICAL_SURFACE('',#699,2.10429358,1.56241841660164);
#427=SURFACE_STYLE_USAGE(.BOTH.,#700);
#428=FACE_OUTER_BOUND('',#701,.T.);
#429=FACE_BOUND('',#702,.T.);
#430=PLANE('',#703);
#431=CURVE_STYLE('',#704,POSITIVE_LENGTH_MEASURE(1.0E-006),#705);
#432=CIRCLE('',#706,1.5075);
#433=CURVE_STYLE('',#707,POSITIVE_LENGTH_MEASURE(1.0E-006),#708);
#434=CIRCLE('',#709,4.0);
#435=POINT_STYLE(' ',#710,POSITIVE_LENGTH_MEASURE(1.0E-006),#711);
#436=CARTESIAN_POINT('',(0.0,3.35,-62.782));
#437=POINT_STYLE(' ',#712,POSITIVE_LENGTH_MEASURE(1.0E-006),#713);
#438=CARTESIAN_POINT('',(0.0,3.5,-60.666));
#439=POINT_STYLE(' ',#714,POSITIVE_LENGTH_MEASURE(1.0E-006),#715);
#440=CARTESIAN_POINT('',(0.0,2.70108716,-85.0));
#441=CURVE_STYLE('',#716,POSITIVE_LENGTH_MEASURE(1.0E-006),#717);
#442=LINE('',#718,#719);
#443=CURVE_STYLE('',#720,POSITIVE_LENGTH_MEASURE(1.0E-006),#721);
#444=CIRCLE('',#722,2.701087165);
#445=CURVE_STYLE('',#723,POSITIVE_LENGTH_MEASURE(1.0E-006),#724);
#446=CIRCLE('',#725,1.5075);
#447=SURFACE_STYLE_USAGE(.BOTH.,#726);
#448=FACE_OUTER_BOUND('',#727,.T.);
#449=CYLINDRICAL_SURFACE('',#728,3.5);
#450=POINT_STYLE(' ',#729,POSITIVE_LENGTH_MEASURE(1.0E-006),#730);
#451=CARTESIAN_POINT('',(0.0,-4.0,-59.8));
#452=POINT_STYLE(' ',#731,POSITIVE_LENGTH_MEASURE(1.0E-006),#732);
#453=CARTESIAN_POINT('',(4.89842541528951E-016,-4.0,-0.399999999999999));
#454=CURVE_STYLE('',#733,POSITIVE_LENGTH_MEASURE(1.0E-006),#734);
#455=LINE('',#735,#736);
#456=CURVE_STYLE('',#737,POSITIVE_LENGTH_MEASURE(1.0E-006),#738);
#457=CIRCLE('',#739,3.5);
#458=SURFACE_STYLE_USAGE(.BOTH.,#740);
#459=FACE_OUTER_BOUND('',#741,.T.);
#460=CONICAL_SURFACE('',#742,2.10429358,1.56241841660164);
#461=SURFACE_STYLE_USAGE(.BOTH.,#743);
#462=FACE_OUTER_BOUND('',#744,.T.);
#463=CONICAL_SURFACE('',#745,3.02554358,1.0471975511966);
#464=CURVE_STYLE('',#746,POSITIVE_LENGTH_MEASURE(1.0E-006),#747);
#465=LINE('',#748,#749);
#466=CURVE_STYLE('',#750,POSITIVE_LENGTH_MEASURE(1.0E-006),#751);
#467=LINE('',#752,#753);
#468=SURFACE_STYLE_USAGE(.BOTH.,#754);
#469=FACE_OUTER_BOUND('',#755,.T.);
#470=CONICAL_SURFACE('',#756,3.1005435825,0.785398163397449);
#471=CURVE_STYLE('',#757,POSITIVE_LENGTH_MEASURE(1.0E-006),#758);
#472=LINE('',#759,#760);
#473=CURVE_STYLE('',#761,POSITIVE_LENGTH_MEASURE(1.0E-006),#762);
#474=CIRCLE('',#763,2.70108716);
#475=POINT_STYLE(' ',#764,POSITIVE_LENGTH_MEASURE(1.0E-006),#765);
#476=CARTESIAN_POINT('',(-4.89842541528951E-016,4.0,-59.8));
#477=SURFACE_STYLE_USAGE(.BOTH.,#766);
#478=FACE_OUTER_BOUND('',#767,.T.);
#479=CYLINDRICAL_SURFACE('',#768,4.0);
#480=CURVE_STYLE('',#769,POSITIVE_LENGTH_MEASURE(1.0E-006),#770);
#481=LINE('',#771,#772);
#482=SURFACE_STYLE_USAGE(.BOTH.,#773);
#483=FACE_OUTER_BOUND('',#774,.T.);
#484=CONICAL_SURFACE('',#775,3.749975,0.523568174782091);
#485=CURVE_STYLE('',#776,POSITIVE_LENGTH_MEASURE(1.0E-006),#777);
#486=LINE('',#778,#779);
#487=CURVE_STYLE('',#780,POSITIVE_LENGTH_MEASURE(1.0E-006),#781);
#488=CIRCLE('',#782,1.5075);
#489=SURFACE_STYLE_USAGE(.BOTH.,#783);
#490=FACE_OUTER_BOUND('',#784,.T.);
#491=CONICAL_SURFACE('',#785,2.10429358,1.56241841660164);
#492=SURFACE_STYLE_USAGE(.BOTH.,#786);
#493=FACE_OUTER_BOUND('',#787,.T.);
#494=CYLINDRICAL_SURFACE('',#788,1.5075);
#495=CURVE_STYLE('',#789,POSITIVE_LENGTH_MEASURE(1.0E-006),#790);
#496=CIRCLE('',#791,2.701087165);
#497=CURVE_STYLE('',#792,POSITIVE_LENGTH_MEASURE(1.0E-006),#793);
#498=CIRCLE('',#794,3.5);
#499=CURVE_STYLE('',#795,POSITIVE_LENGTH_MEASURE(1.0E-006),#796);
#500=CIRCLE('',#797,3.99995);
#501=SURFACE_STYLE_USAGE(.BOTH.,#798);
#502=FACE_OUTER_BOUND('',#799,.T.);
#503=CYLINDRICAL_SURFACE('',#800,1.5075);
#504=CURVE_STYLE('',#801,POSITIVE_LENGTH_MEASURE(1.0E-006),#802);
#505=CIRCLE('',#803,2.70108716);
#506=CURVE_STYLE('',#804,POSITIVE_LENGTH_MEASURE(1.0E-006),#805);
#507=LINE('',#806,#807);
#508=POINT_STYLE(' ',#808,POSITIVE_LENGTH_MEASURE(1.0E-006),#809);
#509=CARTESIAN_POINT('',(0.0,3.99995,-59.8));
#510=CURVE_STYLE('',#810,POSITIVE_LENGTH_MEASURE(1.0E-006),#811);
#511=CIRCLE('',#812,2.70108716);
#512=CURVE_STYLE('',#813,POSITIVE_LENGTH_MEASURE(1.0E-006),#814);
#513=LINE('',#815,#816);
#514=CURVE_STYLE('',#817,POSITIVE_LENGTH_MEASURE(1.0E-006),#818);
#515=LINE('',#819,#820);
#516=CURVE_STYLE('',#821,POSITIVE_LENGTH_MEASURE(1.0E-006),#822);
#517=CIRCLE('',#823,3.35);
#518=POINT_STYLE(' ',#824,POSITIVE_LENGTH_MEASURE(1.0E-006),#825);
#519=CARTESIAN_POINT('',(0.0,2.701087165,-62.782));
#520=CURVE_STYLE('',#826,POSITIVE_LENGTH_MEASURE(1.0E-006),#827);
#521=LINE('',#828,#829);
#522=POINT_STYLE(' ',#830,POSITIVE_LENGTH_MEASURE(1.0E-006),#831);
#523=CARTESIAN_POINT('',(0.0,1.5075,-62.782));
#524=CURVE_STYLE('',#832,POSITIVE_LENGTH_MEASURE(1.0E-006),#833);
#525=CIRCLE('',#834,1.5075);
#526=POINT_STYLE(' ',#835,POSITIVE_LENGTH_MEASURE(1.0E-006),#836);
#527=CARTESIAN_POINT('',(0.0,3.6,0.0));
#528=SURFACE_STYLE_USAGE(.BOTH.,#837);
#529=FACE_OUTER_BOUND('',#838,.T.);
#530=CONICAL_SURFACE('',#839,3.1005435825,0.785398163397449);
#531=CURVE_STYLE('',#840,POSITIVE_LENGTH_MEASURE(1.0E-006),#841);
#532=CIRCLE('',#842,3.35);
#533=CURVE_STYLE('',#843,POSITIVE_LENGTH_MEASURE(1.0E-006),#844);
#534=LINE('',#845,#846);
#535=SURFACE_STYLE_USAGE(.BOTH.,#847);
#536=FACE_OUTER_BOUND('',#848,.T.);
#537=PLANE('',#849);
#538=POINT_STYLE(' ',#850,POSITIVE_LENGTH_MEASURE(1.0E-006),#851);
#539=CARTESIAN_POINT('',(4.10243128530496E-016,-3.35,-84.6253499971454));
#540=CURVE_STYLE('',#852,POSITIVE_LENGTH_MEASURE(1.0E-006),#853);
#541=CIRCLE('',#854,4.0);
#542=CURVE_STYLE('',#855,POSITIVE_LENGTH_MEASURE(1.0E-006),#856);
#543=LINE('',#857,#858);
#544=SURFACE_STYLE_USAGE(.BOTH.,#859);
#545=FACE_OUTER_BOUND('',#860,.T.);
#546=CYLINDRICAL_SURFACE('',#861,3.35);
#547=CURVE_STYLE('',#862,POSITIVE_LENGTH_MEASURE(1.0E-006),#863);
#548=LINE('',#864,#865);
#549=CURVE_STYLE('',#866,POSITIVE_LENGTH_MEASURE(1.0E-006),#867);
#550=LINE('',#868,#869);
#551=POINT_STYLE(' ',#870,POSITIVE_LENGTH_MEASURE(1.0E-006),#871);
#552=CARTESIAN_POINT('',(0.0,3.35,-84.6253499971454));
#553=CURVE_STYLE('',#872,POSITIVE_LENGTH_MEASURE(1.0E-006),#873);
#554=CIRCLE('',#874,1.5075);
#555=CURVE_STYLE('',#875,POSITIVE_LENGTH_MEASURE(1.0E-006),#876);
#556=CIRCLE('',#877,3.6);
#557=CURVE_STYLE('',#878,POSITIVE_LENGTH_MEASURE(1.0E-006),#879);
#558=CIRCLE('',#880,3.99995);
#559=CURVE_STYLE('',#881,POSITIVE_LENGTH_MEASURE(1.0E-006),#882);
#560=CIRCLE('',#883,4.0);
#561=POINT_STYLE(' ',#884,POSITIVE_LENGTH_MEASURE(1.0E-006),#885);
#562=CARTESIAN_POINT('',(0.0,1.5075,-84.99));
#563=CURVE_STYLE('',#886,POSITIVE_LENGTH_MEASURE(1.0E-006),#887);
#564=CIRCLE('',#888,2.70108716);
#565=POINT_STYLE(' ',#889,POSITIVE_LENGTH_MEASURE(1.0E-006),#890);
#566=CARTESIAN_POINT('',(3.30776849836404E-016,-2.70108716,-85.0));
#567=SURFACE_STYLE_USAGE(.BOTH.,#891);
#568=FACE_BOUND('',#892,.T.);
#569=FACE_OUTER_BOUND('',#893,.T.);
#570=PLANE('',#894);
#571=CURVE_STYLE('',#895,POSITIVE_LENGTH_MEASURE(1.0E-006),#896);
#572=CIRCLE('',#897,4.0);
#573=POINT_STYLE(' ',#898,POSITIVE_LENGTH_MEASURE(1.0E-006),#899);
#574=CARTESIAN_POINT('',(0.0,1.5075,-62.782));
#575=CURVE_STYLE('',#900,POSITIVE_LENGTH_MEASURE(1.0E-006),#901);
#576=LINE('',#902,#903);
#577=SURFACE_STYLE_USAGE(.BOTH.,#904);
#578=FACE_OUTER_BOUND('',#905,.T.);
#579=PLANE('',#906);
#580=POINT_STYLE(' ',#907,POSITIVE_LENGTH_MEASURE(1.0E-006),#908);
#581=CARTESIAN_POINT('',(4.40858287376056E-016,-3.6,0.0));
#582=POINT_STYLE(' ',#909,POSITIVE_LENGTH_MEASURE(1.0E-006),#910);
#583=CARTESIAN_POINT('',(1.84609407838723E-016,-1.5075,-84.99));
#584=CURVE_STYLE('',#911,POSITIVE_LENGTH_MEASURE(1.0E-006),#912);
#585=LINE('',#913,#914);
#586=CURVE_STYLE('',#915,POSITIVE_LENGTH_MEASURE(1.0E-006),#916);
#587=CIRCLE('',#917,1.5075);
#588=CURVE_STYLE('',#918,POSITIVE_LENGTH_MEASURE(1.0E-006),#919);
#589=LINE('',#920,#921);
#590=SURFACE_STYLE_USAGE(.BOTH.,#922);
#591=FACE_OUTER_BOUND('',#923,.T.);
#592=CONICAL_SURFACE('',#924,3.02554358,1.0471975511966);
#593=SURFACE_STYLE_USAGE(.BOTH.,#925);
#594=FACE_OUTER_BOUND('',#926,.T.);
#595=CONICAL_SURFACE('',#927,3.8,0.78539816339745);
#596=POINT_STYLE(' ',#928,POSITIVE_LENGTH_MEASURE(1.0E-006),#929);
#597=CARTESIAN_POINT('',(1.84609407838723E-016,-1.5075,-62.782));
#598=SURFACE_STYLE_USAGE(.BOTH.,#930);
#599=CLOSED_SHELL('',(#178,#236,#270,#360,#228,#162,#164,#180,#314,#328,#224,#176,#198,#216,#306,#244,#208,#276));
#600=POINT_STYLE(' ',#931,POSITIVE_LENGTH_MEASURE(1.0E-006),#932);
#601=CARTESIAN_POINT('',(4.28612223837832E-016,-3.5,-61.983087165));
#602=POINT_STYLE(' ',#933,POSITIVE_LENGTH_MEASURE(1.0E-006),#934);
#603=CARTESIAN_POINT('',(0.0,2.70108716,-85.0));
#604=SURFACE_STYLE_USAGE(.BOTH.,#935);
#605=FACE_OUTER_BOUND('',#936,.T.);
#606=CYLINDRICAL_SURFACE('',#937,1.5075);
#607=POINT_STYLE(' ',#938,POSITIVE_LENGTH_MEASURE(1.0E-006),#939);
#608=CARTESIAN_POINT('',(1.84609407838723E-016,-1.5075,-84.99));
#609=CURVE_STYLE('',#940,POSITIVE_LENGTH_MEASURE(1.0E-006),#941);
#610=LINE('',#942,#943);
#611=POINT_STYLE(' ',#944,POSITIVE_LENGTH_MEASURE(1.0E-006),#945);
#612=CARTESIAN_POINT('',(0.0,1.5075,-84.99));
#613=POINT_STYLE(' ',#946,POSITIVE_LENGTH_MEASURE(1.0E-006),#947);
#614=CARTESIAN_POINT('',(0.0,3.5,-61.983087165));
#615=SURFACE_STYLE_USAGE(.BOTH.,#948);
#616=FACE_OUTER_BOUND('',#949,.T.);
#617=CONICAL_SURFACE('',#950,2.10429358,1.56241841660164);
#618=POINT_STYLE(' ',#951,POSITIVE_LENGTH_MEASURE(1.0E-006),#952);
#619=CARTESIAN_POINT('',(1.84609407838723E-016,-1.5075,-62.782));
#620=POINT_STYLE(' ',#953,POSITIVE_LENGTH_MEASURE(1.0E-006),#954);
#621=CARTESIAN_POINT('',(4.28612223837832E-016,-3.5,-60.666));
#622=POINT_STYLE(' ',#955,POSITIVE_LENGTH_MEASURE(1.0E-006),#956);
#623=CARTESIAN_POINT('',(4.10243128530496E-016,-3.35,-62.782));
#624=POINT_STYLE(' ',#957,POSITIVE_LENGTH_MEASURE(1.0E-006),#958);
#625=CARTESIAN_POINT('',(0.0,4.0,-0.399999999999999));
#626=POINT_STYLE(' ',#959,POSITIVE_LENGTH_MEASURE(1.0E-006),#960);
#627=CARTESIAN_POINT('',(3.30776849836404E-016,-2.70108716,-85.0));
#628=SURFACE_STYLE_USAGE(.BOTH.,#961);
#629=FACE_OUTER_BOUND('',#962,.T.);
#630=CYLINDRICAL_SURFACE('',#963,3.5);
#631=CURVE_STYLE('',#964,POSITIVE_LENGTH_MEASURE(1.0E-006),#965);
#632=LINE('',#966,#967);
#633=SURFACE_STYLE_USAGE(.BOTH.,#968);
#634=FACE_OUTER_BOUND('',#969,.T.);
#635=CYLINDRICAL_SURFACE('',#970,1.5075);
#636=PRODUCT_CONTEXT('',#125,'mechanical');
#637=PRODUCT_DEFINITION_FORMATION_WITH_SPECIFIED_SOURCE(' ','NONE',#365,.NOT_KNOWN.);
#638=CARTESIAN_POINT('',(0.0,0.0,0.0));
#639=DIRECTION('',(0.0,0.0,1.0));
#640=DIRECTION('',(1.0,0.0,0.0));
#641=PRODUCT_CONTEXT('',#130,'mechanical');
#642=PRODUCT_DEFINITION_FORMATION_WITH_SPECIFIED_SOURCE(' ','NONE',#368,.NOT_KNOWN.);
#643=CARTESIAN_POINT('',(0.0,0.0,0.0));
#644=DIRECTION('',(0.0,0.0,1.0));
#645=DIRECTION('',(1.0,0.0,0.0));
#646= (NAMED_UNIT(#376)LENGTH_UNIT()SI_UNIT(.MILLI.,.METRE.));
#647=DRAUGHTING_PRE_DEFINED_CURVE_FONT('continuous');
#648=COLOUR_RGB('',0.498039215803146,0.498039215803146,0.498039215803146);
#649=AXIS2_PLACEMENT_3D('',#972,#973,#974);
#650=DRAUGHTING_PRE_DEFINED_CURVE_FONT('continuous');
#651=COLOUR_RGB('',0.800000011920929,0.800000011920929,0.800000011920929);
#652=AXIS2_PLACEMENT_3D('',#975,#976,#977);
#653=DRAUGHTING_PRE_DEFINED_CURVE_FONT('continuous');
#654=COLOUR_RGB('',0.498039215803146,0.498039215803146,0.498039215803146);
#655=CARTESIAN_POINT('',(-4.28612223837832E-016,3.5,-61.3245435825));
#656=VECTOR('',#978,1.0);
#657=DRAUGHTING_PRE_DEFINED_CURVE_FONT('continuous');
#658=COLOUR_RGB('',0.498039215803146,0.498039215803146,0.498039215803146);
#659=AXIS2_PLACEMENT_3D('',#979,#980,#981);
#660=DRAUGHTING_PRE_DEFINED_CURVE_FONT('continuous');
#661=COLOUR_RGB('',0.498039215803146,0.498039215803146,0.498039215803146);
#662=AXIS2_PLACEMENT_3D('',#982,#983,#984);
#663=DRAUGHTING_PRE_DEFINED_CURVE_FONT('continuous');
#664=COLOUR_RGB('',0.800000011920929,0.800000011920929,0.800000011920929);
#665=AXIS2_PLACEMENT_3D('',#985,#986,#987);
#666=PRE_DEFINED_MARKER('');
#667=COLOUR_RGB('',0.498039215803146,0.498039215803146,0.498039215803146);
#668=SURFACE_SIDE_STYLE('',(#988));
#669=PRE_DEFINED_MARKER('');
#670=COLOUR_RGB('',0.498039215803146,0.498039215803146,0.498039215803146);
#671=SURFACE_SIDE_STYLE('',(#989));
#672=EDGE_LOOP('',(#990,#991,#992,#993));
#673=AXIS2_PLACEMENT_3D('',#994,#995,#996);
#674=SURFACE_SIDE_STYLE('',(#997));
#675=EDGE_LOOP('',(#998,#999,#1000,#1001));
#676=AXIS2_PLACEMENT_3D('',#1002,#1003,#1004);
#677=SURFACE_SIDE_STYLE('',(#1005));
#678=EDGE_LOOP('',(#1006,#1007,#1008,#1009));
#679=AXIS2_PLACEMENT_3D('',#1010,#1011,#1012);
#680=DRAUGHTING_PRE_DEFINED_CURVE_FONT('continuous');
#681=COLOUR_RGB('',0.800000011920929,0.800000011920929,0.800000011920929);
#682=AXIS2_PLACEMENT_3D('',#1013,#1014,#1015);
#683=DRAUGHTING_PRE_DEFINED_CURVE_FONT('continuous');
#684=COLOUR_RGB('',0.498039215803146,0.498039215803146,0.498039215803146);
#685=AXIS2_PLACEMENT_3D('',#1016,#1017,#1018);
#686=DRAUGHTING_PRE_DEFINED_CURVE_FONT('continuous');
#687=COLOUR_RGB('',0.800000011920929,0.800000011920929,0.800000011920929);
#688=CARTESIAN_POINT('',(-3.7050998918345E-016,3.02554358,-84.8126749985727));
#689=VECTOR('',#1019,1.0);
#690=SURFACE_SIDE_STYLE('',(#1020));
#691=EDGE_LOOP('',(#1021,#1022));
#692=EDGE_LOOP('',(#1023,#1024));
#693=AXIS2_PLACEMENT_3D('',#1025,#1026,#1027);
#694=SURFACE_SIDE_STYLE('',(#1028));
#695=EDGE_LOOP('',(#1029,#1030,#1031,#1032));
#696=AXIS2_PLACEMENT_3D('',#1033,#1034,#1035);
#697=SURFACE_SIDE_STYLE('',(#1036));
#698=EDGE_LOOP('',(#1037,#1038,#1039,#1040));
#699=AXIS2_PLACEMENT_3D('',#1041,#1042,#1043);
#700=SURFACE_SIDE_STYLE('',(#1044));
#701=EDGE_LOOP('',(#1045,#1046));
#702=EDGE_LOOP('',(#1047,#1048));
#703=AXIS2_PLACEMENT_3D('',#1049,#1050,#1051);
#704=DRAUGHTING_PRE_DEFINED_CURVE_FONT('continuous');
#705=COLOUR_RGB('',0.800000011920929,0.800000011920929,0.800000011920929);
#706=AXIS2_PLACEMENT_3D('',#1052,#1053,#1054);
#707=DRAUGHTING_PRE_DEFINED_CURVE_FONT('continuous');
#708=COLOUR_RGB('',0.498039215803146,0.498039215803146,0.498039215803146);
#709=AXIS2_PLACEMENT_3D('',#1055,#1056,#1057);
#710=PRE_DEFINED_MARKER('');
#711=COLOUR_RGB('',0.800000011920929,0.800000011920929,0.800000011920929);
#712=PRE_DEFINED_MARKER('');
#713=COLOUR_RGB('',0.498039215803146,0.498039215803146,0.498039215803146);
#714=PRE_DEFINED_MARKER('');
#715=COLOUR_RGB('',0.800000011920929,0.800000011920929,0.800000011920929);
#716=DRAUGHTING_PRE_DEFINED_CURVE_FONT('continuous');
#717=COLOUR_RGB('',0.800000011920929,0.800000011920929,0.800000011920929);
#718=CARTESIAN_POINT('',(2.57693128837564E-016,-2.10429358,-84.995));
#719=VECTOR('',#1058,1.0);
#720=DRAUGHTING_PRE_DEFINED_CURVE_FONT('continuous');
#721=COLOUR_RGB('',0.498039215803146,0.498039215803146,0.498039215803146);
#722=AXIS2_PLACEMENT_3D('',#1059,#1060,#1061);
#723=DRAUGHTING_PRE_DEFINED_CURVE_FONT('continuous');
#724=COLOUR_RGB('',0.800000011920929,0.800000011920929,0.800000011920929);
#725=AXIS2_PLACEMENT_3D('',#1062,#1063,#1064);
#726=SURFACE_SIDE_STYLE('',(#1065));
#727=EDGE_LOOP('',(#1066,#1067,#1068,#1069));
#728=AXIS2_PLACEMENT_3D('',#1070,#1071,#1072);
#729=PRE_DEFINED_MARKER('');
#730=COLOUR_RGB('',0.498039215803146,0.498039215803146,0.498039215803146);
#731=PRE_DEFINED_MARKER('');
#732=COLOUR_RGB('',0.498039215803146,0.498039215803146,0.498039215803146);
#733=DRAUGHTING_PRE_DEFINED_CURVE_FONT('continuous');
#734=COLOUR_RGB('',0.800000011920929,0.800000011920929,0.800000011920929);
#735=CARTESIAN_POINT('',(1.84609407838723E-016,-1.5075,-73.886));
#736=VECTOR('',#1073,1.0);
#737=DRAUGHTING_PRE_DEFINED_CURVE_FONT('continuous');
#738=COLOUR_RGB('',0.498039215803146,0.498039215803146,0.498039215803146);
#739=AXIS2_PLACEMENT_3D('',#1074,#1075,#1076);
#740=SURFACE_SIDE_STYLE('',(#1077));
#741=EDGE_LOOP('',(#1078,#1079,#1080,#1081));
#742=AXIS2_PLACEMENT_3D('',#1082,#1083,#1084);
#743=SURFACE_SIDE_STYLE('',(#1085));
#744=EDGE_LOOP('',(#1086,#1087,#1088,#1089));
#745=AXIS2_PLACEMENT_3D('',#1090,#1091,#1092);
#746=DRAUGHTING_PRE_DEFINED_CURVE_FONT('continuous');
#747=COLOUR_RGB('',0.498039215803146,0.498039215803146,0.498039215803146);
#748=CARTESIAN_POINT('',(-4.89842541528951E-016,4.0,-22.331));
#749=VECTOR('',#1093,1.0);
#750=DRAUGHTING_PRE_DEFINED_CURVE_FONT('continuous');
#751=COLOUR_RGB('',0.800000011920929,0.800000011920929,0.800000011920929);
#752=CARTESIAN_POINT('',(-1.84609407838723E-016,1.5075,-73.886));
#753=VECTOR('',#1094,1.0);
#754=SURFACE_SIDE_STYLE('',(#1095));
#755=EDGE_LOOP('',(#1096,#1097,#1098,#1099));
#756=AXIS2_PLACEMENT_3D('',#1100,#1101,#1102);
#757=DRAUGHTING_PRE_DEFINED_CURVE_FONT('continuous');
#758=COLOUR_RGB('',0.498039215803146,0.498039215803146,0.498039215803146);
#759=CARTESIAN_POINT('',(4.89842541528951E-016,-4.0,-22.331));
#760=VECTOR('',#1103,1.0);
#761=DRAUGHTING_PRE_DEFINED_CURVE_FONT('continuous');
#762=COLOUR_RGB('',0.800000011920929,0.800000011920929,0.800000011920929);
#763=AXIS2_PLACEMENT_3D('',#1104,#1105,#1106);
#764=PRE_DEFINED_MARKER('');
#765=COLOUR_RGB('',0.498039215803146,0.498039215803146,0.498039215803146);
#766=SURFACE_SIDE_STYLE('',(#1107));
#767=EDGE_LOOP('',(#1108,#1109,#1110,#1111));
#768=AXIS2_PLACEMENT_3D('',#1112,#1113,#1114);
#769=DRAUGHTING_PRE_DEFINED_CURVE_FONT('continuous');
#770=COLOUR_RGB('',0.498039215803146,0.498039215803146,0.498039215803146);
#771=CARTESIAN_POINT('',(-2.57693128837564E-016,2.10429358,-84.995));
#772=VECTOR('',#1115,1.0);
#773=SURFACE_SIDE_STYLE('',(#1116));
#774=EDGE_LOOP('',(#1117,#1118,#1119,#1120));
#775=AXIS2_PLACEMENT_3D('',#1121,#1122,#1123);
#776=DRAUGHTING_PRE_DEFINED_CURVE_FONT('continuous');
#777=COLOUR_RGB('',0.498039215803146,0.498039215803146,0.498039215803146);
#778=CARTESIAN_POINT('',(2.57693128837564E-016,-2.10429358,-84.995));
#779=VECTOR('',#1124,1.0);
#780=DRAUGHTING_PRE_DEFINED_CURVE_FONT('continuous');
#781=COLOUR_RGB('',0.498039215803146,0.498039215803146,0.498039215803146);
#782=AXIS2_PLACEMENT_3D('',#1125,#1126,#1127);
#783=SURFACE_SIDE_STYLE('',(#1128));
#784=EDGE_LOOP('',(#1129,#1130,#1131,#1132));
#785=AXIS2_PLACEMENT_3D('',#1133,#1134,#1135);
#786=SURFACE_SIDE_STYLE('',(#1136));
#787=EDGE_LOOP('',(#1137,#1138,#1139,#1140));
#788=AXIS2_PLACEMENT_3D('',#1141,#1142,#1143);
#789=DRAUGHTING_PRE_DEFINED_CURVE_FONT('continuous');
#790=COLOUR_RGB('',0.498039215803146,0.498039215803146,0.498039215803146);
#791=AXIS2_PLACEMENT_3D('',#1144,#1145,#1146);
#792=DRAUGHTING_PRE_DEFINED_CURVE_FONT('continuous');
#793=COLOUR_RGB('',0.498039215803146,0.498039215803146,0.498039215803146);
#794=AXIS2_PLACEMENT_3D('',#1147,#1148,#1149);
#795=DRAUGHTING_PRE_DEFINED_CURVE_FONT('continuous');
#796=COLOUR_RGB('',0.498039215803146,0.498039215803146,0.498039215803146);
#797=AXIS2_PLACEMENT_3D('',#1150,#1151,#1152);
#798=SURFACE_SIDE_STYLE('',(#1153));
#799=EDGE_LOOP('',(#1154,#1155,#1156,#1157));
#800=AXIS2_PLACEMENT_3D('',#1158,#1159,#1160);
#801=DRAUGHTING_PRE_DEFINED_CURVE_FONT('continuous');
#802=COLOUR_RGB('',0.498039215803146,0.498039215803146,0.498039215803146);
#803=AXIS2_PLACEMENT_3D('',#1161,#1162,#1163);
#804=DRAUGHTING_PRE_DEFINED_CURVE_FONT('continuous');
#805=COLOUR_RGB('',0.800000011920929,0.800000011920929,0.800000011920929);
#806=CARTESIAN_POINT('',(4.10243128530496E-016,-3.35,-73.7036749985727));
#807=VECTOR('',#1164,1.0);
#808=PRE_DEFINED_MARKER('');
#809=COLOUR_RGB('',0.498039215803146,0.498039215803146,0.498039215803146);
#810=DRAUGHTING_PRE_DEFINED_CURVE_FONT('continuous');
#811=COLOUR_RGB('',0.800000011920929,0.800000011920929,0.800000011920929);
#812=AXIS2_PLACEMENT_3D('',#1165,#1166,#1167);
#813=DRAUGHTING_PRE_DEFINED_CURVE_FONT('continuous');
#814=COLOUR_RGB('',0.800000011920929,0.800000011920929,0.800000011920929);
#815=CARTESIAN_POINT('',(-4.10243128530496E-016,3.35,-73.7036749985727));
#816=VECTOR('',#1168,1.0);
#817=DRAUGHTING_PRE_DEFINED_CURVE_FONT('continuous');
#818=COLOUR_RGB('',0.498039215803146,0.498039215803146,0.498039215803146);
#819=CARTESIAN_POINT('',(-3.7969453714327E-016,3.1005435825,-62.3825435825));
#820=VECTOR('',#1169,1.0);
#821=DRAUGHTING_PRE_DEFINED_CURVE_FONT('continuous');
#822=COLOUR_RGB('',0.800000011920929,0.800000011920929,0.800000011920929);
#823=AXIS2_PLACEMENT_3D('',#1170,#1171,#1172);
#824=PRE_DEFINED_MARKER('');
#825=COLOUR_RGB('',0.498039215803146,0.498039215803146,0.498039215803146);
#826=DRAUGHTING_PRE_DEFINED_CURVE_FONT('continuous');
#827=COLOUR_RGB('',0.498039215803146,0.498039215803146,0.498039215803146);
#828=CARTESIAN_POINT('',(-4.59224321167507E-016,3.749975,-60.233));
#829=VECTOR('',#1173,1.0);
#830=PRE_DEFINED_MARKER('');
#831=COLOUR_RGB('',0.498039215803146,0.498039215803146,0.498039215803146);
#832=DRAUGHTING_PRE_DEFINED_CURVE_FONT('continuous');
#833=COLOUR_RGB('',0.800000011920929,0.800000011920929,0.800000011920929);
#834=AXIS2_PLACEMENT_3D('',#1174,#1175,#1176);
#835=PRE_DEFINED_MARKER('');
#836=COLOUR_RGB('',0.498039215803146,0.498039215803146,0.498039215803146);
#837=SURFACE_SIDE_STYLE('',(#1177));
#838=EDGE_LOOP('',(#1178,#1179,#1180,#1181));
#839=AXIS2_PLACEMENT_3D('',#1182,#1183,#1184);
#840=DRAUGHTING_PRE_DEFINED_CURVE_FONT('continuous');
#841=COLOUR_RGB('',0.800000011920929,0.800000011920929,0.800000011920929);
#842=AXIS2_PLACEMENT_3D('',#1185,#1186,#1187);
#843=DRAUGHTING_PRE_DEFINED_CURVE_FONT('continuous');
#844=COLOUR_RGB('',0.498039215803146,0.498039215803146,0.498039215803146);
#845=CARTESIAN_POINT('',(4.65350414452503E-016,-3.8,-0.199999999999996));
#846=VECTOR('',#1188,1.0);
#847=SURFACE_SIDE_STYLE('',(#1189));
#848=EDGE_LOOP('',(#1190,#1191));
#849=AXIS2_PLACEMENT_3D('',#1192,#1193,#1194);
#850=PRE_DEFINED_MARKER('');
#851=COLOUR_RGB('',0.800000011920929,0.800000011920929,0.800000011920929);
#852=DRAUGHTING_PRE_DEFINED_CURVE_FONT('continuous');
#853=COLOUR_RGB('',0.498039215803146,0.498039215803146,0.498039215803146);
#854=AXIS2_PLACEMENT_3D('',#1195,#1196,#1197);
#855=DRAUGHTING_PRE_DEFINED_CURVE_FONT('continuous');
#856=COLOUR_RGB('',0.498039215803146,0.498039215803146,0.498039215803146);
#857=CARTESIAN_POINT('',(4.28612223837832E-016,-3.5,-61.3245435825));
#858=VECTOR('',#1198,1.0);
#859=SURFACE_SIDE_STYLE('',(#1199));
#860=EDGE_LOOP('',(#1200,#1201,#1202,#1203));
#861=AXIS2_PLACEMENT_3D('',#1204,#1205,#1206);
#862=DRAUGHTING_PRE_DEFINED_CURVE_FONT('continuous');
#863=COLOUR_RGB('',0.800000011920929,0.800000011920929,0.800000011920929);
#864=CARTESIAN_POINT('',(-2.57693128837564E-016,2.10429358,-84.995));
#865=VECTOR('',#1207,1.0);
#866=DRAUGHTING_PRE_DEFINED_CURVE_FONT('continuous');
#867=COLOUR_RGB('',0.800000011920929,0.800000011920929,0.800000011920929);
#868=CARTESIAN_POINT('',(3.7050998918345E-016,-3.02554358,-84.8126749985727));
#869=VECTOR('',#1208,1.0);
#870=PRE_DEFINED_MARKER('');
#871=COLOUR_RGB('',0.800000011920929,0.800000011920929,0.800000011920929);
#872=DRAUGHTING_PRE_DEFINED_CURVE_FONT('continuous');
#873=COLOUR_RGB('',0.498039215803146,0.498039215803146,0.498039215803146);
#874=AXIS2_PLACEMENT_3D('',#1209,#1210,#1211);
#875=DRAUGHTING_PRE_DEFINED_CURVE_FONT('continuous');
#876=COLOUR_RGB('',0.498039215803146,0.498039215803146,0.498039215803146);
#877=AXIS2_PLACEMENT_3D('',#1212,#1213,#1214);
#878=DRAUGHTING_PRE_DEFINED_CURVE_FONT('continuous');
#879=COLOUR_RGB('',0.498039215803146,0.498039215803146,0.498039215803146);
#880=AXIS2_PLACEMENT_3D('',#1215,#1216,#1217);
#881=DRAUGHTING_PRE_DEFINED_CURVE_FONT('continuous');
#882=COLOUR_RGB('',0.498039215803146,0.498039215803146,0.498039215803146);
#883=AXIS2_PLACEMENT_3D('',#1218,#1219,#1220);
#884=PRE_DEFINED_MARKER('');
#885=COLOUR_RGB('',0.800000011920929,0.800000011920929,0.800000011920929);
#886=DRAUGHTING_PRE_DEFINED_CURVE_FONT('continuous');
#887=COLOUR_RGB('',0.498039215803146,0.498039215803146,0.498039215803146);
#888=AXIS2_PLACEMENT_3D('',#1221,#1222,#1223);
#889=PRE_DEFINED_MARKER('');
#890=COLOUR_RGB('',0.800000011920929,0.800000011920929,0.800000011920929);
#891=SURFACE_SIDE_STYLE('',(#1224));
#892=EDGE_LOOP('',(#1225,#1226));
#893=EDGE_LOOP('',(#1227,#1228));
#894=AXIS2_PLACEMENT_3D('',#1229,#1230,#1231);
#895=DRAUGHTING_PRE_DEFINED_CURVE_FONT('continuous');
#896=COLOUR_RGB('',0.498039215803146,0.498039215803146,0.498039215803146);
#897=AXIS2_PLACEMENT_3D('',#1232,#1233,#1234);
#898=PRE_DEFINED_MARKER('');
#899=COLOUR_RGB('',0.800000011920929,0.800000011920929,0.800000011920929);
#900=DRAUGHTING_PRE_DEFINED_CURVE_FONT('continuous');
#901=COLOUR_RGB('',0.498039215803146,0.498039215803146,0.498039215803146);
#902=CARTESIAN_POINT('',(1.84609407838723E-016,-1.5075,-73.886));
#903=VECTOR('',#1235,1.0);
#904=SURFACE_SIDE_STYLE('',(#1236));
#905=EDGE_LOOP('',(#1237,#1238));
#906=AXIS2_PLACEMENT_3D('',#1239,#1240,#1241);
#907=PRE_DEFINED_MARKER('');
#908=COLOUR_RGB('',0.498039215803146,0.498039215803146,0.498039215803146);
#909=PRE_DEFINED_MARKER('');
#910=COLOUR_RGB('',0.800000011920929,0.800000011920929,0.800000011920929);
#911=DRAUGHTING_PRE_DEFINED_CURVE_FONT('continuous');
#912=COLOUR_RGB('',0.498039215803146,0.498039215803146,0.498039215803146);
#913=CARTESIAN_POINT('',(4.59224321167507E-016,-3.749975,-60.233));
#914=VECTOR('',#1242,1.0);
#915=DRAUGHTING_PRE_DEFINED_CURVE_FONT('continuous');
#916=COLOUR_RGB('',0.498039215803146,0.498039215803146,0.498039215803146);
#917=AXIS2_PLACEMENT_3D('',#1243,#1244,#1245);
#918=DRAUGHTING_PRE_DEFINED_CURVE_FONT('continuous');
#919=COLOUR_RGB('',0.498039215803146,0.498039215803146,0.498039215803146);
#920=CARTESIAN_POINT('',(3.7969453714327E-016,-3.1005435825,-62.3825435825));
#921=VECTOR('',#1246,1.0);
#922=SURFACE_SIDE_STYLE('',(#1247));
#923=EDGE_LOOP('',(#1248,#1249,#1250,#1251));
#924=AXIS2_PLACEMENT_3D('',#1252,#1253,#1254);
#925=SURFACE_SIDE_STYLE('',(#1255));
#926=EDGE_LOOP('',(#1256,#1257,#1258,#1259));
#927=AXIS2_PLACEMENT_3D('',#1260,#1261,#1262);
#928=PRE_DEFINED_MARKER('');
#929=COLOUR_RGB('',0.498039215803146,0.498039215803146,0.498039215803146);
#930=SURFACE_SIDE_STYLE('',(#1263));
#931=PRE_DEFINED_MARKER('');
#932=COLOUR_RGB('',0.498039215803146,0.498039215803146,0.498039215803146);
#933=PRE_DEFINED_MARKER('');
#934=COLOUR_RGB('',0.498039215803146,0.498039215803146,0.498039215803146);
#935=SURFACE_SIDE_STYLE('',(#1264));
#936=EDGE_LOOP('',(#1265,#1266,#1267,#1268));
#937=AXIS2_PLACEMENT_3D('',#1269,#1270,#1271);
#938=PRE_DEFINED_MARKER('');
#939=COLOUR_RGB('',0.498039215803146,0.498039215803146,0.498039215803146);
#940=DRAUGHTING_PRE_DEFINED_CURVE_FONT('continuous');
#941=COLOUR_RGB('',0.498039215803146,0.498039215803146,0.498039215803146);
#942=CARTESIAN_POINT('',(-1.84609407838723E-016,1.5075,-73.886));
#943=VECTOR('',#1272,1.0);
#944=PRE_DEFINED_MARKER('');
#945=COLOUR_RGB('',0.498039215803146,0.498039215803146,0.498039215803146);
#946=PRE_DEFINED_MARKER('');
#947=COLOUR_RGB('',0.498039215803146,0.498039215803146,0.498039215803146);
#948=SURFACE_SIDE_STYLE('',(#1273));
#949=EDGE_LOOP('',(#1274,#1275,#1276,#1277));
#950=AXIS2_PLACEMENT_3D('',#1278,#1279,#1280);
#951=PRE_DEFINED_MARKER('');
#952=COLOUR_RGB('',0.800000011920929,0.800000011920929,0.800000011920929);
#953=PRE_DEFINED_MARKER('');
#954=COLOUR_RGB('',0.498039215803146,0.498039215803146,0.498039215803146);
#955=PRE_DEFINED_MARKER('');
#956=COLOUR_RGB('',0.800000011920929,0.800000011920929,0.800000011920929);
#957=PRE_DEFINED_MARKER('');
#958=COLOUR_RGB('',0.498039215803146,0.498039215803146,0.498039215803146);
#959=PRE_DEFINED_MARKER('');
#960=COLOUR_RGB('',0.498039215803146,0.498039215803146,0.498039215803146);
#961=SURFACE_SIDE_STYLE('',(#1281));
#962=EDGE_LOOP('',(#1282,#1283,#1284,#1285));
#963=AXIS2_PLACEMENT_3D('',#1286,#1287,#1288);
#964=DRAUGHTING_PRE_DEFINED_CURVE_FONT('continuous');
#965=COLOUR_RGB('',0.498039215803146,0.498039215803146,0.498039215803146);
#966=CARTESIAN_POINT('',(-4.65350414452503E-016,3.8,-0.199999999999996));
#967=VECTOR('',#1289,1.0);
#968=SURFACE_SIDE_STYLE('',(#1290));
#969=EDGE_LOOP('',(#1291,#1292,#1293,#1294));
#970=AXIS2_PLACEMENT_3D('',#1295,#1296,#1297);
#972=CARTESIAN_POINT('',(0.0,0.0,-61.983087165));
#973=DIRECTION('',(0.0,0.0,-1.0));
#974=DIRECTION('',(0.0,1.0,0.0));
#975=CARTESIAN_POINT('',(0.0,0.0,-62.782));
#976=DIRECTION('',(0.0,0.0,-1.0));
#977=DIRECTION('',(0.0,1.0,0.0));
#978=DIRECTION('',(0.0,0.0,-1.0));
#979=CARTESIAN_POINT('',(0.0,0.0,-60.666));
#980=DIRECTION('',(0.0,0.0,-1.0));
#981=DIRECTION('',(0.0,1.0,0.0));
#982=CARTESIAN_POINT('',(0.0,0.0,-84.99));
#983=DIRECTION('',(0.0,0.0,-1.0));
#984=DIRECTION('',(0.0,1.0,0.0));
#985=CARTESIAN_POINT('',(0.0,0.0,-84.6253499971454));
#986=DIRECTION('',(0.0,0.0,-1.0));
#987=DIRECTION('',(0.0,1.0,0.0));
#988=SURFACE_STYLE_FILL_AREA(#1298);
#989=SURFACE_STYLE_FILL_AREA(#1299);
#990=ORIENTED_EDGE('',*,*,#212,.F.);
#991=ORIENTED_EDGE('',*,*,#308,.T.);
#992=ORIENTED_EDGE('',*,*,#218,.F.);
#993=ORIENTED_EDGE('',*,*,#184,.F.);
#994=CARTESIAN_POINT('',(0.0,0.0,-22.331));
#995=DIRECTION('',(-0.0,-0.0,1.0));
#996=DIRECTION('',(0.0,1.0,0.0));
#997=SURFACE_STYLE_FILL_AREA(#1300);
#998=ORIENTED_EDGE('',*,*,#362,.F.);
#999=ORIENTED_EDGE('',*,*,#170,.T.);
#1000=ORIENTED_EDGE('',*,*,#274,.F.);
#1001=ORIENTED_EDGE('',*,*,#308,.F.);
#1002=CARTESIAN_POINT('',(0.0,0.0,-0.199999999999996));
#1003=DIRECTION('',(0.0,-0.0,-1.0));
#1004=DIRECTION('',(0.0,1.0,0.0));
#1005=SURFACE_STYLE_FILL_AREA(#1301);
#1006=ORIENTED_EDGE('',*,*,#254,.F.);
#1007=ORIENTED_EDGE('',*,*,#146,.T.);
#1008=ORIENTED_EDGE('',*,*,#248,.F.);
#1009=ORIENTED_EDGE('',*,*,#154,.F.);
#1010=CARTESIAN_POINT('',(0.0,0.0,-73.7036749985727));
#1011=DIRECTION('',(-0.0,-0.0,1.0));
#1012=DIRECTION('',(0.0,1.0,0.0));
#1013=CARTESIAN_POINT('',(0.0,0.0,-84.99));
#1014=DIRECTION('',(0.0,0.0,-1.0));
#1015=DIRECTION('',(0.0,1.0,0.0));
#1016=CARTESIAN_POINT('',(0.0,0.0,0.0));
#1017=DIRECTION('',(0.0,0.0,-1.0));
#1018=DIRECTION('',(0.0,1.0,0.0));
#1019=DIRECTION('',(1.06054021204601E-016,-0.866025403784439,-0.5));
#1020=SURFACE_STYLE_FILL_AREA(#1302);
#1021=ORIENTED_EDGE('',*,*,#146,.F.);
#1022=ORIENTED_EDGE('',*,*,#272,.F.);
#1023=ORIENTED_EDGE('',*,*,#266,.T.);
#1024=ORIENTED_EDGE('',*,*,#182,.T.);
#1025=CARTESIAN_POINT('',(0.0,2.42875,-62.782));
#1026=DIRECTION('',(-0.0,0.0,1.0));
#1027=DIRECTION('',(0.0,-1.0,0.0));
#1028=SURFACE_STYLE_FILL_AREA(#1303);
#1029=ORIENTED_EDGE('',*,*,#262,.T.);
#1030=ORIENTED_EDGE('',*,*,#150,.F.);
#1031=ORIENTED_EDGE('',*,*,#320,.T.);
#1032=ORIENTED_EDGE('',*,*,#296,.T.);
#1033=CARTESIAN_POINT('',(0.0,0.0,-60.233));
#1034=DIRECTION('',(-0.0,-0.0,1.0));
#1035=DIRECTION('',(0.0,1.0,0.0));
#1036=SURFACE_STYLE_FILL_AREA(#1304);
#1037=ORIENTED_EDGE('',*,*,#226,.F.);
#1038=ORIENTED_EDGE('',*,*,#292,.T.);
#1039=ORIENTED_EDGE('',*,*,#230,.F.);
#1040=ORIENTED_EDGE('',*,*,#302,.F.);
#1041=CARTESIAN_POINT('',(0.0,0.0,-84.995));
#1042=DIRECTION('',(0.0,-0.0,-1.0));
#1043=DIRECTION('',(0.0,1.0,0.0));
#1044=SURFACE_STYLE_FILL_AREA(#1305);
#1045=ORIENTED_EDGE('',*,*,#298,.T.);
#1046=ORIENTED_EDGE('',*,*,#184,.T.);
#1047=ORIENTED_EDGE('',*,*,#242,.F.);
#1048=ORIENTED_EDGE('',*,*,#296,.F.);
#1049=CARTESIAN_POINT('',(0.0,0.0,-59.8));
#1050=DIRECTION('',(0.0,0.0,-1.0));
#1051=DIRECTION('',(0.0,-1.0,0.0));
#1052=CARTESIAN_POINT('',(0.0,0.0,-62.782));
#1053=DIRECTION('',(0.0,0.0,-1.0));
#1054=DIRECTION('',(0.0,1.0,0.0));
#1055=CARTESIAN_POINT('',(0.0,0.0,-59.8));
#1056=DIRECTION('',(0.0,0.0,-1.0));
#1057=DIRECTION('',(0.0,-1.0,0.0));
#1058=DIRECTION('',(-1.22456337689388E-016,0.999964905515669,0.00837781218688567));
#1059=CARTESIAN_POINT('',(0.0,0.0,-62.782));
#1060=DIRECTION('',(0.0,0.0,-1.0));
#1061=DIRECTION('',(0.0,1.0,0.0));
#1062=CARTESIAN_POINT('',(0.0,0.0,-84.99));
#1063=DIRECTION('',(0.0,0.0,-1.0));
#1064=DIRECTION('',(0.0,1.0,0.0));
#1065=SURFACE_STYLE_FILL_AREA(#1306);
#1066=ORIENTED_EDGE('',*,*,#148,.T.);
#1067=ORIENTED_EDGE('',*,*,#206,.F.);
#1068=ORIENTED_EDGE('',*,*,#282,.T.);
#1069=ORIENTED_EDGE('',*,*,#150,.T.);
#1070=CARTESIAN_POINT('',(0.0,0.0,-61.3245435825));
#1071=DIRECTION('',(-0.0,-0.0,1.0));
#1072=DIRECTION('',(0.0,1.0,0.0));
#1073=DIRECTION('',(0.0,-0.0,1.0));
#1074=CARTESIAN_POINT('',(0.0,0.0,-61.983087165));
#1075=DIRECTION('',(0.0,0.0,-1.0));
#1076=DIRECTION('',(0.0,1.0,0.0));
#1077=SURFACE_STYLE_FILL_AREA(#1307);
#1078=ORIENTED_EDGE('',*,*,#226,.T.);
#1079=ORIENTED_EDGE('',*,*,#246,.F.);
#1080=ORIENTED_EDGE('',*,*,#230,.T.);
#1081=ORIENTED_EDGE('',*,*,#152,.T.);
#1082=CARTESIAN_POINT('',(0.0,0.0,-84.995));
#1083=DIRECTION('',(0.0,-0.0,-1.0));
#1084=DIRECTION('',(0.0,1.0,0.0));
#1085=SURFACE_STYLE_FILL_AREA(#1308);
#1086=ORIENTED_EDGE('',*,*,#172,.T.);
#1087=ORIENTED_EDGE('',*,*,#252,.F.);
#1088=ORIENTED_EDGE('',*,*,#288,.T.);
#1089=ORIENTED_EDGE('',*,*,#258,.T.);
#1090=CARTESIAN_POINT('',(0.0,0.0,-84.8126749985727));
#1091=DIRECTION('',(-0.0,-0.0,1.0));
#1092=DIRECTION('',(0.0,1.0,0.0));
#1093=DIRECTION('',(0.0,0.0,-1.0));
#1094=DIRECTION('',(0.0,-0.0,-1.0));
#1095=SURFACE_STYLE_FILL_AREA(#1309);
#1096=ORIENTED_EDGE('',*,*,#256,.T.);
#1097=ORIENTED_EDGE('',*,*,#238,.F.);
#1098=ORIENTED_EDGE('',*,*,#324,.T.);
#1099=ORIENTED_EDGE('',*,*,#206,.T.);
#1100=CARTESIAN_POINT('',(0.0,0.0,-62.3825435825));
#1101=DIRECTION('',(-0.0,-0.0,1.0));
#1102=DIRECTION('',(0.0,1.0,0.0));
#1103=DIRECTION('',(-0.0,-0.0,1.0));
#1104=CARTESIAN_POINT('',(0.0,0.0,-85.0));
#1105=DIRECTION('',(0.0,0.0,-1.0));
#1106=DIRECTION('',(0.0,1.0,0.0));
#1107=SURFACE_STYLE_FILL_AREA(#1310);
#1108=ORIENTED_EDGE('',*,*,#212,.T.);
#1109=ORIENTED_EDGE('',*,*,#298,.F.);
#1110=ORIENTED_EDGE('',*,*,#218,.T.);
#1111=ORIENTED_EDGE('',*,*,#280,.T.);
#1112=CARTESIAN_POINT('',(0.0,0.0,-22.331));
#1113=DIRECTION('',(-0.0,-0.0,1.0));
#1114=DIRECTION('',(0.0,1.0,0.0));
#1115=DIRECTION('',(-1.22456337689388E-016,0.999964905515669,-0.00837781218688269));
#1116=SURFACE_STYLE_FILL_AREA(#1311);
#1117=ORIENTED_EDGE('',*,*,#262,.F.);
#1118=ORIENTED_EDGE('',*,*,#242,.T.);
#1119=ORIENTED_EDGE('',*,*,#320,.F.);
#1120=ORIENTED_EDGE('',*,*,#240,.F.);
#1121=CARTESIAN_POINT('',(0.0,0.0,-60.233));
#1122=DIRECTION('',(-0.0,-0.0,1.0));
#1123=DIRECTION('',(0.0,1.0,0.0));
#1124=DIRECTION('',(-1.22456337689388E-016,0.999964905515669,0.00837781218688269));
#1125=CARTESIAN_POINT('',(0.0,0.0,-62.782));
#1126=DIRECTION('',(0.0,0.0,-1.0));
#1127=DIRECTION('',(0.0,1.0,0.0));
#1128=SURFACE_STYLE_FILL_AREA(#1312);
#1129=ORIENTED_EDGE('',*,*,#286,.T.);
#1130=ORIENTED_EDGE('',*,*,#220,.T.);
#1131=ORIENTED_EDGE('',*,*,#192,.T.);
#1132=ORIENTED_EDGE('',*,*,#196,.F.);
#1133=CARTESIAN_POINT('',(0.0,0.0,-84.995));
#1134=DIRECTION('',(0.0,-0.0,-1.0));
#1135=DIRECTION('',(0.0,1.0,0.0));
#1136=SURFACE_STYLE_FILL_AREA(#1313);
#1137=ORIENTED_EDGE('',*,*,#342,.F.);
#1138=ORIENTED_EDGE('',*,*,#322,.T.);
#1139=ORIENTED_EDGE('',*,*,#312,.F.);
#1140=ORIENTED_EDGE('',*,*,#292,.F.);
#1141=CARTESIAN_POINT('',(0.0,0.0,-73.886));
#1142=DIRECTION('',(-0.0,-0.0,1.0));
#1143=DIRECTION('',(0.0,1.0,0.0));
#1144=CARTESIAN_POINT('',(0.0,0.0,-62.782));
#1145=DIRECTION('',(0.0,0.0,-1.0));
#1146=DIRECTION('',(0.0,1.0,0.0));
#1147=CARTESIAN_POINT('',(0.0,0.0,-60.666));
#1148=DIRECTION('',(0.0,0.0,-1.0));
#1149=DIRECTION('',(0.0,1.0,0.0));
#1150=CARTESIAN_POINT('',(0.0,0.0,-59.8));
#1151=DIRECTION('',(0.0,0.0,-1.0));
#1152=DIRECTION('',(0.0,1.0,0.0));
#1153=SURFACE_STYLE_FILL_AREA(#1314);
#1154=ORIENTED_EDGE('',*,*,#342,.T.);
#1155=ORIENTED_EDGE('',*,*,#152,.F.);
#1156=ORIENTED_EDGE('',*,*,#312,.T.);
#1157=ORIENTED_EDGE('',*,*,#232,.T.);
#1158=CARTESIAN_POINT('',(0.0,0.0,-73.886));
#1159=DIRECTION('',(-0.0,-0.0,1.0));
#1160=DIRECTION('',(0.0,1.0,0.0));
#1161=CARTESIAN_POINT('',(0.0,0.0,-85.0));
#1162=DIRECTION('',(0.0,0.0,-1.0));
#1163=DIRECTION('',(0.0,1.0,0.0));
#1164=DIRECTION('',(-0.0,-0.0,1.0));
#1165=CARTESIAN_POINT('',(0.0,0.0,-85.0));
#1166=DIRECTION('',(0.0,0.0,-1.0));
#1167=DIRECTION('',(0.0,1.0,0.0));
#1168=DIRECTION('',(0.0,0.0,-1.0));
#1169=DIRECTION('',(8.65927457071936E-017,-0.707106781186548,-0.707106781186547));
#1170=CARTESIAN_POINT('',(0.0,0.0,-84.6253499971454));
#1171=DIRECTION('',(0.0,0.0,-1.0));
#1172=DIRECTION('',(0.0,1.0,0.0));
#1173=DIRECTION('',(6.122707232284E-017,-0.499973498681689,-0.866040703787063));
#1174=CARTESIAN_POINT('',(0.0,0.0,-62.782));
#1175=DIRECTION('',(0.0,0.0,-1.0));
#1176=DIRECTION('',(0.0,1.0,0.0));
#1177=SURFACE_STYLE_FILL_AREA(#1315);
#1178=ORIENTED_EDGE('',*,*,#256,.F.);
#1179=ORIENTED_EDGE('',*,*,#144,.T.);
#1180=ORIENTED_EDGE('',*,*,#324,.F.);
#1181=ORIENTED_EDGE('',*,*,#194,.F.);
#1182=CARTESIAN_POINT('',(0.0,0.0,-62.3825435825));
#1183=DIRECTION('',(-0.0,-0.0,1.0));
#1184=DIRECTION('',(0.0,1.0,0.0));
#1185=CARTESIAN_POINT('',(0.0,0.0,-62.782));
#1186=DIRECTION('',(0.0,0.0,-1.0));
#1187=DIRECTION('',(0.0,1.0,0.0));
#1188=DIRECTION('',(-8.65927457071937E-017,0.707106781186549,0.707106781186546));
#1189=SURFACE_STYLE_FILL_AREA(#1316);
#1190=ORIENTED_EDGE('',*,*,#302,.T.);
#1191=ORIENTED_EDGE('',*,*,#246,.T.);
#1192=CARTESIAN_POINT('',(0.0,1.35054358,-85.0));
#1193=DIRECTION('',(0.0,0.0,-1.0));
#1194=DIRECTION('',(0.0,1.0,0.0));
#1195=CARTESIAN_POINT('',(0.0,0.0,-0.399999999999999));
#1196=DIRECTION('',(0.0,0.0,-1.0));
#1197=DIRECTION('',(0.0,1.0,0.0));
#1198=DIRECTION('',(-0.0,-0.0,1.0));
#1199=SURFACE_STYLE_FILL_AREA(#1317);
#1200=ORIENTED_EDGE('',*,*,#254,.T.);
#1201=ORIENTED_EDGE('',*,*,#258,.F.);
#1202=ORIENTED_EDGE('',*,*,#248,.T.);
#1203=ORIENTED_EDGE('',*,*,#272,.T.);
#1204=CARTESIAN_POINT('',(0.0,0.0,-73.7036749985727));
#1205=DIRECTION('',(-0.0,-0.0,1.0));
#1206=DIRECTION('',(0.0,1.0,0.0));
#1207=DIRECTION('',(-1.22456337689388E-016,0.999964905515669,-0.00837781218688567));
#1208=DIRECTION('',(1.06054021204601E-016,-0.866025403784439,0.5));
#1209=CARTESIAN_POINT('',(0.0,0.0,-84.99));
#1210=DIRECTION('',(0.0,0.0,-1.0));
#1211=DIRECTION('',(0.0,1.0,0.0));
#1212=CARTESIAN_POINT('',(0.0,0.0,0.0));
#1213=DIRECTION('',(0.0,0.0,-1.0));
#1214=DIRECTION('',(0.0,1.0,0.0));
#1215=CARTESIAN_POINT('',(0.0,0.0,-59.8));
#1216=DIRECTION('',(0.0,0.0,-1.0));
#1217=DIRECTION('',(0.0,1.0,0.0));
#1218=CARTESIAN_POINT('',(0.0,0.0,-59.8));
#1219=DIRECTION('',(0.0,0.0,-1.0));
#1220=DIRECTION('',(0.0,-1.0,0.0));
#1221=CARTESIAN_POINT('',(0.0,0.0,-85.0));
#1222=DIRECTION('',(0.0,0.0,-1.0));
#1223=DIRECTION('',(0.0,1.0,0.0));
#1224=SURFACE_STYLE_FILL_AREA(#1318);
#1225=ORIENTED_EDGE('',*,*,#322,.F.);
#1226=ORIENTED_EDGE('',*,*,#232,.F.);
#1227=ORIENTED_EDGE('',*,*,#194,.T.);
#1228=ORIENTED_EDGE('',*,*,#238,.T.);
#1229=CARTESIAN_POINT('',(0.0,2.1042935825,-62.782));
#1230=DIRECTION('',(0.0,0.0,-1.0));
#1231=DIRECTION('',(0.0,1.0,0.0));
#1232=CARTESIAN_POINT('',(0.0,0.0,-0.399999999999999));
#1233=DIRECTION('',(0.0,0.0,-1.0));
#1234=DIRECTION('',(0.0,1.0,0.0));
#1235=DIRECTION('',(-0.0,-0.0,1.0));
#1236=SURFACE_STYLE_FILL_AREA(#1319);
#1237=ORIENTED_EDGE('',*,*,#170,.F.);
#1238=ORIENTED_EDGE('',*,*,#294,.F.);
#1239=CARTESIAN_POINT('',(0.0,1.8,0.0));
#1240=DIRECTION('',(-0.0,0.0,1.0));
#1241=DIRECTION('',(0.0,-1.0,0.0));
#1242=DIRECTION('',(6.122707232284E-017,-0.499973498681689,0.866040703787063));
#1243=CARTESIAN_POINT('',(0.0,0.0,-62.782));
#1244=DIRECTION('',(0.0,0.0,-1.0));
#1245=DIRECTION('',(0.0,1.0,0.0));
#1246=DIRECTION('',(8.65927457071936E-017,-0.707106781186548,0.707106781186547));
#1247=SURFACE_STYLE_FILL_AREA(#1320);
#1248=ORIENTED_EDGE('',*,*,#172,.F.);
#1249=ORIENTED_EDGE('',*,*,#154,.T.);
#1250=ORIENTED_EDGE('',*,*,#288,.F.);
#1251=ORIENTED_EDGE('',*,*,#220,.F.);
#1252=CARTESIAN_POINT('',(0.0,0.0,-84.8126749985727));
#1253=DIRECTION('',(-0.0,-0.0,1.0));
#1254=DIRECTION('',(0.0,1.0,0.0));
#1255=SURFACE_STYLE_FILL_AREA(#1321);
#1256=ORIENTED_EDGE('',*,*,#362,.T.);
#1257=ORIENTED_EDGE('',*,*,#280,.F.);
#1258=ORIENTED_EDGE('',*,*,#274,.T.);
#1259=ORIENTED_EDGE('',*,*,#294,.T.);
#1260=CARTESIAN_POINT('',(0.0,0.0,-0.199999999999996));
#1261=DIRECTION('',(0.0,-0.0,-1.0));
#1262=DIRECTION('',(0.0,1.0,0.0));
#1263=SURFACE_STYLE_FILL_AREA(#1322);
#1264=SURFACE_STYLE_FILL_AREA(#1323);
#1265=ORIENTED_EDGE('',*,*,#214,.T.);
#1266=ORIENTED_EDGE('',*,*,#196,.T.);
#1267=ORIENTED_EDGE('',*,*,#204,.T.);
#1268=ORIENTED_EDGE('',*,*,#266,.F.);
#1269=CARTESIAN_POINT('',(0.0,0.0,-73.886));
#1270=DIRECTION('',(-0.0,-0.0,1.0));
#1271=DIRECTION('',(0.0,1.0,0.0));
#1272=DIRECTION('',(0.0,0.0,-1.0));
#1273=SURFACE_STYLE_FILL_AREA(#1324);
#1274=ORIENTED_EDGE('',*,*,#286,.F.);
#1275=ORIENTED_EDGE('',*,*,#168,.F.);
#1276=ORIENTED_EDGE('',*,*,#192,.F.);
#1277=ORIENTED_EDGE('',*,*,#252,.T.);
#1278=CARTESIAN_POINT('',(0.0,0.0,-84.995));
#1279=DIRECTION('',(0.0,-0.0,-1.0));
#1280=DIRECTION('',(0.0,1.0,0.0));
#1281=SURFACE_STYLE_FILL_AREA(#1325);
#1282=ORIENTED_EDGE('',*,*,#148,.F.);
#1283=ORIENTED_EDGE('',*,*,#240,.T.);
#1284=ORIENTED_EDGE('',*,*,#282,.F.);
#1285=ORIENTED_EDGE('',*,*,#144,.F.);
#1286=CARTESIAN_POINT('',(0.0,0.0,-61.3245435825));
#1287=DIRECTION('',(-0.0,-0.0,1.0));
#1288=DIRECTION('',(0.0,1.0,0.0));
#1289=DIRECTION('',(-8.65927457071937E-017,0.707106781186549,-0.707106781186546));
#1290=SURFACE_STYLE_FILL_AREA(#1326);
#1291=ORIENTED_EDGE('',*,*,#214,.F.);
#1292=ORIENTED_EDGE('',*,*,#182,.F.);
#1293=ORIENTED_EDGE('',*,*,#204,.F.);
#1294=ORIENTED_EDGE('',*,*,#168,.T.);
#1295=CARTESIAN_POINT('',(0.0,0.0,-73.886));
#1296=DIRECTION('',(-0.0,-0.0,1.0));
#1297=DIRECTION('',(0.0,1.0,0.0));
#1298=FILL_AREA_STYLE('',(#1327));
#1299=FILL_AREA_STYLE('',(#1328));
#1300=FILL_AREA_STYLE('',(#1329));
#1301=FILL_AREA_STYLE('',(#1330));
#1302=FILL_AREA_STYLE('',(#1331));
#1303=FILL_AREA_STYLE('',(#1332));
#1304=FILL_AREA_STYLE('',(#1333));
#1305=FILL_AREA_STYLE('',(#1334));
#1306=FILL_AREA_STYLE('',(#1335));
#1307=FILL_AREA_STYLE('',(#1336));
#1308=FILL_AREA_STYLE('',(#1337));
#1309=FILL_AREA_STYLE('',(#1338));
#1310=FILL_AREA_STYLE('',(#1339));
#1311=FILL_AREA_STYLE('',(#1340));
#1312=FILL_AREA_STYLE('',(#1341));
#1313=FILL_AREA_STYLE('',(#1342));
#1314=FILL_AREA_STYLE('',(#1343));
#1315=FILL_AREA_STYLE('',(#1344));
#1316=FILL_AREA_STYLE('',(#1345));
#1317=FILL_AREA_STYLE('',(#1346));
#1318=FILL_AREA_STYLE('',(#1347));
#1319=FILL_AREA_STYLE('',(#1348));
#1320=FILL_AREA_STYLE('',(#1349));
#1321=FILL_AREA_STYLE('',(#1350));
#1322=FILL_AREA_STYLE('',(#1351));
#1323=FILL_AREA_STYLE('',(#1352));
#1324=FILL_AREA_STYLE('',(#1353));
#1325=FILL_AREA_STYLE('',(#1354));
#1326=FILL_AREA_STYLE('',(#1355));
#1327=FILL_AREA_STYLE_COLOUR('',#1356);
#1328=FILL_AREA_STYLE_COLOUR('',#1357);
#1329=FILL_AREA_STYLE_COLOUR('',#1358);
#1330=FILL_AREA_STYLE_COLOUR('',#1359);
#1331=FILL_AREA_STYLE_COLOUR('',#1360);
#1332=FILL_AREA_STYLE_COLOUR('',#1361);
#1333=FILL_AREA_STYLE_COLOUR('',#1362);
#1334=FILL_AREA_STYLE_COLOUR('',#1363);
#1335=FILL_AREA_STYLE_COLOUR('',#1364);
#1336=FILL_AREA_STYLE_COLOUR('',#1365);
#1337=FILL_AREA_STYLE_COLOUR('',#1366);
#1338=FILL_AREA_STYLE_COLOUR('',#1367);
#1339=FILL_AREA_STYLE_COLOUR('',#1368);
#1340=FILL_AREA_STYLE_COLOUR('',#1369);
#1341=FILL_AREA_STYLE_COLOUR('',#1370);
#1342=FILL_AREA_STYLE_COLOUR('',#1371);
#1343=FILL_AREA_STYLE_COLOUR('',#1372);
#1344=FILL_AREA_STYLE_COLOUR('',#1373);
#1345=FILL_AREA_STYLE_COLOUR('',#1374);
#1346=FILL_AREA_STYLE_COLOUR('',#1375);
#1347=FILL_AREA_STYLE_COLOUR('',#1376);
#1348=FILL_AREA_STYLE_COLOUR('',#1377);
#1349=FILL_AREA_STYLE_COLOUR('',#1378);
#1350=FILL_AREA_STYLE_COLOUR('',#1379);
#1351=FILL_AREA_STYLE_COLOUR('',#1380);
#1352=FILL_AREA_STYLE_COLOUR('',#1381);
#1353=FILL_AREA_STYLE_COLOUR('',#1382);
#1354=FILL_AREA_STYLE_COLOUR('',#1383);
#1355=FILL_AREA_STYLE_COLOUR('',#1384);
#1356=COLOUR_RGB('',0.800000011920929,0.800000011920929,0.800000011920929);
#1357=COLOUR_RGB('',0.498039215803146,0.498039215803146,0.498039215803146);
#1358=COLOUR_RGB('',0.498039215803146,0.498039215803146,0.498039215803146);
#1359=COLOUR_RGB('',0.800000011920929,0.800000011920929,0.800000011920929);
#1360=COLOUR_RGB('',0.800000011920929,0.800000011920929,0.800000011920929);
#1361=COLOUR_RGB('',0.498039215803146,0.498039215803146,0.498039215803146);
#1362=COLOUR_RGB('',0.498039215803146,0.498039215803146,0.498039215803146);
#1363=COLOUR_RGB('',0.498039215803146,0.498039215803146,0.498039215803146);
#1364=COLOUR_RGB('',0.498039215803146,0.498039215803146,0.498039215803146);
#1365=COLOUR_RGB('',0.498039215803146,0.498039215803146,0.498039215803146);
#1366=COLOUR_RGB('',0.800000011920929,0.800000011920929,0.800000011920929);
#1367=COLOUR_RGB('',0.498039215803146,0.498039215803146,0.498039215803146);
#1368=COLOUR_RGB('',0.498039215803146,0.498039215803146,0.498039215803146);
#1369=COLOUR_RGB('',0.498039215803146,0.498039215803146,0.498039215803146);
#1370=COLOUR_RGB('',0.800000011920929,0.800000011920929,0.800000011920929);
#1371=COLOUR_RGB('',0.498039215803146,0.498039215803146,0.498039215803146);
#1372=COLOUR_RGB('',0.498039215803146,0.498039215803146,0.498039215803146);
#1373=COLOUR_RGB('',0.498039215803146,0.498039215803146,0.498039215803146);
#1374=COLOUR_RGB('',0.498039215803146,0.498039215803146,0.498039215803146);
#1375=COLOUR_RGB('',0.800000011920929,0.800000011920929,0.800000011920929);
#1376=COLOUR_RGB('',0.498039215803146,0.498039215803146,0.498039215803146);
#1377=COLOUR_RGB('',0.498039215803146,0.498039215803146,0.498039215803146);
#1378=COLOUR_RGB('',0.800000011920929,0.800000011920929,0.800000011920929);
#1379=COLOUR_RGB('',0.498039215803146,0.498039215803146,0.498039215803146);
#1380=COLOUR_RGB('',0.498039215803146,0.498039215803146,0.498039215803146);
#1381=COLOUR_RGB('',0.800000011920929,0.800000011920929,0.800000011920929);
#1382=COLOUR_RGB('',0.800000011920929,0.800000011920929,0.800000011920929);
#1383=COLOUR_RGB('',0.498039215803146,0.498039215803146,0.498039215803146);
#1384=COLOUR_RGB('',0.800000011920929,0.800000011920929,0.800000011920929);
#1385=AXIS2_PLACEMENT_3D('PCS',#1386,#1387,#1388);
#1386=CARTESIAN_POINT('',(0.0,0.0,0.0));
#1387=DIRECTION('',(0.0,0.0,1.0));
#1388=DIRECTION('',(1.0,0.0,0.0));
#1389=AXIS2_PLACEMENT_3D('CIP',#1390,#1391,#1392);
#1390=CARTESIAN_POINT('',(0.0,0.0,-85.0));
#1391=DIRECTION('',(0.0,0.0,1.0));
#1392=DIRECTION('',(1.0,0.0,0.0));
#1393=AXIS2_PLACEMENT_3D('CRP',#1394,#1395,#1396);
#1394=CARTESIAN_POINT('',(-3.35,0.0,-85.0));
#1395=DIRECTION('',(0.0,0.0,1.0));
#1396=DIRECTION('',(1.0,0.0,0.0));
#1397=AXIS2_PLACEMENT_3D('MCS',#1398,#1399,#1400);
#1398=CARTESIAN_POINT('',(0.0,0.0,-44.262));
#1399=DIRECTION('',(0.0,0.0,1.0));
#1400=DIRECTION('',(1.0,0.0,0.0));
#1401=CONSTRUCTIVE_GEOMETRY_REPRESENTATION_RELATIONSHIP('coordinate systems',$,#129,#1402);
#1402=CONSTRUCTIVE_GEOMETRY_REPRESENTATION('coordinate systems',(#1385,#1389,#1393,#1397),#10);
ENDSEC;
END-ISO-10303-21;
